<?xml version="1.0" encoding="utf-8"?>
<!-- Generator: Adobe Illustrator 17.1.0, SVG Export Plug-In . SVG Version: 6.00 Build 0)  -->
<!DOCTYPE svg PUBLIC "-//W3C//DTD SVG 1.1//EN" "http://www.w3.org/Graphics/SVG/1.1/DTD/svg11.dtd">
<svg version="1.1" id="Layer_1" xmlns="http://www.w3.org/2000/svg" xmlns:xlink="http://www.w3.org/1999/xlink" x="0px" y="0px"
	 width="17.8px" height="12.2px" viewBox="0 0 17.8 12.2" enable-background="new 0 0 17.8 12.2" xml:space="preserve">
<path fill="#404040" d="M2,9.8h0.8c0.2,0,0.3-0.1,0.4-0.1s0.2-0.2,0.2-0.4V3.5c0-0.1-0.1-0.1-0.3-0.2L2.7,3.2H1.9V3.1L2,3
	c0.5,0,1-0.1,1.4-0.2s0.7-0.3,1-0.5C4.7,2.2,4.9,2,5.1,1.9s0.3-0.2,0.5-0.2h0.3L6,1.8v6.4c0,0.5,0,0.9,0.1,1.3
	C6,9.8,6.1,9.9,6.3,9.9H7l0.2-0.1l0.2,0.1l-0.1,0.3c-0.4-0.1-0.7-0.1-1.1-0.1H2C2,10.1,2,9.8,2,9.8z M3.7,9.5v0.1V9.5z M3.9,4.2h0.2
	C4.1,4.2,3.9,4.2,3.9,4.2z M4,3.6C4,3.6,4,3.7,4,3.6L4,3.6l0.2-0.1L4.1,3.3L4,3.6L4,3.6z M4.1,5.1C4.1,5.1,4,5.1,4.1,5.1L4.3,5V4.9
	H4.1C4.1,4.9,4.1,5.1,4.1,5.1z M4.1,6.6L4.1,6.6l0.2-0.2H4.2L4.1,6.6C4,6.5,4,6.6,4.1,6.6z M4.2,9.7c0.1,0.1,0.1,0.1,0.1,0.2
	c0,0,0.1-0.1,0.1-0.2V9.6c0,0,0-0.1-0.1-0.1L4,9.6L4.2,9.7z M4.1,9.1h0.3C4.3,9,4.2,9,4.2,9S4.1,8.9,4.1,8.8
	C4.1,8.8,4.1,9.1,4.1,9.1z M4.1,6.3C4.1,6.3,4.2,6.3,4.1,6.3L4.1,6.3z M4.3,4L4.3,4c0.1-0.1,0.1-0.2,0.2-0.2V3.7L4.3,3.6L4.1,3.9
	C4.1,3.9,4.3,4,4.3,4z M4.2,4.5c0.1,0.1,0.1,0.1,0.2,0.1c0-0.1,0-0.2,0.1-0.3S4.6,4.1,4.7,4H4.6C4.5,4.2,4.4,4.3,4.1,4.3
	C4.1,4.3,4.2,4.4,4.2,4.5z M4.2,6.2h0.2H4.2z M4.6,5.2L4.6,5.2h0.2H4.6l0.2-0.3V4.8c0,0,0-0.1-0.1-0.1v0.2C4.6,5.1,4.5,5.1,4.6,5.2
	L4.4,5.1L4.3,5.3C4.3,5.3,4.6,5.2,4.6,5.2z M4.3,8.9l0.1-0.1C4.4,8.8,4.3,8.8,4.3,8.9z M4.4,3.2v0.2V3.3C4.4,3.3,4.4,3.2,4.4,3.2z
	 M4.5,7.4L4.5,7.4L4.5,7.4z M4.4,8.7h0.2H4.4z M4.7,6.8C4.7,6.7,4.7,6.7,4.7,6.8l0.2-0.1c0,0,0.1,0,0.1-0.1L4.7,6.8H4.4l0.1,0.1V6.8
	H4.7L4.6,6.9C4.7,6.9,4.7,6.8,4.7,6.8z M4.6,3.2c0,0-0.1,0.1-0.1,0.2L4.6,3.2C4.7,3.2,4.7,3.1,4.6,3.2C4.7,3.1,4.7,3.2,4.6,3.2z
	 M4.6,6.5l0.2-0.1c0,0-0.1,0-0.1-0.1L4.6,6.2v0.1C4.5,6.4,4.6,6.5,4.6,6.5z M4.5,9.9l0.1-0.1L4.5,9.9z M4.7,6L4.7,6L4.7,6z M4.7,3.9
	L4.7,3.9L4.7,3.9z M4.6,6.7h0.2H4.6z M4.7,9.2C4.7,9.1,4.8,9.1,4.7,9.2z M4.9,9.2H4.7c0,0-0.1,0-0.1,0.1l0.1,0.1
	C4.7,9.4,4.9,9.2,4.9,9.2z M4.9,7.9L4.9,7.9L5,7.7c0,0,0-0.1-0.1-0.1L4.8,7.7L4.9,7.9z M5,3.7h0.4l0.1,0.1v0.1l0.1-0.2V3.6H5.4V3.5
	l0.1-0.1C5.1,3.4,5,3.4,5,3.5C4.9,3.5,4.9,3.6,5,3.7z M5,9.9L4.9,9.8L5,9.9z M4.9,2.6h0.2H4.9z M5.1,5.6H4.9v0.1L5.1,5.6z M5,9.5
	v0.1V9.5c0.1,0,0.1,0,0.1-0.1L5,9.5z M5.1,4.7L5.1,4.7l0.2-0.1L5.1,4.7z M5.1,6.3L5.1,6.3L5.1,6.3L5.1,6.3z M5.1,5l0.2-0.1L5.1,5z
	 M5.2,4.2C5.2,4.1,5.2,4.1,5.2,4.2C5.3,4.1,5.2,4.1,5.2,4.2C5.1,4.2,5.1,4.2,5.2,4.2v0.2V4.2z M5.3,7.1l0.1-0.2L5.3,7.1L5.2,6.9
	C5.2,7,5.2,7.1,5.3,7.1z M5.5,9.7L5.5,9.7l0.1-0.1c0,0-0.1,0-0.1-0.1c0,0-0.1,0-0.1-0.1V9.3L5.2,9.5l0.1,0.1L5.2,9.9
	C5.2,9.9,5.5,9.7,5.5,9.7z M5.2,7.5h0.2H5.2z M5.3,3.5h0.2H5.3z M5.5,8.5L5.3,8.6C5.4,8.6,5.5,8.5,5.5,8.5z M11.4,10.2l-0.3-0.1
	c-0.1,0-0.2-0.1-0.3-0.2c-0.1-0.1-0.2-0.1-0.2-0.1c-0.4-0.2-0.7-0.5-1-0.8S9.2,8.3,9,8C8.8,7.6,8.7,7.2,8.7,6.8
	C8.6,6.4,8.6,6,8.6,5.6c0-0.2,0-0.5,0.1-0.7c0-0.2,0.1-0.4,0.2-0.6C9,4.1,9.1,3.8,9.3,3.5L10,2.7c0.2-0.3,0.5-0.5,0.8-0.6
	c0.3-0.2,0.6-0.3,0.9-0.3L11.4,2c-0.1,0.1-0.1,0.2-0.1,0.3s-0.1,0.2-0.1,0.4v1.7c0,0.4,0,0.9-0.1,1.3v3.2c0,0.1,0,0.3,0.1,0.4
	s0.1,0.3,0.2,0.4c0.1,0.1,0.2,0.2,0.3,0.4C11.6,10.2,11.5,10.2,11.4,10.2z M9.1,5.6L9.1,5.6L9.1,5.6z M9.1,7.1L9.2,7L9.1,7.1z
	 M9.3,6.5c0.1,0,0.1,0,0.2,0.1l0.1-0.1H9.3V6.3L9.1,6.5H9.3z M9.3,7.1L9.3,7.1L9.3,7.1z M9.8,8.3c0.1-0.1,0.1-0.1,0.1-0.2V7.7
	L9.7,7.8L9.8,8L9.7,7.9L9.5,8l0.1-0.2L9.5,7.6H9.4l0.1,0.2L9.4,8l0.1,0.1C9.5,8.1,9.6,8.2,9.8,8.3L9.6,8.2c-0.1,0-0.1,0.1-0.1,0.1
	l0.1-0.1L9.8,8.3L9.7,8.4C9.7,8.4,9.8,8.4,9.8,8.3z M9.4,7.2C9.5,7.1,9.5,7.2,9.4,7.2z M9.6,7.5h0.2l0.1-0.1V7.3H9.8l0.1-0.2
	c-0.1,0-0.1,0-0.2,0.1L9.6,7.3L9.4,7.4C9.5,7.4,9.6,7.4,9.6,7.5z M9.7,4.3H9.6H9.7z M9.7,6.3L9.6,6.2L9.7,6.3z M9.8,4.2
	C9.8,4.1,9.7,4.1,9.8,4.2z M9.8,5L9.7,5.1C9.8,5.1,9.8,5.1,9.8,5c0.1,0,0.1-0.1,0.1-0.1L9.8,5z M10,7.1L9.9,6.9H9.8V7
	C9.8,7,10,7.1,10,7.1z M10,3.9L9.8,4L10,3.9z M9.8,4.2L9.8,4.2C9.9,4.2,9.9,4.2,9.8,4.2z M10,6.6l0.1-0.1C10,6.5,10,6.5,10,6.6z
	 M10,7.3l0.3-0.2L10.2,7C10.2,7,10,7.3,10,7.3z M10.3,5.9L10,6.1L10.3,5.9z M10.2,3.8h-0.1v0.1L10.2,3.8z M10.2,4.8L10.2,4.8
	L10.2,4.8z M10.2,6.7h0.1H10.2L10,6.8C10.1,6.8,10.2,6.8,10.2,6.7z M10.1,8.7h0.2H10.1z M10.3,6.4V6.2l-0.1-0.1
	C10.2,6.1,10.3,6.4,10.3,6.4z M10.4,4.1L10.5,4c0,0,0-0.1-0.1-0.1l-0.1-0.1V4L10.4,4.1C10.4,4,10.4,4.1,10.4,4.1z M10.4,7.4
	l-0.1,0.1L10.4,7.4z M10.5,3.6l-0.1-0.2l-0.1,0.1C10.3,3.5,10.5,3.6,10.5,3.6z M10.4,7.3c0.1,0,0.1,0,0.1-0.1L10.6,7l-0.1-0.1v0.2
	C10.4,7.2,10.4,7.2,10.4,7.3z M10.6,6.4h-0.1H10.6z M10.6,6.8h-0.1H10.6z M10.7,5.8l-0.1,0.1L10.7,5.8z M10.7,5.3L10.7,5.3L10.7,5.3
	z M12.9,9.8L13,9.6c0-0.1,0.1-0.3,0.1-0.5s0.1-0.5,0.1-0.8V3.2c0-0.2,0-0.4-0.1-0.6c0-0.2-0.1-0.4-0.1-0.5L12.9,2h-0.1
	c0,0-0.1,0-0.1-0.1l0.1-0.1C13.2,1.9,13.6,2,14,2.3s0.7,0.7,1,1.1s0.5,0.9,0.7,1.3c0.2,0.5,0.2,0.9,0.2,1.3v0.8c0,0.1,0,0.3-0.1,0.4
	l-0.1,0.3l-0.3,0.4c-0.1,0.2-0.2,0.4-0.4,0.6s-0.3,0.4-0.5,0.6c-0.2,0.2-0.3,0.4-0.5,0.5c-0.2,0.2-0.3,0.3-0.5,0.4
	c-0.2,0.1-0.3,0.1-0.4,0.1L13,10C12.8,10,12.9,9.9,12.9,9.8z M14,3.3l-0.3-0.4V3h-0.1c0,0-0.1,0-0.1,0.1v0.1h0.2c0,0,0,0.1-0.1,0.1
	l-0.1,0.1h0.4C13.9,3.4,14,3.3,14,3.3z M13.7,2.8h-0.2C13.6,2.9,13.7,2.9,13.7,2.8z M13.8,7h0.1H13.8z M13.8,3.5
	c0,0.1,0.1,0.1,0.1,0.1S13.9,3.5,13.8,3.5c0.1-0.1,0-0.2,0-0.2V3.5z M14,3.6l-0.3-0.1L14,3.6z M14.1,4.5l-0.2,0.1
	C14,4.6,14,4.6,14.1,4.5z M13.9,6.6v0.2L14,6.5C13.9,6.5,13.9,6.6,13.9,6.6z M13.9,4.9L14,4.7L13.9,4.9z M14.1,3.1
	C14,3.1,14,3,14.1,3.1L14,3C14,3.1,14,3.1,14.1,3.1z M14,3.6l0.1-0.2H14V3.6z M14.1,3.9L14.1,3.9L14.1,3.9z M14.1,6.2L14.1,6.2
	L14.1,6.2z M14.2,4.2H14H14.2z M14.1,5L14.1,5C14,4.9,14,4.9,14.1,5z M14,5.2h0.1H14z M14.1,8.9V9V8.9z M14.1,6.9l0.1-0.1L14.1,6.9z
	 M14.3,3.4l-0.2-0.1v0.1H14.3C14.2,3.5,14.3,3.4,14.3,3.4z M14.1,4C14.2,3.9,14.1,3.9,14.1,4z M14.2,4.4l-0.1,0.2h0.1
	C14.3,4.6,14.3,4.5,14.2,4.4C14.3,4.5,14.3,4.4,14.2,4.4h0.2V4.3L14.2,4.4C14.3,4.3,14.3,4.4,14.2,4.4z M14.3,4.2V4V4.2z M14.3,5.1
	C14.2,5.1,14.2,5.2,14.3,5.1z M14.4,3.6h-0.1H14.4z M14.5,4.7h-0.1H14.5z M14.5,5.9c-0.1,0-0.1,0-0.1,0.1L14.5,5.9z M14.4,3.4
	l0.1,0.2L14.4,3.4z M14.5,6.3L14.5,6.3L14.5,6.3z M14.5,6.5L14.5,6.5L14.5,6.5z M14.6,3.9L14.5,4L14.6,3.9z M14.6,4.5l-0.1,0.1
	C14.6,4.6,14.7,4.6,14.6,4.5c0.1,0,0.1,0,0.1-0.1C14.7,4.5,14.7,4.5,14.6,4.5z M14.6,5.2l0.1-0.1L14.6,5.2z M14.8,4.1h-0.1H14.8z
	 M14.8,4.2v0.2V4.2z M14.9,5V4.8V5L14.9,5z M15,5.2l0.1-0.1C15,5.1,15,5.1,15,5.2z M15.2,6.8L15.2,6.8L15.2,6.8z M15.2,5.5l0.1-0.1
	C15.2,5.4,15.2,5.5,15.2,5.5z"/>
</svg>
