<?xml version="1.0" encoding="utf-8"?>
<!-- Generator: Adobe Illustrator 17.1.0, SVG Export Plug-In . SVG Version: 6.00 Build 0)  -->
<!DOCTYPE svg PUBLIC "-//W3C//DTD SVG 1.1//EN" "http://www.w3.org/Graphics/SVG/1.1/DTD/svg11.dtd">
<svg version="1.1" id="Layer_1" xmlns="http://www.w3.org/2000/svg" xmlns:xlink="http://www.w3.org/1999/xlink" x="0px" y="0px"
	 width="17.8px" height="12.2px" viewBox="0 0 17.8 12.2" enable-background="new 0 0 17.8 12.2" xml:space="preserve">
<path fill="#404040" d="M2.2,9.8H3c0.2,0,0.3-0.1,0.4-0.1s0.2-0.2,0.2-0.4V3.5c0-0.1-0.1-0.1-0.3-0.2H2.2L2.1,3.1V3
	c0.5,0,1-0.1,1.4-0.2s0.7-0.3,1-0.5C4.8,2.2,5.1,2,5.2,1.9c0.2-0.1,0.3-0.2,0.5-0.2H6l0.1,0.1v6.4c0,0.5,0,0.9,0.1,1.3
	c0.1,0.1,0.2,0.2,0.3,0.2h0.7l0.2-0.1l0.2,0.1L7.5,10C7.1,9.9,6.8,9.9,6.4,9.9H2.3C2.3,9.9,2.2,9.8,2.2,9.8z M3.9,9.5v0.1V9.5z
	 M4,4.2h0.2C4.2,4.2,4,4.2,4,4.2z M4.2,3.6C4.2,3.6,4.2,3.7,4.2,3.6L4.2,3.6l0.2-0.1L4.3,3.3L4.2,3.6L4.2,3.6z M4.2,5.1
	C4.2,5.1,4.1,5.1,4.2,5.1L4.5,5L4.4,4.9H4.2L4.2,5.1C4.3,5,4.3,5.1,4.2,5.1z M4.2,6.6L4.2,6.6l0.2-0.2H4.3L4.2,6.6z M4.3,9.7
	c0.1,0.1,0.1,0.1,0.1,0.2c0,0,0.1-0.1,0.1-0.2V9.6c0,0,0-0.1-0.1-0.1L4.1,9.6C4.2,9.6,4.3,9.7,4.3,9.7z M4.2,9.1h0.3L4.4,9
	c0,0-0.1-0.1-0.1-0.2L4.2,8.9C4.2,8.9,4.2,9.1,4.2,9.1z M4.2,6.3C4.2,6.3,4.3,6.3,4.2,6.3L4.2,6.3z M4.5,4L4.5,4
	c0.1-0.1,0.1-0.2,0.2-0.2V3.7L4.5,3.6L4.3,3.9C4.3,3.9,4.5,4,4.5,4z M4.4,4.5c0.1,0.1,0.1,0.1,0.2,0.1c0-0.1,0-0.2,0.1-0.3
	S4.8,4.1,4.8,4C4.7,4.2,4.5,4.3,4.3,4.3C4.3,4.3,4.3,4.4,4.4,4.5z M4.4,6.2h0.2H4.4z M4.7,5.2L4.7,5.2h0.2H4.7l0.2-0.3V4.8
	c0,0,0-0.1-0.1-0.1v0.2C4.8,5.1,4.7,5.1,4.7,5.2L4.7,5.2L4.5,5.3C4.5,5.3,4.7,5.2,4.7,5.2z M4.5,8.9l0.1-0.1
	C4.5,8.8,4.5,8.8,4.5,8.9z M4.5,3.2v0.2V3.3C4.5,3.3,4.5,3.2,4.5,3.2z M4.7,7.4L4.7,7.4L4.7,7.4z M4.6,8.7h0.2H4.6z M4.9,6.8
	C4.9,6.7,4.9,6.7,4.9,6.8l0.2-0.1c0,0,0.1,0,0.1-0.1c-0.1-0.1-0.2,0-0.3,0L4.6,6.7l0.1,0.1H4.6H4.9L4.8,6.9C4.8,6.9,4.9,6.8,4.9,6.8
	z M4.8,3.2c0,0-0.1,0.1-0.1,0.2L4.8,3.2C4.9,3.2,4.9,3.1,4.8,3.2L4.8,3.2z M4.7,6.5C4.8,6.5,4.8,6.6,4.7,6.5L5,6.4
	c0,0-0.1,0-0.1-0.1L4.8,6.2v0.1C4.7,6.4,4.7,6.5,4.7,6.5z M4.7,9.9l0.1-0.1C4.8,9.8,4.7,9.8,4.7,9.9z M4.9,6L4.9,6L4.9,6z M4.8,3.9
	L4.8,3.9L4.8,3.9z M4.8,6.7H5H4.8z M5.1,9.2H4.9c0,0-0.1,0-0.1,0.1L5,9.4C5,9.4,5.1,9.2,5.1,9.2z M5.1,7.9L5.1,7.9l0.1-0.2
	c0,0,0-0.1-0.1-0.1L5,7.7L5.1,7.9z M5.1,3.7h0.4l0.1,0.1v0.1l0.1-0.2V3.6H5.5V3.5l0.1-0.1c-0.1,0-0.1,0-0.2,0.1
	C5.1,3.5,5,3.6,5.1,3.7z M5.2,9.9L5,9.8L5.2,9.9z M5.1,2.6h0.2H5.1z M5.3,5.6H5.1v0.1L5.3,5.6z M5.1,9.5v0.1
	C5.1,9.6,5.2,9.6,5.1,9.5c0.1,0,0.1,0,0.1-0.1L5.1,9.5z M5.3,4.7L5.3,4.7l0.2-0.1L5.3,4.7z M5.2,6.3L5.2,6.3L5.2,6.3L5.2,6.3z
	 M5.2,5l0.2-0.1L5.2,5z M5.4,4.2C5.4,4.1,5.4,4.1,5.4,4.2C5.4,4.1,5.4,4.1,5.4,4.2C5.3,4.2,5.3,4.2,5.4,4.2v0.2V4.2z M5.5,7.1
	l0.1-0.2L5.5,7.1L5.3,6.9C5.3,7,5.4,7.1,5.5,7.1z M5.7,9.7L5.7,9.7l0.1-0.1c0,0-0.1,0-0.1-0.1c0,0-0.1,0-0.1-0.1V9.3L5.4,9.5
	l0.1,0.1L5.3,9.9C5.3,9.9,5.7,9.7,5.7,9.7z M5.4,7.5h0.2H5.4z M5.4,3.5h0.2H5.4z M5.6,8.5L5.5,8.6C5.6,8.6,5.6,8.5,5.6,8.5z
	 M9.5,5.3C9.3,5.2,9.2,5.1,9.1,5L8.8,4.7C8.7,4.5,8.7,4.4,8.7,4.2c0-0.1,0-0.3,0.1-0.5c0-0.2,0.1-0.4,0.2-0.6c0-0.2,0.1-0.3,0.2-0.5
	s0.2-0.2,0.4-0.2l0.1-0.1l0.1-0.1l0.1-0.1H10c0,0.1,0,0.1-0.1,0.2L9.8,2.5L9.7,2.7V3c0,0.2,0.1,0.3,0.2,0.4l0.4,0.2
	c0.2,0,0.3,0.1,0.4,0.1c0.1,0.1,0.2,0.1,0.2,0.3v0.7L10.7,5l-0.2,0.3c-0.1,0.1-0.2,0.2-0.3,0.2S10,5.4,9.9,5.4S9.6,5.3,9.5,5.3z
	 M10.8,8.8c-0.1-0.1-0.2-0.2-0.3-0.2l-0.4-0.2L9.8,8.3c-0.1,0-0.2,0.1-0.3,0.2C9.4,8.6,9.4,8.7,9.4,8.9s0,0.2,0.1,0.3
	c0,0.1,0.1,0.2,0.1,0.2c0.1,0.1,0.1,0.1,0.1,0.2s0.1,0.1,0.1,0.2s0,0.2-0.1,0.3s-0.2,0.1-0.2,0.2C9.1,10.2,8.9,10,8.9,9.6
	C8.9,9.3,9,9,9.1,8.7C9.3,8.4,9.5,8.2,9.7,8h0.1c0,0.2,0.1,0.3,0.3,0.3h0.7l0.1,0.1v0.1H11c0.1,0,0.2,0,0.3-0.1s0.2-0.1,0.4-0.1h1.6
	c0,0,0.4,0,0.6,0.1c0.2,0,0.4,0,0.5,0.1s0.2,0,0.3,0.1c0.1,0,0.2,0,0.3-0.1l0.3-0.3c0.1-0.1,0.1-0.2,0.2-0.4c0-0.1,0.1-0.2,0.1-0.4
	V7.3l0.1-0.1v0.4c-0.1,0.2-0.1,0.5-0.3,0.8L15,9.3c0,0-0.4,0.5-0.6,0.7s-0.5,0.3-0.8,0.3c-0.1,0-0.3,0-0.6-0.1s-0.5-0.2-0.8-0.3
	s-0.5-0.3-0.7-0.4C11.3,9.3,11.1,9.2,11,9C11,9,10.8,8.8,10.8,8.8z M9.7,4L9.5,3.8L9.3,3.9L9.4,4V3.9l0.1,0.2C9.5,4.1,9.7,4,9.7,4z
	 M9.5,3.5H9.4H9.5z M9.6,4.7H9.4H9.6z M10,3.8l0.1,0.1C10.1,3.9,10.1,3.8,10,3.8L10,3.8L10,3.8z M10,4.2v0.2V4.2z M10.4,7.3L10.7,7
	l0.7-0.7C11.7,6,12,5.7,12.2,5.4s0.4-0.6,0.5-1c0.1-0.3,0.2-0.7,0.2-1s0-0.6-0.1-0.7c-0.1-0.2-0.1-0.4-0.2-0.5
	C12.5,2.1,12.4,2,12.3,2L12,1.8l-0.3-0.1l-0.2-0.1h0.2c0.3,0,0.5,0,0.7,0.1s0.5,0.1,0.7,0.1s0.4,0.1,0.6,0.2
	c0.2,0.1,0.5,0.2,0.7,0.4L15,2.9c0.2,0.2,0.3,0.4,0.3,0.5c0.1,0.3,0.1,0.6,0.1,0.9c0,0.2,0,0.4-0.1,0.6S15.1,5.3,15,5.4
	c0,0.3-0.1,0.4-0.3,0.6l-0.5,0.4l-0.4,0.2l-0.6,0.2l-0.7,0.1L11.9,7c-0.2,0-0.4,0.1-0.5,0.1c-0.2,0-0.3,0.1-0.3,0.1
	c-0.1,0-0.2,0.1-0.2,0.1l-0.2,0.1c0,0-0.1,0.1-0.2,0.1h-0.4C10.2,7.5,10.3,7.4,10.4,7.3z M10.1,4.5h0.1c0,0,0.1,0,0.1-0.1h-0.1
	C10.2,4.4,10.1,4.4,10.1,4.5z M10.2,4.7L10.2,4.7L10.2,4.7z M12.4,9.2h-0.2H12.4z M12.6,6.1L12.6,6.1L12.6,6.1z M12.8,9.6L13,9.7
	V9.4l-0.1-0.1H13c0,0,0.1,0,0.1-0.1L13,9.1l-0.1,0.1h-0.2c0.1,0,0.1,0.1,0.1,0.2V9.6l0.1-0.1v0.1L12.8,9.6l0.1,0.1
	C12.9,9.7,12.8,9.6,12.8,9.6z M12.6,6.5l0.1-0.1L12.6,6.5z M12.8,6.1L12.7,6v0.1H12.8z M12.9,5.7h-0.1H12.9L12.9,5.7z M12.9,5.4
	h-0.1H12.9z M13,8.8h0.2h-0.3l-0.1,0.1C12.9,8.9,12.9,8.9,13,8.8z M12.9,5.2h-0.1H12.9z M12.9,6.2C13,6.2,13,6.1,12.9,6.2z M13,5.2
	L13.1,5L13,5.2z M13.1,9.7L13,9.8L13.1,9.7z M13.1,5.3L13.1,5.3L13.1,5.3z M13.3,5.5h-0.1v0.1L13.3,5.5z M13.4,9.2
	c-0.1,0.1-0.1,0.1-0.1,0.2v0.1c0,0,0,0.1-0.1,0.1c0.1,0,0.1,0,0.1-0.1c0,0,0.1-0.1,0.1-0.2h0.2V9.2h0.2v0.1V9.1
	c0-0.1,0.1-0.2,0.1-0.2h-0.1L13.7,9C13.6,9.1,13.6,9.1,13.4,9.2L13.6,9l-0.1-0.2l-0.1,0.1C13.4,8.9,13.4,9.2,13.4,9.2z M13.3,9h-0.2
	l0.1,0.1C13.2,9.1,13.3,9,13.3,9z M13.3,5.2L13.3,5.2C13.2,5.2,13.2,5.2,13.3,5.2z M13.3,6c0,0,0-0.1-0.1-0.1L13.3,6L13.3,6L13.3,6z
	 M13.3,8.8V8.7V8.8z M13.4,9.6c-0.1,0-0.1,0.1-0.1,0.1L13.4,9.6C13.5,9.5,13.4,9.5,13.4,9.6z M13.4,3.7c0,0,0,0.1,0.1,0.1l0.1-0.1
	V3.6h-0.1L13.4,3.7L13.4,3.7L13.4,3.7z M13.7,2.8L13.7,2.8l0.1-0.2V2.5h-0.2c0,0,0-0.1,0.1-0.1V2.3c-0.1,0-0.2,0-0.2,0.1
	s-0.1,0.1-0.1,0.2l0.1-0.1l0.1,0.1l-0.1,0.1L13.7,2.8C13.6,2.7,13.7,2.8,13.7,2.8z M13.4,3.5L13.4,3.5L13.4,3.5z M13.7,3h-0.2H13.7
	C13.6,3.1,13.7,3,13.7,3z M13.5,5.1C13.5,5,13.6,5,13.6,5l0.1-0.1C13.7,4.9,13.6,4.9,13.5,5.1C13.5,5,13.5,5.1,13.5,5.1z M13.5,9.7
	l0.1-0.1L13.5,9.7z M13.5,5.7C13.6,5.8,13.6,5.7,13.5,5.7z M13.7,4.1l0.1,0.1V3.8L13.5,4C13.6,4,13.6,4,13.7,4.1z M13.6,9.9h0.3
	H13.6z M13.7,3.2h-0.1H13.7z M13.6,3.5l0.1-0.1C13.6,3.4,13.6,3.4,13.6,3.5z M13.7,4.4h-0.1v0.1L13.7,4.4z M13.8,4.6l-0.2,0.1
	l0.1,0.1C13.7,4.8,13.8,4.6,13.8,4.6z M13.7,6.3C13.6,6.2,13.7,6.2,13.7,6.3z M13.7,3.6L13.7,3.6L13.7,3.6z M13.8,9.4
	C13.7,9.5,13.8,9.5,13.8,9.4z M13.8,3l0.1-0.1L14,2.8h-0.2C13.8,2.8,13.8,3,13.8,3z M13.9,5.7c0,0,0,0.1-0.1,0.1L13.9,5.7
	C14,5.8,13.9,5.7,13.9,5.7z M13.9,3.3c0,0,0-0.1,0.1-0.1l0.1-0.1V3C14.1,3,13.9,3.3,13.9,3.3z M13.9,4.1l-0.1,0.1
	C13.8,4.2,13.9,4.2,13.9,4.1C14,4.1,14,4.1,14,4C14,4.1,13.9,4.1,13.9,4.1z M14.1,4.4h-0.2l-0.1,0.1L14.1,4.4z M14,4h-0.1H14z
	 M14.1,5.3L14.1,5.3l-0.2,0.1L14.1,5.3z M13.9,9.2H14H13.9L14,9.1V9h-0.1C13.9,9,13.9,9.2,13.9,9.2z M14,4.9L14,4.9L14,4.9z M14.2,5
	h-0.1l-0.2,0.2L14.2,5z M14.1,2.7H14v0.1C14,2.8,14,2.7,14.1,2.7z M14,3.8V3.6v0.1C14,3.7,14,3.8,14,3.8z M14,2.8
	C14,2.9,14.1,2.9,14,2.8z M14.2,3.7h0.1H14.2L14,3.8L14.2,3.7z M14.1,3.3L14.1,3.3L14.1,3.3z M14.2,3.1l0.2,0.2V3l0.1-0.1
	c0,0-0.1,0-0.1,0.1L14.2,3.1z M14.5,3.9l-0.1-0.1L14.5,3.9L14.3,4L14.5,3.9z M14.6,5.3l-0.2-0.1L14.6,5.3z M14.4,4.3V4V4.3z
	 M14.4,3.1h0.1H14.4z M14.6,4.5h-0.1H14.6z M14.7,4.8h-0.1H14.7L14.7,4.8z M14.7,9V8.9V9z M14.9,3.9L14.9,3.9h-0.2H14.9z M14.9,4.3
	L14.9,4.3L14.9,4.3z"/>
</svg>
