<?xml version="1.0" encoding="utf-8"?>
<!-- Generator: Adobe Illustrator 17.1.0, SVG Export Plug-In . SVG Version: 6.00 Build 0)  -->
<!DOCTYPE svg PUBLIC "-//W3C//DTD SVG 1.1//EN" "http://www.w3.org/Graphics/SVG/1.1/DTD/svg11.dtd">
<svg version="1.1" id="Layer_1" xmlns="http://www.w3.org/2000/svg" xmlns:xlink="http://www.w3.org/1999/xlink" x="0px" y="0px"
	 width="17.8px" height="12.2px" viewBox="0 0 17.8 12.2" enable-background="new 0 0 17.8 12.2" xml:space="preserve">
<path fill="#404040" d="M2.3,9.8h0.8c0.2,0,0.3-0.1,0.4-0.1s0.2-0.2,0.2-0.4V3.5c0-0.1-0.1-0.1-0.3-0.2L3,3.2H2.2V3.1L2.3,3
	c0.5,0,1-0.1,1.4-0.2s0.7-0.3,1-0.5C5,2.2,5.2,2,5.4,1.9s0.3-0.2,0.5-0.2h0.3l0.1,0.1v6.4c0,0.5,0,0.9,0.1,1.3
	c0.1,0.1,0.2,0.2,0.3,0.2h0.7l0.2-0.1l0.2,0.1L7.7,10C7.3,9.9,7,9.9,6.6,9.9H2.5L2.3,9.8C2.4,9.8,2.3,9.8,2.3,9.8z M4,9.5v0.1V9.5z
	 M4.2,4.2h0.2H4.2z M4.3,3.6C4.3,3.6,4.3,3.7,4.3,3.6L4.3,3.6l0.2-0.1L4.4,3.3L4.3,3.6L4.3,3.6z M4.4,5.1C4.4,5.1,4.3,5.1,4.4,5.1
	L4.6,5V4.9H4.4C4.4,4.9,4.4,5.1,4.4,5.1z M4.4,6.6L4.4,6.6l0.2-0.2H4.5L4.4,6.6C4.3,6.5,4.3,6.6,4.4,6.6z M4.5,9.7
	c0.1,0.1,0.1,0.1,0.1,0.2c0,0,0.1-0.1,0.1-0.2V9.6c0,0,0-0.1-0.1-0.1L4.3,9.6C4.3,9.6,4.5,9.7,4.5,9.7z M4.4,9.1h0.3
	C4.6,9,4.5,9,4.5,9S4.4,8.9,4.4,8.8C4.4,8.8,4.4,9.1,4.4,9.1z M4.4,6.3C4.4,6.3,4.5,6.3,4.4,6.3L4.4,6.3z M4.6,4L4.6,4
	c0.1-0.1,0.1-0.2,0.2-0.2V3.7L4.6,3.6L4.4,3.9C4.4,3.9,4.6,4,4.6,4z M4.5,4.5c0.1,0.1,0.1,0.1,0.2,0.1c0-0.1,0-0.2,0.1-0.3
	S4.9,4.1,5,4H4.9C4.8,4.2,4.7,4.3,4.4,4.3C4.4,4.3,4.5,4.4,4.5,4.5z M4.5,6.2h0.2H4.5z M4.9,5.2L4.9,5.2L5,4.8c0,0,0-0.1-0.1-0.1
	v0.2C4.9,5.1,4.8,5.1,4.9,5.2L4.7,5.1L4.6,5.3C4.6,5.3,4.9,5.2,4.9,5.2z M4.6,8.9l0.1-0.1C4.7,8.8,4.6,8.8,4.6,8.9z M4.7,3.2v0.2
	V3.3C4.7,3.3,4.7,3.2,4.7,3.2z M4.8,7.4L4.8,7.4L4.8,7.4z M4.7,8.7h0.2H4.7z M5,6.8C5,6.7,5,6.7,5,6.8l0.2-0.1c0,0,0.1,0,0.1-0.1
	c-0.1-0.1-0.2,0-0.3,0S4.9,6.7,4.8,6.7l0.1,0.1H4.8H5L4.9,6.9C5,6.9,5,6.8,5,6.8z M4.9,3.2c0,0-0.1,0.1-0.1,0.2L4.9,3.2
	C5,3.2,5,3.1,4.9,3.2C5,3.1,5,3.2,4.9,3.2z M4.9,6.5l0.2-0.1c0,0-0.1,0-0.1-0.1L4.9,6.2v0.1C4.8,6.4,4.9,6.5,4.9,6.5z M4.8,9.9
	L5,9.7L4.8,9.9z M5,6L5,6L5,6z M5,3.9L5,3.9L5,3.9z M4.9,6.7h0.2H4.9z M5,9.2C5,9.1,5.1,9.1,5,9.2z M5.2,9.2H5v0.2l0.1,0.1L5.2,9.2z
	 M5.2,7.9L5.2,7.9l0.1-0.2c0,0,0-0.1-0.1-0.1L5.1,7.7L5.2,7.9z M5.3,3.7h0.4l0.1,0.1v0.1l0.1-0.2V3.6H5.7V3.5l0.1-0.1
	c-0.1,0-0.1,0-0.2,0.1C5.2,3.5,5.2,3.6,5.3,3.7z M5.3,9.9L5.2,9.8L5.3,9.9z M5.2,2.6h0.2H5.2z M5.4,5.6H5.2v0.1L5.4,5.6z M5.3,9.5
	v0.1V9.5c0.1,0,0.1,0,0.1-0.1L5.3,9.5z M5.4,4.7L5.4,4.7l0.2-0.1L5.4,4.7z M5.4,6.3L5.4,6.3L5.4,6.3L5.4,6.3z M5.4,5l0.2-0.1L5.4,5z
	 M5.5,4.2C5.5,4.1,5.5,4.1,5.5,4.2C5.6,4.1,5.5,4.1,5.5,4.2C5.4,4.2,5.4,4.2,5.5,4.2v0.2V4.2z M5.6,7.1l0.1-0.2L5.6,7.1L5.5,6.9
	C5.5,7,5.5,7.1,5.6,7.1z M5.8,9.7H6V9.6c0,0-0.1,0-0.1-0.1c0,0-0.1,0-0.1-0.1V9.3L5.5,9.5l0.1,0.1L5.5,9.9C5.5,9.9,5.8,9.7,5.8,9.7z
	 M5.5,7.5h0.2H5.5z M5.6,3.5h0.2H5.6z M5.8,8.5L5.6,8.6C5.7,8.6,5.8,8.5,5.8,8.5z M10.2,10C10,10,9.9,9.9,9.8,9.8L9.2,9.2
	C9.1,9.1,9.1,9,9,8.8S8.9,8.6,8.8,8.5V7.9C8.9,7.7,9,7.6,9,7.4c0.1-0.1,0.2-0.3,0.3-0.3S9.7,7,10,7c0.1,0,0.2,0,0.4,0.1
	c0.1,0,0.3,0.1,0.4,0.2l0.3,0.3c0.1,0.1,0.1,0.2,0.1,0.3c0,0.3,0,0.5-0.1,0.7l-0.3,0.5l-0.3,0.3c-0.1,0.1-0.1,0.2-0.1,0.3
	s0,0.2,0.1,0.3l0.3,0.2l0.4,0.1h0.3c0.3,0,0.5-0.1,0.7-0.2c0.2-0.2,0.3-0.4,0.4-0.6s0.1-0.5,0.2-0.8V8c0-0.4,0-0.7-0.1-0.9l-0.2-0.6
	C12.2,6.1,12.1,6,12,5.9s-0.3-0.1-0.5-0.1l-0.6-0.1c0,0-0.6,0-0.9-0.1V5.5l0.1-0.1h0.8c0.2,0,0.4,0,0.5-0.1s0.3-0.1,0.5-0.2
	C12,5,12.1,4.8,12.3,4.8l0.3-0.5c0,0,0.1-0.2,0.1-0.4V2.2c0,0,0-0.2-0.1-0.3s-0.1-0.2-0.2-0.3c-0.1-0.1-0.1-0.1-0.2-0.1L12,1.4h0.1
	c0.3,0,0.6,0.1,1,0.2s0.7,0.2,1,0.4s0.6,0.4,0.8,0.7s0.3,0.6,0.3,1c0,0.3-0.1,0.5-0.2,0.6c-0.1,0.2-0.2,0.3-0.4,0.4L14.1,5
	c-0.2,0.1-0.4,0.1-0.5,0.2c-0.2,0.1-0.3,0.1-0.4,0.1c-0.1,0-0.2,0.1-0.2,0.1c0,0.1,0.1,0.1,0.2,0.2l0.4,0.2C13.8,6,14,6.1,14.1,6.1
	l0.3,0.1c0.3,0.2,0.5,0.4,0.8,0.7s0.3,0.6,0.3,1s-0.1,0.8-0.3,1c-0.2,0.3-0.4,0.5-0.7,0.7C14.3,9.8,14,9.9,13.6,10l-1,0.3
	c-0.1,0-0.1,0-0.2,0.1h-1c-0.1,0-0.2-0.1-0.4-0.1c-0.1,0-0.2-0.1-0.4-0.1h-0.1C10.5,10.1,10.4,10,10.2,10z M9.4,2.7
	c0.1-0.2,0.2-0.4,0.4-0.5C10,2,10.1,1.8,10.3,1.7s0.4-0.2,0.5-0.2h0.1c-0.1,0-0.2,0.1-0.3,0.2s0.1,0.3,0.1,0.4v0.1l0.2,0.2
	c0,0,0.2,0.2,0.2,0.3L11.3,3c0.1,0.1,0.1,0.2,0.1,0.2c0,0.1,0,0.3-0.1,0.4l-0.2,0.3C11,4,10.9,4.1,10.8,4.1s-0.3,0.1-0.4,0.1
	c-0.1,0-0.3,0-0.4-0.1c-0.2,0-0.3,0-0.4-0.1S9.4,3.8,9.3,3.6S9.2,3.4,9.2,3.2C9.2,3.1,9.3,2.9,9.4,2.7z M9.5,8.3H9.3v0.1
	C9.3,8.5,9.4,8.4,9.5,8.3c0,0,0.1-0.1,0.2-0.1c0,0,0-0.1-0.1-0.1C9.5,8,9.4,8,9.4,8l0.1-0.2c0,0-0.1,0-0.1,0.1L9.3,8.1
	c0,0.1,0,0.1,0.1,0.1S9.5,8.2,9.5,8.3z M9.4,7.7L9.3,7.5C9.3,7.6,9.3,7.7,9.4,7.7z M9.3,7.9v0.2C9.3,8.1,9.3,7.9,9.3,7.9z M9.6,8.7
	l0.2-0.2l0.1,0.1V8.4H9.5c-0.1,0-0.1,0-0.1,0.1v0.4C9.4,8.9,9.6,8.7,9.6,8.7z M9.6,9.2V9.1V9.2z M9.6,7.5l0.1,0.1L9.6,7.5L9.6,7.5z
	 M9.9,7.6H9.7H9.9C9.8,7.7,9.9,7.6,9.9,7.6z M9.9,8l0.2-0.2h0.1l-0.1-0.2v0.1c0-0.1,0-0.2,0.1-0.2c0.1-0.1,0.1-0.1,0.1-0.2
	c-0.1,0-0.1,0-0.2,0.1S9.9,7.5,9.8,7.5v0.2C9.9,7.8,9.9,7.9,9.9,8H9.6v0.1C9.6,8.1,9.9,8,9.9,8z M9.8,9V8.7L9.7,8.8L9.8,9z M10,8.5
	h0.4c0,0,0-0.1-0.1-0.1c0,0-0.1,0-0.1-0.1l0.1-0.1h0.2V8.1l-0.2,0.1c0-0.1,0-0.1,0.1-0.2s0.1-0.1,0.2-0.1l-0.1-0.1l-0.2-0.3v0.3
	c0,0-0.1,0.2-0.2,0.2H9.9c0,0-0.1,0-0.1,0.1v0.2H10l0.1-0.1v0.1C10.1,8.3,10,8.5,10,8.5z M10,3.3C10,3.4,9.9,3.4,10,3.3z M10,3.5
	H9.9H10z M10.2,2.7l-0.1,0.1C10.2,2.8,10.2,2.7,10.2,2.7z M10.2,8.7V8.6V8.7z M10.3,3.3l-0.1-0.1L10.3,3.3z M10.2,7.7V7.5V7.7z
	 M10.3,3.5l0.1-0.1L10.3,3.5z M10.3,8.7c0.1,0,0.1,0,0.1-0.1C10.4,8.6,10.3,8.6,10.3,8.7z M10.5,2.7l-0.2-0.1l0.1,0.2
	C10.4,2.8,10.5,2.7,10.5,2.7z M10.4,3.3l0.1-0.1L10.4,3.3z M10.7,8.3l-0.1-0.1v0.1H10.7z M10.6,3.7L10.6,3.7
	C10.7,3.8,10.7,3.7,10.6,3.7z M12.6,5.3l-0.1,0.1L12.6,5.3L12.6,5.3z M12.6,5.6C12.6,5.5,12.5,5.5,12.6,5.6z M12.7,5.1l0.1,0.2
	L12.7,5.1z M13,5.9l-0.2-0.1l-0.2,0.1H13z M12.8,3.9H13H12.8z M12.9,5.1v0.2L13,5.1H12.9c0,0,0-0.1,0.1-0.1h0.2c0-0.1,0-0.1-0.1-0.1
	l-0.2-0.1v0.1L12.7,5L12.9,5.1z M13,9.7l-0.1,0.1C12.9,9.8,12.9,9.7,13,9.7z M13,9.5l-0.1,0.1L13,9.5z M13,6.7l-0.1-0.1
	C12.9,6.6,12.9,6.7,13,6.7z M13.1,4.2L13,4.1L13.1,4.2z M13.1,4.5L13,4.6L13.1,4.5h0.1H13.1z M13,9v0.1V9z M13.1,2.4l0.1-0.1
	l-0.1-0.1C13.1,2.2,13.1,2.4,13.1,2.4z M13,6.5C13.1,6.5,13.1,6.4,13,6.5z M13.1,3.4L13.1,3.4L13.1,3.4z M13.1,8.5V8.4V8.5z
	 M13.4,8.6L13,8.5l0.1,0.2C13.1,8.7,13.4,8.6,13.4,8.6z M13.3,8.8L13,8.9L13.2,9C13.2,9,13.3,8.8,13.3,8.8z M13.2,3.9L13.1,4
	L13.2,3.9C13.3,4,13.2,3.9,13.2,3.9z M13.3,6.8h-0.1l-0.1,0.1L13.2,7L13.3,6.8z M13.3,7.3L13.3,7.3c-0.1-0.1-0.2-0.1-0.3-0.2v0.1
	L13.3,7.3z M13.3,9.4h-0.2v0.1L13.3,9.4z M13.3,8.3h-0.2l0.1,0.1C13.2,8.4,13.3,8.3,13.3,8.3z M13.3,2.7c-0.1-0.1-0.1-0.1-0.2-0.1
	C13.2,2.7,13.2,2.7,13.3,2.7z M13.4,2.6l0.1-0.1h-0.3C13.2,2.5,13.3,2.6,13.4,2.6z M13.3,3.1l-0.1,0.1L13.3,3.1z M13.2,4.1L13.2,4.1
	c0.1,0.1,0.1,0,0.2-0.1C13.3,4.1,13.3,4.1,13.2,4.1z M13.3,4.2l-0.1,0.1L13.3,4.2z M13.4,3.1V2.7l-0.3,0.1
	C13.1,2.8,13.4,3.1,13.4,3.1z M13.4,7c0,0,0.1,0,0.1,0.1l0.1,0.1h0.1l0.1-0.1c-0.1,0-0.1,0-0.2,0.1c-0.1,0-0.1-0.1-0.1-0.1l-0.3,0.3
	C13.2,7.4,13.4,7,13.4,7z M13.4,6.6h-0.1v0.1L13.4,6.6z M13.3,9h0.1V8.9L13.3,9z M13.5,2.3l-0.2-0.1l-0.1,0.1H13.5z M13.4,3.7V3.4
	h-0.1l-0.1,0.1C13.3,3.5,13.4,3.6,13.4,3.7z M13.3,4.7C13.4,4.6,13.3,4.6,13.3,4.7z M13.5,4.8l-0.2,0.1L13.5,4.8z M13.3,8.2v0.1
	l0.3-0.2c0,0,0.1,0,0.1,0.1v0.1l0.1-0.1c0-0.1,0-0.1-0.1-0.2l-0.1-0.1c0,0,0,0.1-0.1,0.1L13.3,8.2l0-0.2C13.3,8,13.3,8.2,13.3,8.2z
	 M13.4,8.6h0.1V8.5c0,0,0-0.1,0.1-0.1C13.6,8.4,13.4,8.6,13.4,8.6z M13.6,7.5L13.6,7.5l0.1-0.1l-0.1-0.2l-0.3,0.3
	C13.3,7.5,13.6,7.5,13.6,7.5z M13.3,7.9h0.2H13.3z M13.5,6.4h-0.2H13.5z M13.5,7.7l-0.1-0.1C13.4,7.7,13.4,7.7,13.5,7.7z M13.6,9.6
	h-0.1l-0.1-0.2V9.3h-0.1v0.5C13.5,9.7,13.6,9.7,13.6,9.6z M13.6,3.2c0.1,0.1,0.2,0.1,0.2,0.1L13.6,3.2l0.1-0.1
	C13.7,3.1,13.6,3.1,13.6,3.2l-0.1,0.1l0.1,0.1C13.6,3.4,13.6,3.2,13.6,3.2z M13.5,4l-0.1-0.1V4H13.5z M13.5,8.7l-0.1,0.1L13.5,8.7
	C13.6,8.6,13.5,8.7,13.5,8.7z M13.8,2.9l-0.2-0.1L13.5,3C13.5,3,13.8,2.9,13.8,2.9z M13.6,8.3l0.1,0.2L13.6,8.3z M13.6,7.7
	c0-0.1,0-0.1-0.1-0.1C13.6,7.6,13.6,7.7,13.6,7.7z M13.7,6.8C13.6,6.9,13.6,6.8,13.7,6.8z M13.7,9.4c0,0,0.1-0.1,0.1-0.2L13.9,9h0.4
	l-0.2-0.1h-0.3L13.7,9v0.1l-0.2,0.2v0.1C13.5,9.4,13.7,9.4,13.7,9.4z M13.6,9h0.1V8.9L13.6,9z M13.6,8.6h0.1H13.6z M13.6,4.1
	C13.7,4,13.6,4,13.6,4.1z M13.6,7.9c0.1,0,0.1-0.1,0.1-0.1L13.6,7.9z M13.8,6.6L13.8,6.6l0.1,0.1L13.8,6.6l0.1-0.2
	C13.9,6.4,13.8,6.4,13.8,6.6L13.8,6.6C13.7,6.5,13.7,6.6,13.8,6.6z M13.8,7.6h-0.1H13.8z M13.9,3.9h-0.1V4L13.9,3.9z M13.9,4.6h-0.2
	H13.9z M14.3,8.5V8.4l-0.1-0.1c0,0-0.1-0.1-0.2-0.1V8c0,0,0-0.1,0.1-0.1L14.3,8l0.2-0.2l-0.1-0.2c-0.1,0.1-0.1,0.2-0.3,0.2
	c0,0.1,0,0.2-0.1,0.2l-0.2,0.1c0.1,0.1,0.1,0.1,0.1,0.2c0,0,0.1,0.1,0.1,0.2h-0.1v0.1h0.2l0.1,0.1v0.2L14.3,8.5z M13.9,8.7l-0.1,0.1
	L13.9,8.7z M13.8,3L14,2.9L13.8,3z M14,7.4h-0.1L14,7.6V7.4z M14,9.2c-0.1,0.1-0.1,0.1-0.1,0.2L14,9.2c0.1,0,0.2,0,0.2-0.1
	C14.1,9.1,14,9.1,14,9.2z M14,2.6l-0.1,0.2L14,2.6z M13.9,3.8h0.2H13.9z M14,4.3l-0.1,0.1C14,4.4,14,4.4,14,4.3c0.1,0.1,0.1,0,0.1,0
	C14.1,4.2,14,4.2,14,4.3z M14,6.9L14,6.9l-0.1-0.1L14,6.9z M14.1,8.7L14,8.6v0.2C14,8.8,14.1,8.7,14.1,8.7z M14,9.5h-0.1H14z
	 M14.1,3.1L14.1,3.1L14,3.2v0.1C14,3.2,14,3.2,14.1,3.1z M14.1,4.1V3.9L14,4.1H14.1z M14,7.2L14,7.2c0,0.1,0.1,0.1,0.2,0
	c0.1,0,0.1-0.1,0.1-0.1V7h-0.2V6.9V7C14.1,7.1,14.1,7.2,14,7.2z M14.3,2.8c0.1-0.1,0.1-0.1,0.1-0.2C14.3,2.6,14.3,2.6,14.3,2.8h-0.2
	v0.1L14.3,2.8z M14.1,3.6l0.1,0.1L14.1,3.6C14.2,3.5,14.2,3.5,14.1,3.6L14,3.5C14.1,3.5,14.1,3.6,14.1,3.6z M14.3,2.9L14.2,3
	L14.3,2.9z M14.3,4.7c0-0.1,0-0.1-0.1-0.1L14.3,4.7z M14.3,7c0,0,0,0.1,0.1,0.1V7l-0.2-0.2C14.3,6.9,14.3,6.9,14.3,7z M14.4,4.3
	c0,0,0.1,0.1,0.2,0.1V4.2l-0.1-0.1V4l0.1,0.1L14.7,4c0.1-0.1,0.1-0.1,0.1-0.2h-0.1c0,0-0.1,0-0.1,0.1h-0.1V4l-0.2-0.1l-0.1,0.3
	C14.3,4.2,14.4,4.3,14.4,4.3z M14.4,3.2C14.5,3.1,14.4,3.1,14.4,3.2C14.4,3.1,14.3,3.1,14.4,3.2C14.3,3.1,14.3,3.2,14.4,3.2z
	 M14.4,3.5L14.4,3.5L14.4,3.5z M14.4,4.5h0.1H14.4C14.3,4.5,14.3,4.5,14.4,4.5z M14.4,7.3h0.2c0,0,0.1,0,0.1-0.1
	C14.7,7.2,14.6,7.2,14.4,7.3c0-0.1-0.1-0.1-0.1,0H14.4z M14.5,7.9L14.4,8C14.4,8,14.5,8,14.5,7.9z M14.6,8.4
	C14.6,8.3,14.7,8.3,14.6,8.4l0.1-0.1l0.1-0.1l-0.1,0.1l-0.1-0.1h-0.1l0.2,0.1L14.6,8.4l-0.1,0.1C14.5,8.5,14.6,8.4,14.6,8.4z
	 M14.4,9.1L14.5,9l-0.1-0.2V9.1z M14.4,8.6l0.1-0.1L14.4,8.6z M14.6,7.9L14.8,8C14.9,8,15,8,15,7.9h-0.1H14.6l-0.1-0.1
	C14.5,7.8,14.6,7.8,14.6,7.9z M14.8,7.7l-0.1-0.1l-0.1-0.1v0.1C14.6,7.6,14.8,7.7,14.8,7.7z M14.8,8.6l0.1-0.2
	C14.8,8.4,14.7,8.4,14.8,8.6c-0.1,0-0.1,0-0.1,0.1l0.1,0.1C14.7,8.7,14.7,8.6,14.8,8.6z M14.7,3.1v0.2V3.1z M14.8,3.6l-0.1-0.1
	L14.8,3.6z M14.8,7.3h-0.1H14.8z M14.9,7.4l-0.1,0.1C14.9,7.5,14.9,7.5,14.9,7.4z M14.9,3.6L15,3.4L14.9,3.6z M15.2,7.8
	c0-0.1-0.1-0.1-0.2-0.1L15.2,7.8z"/>
</svg>
