<?xml version="1.0" encoding="utf-8"?>
<!-- Generator: Adobe Illustrator 17.1.0, SVG Export Plug-In . SVG Version: 6.00 Build 0)  -->
<!DOCTYPE svg PUBLIC "-//W3C//DTD SVG 1.1//EN" "http://www.w3.org/Graphics/SVG/1.1/DTD/svg11.dtd">
<svg version="1.1" id="Layer_1" xmlns="http://www.w3.org/2000/svg" xmlns:xlink="http://www.w3.org/1999/xlink" x="0px" y="0px"
	 width="17.8px" height="12.2px" viewBox="0 0 17.8 12.2" enable-background="new 0 0 17.8 12.2" xml:space="preserve">
<path fill="#404040" d="M2.5,9.8h0.8c0.2,0,0.3-0.1,0.4-0.1s0.2-0.2,0.2-0.4V3.5c0-0.1-0.1-0.1-0.3-0.2L3.2,3.2H2.4L2.3,3.1L2.4,3
	c0.5,0,1-0.1,1.4-0.2s0.7-0.3,1-0.5C5.1,2.2,5.3,2,5.5,1.9C5.7,1.7,5.8,1.7,6,1.7h0.3l0.1,0.1v6.4c0,0.5,0,0.9,0.1,1.3
	c0.1,0.1,0.2,0.2,0.3,0.2h0.7l0.2-0.1l0.2,0.1L7.8,10C7.4,9.9,7.1,9.9,6.7,9.9H2.6L2.5,9.8z M4.1,9.5v0.1V9.5z M4.3,4.2h0.2H4.3z
	 M4.4,3.6C4.4,3.6,4.4,3.7,4.4,3.6L4.4,3.6l0.2-0.1L4.5,3.3L4.4,3.6L4.4,3.6z M4.5,5.1C4.5,5.1,4.4,5.1,4.5,5.1L4.8,5L4.7,4.9H4.5
	C4.5,4.9,4.5,5.1,4.5,5.1z M4.5,6.6L4.5,6.6l0.2-0.2H4.6L4.5,6.6z M4.6,9.7c0.1,0.1,0.1,0.1,0.1,0.2c0,0,0.1-0.1,0.1-0.2V9.6
	c0,0,0-0.1-0.1-0.1L4.4,9.6C4.4,9.6,4.6,9.7,4.6,9.7z M4.5,9.1h0.3C4.7,9,4.7,9,4.6,9s0-0.1-0.1-0.2C4.5,8.8,4.5,9.1,4.5,9.1z
	 M4.5,6.3C4.5,6.3,4.6,6.3,4.5,6.3L4.5,6.3z M4.7,4L4.7,4c0.1-0.1,0.1-0.2,0.2-0.2V3.7L4.8,3.6L4.5,3.9C4.5,3.9,4.7,4,4.7,4z
	 M4.7,4.5c0.1,0.1,0.1,0.1,0.2,0.1c0-0.1,0-0.2,0.1-0.3S5,4.1,5.1,4H5c0,0.2-0.2,0.3-0.4,0.3C4.6,4.3,4.6,4.4,4.7,4.5z M4.6,6.2h0.2
	H4.6z M5,5.2L5,5.2h0.2H5l0.2-0.3V4.8c0,0,0-0.1-0.1-0.1C5,4.8,5,4.9,5,5V5.2L4.8,5.1v0.2C4.8,5.3,5,5.2,5,5.2z M4.8,8.9l0.1-0.1
	C4.8,8.8,4.8,8.8,4.8,8.9z M4.8,3.2v0.2V3.3C4.8,3.3,4.8,3.2,4.8,3.2z M5,7.4H4.8H5z M4.9,8.7h0.2H4.9z M5.1,6.8
	C5.1,6.7,5.1,6.7,5.1,6.8l0.2-0.1c0,0,0.1,0,0.1-0.1L5.1,6.8L4.9,6.7L5,6.8H4.9H5.1L5,6.9C5.1,6.9,5.1,6.8,5.1,6.8z M5,3.2L5,3.2
	L5,3.2C5.1,3.2,5.1,3.1,5,3.2C5.1,3.1,5.1,3.2,5,3.2z M5,6.5l0.2-0.1c0,0-0.1,0-0.1-0.1L5,6.2C5,6.2,5,6.5,5,6.5z M5,9.9l0.1-0.1
	C5,9.8,5,9.8,5,9.9z M5.2,6H5H5.2z M5.1,3.9L5.1,3.9L5.1,3.9z M5.1,6.7h0.2H5.1z M5.4,9.2H5.2c-0.1,0-0.1,0-0.1,0.1l0.1,0.1
	C5.2,9.4,5.4,9.2,5.4,9.2z M5.4,7.9L5.4,7.9l0.1-0.2c0,0,0-0.1-0.1-0.1L5.2,7.7L5.4,7.9z M5.4,3.7h0.4l0.1,0.1v0.1L6,3.7V3.6H5.8
	V3.5l0.1-0.1c-0.1,0-0.1,0-0.2,0.1C5.3,3.5,5.3,3.6,5.4,3.7z M5.4,9.9L5.3,9.8L5.4,9.9z M5.3,2.6h0.2H5.3z M5.5,5.6L5.5,5.6L5.5,5.6
	L5.5,5.6z M5.4,9.5v0.1V9.5c0.1,0,0.1,0,0.1-0.1L5.4,9.5z M5.5,4.7L5.5,4.7l0.2-0.1L5.5,4.7z M5.5,6.3L5.5,6.3L5.5,6.3L5.5,6.3z
	 M5.5,5l0.2-0.1L5.5,5z M5.7,4.2C5.7,4.1,5.7,4.1,5.7,4.2C5.7,4.1,5.6,4.1,5.7,4.2C5.6,4.2,5.6,4.2,5.7,4.2v0.2
	C5.6,4.3,5.7,4.3,5.7,4.2z M5.7,7.1l0.1-0.2L5.7,7.1L5.6,6.9C5.6,7,5.6,7.1,5.7,7.1z M5.9,9.7L5.9,9.7L6,9.6c0,0-0.1,0-0.1-0.1V9.4
	L5.7,9.5l0.1,0.1L5.6,9.9C5.6,9.9,5.9,9.7,5.9,9.7z M5.7,7.5h0.2H5.7z M5.7,3.5h0.2H5.7z M5.9,8.5L5.7,8.6C5.8,8.6,5.9,8.5,5.9,8.5z
	 M10.4,7.7c0.2-0.3,0.4-0.6,0.6-0.8l0.8-0.8l0.9-0.7l0.9-0.7c0.3-0.2,0.5-0.5,0.7-0.8l-0.1-0.1h-1c0,0-0.1,0-0.2,0.1h-0.6
	c-0.1,0-0.2,0-0.3-0.1l-0.3-0.1c-0.3,0-0.5,0-0.8-0.1s-0.5-0.1-0.8-0.1c-0.1,0-0.2,0-0.3,0.1c-0.1,0-0.2,0.1-0.3,0.2S9.5,4,9.4,4.1
	C9.3,4.2,9.3,4.3,9.3,4.4v0.7c0,0.1,0,0.2-0.1,0.3c0,0.1-0.1,0.1-0.2,0.1c0,0-0.1,0-0.1-0.1V5.2C9,5.1,9,5,9,4.9V1.5l0.1-0.1
	l0.1,0.1v1.1c0,0,0.1,0.2,0.2,0.2s0.2-0.1,0.2-0.2l0.3-0.4C10,2,10.2,1.9,10.5,1.8c0.2-0.1,0.6-0.2,1-0.2c0.3,0,0.6,0,0.8,0.1
	C12.7,1.8,12.9,1.9,13,2l0.4,0.4c0.1,0.2,0.2,0.3,0.3,0.4C13.8,3,14,3.1,14.1,3.2c0.1,0.1,0.3,0.1,0.5,0.1c0.1,0,0.2,0,0.2-0.1
	s0.1-0.2,0.1-0.3c0-0.2,0-0.3-0.1-0.4c-0.1-0.1-0.1-0.2-0.3-0.4V1.8c0,0,0-0.1,0.1-0.1l0.1-0.1c0.1,0,0.2,0,0.3,0.1
	c0.1,0,0.1,0.1,0.1,0.1L15.2,2l0.1,0.2v0.5l-0.2,0.5C15,3.4,15,3.5,14.9,3.6l-0.2,0.3c-0.1,0.1-0.2,0.2-0.3,0.2
	c-0.4,0.5-0.7,1.1-0.9,1.7s-0.3,1.3-0.3,1.9v0.9c0,0-0.1,0.6-0.2,0.8s-0.3,0.4-0.5,0.6c-0.2,0.1-0.5,0.2-0.9,0.2
	c-0.2,0-0.4-0.1-0.6-0.2c-0.2-0.1-0.3-0.2-0.5-0.4c-0.1-0.2-0.2-0.3-0.3-0.6c-0.1-0.2-0.1-0.4-0.1-0.6C10.2,8.3,10.3,8,10.4,7.7z
	 M10,3.2l0.1-0.1L10,3.2z M10.9,3.2h-0.2H10.9z M10.9,8.8l-0.2,0.1L10.9,8.8z M11,8.6c0-0.1,0-0.1-0.1-0.1C10.9,8.5,10.9,8.6,11,8.6
	z M11.2,9.2C11.1,9,11,8.9,10.9,8.9c0,0,0,0.1,0.1,0.1v0.2l0.1,0.1H11L11.2,9.2z M11,9.6l0.1-0.1C11,9.5,11,9.5,11,9.6z M11.2,8.3
	V8.2V8.3z M11.3,7.7l-0.1-0.1h-0.1C11.1,7.6,11.3,7.7,11.3,7.7z M11.2,2.4h0.3H11.2z M11.2,7.4C11.3,7.4,11.3,7.3,11.2,7.4z
	 M11.2,8.3C11.2,8.4,11.3,8.4,11.2,8.3z M11.6,9.2L11.5,9h-0.1v0.1h0.1L11.6,9.2v0.3C11.6,9.5,11.6,9.2,11.6,9.2z M11.4,7.6
	c0.1-0.1,0.1-0.1,0.2-0.1L11.4,7.6C11.4,7.4,11.4,7.5,11.4,7.6z M11.5,8.4h-0.1H11.5z M11.5,7.9C11.5,7.8,11.4,7.8,11.5,7.9z
	 M11.6,8.3l0.1,0.1L11.6,8.3l0.2-0.2h-0.2l-0.1,0.1C11.5,8.2,11.6,8.3,11.6,8.3z M11.7,8.6v0.2V8.6z M11.8,8.9l-0.1-0.1h-0.1
	C11.6,8.8,11.8,8.9,11.8,8.9z M11.7,9.3l-0.1,0.1C11.7,9.4,11.7,9.4,11.7,9.3z M11.7,7.3l-0.1,0.1C11.6,7.3,11.7,7.2,11.7,7.3
	C11.8,7.2,11.7,7.3,11.7,7.3z M11.8,2.5h-0.1H11.8z M12,8.5l-0.2-0.1h-0.1L12,8.5z M11.8,8l0.1-0.1C11.8,7.9,11.8,7.9,11.8,8z
	 M11.9,7.1L11.9,7.1L11.9,7.1z M11.9,8.3V8.2V8.3z M11.9,6.8c0.2,0.1,0.2,0,0.3,0l0.2-0.2c-0.1,0-0.2,0-0.2,0.1
	C12.1,6.8,12.1,6.8,11.9,6.8L11.9,6.8L11.9,6.8z M12.2,3.3h-0.3v0.1L12.2,3.3z M12.1,9.5L12,9.4C12,9.5,12,9.5,12.1,9.5z M12.2,8
	h0.2l-0.3-0.1L12.2,8z M12.2,2.9h0.2H12.2z M12.4,8.6l-0.1,0.1l0.1,0.1C12.4,8.8,12.4,8.6,12.4,8.6z M12.5,2.5
	c0-0.1,0.1-0.1,0.1-0.1l-0.1-0.1l-0.2,0.2l0.1,0.1C12.4,2.6,12.5,2.6,12.5,2.5z M12.4,3.4L12.4,3.4L12.4,3.4z M12.5,9.3l-0.2,0.1
	C12.5,9.4,12.5,9.3,12.5,9.3z M12.5,6.5c0,0,0,0.1-0.1,0.1C12.5,6.6,12.5,6.5,12.5,6.5z M12.7,9.6l-0.1-0.1l-0.1,0.1
	C12.5,9.6,12.7,9.6,12.7,9.6z M12.6,2.9L12.7,3L12.6,2.9z M12.6,3.5h0.2H12.6z M12.7,8.1c-0.1,0.1-0.1,0.1-0.1,0.2L12.9,8
	C12.8,8,12.8,8,12.7,8.1z M12.6,9.1C12.6,9.2,12.7,9.2,12.6,9.1z M12.8,6.5l-0.1,0.1v0.1L12.8,6.5z M12.9,7.4h-0.2H12.9z M12.9,3.4
	L13,3.5L12.9,3.4z M13,6.2h-0.1H13z"/>
</svg>
