<?xml version="1.0" encoding="utf-8"?>
<!-- Generator: Adobe Illustrator 17.1.0, SVG Export Plug-In . SVG Version: 6.00 Build 0)  -->
<!DOCTYPE svg PUBLIC "-//W3C//DTD SVG 1.1//EN" "http://www.w3.org/Graphics/SVG/1.1/DTD/svg11.dtd">
<svg version="1.1" id="Layer_1" xmlns="http://www.w3.org/2000/svg" xmlns:xlink="http://www.w3.org/1999/xlink" x="0px" y="0px"
	 width="17.8px" height="12.2px" viewBox="0 0 17.8 12.2" enable-background="new 0 0 17.8 12.2" xml:space="preserve">
<path fill="#404040" d="M7.1,7.7c0.2-0.3,0.4-0.6,0.6-0.8l0.8-0.8l0.9-0.7l0.9-0.7c0.3-0.2,0.5-0.5,0.7-0.8V3.8h-1
	c0,0-0.1,0-0.2,0.1H9.2c-0.1,0-0.2,0-0.3-0.1L8.6,3.7c-0.3,0-0.5,0-0.8-0.1H7c-0.1,0-0.2,0-0.3,0.1c-0.1,0-0.2,0.1-0.3,0.2
	C6.3,4,6.2,4,6.1,4.1C6,4.2,6,4.3,6,4.4v1c0,0.1-0.1,0.1-0.2,0.1c0,0-0.1,0-0.1-0.1V1.5l0.1-0.1l0.1,0.1v0.3C6,2,6,2.1,6,2.3v0.4
	c0,0,0.1,0.2,0.2,0.2s0.2-0.1,0.2-0.2l0.3-0.4C6.9,2,7.1,1.9,7.3,1.7c0.2-0.1,0.6-0.2,1-0.2c0.3,0,0.6,0,0.8,0.1
	C9.4,1.8,9.6,1.9,9.7,2l0.4,0.4c0.1,0.2,0.2,0.3,0.3,0.4c0.1,0.1,0.2,0.2,0.4,0.3c0.1,0.1,0.3,0.1,0.5,0.1c0.1,0,0.2,0,0.2-0.1
	s0.1-0.2,0.1-0.3c0-0.2,0-0.3-0.1-0.4c-0.1-0.1-0.1-0.2-0.3-0.4V1.7c0,0,0-0.1,0.1-0.1l0.1-0.1c0.1,0,0.2,0,0.3,0.1
	c0.1,0,0.1,0.1,0.1,0.1C11.9,1.9,12,2,12,2.1l0.1,0.2v0.5l-0.2,0.4c-0.1,0.2-0.1,0.3-0.2,0.4l-0.2,0.3c-0.1,0.1-0.2,0.2-0.3,0.2
	c-0.4,0.5-0.7,1.1-0.9,1.7c-0.2,0.7-0.3,1.4-0.3,2v0.9c0,0-0.1,0.6-0.2,0.8S9.5,10,9.3,10.1s-0.5,0.2-0.9,0.2
	c-0.2,0-0.4-0.1-0.6-0.2C7.6,10,7.5,9.9,7.3,9.7C7.2,9.6,7.1,9.4,7,9.2C6.9,9,6.9,8.8,6.9,8.6C6.9,8.3,7,8,7.1,7.7z M6.7,3.2
	L6.7,3.2L6.7,3.2z M7.6,3.2H7.4H7.6z M7.6,8.8L7.5,8.9L7.6,8.8z M7.7,8.6c0-0.1,0-0.1-0.1-0.1C7.6,8.5,7.6,8.6,7.7,8.6z M7.9,9.2
	C7.8,9,7.7,8.9,7.6,8.9c0,0,0,0.1,0.1,0.1s0.1,0,0.1,0.1v0.1l0.1,0.1H7.7C7.7,9.3,7.9,9.2,7.9,9.2z M7.7,9.6l0.1-0.1
	C7.7,9.5,7.7,9.5,7.7,9.6z M7.9,8.3V8.2V8.3z M8,7.7L8,7.7L7.8,7.6L8,7.7z M7.9,2.4h0.3H7.9z M7.9,7.4C8,7.4,8,7.3,7.9,7.4z
	 M7.9,8.3C7.9,8.4,8,8.4,7.9,8.3z M8.3,9.2L8.2,8.9H8.1V9h0.1L8.3,9.2v0.2C8.3,9.4,8.3,9.2,8.3,9.2z M8.1,7.6
	c0.1-0.1,0.1-0.1,0.2-0.1L8.1,7.6C8.1,7.4,8.1,7.5,8.1,7.6z M8.2,8.4H8.1H8.2z M8.2,7.9C8.2,7.8,8.1,7.8,8.2,7.9z M8.3,8.3l0.1,0.1
	L8.3,8.3l0.2-0.2H8.3L8.1,8.2C8.2,8.2,8.2,8.2,8.3,8.3z M8.4,8.6v0.2V8.6z M8.5,8.9L8.4,8.8H8.3C8.3,8.8,8.5,8.9,8.5,8.9z M8.4,9.3
	L8.3,9.4C8.4,9.4,8.4,9.4,8.4,9.3z M8.4,7.3L8.3,7.4C8.3,7.3,8.4,7.2,8.4,7.3C8.5,7.2,8.4,7.3,8.4,7.3z M8.5,2.5H8.4H8.5z M8.7,8.5
	L8.5,8.4H8.4L8.7,8.5z M8.5,8l0.1-0.1C8.5,7.9,8.5,7.9,8.5,8z M8.6,7.1L8.6,7.1L8.6,7.1z M8.6,8.3V8.2V8.3z M8.6,6.8
	c0.2,0.1,0.2,0,0.3,0l0.2-0.2L8.9,6.7C8.8,6.8,8.8,6.8,8.6,6.8L8.6,6.8L8.6,6.8z M8.9,3.3H8.6v0.1L8.9,3.3z M8.8,9.5L8.7,9.4
	C8.7,9.5,8.7,9.5,8.8,9.5z M8.9,8h0.2L8.8,7.9L8.9,8z M8.9,2.9H9H8.9z M9.1,8.6H9v0.1L9.1,8.6z M9.2,2.5c0-0.1,0.1-0.1,0.1-0.1
	L9.2,2.3L9,2.5l0.1,0.1C9.1,2.6,9.2,2.6,9.2,2.5z M9.1,3.4L9.1,3.4L9.1,3.4z M9.2,9.3L9.1,9.4C9.2,9.4,9.2,9.3,9.2,9.3z M9.2,6.5
	c0,0,0,0.1-0.1,0.1C9.2,6.6,9.2,6.5,9.2,6.5z M9.4,9.6L9.3,9.5L9.2,9.6C9.2,9.6,9.4,9.6,9.4,9.6z M9.3,2.9L9.4,3L9.3,2.9z M9.3,3.5
	h0.2H9.3z M9.4,8.1c0,0-0.1,0.1-0.1,0.2L9.6,8C9.6,8,9.5,8,9.4,8.1z M9.5,6.5L9.4,6.6v0.1L9.5,6.5z M9.6,7.4H9.4H9.6z M9.6,3.4
	l0.1,0.1L9.6,3.4z M9.7,6.2H9.6H9.7z"/>
</svg>
