<?xml version="1.0" encoding="utf-8"?>
<!-- Generator: Adobe Illustrator 17.1.0, SVG Export Plug-In . SVG Version: 6.00 Build 0)  -->
<!DOCTYPE svg PUBLIC "-//W3C//DTD SVG 1.1//EN" "http://www.w3.org/Graphics/SVG/1.1/DTD/svg11.dtd">
<svg version="1.1" id="Layer_1" xmlns="http://www.w3.org/2000/svg" xmlns:xlink="http://www.w3.org/1999/xlink" x="0px" y="0px"
	 width="17.8px" height="12.2px" viewBox="0 0 17.8 12.2" enable-background="new 0 0 17.8 12.2" xml:space="preserve">
<path fill="#404040" d="M9.6,1.6c0.4,0,0.7,0.1,1,0.3C10.7,2,10.9,2,11.1,2.2c0.2,0.1,0.3,0.2,0.5,0.4C11.8,2.7,11.9,2.9,12,3
	c0.1,0.2,0.2,0.3,0.2,0.5c0,0.3-0.1,0.5-0.2,0.7l-0.4,0.5L11.2,5C11.1,4.9,11,5,11,5.1s0,0.1,0.1,0.2l0.2,0.1
	c0.4,0.2,0.6,0.5,0.9,0.8c0.2,0.4,0.3,0.7,0.3,1.1v0.9c-0.3,0.7-0.7,1.3-1.3,1.6s-1.3,0.5-2.1,0.5H8.5l-0.1-0.1l0.1-0.1
	c0.1,0,0.2,0,0.3,0.1l0.3,0.1c0.3,0,0.5,0,0.7-0.1c0.2,0,0.4-0.1,0.6-0.2c0.2-0.1,0.3-0.3,0.4-0.5c0.1-0.2,0.2-0.4,0.3-0.7
	C11,8.5,10.8,8.3,10.5,8c-0.3-0.2-0.6-0.5-1-0.7S8.7,7,8.3,6.9c-0.4-0.1-0.7-0.2-1-0.2H7.1C6.9,7,6.7,7.2,6.6,7.5S6.3,8,6.3,8.3
	c0,0.2,0,0.4,0.1,0.6C6.5,9,6.6,9.2,6.7,9.4c0,0.1,0.1,0.1,0.2,0.2s0.3,0.2,0.4,0.2l0.5,0.3l0.3,0.2c-0.2,0-0.4,0-0.7-0.1
	C7.1,10.1,6.9,10,6.6,9.8L6,9.3C5.7,9.1,5.6,9,5.5,8.8C5.4,8.7,5.3,8.5,5.3,8.4V7.9c0-0.2,0.1-0.4,0.2-0.5l0.4-0.3
	C6,7,6.2,6.9,6.4,6.8l0.5-0.3c0-0.1-0.1-0.2-0.2-0.3c-0.2,0-0.3-0.1-0.4-0.3C6.1,5.8,6,5.5,5.9,5.3s-0.2-0.6-0.2-1V3.6
	c0,0,0.1-0.5,0.2-0.7s0.3-0.3,0.5-0.5S6.9,2.1,7.1,2l0.7-0.3C8,1.6,8.3,1.5,8.5,1.5C8.9,1.5,9.2,1.5,9.6,1.6z M6.1,4.2v0.2h0.2V4.1
	C6.1,4.1,6.1,4.1,6.1,4.2z M6.5,3.4L6.3,3.5l0.4-0.2C6.7,3.3,6.6,3.3,6.5,3.4z M7,5.5L7,5.5L7,5.5L7,5.5z M7.4,3.6
	C7.5,3.8,7.7,4,8,4.1l0.7,0.3l0.8,0.1c0.2,0,0.4,0.1,0.5,0.2s0.4,0.1,0.6,0.1c0.1,0,0.3-0.1,0.4-0.2c0.1-0.1,0.2-0.3,0.2-0.4
	c0.1-0.2,0.1-0.3,0.1-0.5V3.3c0-0.3-0.1-0.6-0.3-0.8S10.6,2.1,10.3,2C10,2,9.7,1.9,9.4,1.8H8.6c-0.2,0-0.4,0-0.5,0.1
	c-0.2,0-0.4,0-0.5,0.1C7.5,2.1,7.3,2.2,7.3,2.4S7.1,2.7,7.1,2.9C7.1,3.2,7.2,3.5,7.4,3.6z M7.6,6.2L7.6,6.2l0.3,0.1v0.1l0.2-0.1
	C8.1,6,8,6,8,6H7.9C7.7,5.9,7.6,6,7.5,6C7.5,6.1,7.5,6.1,7.6,6.2z M7.8,5.6C7.9,5.5,7.8,5.5,7.8,5.6z M8.5,6H8.3H8.5L8.5,6z
	 M8.6,5.7c0.1-0.1,0.1-0.1,0.1-0.2L8.6,5.7z M8.7,5.9h0.2C9,5.8,9,5.7,9,5.7L8.9,5.6C8.9,5.6,8.7,5.9,8.7,5.9z M9.8,7.2h0.1H9.8z
	 M11.3,6.1L11.2,6v0.1H11.3z M11.4,8.5v0.2c0,0,0,0.1-0.1,0.1V9c0,0,0.1,0,0.1-0.1l0.1-0.1c0-0.1,0-0.1,0.1-0.2c0,0-0.1,0-0.1-0.1
	V8.4C11.5,8.4,11.4,8.5,11.4,8.5z M12.1,6.9V6.7c0,0-0.1-0.1-0.2-0.1s-0.1,0.1-0.1,0.1v0.2l0.1-0.1L12.1,6.9h-0.2H12.1z M12.1,8.4
	V8.3c0-0.1-0.1-0.1-0.1-0.1l-0.1,0.2C11.9,8.4,12.1,8.4,12.1,8.4z M12,7.8C12,7.9,11.9,8,11.9,8C12,8,12.1,8,12,7.8
	c0.1,0,0.1,0,0.2-0.1C12.1,7.7,12,7.8,12,7.8z"/>
</svg>
