<?xml version="1.0" encoding="utf-8"?>
<!-- Generator: Adobe Illustrator 17.1.0, SVG Export Plug-In . SVG Version: 6.00 Build 0)  -->
<!DOCTYPE svg PUBLIC "-//W3C//DTD SVG 1.1//EN" "http://www.w3.org/Graphics/SVG/1.1/DTD/svg11.dtd">
<svg version="1.1" id="Layer_1" xmlns="http://www.w3.org/2000/svg" xmlns:xlink="http://www.w3.org/1999/xlink" x="0px" y="0px"
	 width="17.8px" height="12.2px" viewBox="0 0 17.8 12.2" enable-background="new 0 0 17.8 12.2" xml:space="preserve">
<path fill="#404040" d="M6.3,6.3L5.8,5.8C5.7,5.7,5.6,5.5,5.5,5.3c0-0.2-0.1-0.4-0.1-0.7c0-0.4,0.1-0.7,0.2-1S5.9,3,6.1,2.8
	s0.4-0.4,0.7-0.6s0.6-0.3,0.9-0.4C7.8,1.8,8,1.7,8,1.7c0.1-0.1,0.2-0.1,0.4-0.1h0.2c0.1,0,0.2,0,0.2,0.1H8.5C8.3,1.9,8.1,2.1,8,2.4
	c0,0.2-0.1,0.5-0.1,0.8v2.2c0,0.2,0,0.3,0.1,0.5l0.3,0.4c0,0,0.3,0.2,0.5,0.3c0,0.1-0.1,0.1-0.1,0.1L8.5,6.8h-1
	c0-0.1-0.1-0.2-0.2-0.2H6.8C6.8,6.6,6.3,6.3,6.3,6.3z M7.5,10.2L6.7,9.8C6.5,9.6,6.3,9.4,6.2,9.2S5.9,8.8,5.9,8.5
	c0-0.2,0-0.3,0.1-0.4l0.3-0.3c0.1-0.1,0.2-0.1,0.4-0.2S7,7.5,7.1,7.5l0.3,0.1c0.1,0,0.2,0,0.3,0.1c0.1,0,0.2,0.1,0.2,0.1L8.1,8
	c0,0.1,0,0.2,0.1,0.3s0.1,0.2,0.1,0.3c0,0.2,0,0.3-0.1,0.4S8.1,9.2,8,9.3C7.9,9.4,7.8,9.5,7.8,9.6L7.7,9.7c0,0.1,0,0.2,0.1,0.2
	L8,10.1c0.1,0,0.2,0.1,0.2,0.1h0.4l-0.1,0.1H8.1C8,10.3,7.7,10.2,7.5,10.2z M6.1,4.1L6.1,4.1L6.1,4.1z M6.4,3.4L6.4,3.4L6.4,3.4
	L6.2,3.5C6.3,3.5,6.3,3.5,6.4,3.4z M6.3,4.2C6.3,4.3,6.4,4.3,6.3,4.2L6.3,4.2V4V4.2z M6.5,3.1H6.3v0.1L6.5,3.1z M6.6,3.4L6.4,3.5
	l0.1,0.1C6.5,3.6,6.6,3.4,6.6,3.4z M6.5,8.1L6.6,8V7.9L6.5,8.1z M6.8,6C6.8,5.9,6.7,5.9,6.8,6z M7,4.6L6.8,4.7L7,4.8V4.6z M6.8,4.4
	L6.8,4.4L6.8,4.4z M6.9,5.3L6.9,5.3L6.9,5.3z M7.1,5.6L7.1,5.6L7.1,5.6z M7.2,5.2v0.2V5.2z M7.2,3.8c0.1,0,0.1-0.1,0.1-0.2L7.2,3.8z
	 M7.2,4.5L7.2,4.5L7.2,4.5z M7.6,3.3H7.4V3.2c0,0.1,0,0.1-0.1,0.2L7.2,3.5h0.1C7.3,3.5,7.6,3.3,7.6,3.3z M7.5,5.2L7.5,5.2L7.5,5.2z
	 M7.6,5.9C7.7,5.8,7.6,5.8,7.6,5.9z M8.9,10.1l0.2-0.2l0.2-0.1c0.1,0,0.1-0.1,0.1-0.1c0-0.1,0-0.3,0.1-0.4c0-0.1,0.1-0.2,0.1-0.4
	c0-0.1,0.1-0.2,0.1-0.4s0.1-0.2,0.1-0.4c0-0.3,0-0.5,0.1-0.8V6.2c0-0.1,0-0.1-0.1-0.2c0-0.1,0-0.1-0.1-0.1H9.5c0-0.1,0-0.2,0.1-0.3
	c0.1-0.1,0.1-0.2,0.1-0.2c0-0.2,0.1-0.4,0.1-0.7s0-0.5,0.1-0.7V3.6L9.8,3.4V3.2c0-0.2,0-0.4-0.1-0.6S9.6,2.2,9.6,2.1L9.4,1.8V1.6
	h0.3l0.2,0.1c0.3,0,0.5,0.1,0.8,0.3s0.5,0.4,0.7,0.7L12,3.5c0.2,0.3,0.3,0.6,0.3,0.8c0.1,0.2,0.1,0.5,0.1,0.7v0.7
	c0,0.3,0,0.6-0.1,0.8S12.2,7,12.1,7.2c-0.1,0.2-0.2,0.4-0.4,0.6c-0.1,0.2-0.3,0.4-0.5,0.7c0,0-0.1,0.1-0.1,0.2C11.1,9,11,9.1,11,9.1
	c-0.1,0.1-0.1,0.1-0.2,0.1l-0.2,0.1c-0.2,0.2-0.5,0.4-0.8,0.5C9.6,10,9.3,10.1,9,10.3l-0.1-0.1C8.9,10.2,8.9,10.1,8.9,10.1z
	 M10.2,8.7H10H10.2z M10,3.3l0.1-0.1L10,3.3z M10.3,7.8l-0.2-0.1L10.3,7.8z M10.3,3.5c-0.1,0-0.1,0-0.2,0.1L10.3,3.5L10.3,3.5z
	 M10.3,3.9l-0.1-0.1L10.3,3.9z M10.2,5.7h-0.1H10.2z M10.9,4.7l-0.1-0.1L10.9,4.7l0-0.2V4.3l-0.2-0.1V4.1h-0.2V4h-0.2v0.2l0.2,0.1
	l0.1-0.2l0.1,0.2h0.2c0,0.1,0,0.2-0.1,0.2h-0.2v0.1h0.1c0,0.1,0,0.1-0.1,0.1h-0.2c0,0-0.1,0-0.1,0.1V5l0.3-0.1V4.8
	c0,0,0-0.1,0.1-0.1H10.9c-0.2,0.1-0.2,0.1-0.3,0.2S10.4,5,10.4,5.1l0.1,0.2V5.2L10.6,5l0.1-0.1C10.7,4.9,10.9,4.7,10.9,4.7z
	 M10.2,9.1h0.1C10.4,9.1,10.3,9,10.2,9.1z M10.2,7.8C10.3,7.8,10.3,7.7,10.2,7.8z M10.2,4.5h0.1H10.2z M10.6,3.8h0.3h-0.1
	c0.1,0,0.1-0.1,0.1-0.2V3.4l-0.1,0.1l-0.1-0.1l-0.2,0.1l0.1-0.1l-0.1-0.1h-0.1v0.2h-0.1c0,0.1,0,0.1,0.1,0.1l0.1,0.1h0.2
	C10.7,3.7,10.6,3.7,10.6,3.8z M10.3,8L10.3,8L10.3,8z M10.4,8.3C10.3,8.4,10.4,8.4,10.4,8.3z M10.4,7.8c0,0.1,0.1,0.1,0.1,0.1
	C10.5,7.8,10.5,7.8,10.4,7.8c0.1-0.1,0.1-0.2,0-0.2V7.8z M10.5,4.4L10.5,4.4L10.5,4.4z M10.5,8.9h0.2H10.5z M10.7,4v0.3
	C10.7,4.3,10.7,4,10.7,4z M10.8,7.8h0.1C10.9,7.7,10.8,7.7,10.8,7.8z M10.7,8.2l0.1-0.1C10.7,8.1,10.7,8.1,10.7,8.2z M10.8,8.4v0.1
	V8.4z M10.9,7H11H10.9z M11,8.1l-0.1,0.1H11V8.1z M10.9,4.5V4.3V4.5z M11,4.7l0.1-0.1L11,4.7z M11.2,5.4c0.1,0,0.2,0,0.2-0.1
	c0,0,0-0.1,0.1-0.1V5.1c0,0,0-0.1,0.1-0.1h0.2V4.9h0.1V5L12,4.9V4.4h-0.1V4.3L12,4.2L11.9,4h-0.1V3.9h-0.1c0,0,0,0.1-0.1,0.1
	c0,0,0,0.1-0.1,0.1l-0.1,0.1v0.1c0,0-0.1,0-0.1,0.1l-0.1,0.1l0.1,0.1v0.2l0.1-0.1l0.1,0.2l-0.2-0.1l-0.1,0.1l0.1,0.2h0.1L11.2,5.4z
	 M11.3,3.9l-0.1-0.1l-0.1,0.1C11.1,3.9,11.3,3.9,11.3,3.9z M11.4,4.1L11.4,4.1L11.4,4.1z M11.5,5.2l0.1-0.1L11.5,5.2z M11.6,7.2
	l0.1,0.1L11.6,7.2z M11.9,4.9v0.3V4.9z"/>
</svg>
