<?xml version="1.0" encoding="utf-8"?>
<!-- Generator: Adobe Illustrator 17.1.0, SVG Export Plug-In . SVG Version: 6.00 Build 0)  -->
<!DOCTYPE svg PUBLIC "-//W3C//DTD SVG 1.1//EN" "http://www.w3.org/Graphics/SVG/1.1/DTD/svg11.dtd">
<svg version="1.1" id="Layer_1" xmlns="http://www.w3.org/2000/svg" xmlns:xlink="http://www.w3.org/1999/xlink" x="0px" y="0px"
	 width="903.5px" height="100px" viewBox="-347.4 -38.5 903.5 100" enable-background="new -347.4 -38.5 903.5 100"
	 xml:space="preserve">
<g>
	<path fill="#FFFFFF" d="M-247.9,52.3c1.3-2.6,2.6-6,4.3-9.9s3.9-8.6,6.4-13.7c2.6-5.2,4.7-10.3,7.3-15.9c2.6-5.6,5.2-10.7,7.7-15.9
		s4.7-10.3,6.9-14.6c2.1-4.3,3.9-8.2,5.2-11.2c1.3-3,2.1-5.2,3-6c0.4-0.9,0.9-1.7,1.7-2.6c0.4-0.4,1.3-0.9,2.6-0.9s2.6,0.4,3,1.7
		c0.9,1.3,1.3,2.1,1.7,3.4c0.4,1.3,1.7,3.4,3,6.9c1.7,3,3.4,6.9,5.2,11.2c2.1,4.3,4.3,9,6.4,14.2c2.6,5.2,4.7,10.3,7.3,15.5
		s4.7,10.3,6.9,15c2.1,4.7,4.3,9.4,6,13.3c1.7,3.9,3,6.9,4.3,9.4c1.3,2.6,1.7,3.9,1.7,4.3s0,0.9-0.4,1.7c-0.4,0.4-0.9,0.9-1.3,0.9
		h-18.5c-0.9,0-1.7-0.9-2.6-2.1c-0.9-1.3-1.7-3-2.1-4.7c-0.9-1.7-1.3-3.4-2.1-4.7c-0.4-1.3-0.9-2.1-1.3-2.1h-35.2
		c-0.9,0-1.7,0.9-2.1,2.1c-0.4,1.3-1.3,3-1.7,4.7c-0.4,1.7-1.3,3.4-2.1,4.7c-0.9,1.3-1.7,2.1-3,2.1h-17.6c-0.4,0-0.9-0.4-1.3-0.9
		c-0.4-0.9-0.4-1.3-0.4-1.7C-249.7,56.2-249.2,54.9-247.9,52.3z M-241.1,48.4L-241.1,48.4c0.4,0,0.4,0,0.4,0H-241.1L-241.1,48.4z
		 M-238.5,48v-0.4h-0.9V48H-238.5z M-237.6,51v-0.4l-0.4-0.4l-0.4,0.9H-237.6z M-237.6,46.3L-237.6,46.3L-237.6,46.3L-237.6,46.3
		L-237.6,46.3z M-235.5,45.9L-235.5,45.9h-0.9H-235.5z M-234.6,40.7L-234.6,40.7L-234.6,40.7L-234.6,40.7L-234.6,40.7z M-234.6,45.4
		L-234.6,45.4v-0.9V45.4L-234.6,45.4z M-234.2,35.1L-234.2,35.1v-0.9V35.1L-234.2,35.1z M-233.3,49.7v-1.3l-0.9,1.3H-233.3z
		 M-233.8,38.1L-233.8,38.1v-0.4V38.1L-233.8,38.1z M-232.9,44.2l0.4-0.9l-1.3-1.3C-233.3,42.4-232.9,43.3-232.9,44.2z M-231.2,32.1
		h-0.9V33C-231.6,32.6-231.2,32.6-231.2,32.1z M-229.9,30.8c0.4,0.4,1.3,0.4,1.7,0.4v-0.9l-2.6-1.7C-230.8,30-230.8,30.4-229.9,30.8
		z M-230.3,33c0-0.4,0-0.9,0-0.9l-0.4,1.3l0,0C-230.8,33.4-230.3,33.4-230.3,33z M-230.3,42c0-0.4-0.4-0.9-0.4-1.3l0.4,2.6
		C-230.3,42.9-230.3,42.4-230.3,42z M-229.9,40.3l-0.9-0.9v1.3L-229.9,40.3z M-226.5,39.9l-2.6,3C-227.3,42.9-226.5,42-226.5,39.9z
		 M-228.6,43.7L-228.6,43.7C-229.1,44.2-229.1,44.2-228.6,43.7L-228.6,43.7L-228.6,43.7L-228.6,43.7z M-226.9,27.8
		c0.4,0.9,0.9,1.7,1.7,1.7c0-0.9-0.4-1.3-0.9-2.1c-0.4-0.4-0.9-1.3-0.9-2.1h-0.4C-227.3,25.7-227.3,26.6-226.9,27.8z M-226,36v-0.9
		h-0.4L-226,36L-226,36z M-225.2,39.9V39l-0.4,0.4L-225.2,39.9z M-224.3,13.7L-224.3,13.7v-0.9l-0.4,0.4L-224.3,13.7z M-224.3,16.3
		L-224.3,16.3v-0.9l-0.4,0.4L-224.3,16.3z M-223.9,30.8L-223.9,30.8l-0.4-1.3l-0.4,0.4C-224.8,30.4-224.3,30.8-223.9,30.8z
		 M-224.8,38.6L-224.8,38.6l0.9-1.7L-224.8,38.6z M-224.3,30.4L-224.3,30.4L-224.3,30.4z M-223.9,34.7V33l-0.4,0.4L-223.9,34.7z
		 M-223.9,31.3L-223.9,31.3h0.4H-223.9L-223.9,31.3L-223.9,31.3z M-223,10.7L-223,10.7V9.8l-0.4,0.4L-223,10.7z M-222.6,34.3V33
		l-0.4,0.4L-222.6,34.3z M-220.9,23.6l-1.3-1.3l-0.4,0.4l1.3,1.7L-220.9,23.6z M-221.3,20.5L-221.3,20.5L-221.3,20.5L-221.3,20.5
		L-221.3,20.5z M-220,41.1v-0.9l-0.9,0.9H-220z M-220,18.4L-220,18.4v-0.9l-0.4,0.4L-220,18.4z M-220,20.1L-220,20.1v-0.9l-0.4,0.4
		L-220,20.1z M-220.5,38.1l3-1.7l-0.9-0.4C-219.6,36-220.5,36.4-220.5,38.1z M-218.3,18.8L-218.3,18.8L-218.3,18.8L-218.3,18.8
		L-218.3,18.8z M-218.3,31.3L-218.3,31.3c0,0,0.4-0.4,0.4-0.9C-218.3,30.8-218.3,31.3-218.3,31.3z M-217.5,9.4L-217.5,9.4l-0.9-0.4
		v0.4H-217.5z M-217.5,11.5l-0.9-0.4v0.4H-217.5z M-217.5,15L-217.5,15l-0.9-0.4V15H-217.5z M-217.5,21.8l-0.9-0.4v0.4H-217.5z
		 M-216.6,37.7L-216.6,37.7v-0.9V37.7L-216.6,37.7z M-214.9,11.5v-0.4l-1.3,0.4H-214.9z M-215.7-0.5l0.4-0.4l-0.4-0.4l-0.4,0.4
		L-215.7-0.5z M-215.3,32.1l-0.4,1.3v0.4L-215.3,32.1z M-214.9,14.1L-214.9,14.1h0.4H-214.9L-214.9,14.1z M-214.5-4.8v-0.4l-0.4-0.4
		L-214.5-4.8L-214.5-4.8z M-214,32.6l0.9-0.9h-0.4L-214,32.6L-214,32.6z M-213.2-2.2h-0.4v0.9C-213.6-1.8-213.2-1.8-213.2-2.2z
		 M-211.9-3.1L-211.9-3.1l-0.9-0.4v0.4H-211.9z M-212.3,2.5L-212.3,2.5L-212.3,2.5L-212.3,2.5z M-212.3,12.4L-212.3,12.4l-0.4,0.4
		L-212.3,12.4z M-194.3,25.7v-0.9l0,0c-0.9-0.9-1.3-2.1-2.1-4.3c-0.9-2.1-1.3-3.9-2.1-6s-1.7-3.9-2.1-5.6c-0.9-1.7-1.7-3-2.1-3.4
		c-1.7,3-3,6.4-4.7,9.9s-3,6.4-4.7,9.9l0.4,0.4C-211.9,25.7-194.3,25.7-194.3,25.7z M-210.6,36.4L-211,36l-0.4,0.4H-210.6z
		 M-211,0.4L-211,0.4v-0.9V0.4L-211,0.4z M-208.5,34.7l-1.3-0.4l-0.9,0.4H-208.5z M-208.9-12.1c-0.9,0.4-1.3,1.3-1.3,1.7
		c0.4-0.4,0.9-0.4,1.3-0.4s0.9,0,1.3,0s0.9-0.4,0.9-0.4c0.4-0.4,0.4-0.9,0.4-1.7C-207.2-12.9-207.6-12.5-208.9-12.1z M-209.3-6.1
		L-209.3-6.1l-0.9-0.4v0.4H-209.3z M-208.9,0.4l-0.4-0.4L-208.9,0.4L-208.9,0.4z M-208,2.5c0.4,0,0.4-0.4,0.4-0.9l-0.9,1.3
		C-208.5,3-208.5,3-208,2.5z M-208.5-4.3l2.6-0.4l-2.6-0.4V-4.3L-208.5-4.3z M-208.5-2.2L-208.5-2.2v-0.9V-2.2L-208.5-2.2z
		 M-208-16.8L-208-16.8v-0.9V-16.8L-208-16.8z M-208,36.4h0.9V36C-207.6,36-207.6,36-208,36.4z M-207.6,39.9L-207.6,39.9V39V39.9
		L-207.6,39.9z M-206.3-10.4L-206.3-10.4L-206.3-10.4C-206.7-10.4-206.7-10.4-206.3-10.4z M-205.4,32.6L-205.4,32.6v-0.9V32.6
		L-205.4,32.6z M-204.6-4.3l1.7-0.4l-1.7-0.4V-4.3L-204.6-4.3z M-204.2-6.1l0.4-0.4l-0.4-0.4l-0.4,0.4L-204.2-6.1z M-203.3-11.2
		L-203.3-11.2L-203.3-11.2L-203.3-11.2L-203.3-11.2z M-203.3,33L-203.3,33h0.9H-203.3L-203.3,33z M-202.9-7.3c0.4,0,0.4,0,0.4-0.4
		s0-0.4,0-0.9C-202.9-7.8-202.9-7.3-202.9-7.3z M-202.4,1.7h-0.4v0.4L-202.4,1.7z M-201.2,37.7c-0.4,0.4-0.4,0.4-0.4,0.9
		C-201.2,38.6-200.7,38.6-201.2,37.7c0.4,0,0.9-0.4,0.9-0.4C-200.3,37.3-200.7,37.7-201.2,37.7z M-201.2,33.4L-201.2,33.4v-0.9V33.4
		L-201.2,33.4z M-200.7-15.5l0.9-0.4h-0.4L-200.7-15.5L-200.7-15.5z M-200.7-1.3L-200.7-1.3L-200.7-1.3L-200.7-1.3z M-199.4-11.6
		L-199.4-11.6c0-0.4-0.4-0.9-0.9-1.3C-200.7-12.1-200.3-11.6-199.4-11.6z M-200.3-9.1h0.4H-200.3L-200.3-9.1z M-198.2-12.9h1.3v-0.4
		C-197.7-13.4-198.2-13.4-198.2-12.9z M-197.7,5.5L-197.7,5.5V4.7V5.5L-197.7,5.5z M-197.7-1.8L-197.7-1.8l0.9-0.4l0,0L-197.7-1.8z
		 M-196.9,3.4L-196.9,3.4V2.1V3.4L-196.9,3.4z M-196-5.6h-0.9l0.4,0.9L-196-5.6z M-196,34.7v-0.9h-0.4
		C-196.4,34.3-196.4,34.7-196,34.7z M-195.1-7.8v-0.4h-0.4L-195.1-7.8L-195.1-7.8z M-195.1-2.2L-195.1-2.2v-0.9V-2.2L-195.1-2.2z
		 M-194.3-8.6L-194.3-8.6v-1.3V-8.6L-194.3-8.6z M-194.3,31.7l0.4-0.4l-0.4-0.4l-0.4,0.4L-194.3,31.7z M-193.9,38.1L-193.9,38.1
		L-193.9,38.1L-193.9,38.1z M-193.9,1.7c0.9,0,0.9,0,0.9-0.9C-193.4,0.8-193.9,1.2-193.9,1.7z M-193.4,34.7L-193.4,34.7L-193.4,34.7
		L-193.4,34.7L-193.4,34.7z M-192.6-5.2v-0.4h-0.9C-193-5.2-193-5.2-192.6-5.2z M-193,16.3L-193,16.3v-0.9V16.3L-193,16.3z
		 M-192.1,36.4L-192.1,36.4h-0.9H-192.1z M-192.6-0.5l0.4-0.4l-0.4-0.4l-0.4,0.4L-192.6-0.5z M-192.6,6.8L-192.6,6.8L-192.6,6.8
		L-192.6,6.8z M-191.3,32.1L-191.3,32.1h-0.4H-191.3z M-191.3,39.9V39h-0.4v0.9H-191.3z M-191.3,3.4L-191.3,3.4V2.1V3.4L-191.3,3.4z
		 M-191.3,17.5L-191.3,17.5v-0.9V17.5L-191.3,17.5z M-191.3,33.9L-191.3,33.9h0.9H-191.3L-191.3,33.9z M-190.9,13.3L-190.9,13.3
		L-190.9,13.3L-190.9,13.3L-190.9,13.3z M-190.4,12L-190.4,12v-0.9V12L-190.4,12z M-190.4,19.3L-190.4,19.3v-0.9V19.3L-190.4,19.3z
		 M-190.4,39l0.4-0.4l-0.4-0.4l-0.4,0.4L-190.4,39z M-190.4,30.4L-190.4,30.4L-190.4,30.4L-190.4,30.4L-190.4,30.4z M-189.6,9.4
		L-189.6,9.4v0.9V9.4z M-189.6,31.7L-189.6,31.7L-189.6,31.7L-189.6,31.7z M-189.6,15.4L-189.6,15.4v-0.9V15.4L-189.6,15.4z
		 M-188.7,6V5.1h-0.4C-189.1,5.5-189.1,5.5-188.7,6z M-188.7,34.3l0.4-0.4l-0.4-0.4l-0.4,0.4L-188.7,34.3z M-187.4,10.7
		c0,0.4-0.4,0.9-0.9,0.9c0.9,0,1.3-0.4,1.7-1.7C-187,9.8-187.4,10.2-187.4,10.7z M-187.9,13.7L-187.9,13.7v-0.9V13.7L-187.9,13.7z
		 M-187.9,18.4L-187.9,18.4v-0.9V18.4L-187.9,18.4z M-187.9,30.4L-187.9,30.4V30V30.4L-187.9,30.4z M-187.4,37.3l0.4-0.4l-0.4-0.4
		l-0.4,0.4L-187.4,37.3z M-187.4,4.2L-187.4,4.2L-187.4,4.2L-187.4,4.2L-187.4,4.2z M-186.6,21.8l-0.9-0.4L-186.6,21.8L-186.6,21.8z
		 M-187,24.8L-187,24.8V24V24.8L-187,24.8z M-187,31.7l0.4-0.4l-0.4-0.4l-0.4,0.4L-187,31.7z M-186.1,15.4h-0.9v0.9
		C-186.6,16.3-186.1,16.3-186.1,15.4z M-186.6,19.7v-0.9h-0.4L-186.6,19.7L-186.6,19.7z M-186.6,38.6h0.4H-186.6L-186.6,38.6z
		 M-186.1,12.8L-186.1,12.8L-186.1,12.8L-186.1,12.8L-186.1,12.8z M-184.8,33.9l-1.3-1.3v1.3H-184.8z M-185.3,21L-185.3,21
		L-185.3,21L-185.3,21L-185.3,21z M-185.3,41.6l0.4-0.4l-0.4-0.4l-0.4,0.4L-185.3,41.6z M-185.3,22.7L-185.3,22.7v-0.9V22.7
		L-185.3,22.7z M-184.4,15.4h-0.4v0.9C-184.8,16.3-184.4,16.3-184.4,15.4z M-185.3,26.1l0.4,0.4l0.4-0.4h-0.4H-185.3z M-184.4,30.8
		L-184.4,30.8C-184.4,30.8-184.4,31.3-184.4,30.8l0.4,0.9l0.4-0.4c0-0.4-0.4-0.4-0.9-0.9L-184.4,30.8L-184.4,30.8z M-184.4,30.8
		L-184.4,30.8L-184.4,30.8z M-184.4,19.3c0.4,0,0.9-0.4,1.3-0.9C-184,18.4-184.4,18.8-184.4,19.3z M-184.4,38.1L-184.4,38.1v-0.4
		V38.1L-184.4,38.1z M-182.7,27.8c0.4-0.4,0.9-0.9,0.9-1.3v-0.4l-2.1,2.1C-183.6,28.3-183.1,27.8-182.7,27.8z M-182.7,29.6
		L-182.7,29.6l-0.4,0.4L-182.7,29.6z M-182.3,20.5L-182.3,20.5v-0.4V20.5L-182.3,20.5z M-182.3,22.3L-182.3,22.3v-0.9V22.3
		L-182.3,22.3z M-181,23.6L-181,23.6V24V23.6L-181,23.6L-181,23.6z M-180.1,30.4h-1.3v1.3L-180.1,30.4z M-180.6,39.4h-0.9v1.3
		C-181,40.3-181,39.9-180.6,39.4z M-180.6,44.2c0-0.9,0-1.7,0-2.1v0.9V44.2z M-178.8,29.1l-0.9,0.9l1.3,0.9L-178.8,29.1z
		 M-178.8,40.7l-0.9-0.4v0.4H-178.8z M-178.8,34.3l0.4-0.4l-0.4-0.4l-0.4,0.4L-178.8,34.3z M-178.4,37.3h-0.9v0.4L-178.4,37.3z
		 M-176.7,42c0.4,0,0.9,0.4,1.3,0.9c0.4,0.4,0.9,0.9,1.3,0.9c0-0.4-0.4-1.3-1.3-1.7c-0.9-0.4-1.7-0.9-2.1-1.3v3L-176.7,42z
		 M-175.8,32.1l-0.9-0.4C-176.7,31.7-176.3,32.1-175.8,32.1z M-176.7,44.2h0.9H-176.7L-176.7,44.2z M-175.8,29.6l0.4-0.4l-0.4-0.4
		V29.6L-175.8,29.6z M-175.8,37.3l0.4-0.4l-0.4-0.9l-0.4,0.4L-175.8,37.3z M-175,39.9c0-0.4-0.4-0.9-1.3-0.9l0,0L-175,39.9
		L-175,39.9z M-175.8,46.7h0.9H-175.8L-175.8,46.7z M-175,34.3L-175,34.3l0.4,0.9C-174.5,34.7-174.5,34.7-175,34.3z M-173.7,47.2
		l-0.4-0.4C-174.1,47.2-174.1,47.2-173.7,47.2z M-173.7,30.8L-173.7,30.8v0.9V30.8z M-173.3,52.7c0-0.4-0.4-0.4-0.4-0.4l0,0v0.4
		H-173.3z M-173.7,51.4v-0.9V51.4L-173.7,51.4z M-173.7,38.6L-173.7,38.6c0.9,0,1.3,0,1.3-0.4l0.9-0.9h-0.4L-173.7,38.6z
		 M-172.4,44.6l0.4-0.4l-0.4-0.4l-0.4,0.4L-172.4,44.6z M-172,49.7v-0.9V49.7L-172,49.7z M-171.1,51L-171.1,51L-171.1,51L-171.1,51
		L-171.1,51z M-169,39l0.4-0.4l-0.4-0.4l-0.4,0.4L-169,39z M-169,47.6c0.4,0,0.4-0.4,0.9-0.9L-169,47.6L-169,47.6z M-168.5,49.7
		h-0.4v0.4L-168.5,49.7z M-168.1,52.7L-168.1,52.7L-168.1,52.7L-168.1,52.7L-168.1,52.7z M-167.3,49.7L-167.3,49.7l-0.4-0.4v0.4
		H-167.3z M-165.5,51L-165.5,51L-165.5,51L-165.5,51L-165.5,51z M-165.1,54.9v-0.4V54.9L-165.1,54.9z"/>
	<path fill="#FFFFFF" d="M-138.9-37h37.3c3.4,0,6.4,0.9,9.4,2.1c3,1.3,5.6,3.4,8.2,5.6c2.1,2.6,4.3,5.2,5.6,8.2
		c1.3,3,2.1,6.4,2.1,9.4c0,4.7-1.3,9-3.9,12.4c-2.6,3.4-6,6.4-9.9,8.6v0.4c4.7,2.1,8.6,5.2,11.6,8.6s4.7,8.2,4.7,13.7
		c0,3.4-0.9,6.4-2.1,9.9c-1.3,3-3,6-5.6,8.6c-2.1,2.6-5.2,4.3-8.2,6s-6.4,2.1-9.9,2.1h-39.5l-1.7-1.7v-91.8L-138.9-37z M-135.5,50.2
		L-135.5,50.2L-135.5,50.2L-135.5,50.2L-135.5,50.2z M-135.1,33.4L-135.1,33.4v-0.9V33.4L-135.1,33.4z M-132.9,48
		c0.9-0.4,1.3-1.3,1.7-2.1l-1.3,0.4v-0.4l-2.1,0.4l0.4,1.7h-0.9v1.3C-134.2,48.9-133.8,48.4-132.9,48z M-133.3,53.2l0.9,0.4
		c0-0.4,0.4-0.9,0.4-1.3c0-0.4,0-0.9,0.4-1.3l-1.7-0.4l1.3,0.9l-1.3,0.4l-1.7-0.4l0,0l0.9,2.1L-133.3,53.2z M-134.6,54.9
		L-134.6,54.9V54V54.9L-134.6,54.9z M-134.2-3.9l-0.4-0.4v0.4H-134.2z M-132.5,38.1l-1.3,0.4l0.4,0.9L-132.5,38.1z M-133.3,36.4
		l2.6-0.4l-2.6-0.4V36.4L-133.3,36.4z M-133.3,44.6l0.4-0.4l-0.4-0.4V44.6L-133.3,44.6z M-133.3-11.2h0.9H-133.3L-133.3-11.2
		L-133.3-11.2z M-133.3,33.4L-133.3,33.4v-0.9V33.4L-133.3,33.4z M-132.9,49.3C-132.9,49.3-132.5,49.3-132.9,49.3
		C-132.5,49.3-132.5,49.7-132.9,49.3L-132.9,49.3L-132.9,49.3L-132.9,49.3z M-132.5-25.4l3,0.4l-0.4-0.4c0-0.4,0-0.4,0.4-0.4
		L-132.5-25.4z M-132.5,40.7L-132.5,40.7v-0.9V40.7L-132.5,40.7z M-132.5-9.1L-132.5-9.1L-132.5-9.1L-132.5-9.1L-132.5-9.1z
		 M-132.5,43.7L-132.5,43.7L-132.5,43.7L-132.5,43.7L-132.5,43.7z M-131.2-29.7V-31l-0.4-0.4l-0.9,0.9L-131.2-29.7l-0.9,0.9l0.9,0.4
		C-131.2-28.8-131.2-29.2-131.2-29.7z M-130.8,48.9l2.1-2.1l-0.9-0.4c-0.4,0-0.4,0.4-0.4,0.4c0,0.4-0.4,0.4-0.4,0.9s0,0.4-0.4,0.9
		c0,0.4-0.4,0.4-0.9,0.4h-0.9L-130.8,48.9L-130.8,48.9z M-131.6-24.1L-131.6-24.1v-0.4V-24.1L-131.6-24.1z M-131.6,4.7
		c0.4,0,0.4-0.4,0.9-0.9c0-0.4,0-0.9,0-1.3C-131.2,3.4-131.6,3.8-131.6,4.7z M-131.2-28.4l2.6,0.4v-0.4H-131.2z M-131.2,35.6
		L-131.2,35.6L-131.2,35.6L-131.2,35.6L-131.2,35.6z M-131.2,39.4h0.9v-0.9C-130.8,39-131.2,39-131.2,39.4z M-131.2,47.2l1.3-0.4
		l-1.3-0.4V47.2L-131.2,47.2z M-131.2,50.2l1.3-0.4l-1.3-0.4V50.2L-131.2,50.2z M-131.2,45L-131.2,45L-131.2,45L-131.2,45L-131.2,45
		z M-130.8,52.3L-130.8,52.3C-130.8,52.7-130.8,52.7-130.8,52.3L-130.8,52.3L-130.8,52.3L-130.8,52.3z M-131.2,54L-131.2,54l2.6-0.4
		v-0.9C-129.5,52.7-130.3,53.2-131.2,54z M-130.8-21.9l3.9-0.4l-3.9-0.4V-21.9L-130.8-21.9z M-130.8-10.8l0.4-0.4l-0.4-0.4V-10.8
		L-130.8-10.8z M-130.8-2.2l0.4-0.4l-0.4-0.4V-2.2L-130.8-2.2z M-130.8,42L-130.8,42L-130.8,42L-130.8,42L-130.8,42z M-127.8,49.3
		l-2.6,0.9l0.9,1.3C-129.1,51.4-128.2,50.6-127.8,49.3z M-129.5-0.5L-129.5-0.5v-0.9V-0.5L-129.5-0.5z M-128.6,36.9l-0.9-0.9
		l-0.4,0.4v0.9h1.3V36.9z M-128.2,42.9c-0.4,0.4-0.4,0.4-0.9,0.9h0.4l1.7-1.7h-0.4C-127.8,42.4-128.2,42.9-128.2,42.9z M-128.6-3.1
		v-1.3l-0.4,0.4L-128.6-3.1z M-128.2,33L-128.2,33L-128.2,33L-128.2,33z M-127.8,0.4L-127.8,0.4L-127.8,0.4L-127.8,0.4L-127.8,0.4z
		 M-127.3,35.1h-1.3v0.4L-127.3,35.1z M-127.8-16.4l0.4-0.4l-0.4-0.4V-16.4L-127.8-16.4z M-127.8,34.7h0.4l-0.4-0.9V34.7
		L-127.8,34.7z M-127.8,52.7l0.4-0.4l-0.4-0.4V52.7L-127.8,52.7z M-126.5-30.1l-1.7-0.4l1.3,1.3L-126.5-30.1z M-127.8-9.5
		L-127.8-9.5l0.9,2.1C-126.9-8.2-127.3-9.1-127.8-9.5z M-127.3,45L-127.3,45h0.4H-127.3L-127.3,45L-127.3,45z M-126.9-21.9
		L-126.9-21.9v-1.3V-21.9L-126.9-21.9z M-126.9-0.9L-126.9-0.9v-0.9V-0.9L-126.9-0.9z M-127.3,10.2L-127.3,10.2L-127.3,10.2l0.4-0.4
		L-127.3,10.2z M-126.9,39.4l1.7-0.4L-126.9,39.4L-126.9,39.4L-126.9,39.4z M-126.9,48L-126.9,48L-126.9,48L-126.9,48z M-126.9,51
		l1.3-1.7h-0.4L-126.9,51L-126.9,51z M-126.5-24.9l0.4-0.4l-0.4-0.4V-24.9L-126.5-24.9z M-126.5,41.6l0.4-0.4l-0.4-0.4V41.6
		L-126.5,41.6z M-125.6,26.6v-2.1l-0.9,0.9L-125.6,26.6z M-125.6,46.7v0.4l-0.4-1.7l-0.4,0.4C-126,45.9-125.6,46.3-125.6,46.7z
		 M-125.6,53.6l0.4,0.9l2.1-2.6l-1.3-1.3c0.4-0.4,1.3-0.9,1.7-1.7c0.4-0.9,0.9-1.3,0.9-2.1l-0.9,0.9l-0.4-0.4l-0.9,0.4l-1.3-0.4v3.4
		h-0.9l0.9,1.3L-125.6,53.6L-125.6,53.6z M-125.6-21.1v-0.4V-21.1L-125.6-21.1z M-125.6,46.3L-125.6,46.3L-125.6,46.3z M-125.2-23.7
		L-125.2-23.7L-125.2-23.7L-125.2-23.7L-125.2-23.7z M-124.3,27h-0.9v0.4L-124.3,27z M-124.3,31.3L-124.3,31.3v-0.9l-0.4,0.4
		L-124.3,31.3z M-123.5-31c-0.4,0-0.9,0.4-0.9,0.4l1.7-0.4l0,0C-122.6-31-123-31-123.5-31z M-123.9-28.8v-1.3V-28.8L-123.9-28.8z
		 M-123.9-24.9v-0.9V-24.9L-123.9-24.9z M-123.9,4.2V3.4V4.2L-123.9,4.2z M-124.3,41.6l0.4-0.9L-124.3,41.6L-124.3,41.6z M-123.9,45
		L-123.9,45c0.4-0.4,0.9-0.9,1.3-0.9h-0.4C-123.9,43.7-123.9,44.2-123.9,45z M-122.6,54L-122.6,54L-122.6,54L-122.6,54z
		 M-122.6-26.7l1.3-0.4l-1.3-0.4V-26.7L-122.6-26.7z M-122.6,50.2h0.9v-0.9C-122.2,49.3-122.6,49.7-122.6,50.2z M-122.6,51.9
		l1.7,0.4l-0.4-0.4l0.4-0.4L-122.6,51.9z M-121.8-23.7h-0.9v0.4L-121.8-23.7z M-121.3,8.5L-121.3,8.5L-121.3,8.5l0.4-0.4L-121.3,8.5
		z M-120.9,43.3l0.4-0.4l-0.4-0.4V43.3L-120.9,43.3z M-101.6,51v-1.3c0.9,0,1.3,0,1.7,0c0.4-0.4,0.9-0.9,0.9-1.7l-1.7-0.9l-0.9,0.4
		c-0.4,0-0.9-0.4-1.3-0.9c-0.4-0.4-0.4-0.9-0.9-1.3v1.7l1.3,1.3l-0.9,0.9v0.9h-0.4v-0.4l-0.9,0.4l-2.6-1.7c0,0.4,0.4,0.9,0.9,1.3
		c0.4,0.4,0.9,0.9,0.9,1.3c-0.4,0-0.9,0-1.3-0.4c-0.4,0-0.4-0.4-0.9-0.9c0-0.4-0.4-0.4-0.4-0.9c0,0-0.4-0.4-0.9-0.4l-0.9,0.9
		l0.9,1.7l-0.9,0.4c-0.4,0-0.9-0.4-0.9-0.9c0-0.4-0.4-0.9-0.4-1.3l1.3-1.7l-1.3-0.4c-0.4,0-0.9,0-1.3,0c-0.4,0-1.3,0.4-1.7,0.4
		c-0.4,0-1.3,0.4-1.7,0.9c-0.4,0.4-0.9,0.4-0.9,0.9l-0.4-0.9l0.4-1.3l-0.9,0.4l-0.9-0.9l0.4-0.9l-1.3-1.3l-0.9,1.3l-1.3-0.4l1.3,2.6
		l-0.9,1.7l2.6-0.9v0.4l-0.9,1.7l-1.7-0.4l0.9,1.3h3.4c0.4,0.9,0.9,1.3,1.3,1.3c0.4,0.4,0.9,0.4,1.3,0.4s0.9,0,1.3,0s0.9,0,1.7,0.4
		l-0.4,0.4l0.4,0.9l0.9-1.7v-0.4l1.3-0.4c0.4,0,0.9,0,1.3,0c0.4,0,0.9,0,0.9,0.4l0.4,0.4c0,0.4,0,0.4,0.4,0.9c0,0.4,0.4,0.4,0.4,0.9
		l0.9-1.3l1.7,0.9l1.7-0.4l-0.4-1.3l2.1-0.4l1.3,1.7l0.4-1.3l-2.1-1.7h-0.9l-0.4-0.4l-0.4,0.4L-101.6,51z M-119.6-27.1L-119.6-27.1
		h0.9H-119.6L-119.6-27.1z M-119.2,46.7l-0.4-0.4l0.4-0.4V46.7L-119.2,46.7z M-118.8-21.9L-118.8-21.9v-1.3V-21.9L-118.8-21.9z
		 M-105.4,1.2c0.9,0,1.7-0.4,2.6-0.9c0.9-0.4,1.3-1.3,1.7-2.1c0.4-0.9,0.9-1.7,1.3-3c0.4-0.9,0.4-2.1,0.4-3c0-0.9,0-1.7-0.4-2.6
		c-0.4-0.9-0.9-1.7-1.3-3c-0.4-0.9-1.3-1.7-1.7-2.1c-0.9-0.4-1.7-0.9-2.6-0.9h-12.9V1.2C-118.3,1.2-105.4,1.2-105.4,1.2z M-110.6,39
		c1.7,0,3.4,0,4.7-0.4c1.7-0.4,3-0.9,4.3-1.3c1.3-0.9,2.1-1.7,3-3c0.9-1.3,1.3-3,1.3-4.7c0-1.3,0-2.1-0.4-3s-0.9-2.1-1.7-3
		c-0.9-0.9-1.7-1.7-2.6-2.1c-0.9-0.4-2.1-0.9-3.4-0.9h-12.9v17.6l0.4,0.9H-110.6z M-116.6-26.7L-116.6-26.7v-0.9V-26.7L-116.6-26.7z
		 M-116.2,45.4L-116.2,45.4v-0.9V45.4L-116.2,45.4z M-115.3,46.3l0.4,0.9l-0.4-1.7V46.3L-115.3,46.3z M-115.3,50.2L-115.3,50.2v-0.9
		V50.2L-115.3,50.2z M-115.3,50.6L-115.3,50.6L-115.3,50.6L-115.3,50.6z M-113.6-30.1L-113.6-30.1v-0.4l0,0l-0.4-0.9l-0.4,0.4
		L-113.6-30.1z M-113.6-30.5L-113.6-30.5L-113.6-30.5z M-113.6,51.4L-113.6,51.4v-0.9V51.4L-113.6,51.4z M-112.7,55.3L-112.7,55.3
		v-0.9V55.3L-112.7,55.3z M-111,51.9l-1.3-0.4l0.4-0.4L-111,51.9z M-111.9-27.5L-111.9-27.5v-0.9V-27.5L-111.9-27.5z M-111.9,53.6
		l-0.4,0.9l0.4-1.7V53.6L-111.9,53.6z M-110.6-26.7L-110.6-26.7v-0.9V-26.7L-110.6-26.7z M-109.3,54L-109.3,54v-0.9V54L-109.3,54z
		 M-108.9-27.9v-0.4h-0.4L-108.9-27.9L-108.9-27.9z M-108.5-25.4L-108.5-25.4c0.4,0,0.4,0,0.4,0v-0.4L-108.5-25.4L-108.5-25.4z
		 M-107.6-24.9L-107.6-24.9v-0.9V-24.9L-107.6-24.9z M-107.2,54.9V54v0.4V54.9z M-106.7,46.3L-106.7,46.3l0.9,1.7
		C-105.9,47.2-105.9,46.7-106.7,46.3z M-106.7-28.8L-106.7-28.8L-106.7-28.8L-106.7-28.8z M-105.4-27.9L-105.4-27.9l0.4,0.9
		L-105.4-27.9z M-104.2,55.7L-104.2,55.7v-0.9V55.7L-104.2,55.7z M-103.3-28.8L-103.3-28.8L-103.3-28.8L-103.3-28.8L-103.3-28.8z
		 M-102.4,51.9c0,0.4,0.4,0.9,0.9,1.3l0.4,0.4l-0.4,0.4c-0.4,0-0.4,0-0.4-0.4c0-0.4,0-0.4,0-0.4h-0.4c-0.4,0-0.9,0-1.3-0.4
		c-0.4-0.4-0.4-0.4-0.4-0.9l1.3-1.7C-102.9,50.6-102.4,51.4-102.4,51.9z M-103.3-25.8L-103.3-25.8v-0.9V-25.8L-103.3-25.8z
		 M-103.3-24.1L-103.3-24.1v-0.9V-24.1L-103.3-24.1z M-102,45.4l1.3-0.4l-1.3-0.4V45.4L-102,45.4z M-101.6-20.7L-101.6-20.7v-0.9
		V-20.7L-101.6-20.7z M-100.3,48.4v0.4h-0.9L-100.3,48.4C-100.7,48-100.3,48.4-100.3,48.4z M-100.7-25.8L-100.7-25.8v-0.9V-25.8
		L-100.7-25.8z M-100.7-21.1L-100.7-21.1v-0.4V-21.1L-100.7-21.1z M-100.3,11.5v-0.4h-0.4v0.4H-100.3z M-99.9-18.9L-99.9-18.9v-0.9
		l0,0l0,0l0,0l-0.4-0.4l-0.4,0.4L-99.9-18.9z M-100.3,51L-100.3,51L-100.3,51L-100.3,51L-100.3,51z M-99-23.2l-0.9-1.3l-0.4,0.9
		l0.9,0.9L-99-23.2z M-100.3-19.4C-100.3-19.4-99.9-19.4-100.3-19.4C-99.9-19.4-99.9-19.4-100.3-19.4
		C-99.9-19.4-100.3-19.4-100.3-19.4z M-99,18.4L-99,18.4v-0.9V18.4L-99,18.4z M-97.7,46.3c0.4,0,1.3,0,1.7,0h0.4l0.9-0.4
		c0-0.4-0.9-0.9-1.7-1.3c-0.9,0-1.7-0.4-2.1-0.4l-0.4,0.4C-98.6,45.4-98.2,45.9-97.7,46.3z M-97.3,42.4h-1.3l0.4,0.9L-97.3,42.4z
		 M-98.2,4.2L-98.2,4.2V3.4V4.2L-98.2,4.2z M-96.9,50.2l1.3-1.7l-0.9,0.9l-1.3-0.4l0,0L-96.9,50.2L-96.9,50.2z M-96.9,47.6
		L-96.9,47.6L-96.9,47.6L-96.9,47.6L-96.9,47.6z M-96.4,15.8c0.9,0,1.3-0.4,1.3-1.7C-96,14.5-96.4,15-96.4,15.8z M-95.1,43.3H-96
		v0.9L-95.1,43.3z M-95.1-19.8l0.4-0.4l-0.4-0.4l-0.4,0.4L-95.1-19.8z M-94.7,52.7L-94.7,52.7v-0.9l-0.4-0.4l-0.4,0.4
		C-95.6,52.3-95.1,52.3-94.7,52.7z M-95.1,52.3c0,0,0-0.4,0.4-0.4L-95.1,52.3z M-93.4,41.6h-0.9v1.3C-93.9,42.9-93.4,42.4-93.4,41.6
		z M-93.9,47.2l0.9-0.9l-1.3,0.4L-93.9,47.2L-93.9,47.2z M-93.4,50.2c0.4,0.4,0.9,0.4,1.3,0.4V51l0.4,1.3l0.4-0.4v-0.4l-0.4-0.4
		h-0.4c0-0.4-0.4-0.9-0.9-1.3c-0.4-0.4-0.9-0.4-1.3-0.9C-94.3,49.3-93.9,49.7-93.4,50.2z M-93.9,44.6L-93.9,44.6v-0.9V44.6
		L-93.9,44.6z M-93-2.2v-0.4h-0.9C-93.9-2.6-93.4-2.2-93-2.2z M-93.4-21.1l0.4-0.4l-0.4-0.4l-0.4,0.4L-93.4-21.1z M-93.4-23.7
		L-93.4-23.7h0.9H-93.4L-93.4-23.7z M-92.6-1.3L-92.6-1.3l0.4,1.3C-92.1-0.9-92.1-1.3-92.6-1.3z M-92.6,18.8
		C-92.6,18.8-92.1,18.4-92.6,18.8c0.4-0.4,0.4-0.9,0.4-0.9C-92.6,18-92.6,18.4-92.6,18.8z M-92.1,44.6
		C-92.1,44.6-92.6,44.6-92.1,44.6L-92.1,44.6V45C-92.1,45-92.1,45-92.1,44.6z M-91.7,48l-0.9-0.4V48H-91.7z M-91.7-19.4L-91.7-19.4
		L-91.7-19.4L-91.7-19.4L-91.7-19.4z M-90.9,42.9c0.4,0,0.4-0.4,0.9-0.9l-0.9-0.4l-0.9,1.7C-91.7,43.3-91.3,42.9-90.9,42.9z
		 M-91.3-17.6c0,0.4-0.4,0.9-0.4,1.3c0.4,0,0.9,0,1.3-0.4l0.4-1.3h-0.4C-90.9-18.1-91.3-17.6-91.3-17.6z M-91.3-7.3L-91.3-7.3
		L-91.3-7.3L-91.3-7.3z M-91.3,39L-91.3,39v-0.9V39L-91.3,39z M-90.4-13.4L-90.4-13.4h-0.4H-90.4z M-90.4,47.6l0.9-0.4l-0.9-0.4
		V47.6L-90.4,47.6z M-90.4-6.5L-90.4-6.5h0.4H-90.4L-90.4-6.5z M-90.4,27.8V27h-0.4L-90.4,27.8L-90.4,27.8z M-89.1-1.8L-90-2.2v1.3
		L-89.1-1.8z M-89.6,44.6c0-0.4-0.4-0.9-0.9-0.9v0.9H-89.6z M-90,50.2L-90,50.2L-90,50.2L-90,50.2z M-89.1-19.4c0.4,0,0.9,0,1.3,0
		c0.4,0,0.9,0,1.3,0c0.4,0,0.9-0.4,0.9-0.9v-0.4c-0.9,0.4-1.7,0.4-2.1,0.9l-2.1-0.9C-90-20.2-89.6-19.8-89.1-19.4z M-89.1,29.6v-0.9
		l-0.9,0.9H-89.1z M-89.1-21.9L-89.1-21.9v-1.3V-21.9L-89.1-21.9z M-89.1-5.2L-89.1-5.2v-0.9V-5.2L-89.1-5.2z M-89.1,45.9
		L-89.1,45.9V45V45.9L-89.1,45.9z M-88.7,33.4c-0.4,0.4-0.4,0.9-0.4,1.7c0.9,0,1.3-0.4,1.7-0.9c0.4-0.4,0.4-0.9,0.4-1.7
		C-87.9,33-88.3,33-88.7,33.4z M-88.3-12.1L-88.3-12.1l-0.9-0.4v0.4H-88.3z M-88.3,26.1h-0.9l0.9,0.9V26.1z M-88.7,50.2L-88.7,50.2
		v-0.9V50.2L-88.7,50.2z M-88.7-16.4L-88.7-16.4L-88.7-16.4L-88.7-16.4L-88.7-16.4z M-87.9,41.1l-0.4-0.9l-0.4,0.9H-87.9z
		 M-88.7,45.4L-88.7,45.4L-88.7,45.4L-88.7,45.4L-88.7,45.4z M-88.7,47.6L-88.7,47.6L-88.7,47.6L-88.7,47.6L-88.7,47.6z M-88.7-4.8
		L-88.7-4.8L-88.7-4.8L-88.7-4.8z M-87.9,21v-0.4h-0.4V21H-87.9z M-88.3,24l0.9-1.3C-88.3,22.7-88.3,23.1-88.3,24z M-87.9,44.2
		c0,0.4,0.4,0.4,0.9,0.4l0,0l-0.9-1.3C-87.9,43.3-87.9,43.7-87.9,44.2z M-87.4-1.8v-0.4h-0.4L-87.4-1.8L-87.4-1.8z M-87.4-24.1
		l0.4,1.3l-0.4-2.1V-24.1L-87.4-24.1z M-87.4,42.4L-87.4,42.4v-0.9V42.4L-87.4,42.4z M-87.4,30L-87.4,30L-87.4,30L-87.4,30L-87.4,30
		z M-86.6-9.5l-0.9-0.4v0.4H-86.6z M-86.6-5.6L-86.6-5.6l-0.9-0.4v0.4H-86.6z M-86.1,25.3c0-0.4-0.4-0.9-0.9-0.9v0.9H-86.1z
		 M-86.6,35.1v-0.9l-0.4,0.4L-86.6,35.1z M-85.7-17.6L-85.7-17.6L-85.7-17.6L-85.7-17.6L-85.7-17.6z M-85.3,27.4
		c0-0.4-0.4-0.4-0.4-0.9l-0.4,0.9l1.3,0.9C-85.3,27.8-85.3,27.4-85.3,27.4z M-85.7,41.6c0,0.4,0.4,0.4,0.4,0.9l-0.4-2.1l-0.4,0.4
		C-85.7,41.1-85.7,41.1-85.7,41.6z M-85.3,42.9l-0.4,0.4L-85.3,42.9L-85.3,42.9L-85.3,42.9z M-84.8,47.6h-0.9V48L-84.8,47.6z
		 M-85.7-8.2l0.4,0.4v-0.9C-85.3-8.6-85.3-8.6-85.7-8.2z M-84,36l0.4-0.4l-1.7-0.9C-85.3,35.6-84.8,36-84,36z M-84.8-9.9v-0.9V-9.9
		L-84.8-9.9z M-84,32.1l1.7-1.3l-0.9-0.9L-84,32.1L-84,32.1z M-83.6-18.1v-0.9l-0.4,0.4L-83.6-18.1z M-83.6-11.2v-1.3l-0.4,0.4
		L-83.6-11.2z M-83.6-4.3v-0.9L-84-4.8L-83.6-4.3z M-84,23.6L-84,23.6v-0.4V23.6L-84,23.6z M-84,29.1L-84,29.1L-84,29.1
		C-84,28.7-84,28.7-84,29.1z M-83.6,27.4L-83.6,27.4L-83.6,27.4L-83.6,27.4z M-83.6,33L-83.6,33v-0.9V33L-83.6,33z M-83.1-7.8
		L-83.1-7.8C-83.1-7.3-83.1-7.3-83.1-7.8L-83.1-7.8L-83.1-7.8L-83.1-7.8z M-83.1,33L-83.1,33h0.9H-83.1L-83.1,33z M-82.3,42
		L-82.3,42l-0.9-0.4V42H-82.3z M-81,41.6v-0.9l-0.4,0.4L-81,41.6z M-80.1,35.6L-80.1,35.6L-80.1,35.6L-80.1,35.6L-80.1,35.6z
		 M-80.1,33.4L-80.1,33.4v-0.9V33.4L-80.1,33.4z"/>
	<path fill="#FFFFFF" d="M-53.1-8.2c2.6-6,6-11.2,10.3-15.5c4.3-4.7,9.9-8.2,15.5-10.7c6-2.6,12.4-3.9,19.3-3.9S5.3-37,11.3-34.4
		s11.2,6,15.9,10.7c4.3,4.7,8.2,9.9,10.7,15.9s3.9,12.4,3.9,19.3s-1.3,12.9-3.9,18.9s-6.4,11.2-10.7,15.9C22.4,51,17.3,54.5,11.3,57
		c-6,2.6-12.4,3.9-18.9,3.9c-6.9,0-13.3-1.3-19.3-3.9c-6-2.6-11.2-6-15.5-10.7c-4.3-4.3-8.2-9.9-10.7-15.9c-2.6-6-3.9-12.4-3.9-19.3
		S-55.7-1.8-53.1-8.2z M-50.9,12.8V12h-0.4C-51.4,12.4-51.4,12.8-50.9,12.8z M-50.1,9c0-0.4,0-0.9-0.4-0.9V9H-50.1z M-50.1,17.5
		L-50.1,17.5c0.4,0.4,0.9,0,0.9,0c0-0.4,0.4-0.9,0.4-0.9C-49.7,16.7-50.1,17.1-50.1,17.5z M-48.8,6.8c0,0,0-0.4-0.4-0.4L-49.7,6l0,0
		L-48.8,6.8L-48.8,6.8z M-48.8,0.4L-48.8,0.4v-1.3V0.4L-48.8,0.4z M-48.8,23.1L-48.8,23.1v-0.9V23.1L-48.8,23.1z M-47.9,15v-0.4
		h-0.9C-48.4,14.5-48.4,15-47.9,15z M-47.9,1.2l-0.4,3.9h0.4V1.2z M-48.4,20.5L-48.4,20.5l0.4-0.4l0,0L-48.4,20.5z M-47.9,9.8V9
		C-47.9,9.4-47.9,9.4-47.9,9.8z M-47.5,27c-0.4,0-0.4,0.4-0.4,0.9C-47.5,27.8-47.1,27.8-47.5,27l0.9-0.4C-46.6,26.6-47.1,27-47.5,27
		z M-47.5-1.3L-47.5-1.3v-0.9V-1.3L-47.5-1.3z M-47.5,1.2L-47.5,1.2V0.4V1.2L-47.5,1.2z M-45.8-3.5c0-0.4,0.4-0.4,0.9-0.4h0.9
		c0.4,0,0.4-0.4,0.4-0.9l-2.1-1.3l-1.3,0.9l1.7,3C-45.8-2.6-45.8-3.1-45.8-3.5z M-46.2,18.8c0-0.4,0-0.9-0.4-0.9v0.9H-46.2z
		 M-45.4,4.7l-0.9-0.9v0.4l0.4,0.9L-45.4,4.7z M-45.8-0.9L-45.8-0.9L-45.8-0.9L-45.8-0.9z M-45.8-9.1L-45.8-9.1L-45.8-9.1L-45.8-9.1
		L-45.8-9.1z M-43.2,10.7l1.3-2.1c-0.9-0.4-1.7-0.9-2.1-1.3c-0.4,0-0.9,0.4-0.9,0.9c0,0.4-0.4,0.9-0.4,1.3h1.3l1.3,0.9L-43.2,10.7
		L-43.2,10.7z M-44.9,15l-0.4,0.4L-44.9,15L-44.9,15L-44.9,15z M-44.1-13.4h-0.9H-44.1L-44.1-13.4z M-44.5,0.8L-44.5,0.8L-44.5,0.8
		L-44.5,0.8L-44.5,0.8z M-44.5,25.7L-44.5,25.7v-0.9V25.7L-44.5,25.7z M-42.8-7.8c0.4,0,1.3,0,1.7,0.4c0-0.4-0.4-0.9-0.9-1.3
		c-0.4,0-0.9,0-1.3,0l-1.7,0.9C-44.1-7.8-43.2-7.8-42.8-7.8z M-44.1,20.5L-44.1,20.5h0.4H-44.1L-44.1,20.5z M-43.6,19.3L-43.6,19.3
		v-0.9V19.3L-43.6,19.3z M-42.4-10.8l-0.4-0.4l-0.9,1.3L-42.4-10.8z M-43.2,13.3c0.4,0,0.9,0,1.3,0c0.4,0,0.4-0.4,0.4-0.9
		C-42.4,12.4-42.8,12.8-43.2,13.3z M-42.8,22.7L-42.8,22.7l-0.4,0.4L-42.8,22.7z M-42.8-1.8L-42.8-1.8v-0.9V-1.8L-42.8-1.8z
		 M-42.8,32.6c0,0.4,0,0.9,0,1.3v0.4c0.4,0,0.9-0.4,0.9-0.9c0-0.4,0.4-0.9,0.4-1.3C-41.9,32.1-42.4,32.1-42.8,32.6z M-42.4,16.7
		L-42.4,16.7v-0.9V16.7L-42.4,16.7z M-41.5-0.5c0.4,0,0.9,0.4,1.3,0.4l-2.1-1.7C-41.9-1.3-41.9-0.9-41.5-0.5z M-41.9,4.7L-41.9,4.7
		l1.7,1.7L-41.9,4.7z M-41.9,30L-41.9,30v-0.9V30L-41.9,30z M-41.9,38.1l0.9-0.9l0,0L-41.9,38.1L-41.9,38.1z M-39.8,19.3l-0.9-1.3
		l-1.3,1.3H-39.8z M-41.1-18.5L-41.1-18.5v-1.3V-18.5L-41.1-18.5z M-41.1,22.7L-41.1,22.7v-0.9V22.7L-41.1,22.7z M-41.1-11.6
		L-41.1-11.6v-0.9V-11.6L-41.1-11.6z M-39.8-14.6c0.4,0.4,0.9,0.4,1.3,0.4c0-0.4-0.4-0.9-0.9-1.3c-0.4-0.4-0.9-0.4-1.7-0.4
		C-40.6-15.1-40.2-14.6-39.8-14.6z M-39.4-9.1l-0.9-1.3l-1.3,0.4L-39.4-9.1L-39.4-9.1z M-40.6,27.4L-40.6,27.4v0.4V27.4L-40.6,27.4
		L-40.6,27.4z M-39.8,34.3v-0.9h-0.9v0.9H-39.8z M-40.2,25.7c0,0.4,0,0.4,0.4,0.4l0.4,2.1l-0.4-3.4C-40.2,25.3-40.2,25.7-40.2,25.7z
		 M-39.8-0.5l0.4-1.7l-0.4,0.9V-0.5L-39.8-0.5z M-39.4,22.3L-39.4,22.3v-0.9V22.3L-39.4,22.3z M-37.2-7.3h-1.7v0.9
		C-38.1-6.9-37.6-6.9-37.2-7.3z M-38.1-19.8L-38.1-19.8v-0.9V-19.8L-38.1-19.8z M-38.1-17.2l0.9-0.9h-0.4L-38.1-17.2z M-37.2,41.1
		v-0.9h-0.9v0.9H-37.2z M-37.2-3.5l0.4-0.4l-0.4-0.4l-0.4,0.4L-37.2-3.5z M-36.8-21.5L-36.8-21.5v-0.9V-21.5L-36.8-21.5z M-36.8-7.8
		c0.4,0.4,0.9,0.4,1.3,0.4c0-1.3-0.4-1.7-1.7-1.7C-37.2-8.6-36.8-8.2-36.8-7.8z M-36.8-13.8C-36.8-13.4-36.8-13.4-36.8-13.8h0.9
		C-35.9-13.8-36.3-13.8-36.8-13.8v-0.4C-36.8-13.8-36.8-13.8-36.8-13.8z M-36.8,34.7L-36.8,34.7L-36.8,34.7L-36.8,34.7L-36.8,34.7z
		 M-35.1,40.3c-0.4,0.4-0.4,0.9-0.4,1.3c0.4,0,0.9-0.4,1.3-0.9c0.4-0.4,0.4-0.9,0.4-1.3C-34.2,39.4-34.6,39.4-35.1,40.3z
		 M-35.5-18.9L-35.5-18.9L-35.5-18.9L-35.5-18.9L-35.5-18.9z M-34.6,31.3L-34.6,31.3v-0.4V31.3L-34.6,31.3z M-32.1,21.4
		c1.3,3.4,3.4,6,5.6,8.6c2.6,2.6,5.2,4.3,8.2,5.6c3,1.3,6.4,2.1,10.3,2.1s7.3-0.9,10.3-2.1c3.4-1.3,6-3.4,8.6-5.6
		c2.6-2.6,4.3-5.2,5.6-8.6s2.1-6.9,2.1-10.3c0-3.9-0.9-7.3-2.1-10.3c-1.3-3.4-3.4-6-5.6-8.6c-2.6-2.6-5.2-4.3-8.6-5.6
		c-3-1.3-6.4-2.1-10.3-2.1s-6.9,0.9-10.3,2.1c-3,1.3-6,3.4-8.6,5.6c-2.6,2.6-4.3,5.2-5.6,8.6c-0.9,3.4-1.7,6.9-1.7,10.3
		C-34.2,15-33.3,18.4-32.1,21.4z M-33.8-20.7L-33.8-20.7v-0.9V-20.7L-33.8-20.7z M-31.6-15.1l-0.9-2.1l-1.7,1.7L-31.6-15.1z
		 M-32.9-25.8c0,0.4,0,0.9,0,1.3s0,0.9,0,1.3V-25.8L-32.9-25.8L-32.9-25.8z M-32.9-13.8L-32.9-13.8L-32.9-13.8
		C-32.9-14.2-32.9-14.2-32.9-13.8z M-32.9,42L-32.9,42L-32.9,42L-32.9,42L-32.9,42z M-31.6,34.3l0.4-0.4l-0.4-0.4l-0.4,0.4
		L-31.6,34.3z M-32.1-21.1l0.4,2.1l0.9-3h-0.4L-32.1-21.1z M-31.6-18.5L-31.6-18.5v-0.9V-18.5L-31.6-18.5z M-30.8,36.4
		c0-0.4,0-0.4-0.4-0.4l0,0L-30.8,36.4L-30.8,36.4z M-30.8-16.8l2.1-0.4l-2.6-0.4v0.9H-30.8z M-30.8-15.5L-30.8-15.5h0.9H-30.8
		L-30.8-15.5z M-30.3,44.2c0-0.4-0.4-0.9-0.9-1.3v1.3H-30.3z M-30.3-13.4l3.4-0.4l-3.4-0.4l-0.4,0.4L-30.3-13.4z M-29.9-17.6v-0.9
		V-17.6L-29.9-17.6z M-28.2-16.4l-0.9-0.9l-0.9,0.9H-28.2z M-29.1,38.1C-29.1,38.1-29.1,37.7-29.1,38.1c-0.4-0.4-0.4-0.4-0.9-0.4
		v0.9L-29.1,38.1z M-29.5,45.4L-29.5,45.4L-29.5,45.4L-29.5,45.4z M-28.6,40.7c0.4,0,0.4-0.4,0.4-0.4l-0.4-0.4l-0.9,0.9
		C-29.5,41.1-29.1,41.1-28.6,40.7z M-29.1-18.9L-29.1-18.9v-1.3l-0.4,0.4L-29.1-18.9z M-29.1,43.3L-29.1,43.3L-29.1,43.3L-29.1,43.3
		L-29.1,43.3z M-29.1,48L-29.1,48L-29.1,48L-29.1,48L-29.1,48z M-28.2-13.4l0.4-0.4l-0.4-0.4l-0.4,0.4L-28.2-13.4z M-28.2,50.2
		l0.4-0.4l-0.4-0.4V50.2L-28.2,50.2z M-27.8-18.1c0.4,0,0.9-0.4,1.3-1.3c0-0.9,0.4-1.3,0.4-1.7h-2.1l0.9,1.3l-0.9,1.3L-27.8-18.1z
		 M-26.9-25.4v-1.3V-25.4L-26.9-25.4z M-24.8,41.6l-1.3-1.3l-1.3,2.6C-26.5,42.4-25.6,42-24.8,41.6z M-26.9-21.9L-26.9-21.9
		L-26.9-21.9L-26.9-21.9L-26.9-21.9z M-26.9,37.3L-26.9,37.3L-26.9,37.3L-26.9,37.3z M-26.9,39l0.4-0.4l-0.4-0.4V39L-26.9,39z
		 M-25.6,48c0.4,0,0.9-0.4,1.3-0.4h-2.6V48C-26.5,48-26,48-25.6,48z M-26-17.6L-26-17.6v-0.9l-0.4,0.4L-26-17.6z M-26,50.6L-26,50.6
		v-0.9l-0.4,0.4L-26,50.6z M-24.3,45.4l-1.3-0.4v0.4H-24.3z M-25.2-17.6L-25.2-17.6v-0.9V-17.6L-25.2-17.6z M-22.6-23.7
		c0.4-0.4,0.9-0.9,0.9-1.7l-2.1,1.7l-1.3-0.9v0.4l0.9,0.9C-23.9-22.8-23-23.2-22.6-23.7z M-23.9-25.8L-23.9-25.8L-23.9-25.8
		L-23.9-25.8z M-23.9-21.1L-23.9-21.1L-23.9-21.1L-23.9-21.1z M-23.5-18.9l-0.4-0.4l-0.4,0.9L-23.5-18.9z M-19.6,41.6l-4.7,0.9
		l0.4,0.4L-19.6,41.6z M-23.9,39.9l0.4-0.4l-0.4-0.9l-0.4,0.4L-23.9,39.9z M-23,50.6L-23,50.6v-0.9V50.6L-23,50.6z M-20.5,45.9
		c-0.4,0-1.3,0.4-1.7,0.9s-0.9,0.9-0.9,1.7l0.4,0.9L-20.5,45.9z M-22.2-27.9C-21.8-27.9-21.8-27.9-22.2-27.9c0.4,0,0.4-0.4,0.9-0.4
		L-22.2-27.9L-22.2-27.9z M-21.3,52.3L-21.3,52.3v-0.9V52.3L-21.3,52.3z M-20.5,47.6L-20.5,47.6l0.9,0.9L-20.5,47.6z M-20,52.7
		L-20,52.7v-0.9V52.7L-20,52.7z M-19.2-20.2L-19.2-20.2h-0.4H-19.2z M-19.2,45.9l-0.4-0.4v0.4H-19.2z M-19.2-23.2L-19.2-23.2v-0.9
		V-23.2L-19.2-23.2z M-18.3,51c0.4,0,0.9-0.4,0.9-0.4h-2.1V51C-18.8,51-18.8,51-18.3,51z M-18.3,48.9L-18.3,48.9L-18.3,48.9
		L-18.3,48.9L-18.3,48.9z M-17.9,44.6L-17.9,44.6L-17.9,44.6L-17.9,44.6z M-17.5,54.9L-17.5,54.9l0.4-0.4L-17.5,54.9L-17.5,54.9z
		 M-17-21.1L-17-21.1L-17-21.1L-17-21.1z M-17-27.1L-17-27.1v-1.3V-27.1L-17-27.1z M-16.6-31.4H-17v0.4L-16.6-31.4z M-17-24.1
		L-17-24.1h0.4H-17L-17-24.1z M-15.7,54L-15.7,54v-0.9V54L-15.7,54z M-15.3,45.4l-0.4-0.4v0.4H-15.3z M-10.6,46.3l-4.3-0.9l-0.4,0.4
		L-10.6,46.3z M-14.5,49.7c0,0.4,0,0.9,0,1.3h0.4l0.4-1.7l-1.3-0.9C-14.5,48.9-14.5,49.3-14.5,49.7z M-14,43.7
		c0,0.4-0.4,0.4-0.4,0.9h1.3v-1.3C-13.6,43.3-14,43.3-14,43.7z M-13.6-27.9l0.9-0.4l-0.4-0.9l-0.4,1.7l0.9,1.7L-13.6-27.9z
		 M-13.2-31.8L-13.2-31.8v-1.3V-31.8L-13.2-31.8z M-13.2-29.7L-13.2-29.7v-0.9V-29.7L-13.2-29.7z M-11.5-24.1L-11.5-24.1L-11.5-24.1
		L-11.5-24.1z M-11.5,47.2L-11.5,47.2h0.4H-11.5L-11.5,47.2z M-10.6-26.2l-0.4-0.9v0.4l0.4,0.9V-26.2z M-9.7,43.7h-1.7l0.9,1.3
		L-9.7,43.7z M-9.7-28.8h-0.9l0.4,0.9L-9.7-28.8z M-10.2-31.8L-10.2-31.8v-1.3V-31.8L-10.2-31.8z M-10.2-30.1L-10.2-30.1v-0.4V-30.1
		L-10.2-30.1z M-9.3,46.3v-0.9h-0.9v0.9H-9.3z M-8.5,52.7c0.4,0.4,0.4,0.4,0.9,0.9l0.4,0.9c0,0.4,0.4,0.4,0.9,0.4h0.4l-0.9-1.3
		l0.4-0.9L-8,51.9l-2.1,0.9C-9.3,52.7-8.9,52.7-8.5,52.7z M-9.3-31L-9.3-31v-0.9V-31L-9.3-31z M-5.9,48c0.4-0.9,0.9-1.7,1.3-2.6h0.9
		l-0.4-0.9l1.7-2.1c-0.9,0-1.3,0.4-2.1,0.9c-0.4,0.4-0.9,1.3-1.3,2.1c-0.4,0.9-0.9,1.7-1.3,2.1c-0.4,0.9-0.9,1.3-1.7,1.7l0.9,0.4
		C-7.2,49.7-6.7,49.3-5.9,48z M-8.5,56.6L-8.5,56.6v-0.9V56.6L-8.5,56.6z M-8.5,44.6L-8.5,44.6L-8.5,44.6L-8.5,44.6L-8.5,44.6z
		 M-7.6-22.8L-7.6-22.8v-0.9V-22.8L-7.6-22.8z M-7.6,43.7L-7.6,43.7v-0.9V43.7L-7.6,43.7z M-5-28.8l-1.7-1.3v0.4l0.9,1.3L-5-28.8z
		 M-5,51.9V51h-0.4L-5,51.9L-5,51.9z M-5,53.6L-5,53.6L-5,53.6L-5,53.6z M-3.7,49.7c0,0.4,0.4,0.4,0.9,0.4h0.4l-1.7-1.3
		C-4.2,48.9-4.2,49.3-3.7,49.7z M-3.3,55.3L-3.3,55.3v-0.9V55.3L-3.3,55.3z M-2.9,54L-2.9,54v-0.9V54L-2.9,54z M-2,53.2L-2,53.2
		v-0.9V53.2L-2,53.2z M-2,44.6L-2,44.6L-2,44.6L-2,44.6L-2,44.6L-2,44.6z M-0.7-30.5h-0.4v0.9C-0.7-29.7-0.7-30.1-0.7-30.5z
		 M1.8,50.2l-1.7-1.3l-0.9,1.3l0.9-0.4l1.3,0.9L1.8,50.2z M2.3,52.7L2.3,52.7L0.6,54L2.3,52.7z M1.8,45v-1.3H1.4
		C1.4,44.6,1.8,45,1.8,45z M2.7,47.6L2.7,47.6l0.4,0.9L2.7,47.6z M3.1,51.9c0.4,0,1.3-0.4,1.3-0.9c0.4-0.4,0.4-0.9,0.4-1.7
		c0-0.4,0-0.9-0.4-1.3C3.6,49.3,3.1,50.6,3.1,51.9z M5.3-30.5H4.4l0.9,0.9V-30.5z M4.9-22.4L4.9-22.4v0.4V-22.4z M4.9,46.3v-0.9
		V46.3L4.9,46.3z M4.4,52.7L4.4,52.7L4.4,52.7L4.4,52.7L4.4,52.7z M4.9-23.2L4.9-23.2v-0.9V-23.2L4.9-23.2z M7.9,42
		c-0.4,0-0.4,0.4-0.9,0.4s-0.9,0.4-0.9,0.4c-0.4,0-0.4,0.4-0.4,0.9c1.7,0,3-0.4,3.9-0.9l-0.9-1.7C8.3,41.6,8.3,42,7.9,42z M6.6-21.5
		H5.7v0.9C6.1-20.7,6.6-21.1,6.6-21.5z M6.1,50.6L6.1,50.6v-0.9V50.6L6.1,50.6z M7,45.4L7.9,45L7,45.4L7,45.4z M7.4,48.9L7,48
		l-0.4,0.4L7.4,48.9z M7.4-25.4L7.4-25.4L7.4-25.4L7.4-25.4L7.4-25.4z M7.4-17.2L7.4-17.2L7.4-17.2L7.4-17.2L7.4-17.2z M7.4,52.7
		L7.4,52.7v-0.9V52.7L7.4,52.7z M8.7-24.1l-0.4-0.4l-0.9,1.7C8.3-22.8,8.7-23.2,8.7-24.1z M8.3-28.4v-0.9H7.9L8.3-28.4L8.3-28.4z
		 M8.7-21.1l-0.4-0.4L8.7-21.1L8.7-21.1z M8.3-15.9L8.3-15.9v-0.9V-15.9L8.3-15.9z M9.1,51c0.4,0,0.4,0,0.4-0.4H8.3V51
		C8.7,51,8.7,51,9.1,51z M8.7-27.1L8.7-27.1h0.4H8.7L8.7-27.1z M11.3-17.6l1.3-1.3l-1.3-1.7l-0.9,0.4l0.4,0.9l-2.1,0.9l1.3,0.9
		C10-17.6,11.3-17.6,11.3-17.6z M9.6,40.3c0.4,0.4,0.9,0.4,1.7,0.4V39l-2.6-0.4V39C8.7,39.4,9.1,40.3,9.6,40.3z M9.6,45.9
		c0,1.3-0.4,1.7-0.4,2.6c0.4-0.9,1.3-1.7,1.7-2.1c0.4-0.4,1.3-1.3,2.1-1.7c-0.9,0-1.7-0.4-2.1-0.4C10.4,44.2,10,44.6,9.6,45.9z
		 M11.3-21.9L10-23.7l0,0L11.3-21.9L11.3-21.9z M10.4,41.6L10.4,41.6v-0.9V41.6L10.4,41.6z M11.3,48.4l1.3-1.3l-0.4-0.9
		C11.7,46.7,11.3,47.6,11.3,48.4z M13,42.9l-0.9-1.7h-0.9l0.9,2.1L13,42.9z M14.3-22.8l-1.7-2.6l-0.4,0.4l1.3,3L14.3-22.8z
		 M13.9,38.1l1.7,0.4l0.9-0.4v-0.4l-3.9-1.3l-0.4,0.4l0.9,1.7L13.9,38.1z M12.1,49.7L12.1,49.7l2.6-0.9L13.4,48
		C13,48.4,12.1,48.9,12.1,49.7z M13,45.4L13,45.4L13,45.4L13,45.4L13,45.4z M13.9-15.9L13.9-15.9v-0.9V-15.9L13.9-15.9z M15.2-21.1
		l-1.3,0.9l2.1,1.3L15.2-21.1z M15.2-24.1v-0.9l-0.4,0.4L15.2-24.1z M15.2,45v-0.9l-0.4,0.4L15.2,45z M15.6,46.7
		c0-0.4,0-0.9-0.4-1.3v1.3H15.6z M18.6,41.6l-1.3-0.9c0-0.4,0-0.9,0.4-0.9s0.9-0.4,0.9-0.9c0.4-0.4,0.9-0.4,0.9-0.9
		c0.4-0.4,0.4-0.9,0.4-1.3l-1.7,0.4l-0.9-0.9l-2.6,3.9l2.6,2.1L18.6,41.6z M16.9-22.4H16l0.9,0.4V-22.4z M16.4-16.4v-0.4h-0.9v0.4
		H16.4z M17.3,36l-0.9-0.4L16,36H17.3z M16.9,49.3l0.4-0.4l-0.4-0.4V49.3L16.9,49.3z M17.7-13.4l-1.3-0.9v0.9H17.7z M19,34.3
		l0.4,0.4l1.3-0.9l-1.3-1.3l-2.6,1.7l0.9,0.4L19,34.3z M18.6-19.8h-1.3l0.4,0.9L18.6-19.8z M17.7-15.1v-0.9V-15.1L17.7-15.1z
		 M18.6,36.4L18.6,36.4v-0.9L18.2,36L18.6,36.4z M18.6-23.2L18.6-23.2L18.6-23.2L18.6-23.2L18.6-23.2z M20.7-15.5
		c-0.4-0.9-1.3-1.7-2.1-1.7l1.3,2.1L20.7-15.5z M19,44.2l-0.4-1.3L19,44.2L19,44.2z M19,32.1L19,32.1L19,32.1L19,32.1L19,32.1z
		 M19,40.3c0,0,0.4-0.4,0.4-0.9C19.4,39.9,19,39.9,19,40.3z M20.7-6.1L20.7-6.1L20.7-6.1L20.7-6.1z M22,24.4L22,24.4l-1.3,1.3
		C21.6,25.7,22,25.3,22,24.4z M24.2,30.4l0.4-0.9l-0.4-0.9v-0.4h1.7L24.6,27c-0.9,0-1.7,0-3,0.4c-1.3,0.4-1.7,1.3-1.7,2.1l2.6,1.3
		C23.7,30.8,24.2,30.4,24.2,30.4z M21.6,36.9l0.4-1.3L21.6,36.9L21.6,36.9z M22-4.8L22-4.8L22-4.8L22-4.8L22-4.8z M22.9,35.6
		c0,0.4,0.4,0.9,0.9,0.9c0.4,0,0.9,0.4,1.3,0.4l-0.9-2.1l0.9-0.9c-0.4-0.4-0.9-0.9-1.3-1.3c-0.4-0.4-0.9-0.9-1.7-0.9l1.7,1.3
		C23.3,33.9,22.9,34.7,22.9,35.6z M22,38.6L22,38.6v-0.9V38.6L22,38.6z M23.3,39.9c-0.4-0.4-0.9-0.4-1.3-0.9v0.9H23.3z M22.9-8.6
		L22.9-8.6l-0.4-0.4v0.4H22.9z M22.4,29.6h0.9H22.4L22.4,29.6z M23.3,42.4h-0.9v0.4L23.3,42.4z M22.9-1.8L22.9-1.8v-0.9V-1.8
		L22.9-1.8z M26.7-7.3c-0.4,0.4-0.9,0.9-1.3,1.3c-0.4,0.4-0.9,0.9-1.3,1.3c-0.4,0.4-0.4,0.9-0.4,1.3c0.4,0,0.9,0,1.3-0.4
		c0.4-0.4,0.4-0.9,0.9-1.3c0.4-0.4,0.4-0.9,0.4-1.3c0-0.4,0.4-0.4,0.9-0.4c0,0,0.4,0,0.9,0.4c0.4,0,0.9,0.4,0.9,0.4
		c0-0.9,0-1.3-0.4-1.7c-0.4-0.4-0.9-0.9-0.9-1.7l0.4-0.9c-0.4-1.3-1.3-1.7-2.1-1.7s-1.7,0.4-2.1,1.7s-0.9,2.1-0.9,3
		c0.4,0,1.3,0,1.3-0.4c0.4-0.4,0.4-0.9,0.4-1.3l0.4-1.3c0-0.4,0.4-0.9,0.9-0.9c0.4,0.4,0.9,0.9,0.9,1.3c0,0.4,0.4,0.9,0.4,1.7l0,0
		C27.6-8.2,27.2-7.8,26.7-7.3z M23.7-18.9c-0.4,0-0.4,0-0.4,0.4h1.3v-0.4C24.6-18.9,24.2-18.9,23.7-18.9z M23.7-6.1
		c0-0.4-0.4-0.4-0.4-0.9v0.9H23.7z M23.7,14.1L23.7,14.1v-1.3V14.1L23.7,14.1z M24.2,31.7L24.2,31.7v-0.9V31.7L24.2,31.7z
		 M24.6,41.1c0.4,0,0.9,0.4,0.9,0.4c0-0.4,0-0.9-0.4-0.9s-0.9,0-1.3,0C24.2,40.7,24.2,40.7,24.6,41.1z M24.2-2.2H25v-0.4
		C24.6-2.6,24.2-2.6,24.2-2.2z M24.6,2.5L24.6,2.5L24.6,2.5L24.6,2.5L24.6,2.5z M24.6,18.4L24.6,18.4v-0.9V18.4L24.6,18.4z M24.6,39
		L24.6,39v-0.9V39L24.6,39z M24.6-15.5L24.6-15.5L24.6-15.5L24.6-15.5L24.6-15.5z M25,19.7c0,0.4,0,0.9,0.4,1.3
		c0.9,0,1.3-0.4,1.7-1.7c0.4-1.3,0.4-2.1,0.4-2.6l1.3,0.4l0.4-1.3L28,15h-1.7l-0.4,0.9c0,0.4,0,0.9,0,1.7c0,0.4,0,0.9,0,1.7
		l-1.3-0.4C25,18.8,25,19.3,25,19.7z M25.5-14.2L25.5-14.2v-0.9V-14.2L25.5-14.2z M25.5,30.4c0.4,0,0.4,0,0.9-0.4l0.4-0.9
		C25.9,29.6,25.5,30,25.5,30.4z M26.3,1.7V1.2V1.7L26.3,1.7z M28.5,9.8l-1.7-1.7v2.1l0.9,1.3L28.5,9.8z M26.3,39.9l0.4-1.3V39
		C26.7,39.4,26.3,39.9,26.3,39.9z M27.2,3.8L27.2,3.8V3V3.8L27.2,3.8z M27.2,14.1L27.2,14.1v-1.3V14.1L27.2,14.1z M27.6-4.3
		l-0.9-1.3l0,0v1.7L27.6-4.3z M27.6,33.4L27.6,33.4L27.6,33.4L27.6,33.4z M27.6,12.8L27.6,12.8V12V12.8L27.6,12.8z M27.6,16.7
		L27.6,16.7v-0.9V16.7L27.6,16.7z M28.5,6.8c0.4,0,0.9,0.4,1.3,0.4l-0.4-0.9c0-0.9,0-1.3,0.4-2.1c0.4-0.9,0.4-1.7,0.4-2.6
		c0,0.9-0.4,1.3-0.9,2.1S28.5,5.1,28,6C27.6,6.4,28,6.4,28.5,6.8z M30.2,24c-0.4-0.4-0.9-0.9-0.9-1.7c0,0.4-0.4,0.9-0.4,1.3
		c-0.4,0.4-0.4,0.9-0.4,1.3l2.6,0.4C30.6,25.3,30.6,24.8,30.2,24z M28.9-1.8L28.9-1.8l-0.4,0.9L28.9-1.8z M30.6,10.7v0.4
		c0,0.4,0,0.4,0,0.4l0.4-0.4L30.6,10.7l0.9-0.9L30.2,9l-1.3,1.3l0.9,0.4L30.6,10.7z M29.3,29.6L29.3,29.6L29.3,29.6L29.3,29.6z
		 M29.3,35.6L28.9,36l0.4,0.9V35.6z M29.3-4.8l0.4,0.4l0.4-0.4l-0.4-0.4C29.7-5.2,29.7-5.2,29.3-4.8C29.3-5.2,29.3-5.2,29.3-4.8
		l0.4-0.4l-0.4-0.4l-0.4,0.4L29.3-4.8z M28.9,0.4L28.9,0.4h0.4H28.9L28.9,0.4L28.9,0.4z M29.3-4.8C29.3-4.8,29.3-5.2,29.3-4.8
		C29.3-5.2,29.3-5.2,29.3-4.8L29.3-4.8z M30.6-3.1c0.4,0,0.9-0.4,1.3-0.4L31-3.9l-1.3,1.3C29.7-2.6,30.2-3.1,30.6-3.1z M30.2,19.3
		c0.4,0.4,0.4,0.4,0.9,0.4c0-0.4,0-0.9-0.4-0.9s-0.9-0.4-0.9-0.4C29.7,18.8,30.2,18.8,30.2,19.3z M30.2-9.5c0.4,0,0.4,0,0.4-0.4l0,0
		L30.2-9.5L30.2-9.5z M30.6,29.1L30.6,29.1v-0.9V29.1L30.6,29.1z M31-7.8l-0.4,0.4L31-6.5V-7.8z M31.5-1.3v-0.4h-0.9
		C30.6-1.3,31-1.3,31.5-1.3z M30.6,7.2H31H30.6L30.6,7.2z M31,11.1L31,11.1h0.4H31L31,11.1z M31.9,14.5v-1.3H31
		C31,14.1,31.5,14.5,31.9,14.5z M31.5,22.3L31.5,22.3L31.5,22.3L31.5,22.3z M31.5-6.1L31.5-6.1v-0.4V-6.1L31.5-6.1z M31,17.5
		L31,17.5L31,17.5L31,17.5z M32.3,1.2C32.3,0.8,31.9,0.8,32.3,1.2h-0.9l0.9,0.4C32.3,1.2,32.3,1.2,32.3,1.2z M31.9,9l-0.4-0.9
		L31.9,9L31.9,9z M31.9,15L31.9,15L31.9,15L31.9,15L31.9,15z M31.9,20.1L31.9,20.1v0.4V20.1L31.9,20.1L31.9,20.1z M31.9,4.7
		L31.9,4.7V3.8V4.7L31.9,4.7z M32.7,25.7v-0.9h-0.9v0.9H32.7z M32.3,17.5L32.3,17.5v-0.9V17.5L32.3,17.5z M33.2-0.9h-0.9H33.2
		L33.2-0.9z M32.7,3.4L32.7,3.4L32.7,3.4L32.7,3.4z M34,10.2l-1.3-0.9v1.3L34,10.2z M32.7,16.3L32.7,16.3L32.7,16.3L32.7,16.3z
		 M33.2,18.4l-0.4,0.9l0.9,1.7L33.2,18.4z M34.5,6l-1.3-1.3v0.4L34,6.8L34.5,6z M34,12.8L33.2,12v1.7L34,12.8z M34,27L34,27v-0.9V27
		L34,27z M34,21.8L34,21.8L34,21.8L34,21.8z M34,15.8L34,15.8V15V15.8L34,15.8z M34.5,9L34.5,9L34.5,9L34.5,9z M35.8,20.5L35.8,20.5
		v-0.9V20.5L35.8,20.5z"/>
	<path fill="#FFFFFF" d="M107.9,36.9c2.1-0.4,3.9-1.3,5.2-2.6c1.7-0.9,3-2.1,3.9-3.9c0.9-1.7,1.7-3.4,1.7-5.6v-60.1l2.6-2.1h17.6
		l2.1,2.1V27c0,4.7-1.3,9.4-3.4,13.3c-2.6,3.9-5.6,7.7-9.4,10.3c-3.9,3-8.2,5.2-12.4,6.9c-4.7,1.7-9,2.6-13.7,2.6s-9.4-0.9-14.2-2.6
		c-4.7-1.7-9-4.3-12.4-7.3c-3.9-3-6.9-6.9-9-11.2s-3.4-9-3.4-14.2v-59.2c0-0.4,0.4-1.3,0.9-1.7s1.3-0.9,1.7-0.9H83l2.6,1.7v59.7
		c0,2.1,0.4,4.3,1.7,5.6c0.9,1.7,2.1,3,3.9,4.3c1.7,1.3,3.4,2.1,5.2,2.6s3.9,0.9,6,0.9C104,37.7,105.7,37.3,107.9,36.9z M67.9,20.1
		v-0.4V20.1L67.9,20.1z M68.4-6.1L68.4-6.1l0.4,0.4l0.4-0.4c0-0.4-0.4-0.4-0.9-0.9V-6.1L68.4-6.1z M68.4-6.1
		C68.4-6.5,68.4-6.5,68.4-6.1C68.8-6.5,68.8-6.5,68.4-6.1C68.4-6.5,68.4-6.5,68.4-6.1z M69.7-27.9v-1.7l-0.9,0.9L69.7-27.9z
		 M71.4-16.4l-1.7-0.9l-0.4,0.9H71.4z M69.7,13.3c0,0.4,0,0.9,0,1.3c0.4,0,0.9,0,0.9-0.4s0-0.9,0-1.3C70.1,12.8,70.1,12.8,69.7,13.3
		z M70.1,3.4L70.5,3l-0.4-0.4V3.4L70.1,3.4z M72.2,15.8c-0.4,0-0.9-0.4-0.9-0.4c-0.4,0-0.9,0-1.3,0l1.7,0.9L72.2,15.8z M72.2-30.1
		L71.4-31l-0.9,0.9H72.2z M70.5-25.8l0.4,0.9v-1.3l0,0L70.5-25.8z M70.9-18.9L70.9-18.9v-0.9V-18.9L70.9-18.9z M71.4-9.1l0.4-0.4
		l-0.4-0.4V-9.1L71.4-9.1z M72.7-18.9h-1.3l0.9,0.9L72.7-18.9z M72.2-4.8v-0.9h-0.9v0.9C71.4-4.8,72.2-4.8,72.2-4.8z M72.2,19.3
		v-0.9l-0.4,0.4L72.2,19.3z M72.2,38.1v-0.9l-0.4,0.4L72.2,38.1z M71.8-16.4l0.4,0.4L71.8-16.4L71.8-16.4L71.8-16.4z M72.2-14.6
		l0.9-1.3l0,0L72.2-14.6L72.2-14.6z M71.8-1.8L71.8-1.8L71.8-1.8L71.8-1.8L71.8-1.8z M72.2,1.2V0.8V1.2L72.2,1.2z M72.7-32.7
		L72.7-32.7L72.7-32.7L72.7-32.7z M72.7-27.5l0.4-0.4h-0.4l-0.9,0.9C72.2-27.1,72.7-27.5,72.7-27.5z M72.7,26.1L72.7,26.1h0.4H72.7
		L72.7,26.1L72.7,26.1z M75.7,33.9l-3-0.9v0.9H75.7z M74.4-9.1c0,0,0-0.4,0-0.9c0-0.4-0.4-0.4-0.4-0.4l-0.9,1.3H74.4z M74,16.3
		L74,16.3v-0.9V16.3L74,16.3z M74.4-25.8l0.4-0.4l-0.4-0.4V-25.8L74.4-25.8z M74.4,9.8l0.4-0.4L74.4,9V9.8L74.4,9.8z M74,12.4
		l1.7,0.4l-0.4-0.4l0.4-0.4L74,12.4z M75.2-15.9h-0.9l0.9,0.4V-15.9z M75.7,17.1v-1.3l-0.9,1.3H75.7z M74.8,37.7L74.8,37.7
		L74.8,37.7C74.8,37.3,74.8,37.3,74.8,37.7z M75.2-0.9c0,0.4,0,0.4,0,0.9l0,0c0.4,0,0.4,0,0.4-0.4s0-0.4,0.4-0.9
		C75.7-1.3,75.2-1.3,75.2-0.9z M75.2,28.7L75.2,28.7v-0.9V28.7L75.2,28.7z M75.7,8.1l0.4-0.4l-0.4-0.4V8.1L75.7,8.1z M75.7-23.7
		l0.4-0.9l-0.4-0.4v0.4V-23.7z M76.1-31l-0.9-0.4v0.4H76.1z M76.1-12.5v-0.9l-0.4,0.4L76.1-12.5z M78.2-27.9l-0.4-0.4l-1.3,1.3
		L78.2-27.9z M77-19.4v-0.4V-19.4L77-19.4z M78.2-15.1h-1.7l1.7,0.9V-15.1z M79.5,10.2l-1.3-0.4l-1.7,0.9
		C77.8,11.1,78.7,10.7,79.5,10.2z M77,33.9L77,33.9V33V33.9L77,33.9z M78.7-31.4c0-0.4,0-0.9-0.4-0.9s-0.9-0.4-1.3-0.4v1.3H78.7z
		 M78.2,37.3L77,36.9v0.4l0.9,0.9L78.2,37.3z M77.8-11.2l0.4-0.4l-0.4-0.4l-0.4,0.4L77.8-11.2z M77.8,45.4l0.4-0.4l-0.4-0.4L77.4,45
		L77.8,45.4z M77.8,6.8V6.4V6.8L77.8,6.8z M78.2-24.9c0-0.4-0.4-0.4-0.9-0.4v0.4H78.2z M78.2,13.3l0.4-0.4l-0.4-0.4V13.3L78.2,13.3z
		 M78.2,24l0.4-0.4l-0.4-0.4V24L78.2,24z M78.2,30.8L78.2,30.8V30v0.4V30.8z M79.1-23.2L79.1-23.2l-0.9-0.4v0.4H79.1z M79.1,28.7
		L79.1,28.7v-0.9l-0.4,0.4L79.1,28.7z M79.5,14.5L79.5,14.5L79.5,14.5L79.5,14.5z M79.5,5.5V4.7V5.5L79.5,5.5z M79.1,33L79.1,33
		L79.1,33L79.1,33C79.1,32.6,79.1,32.6,79.1,33z M79.5,39.9v-1.3h-0.4L79.5,39.9L79.5,39.9z M80.4,33.4L80.4,33.4v-0.9L80,33
		L80.4,33.4z M81.2,36.9c0,0.4-0.4,0.4-0.4,0.9l0.4,0.4l0.4-1.7C81.2,36.4,81.2,36.4,81.2,36.9z M82.1,39.9v-1.3L81.7,39L82.1,39.9z
		 M83,34.3L83,34.3L83,34.3L83,34.3z M83.8,45l0.4-0.4l-0.4-0.4V45L83.8,45z M84.7,47.2h-0.9v0.4L84.7,47.2z M85.5,42.9
		c-0.4,0-0.4,0.4-0.4,0.9l0,0c0.4,0,0.4,0,0.9-0.4c0.4,0,0.4-0.4,0.4-0.9C86,42.9,86,42.9,85.5,42.9z M85.1,40.3L85.1,40.3
		L85.1,40.3L85.1,40.3L85.1,40.3z M85.5,49.7L85.5,49.7v-0.9V49.7L85.5,49.7z M86.4,46.3L86,45v0.9L86.4,46.3z M86.4,39.9L86.4,39.9
		l0.9-0.4L86.4,39.9L86.4,39.9z M87.7,47.2L87.7,47.2v-0.9h-0.4v-0.9h-0.4l-0.4,0.4C86.8,46.3,87.3,46.7,87.7,47.2z M87.3,51
		L87.3,51C87.7,51,87.7,51,87.3,51l0.4,0.4l0.4-0.4c0-0.4-0.4-0.4-0.9-0.9V51L87.3,51z M87.3,51L87.3,51L87.3,51z M89,41.6v-0.9
		V41.6L89,41.6z M92,49.3h-0.9H92L92,49.3z M93.7,47.6L93.7,47.6v-0.9V47.6L93.7,47.6z M94.6,48L94.6,48v-0.9V48L94.6,48z
		 M95.4,51.9V51H95C95,51,95,51.4,95.4,51.9z M95.4,53.2L95.4,53.2L95.4,53.2L95.4,53.2z M95.8,44.2L95.8,44.2l0.9-0.4l0,0
		L95.8,44.2z M96.7,50.2L96.7,50.2v-0.9V50.2L96.7,50.2z M99.3,51.9L98,50.6v2.1L99.3,51.9z M99.3,54.9L99.3,54.9V54V54.9L99.3,54.9
		z M99.3,43.7l0.9-1.3h-0.4L99.3,43.7L99.3,43.7z M103.6,47.2c0.4-0.4,0.9-1.3,0.9-1.7V45c-0.4,0-0.9,0.4-1.7,0.9
		c-0.9,0.4-0.9,0.9-0.9,1.3l1.3,1.7C102.7,48.4,102.7,47.6,103.6,47.2z M102.3,51.9h0.9v-0.4C102.7,51,102.7,51.4,102.3,51.9z
		 M104,49.7c0.9,0,1.3-0.4,1.7-1.7h-0.4L104,49.7L104,49.7z M107,51L107,51v-0.9V51L107,51z M107.9,47.2c0-0.4,0-0.9-0.4-0.9
		L107.9,47.2L107.9,47.2z M110,45.4l-0.9-0.9l-0.4,0.4v0.9h1.3V45.4z M109.1,42.9l1.3-0.4l-0.4-0.9C110,42,109.6,42.4,109.1,42.9z
		 M110,50.6L110,50.6v-0.9V50.6L110,50.6z M110,48L110,48h0.9H110L110,48z M111.3,51.4c0.4,0,0.9,0,0.9,0c0-0.4,0-0.9-0.4-0.9
		s-0.9,0-1.3,0l0,0C110.4,51,110.9,51.4,111.3,51.4z M110.9,46.7l0.4-0.4l-0.4-0.4l-0.4,0.4L110.9,46.7z M113,52.3L113,52.3
		L113,52.3L113,52.3z M113.4,46.3v-0.9H113L113.4,46.3L113.4,46.3z M115.6,46.3v-0.9c0,0,0-0.4-0.4-0.9c0-0.4-0.4-0.9-0.4-0.9
		l-1.3,2.1l1.3-0.4l-0.4,1.3h1.3V46.3z M116.4,50.6L116.4,50.6h-0.9H116.4z M117.7,47.2l0.4-0.4l-0.4-0.4V47.2L117.7,47.2z
		 M119,42.4l-0.4-0.9V42v0.9L119,42.4z M119.9,38.6c0-0.4-0.4-0.4-0.9-0.9v0.9H119.9z M119.9,46.3v-0.9l-0.9,0.9H119.9z M120.7,41.6
		l0.4-0.4l-0.4-0.4V41.6L120.7,41.6z M121.6,47.2L121.6,47.2v0.4V47.2z M122,45l0.4-0.4v-0.4C122,43.7,122,44.2,122,45z M122.9,46.3
		L122.9,46.3v-0.9V46.3L122.9,46.3z M124.2-27.9l-1.3-0.4v0.9L124.2-27.9z M124.2,4.7L124.2,4.7L124.2,4.7L124.2,4.7z M124.2-18.1
		l0.4-0.9L124.2-18.1L124.2-18.1z M124.2-5.2L124.2-5.2L124.2-5.2L124.2-5.2C124.2-5.6,124.2-5.2,124.2-5.2z M124.2,47.6v-0.9V47.6
		L124.2,47.6z M125.5-1.3l-0.9,0.4l0.9,0.9V-1.3z M124.6,12.4c0.4,0,0.9-0.4,0.9-0.9C125,11.1,124.6,11.5,124.6,12.4z M125.5-31
		l2.1-0.4l-2.1-0.4l-0.9,0.4L125.5-31z M125.9-17.2v-0.9l-0.9,0.9H125.9z M125.9,6.8L125.5,6L125.9,6.8L125.9,6.8z M126.3-11.2
		c-0.4,0.4-0.9,0.9-0.9,1.3c0.9,0,1.3-0.4,1.3-0.9s0.4-1.3,0.4-1.7C126.7-12.1,126.7-11.6,126.3-11.2z M125.9-30.1l0.4-0.4l-0.4-0.4
		V-30.1L125.9-30.1z M125.9-27.9l1.3-0.4l-1.3-0.4V-27.9L125.9-27.9z M125.9,2.5V1.7V2.5z M126.7,23.1l-0.9-0.4l-0.4,0.4l0.4,0.4
		L126.7,23.1z M127.6-21.9l1.3-0.4h-2.1l-0.9,0.9C126.3-21.9,126.7-21.9,127.6-21.9z M125.9-20.7L125.9-20.7h0.9H125.9L125.9-20.7z
		 M125.9,10.2h1.3V9.8C126.7,9.8,126.3,10.2,125.9,10.2z M126.7,41.6l-0.9-0.4v0.4H126.7z M126.7-13.8l0.4,2.1l-0.4-3.4l-0.4,0.4
		L126.7-13.8z M128-5.2c0.4-0.4,0.4-0.4,0.4-1.3l-1.7,1.3l0.4,0.9C127.6-4.3,127.6-4.8,128-5.2z M127.6,31.7L127.6,31.7h-0.9H127.6z
		 M127.2-26.7v-0.9V-26.7L127.2-26.7z M127.2-18.5v0.4l0.4-0.4H127.2c0-0.4,0-0.9,0-0.9l-0.4,0.4C127.2-18.9,127.2-18.5,127.2-18.5z
		 M127.2,39.4v-2.1l-0.4,0.4L127.2,39.4z M127.2-18.5C127.2-18.5,127.2-18.9,127.2-18.5C127.2-18.9,127.2-18.5,127.2-18.5z
		 M128.5,24h-1.3l1.3,0.9V24z M128.9,5.5l-0.4-0.4L127.2,6L128.9,5.5z M128.5,42.4v-1.3h-1.3v1.3H128.5z M128,15.4L128,15.4v-0.9
		l-0.4,0.4L128,15.4z M128-30.5L128-30.5h0.9l0,0H128z M128.5,4.2L128,3.8L128.5,4.2L128.5,4.2z M128.9-21.1l0.4-0.4l-0.4-0.4V-21.1
		L128.9-21.1z M130.2-12.9l-1.3-0.4l-0.4,0.4H130.2z M128.9-9.5L128.9-9.5v-0.9V-9.5L128.9-9.5z M129.7-24.1L129.7-24.1h-0.9H129.7z
		 M128.9,0.4h0.9H128.9L128.9,0.4z M129.3,27c0.4,0,0.4,0,0.9,0C130.2,27,129.7,27,129.3,27c0-0.4-0.4-0.9-0.4-0.9v0.4
		C128.9,27,128.9,27,129.3,27z M129.3-29.7L129.3-29.7v-0.9l-0.4,0.4L129.3-29.7z M129.3-2.6L129.3-2.6h0.4H129.3L129.3-2.6z
		 M129.7-19.4v-0.9V-19.4L129.7-19.4z M129.7,12.4v-0.9V12.4L129.7,12.4z M129.7,38.1v-0.9V38.1L129.7,38.1z M130.6-31.4l-0.9,0.9
		C130.6-30.5,130.6-31,130.6-31.4z M130.6-21.5l-0.9,0.9C130.6-21.1,130.6-21.1,130.6-21.5z M131,7.7L131,7.7l-1.3-0.4v0.4H131z
		 M130.6-0.9L130.6-0.9v-0.4l-0.4,0.4H130.6z M130.6,9.8L130.6,9.8V9l-0.4,0.4L130.6,9.8z M130.6,36.9l0.4-0.4l-0.4-0.4l-0.4,0.4
		L130.6,36.9z M130.6,30.8v-0.4V30.8L130.6,30.8z M131-9.5l1.3-0.4l-1.3-0.4l-0.4,0.4L131-9.5z M132.7-29.7L132.7-29.7l-1.3-0.9v1.3
		L132.7-29.7z M133.6-12.1h-2.1l1.3,1.3L133.6-12.1z M131.5-31L131.5-31v-0.9V-31L131.5-31z M131.5-22.8L131.5-22.8v-0.9V-22.8
		L131.5-22.8z M132.7-24.9L132.7-24.9v-0.4V-24.9L132.7-24.9z M132.3,28.7L132.3,28.7h0.4H132.3L132.3,28.7L132.3,28.7z M132.7,33.9
		l0.4-0.4l-0.4-0.4l-0.4,0.4L132.7,33.9z M134-27.9l-0.9-0.4l-0.4,0.4H134z M133.2,13.3l0.9,0.4l1.3-0.4
		C134.5,12.8,133.6,12.8,133.2,13.3z M133.2,33.9h0.4H133.2L133.2,33.9z M133.6-20.7v-0.9l-0.4,0.4L133.6-20.7z M133.6-30.5l0.9-1.3
		v-0.4l-0.9,0.9V-30.5z M134-27.1L134-27.1L134-27.1L134-27.1L134-27.1z M134-9.1L134-9.1L134-9.1L134-9.1z M134-13.4L134-13.4
		L134-13.4L134-13.4L134-13.4z M134-3.9L134-3.9L134-3.9L134-3.9z M134.5-8.2L134.5-8.2v-0.9V-8.2L134.5-8.2z M134.5-4.3L134.5-4.3
		v-0.9V-4.3L134.5-4.3z M134.5-16.4l1.3,0.4L134.5-16.4L134.5-16.4z M134.5-12.1L134.5-12.1h0.9h-0.4H134.5z M135.3,10.2
		c0-0.9-0.4-1.3-1.3-1.3C134.5,9.8,134.9,10.2,135.3,10.2z M134.5,15h0.4H134.5L134.5,15z"/>
	<path fill="#FFFFFF" d="M159.4-18.9v-15.9l2.1-2.1h61.8c0.4,0,1.3,0.4,1.7,0.9c0.4,0.4,0.9,1.3,0.9,1.7v15l-1.7,3h-19.7l-0.9,0.4
		v73l-2.1,1.7h-17.2l-3-2.6v-72.5h-20.2L159.4-18.9z M166.7-27.9L166.7-27.9h0.4H166.7L166.7-27.9z M167.5-24.1l-0.4-0.9L167.5-24.1
		L167.5-24.1z M169.7-23.7L169.7-23.7v0.9V-23.7z M170.5-30.1L170.5-30.1v0.4V-30.1L170.5-30.1L170.5-30.1z M170.1-21.5L170.1-21.5
		l0.4-2.1L170.1-21.5C170.1-21.9,170.1-21.9,170.1-21.5z M171.8-31.8l-0.4,0.4l0.9,0.4L171.8-31.8z M172.2-24.1L172.2-24.1
		L172.2-24.1L172.2-24.1L172.2-24.1z M176.1-28.8L176.1-28.8v0.4V-28.8L176.1-28.8L176.1-28.8z M180-32.7v-0.4h-0.4L180-32.7
		L180-32.7z M180-24.9l-0.4-0.4L180-24.9L180-24.9z M180-28.4L180-28.4L180-28.4L180-28.4C180.4-28.8,180-28.8,180-28.4z
		 M183.4-20.2h0.9v-0.9C183.8-21.1,183.4-21.1,183.4-20.2z M184.3-24.5L184.3-24.5L184.3-24.5L184.3-24.5z M186.4-23.7L186.4-23.7
		h0.9H186.4L186.4-23.7z M186.8,50.6L186.8,50.6v-0.9V50.6L186.8,50.6z M186.8-21.9L186.8-21.9v-0.9V-21.9L186.8-21.9z M187.7-29.7
		l-0.9-0.4v0.4H187.7z M187.7,4.7L187.7,4.7V3.4l-0.4,0.4L187.7,4.7z M190.3,29.6l-2.6-0.9l-0.4,0.4L190.3,29.6z M189-15.1l-0.9,0.4
		l0.9,0.4V-15.1z M188.1,19.7l1.3-0.4l-0.4-0.4L188.1,19.7L188.1,19.7z M188.1,36.9h0.9H188.1L188.1,36.9z M190.7,27.4L189,27h-0.4
		l0.9,0.9L190.7,27.4z M189,3L189,3h0.4H189L189,3z M189.4-16.8v-0.4V-16.8L189.4-16.8z M189.8,0.4l0.4-0.4l-0.4-0.4l-0.4,0.4
		L189.8,0.4z M189.8,33.4l0.4-0.4l-0.4-0.4V33.4L189.8,33.4z M189.8,48.4l0.4-0.4l-0.4-0.4V48.4L189.8,48.4z M190.3,15.4L190.3,15.4
		l-0.9-0.4v0.4H190.3z M190.3,46.3c0-0.4-0.4-0.9-0.9-0.9v0.9H190.3z M191.5,49.7l0.9-1.7l-2.1,0.4l-0.4,0.4l0.9,1.7L191.5,49.7z
		 M190.7,4.7L190.7,4.7l-0.4,0.4L190.7,4.7z M190.7-24.1L190.7-24.1v-0.9V-24.1L190.7-24.1z M190.7,47.6L190.7,47.6v-0.9V47.6
		L190.7,47.6z M191.1-3.5L191.1-3.5L191.1-3.5L191.1-3.5L191.1-3.5z M190.7,10.2L190.7,10.2h0.9H190.7L190.7,10.2z M192.8,53.2
		l1.3-0.9l0.4,0.4l1.3-0.9H195l-0.9-0.9c0-0.9,0-1.3,0.4-1.7c0.4-0.4,0.9-0.9,1.3-1.3l-0.9-0.9l-0.4,0.4L195,48
		c-0.9,0.4-1.3,1.3-1.3,1.7c0,0.9-0.4,1.7-0.4,2.1l-1.7-0.4l-0.9,0.9C191.5,52.3,192.4,52.3,192.8,53.2z M191.1-10.8l2.6-0.4
		l-2.6-0.4V-10.8L191.1-10.8z M191.1,34.7l0.4,0.4c0,0-0.4,0,0,0.4c0,0.4,0,0.4,0.4,0.4l0.4-0.4l-0.4-0.4l0.4-0.4l-0.4-0.4
		c0,0,0,0-0.4,0c0,0,0,0-0.4,0l-0.4,0.4H191.1z M193.3-18.9c0.4,0,0.9,0.4,1.3,0.4c0-0.9-0.4-1.3-1.3-1.7c-0.9,0-1.7,0-2.6,0
		l1.3,0.9L193.3-18.9z M191.1,48.9L191.1,48.9h0.4H191.1L191.1,48.9z M191.5,30.8L191.5,30.8h0.4H191.5L191.5,30.8z M191.1,34.7
		C191.5,34.7,191.5,34.3,191.1,34.7C191.5,34.3,191.5,34.3,191.1,34.7L191.1,34.7z M191.5,38.6L191.5,38.6v-0.9V38.6L191.5,38.6z
		 M191.5-31.4L191.5-31.4h0.4H191.5L191.5-31.4z M193.3-22.4c-0.9,0-1.3,0.4-1.7,0.4l3-0.4C194.6-22.4,194.1-22.4,193.3-22.4z
		 M192,4.7L192,4.7V3.4V4.7L192,4.7z M192.4,49.7L192.4,49.7v-0.9V49.7L192.4,49.7z M193.3,22.7v-0.4h-0.9v0.4H193.3z M192.8,46.3
		L192.8,46.3v-0.9V46.3L192.8,46.3z M192.8,51l2.1-0.4l-2.1-0.4V51L192.8,51z M192.8,15L192.8,15L192.8,15L192.8,15L192.8,15z
		 M192.8,38.6L192.8,38.6h0.4H192.8L192.8,38.6z M193.3-9.5L193.3-9.5L193.3-9.5L193.3-9.5z M194.6,11.5l-0.4-1.3l-0.4,0.4l0.4,1.7
		L194.6,11.5z M193.7-27.1L193.7-27.1L193.7-27.1L193.7-27.1L193.7-27.1z M193.7,20.1L193.7,20.1v-0.9V20.1L193.7,20.1z M193.7,43.3
		L193.7,43.3L193.7,43.3l0.4-0.4L193.7,43.3z M193.7,49.7h1.3l0.4-0.4L193.7,49.7z M194.1-28.4l1.7,0.4l-0.4-0.4l0.4-0.4L194.1-28.4
		z M194.6,5.5l0.9-0.4l-0.9-0.4V5.5L194.6,5.5z M194.6,46.3L194.6,46.3v-0.9V46.3L194.6,46.3z M194.6,54L194.6,54v-0.9V54L194.6,54z
		 M195,29.1L195,29.1L195,29.1L195,29.1z M195,30.4L195,30.4v-0.9V30.4L195,30.4z M195,41.1l-0.4,0.9C194.6,41.6,195,41.6,195,41.1z
		 M195,42.9L195,42.9V42V42.9L195,42.9z M195.4-0.9L195.4-0.9L195.4-0.9L195.4-0.9L195.4-0.9z M195.4,54
		C195.4,54,195.4,53.6,195.4,54L195.4,54l0.4,0.4l0.4-0.4l-0.4-0.4l-0.4-0.4V54L195.4,54z M195.8,43.3L195.8,43.3v-0.9V43.3
		L195.8,43.3z M195.4,53.6C195.4,53.6,195.4,54,195.4,53.6C195.4,54,195.4,53.6,195.4,53.6L195.4,53.6L195.4,53.6z M196.3,45.4
		l0.4-0.4l-0.4-0.4l-0.4,0.4L196.3,45.4z M197.6,51.4v-1.7h-1.7C195.8,50.6,196.3,51.4,197.6,51.4z M196.7-13.8v-0.9h-0.4
		L196.7-13.8L196.7-13.8z M196.3,1.2l2.1,0.9H198V1.2H196.3z M196.7,24.8L196.7,24.8V24V24.8L196.7,24.8z M196.7,38.1l0.4-0.4
		l-0.4-0.4l-0.4,0.4L196.7,38.1z M196.7,47.2L196.7,47.2v-0.9V47.2L196.7,47.2z M197.1-29.7L197.1-29.7l0.4-0.4L197.1-29.7
		L197.1-29.7z M197.6-21.1c-0.4,0.4-0.4,0.9-0.4,1.3c0.4,0,0.9-0.4,0.9-0.9s0.4-0.9,0.4-1.3C198.4-21.9,198-21.5,197.6-21.1z
		 M197.6-9.1L197.6-9.1v-0.4V-9.1L197.6-9.1z M197.6-5.6L197.6-5.6v-0.9V-5.6L197.6-5.6z M197.6,35.6L197.6,35.6v-0.9V35.6
		L197.6,35.6z M198.4-16.4L198.4-16.4L198.4-16.4L198.4-16.4L198.4-16.4z M199.7-28.8l-0.4,0.4v0.4L199.7-28.8z M200.1-31.8
		L200.1-31.8v-0.9V-31.8L200.1-31.8z M200.1-24.1L200.1-24.1v-0.9V-24.1L200.1-24.1z M204-24.9l-0.4-0.4l-0.9,0.4l0.4,0.9L204-24.9z
		 M203.1-27.5c0.4,0,0.4,0.4,0.9,0.4v-0.9h-1.3C202.7-27.9,202.7-27.5,203.1-27.5z M206.6-25.8L206.6-25.8v-0.9V-25.8L206.6-25.8z
		 M212.1-24.9v-0.9l-0.9,0.9H212.1z M213-22.8L213-22.8L213-22.8L213-22.8z M215.2-24.1c0-0.4,0-0.9-0.4-0.9v0.9H215.2z M215.6-24.9
		L215.6-24.9v-0.4V-24.9L215.6-24.9z"/>
	<path fill="#FFFFFF" d="M332.7,36.9c2.1-0.4,3.9-1.3,5.6-2.1c1.7-0.9,3-2.1,4.3-3.9s1.7-3.4,1.7-5.6v-60.1l3-2.1h17.2
		c0.4,0,0.9,0.4,1.7,0.9c0.9,0.4,1.3,0.9,1.3,1.7v61.8c0,4.7-1.3,9.4-3.4,13.7s-5.6,7.7-9.4,10.7s-8.2,5.2-12.9,6.9
		c-4.7,1.7-9,2.6-13.7,2.6c-4.7,0-9.4-0.9-14.2-2.6c-4.7-1.7-9-3.9-12.9-6.9s-6.9-6.4-9-10.7c-2.1-4.3-3.4-8.6-3.4-13.7v-61.8
		c0-0.9,0.4-1.3,0.9-1.7c0.9-0.4,1.3-0.9,2.1-0.9h16.3l3,1.7v60.1c0,2.1,0.4,3.9,1.7,5.6c0.9,1.7,2.1,3,3.9,3.9
		c1.7,1.3,3.4,1.7,5.2,2.6c1.7,0.4,3.9,0.9,5.6,0.9C328.5,37.7,330.6,37.3,332.7,36.9z M293.7-30.1L293.7-30.1V-31V-30.1L293.7-30.1
		z M296.7,17.5l-2.6-1.3l-0.4,0.4L296.7,17.5z M293.7,27.4L293.7,27.4C293.7,27.8,293.7,27.8,293.7,27.4L293.7,27.4L293.7,27.4
		L293.7,27.4z M295-21.1L295-21.1h0.4H295L295-21.1z M295.8-0.9c-0.4-0.4-0.9-0.4-1.3-0.4v0.4H295.8z M295.8,21.4l-0.9,0.9l1.3,0.4
		L295.8,21.4z M295.4,18.4l1.3-0.4l-1.3-0.4V18.4L295.4,18.4z M295.4-26.2L295.4-26.2h0.9H295.4L295.4-26.2z M296.3-24.1l-0.9,0.4
		l2.6,0.4L296.3-24.1z M296.3-18.1L296.3-18.1v-1.3l0,0v-0.4l-0.4,0.4L296.3-18.1z M296.3-31v-0.4h-0.4L296.3-31L296.3-31z
		 M296.3-18.9v0.4V-18.9z M296.7-28.4l0.4-0.4l-0.4-0.4V-28.4L296.7-28.4z M297.1-30.1L297.1-30.1l-0.9-0.4v0.4H297.1z M296.7-19.8
		L296.7-19.8h0.9H296.7L296.7-19.8z M296.7-22.4l0.4,0.4v-0.9C297.1-22.4,297.1-22.4,296.7-22.4z M297.6-9.5L297.6-9.5L297.6-9.5
		L297.6-9.5z M298-29.7h-0.4v1.7L298-29.7z M298-8.6l0.4-0.4L298-9.5l-0.4,0.4L298-8.6z M298.8,0.8v-1.3l-0.4,0.4L298.8,0.8z
		 M298.4,11.5L298.4,11.5L298.4,11.5L298.4,11.5L298.4,11.5z M298.8-13.8L298.8-13.8v0.9V-13.8z M298.8,21.4L298.8,21.4v-0.9V21.4
		L298.8,21.4z M300.1-31.4h-1.3v0.4C299.3-31,299.7-31.4,300.1-31.4z M299.3-25.4l0.4-0.4l-0.4-0.4V-25.4L299.3-25.4z M299.3-12.5
		l0.4-0.4h-0.4V-12.5L299.3-12.5z M299.3,32.6l0.4-0.4l-0.4-0.4V32.6L299.3,32.6z M299.3-7.3L299.3-7.3L299.3-7.3L299.3-7.3
		L299.3-7.3z M300.1-27.9c-0.4,0-0.4,0.4-0.4,0.9c0.4,0,0.9,0,1.3-0.4c0.4,0,0.4-0.4,0.4-0.9C301-28.4,300.6-28.4,300.1-27.9z
		 M301.4-9.5h-1.3l1.3,0.9V-9.5z M301.4,37.7h-1.3l0.4,0.9L301.4,37.7z M300.6-14.6l0.4-0.4l-0.4-0.4v0.4V-14.6z M300.6-21.1
		L300.6-21.1h0.9H300.6L300.6-21.1z M300.6-7.8c0.4,0,0.9-0.4,0.9-0.9l0,0L300.6-7.8z M301.4,5.1L301.4,5.1l-0.9-0.4v0.4H301.4z
		 M301.4,20.1l-0.9,0.4l0.9,0.4V20.1z M301.8-31.8L301.8-31.8v-1.3V-31.8L301.8-31.8z M301.8-29.2L301.8-29.2h0.4H301.8L301.8-29.2
		L301.8-29.2z M302.3-18.1L302.3-18.1l-0.4-1.7L302.3-18.1z M302.3,40.3L302.3,40.3V42V40.3z M302.7-15.9l-0.4-1.7l-0.4,0.4
		L302.7-15.9z M302.3-14.2l0.4-0.4l-0.4-0.4l-0.4,0.4L302.3-14.2z M302.3,18.8l0.4-0.4l-0.4-0.4V18.8L302.3,18.8z M302.3-11.2
		L302.3-11.2L302.3-11.2L302.3-11.2L302.3-11.2z M302.7,38.1c0,0.4,0.4,0.9,1.3,0.9h0.4c0-0.4-0.4-0.9-0.9-1.3
		c-0.4-0.4-0.9-0.9-1.3-0.9L302.7,38.1z M303.1-28.8h1.3l-0.4-0.9v-0.9C303.6-29.7,303.1-29.2,303.1-28.8z M303.6,17.1l0.4-0.4
		l-0.4-0.4V17.1L303.6,17.1z M304,25.7l1.3-0.9l-0.9-0.9L304,25.7L304,25.7z M305.7-29.2l-1.3-0.9l-0.4,0.4L305.7-29.2z M304.9,36.9
		l0.4-0.4l-0.4-0.9v0.9V36.9z M306.1,49.7v-0.9V49.7L306.1,49.7z M307,39.9L307,39.9V39l-0.4,0.4L307,39.9z M308.7,37.7v-1.3h-1.3
		C307.4,37.3,307.9,37.7,308.7,37.7z M307.4,42.9h0.9V42C307.9,42,307.4,42.4,307.4,42.9z M308.3,45.4h-0.9H308.3L308.3,45.4z
		 M310.4,40.7L310.4,40.7L310.4,40.7L310.4,40.7z M312.6,48.9c0.4-0.4,0.9-0.9,0.9-1.7c-0.4,0-1.3,0.4-2.1,0.4
		c-0.9,0.4-1.3,0.9-1.3,1.3l0.4,0.4C311.7,49.7,312.1,49.3,312.6,48.9z M313,52.3c0.4,0,0.9,0,0.9-0.4c0.4,0,0.4-0.4,0.4-0.9
		C313.9,51,313,51.4,313,52.3z M313.4,49.7c-0.4,0.4-0.4,0.4-0.4,0.9l1.7-0.9l-0.4-0.9C313.9,48.9,313.9,49.3,313.4,49.7z
		 M316.9,48.9L316.9,48.9V48V48.9L316.9,48.9z M317.7,50.2L317.7,50.2L317.7,50.2L317.7,50.2z M320.7,51.9l-1.3-0.9h-0.9l0.9,1.3
		L320.7,51.9z M319.4,45.9L319.4,45.9V45V45.9L319.4,45.9z M319.9,47.6L319.9,47.6v-0.9V47.6L319.9,47.6z M321.6,50.2L321.6,50.2
		L321.6,50.2L321.6,50.2z M322.4,43.3L322.4,43.3c0.4,0,0.4,0,0.4,0H322.4L322.4,43.3z M322.9,49.7L322.9,49.7v-0.9V49.7L322.9,49.7
		z M323.7,53.6c0-0.4,0-0.9-0.4-0.9v0.9H323.7z M323.3,49.7L323.3,49.7h0.4H323.3L323.3,49.7L323.3,49.7z M324.6,51v-0.4h-0.4
		L324.6,51L324.6,51z M326.3,53.2l0.4-1.7l-1.7,2.1l1.7,1.3L326.3,53.2z M325.9,49.7v-0.4h-0.4L325.9,49.7L325.9,49.7z M326.3,47.2
		v-0.9h-0.4L326.3,47.2L326.3,47.2z M328,50.2l-0.9-0.4v0.9L328,50.2z M329.3,53.2c0.4,0,0.9,0,0.9-0.4c0-0.4,0-0.9,0-1.3h1.3
		l-0.9-0.4c-0.4,0-0.9,0.4-1.3,0.9c-0.4,0.4-0.9,0.9-1.3,0.9v0.9h1.3V53.2z M331,48.9L331,48.9V48V48.9L331,48.9z M332.7,46.3h-0.4
		v0.9C332.3,47.2,332.7,46.7,332.7,46.3z M332.7,49.3v-0.9V49.3L332.7,49.3z M334.9,55.3L334.9,55.3v-0.9V55.3L334.9,55.3z
		 M335.3,51.9l-0.4-0.4v0.4H335.3z M335.3,49.7L335.3,49.7v-0.9V49.7L335.3,49.7z M335.8,53.6L335.8,53.6c0-0.4,0-0.4,0-0.4V53.6
		L335.8,53.6z M337.9,47.6l-0.9-0.9v0.4l0.4,0.9L337.9,47.6z M337.5,50.6L337.5,50.6L337.5,50.6L337.5,50.6L337.5,50.6z M337.9,45.4
		l-0.4-0.4v0.4H337.9z M343.1,39.9c-0.4,0-1.3,0.4-1.7,0.9L340,42l0.4,0.4L343.1,39.9z M343.5,45.4V45h-0.9v0.4H343.5z M345.2,44.6
		v-0.9l-0.4,0.4L345.2,44.6z M345.6,43.3l0.4-0.4l-0.9-0.9l-0.4,0.4C345.2,42.4,345.2,42.9,345.6,43.3z M345.2,42.9
		c0-0.4,0-0.4,0-0.4V42.9z M346.1,46.3C346.5,46.3,346.5,46.3,346.1,46.3C346.5,46.3,346.5,46.7,346.1,46.3L346.1,46.3L346.1,46.3
		L346.1,46.3z M346.9,41.1L346.9,41.1C346.9,41.6,346.9,41.6,346.9,41.1L346.9,41.1L346.9,41.1L346.9,41.1z M347.8,36l0.4-0.9
		L347.8,36L347.8,36z M348.2,36.9l-0.4,1.3C347.8,37.3,348.2,37.3,348.2,36.9z M348.2,49.3L348.2,49.3v-0.9V49.3L348.2,49.3z
		 M349.1-15.5L349.1-15.5v-0.9l-0.4,0.4L349.1-15.5z M349.1,27L349.1,27v-0.9l-0.4,0.4L349.1,27z M349.9-21.9L349.9-21.9L349.9-21.9
		L349.9-21.9z M349.9-15.1l0.4-0.4l-0.4-0.4V-15.1L349.9-15.1z M349.9,34.7l2.1-0.4l-2.6-0.4v0.9H349.9z M349.9,36.9l-0.4,0.9
		l0.4,0.4V36.9z M349.9-28.4c-0.4,0-0.4,0.4-0.4,0.9c0.4,0,0.9-0.4,1.7-0.9l-0.4-0.4C350.8-28.8,350.3-28.8,349.9-28.4z M350.8,39
		l-1.3,0.4l2.1,0.4L350.8,39z M350.8-17.2l-0.4,0.9C350.8-16.8,350.8-16.8,350.8-17.2z M350.8-24.1c0,0.9,0.9,1.3,1.7,1.3
		c0.4,0,0.9,0,1.3-0.4c0.4-0.4,0.9-0.4,1.3-0.4c0-0.4,0-0.9-0.4-0.9s-0.9-0.4-1.3-0.4s-0.9,0-1.3-0.4c-0.4,0-0.4-0.4-0.4-1.3h-0.9
		C350.8-25.4,350.8-24.5,350.8-24.1z M351.2-4.3L351.2-4.3L351.2-4.3L351.2-4.3z M350.8,20.1v-0.9V20.1L350.8,20.1z M351.2,36.4
		c0.4,0,0.9,0,1.3,0c0-0.4,0-0.9-0.4-0.9c-0.4,0-0.9,0-1.3,0C350.8,36,350.8,36.4,351.2,36.4z M351.2,3.8l0.4-0.4L351.2,3V3.8
		L351.2,3.8z M351.6,22.7h-0.9l0.4,0.4L351.6,22.7z M352.1,34.7c0.4,0.4,0.9,0.9,1.3,0.9l0.9-0.4c0-0.4-0.4-0.9-0.9-0.9
		c-0.4,0-0.9-0.4-1.3-0.4l-0.9,0.4C351.2,34.3,351.6,34.3,352.1,34.7z M351.2,26.6h0.9v-1.3C351.6,25.3,351.2,25.7,351.2,26.6z
		 M351.6-15.1l0.4,2.6l-0.4-3l-0.4,0.4H351.6z M352.5-7.8l0.4-0.4l-0.4-0.4V-7.8L352.5-7.8z M353.4,43.7L353.4,43.7v-0.9l-0.4,0.4
		L353.4,43.7z M354.2-27.1c0.9,0.4,1.3,0.9,1.3,1.3l-0.4,0.4c1.3-0.4,2.1-1.7,2.6-3l-1.3,0.9l-1.7-2.6l-1.7,1.7
		C352.9-27.9,353.4-27.5,354.2-27.1z M353.8,25.7L353.8,25.7L353.8,25.7L353.8,25.7z M354.2,29.6c0.4,0,0.9,0,1.3,0h0.4l-1.7-1.7
		l-0.9,0.9C353.4,29.1,353.4,29.6,354.2,29.6z M353.8,38.1c0,0.4,0,0.9,0.4,1.3c0.4-0.4,0.4-0.9,0.4-1.3c0-0.4,0-0.9,0-1.3h-1.7
		C353.8,36.9,354.2,37.3,353.8,38.1z M353.8-25.4v-0.9V-25.4L353.8-25.4z M353.8,39.9V39V39.9L353.8,39.9z M353.8-28.4L353.8-28.4
		v-0.9l0.4,0.4L353.8-28.4z M355.1-17.2c0-0.4-0.4-0.9-1.3-1.3v0.4l0.9,0.9L355.1-17.2z M353.8,23.1L353.8,23.1l-0.4,0.9L353.8,23.1
		z M355.5,33l-1.7-0.4l-0.4,0.4H355.5L355.5,33z M354.6,3h-0.9l0.9,0.4V3z M354.6,21.4L354.6,21.4v-0.9l-0.4,0.4L354.6,21.4z
		 M354.6-6.9L354.6-6.9L354.6-6.9L354.6-6.9z M354.2,19.3h0.9v-0.9C354.6,18.8,354.2,19.3,354.2,19.3z M354.6-20.2l0.9,0.4v-0.4
		v-0.4L354.6-20.2z M355.1,16.3L355.1,16.3l-0.4,0.4L355.1,16.3z M355.1,22.3l-0.4,1.3l0.4,0.9V22.3z M355.1-5.2L355.1-5.2h0.9
		H355.1L355.1-5.2z M355.1-0.9l1.3,0.9h-0.4v-0.9H355.1z M357.2,33.9l-0.9-0.4l-1.3,1.3L357.2,33.9z M356.4-23.7L356.4-23.7l0.4,1.3
		L356.4-23.7z M355.9-12.5L355.9-12.5L355.9-12.5L355.9-12.5z M356.4-17.6L356.4-17.6v-0.9V-17.6L356.4-17.6z M356.4-8.6l0.4-0.4
		l-0.4-0.4l-0.4,0.4L356.4-8.6z M356.4,25.3L356.4,25.3L356.4,25.3L356.4,25.3L356.4,25.3z M356.4-28.8L356.4-28.8l0.4-0.4l0,0
		L356.4-28.8z M356.4-30.1L356.4-30.1h1.3l-0.4-0.9C356.8-31,356.4-30.5,356.4-30.1z M357.2-14.6l-0.9-0.9v0.4L357.2-14.6z
		 M356.8,27L356.8,27v0.9V27z M357.2,7.7L357.2,7.7V6.8V7.7L357.2,7.7z M357.6,16.3L357.6,16.3v-0.9V16.3L357.6,16.3z M358.5-23.2
		l-0.9-0.9v0.4l0.4,1.3L358.5-23.2z M358.1,28.3L358.1,28.3l-0.4,0.9L358.1,28.3z M358.1-26.7L358.1-26.7v-0.9V-26.7L358.1-26.7z
		 M358.1-19.8L358.1-19.8v-0.9V-19.8L358.1-19.8z M358.1-18.1L358.1-18.1L358.1-18.1L358.1-18.1z M358.1,4.7L358.1,4.7V3.8V4.7
		L358.1,4.7z M358.1,9L358.1,9L358.1,9l0.4-0.4L358.1,9z M359.4-28.8L359.4-28.8l-1.3-0.9C358.1-29.2,358.5-28.8,359.4-28.8z
		 M358.5,17.5l-0.4-0.9v0.9H358.5z M358.5,31.7l-0.4,0.4l1.3,0.4L358.5,31.7z M358.5-21.5c0.9,0,1.3-0.4,1.3-1.3
		C358.9-22.8,358.5-22.4,358.5-21.5z M359.4-27.9c-0.4,0.4-0.9,0.9-0.9,1.7h0.4c0-0.4,0.4-0.9,0.9-1.3c0.4-0.4,0.9-0.9,0.9-1.3v-0.4
		L359.4-27.9z M358.9,22.3L358.9,22.3v-0.9V22.3L358.9,22.3z M360.2,27.8v-1.3h-0.4C359.4,27,359.8,27.4,360.2,27.8z M360.2,20.1
		L360.2,20.1v-0.9V20.1L360.2,20.1z M359.8-25.4L359.8-25.4L359.8-25.4L359.8-25.4L359.8-25.4z M360.2-6.9L360.2-6.9L360.2-6.9
		L360.2-6.9z M360.2,4.2L360.2,4.2L360.2,4.2L360.2,4.2z M360.6,8.5L360.6,8.5V9V8.5L360.6,8.5L360.6,8.5z"/>
	<path fill="#FFFFFF" d="M389.4,44.6c0.4-1.7,1.3-3.4,2.6-5.2c0.9-1.7,2.1-3.4,3-4.7c0.9-1.3,2.1-2.1,3-2.1c0.9,0,2.1,0.4,3.4,1.3
		c1.3,0.9,3,1.7,4.7,2.6c1.7,0.9,3.9,1.7,6,2.6c2.1,0.9,4.3,1.3,6.9,1.3s4.3-0.4,6.4-1.7c1.7-1.3,2.6-3,2.6-5.6c0-2.6-0.9-4.7-3-6.9
		c-2.1-1.7-4.3-3.9-7.3-5.6c-3-1.7-6-3.4-9.9-5.2c-3.4-1.7-6.9-3.9-9.9-6c-3-2.6-5.6-5.2-7.3-8.6c-2.1-3.4-3-7.3-3-11.6
		s0.9-8.2,2.6-11.6c1.7-3.4,4.3-6.4,6.9-8.6c3-2.6,6.4-4.3,10.3-5.6c3.9-1.3,7.7-1.7,11.6-1.7c1.3,0,2.6,0,4.7,0.4
		c2.1,0.4,3.9,0.9,6.4,1.3c2.1,0.4,4.7,1.3,6.9,2.1c2.6,0.9,4.3,1.7,6.4,2.6c1.7,0.9,3.4,2.1,4.7,3.4s1.7,2.6,1.7,3.9
		c0,0.9-0.4,2.1-1.3,3.9c-0.9,1.7-1.7,3-2.6,4.7c-0.9,1.7-2.1,3-3.4,3.9c-1.3,1.3-2.1,1.7-3.4,1.7c-0.4,0-1.7-0.4-2.6-1.3
		c-1.3-0.9-2.6-1.7-4.3-2.6c-1.7-0.9-3.9-1.7-6-2.6c-2.1-0.9-4.7-1.3-7.7-1.3c-2.1,0-3.9,0.4-5.6,1.7c-1.7,0.9-2.1,2.6-2.1,5.2
		c0,2.1,0.9,4.3,3,6c2.1,1.7,4.7,3.4,7.7,4.7c3,1.7,6.4,3,9.9,5.2c3.4,1.7,6.9,3.9,9.9,6.4s5.6,5.6,7.7,9c2.1,3.4,3,7.7,3,12.4
		c0,4.3-0.9,8.2-2.6,12c-1.7,3.4-4.3,6.4-7.3,9c-3,2.6-6.4,4.3-10.3,6c-3.9,1.7-7.7,2.1-12,2.1c-3,0-6,0-8.6-0.4
		c-3-0.4-5.6-0.9-8.6-2.1s-5.6-2.1-8.2-3.4c-2.6-1.7-4.7-3.4-6.4-5.6C388.5,47.6,389,46.3,389.4,44.6z M394.1-17.2L394.1-17.2v-0.9
		V-17.2L394.1-17.2z M395.8-16.4L395.8-16.4l-0.9,1.3C395.8-15.1,395.8-15.5,395.8-16.4z M395-8.6v0.4l0.4-1.3
		C395.4-9.5,395-9.1,395-8.6z M395.4-6.9L395.4-6.9h0.4H395.4L395.4-6.9L395.4-6.9z M395.4-3.9L395.4-3.9h0.4H395.4L395.4-3.9
		L395.4-3.9z M395.4-17.2L395.4-17.2l0.9-0.4l0,0L395.4-17.2z M396.3-8.2l0.9-0.4v-0.4L396.3-8.2L396.3-8.2z M396.3-15.1l1.3-0.4
		l-1.3-0.4V-15.1L396.3-15.1z M397.6-5.6c0.4,0,0.9-0.4,0.9-0.9l-1.7,0.9C396.7-5.6,397.1-5.6,397.6-5.6z M397.6,43.7
		c0.4,0,0.4-0.4,0.4-0.9l-1.7,1.3C396.7,44.2,397.1,44.2,397.6,43.7z M397.6-11.6h-0.4v0.9L397.6-11.6z M397.6-4.8L397.6-4.8v-0.9
		V-4.8L397.6-4.8z M397.1-17.6L397.1-17.6l0.4,1.3l0.4-0.4l-0.4-0.4l0,0c0,0,0,0,0-0.4L397.1-17.6L397.1-17.6z M398-20.7l1.3-0.4
		l-1.3-0.4V-20.7L398-20.7z M397.6-17.6L397.6-17.6L397.6-17.6C398-17.6,397.6-17.6,397.6-17.6z M398,49.3L398,49.3v-0.9V49.3
		L398,49.3z M398.8-4.8h-1.3v1.3L398.8-4.8z M398.8-19.4h-0.4l0.4,0.9V-19.4z M401,0.8c0-0.9-0.4-1.3-0.9-1.7
		c-0.4-0.4-1.3-0.9-1.7-0.9c0,1.3,0.4,2.1,1.7,2.1v0.9h0.9V0.8z M398.4-5.6l2.1,0.4l-0.4-0.4l0.4-0.4L398.4-5.6z M398.8,43.3
		L398.8,43.3v-0.9V43.3L398.8,43.3z M399.3,45.4C399.3,45,399.3,45,399.3,45.4C399.7,45.4,399.7,45.4,399.3,45.4h0.9H399.3
		C399.7,45,399.7,45,399.3,45.4C399.3,45,399.3,45,399.3,45.4l0.4-0.4l-0.4-0.4l-0.4,0.4L399.3,45.4z M399.3,47.6l2.6-0.4l-2.6-0.4
		V47.6L399.3,47.6z M400.1-17.2L400.1-17.2l-0.9,0.4l0.4,0.4L400.1-17.2z M399.7-6.5L399.7-6.5L399.7-6.5L399.7-6.5z M399.7-20.2
		L399.7-20.2v-0.9V-20.2L399.7-20.2z M399.3,45.4L399.3,45.4C399.3,45,399.3,45,399.3,45.4z M401.4-21.9c-0.4-0.4-0.9-0.9-1.7-1.3
		l0.9,1.7L401.4-21.9z M401-24.9c-0.4,0-0.9,0.4-0.9,0.9C400.6-24.1,401-24.1,401-24.9c0.9,0.4,1.3,0,1.3-0.4
		C401.8-25.4,401.4-24.9,401-24.9z M401,48.9l-0.9,1.7l0.9,0.9V48.9z M400.6-18.5h0.4l0.4-0.4C401-18.9,401-18.9,400.6-18.5z
		 M401.4,43.3l-0.4-1.7l-0.4,0.4L401.4,43.3z M401.8,47.2v-0.9H401C401,46.3,401.4,46.7,401.8,47.2z M401.4-20.7L401.4-20.7v-0.9
		V-20.7L401.4-20.7z M401.4,41.6L401.4,41.6v-0.9V41.6L401.4,41.6z M401,51.9L401,51.9L401,51.9l0.4-0.4L401,51.9z M401.8-9.1
		l-0.4-0.4v1.3L401.8-9.1z M401.8,1.2L401.8,1.2L401.8,1.2L401.8,1.2z M401.8-19.8L401.8-19.8v-0.9V-19.8L401.8-19.8z M401.8-17.6
		L401.8-17.6v-0.9V-17.6L401.8-17.6z M402.3-6.9l0.4-0.4l-0.4-0.4c0,0,0,0-0.4,0c0,0,0,0,0-0.4l-0.4,0.4
		C401.8-7.3,402.3-7.3,402.3-6.9z M402.7-27.1l-0.4-0.4l-0.4,0.4H402.7z M402.7,4.7V3.4h-0.9v0.9h0.9V4.7z M401.8-7.8L401.8-7.8
		C402.3-7.8,401.8-7.8,401.8-7.8z M403.1-19.4c0.9,0,1.3-0.4,1.3-1.3s0-1.7,0.4-2.1c-0.4,0.4-0.9,0.9-1.3,1.7c0,0.9-0.4,1.3-1.3,1.3
		L403.1-19.4L403.1-19.4z M402.7-12.1L402.7-12.1v-0.9V-12.1L402.7-12.1z M404.4-24.5v-1.3l-1.3,1.3v0.4L404.4-24.5z M403.6,48.4
		c-0.4,0-0.4,0.4-0.4,0.9l1.7-1.3C404.4,48,404,48.4,403.6,48.4z M403.1,42.9L403.1,42.9V42V42.9L403.1,42.9z M403.1-2.2L403.1-2.2
		L403.1-2.2L403.1-2.2L403.1-2.2z M404.9-17.6l-1.3-0.9v0.4l0.9,2.1L404.9-17.6z M403.1,0.8L403.1,0.8L403.1,0.8L403.1,0.8
		L403.1,0.8z M403.6,52.3L403.6,52.3v-0.9V52.3L403.6,52.3z M404.4-0.9h-0.9l0.4,0.9v-0.9H404.4z M404.4,8.1L404.4,8.1V7.2V8.1
		L404.4,8.1z M404.4-5.2L404.4-5.2L404.4-5.2L404.4-5.2z M404.9,6V5.1h-0.4L404.9,6L404.9,6z M404.9-27.5L404.9-27.5v0.4V-27.5
		L404.9-27.5L404.9-27.5z M405.3-1.3L405.3-1.3v-0.9V-1.3L405.3-1.3z M405.3,1.2L405.3,1.2V0.8V1.2L405.3,1.2z M406.6-29.7h-1.3v0.4
		L406.6-29.7z M405.3,44.2L405.3,44.2h0.4H405.3L405.3,44.2z M405.7,51L405.7,51v-0.9V51L405.7,51z M406.1-21.9l1.7-1.7l-2.1-0.4
		l0.4,1.3V-21.9z M407.4,0.8c0.4-0.4,0.4-0.9,0.9-2.1l-1.7,0.9l0.9,0.9l-1.7,2.1C406.6,1.7,407.4,1.2,407.4,0.8z M406.6-29.7
		L406.6-29.7v-0.9V-29.7L406.6-29.7z M406.6-21.1L406.6-21.1v-0.9V-21.1L406.6-21.1z M406.6,4.2h0.4c0.4,0,0.9,0,1.3,0
		c0.4,0,0.9-0.4,0.9-1.3V2.1C408.3,2.5,407,3.4,406.6,4.2z M407.9,6.8l-1.3-0.4v1.7L407.9,6.8z M407.9,51.9l-0.9-0.4l-0.4,0.4H407.9
		z M407.4-25.8h1.3c0-0.4,0-0.9,0-1.7c0-0.4-0.4-0.9-0.9-0.9h-0.4l0.4,0.9l-0.9,1.7H407.4L407.4-25.8v-0.9l0,0V-25.8L407.4-25.8z
		 M407.4-30.5L407.4-30.5v-0.9V-30.5L407.4-30.5z M407.9-21.9L407.9-21.9v0.4V-21.9L407.9-21.9L407.9-21.9z M407.9,50.2L407.9,50.2
		v-0.9V50.2L407.9,50.2z M407.9,53.6L407.9,53.6v-0.9V53.6L407.9,53.6z M408.3-23.2L408.3-23.2v-0.9V-23.2L408.3-23.2z M409.1,51
		l-0.9,0.4l0.9,0.4V51z M409.1-27.9L409.1-27.9v-0.9V-27.9L409.1-27.9z M410,4.7l-0.9,0.4l0.9,0.4V4.7z M410.4,7.2l0.9,0.4h0.4
		l-1.3-1.3l-1.7,1.3l0.4,0.4L410.4,7.2z M409.6-25.4L409.6-25.4v-0.9V-25.4L409.6-25.4z M410.4,52.7h-0.9v0.9
		C410,53.2,410.4,52.7,410.4,52.7z M412.1,3.8l-0.9-1.7l-0.9,0.4L412.1,3.8L412.1,3.8z M411.3-27.5v-0.9l-0.4,0.4L411.3-27.5z
		 M411.3-25.8L411.3-25.8h0.4H411.3L411.3-25.8z M411.3-28.8L411.3-28.8L411.3-28.8L411.3-28.8L411.3-28.8z M411.7,10.2L411.7,10.2
		h-0.9H411.7z M411.3,51.4c0,0.4,0,0.4,0,0.9l1.3-1.3l-1.3-0.9v0.4C411.3,50.6,411.3,51,411.3,51.4z M411.7,47.2l0.4-0.4l-0.4-0.4
		V47.2L411.7,47.2z M411.7,6h0.9h-0.4H411.7z M412.6-26.7l0.4,0.4l0.4-0.4H412.6c0-0.4,0-0.9,0-0.9l-0.4,0.4L412.6-26.7z
		 M412.1,52.3l0.4,0.4v-0.9C412.6,51.9,412.1,51.9,412.1,52.3z M412.6,53.6L412.6,53.6h0.4H412.6L412.6,53.6L412.6,53.6z
		 M412.6-26.7C412.6-26.7,412.6-27.1,412.6-26.7C412.6-27.1,412.6-26.7,412.6-26.7z M413,48.4c0.9-0.4,1.7-0.9,2.1-1.3h0.4l-1.3-1.7
		C414.3,46.7,413.9,47.6,413,48.4z M413.9,4.7L413.9,4.7L413.9,4.7L413.9,4.7z M413.4-27.5c0,0.4,0,0.4,0,0.9v-1.3V-27.5z
		 M413.9,7.7c0,0.4,0,0.9,0,0.9V7.7l-0.4-1.3v0.4L413.9,7.7z M414.3-26.2L414.3-26.2L414.3-26.2L414.3-26.2z M413.9,9.4L413.9,9.4
		L413.9,9.4L413.9,9.4z M415.6-27.5l-1.3,0.4l1.3,0.4V-27.5z M414.3,3l1.3-0.9L414.3,3z M416.4,12.8l-0.9-0.9v0.9H416.4z
		 M415.6,54.5L416,54l-0.4-0.4V54.5L415.6,54.5z M416-26.2L416-26.2L416-26.2L416-26.2L416-26.2z M416.4,50.6c0.4,1.3,0.4,2.1,0.4,3
		l1.7-1.7l-0.9-0.9l0,0l-0.4-0.9l1.3-0.4c0-0.9-0.4-1.3-0.9-1.3c-0.4,0-0.9-0.4-0.9-1.3H416C416,48.4,416,49.7,416.4,50.6z
		 M417.3,10.7c0.4,0.4,0.4,0.4,0.9,0.4c0-0.9-0.4-1.3-1.3-1.7v0.9C416.9,9.8,417.3,10.2,417.3,10.7z M419-28.4l-0.9-0.9l-0.4,0.9
		H419z M419.9,7.2l0.4-2.6h-1.7l-0.9,0.4C418.2,5.5,419,6.4,419.9,7.2z M418.2,55.7L418.2,55.7v-0.9v0.4V55.7z M421.2,12
		c0,0.4,0,0.9,0,1.3l1.7-1.7l-2.1-1.7l-2.6,1.3v0.4c0.4-0.4,0.9-0.4,1.3-0.4c0.4,0,0.9-0.4,1.3-0.4C420.7,11.1,421.2,11.5,421.2,12z
		 M419,13.7l0.9-0.4h-1.7L419,13.7L419,13.7z M419.4,51.9L419.4,51.9V51V51.9L419.4,51.9z M420.3,15.4L420.3,15.4l-0.4-0.4v0.4
		H420.3z M420.3,53.6L420.3,53.6l-0.4-1.7v0.4L420.3,53.6z M421.2,50.2l-0.4,0.9h0.4V50.2C421.6,50.6,421.6,50.6,421.2,50.2
		C421.2,50.2,421.2,49.7,421.2,50.2l-0.9-1.7l-0.4,0.4L421.2,50.2z M420.7,49.3L420.7,49.3L420.7,49.3z M421.6-27.1l-0.9-0.4l0,0
		v0.9L421.6-27.1z M421.2,49.7L421.2,49.7C421.2,49.3,421.2,49.7,421.2,49.7z M421.2,6h0.9V5.1C421.6,5.1,421.6,5.5,421.2,6z
		 M423.7,49.7c-0.4,0.4-0.9,0.9-1.3,1.7c-0.4,0.4-0.9,1.3-0.9,1.7c-0.4,0.4-0.4,1.3-0.4,1.3l3-2.6c0,0,0,0.4,0.4,0
		c0.4,0,0.4,0,0.4-0.4V51c0.4-0.4,1.3-1.3,1.7-1.7l-1.3-0.4C424.6,48.9,424.2,48.9,423.7,49.7z M421.6,48.4L421.6,48.4v-0.9V48.4
		L421.6,48.4z M423.3-25.4L423.3-25.4v-0.9V-25.4L423.3-25.4z M424.6,12.4h-0.9v1.3L424.6,12.4z M425.5,52.7L425.5,52.7l-1.3,0.4
		L425.5,52.7z M424.2,51.9l0.4-0.9l0,0C424.6,51.4,424.6,51.9,424.2,51.9z M424.6,54.5L424.6,54.5v-0.9V54.5L424.6,54.5z
		 M425.5,15.4L425.5,15.4l0.4,0.9L425.5,15.4z M425.5,54.5V54V54.5L425.5,54.5z M425.9,8.5l2.1-0.4l-2.1-0.4V8.5L425.9,8.5z
		 M426.3,13.7L426.3,13.7v-0.9V13.7L426.3,13.7z M426.3,51L426.3,51v-0.9V51L426.3,51z M426.7,17.1L426.7,17.1L426.7,17.1
		L426.7,17.1L426.7,17.1z M427.2,19.7L427.2,19.7v-0.9V19.7L427.2,19.7z M427.2,53.2v-0.4V53.2L427.2,53.2z M427.2,48L427.2,48
		L427.2,48L427.2,48z M427.6,7.2L427.6,7.2V6.4V7.2L427.6,7.2z M427.6,18L427.6,18v-0.9V18L427.6,18z M430.2,50.6
		c-0.4-0.4-0.9-0.4-1.3-0.4c-0.4,0-0.9,0-1.3,0l1.3,1.3L430.2,50.6z M427.6,19.7L427.6,19.7L427.6,19.7L427.6,19.7L427.6,19.7z
		 M428,53.6L428,53.6v-0.9V53.6L428,53.6z M428.5-28.4l5.2-0.4l-5.2-0.4V-28.4L428.5-28.4z M428.5-24.9v-0.4V-24.9L428.5-24.9z
		 M430.2,12.8l-0.4-0.9l-0.4,0.4L430.2,12.8z M429.3-27.5L429.3-27.5v-0.9V-27.5L429.3-27.5z M429.7,48.4l0.9-0.4h-0.4L429.7,48.4
		L429.7,48.4z M429.7,51.9L429.7,51.9L429.7,51.9L429.7,51.9L429.7,51.9z M430.2,43.7L430.2,43.7L430.2,43.7L430.2,43.7L430.2,43.7
		L430.2,43.7z M430.6-26.7L430.6-26.7L430.6-26.7L430.6-26.7L430.6-26.7z M431,14.5c0,0,0-0.4,0-0.9c0-0.4,0-0.4-0.4-0.4v1.3H431z
		 M430.6,15.8v1.3l0.4-0.4l0,0C430.6,16.7,430.6,16.3,430.6,15.8z M432.3,46.7l-0.9-1.3v0.4L432.3,46.7L432.3,46.7z M432.7-24.1
		h-0.4v0.4L432.7-24.1z M432.7-27.5c0,0.4,0,0.9,0,1.3c0.4,0,0.9,0,0.9-0.4s0-0.9,0-1.3C433.2-27.9,432.7-27.9,432.7-27.5z
		 M433.6,22.3v-0.4h-0.9C432.7,22.3,433.2,22.3,433.6,22.3z M433.2,14.5L433.2,14.5v-0.9V14.5L433.2,14.5z M433.2,45v-0.9V45
		L433.2,45z M433.6,49.7L433.6,49.7v-0.9V49.7L433.6,49.7z M434,42h-0.4v0.4L434,42z M434,24.4L434,24.4v-0.9V24.4L434,24.4z
		 M434,46.7l0.4-0.4l-0.4-0.4l-0.4,0.4L434,46.7z M434,51.9l3.9-0.4L434,51V51.9L434,51.9z M434.5,18.8L434.5,18.8V18V18.8
		L434.5,18.8z M435.3-25.8h-0.4v0.4L435.3-25.8z M435.8,13.3h-0.9v0.4C435.3,13.7,435.8,13.3,435.8,13.3z M436.2,22.7v-0.9
		c0-0.4,0-1.3-0.4-1.7c-0.4-0.4-0.4-0.9-1.3-1.3v0.9C434.9,21,435.3,22.3,436.2,22.7z M434.9,28.3c0.4,0,0.9-0.4,0.9-0.9L434.9,28.3
		L434.9,28.3z M436.2-21.1c0-0.4-0.4-0.4-0.9-0.4C435.8-21.5,436.2-21.1,436.2-21.1z M437,44.2l-0.4-0.4l-0.4,0.4H437z M436.2-26.2
		L436.2-26.2h0.4H436.2L436.2-26.2z M437.5,26.1v-1.7h-0.9C436.2,24.8,436.6,25.7,437.5,26.1z M437,29.1L437,29.1l-0.4-0.4v0.4H437z
		 M437.5,18L437.5,18L437.5,18L437.5,18L437.5,18z M437,39.4L437,39.4l0.4,1.3C437.5,39.9,437,39.4,437,39.4z M437.5,48
		c0-0.4,0-0.9-0.4-0.9L437.5,48L437.5,48z M437.9,21h0.4C438.3,20.5,438.3,20.5,437.9,21l-0.9-0.4C437.5,20.5,437.5,21,437.9,21z
		 M437.5-23.7L437.5-23.7v-0.9V-23.7L437.5-23.7z M438.3-27.5L438.3-27.5v-0.9V-27.5L438.3-27.5z M438.8-21.9v-0.9h-0.4L438.8-21.9
		L438.8-21.9z M442.6-20.2l-3.4-0.9l-0.4,0.9H442.6z M439.2,30L439.2,30L439.2,30L439.2,30z M439.2,44.2L439.2,44.2v-0.9V44.2
		L439.2,44.2z M438.8,44.6L438.8,44.6c0.4,0,0.9,0,0.9-0.4l0,0L438.8,44.6z M440.9,22.3c0.4,0.4,0.9,0.4,1.7,0.4
		c0-0.9-0.4-1.3-1.3-1.3v-0.9l-1.7,0.9v0.4l0.4,0.9L440.9,22.3z M439.2,39.9l0.9-0.4l-0.4-0.9C439.2,39.4,439.2,39.4,439.2,39.9z
		 M439.6,17.5L439.6,17.5l0.4-0.4L439.6,17.5L439.6,17.5z M441.3,25.7l-1.7-0.4v0.9L441.3,25.7z M440,46.3v-0.9V46.3L440,46.3z
		 M439.6-24.1L439.6-24.1v-0.4V-24.1z M441.3-21.9v-1.3l-0.9,0.9h0.9V-21.9z M440.9,27.8L440.9,27.8V27V27.8L440.9,27.8z
		 M441.3-25.4c0.4,0.4,0.9,0.4,1.3,0.9c0-0.4,0-0.9-0.4-1.7c-0.4-0.9-0.9-0.9-1.3-0.9C440.9-25.8,440.9-25.4,441.3-25.4z M442.2,30
		l-0.9-2.1l-0.4,2.1H442.2L442.2,30z M442.6,43.7L442.6,43.7l-1.3,1.7L442.6,43.7z M441.8,43.7l0.4-0.4l-0.4-0.4l-0.4,0.4
		L441.8,43.7z M442.6,24.4L442.6,24.4v-0.9V24.4L442.6,24.4z M442.6,33.4L442.6,33.4v-0.9V33.4L442.6,33.4z M442.6,37.3L442.6,37.3
		v-0.9V37.3L442.6,37.3z M443.1,33.9V33V33.9L443.1,33.9z M443.1,42.9L443.1,42.9V42V42.9L443.1,42.9z M443.9,21.8L443.9,21.8V21
		V21.8L443.9,21.8z M445.2-23.7l0.4-0.4l-0.9-0.4C444.3-24.1,444.8-23.7,445.2-23.7z M445.6,30.4v-0.9h-0.4
		C445.2,30,445.2,30.4,445.6,30.4z M445.6,33.4L445.6,33.4v-0.9V33.4L445.6,33.4z M446.1,27v-0.9h-0.4L446.1,27L446.1,27z
		 M446.5,34.3v-0.9h-0.4C446.1,33.9,446.1,34.3,446.5,34.3z M446.5,27.8L446.5,27.8V27V27.8L446.5,27.8z M446.9,28.7L446.9,28.7
		v-0.9V28.7L446.9,28.7z"/>
</g>
<path fill="#FFFFFF" d="M470.1,24.8h7.7v-9.4h60.9l13.3-4.3c0.9-0.4,0.9-0.9,0-1.3l-13.3-4.3l0,0h-60.9v-9.4h-7.7V24.8z"/>
<g>
	<polygon fill="#FFFFFF" points="-319.6,4.7 -307.6,16.3 -293.4,16.3 -305.4,4.7 	"/>
	<path fill="#FFFFFF" d="M-281.8,4.7l11.2,11.2v12c5.2,0,9-6.9,9.4-15.9h-4.3V9h4.3c-0.4-9-4.3-15.9-9.4-15.9V4.7H-281.8z"/>
	<polygon fill="#FFFFFF" points="-300.7,4.7 -289.1,16.3 -275,16.3 -286.6,4.7 	"/>
	<path fill="#FFFFFF" d="M-326.9,4.7l-16.3,5.2c-1.3,0.4-1.3,0.9,0,1.3l16.3,5.2h13.7l-12-11.6H-326.9z"/>
</g>
</svg>
