<?xml version="1.0" encoding="utf-8"?>
<!-- Generator: Adobe Illustrator 17.1.0, SVG Export Plug-In . SVG Version: 6.00 Build 0)  -->
<!DOCTYPE svg PUBLIC "-//W3C//DTD SVG 1.1//EN" "http://www.w3.org/Graphics/SVG/1.1/DTD/svg11.dtd">
<svg version="1.1" id="Layer_1" xmlns="http://www.w3.org/2000/svg" xmlns:xlink="http://www.w3.org/1999/xlink" x="0px" y="0px"
	 width="668.4px" height="177.9px" viewBox="0 0 668.4 177.9" enable-background="new 0 0 668.4 177.9" xml:space="preserve">
<pattern  x="234" y="108" width="125" height="125" patternUnits="userSpaceOnUse" id="XMLID_1_" viewBox="1.7 -125 125 125" overflow="visible">
	<g>
		<polygon fill="none" points="1.7,0 126.7,0 126.7,-125 1.7,-125 		"/>
		<g>
			<polygon fill="none" points="1.7,-125 126.7,-125 126.7,0 1.7,0 			"/>
			<path fill="none" d="M1.7,0h125v-125H1.7V0z M1.7-125h125V0H1.7V-125z M1.7-125h125V0H1.7V-125z"/>
			<g>
				<path fill="#FFFFFF" d="M23.3-89.7c-0.3,0.5-0.5,0.9-0.7,1.2c-0.8,0.8-1.7,1.7-2.6,2.4c-0.3,0.2-1,0.3-1.3,0.1
					c-0.2-0.2-0.4-0.9-0.2-1.2c0.5-1,1.1-2,1.9-2.8c0.4-0.4,1.3-0.5,2-0.6C22.7-90.6,23-90,23.3-89.7z M81.4-38.1
					c-1,0.4-1.7,0.8-2,0.7c-1.1-0.7-2.1-1.6-3-2.5c-0.2-0.2-0.1-1,0.1-1.4c0.1-0.2,0.9-0.4,1.1-0.3C78.7-40.6,79.8-39.5,81.4-38.1z
					 M104.9-98.3c-0.7,1-1.3,2-2.1,2.9c-0.4,0.4-1.1,0.6-1.7,0.8c-0.1,0-0.6-0.5-0.5-0.7c0.2-0.5,0.5-1,0.8-1.4
					c0.5-0.7,1-1.4,1.7-1.9c0.5-0.3,1.2-0.3,1.8-0.5C104.9-99.1,104.9-98.3,104.9-98.3z M94.1-56.3c-1,0.6-1.5,1.3-2.1,1.3
					c-0.4,0-0.9-0.8-1.3-1.2c0.5-0.5,1-1.2,1.6-1.3C92.6-57.6,93.2-56.9,94.1-56.3z M88-104.8c-1,0.7-1.5,1.3-1.9,1.3
					c-0.5-0.1-1-0.7-1.2-1.2c-0.1-0.3,0.6-1.1,0.8-1.1C86.3-105.7,86.9-105.3,88-104.8z M24.7-82.6c0.6,0.8,1.3,1.3,1.3,1.7
					c0,0.4-0.8,0.8-1.2,1.3c-0.4-0.5-0.9-0.9-1.1-1.4C23.6-81.4,24.2-81.9,24.7-82.6z M89.3-6.6c0.3,0.6,1,1.2,0.9,1.7
					c-0.1,0.6-0.8,1-1.3,1.6c-0.3-0.4-0.9-0.8-1-1.2c-0.1-0.5,0.4-1.1,0.6-1.6C88.8-6.3,89-6.5,89.3-6.6z M105.7-19.4
					c-0.7,0.2-1.4,0.4-2.1,0.7l-0.1-2.2l2.2,0.4C105.6-20.2,105.6-19.8,105.7-19.4z M33.4-80.9c-1.1,0.6-1.6,1.2-2.1,1.2l-1.5-0.9
					c0.5-0.3,1-0.8,1.5-0.9C31.8-81.7,32.3-81.3,33.4-80.9z M120.9-4.4l-2.1,0.9l-0.4-1.8l2.2-0.1C120.7-5.1,120.8-4.8,120.9-4.4z
					 M44.9-86.2l-2.1,0.7l-0.3-1.6l2.2-0.3C44.7-87.1,44.8-86.6,44.9-86.2z M23.7-40.8c-0.5,0.4-1.1,0.8-1.6,1.1l-1.2-1.9
					c0.2-0.2,0.4-0.4,0.5-0.6l2.1,0.7L23.7-40.8z M89-76.1c-0.5-0.8-1-1.2-1-1.8c0-0.3,0.7-0.7,1-1.1c0.4,0.5,1,0.8,1.2,1.4
					C90.3-77.3,89.6-76.8,89-76.1z M69.6-80.8c-0.8,0.5-1.3,1-1.8,1c-0.3,0-0.7-0.7-1.1-1c0.5-0.4,0.9-1,1.4-1.2
					C68.4-82,68.9-81.3,69.6-80.8z M27.9-76.1c-0.5-0.8-1.2-1.4-1.1-1.6c0.3-0.5,0.9-0.9,1.3-1.3c0.3,0.4,1,0.8,0.9,1.2
					C29-77.3,28.5-76.9,27.9-76.1z M87.9-80.5c-1.1,0.4-1.6,0.8-2.1,0.8c-0.3,0-0.6-0.7-0.9-1.1c0.4-0.3,0.8-0.8,1.3-0.7
					C86.5-81.5,87-81,87.9-80.5z M83-94c-0.5-0.6-1.1-1.1-1.1-1.3c0.2-0.5,0.6-1.1,1-1.4c0.2-0.1,1.1,0.5,1.1,0.6
					C83.8-95.5,83.4-94.9,83-94z M17.5-65.7c-0.8,0.5-1.3,0.9-1.8,1.2c-0.1,0-0.7-0.7-0.7-1c0.1-0.5,0.5-0.9,0.9-1.3L17.5-65.7z
					 M47.7-71.2l-2,0.3c0-0.5,0-1.1-0.1-1.6l2,0.1C47.7-72,47.7-71.6,47.7-71.2z M44.7-123.4c-0.5,0.5-0.9,0.8-1.3,1.1
					c-0.3-0.4-0.9-0.9-0.8-1.3c0.1-0.4,0.7-0.7,1.1-1.1C43.9-124.3,44.2-123.9,44.7-123.4z M46.3-115.6c0.5,0.9,1.1,1.3,1,1.6
					c-0.1,0.4-0.6,0.9-1.1,0.9c-0.3,0.1-0.8-0.4-1.2-0.7C45.4-114.2,45.7-114.7,46.3-115.6z M55.3-121.7c-0.5-0.7-1-1.2-0.9-1.3
					c0.3-0.5,0.8-0.9,1.3-1.3c0.3,0.3,0.9,0.8,0.8,1C56.3-122.9,55.8-122.4,55.3-121.7z M122.3-118.5c0.5,0.7,1,1.2,0.9,1.5
					c-0.1,0.4-0.7,0.9-1,0.9c-0.4,0-1.1-0.6-1.1-0.9C121.1-117.4,121.7-117.8,122.3-118.5z M105.6-117.4c-0.8,0.6-1.2,1-1.7,1.2
					c-0.1,0-0.8-0.6-0.7-0.9c0.1-0.5,0.5-0.9,0.8-1.4C104.3-118.2,104.8-117.9,105.6-117.4z M91.1-51.5c0.9,0.4,1.6,0.7,2.3,1
					c-0.3,0.4-0.5,1-0.8,1C91.4-49.2,90.8-49.7,91.1-51.5z M23.6-75l1.9-0.6l0.4,1.5c-0.7,0.1-1.4,0.2-2.1,0.2
					C23.8-74.3,23.7-74.6,23.6-75z M119.6-109.3c0.4,0.7,1,1.2,0.9,1.5c-0.1,0.4-0.7,0.7-1.2,1.1c-0.4-0.4-0.9-0.8-1-1.3
					C118.4-108.3,119.1-108.7,119.6-109.3z M14.9-62.1c-1,0.3-1.5,0.6-2.1,0.7c-0.2,0-0.5-0.5-0.8-0.8c0.5-0.4,0.9-0.9,1.5-1
					C13.7-63.3,14.2-62.8,14.9-62.1z M10.1-100.4c-0.5-0.8-0.8-1.3-1.1-1.8c0.4-0.2,0.8-0.7,1.1-0.6c0.5,0.1,0.9,0.6,1.3,0.9
					C11-101.5,10.7-101.1,10.1-100.4z M34.3-81.7c-0.5-0.7-1.1-1.1-1-1.4c0.2-0.5,0.6-1,0.9-1.5c0.3,0.3,1,0.6,0.9,0.9
					C35.1-83.1,34.7-82.6,34.3-81.7z M76.4-51.6c-0.2-0.5-0.5-1.1-0.5-1.6c0-0.3,0.6-1,0.9-0.9c0.5,0,0.9,0.5,1.4,0.7
					c-0.3,0.4-0.6,0.9-0.8,1.3C77-52,76.7-51.8,76.4-51.6z M87.3-38.4c-0.7,0.5-1,1-1.5,1.1c-0.2,0-0.9-0.6-0.8-0.9
					c0.1-0.5,0.5-0.9,0.9-1.3C86.2-39.2,86.6-38.9,87.3-38.4z M48.1-37.8c0.6-0.6,1-1.1,1.4-1.2s0.8,0.5,1.2,0.8
					c-0.4,0.4-0.7,0.9-1.1,1.1C49.3-37.1,48.8-37.5,48.1-37.8z M95.4-73c0.2,0.4,0.6,0.9,0.5,1.3c-0.1,0.4-0.5,0.8-0.8,1.2
					c-0.3-0.3-1-0.5-1-0.8c0-0.4,0.3-0.9,0.6-1.3C94.9-72.7,95.1-72.9,95.4-73z M3.8-67.3c0.5,0.8,1,1.2,1,1.6
					c0,0.4-0.5,0.8-0.8,1.1c-0.4-0.3-1-0.6-1.1-1C2.9-66,3.4-66.5,3.8-67.3z M105.5-62.7c-0.7,0.5-1.1,1-1.5,1.1
					c-0.3,0-0.9-0.7-0.9-1c0.1-0.5,0.6-0.9,0.9-1.3C104.4-63.5,104.8-63.2,105.5-62.7z M96.4-83.9c-0.5,0.5-0.9,1-1.4,1.1
					c-0.3,0-0.7-0.7-1.1-1c0.4-0.3,0.8-0.9,1.2-1C95.5-84.9,95.9-84.3,96.4-83.9z M119.8-121.5c0.4,0.7,0.9,1.2,0.8,1.4
					c-0.3,0.4-0.7,0.8-1.2,1c-0.2,0.1-0.9-0.7-0.9-0.8C118.8-120.4,119.2-120.9,119.8-121.5z M74.1-42.9c-0.4-0.6-0.8-1-0.8-1.3
					c0.1-0.5,0.5-0.9,0.8-1.3c0.4,0.4,1,0.7,1.1,1.1C75.2-44,74.6-43.5,74.1-42.9z M13.3-48.5c-0.4-0.8-0.7-1.3-0.7-1.8
					c0-0.3,0.5-0.6,0.8-1c0.4,0.4,1,0.7,1,1.1C14.4-49.7,13.8-49.3,13.3-48.5z M75.6-50.2c-0.8,0.4-1.4,0.9-1.8,0.8s-0.7-0.7-1-1.1
					c0.4-0.3,0.8-0.8,1.2-0.7C74.4-51.1,74.8-50.7,75.6-50.2z M47.5-9.9l-2.1-0.3l0.2-1.4l2.1,0.8C47.7-10.5,47.6-10.2,47.5-9.9z
					 M55.9-75.9c0.4,0.7,0.9,1.3,0.8,1.4c-0.4,0.4-0.9,0.7-1.5,1c-0.1,0-0.7-0.6-0.6-0.8C54.9-74.9,55.3-75.3,55.9-75.9z M78.2-47.6
					c-0.7,0.6-1.1,1-1.6,1.3c-0.1,0.1-0.8-0.5-0.8-0.6c0.2-0.5,0.6-1,1-1.4C76.8-48.5,77.5-48,78.2-47.6z M42.2-107.4
					c-0.8,0.3-1.4,0.8-1.7,0.6c-0.4-0.2-0.6-0.9-0.6-1.4c0-0.2,0.8-0.7,1-0.6C41.3-108.6,41.6-108.1,42.2-107.4z M110.4-109.6
					c-0.5-0.6-0.8-1-1.2-1.4c0.4-0.3,0.8-0.8,1.3-0.8c0.3,0,1,0.6,1,0.8C111.4-110.6,110.9-110.2,110.4-109.6z M108.4-16.7
					c-0.4,0.5-0.7,0.8-1,1.2c-0.4-0.3-1-0.6-1.1-1.1c-0.1-0.3,0.5-0.8,0.8-1.2C107.4-17.5,107.8-17.2,108.4-16.7z M28.2-30.6
					c0.5,0.9,1,1.3,0.9,1.7S28.4-28.1,28-28c-0.2,0-0.8-0.6-0.8-0.9C27.2-29.4,27.7-29.8,28.2-30.6z M42.2-23c-0.8,0.5-1.2,1-1.7,1
					c-0.4,0-0.8-0.5-1.2-0.7c0.4-0.4,0.7-1,1.1-1.1C40.9-23.9,41.4-23.4,42.2-23z M91.8-24.6c-0.4-0.6-0.9-1-0.8-1.3
					c0.1-0.4,0.6-0.8,1-1c0.2-0.1,0.9,0.6,0.9,0.8C92.7-25.7,92.3-25.3,91.8-24.6z M70.7-82c-0.5-0.7-1-1.1-0.9-1.3
					c0.1-0.5,0.6-0.8,0.9-1.2c0.3,0.3,0.9,0.6,0.9,1S71.1-82.7,70.7-82z M84.2-101.9c-0.7,0.4-1.2,0.7-1.7,1
					c-0.2-0.4-0.7-0.8-0.6-1.2c0.1-0.3,0.6-0.7,1-0.7C83.2-102.8,83.6-102.3,84.2-101.9z M114.6-101.8l-1.9,0.6l-0.3-1.3h2.1
					C114.5-102.3,114.5-102.1,114.6-101.8z M116.6-0.2c-0.4-0.7-0.9-1.2-0.8-1.4c0.2-0.4,0.7-0.7,1.1-1.1c0.3,0.3,0.8,0.7,0.7,1
					C117.6-1.2,117.1-0.9,116.6-0.2z M122.6-0.4c-0.5-0.5-1.1-1-1-1.2c0.2-0.4,0.6-0.9,1.1-1.1c0.2-0.1,1,0.6,1,0.8
					C123.5-1.3,123.1-0.9,122.6-0.4z M101.9-36.2c-0.1,0.6-0.2,1.3-0.5,1.9c0,0.1-0.8-0.1-1.2-0.2l0.9-2
					C101.3-36.4,101.6-36.3,101.9-36.2z M98.1-106.5c0.4,0.7,1,1.1,0.9,1.4c-0.1,0.5-0.7,0.8-1,1.2c-0.3-0.3-0.9-0.7-0.9-1
					C97.1-105.5,97.6-105.9,98.1-106.5z M89.4-42.5c0.2,0.6,0.5,1.3,0.6,1.9c0,0.1-0.7,0.3-1,0.4l-0.6-1.9
					C88.7-42.3,89.1-42.4,89.4-42.5z M15.9-15.5c-0.4-0.6-0.9-1.1-0.8-1.3c0.2-0.4,0.6-0.8,1-1c0.2-0.1,0.9,0.6,0.9,0.8
					C16.8-16.5,16.4-16.2,15.9-15.5z M59.9-77.7c-0.7,0.5-1.1,0.9-1.6,1.1c-0.1,0-0.7-0.7-0.7-1c0-0.3,0.6-0.8,0.9-0.8
					C58.9-78.6,59.3-78.1,59.9-77.7z M92.2-18.6c-0.5-0.6-1-1-1.2-1.4c-0.1-0.2,0.6-0.9,0.7-0.9c0.4,0.1,0.9,0.5,1.1,0.9
					C93-19.7,92.5-19.2,92.2-18.6z M20.5-123.2c-0.7,0.5-1.2,1-1.3,0.9c-0.4-0.3-0.7-0.8-1.1-1.2c0.3-0.2,0.6-0.7,0.9-0.7
					C19.4-124,19.8-123.6,20.5-123.2z M80.1-124.4c0.5,0.6,0.8,0.9,1.1,1.3c-0.4,0.3-0.7,0.8-1.2,1c-0.2,0.1-0.9-0.6-0.9-0.8
					C79.2-123.4,79.6-123.8,80.1-124.4z M23.5-71.4c-0.6,0.4-1,0.9-1.3,0.8c-0.4-0.1-0.9-0.5-1-1c-0.1-0.2,0.6-0.9,0.7-0.9
					C22.4-72.3,22.8-71.9,23.5-71.4z M64.6-121.4c0.4,0.5,0.9,0.9,0.9,1.2c0,0.4-0.5,0.7-0.7,1.1c-0.4-0.4-0.9-0.7-1.1-1.1
					C63.6-120.4,64.2-120.9,64.6-121.4z M58.7-70.2c-0.5-0.6-1.1-1-1-1.3c0.1-0.4,0.6-0.8,0.9-1.2c0.3,0.3,0.9,0.6,0.9,0.8
					C59.4-71.4,59-71,58.7-70.2z M91.9-84.9c-0.4-0.8-0.8-1.3-0.7-1.6c0.1-0.4,0.6-0.9,1.1-1.1c0.2-0.1,1,0.6,1,0.8
					C93.2-86.3,92.7-86,91.9-84.9z M41.8-101.4c-0.7,0.1-1.3,0.2-2,0.2v-1.3c0.7,0.1,1.3,0.2,2,0.2
					C41.8-102.3,41.8-101.4,41.8-101.4z M107.2-30.3c0.4,0.6,0.9,1,0.8,1.3c-0.1,0.4-0.6,0.6-0.9,0.9c-0.3-0.3-0.8-0.7-0.8-1.1
					C106.2-29.5,106.7-29.8,107.2-30.3z M40.8-36.1c0.2,0.6,0.4,1.2,0.4,1.9l-0.9,0.3c-0.3-0.6-0.4-1.2-0.6-1.8
					C40-35.9,40.4-36,40.8-36.1z M11.2-29.2c-0.5,0.5-1,1.1-1.2,1c-0.4-0.2-0.7-0.7-1.1-1.1c0.3-0.3,0.7-0.7,1-0.7
					C10.4-30,10.7-29.5,11.2-29.2z M92.2-36.9c-0.5-0.5-0.9-0.8-1.2-1.1c0.3-0.4,0.7-0.8,1-1.1c0.3,0.3,0.8,0.6,0.8,0.9
					C92.9-37.8,92.5-37.4,92.2-36.9z M12.9-94c0.4,0.6,1,1,0.9,1.3c-0.1,0.3-0.6,0.6-1,0.9c-0.3-0.3-0.7-0.7-0.7-1
					C12-93.1,12.5-93.5,12.9-94z M7-97.5c-0.4-0.6-0.8-1.1-1-1.5c0-0.1,0.7-0.7,0.8-0.7c0.4,0.3,0.8,0.7,1.1,1.2L7-97.5z M99.3-123
					c-0.7,0.4-1.2,0.7-1.7,0.7c-0.2,0-0.6-0.7-0.6-1.1c0-0.3,0.6-0.7,0.9-0.7C98.4-124,98.7-123.5,99.3-123z M85.8-12.6
					c-0.4-0.7-0.7-1.1-0.8-1.6c0-0.2,0.7-0.6,1.1-0.6c0.3,0,0.8,0.6,0.8,0.9C86.9-13.9,85.8-12.6,85.8-12.6z M117.5-25.6
					c-0.6,0.3-1,0.7-1.3,0.6s-0.6-0.5-0.9-0.8l1.2-1C116.7-26.5,117-26.2,117.5-25.6z M53-42.1c0.1,0.6,0.2,1.2,0.3,1.9H52
					c0-0.6,0.1-1.2,0.1-1.9H53z M57.7-15.7c0.1-0.6,0.2-1.3,0.4-1.9c0,0,0.7,0.1,1.1,0.2l-0.6,1.9C58.3-15.5,58-15.6,57.7-15.7z
					 M100-16.5c0.6-0.4,1.2-0.8,1.8-1.1c0.1,0.3,0.4,0.9,0.4,1c-0.6,0.4-1.2,0.6-1.8,0.9C100.2-16,100.1-16.3,100-16.5z M123.6-62.5
					c-0.5,0.5-0.9,1-1.1,1c-0.4-0.2-0.8-0.6-1.2-1c0.4-0.3,0.7-0.8,1.1-0.8C122.7-63.3,123.1-62.9,123.6-62.5z M23.4-47.1
					c-0.5,0.4-0.9,0.9-1,0.8c-0.5-0.2-0.8-0.6-1.2-1c0.3-0.3,0.7-0.9,0.8-0.9C22.4-48,22.8-47.6,23.4-47.1z M114.4-113.8
					c-0.6,0.3-1,0.8-1.3,0.7l-0.9-0.9c0.3-0.3,0.7-0.8,1-0.8C113.6-114.8,113.9-114.3,114.4-113.8z M52.6-112.8
					c-0.5-0.6-1-0.9-1.1-1.2c0-0.3,0.4-0.9,0.7-0.9c0.3-0.1,1.1,0.4,1.1,0.5C53.3-113.9,53-113.5,52.6-112.8z M100-59.4
					c0.5-0.4,0.8-0.9,1.1-0.9c0.4,0,0.8,0.4,1.1,0.7l-1,1.2C100.9-58.7,100.6-59,100-59.4z M60.2-46.7c-0.5,0.1-1,0.5-1.3,0.4
					c-0.4-0.1-0.8-0.6-1.2-1c0.3-0.3,0.6-0.8,1-0.9c0.3-0.1,0.7,0.4,1,0.6C59.8-47.2,60-46.9,60.2-46.7z M72-35.2
					c-0.6,0.4-1,1-1.3,0.9c-0.4-0.1-0.6-0.6-0.9-1c0.3-0.3,0.7-0.7,1-0.8C71.1-36,71.4-35.6,72-35.2z M78-35
					c-0.5,0.4-0.9,0.9-1.2,0.8c-0.4,0-0.7-0.5-1-0.8c0.3-0.4,0.6-0.9,0.9-1C77-35.9,77.4-35.4,78-35z M62.9-56.1
					c-0.6,0.4-1.1,0.8-1.2,0.7c-0.4-0.3-0.8-0.7-1.1-1.1l0.8-0.7C61.9-57,62.3-56.6,62.9-56.1z M12.8-33.4c0.5,0.6,0.9,1,1.1,1.5
					c0.1,0.2-0.4,0.6-0.7,0.8c-0.4-0.4-0.9-0.7-1.2-1.1C12-32.3,12.4-32.8,12.8-33.4z M81.1-105.1c-0.5,0.5-1,1.1-1.2,1
					c-0.4-0.2-0.7-0.7-1.1-1c0.3-0.3,0.6-0.7,1-0.7C80.1-105.9,80.5-105.5,81.1-105.1z M64.8-109.2c0.4,0.5,0.8,0.9,0.8,1.2
					c0,0.4-0.4,0.7-0.7,1l-1.2-1C64-108.3,64.3-108.7,64.8-109.2z M53.7-107.9c-0.6,0.4-1.1,0.7-1.6,0.8c-0.1,0-0.4-0.7-0.6-1
					c0.5-0.3,0.9-0.6,1.4-0.8C53-108.9,53.3-108.3,53.7-107.9z M8.5-108c0.7-0.4,1-0.9,1.3-0.8c0.4,0,0.7,0.4,1.1,0.7
					c-0.3,0.4-0.5,1.1-0.8,1.1C10.1-107,8.5-108,8.5-108z M105.4-74.6c-0.6,0.4-1.1,1-1.3,0.9c-0.4-0.2-0.7-0.7-1-1.1
					c0.4-0.2,0.8-0.6,1.1-0.6C104.5-75.5,104.9-75,105.4-74.6z M82.9-72.8c0.4,0.5,0.8,0.9,0.8,1.2c0,0.4-0.5,0.7-0.7,1
					c-0.4-0.3-0.9-0.6-1-0.9S82.5-72.2,82.9-72.8z M122-121.6c-0.3-0.5-0.7-0.9-0.6-1.1c0.2-0.5,0.6-0.9,0.9-1.3
					c0.3,0.3,0.9,0.7,0.8,0.9C123-122.6,122.5-122.2,122-121.6z M35.6-95.7c-0.5,0.4-0.9,0.9-1,0.8c-0.5-0.2-0.8-0.6-1.2-1
					c0.3-0.3,0.6-0.9,0.8-0.8C34.5-96.5,34.9-96.1,35.6-95.7z M46.3-94.5c-0.4-0.5-1-0.9-0.9-1c0.2-0.4,0.6-0.9,1-1.2
					c0.1-0.1,0.9,0.5,0.8,0.7C47.1-95.5,46.7-95.1,46.3-94.5z M36-92.2c1-0.7,1.4-1.1,1.6-1c0.4,0.2,0.7,0.6,1.1,0.9
					c-0.3,0.3-0.6,0.8-1,0.8C37.2-91.4,36.8-91.8,36-92.2z M101-42.3l0.9,1c-0.3,0.4-0.7,0.7-1.1,1.1c-0.2-0.3-0.7-0.6-0.6-0.9
					C100.2-41.4,100.6-41.8,101-42.3z M113-94.6c-0.3-0.4-0.8-0.8-0.7-1c0.1-0.4,0.5-0.7,0.8-1.1c0.3,0.3,0.9,0.6,0.9,0.9
					C114-95.4,113.4-95.1,113-94.6z M79.7-85.4l-0.9-1c0.2-0.4,0.6-0.8,1-1.1c0.1-0.1,0.9,0.5,0.8,0.7C80.5-86.4,80.1-86,79.7-85.4z
					 M14.7-59.5c0.5-0.4,0.9-0.9,1-0.8c0.5,0.2,0.8,0.6,1.2,1c-0.3,0.3-0.6,0.9-0.7,0.8C15.7-58.6,15.3-59,14.7-59.5z M19.2-39.3
					c0.3,0.4,0.8,0.8,0.8,1c-0.1,0.4-0.5,0.7-0.8,1.1l-1-0.9C18.5-38.5,18.8-38.8,19.2-39.3z M104-36.8c-0.4-0.7-0.8-1.1-1-1.6
					c0-0.1,0.6-0.7,0.8-0.6c0.4,0.1,0.9,0.5,1,0.8C105-37.9,104.5-37.5,104-36.8z M96.1-35.1c-0.5,0.4-0.8,0.8-1.2,1
					c-0.2,0.1-0.6-0.4-0.9-0.6c0.3-0.4,0.6-0.9,1-1.1C95.1-36,95.6-35.5,96.1-35.1z M99.3-56.3c-0.7,0.4-1.1,0.8-1.6,0.9
					c-0.2,0-0.7-0.6-0.7-0.7c0.2-0.4,0.5-0.9,0.9-1C98.2-57.2,98.7-56.7,99.3-56.3z M19.2-58c0.4,0.7,0.8,1.2,0.7,1.6
					c0,0.3-0.6,0.6-0.9,0.9c-0.3-0.3-0.7-0.6-0.9-1C18.1-56.7,18.5-57.1,19.2-58z M96.2-77.8c-0.5,0.5-0.8,1-1.2,1
					c-0.3,0-0.6-0.6-0.9-0.9c0.4-0.3,0.7-0.7,1.1-0.8C95.4-78.6,95.7-78.1,96.2-77.8z M77.9-16.9c-0.4,0.4-0.9,1-1,0.9l-1.2-1
					c0.3-0.3,0.6-0.7,0.8-0.7C77-17.7,77.3-17.3,77.9-16.9z M17.4-108.1c-0.6,0.5-1,1-1.3,1c-0.4,0-0.8-0.5-1-0.9
					c-0.1-0.2,0.4-0.9,0.5-0.8C16.1-108.8,16.6-108.5,17.4-108.1z M29.5-89.8c-0.6,0.4-1,0.8-1.5,0.9c-0.2,0-0.5-0.5-0.7-0.8l1.2-1
					L29.5-89.8z M95.9-89.5c-0.4,0.3-0.8,0.6-1.2,0.7c-0.2,0-0.5-0.5-0.7-0.8c0.4-0.3,0.7-0.8,1.2-1c0.3-0.1,0.8,0.2,1.2,0.4
					C96.2-89.9,96.1-89.7,95.9-89.5z M100.8-91c0.5,0.5,1,0.8,1,1.2c0,0.3-0.6,0.6-0.9,0.9c-0.3-0.4-0.7-0.7-0.8-1.1
					C100.1-90.1,100.5-90.5,100.8-91z M108.3-89.6c-0.5,0.3-1,0.8-1.1,0.7c-0.4-0.3-0.7-0.8-1-1.2c0.3-0.2,0.7-0.6,0.9-0.5
					C107.5-90.5,107.8-90.1,108.3-89.6z M94.8-18.1c0.5,0.5,1,0.8,1,1.2c0,0.3-0.6,0.6-0.9,0.9c-0.3-0.4-0.7-0.7-0.8-1.1
					C94-17.3,94.4-17.6,94.8-18.1z M87.2-111c-0.6,0.4-1,0.8-1.5,0.9c-0.2,0-0.5-0.5-0.8-0.8l1.2-1C86.3-112,86.7-111.5,87.2-111z
					 M35.6-77.7c-0.7,0.4-1.1,0.8-1.4,0.8c-0.4-0.1-0.7-0.6-1-0.9c0.3-0.2,0.7-0.7,1-0.7C34.6-78.5,35-78.1,35.6-77.7z M75.1-8
					c-0.6,0.5-1,0.9-1.4,1.1c-0.2,0.1-0.6-0.4-0.9-0.7c0.3-0.4,0.6-0.8,1.1-1.1C74-8.8,74.5-8.4,75.1-8z M53.8-10.7
					c-0.5,0.4-0.9,0.9-1,0.8c-0.5-0.2-0.8-0.6-1.2-0.9c0.3-0.3,0.6-0.9,0.7-0.8C52.7-11.5,53.1-11.1,53.8-10.7z M22.8-102.8v2
					c-0.3,0-0.8,0.1-0.8,0c-0.2-0.6-0.3-1.2-0.4-1.9C21.6-102.7,22.8-102.8,22.8-102.8z M120.4-16.9c-0.5,0.4-1,0.9-1.1,0.8
					c-0.4-0.3-0.7-0.7-1.1-1.1c0.3-0.2,0.6-0.7,0.9-0.6C119.6-17.7,119.9-17.2,120.4-16.9z M114.4-16.9c-0.5,0.4-0.8,0.8-1.2,0.9
					c-0.2,0.1-0.6-0.4-0.9-0.6c0.3-0.4,0.6-0.9,1-1.1L114.4-16.9z M84-4.6c-0.5,0.3-1,0.8-1.1,0.7c-0.4-0.3-0.7-0.8-1-1.2
					c0.3-0.2,0.7-0.6,0.9-0.5C83.2-5.5,83.5-5.1,84-4.6z M92.9-74.3l-1.7,0.9c-0.1-0.7-0.1-1.1-0.2-1.6c0.6,0,1.2-0.1,1.9-0.1
					C92.8-74.9,92.8-74.6,92.9-74.3z M110.2-115.7c-0.4-0.6-0.8-1-0.9-1.5c0-0.1,0.7-0.7,0.8-0.7c0.4,0.3,0.8,0.7,1,1.2
					C111.1-116.6,110.7-116.2,110.2-115.7z M82.9-21.5c-0.4-0.7-0.8-1.2-0.7-1.5c0.1-0.4,0.7-0.6,1-0.9c0.2,0.3,0.6,0.7,0.5,1
					C83.7-22.5,83.3-22.2,82.9-21.5z M107.3-24.1c0.3,0.4,0.8,0.8,0.8,1c-0.1,0.4-0.5,0.7-0.8,1.1c-0.3-0.3-0.9-0.6-0.9-0.9
					C106.3-23.3,106.8-23.6,107.3-24.1z M106.5-118.6c-0.1-0.4-0.4-0.8-0.3-1.2c0.1-0.4,0.5-0.8,0.7-1.2l1.1,0.8l-0.8,1.1
					C107-118.9,106.7-118.7,106.5-118.6z M81.2-26.2c-0.6,0.5-1,0.9-1.4,1.1c-0.2,0.1-0.6-0.4-0.9-0.7c0.4-0.4,0.7-0.8,1.1-1.1
					C80.1-27,80.6-26.6,81.2-26.2z M68.9-26c-0.7,0.4-1.1,0.9-1.4,0.8c-0.4-0.1-0.7-0.6-0.8-1c-0.1-0.2,0.5-0.8,0.6-0.8
					C67.8-26.8,68.2-26.4,68.9-26z M47.7-40.9c-0.8,0.3-1.2,0.6-1.7,0.7c-0.1,0-0.6-0.7-0.5-0.8c0.2-0.4,0.6-0.9,1-0.9
					C46.7-42,47.1-41.5,47.7-40.9z M38.5-50.3c-0.6,0.4-1,0.8-1.3,0.8s-0.5-0.7-0.8-1c0.4-0.2,0.8-0.6,1.2-0.7
					C37.8-51.2,38.1-50.7,38.5-50.3z M49.5-21.7c0.4,0.8,0.8,1.2,0.8,1.7c0,0.3-0.6,0.6-0.9,1c-0.3-0.3-0.7-0.6-0.9-1
					C48.4-20.3,48.9-20.7,49.5-21.7z M20.5-19.8c-0.4,0.2-0.9,0.5-1.3,0.5s-0.7-0.4-1.1-0.6c0.3-0.3,0.5-0.9,0.8-1s0.8,0.3,1.2,0.4
					C20.2-20.2,20.3-20,20.5-19.8z M70.2-48.4c0.7,0.3,1.4,0.6,2,0.9l-0.3,0.8l-2.2-0.7C69.9-47.7,70-48,70.2-48.4z M31-97.6
					c-0.3-0.4-0.8-0.8-0.7-1c0.1-0.4,0.5-0.7,0.8-1.1c0.3,0.3,0.9,0.6,0.9,0.9C32-98.4,31.5-98.1,31-97.6z M103.5-109.9
					c-0.1-0.5-0.5-0.9-0.4-1.3c0.1-0.4,0.6-0.8,0.9-0.9c0.3,0,0.8,0.4,0.9,0.8c0.1,0.3-0.4,0.7-0.7,1
					C104-110.2,103.8-110,103.5-109.9z M119.3-113.1c-0.3-0.6-0.6-1.1-0.8-1.7c0.4-0.2,0.8-0.3,1.3-0.5l0.5,1.8
					C119.9-113.3,119.6-113.2,119.3-113.1z M85.5-18.6c-0.2-0.5-0.6-1-0.6-1.5c0-0.3,0.5-0.7,0.7-1c0.4,0.4,0.8,0.7,1.1,1.2
					c0.1,0.1-0.3,0.6-0.5,0.9C86-18.9,85.8-18.7,85.5-18.6z M108.3-114c-0.5,0.4-0.9,0.8-1.3,0.9c-0.2,0-0.6-0.4-0.8-0.7
					c0.4-0.4,0.7-0.8,1.1-1.1C107.3-114.9,107.8-114.4,108.3-114z M72-114.1c-0.6,0.4-1,0.8-1.5,0.9c-0.2,0-0.5-0.5-0.7-0.8l1.2-1
					L72-114.1z M38.5-62.2c-0.5,0.3-0.9,0.7-1.2,0.7c-0.2,0-0.5-0.5-0.8-0.8l1.2-1C37.9-63,38.2-62.7,38.5-62.2z M55.4-112.1
					c0.4,0.5,0.9,0.8,0.9,1.2c0.1,0.2-0.5,0.9-0.6,0.8c-0.4-0.1-1-0.4-1.1-0.7C54.6-111.1,55-111.6,55.4-112.1z M64.8-113
					c-0.5-0.5-0.8-0.8-1.1-1.2c0.4-0.3,0.7-0.7,1.1-0.8c0.2-0.1,0.8,0.5,0.7,0.7C65.5-113.9,65.1-113.5,64.8-113z M5.2-120.5
					c-0.6,0.4-0.9,0.9-1.2,0.8c-0.4,0-0.8-0.4-1.2-0.6c0.3-0.3,0.5-0.7,0.8-0.7C4.1-121,4.5-120.8,5.2-120.5z M79.8-81.8
					c0.4,0.6,0.8,0.9,0.8,1.3c0,0.2-0.6,0.8-0.8,0.7c-0.4-0.1-0.9-0.5-1-0.8C78.9-80.9,79.4-81.3,79.8-81.8z M19.1-27.2
					c0.4,0.6,0.8,1,0.8,1.4c0,0.2-0.6,0.7-0.9,0.7s-0.9-0.5-0.8-0.7C18.3-26.3,18.7-26.6,19.1-27.2z M31.6-24.4
					c-0.7-0.9-1.3-1.3-1.2-1.5c0.1-0.4,0.6-0.6,0.9-1c0.3,0.3,0.7,0.7,0.8,1.1C32.1-25.4,31.8-25,31.6-24.4z M43.3-24.8
					c-0.4-0.5-0.8-0.9-0.8-1.3c0-0.2,0.7-0.8,0.8-0.7c0.4,0.2,0.8,0.6,0.9,0.9C44.3-25.7,43.7-25.3,43.3-24.8z M90.9-22.9
					c-0.8,0.4-1.2,0.8-1.6,0.8c-0.3,0-0.7-0.6-0.9-0.9c-0.1-0.2,0.4-0.8,0.6-0.8C89.5-23.8,89.9-23.5,90.9-22.9z M90.7-80.5
					c0.5-0.5,0.8-0.9,1.2-1c0.3-0.1,0.9,0.4,0.9,0.6c-0.1,0.4-0.4,1-0.7,1.1C91.8-79.7,91.3-80.1,90.7-80.5z M13-36.4
					c-0.2-0.7-0.5-1.1-0.4-1.4c0.1-0.4,0.5-0.7,0.7-1.1l1.1,0.8C14.1-37.8,13.8-37.4,13-36.4z M50.7-92.7c-0.4,0.4-0.8,0.6-1.1,0.9
					c-0.2-0.3-0.6-0.7-0.6-0.9c0.1-0.4,0.5-0.6,0.8-1C50-93.4,50.3-93.1,50.7-92.7z M19.4-94.1c0.3,0.7,0.6,1.1,0.6,1.5
					c0,0.3-0.5,0.5-0.7,0.8c-0.2-0.4-0.6-0.7-0.6-1.1C18.6-93.2,19-93.5,19.4-94.1z M6.9-93.8c0.4,0.4,0.9,0.8,0.8,1
					c-0.1,0.4-0.6,0.7-0.9,1c-0.3-0.3-0.7-0.6-0.8-1C6-93.1,6.5-93.4,6.9-93.8z M5.1-95.8c-0.6,0.4-1,0.9-1.3,0.8S3.1-95.6,3-96
					c0-0.2,0.6-0.7,0.8-0.7C4.2-96.6,4.6-96.2,5.1-95.8z M93.9-40.9c0.5-0.3,1.1-0.6,1.6-0.8c0.1,0.3,0.4,0.8,0.3,0.8
					c-0.5,0.4-1,0.6-1.5,0.9C94.2-40.3,94.1-40.6,93.9-40.9z M64.6-42.3c0.4,0.6,0.9,1,0.8,1.3s-0.6,0.7-1,0.7
					c-0.2,0-0.7-0.6-0.7-0.8C63.8-41.5,64.2-41.8,64.6-42.3z M15.9-30.2c0.5,0.5,0.9,0.8,1,1.2c0.1,0.2-0.4,0.9-0.6,0.9
					c-0.4-0.1-1-0.4-1.1-0.7C15.1-29.1,15.5-29.6,15.9-30.2z M107-97c0.4,0.6,0.8,0.9,0.9,1.3c0,0.2-0.5,0.7-0.8,0.7
					s-0.9-0.4-0.9-0.6C106.3-96,106.7-96.4,107-97z M34.4-28.2c-0.5-0.4-0.8-0.7-1.2-1c0.3-0.3,0.6-0.7,1-0.7
					c0.3-0.1,0.6,0.3,0.9,0.5C35-29.1,34.7-28.7,34.4-28.2z M84-29.1c-0.5,0.4-0.8,1-1,0.9c-0.4-0.1-0.7-0.5-1.1-0.8
					c0.2-0.3,0.5-0.9,0.7-0.9C83-29.8,83.4-29.4,84-29.1z M40.2-94.6c-0.4-0.6-0.8-1.1-0.7-1.4s0.7-0.6,1.1-0.7
					c0.2,0,0.7,0.6,0.6,0.9C41.1-95.4,40.6-95.1,40.2-94.6z M95.3-30.6c0.2,0.6,0.6,1,0.5,1.4s-0.5,0.7-0.8,1
					c-0.3-0.3-0.8-0.6-0.9-1C94-29.3,94.5-29.7,95.3-30.6z M114.4-108c-0.5,0.4-0.8,0.9-1.1,0.9c-0.4-0.1-0.7-0.5-1-0.8
					c0.3-0.3,0.5-0.8,0.8-0.8S113.8-108.4,114.4-108z M102.3-108l-1.1,0.8c-0.4-0.3-0.7-0.7-1.1-1.1c0.2-0.2,0.5-0.6,0.6-0.6
					C101.2-108.7,101.6-108.4,102.3-108z M118-77.5c0.5-0.4,0.8-0.9,1-0.9c0.4,0.1,0.7,0.5,1.1,0.8c-0.2,0.3-0.5,0.9-0.7,0.9
					C119-76.8,118.6-77.2,118-77.5z M107.2-76.3c-0.3-0.7-0.6-1.1-0.5-1.5c0-0.3,0.5-0.5,0.7-0.8c0.2,0.4,0.6,0.7,0.6,1.1
					C108.1-77.1,107.6-76.8,107.2-76.3z M77.9-107.8c-0.4,0.4-0.7,0.8-0.9,0.8c-0.4-0.1-0.7-0.5-1-0.8c0.3-0.3,0.6-0.7,0.8-1
					C77.2-108.5,77.5-108.2,77.9-107.8z M23.3-108.1c-0.5,0.5-0.8,0.9-1.2,1c-0.2,0.1-0.9-0.4-0.9-0.6c0.1-0.4,0.4-1,0.7-1.1
					C22.3-108.9,22.7-108.4,23.3-108.1z M96.2-65.4c-0.6,0.4-0.9,0.7-1.3,0.8c-0.2,0-0.5-0.5-0.8-0.8c0.3-0.3,0.7-0.7,1-0.8
					C95.3-66.3,95.7-65.8,96.2-65.4z M126.7-102c-0.6,0.5-1,0.8-1.4,1c-0.1,0-0.7-0.5-0.6-0.6c0.3-0.4,0.6-0.9,1-1.2
					C125.6-102.9,126.1-102.4,126.7-102z M95.9-10.5c-0.4,0.2-0.8,0.5-1.2,0.5c-0.2,0-0.4-0.6-0.7-0.9c0.4-0.2,0.7-0.6,1.1-0.7
					s0.8,0.2,1.2,0.4C96.2-11,96.1-10.7,95.9-10.5z M99.8-10.7c0.5-0.4,0.8-0.9,1-0.9c0.4,0.1,0.7,0.5,1.1,0.8
					c-0.2,0.3-0.5,0.9-0.7,0.9C100.8-10,100.4-10.4,99.8-10.7z M33-43.8c-0.4,0.2-0.8,0.5-1.1,0.4c-0.4-0.1-0.7-0.5-1.1-0.7
					c0.2-0.3,0.5-0.9,0.7-0.9c0.4,0,0.8,0.4,1.2,0.6L33-43.8z M20.4-13.4c-0.4,0.2-0.8,0.5-1.2,0.4c-0.4-0.1-0.7-0.5-1.1-0.7
					c0.2-0.3,0.5-0.9,0.7-0.9c0.4,0,0.8,0.4,1.2,0.6C20.2-13.9,20.3-13.7,20.4-13.4z M67.7-15c0.4,0.6,0.8,0.9,0.8,1.3
					c0,0.2-0.6,0.8-0.8,0.7c-0.4-0.1-0.9-0.5-0.9-0.8C66.7-14.1,67.3-14.5,67.7-15z M123.5-44.2c-0.6,0.4-1,0.8-1.3,0.8
					s-0.8-0.6-0.8-0.7c0.1-0.4,0.5-0.9,0.8-0.9C122.6-45.1,122.9-44.6,123.5-44.2z M105.4-68.5c-0.7,0.4-1.1,0.7-1.5,1
					c-0.2-0.3-0.6-0.7-0.5-0.9c0.2-0.4,0.6-0.7,1-0.9C104.5-69.4,104.9-69,105.4-68.5z M20.3-1.5c-0.4,0.4-0.9,0.8-1,0.8
					c-0.4-0.2-0.7-0.6-0.9-1c-0.1-0.1,0.6-0.8,0.7-0.7C19.5-2.3,19.8-2,20.3-1.5z M104.5-8.7l0.4,1.6L103.6-7v-1.7H104.5z
					 M17.3-53.4c-0.5,0.4-0.8,0.9-1.2,1c-0.3,0.1-0.9-0.5-0.9-0.6c0.1-0.4,0.4-1,0.7-1.1S16.6-53.8,17.3-53.4z M90.6-53.8
					c-1,0.9-1.4,1.1-1.7,1.4l-0.8-1.1c0.4-0.3,0.7-0.6,1.1-0.7S90-54,90.6-53.8z M113.5-52.1c-0.3-0.4-0.8-0.7-0.7-1
					c0.1-0.4,0.5-0.7,0.8-1l1,0.9C114.2-52.9,113.9-52.5,113.5-52.1z M46.4-54.5c0.4,0.6,0.9,1,0.8,1.3c-0.1,0.3-0.6,0.7-1,0.8
					c-0.2,0-0.7-0.6-0.7-0.8C45.6-53.6,46-54,46.4-54.5z M37.5-57.5c0.3,0.6,0.8,1.1,0.7,1.1c-0.3,0.4-0.8,0.7-1.2,0.9
					c-0.1,0-0.6-0.5-0.5-0.6C36.6-56.5,37-56.9,37.5-57.5z M26.3-56.3c-0.6,0.3-1,0.7-1.4,0.7c-0.2,0-0.5-0.5-0.8-0.8
					c0.3-0.3,0.7-0.7,1.1-0.8C25.5-57.2,25.9-56.7,26.3-56.3z M92.4-61.2c-0.4-0.6-0.8-0.9-0.9-1.3c0-0.2,0.5-0.8,0.6-0.8
					c0.4,0.1,1,0.4,1,0.7C93.2-62.3,92.8-61.8,92.4-61.2z M79.8-55.2c-0.4-0.7-0.7-1.1-0.9-1.5c0-0.1,0.6-0.6,0.7-0.5
					c0.4,0.3,0.8,0.6,1.2,1C80.5-56,80.2-55.7,79.8-55.2z M117.5-86.7c-0.7,0.4-1.1,0.7-1.5,0.9c-0.2-0.3-0.6-0.7-0.5-0.9
					c0.2-0.4,0.6-0.7,1-0.9C116.7-87.7,117-87.2,117.5-86.7z M68.9-86.6c-0.6,0.4-1.1,0.8-1.4,0.7c-0.3-0.1-0.6-0.6-0.8-1
					c0-0.1,0.6-0.7,0.9-0.6C68-87.5,68.3-87,68.9-86.6z M13-124.3c0.4,0.6,0.7,0.9,0.8,1.3c0,0.2-0.7,0.7-0.8,0.7
					c-0.4-0.2-0.7-0.6-0.9-1C12.1-123.5,12.6-123.8,13-124.3z M32.5-123.5c-0.6,0.4-0.9,0.8-1.1,0.8c-0.4-0.1-0.7-0.4-1.1-0.7
					c0.3-0.3,0.5-0.7,0.8-0.7S31.8-123.8,32.5-123.5z M83-82.6c-0.5-0.5-0.7-0.9-1-1.2c0.4-0.3,0.7-0.6,1.1-0.8
					c0.1,0,0.7,0.5,0.7,0.7C83.7-83.5,83.3-83.1,83-82.6z M118-53.2c0.5-0.4,0.8-0.9,1-0.9c0.4,0.1,0.7,0.5,1.1,0.8
					c-0.2,0.3-0.5,0.9-0.7,0.9C119-52.5,118.6-52.9,118-53.2z M64.9-36.1c0.2,0.5,0.5,1,0.6,1.5c0,0.1-0.5,0.3-0.8,0.4l-0.6-1.6
					C64.1-35.8,64.9-36.1,64.9-36.1z M14.2-74.4c-0.6,0.3-1,0.6-1.4,0.7c-0.1,0-0.6-0.6-0.5-0.6c0.2-0.4,0.6-0.8,0.9-1
					C13.3-75.4,13.7-74.9,14.2-74.4z M83.8-34.8c-0.4,0.2-0.8,0.5-1.2,0.5c-0.1,0-0.5-0.6-0.5-0.7c0.2-0.4,0.6-0.8,0.9-0.9l1.2,0.3
					C84.1-35.3,84-35,83.8-34.8z M105.3-26c-0.6,0.3-1,0.7-1.4,0.7c-0.2,0-0.5-0.5-0.7-0.8c0.4-0.3,0.7-0.7,1.1-0.8
					C104.3-26.9,105.3-26,105.3-26z M87.1-31.9c-0.6,0.3-0.9,0.6-1.4,0.8c-0.1,0-0.6-0.7-0.5-0.8c0.2-0.4,0.6-0.7,1-0.9
					C86.3-32.9,86.7-32.4,87.1-31.9z M103-31.7l1.5-1c0.2,0.3,0.5,0.7,0.5,0.7c-0.5,0.4-1,0.7-1.4,1.1
					C103.3-31.2,103.2-31.4,103-31.7z M91.9-6.5c-0.3-0.5-0.8-0.9-0.7-1.1c0.1-0.4,0.5-0.7,0.8-1c0.3,0.3,0.8,0.6,0.7,0.8
					C92.7-7.4,92.3-7.1,91.9-6.5z M24.6-7.1c0.2-0.5,0.3-1.1,0.6-1.6L26-8.5l-0.4,1.6C25.2-6.9,24.9-7,24.6-7.1z M117.4-74.2
					c-0.4,0.3-0.8,0.7-1,0.6c-0.4-0.1-0.6-0.5-0.9-0.8c0.4-0.3,0.7-0.7,1.1-0.8C116.7-75.3,117.1-74.7,117.4-74.2z M54.2-90
					c-1.1,0.7-1.4,1-1.8,1.1c-0.1,0-0.6-0.6-0.6-0.8c0.2-0.4,0.5-0.8,0.9-0.9C53-90.7,53.4-90.3,54.2-90z M61.7-37.2
					c-0.1-0.5-0.3-1-0.4-1.6c0,0,0.8-0.3,0.8-0.2c0.2,0.5,0.4,1,0.6,1.6C62.3-37.4,62-37.3,61.7-37.2z M25.1-91.5
					c-0.3-0.6-0.7-0.9-0.7-1.2c0.1-0.3,0.4-0.8,0.7-0.8c0.2,0,0.8,0.5,0.8,0.7C25.9-92.5,25.5-92.1,25.1-91.5z M6.7-103.7l0.1-2h0.8
					l0.1,1.9C7.4-103.7,7-103.7,6.7-103.7z M20.3-80.6c-0.6,0.4-0.9,0.7-1.4,0.8c-0.1,0-0.6-0.5-0.6-0.6c0.2-0.4,0.5-0.8,0.9-1
					C19.3-81.5,19.8-81,20.3-80.6z M22.4-96.8l0.6,1.5l-1,0.4l-0.5-1.6L22.4-96.8z M13.2-18.9c-0.3-0.5-0.7-0.8-0.7-1.1
					c0.1-0.3,0.5-0.7,0.8-0.8c0.2-0.1,0.8,0.5,0.8,0.7C14-19.8,13.7-19.4,13.2-18.9z M88.4-95.1l0.6-1.6c0.3,0.1,0.8,0.3,0.8,0.4
					c-0.1,0.5-0.4,1-0.6,1.5L88.4-95.1z M45.7-58.8c0.4-0.5,0.8-1,1.2-1.4l0.6,0.3l-0.9,1.7C46.3-58.5,46-58.6,45.7-58.8z
					 M16.8-10.2l-1.6-0.5c0,0,0.1-0.5,0.2-0.8l1.7,0.5C16.9-10.8,16.9-10.5,16.8-10.2z M111.3-44.2c-0.5,0.4-0.8,0.7-1.2,0.8
					c-0.1,0-0.7-0.6-0.6-0.8c0.1-0.4,0.5-0.8,0.9-0.9C110.5-45.1,110.9-44.6,111.3-44.2z M25.1-15l0.9,1c-0.1,0.4-0.5,0.7-0.9,1
					c-0.1,0.1-0.7-0.4-0.7-0.5C24.5-14,24.8-14.3,25.1-15z M111.3-80.6c-0.5,0.4-0.8,0.7-1.3,0.9c-0.1,0-0.7-0.6-0.6-0.8
					c0.1-0.4,0.5-0.8,0.9-0.9C110.5-81.5,110.9-81,111.3-80.6z M8.2-80.3c-0.6,0.3-0.9,0.6-1.3,0.6c-0.2,0-0.5-0.5-0.7-0.8
					c0.4-0.3,0.7-0.7,1.1-0.8C7.4-81.4,7.7-80.8,8.2-80.3z M62.3-80.1c-0.5-0.2-1.1-0.3-1.6-0.6c0,0,0.2-0.8,0.3-0.8l1.6,0.4
					C62.5-80.7,62.4-80.4,62.3-80.1z M97.4-13.1l0.7-1.7c0.3,0.1,0.8,0.4,0.8,0.4l-0.7,1.6L97.4-13.1z M91.9-12.6
					c-0.3-0.5-0.8-0.9-0.7-1.1c0.1-0.4,0.5-0.7,0.8-1c0.3,0.3,0.8,0.6,0.7,0.8C92.7-13.5,92.3-13.1,91.9-12.6z M67.7-115.9
					c-0.4-0.4-0.9-0.8-0.8-1c0.1-0.4,0.5-0.7,0.8-1.1c0.3,0.2,0.8,0.5,0.8,0.7C68.5-116.8,68.1-116.4,67.7-115.9z M71.1-54.6
					c0.2,0.4,0.5,0.8,0.4,1.1c-0.1,0.4-0.4,0.8-0.8,1c-0.1,0.1-0.8-0.4-0.8-0.6c0-0.4,0.4-0.8,0.6-1.2
					C70.5-54.3,71.1-54.6,71.1-54.6z M21.6-52.5c0.2-0.6,0.4-1.1,0.5-1.7c0.3,0.1,0.8,0.2,0.8,0.3c-0.1,0.6-0.3,1.1-0.4,1.6
					C22.2-52.4,21.9-52.5,21.6-52.5z M100.3-115l1.6,0.3c0,0-0.1,0.6-0.1,0.9l-1.7-0.4C100.1-114.4,100.2-114.7,100.3-115z M41-71
					l-1.6-0.5c0,0,0.1-0.5,0.2-0.8l1.7,0.4C41.3-71.9,41-71,41-71z M40.3-54.5c0.4,0.5,0.9,0.8,0.9,1c-0.1,0.4-0.5,0.7-0.7,1.1
					c-0.3-0.2-0.9-0.5-0.9-0.7C39.6-53.5,39.9-53.9,40.3-54.5z M54-83.3c-0.5,0.2-1,0.4-1.6,0.5c-0.1,0-0.2-0.5-0.4-0.8l1.7-0.6
					L54-83.3z M28.2-54.5c0.4,0.5,0.8,0.8,0.9,1.2c0,0.1-0.6,0.7-0.7,0.7c-0.4-0.1-0.7-0.5-1-0.8C27.5-53.7,27.8-54,28.2-54.5z"/>
				<path fill="#FFFFFF" d="M91.7-122.1c-0.2-0.4-0.6-0.8-0.6-1.2c0-0.2,0.5-0.5,0.8-0.7c0.3,0.4,0.7,0.7,0.8,1.1
					c0.1,0.3-0.3,0.8-0.4,1.1C92.3-121.8,91.7-122.1,91.7-122.1z M68.9-50c-0.6,0.3-0.9,0.6-1.3,0.6c-0.2,0-0.5-0.5-0.7-0.8
					c0.4-0.3,0.7-0.7,1.1-0.8C68.1-51,68.5-50.5,68.9-50z M61.8-51.4c0.3,0.5,0.7,1,0.6,1.2c-0.2,0.4-0.6,0.6-1,0.9
					c-0.2-0.3-0.7-0.6-0.6-0.8C61-50.6,61.4-50.9,61.8-51.4z M20.8-50.4c-1,0.6-1.4,1-1.7,1c-0.3,0-0.5-0.5-0.8-0.7
					c0.3-0.3,0.6-0.8,1-0.9C19.6-51.1,20.1-50.7,20.8-50.4z M58-119.3c0.1-0.5,0.2-1.1,0.4-1.6c0-0.1,0.6,0.1,0.9,0.1l-0.3,1.6
					C58.7-119.2,58.4-119.3,58-119.3z M21.4-121.2l1.7,0.7c-0.1,0.3-0.4,0.8-0.4,0.7c-0.6-0.2-1.1-0.5-1.6-0.7
					C21.1-120.7,21.3-120.9,21.4-121.2z M16.7-119.5c-0.5-0.2-1.1-0.3-1.6-0.6c0,0,0.1-0.5,0.2-0.8l1.7,0.5L16.7-119.5z M115.5-112
					c0.6,0.2,1.1,0.4,1.7,0.7c0,0-0.1,0.6-0.2,0.6l-1.8-0.3C115.3-111.4,115.4-111.7,115.5-112z M39-111.1c-0.6,0.4-0.9,0.7-1.3,0.8
					c-0.2,0-0.5-0.4-0.8-0.7c0.3-0.3,0.6-0.7,1-0.8C38.1-111.9,38.4-111.4,39-111.1z M59.3-109.2l-0.2,1.8c0,0.1-0.6,0.1-0.6,0
					l-0.3-1.8C58.6-109.1,58.9-109.1,59.3-109.2z M58.6-66.6c0.4,0.5,0.8,0.9,0.8,1.1c-0.1,0.4-0.6,0.6-0.9,0.9
					c-0.2-0.3-0.7-0.6-0.6-0.8C57.9-65.7,58.3-66.1,58.6-66.6z M42.8-61.7c0.2-0.5,0.3-1,0.6-1.5c0,0,0.8,0.2,0.8,0.3l-0.4,1.5
					C43.5-61.6,43.1-61.7,42.8-61.7z M89.2-48.2l0.6,1.5c0,0.1-0.5,0.3-0.7,0.4l-0.6-1.6C88.6-48,88.9-48.1,89.2-48.2z M64.9-64.4
					c-0.4-0.5-0.8-0.8-0.8-1.1l0.6-0.9c0.3,0.2,0.7,0.5,0.7,0.7C65.6-65.3,65.2-65,64.9-64.4z M27.3-41.5c0.6,0,1.1-0.1,2-0.1
					c-0.2,0.5-0.4,1-0.5,1c-0.5,0-1.1-0.2-1.6-0.3C27.2-41,27.2-41.3,27.3-41.5z M62.8-62.4c-0.5,0.4-0.8,0.7-1.2,0.9
					c-0.2,0.1-0.5-0.3-0.8-0.5c0.4-0.4,0.7-0.8,1.1-1.1C61.9-63.2,62.4-62.8,62.8-62.4z M51.5-47c0.9-1.2,0.9-1.2,2.1,0H51.5z
					 M106.6-70.8c0.1-0.5,0.2-1,0.4-1.6c0.3,0.1,0.8,0.3,0.8,0.4l-0.4,1.4C107.2-70.6,106.9-70.7,106.6-70.8z M28.9-58.8l-1.6-0.4
					c0.1-0.3,0.3-0.8,0.4-0.8c0.5,0,1,0.2,1.5,0.3C29.1-59.5,29-59.1,28.9-58.8z M125.8-48.1v1.7c-0.2,0-0.5,0-0.7,0.1l-0.2-1.7
					C125.2-48,125.5-48,125.8-48.1z M15.7-46.6c0-0.5,0-1,0.1-1.5c0-0.1,0.8,0,0.8,0c0.1,0.5,0,1.1,0,1.6
					C16.4-46.5,16.1-46.5,15.7-46.6z M53.6-72.1c-0.3,0.5-0.6,1.1-1,1.6c-0.2-0.1-0.5-0.2-0.7-0.4c0.3-0.6,0.5-1.2,0.8-1.7
					C53-72.4,53.3-72.2,53.6-72.1z M35-48v1.6h-0.9c-0.1-0.5,0-1,0-1.6H35z M89.1-73.1c0.3,0.5,0.7,0.8,0.7,1.2
					c0,0.3-0.4,0.6-0.6,0.9c-0.2-0.3-0.7-0.5-0.7-0.8C88.4-72.2,88.8-72.5,89.1-73.1z M94.6-58.1v-2.1
					C95.9-59.5,95.9-59.5,94.6-58.1z M60.3-59.8c-1,0.8-1.3,1-1.6,1.2c-0.2-0.3-0.6-0.6-0.6-1c0-0.2,0.5-0.7,0.8-0.7
					S59.6-60.1,60.3-59.8z M42.8-49.6l0.6-1.5c0.3,0.2,0.8,0.4,0.7,0.5c-0.1,0.5-0.4,0.9-0.6,1.3C43.3-49.4,43.1-49.5,42.8-49.6z
					 M61.8-75.5c0.3,0.4,0.7,0.7,0.6,0.8c-0.2,0.4-0.5,0.8-0.9,1c-0.1,0.1-0.5-0.4-0.8-0.6C60.7-74.3,61.8-75.5,61.8-75.5z
					 M86.5-43.9H85c-0.1,0-0.1-0.6-0.1-0.9c0.5,0,1.1,0,1.6-0.1C86.6-44.6,86.6-44.3,86.5-43.9z M95.3-54.2l0.4,1.3
					c0,0.1-0.5,0.3-0.8,0.4L94.4-54C94.7-54.1,95-54.2,95.3-54.2z M81.5-44.4c-0.9,0.6-1.3,1-1.5,0.9c-0.3,0-0.6-0.4-0.8-0.7
					c0.3-0.3,0.6-0.8,1-0.9C80.3-45.1,80.8-44.7,81.5-44.4z M41.6-28.7c-0.5,0.3-0.8,0.7-1.1,0.6s-0.7-0.6-0.6-0.8
					c0-0.3,0.5-0.6,0.7-0.8C40.9-29.4,41.2-29.2,41.6-28.7z M25.4-25c-0.4-0.4-0.9-0.7-0.9-0.9c0.1-0.4,0.5-0.7,0.8-1
					c0.3,0.3,0.7,0.5,0.7,0.8C26-25.8,25.7-25.4,25.4-25z M73.9-27c0.3,0.5,0.7,0.8,0.7,1.1c0,0.3-0.4,0.6-0.7,0.9
					c-0.2-0.3-0.7-0.5-0.7-0.8C73.3-26.1,73.6-26.5,73.9-27z M37.6-39.4c0.3,0.6,0.6,1,0.5,1.2c-0.1,0.3-0.5,0.5-0.7,0.8
					c-0.2-0.3-0.6-0.6-0.6-1C36.9-38.6,37.2-38.9,37.6-39.4z M44.6-38.2c-0.4,0.4-0.7,0.6-1,0.9c-0.2-0.3-0.6-0.6-0.6-0.9
					s0.4-0.7,0.7-0.7C43.9-39,44.2-38.6,44.6-38.2z M10.4-36l0.1,1.8c-0.3,0-0.6,0.1-0.8,0.1c-0.1-0.6-0.2-1.2-0.2-1.8
					C9.8-35.9,10.1-35.9,10.4-36z M44.5-32c-0.4,0.4-0.7,0.6-1,0.8c-0.2-0.3-0.6-0.6-0.6-0.9s0.4-0.6,0.6-0.8
					C43.8-32.7,44.1-32.4,44.5-32z M80.1-9.1c0.3,0.6,0.6,1,0.6,1.2c-0.1,0.3-0.5,0.6-0.7,0.8c-0.2-0.3-0.6-0.6-0.6-1
					C79.3-8.3,79.7-8.5,80.1-9.1z M15.6-21.6c0.1-1.1,0.1-1.6,0.1-2.4C17-23,17-23,15.6-21.6z M111.4-20c-0.5,0.4-0.9,0.8-1,0.8
					c-0.4-0.2-0.7-0.6-1-1c0,0,0.5-0.6,0.6-0.6C110.4-20.7,110.8-20.4,111.4-20z M66.3-17.2c-1,0.7-1.4,1.1-1.8,1.2
					c-0.2,0.1-0.5-0.4-0.7-0.6c0.4-0.3,0.7-0.8,1.2-1C65.2-17.7,65.6-17.4,66.3-17.2z M125.7-18.2c0.3,0.6,0.6,1,0.5,1.3l-0.8,0.8
					c-0.2-0.3-0.6-0.6-0.6-1C124.8-17.1,125.7-18.2,125.7-18.2z M117.5-116.7c-0.5,0.3-0.8,0.7-1.1,0.6c-0.3-0.1-0.7-0.6-0.6-0.8
					c0-0.3,0.5-0.5,0.7-0.8C116.8-117.5,117-117.2,117.5-116.7z M25.3-116c-0.3-0.6-0.6-0.9-0.6-1.2c0-0.3,0.4-0.5,0.7-0.8
					c0.2,0.3,0.6,0.6,0.6,0.9C26-116.8,25.7-116.5,25.3-116z M96.2-114.3c-0.4,0.4-0.6,0.7-0.9,1c-0.3-0.3-0.7-0.5-0.7-0.8
					c0-0.3,0.3-0.8,0.6-0.8C95.4-115,95.7-114.6,96.2-114.3z M101.4-119c-0.4-0.5-0.7-0.8-0.8-1.1c0-0.3,0.4-0.6,0.6-0.9
					c0.3,0.3,0.7,0.5,0.7,0.8C102-120,101.7-119.6,101.4-119z M94.2-120.8h1.6v0.9c-0.5,0-1-0.1-1.6-0.1V-120.8z M89.2-121.1
					l0.4,1.4c0,0.1-0.5,0.2-0.8,0.4c-0.1-0.5-0.2-1-0.4-1.5L89.2-121.1z M53.7-119.8c-0.9,0-1.5,0.1-2.1,0.1c0.1-0.4,0-0.7,0.2-0.9
					C52.6-121.5,53-120.8,53.7-119.8z M27.8-119.2c0-0.6-0.1-1.1-0.1-2c0.5,0.2,1,0.4,1,0.5c0,0.5-0.2,1.1-0.3,1.6
					C28.3-119.1,28.1-119.2,27.8-119.2z M124.9-82.9c0.1-0.5,0.2-1,0.4-1.6c0.3,0.1,0.8,0.3,0.8,0.4c-0.1,0.5-0.2,0.9-0.4,1.4
					C125.4-82.8,125.1-82.8,124.9-82.9z M126.3-119.9l-1.4,0.9c-0.3-0.3-0.5-0.5-0.4-0.5l1.3-1.2L126.3-119.9z M113.4-119
					c-0.3-0.6-0.7-0.9-0.6-1.2c0-0.3,0.4-0.5,0.7-0.8c0.2,0.3,0.6,0.6,0.6,0.9C114.1-119.9,113.7-119.6,113.4-119z M83.7-113.6
					l-1.7,0.1v-0.8l1.7-0.1V-113.6z M98.4-112.3c0.3,0.6,0.6,1,0.6,1.2c-0.1,0.3-0.5,0.6-0.8,0.8c-0.2-0.3-0.6-0.6-0.6-1
					C97.5-111.5,98-111.8,98.4-112.3z M73.4-110v-1.8C74.9-111,74.9-111,73.4-110z M67.9-109.9c-0.3-0.5-0.6-0.9-0.6-1.2
					c0-0.3,0.4-0.5,0.7-0.8c0.2,0.3,0.6,0.6,0.6,0.9C68.6-110.8,68.2-110.4,67.9-109.9z M32.4-110.9c-0.6,0.4-0.9,0.7-1.3,0.8
					c-0.1,0-0.6-0.5-0.6-0.6c0.3-0.4,0.6-0.8,1-1C31.6-111.7,32-111.3,32.4-110.9z M45.1-111.7c-0.9,0.7-1.3,1.2-1.5,1.1
					c-0.3-0.1-0.6-0.5-0.6-0.8c0-0.3,0.4-0.8,0.7-0.8S44.4-111.9,45.1-111.7z M123.5-87c-0.4,0.5-0.6,0.8-0.9,1
					c-0.3-0.3-0.7-0.5-0.8-0.8c0-0.3,0.3-0.8,0.6-0.8S123-87.3,123.5-87z M105.2-86.7c-0.5,0.4-0.8,0.8-1.2,0.9
					c-0.2,0.1-0.5-0.4-0.8-0.7c0.3-0.3,0.7-0.7,1.1-0.9C104.5-87.5,104.9-87,105.2-86.7z M87.1-123c-0.6,0.4-0.9,0.7-1.4,0.8
					c-0.1,0-0.6-0.5-0.6-0.6c0.3-0.4,0.6-0.8,1-1C86.2-123.9,86.6-123.4,87.1-123z M10.3-88.7c-0.4-0.5-0.8-0.8-0.8-1.1
					c0-0.3,0.4-0.6,0.6-0.9c0.3,0.2,0.8,0.4,0.8,0.7C10.9-89.7,10.6-89.3,10.3-88.7z"/>
				<path fill="#FFFFFF" d="M116.4-99.8c0.3,0.3,0.7,0.6,0.7,0.7c-0.2,0.4-0.4,0.8-0.8,1.1c-0.1,0.1-0.6-0.4-0.9-0.6
					C115.7-98.9,116-99.3,116.4-99.8z M64.7-103.1c0.4,0.6,0.7,0.9,0.8,1.3c0,0.1-0.6,0.6-0.6,0.6c-0.4-0.3-0.8-0.6-1-1L64.7-103.1z
					 M64.2-95v-2c0.6,0.5,1.3,0.8,1.2,1c-0.1,0.4-0.5,0.8-0.9,1.2C64.5-94.8,64.3-94.9,64.2-95z M101.2-78.6l0.9,1.6l-0.7,0.4
					l-0.9-1.6C100.7-78.3,101-78.4,101.2-78.6z M55-104.1c0.1-0.5,0.3-1,0.4-1.6c0.3,0.1,0.8,0.3,0.8,0.4l-0.4,1.5
					C55.5-104,55.3-104.1,55-104.1z M111.2-93.4c-0.3,0.6-0.5,1.2-0.8,1.7l-0.8-0.3c0.3-0.6,0.5-1.2,0.8-1.7
					C110.7-93.7,110.9-93.6,111.2-93.4z M104.4-103.9c-0.4-0.5-0.8-0.8-0.8-1.1l0.6-0.9c0.3,0.2,0.8,0.4,0.8,0.7
					C105.1-104.8,104.7-104.5,104.4-103.9z M38.4-98.8c-0.5,0.4-0.8,0.8-1.1,0.8l-0.9-0.6c0.3-0.2,0.6-0.6,0.9-0.7
					C37.7-99.3,38-99.1,38.4-98.8z M85.4-25.2c-0.2-0.6-0.5-0.9-0.5-1.2c0-0.2,0.5-0.6,0.6-0.5c0.3,0.1,0.7,0.5,0.7,0.7
					C86.3-25.9,85.9-25.7,85.4-25.2z M49.7-27c0.3,0.4,0.7,0.8,0.6,0.9c-0.2,0.4-0.6,0.6-0.9,0.9c-0.2-0.3-0.5-0.5-0.4-0.8
					C49.1-26.2,49.4-26.5,49.7-27z M44.5-19.9c-0.4,0.3-0.6,0.5-0.8,0.7c-0.3-0.3-0.6-0.7-0.8-1.1c0-0.1,0.5-0.6,0.6-0.5
					C43.9-20.6,44.1-20.3,44.5-19.9z M12.4-104.3c0.3-0.4,0.6-0.9,0.8-1.3c0.2,0.1,0.6,0.4,0.6,0.4c-0.2,0.5-0.4,0.9-0.7,1.4
					C12.9-104,12.6-104.2,12.4-104.3z M110.9-99c-0.6,0.3-0.9,0.5-1.2,0.5c-0.2,0-0.6-0.5-0.6-0.6c0.1-0.3,0.4-0.7,0.7-0.7
					S110.4-99.4,110.9-99z M28.4-109l0.6,1.4c0,0.1-0.5,0.4-0.5,0.4c-0.3-0.4-0.6-0.8-0.9-1.3C27.8-108.7,28.1-108.8,28.4-109z
					 M52.8-30c0.2,0.4,0.4,0.9,0.5,1.3c0,0.1-0.5,0.3-0.7,0.4c-0.2-0.5-0.4-0.9-0.7-1.4L52.8-30z M97.5-32.4l1.4-0.4
					c0.1,0.3,0.3,0.8,0.2,0.8l-1.4,0.5C97.6-31.9,97.6-32.1,97.5-32.4z M68.8-32c-0.4,0.3-0.6,0.5-0.8,0.7c-0.3-0.3-0.6-0.7-0.8-1.1
					c0-0.1,0.5-0.6,0.6-0.5C68.2-32.7,68.4-32.4,68.8-32z M59.5-96.1c-0.5,0.3-0.8,0.7-1.1,0.7c-0.2,0.1-0.5-0.2-0.8-0.4
					c0.3-0.3,0.6-0.7,0.9-0.9C58.7-96.7,59.1-96.4,59.5-96.1z M71.9-29.2c-0.4,0.3-0.6,0.7-0.8,0.6c-0.3-0.1-0.6-0.4-0.9-0.6
					c0.3-0.2,0.5-0.6,0.9-0.7C71.2-29.9,71.5-29.6,71.9-29.2z M66.6-105.2l1.5-0.5l0.3,0.6l-1.4,0.7
					C66.8-104.7,66.7-104.9,66.6-105.2z M92.2-118.1c0.2,0.4,0.5,0.8,0.6,1.3c0,0.1-0.4,0.3-0.7,0.5l-0.7-1.4
					C91.6-117.8,91.9-117.9,92.2-118.1z M86.2-116l-0.7-1.4c0-0.1,0.4-0.3,0.6-0.4l0.9,1.4L86.2-116z M36.8-116.4
					c0.2-0.5,0.4-0.9,0.7-1.4c0,0,0.6,0.2,0.6,0.3c-0.1,0.5-0.3,1-0.5,1.4C37.3-116.2,37-116.3,36.8-116.4z M13.5-0.9
					c-0.4-0.4-0.9-0.6-0.9-0.7c0-0.3,0.3-0.6,0.5-0.9c0.3,0.2,0.7,0.3,0.7,0.5C13.9-1.9,13.7-1.5,13.5-0.9z M71.7-4.5
					c-0.4,0.2-0.9,0.4-1.3,0.5c0,0-0.2-0.5-0.4-0.7c0.4-0.2,0.9-0.3,1.4-0.5L71.7-4.5z M117.3-104.8c-0.4,0.3-0.8,0.5-1.3,0.7
					c-0.1,0-0.3-0.4-0.5-0.7l1.4-0.7C117-105.2,117.1-105,117.3-104.8z M43.8-0.9c-0.4-0.4-0.9-0.6-0.8-0.8c0-0.3,0.3-0.6,0.5-0.9
					c0.3,0.2,0.7,0.3,0.7,0.5C44.2-1.9,44-1.5,43.8-0.9z M52.6-100.6c-0.3-0.5-0.6-0.9-0.6-1.1c0.1-0.3,0.5-0.5,0.9-0.5
					c0.1,0,0.5,0.5,0.5,0.6C53.3-101.3,53-101.1,52.6-100.6z M51.9-16.1l0.5-1.6c0.2,0.1,0.6,0.1,0.6,0.2c0,0.5-0.1,1-0.2,1.6
					C52.5-16,52.2-16.1,51.9-16.1z M10.1-17.9l0.7,1.3c0,0-0.5,0.3-0.7,0.4l-0.7-1.4C9.7-17.6,9.9-17.8,10.1-17.9z M19.6-104.3
					c-0.4-0.3-0.8-0.5-1.3-0.8c0.2-0.2,0.5-0.7,0.6-0.6c0.4,0.2,0.8,0.5,1.2,0.8C19.9-104.8,19.7-104.5,19.6-104.3z M116.5-18.8
					c-0.2-0.5-0.4-0.9-0.7-1.4c0.3-0.1,0.5-0.2,0.8-0.4c0.2,0.5,0.4,1,0.6,1.4C117-19.1,116.8-18.9,116.5-18.8z M55.8-20.9
					c0.2,0.5,0.3,1,0.5,1.4l-0.6,0.3L55-20.6L55.8-20.9z M32.2-19.5l-1.4,0.4c0,0-0.2-0.5-0.2-0.8l1.4-0.4
					C32-20.1,32.1-19.8,32.2-19.5z M26.1-110.6l-1.4,0.4c-0.1-0.3-0.3-0.8-0.2-0.8c0.4-0.2,0.9-0.3,1.4-0.5L26.1-110.6z M14.2-117.1
					c-0.5,0.3-0.8,0.6-0.9,0.5c-0.3-0.2-0.6-0.5-0.7-0.8c0-0.1,0.5-0.6,0.6-0.6C13.5-117.9,13.8-117.5,14.2-117.1z M49.7-15.1
					c0.3,0.5,0.6,0.8,0.6,1.1c0,0.2-0.4,0.4-0.6,0.6c-0.2-0.3-0.5-0.5-0.6-0.9C49-14.4,49.4-14.7,49.7-15.1z M43.6-14.8
					c0.3,0.4,0.7,0.8,0.6,0.9c-0.2,0.4-0.6,0.6-0.9,0.9c-0.1-0.3-0.5-0.5-0.4-0.8C43-14.1,43.3-14.4,43.6-14.8z M71.8-71.6
					c-0.4,0.3-0.6,0.6-0.8,0.8c-0.3-0.3-0.6-0.6-0.8-1c0-0.1,0.5-0.6,0.6-0.5C71.1-72.2,71.4-71.9,71.8-71.6z M5-71.5
					c-0.4,0.3-0.6,0.5-0.8,0.8c-0.3-0.3-0.6-0.7-0.8-1c0-0.1,0.5-0.6,0.6-0.5C4.4-72.2,4.6-71.9,5-71.5z M67.8-39.1
					c0.2,0.5,0.5,0.9,0.6,1.4c0,0.1-0.4,0.3-0.6,0.4c-0.3-0.5-0.6-0.9-0.8-1.4C67.3-38.9,67.6-39,67.8-39.1z M89.1-90.7
					c0.2,0.5,0.4,0.9,0.5,1.4L89-89c-0.3-0.5-0.5-0.9-0.7-1.4C88.6-90.5,88.9-90.6,89.1-90.7z M107.3-36.1l0.6,1.4l-0.6,0.4
					l-0.7-1.4C106.8-35.8,107.1-35.9,107.3-36.1z M126.9-34.8c-0.6,0.2-1,0.5-1.3,0.5c-0.2,0-0.7-0.4-0.6-0.5l0.7-1.1
					C125.8-35.6,126.1-35.4,126.9-34.8z M58.7-84.7c0.2,0.5,0.5,0.9,0.6,1.4c0,0.1-0.4,0.3-0.6,0.4l-0.8-1.4L58.7-84.7z M3.7-78.4
					c0.3,0.5,0.6,0.9,0.6,1.1c-0.1,0.3-0.5,0.5-0.9,0.5c-0.1,0-0.5-0.5-0.5-0.6C3-77.6,3.3-77.9,3.7-78.4z M50.6-62.1
					c-0.3,0.3-0.6,0.7-0.8,0.6c-0.3-0.1-0.6-0.4-0.8-0.6c0.3-0.2,0.5-0.6,0.8-0.6C50-62.8,50.3-62.4,50.6-62.1z M93.4-43.9
					c-1.1,0.1-1.7,0.1-2.5,0.1c0.4-0.6,0.7-1,0.9-1.3C92.3-44.8,92.6-44.5,93.4-43.9z M44.6-93l-0.8,0.7c-0.3-0.1-0.6-0.4-0.8-0.6
					c0.2-0.2,0.4-0.7,0.6-0.6C43.8-93.6,44.1-93.3,44.6-93z M98-74c-0.1-0.3-0.4-0.6-0.4-0.9c0-0.2,0.5-0.6,0.6-0.5
					c0.3,0.1,0.7,0.4,0.7,0.7c0,0.3-0.2,0.7-0.4,1.1C98.4-73.8,98.2-73.9,98-74z M56.7-68.7c-0.3,0.3-0.6,0.7-0.8,0.6
					c-0.3-0.1-0.6-0.4-0.8-0.6c0.3-0.2,0.5-0.6,0.8-0.6C56.1-69.4,56.3-69,56.7-68.7z M31.4-49.6c-0.2-0.3-0.6-0.7-0.6-0.8
					c0.2-0.3,0.5-0.7,0.8-0.7c0.2,0,0.5,0.4,0.7,0.7C32.1-50.2,31.8-49.9,31.4-49.6z M123.8-68.7c-0.9,0.6-1.2,0.9-1.6,1
					c0,0-0.5-0.5-0.4-0.6c0.2-0.3,0.5-0.7,0.9-0.9C122.9-69.2,123.2-68.9,123.8-68.7z M55.4-81.6l0.4,1.4c0,0-0.8,0.3-0.8,0.2
					c-0.2-0.4-0.3-0.9-0.5-1.4C54.8-81.4,55.1-81.5,55.4-81.6z M98.2-93.9c0.3,0.6,0.6,1,0.7,1.4c0,0.1-0.4,0.4-0.7,0.6L97.5-93
					C97.5-93.3,97.9-93.5,98.2-93.9z M118.7-46.6c0.2-0.4,0.4-0.9,0.7-1.3c0.2,0.2,0.7,0.4,0.7,0.5c-0.2,0.4-0.4,0.8-0.6,1.3
					C119.2-46.4,118.9-46.5,118.7-46.6z M115.6-55.6c0.2-0.5,0.4-0.9,0.7-1.4c0.3,0.1,0.7,0.4,0.7,0.4c-0.2,0.5-0.4,0.9-0.7,1.4
					C116.1-55.4,115.9-55.5,115.6-55.6z M74-57.3l0.6,1.4L74-55.5l-0.8-1.4C73.4-57.1,73.7-57.2,74-57.3z M43.6-55.7
					c-0.3-0.3-0.7-0.6-0.6-0.8c0.1-0.3,0.4-0.6,0.6-0.8c0.2,0.3,0.6,0.5,0.6,0.8C44.3-56.3,43.9-56,43.6-55.7z M12.6-57.4l1.2,0.9
					c-0.2,0.2-0.5,0.6-0.5,0.6l-1.2-0.9C12.3-57,12.5-57.2,12.6-57.4z M4.1-36.2c0.3,0.5,0.7,0.9,0.7,1.2c0,0.2-0.5,0.4-0.8,0.6
					c-0.2-0.3-0.4-0.7-0.5-1C3.4-35.6,3.8-35.8,4.1-36.2z M110.3-75.7c0.3,0.5,0.5,0.9,0.7,1.2c-0.3,0.1-0.7,0.4-1,0.4
					c-0.2,0-0.5-0.5-0.5-0.6C109.6-75,110-75.3,110.3-75.7z M9.4-46.6l0.6-1.3c0.3,0.1,0.8,0.4,0.8,0.4c-0.2,0.5-0.4,0.9-0.6,1.3
					C9.9-46.3,9.7-46.4,9.4-46.6z M7.1-63.4c0.2,0.5,0.5,0.9,0.6,1.4c0,0.1-0.4,0.3-0.6,0.4c-0.2-0.5-0.5-0.9-0.8-1.4L7.1-63.4z
					 M74.7-92.5c-0.5,0.2-1,0.3-1.5,0.4c-0.1,0-0.2-0.4-0.3-0.6c0.5-0.2,1-0.4,1.4-0.6C74.5-93,74.6-92.7,74.7-92.5z M82.2-77
					l0.8-1.4c0.2,0.1,0.6,0.3,0.6,0.4L83-76.6C82.7-76.7,82.5-76.8,82.2-77z M119.5-40.4c-0.3-0.4-0.7-0.7-0.7-0.9
					c0.1-0.3,0.4-0.6,0.6-0.9c0.2,0.2,0.6,0.4,0.6,0.6C120.1-41.2,119.8-40.9,119.5-40.4z M83.2-42.1l0.4,1.4
					c-0.3,0.1-0.8,0.3-0.8,0.2c-0.2-0.4-0.3-0.9-0.5-1.4L83.2-42.1z M22.8-82.6l-1.4-0.6c0.1-0.3,0.4-0.7,0.4-0.7l1.4,0.6
					C23-83.1,22.9-82.8,22.8-82.6z M46.5-78.6l0.7,1.3c-0.3,0.1-0.5,0.2-0.8,0.4l-0.6-1.3C46.1-78.4,46.3-78.5,46.5-78.6z
					 M66.6-92.5c0.5-0.2,1-0.3,1.5-0.4l0.3,0.6c-0.5,0.1-1,0.3-1.5,0.6C66.8-92,66.7-92.3,66.6-92.5z M9.2-41.5
					c0.5-0.3,0.9-0.6,1.1-0.6c0.3,0.1,0.5,0.5,0.6,0.8c0,0.1-0.5,0.5-0.7,0.5C9.9-40.8,9.7-41.1,9.2-41.5z M113.6-84.7
					c0.2,0.7,0.5,1.1,0.4,1.3c-0.1,0.3-0.6,0.4-0.9,0.6c-0.1-0.3-0.4-0.6-0.3-0.8C112.8-84,113.2-84.2,113.6-84.7z M22.1-112.9
					c-0.2-0.4-0.5-0.8-0.4-0.9c0.2-0.3,0.5-0.5,0.8-0.6c0.1,0,0.6,0.5,0.5,0.5C22.8-113.6,22.5-113.3,22.1-112.9z M114.4-47.3
					c-0.5,0.3-0.7,0.6-0.9,0.5c-0.2,0-0.6-0.3-0.6-0.6c0-0.2,0.3-0.5,0.4-0.7C113.5-47.9,113.8-47.6,114.4-47.3z M64.8-48.8
					c0.4,0.7,0.6,1,0.7,1.4c0,0.2-0.4,0.6-0.5,0.6c-0.3-0.1-0.6-0.4-0.8-0.6C64.1-47.6,64.4-47.9,64.8-48.8z M45.6-89.2l1.4-1.1
					l0.4,0.5l-1.3,1.2C46.1-88.6,45.6-89.2,45.6-89.2z M56.7-50.4c-0.4,0.3-0.7,0.6-0.9,0.5c-0.2,0-0.6-0.3-0.6-0.6
					c0-0.2,0.3-0.7,0.4-0.7C55.9-50.9,56.2-50.7,56.7-50.4z M112.4-71.3c0.5-0.3,0.8-0.6,1.1-0.7c0.1,0,0.5,0.5,0.5,0.6
					c-0.1,0.3-0.4,0.6-0.7,0.6C113.1-70.6,112.9-71,112.4-71.3z M41.5-119.9c-0.5,0.3-0.8,0.6-1.2,0.7c-0.1,0-0.3-0.4-0.5-0.6
					c0.3-0.2,0.5-0.5,0.9-0.6C40.8-120.5,41.1-120.2,41.5-119.9z M123.4-74.4c-0.5,0.3-0.8,0.6-1.1,0.7c-0.1,0-0.4-0.4-0.5-0.6
					c0.3-0.2,0.5-0.5,0.9-0.6C122.8-75,123-74.7,123.4-74.4z M83.1-121.1c0.3,0.5,0.6,0.8,0.6,1.2c0,0.2-0.4,0.4-0.6,0.7
					c-0.2-0.3-0.6-0.6-0.6-0.9C82.4-120.4,82.8-120.7,83.1-121.1z M11.2-120.1c-0.4,0.3-0.7,0.7-1,0.8c-0.1,0-0.6-0.5-0.6-0.6
					c0.1-0.3,0.4-0.7,0.7-0.8C10.4-120.9,10.7-120.5,11.2-120.1z M56.7-117c-0.5,0.2-0.8,0.4-1,0.4c-0.2-0.1-0.5-0.4-0.6-0.6
					c0-0.2,0.5-0.6,0.5-0.6C55.9-117.7,56.2-117.4,56.7-117z M20.2-117.2c-0.4,0.3-0.7,0.6-0.9,0.6c-0.2,0-0.6-0.3-0.7-0.5
					c-0.1-0.2,0.2-0.5,0.3-0.8C19.4-117.7,19.7-117.5,20.2-117.2z M55.8-43.1c-0.3-0.4-0.7-0.6-0.7-0.8c0-0.2,0.2-0.6,0.5-0.7
					c0.2-0.1,0.5,0.2,0.8,0.3C56.2-43.9,56-43.6,55.8-43.1z M74.9-122.9c-0.6,0.1-1,0.3-1.2,0.2c-0.2-0.2-0.3-0.6-0.4-1
					c0,0,0.5-0.3,0.6-0.3C74.2-123.7,74.5-123.4,74.9-122.9z M10.3-113.3c-0.4-0.4-0.7-0.7-0.8-1c0-0.1,0.3-0.4,0.5-0.6
					c0.3,0.2,0.6,0.4,0.8,0.7C10.9-114.1,10.6-113.7,10.3-113.3z M17.2-113.9c-0.6,0.2-0.9,0.4-1.1,0.3c-0.3-0.2-0.4-0.6-0.6-0.9
					c0.2-0.1,0.6-0.4,0.7-0.4C16.6-114.7,16.8-114.3,17.2-113.9z M104.4-93.5c0.3,0.4,0.6,0.8,0.5,0.9c-0.2,0.3-0.6,0.5-0.9,0.8
					c-0.2-0.2-0.5-0.5-0.5-0.7C103.7-92.8,104-93.1,104.4-93.5z M4.2-42.1c0.3,0.5,0.6,0.8,0.6,1.1c0,0.2-0.4,0.4-0.6,0.7
					c-0.2-0.3-0.6-0.6-0.6-0.9C3.5-41.5,3.9-41.7,4.2-42.1z M77-84.7c0.3,0.5,0.6,0.8,0.6,1.1c0,0.2-0.4,0.4-0.6,0.7
					c-0.2-0.3-0.6-0.6-0.6-0.9C76.3-84,76.7-84.3,77-84.7z M65.3-58.8l-1.2-0.6c0,0,0.2-0.5,0.4-0.7c0.4,0.3,0.8,0.5,1.1,0.8
					C65.5-59.2,65.4-59,65.3-58.8z M53.6-59.4c-0.4,0.3-0.7,0.6-1,0.7c-0.1,0-0.6-0.5-0.6-0.6c0.1-0.3,0.4-0.6,0.7-0.8
					C52.9-60.1,53.2-59.7,53.6-59.4z M107-60.5c0.4,0.5,0.7,0.8,0.9,1.1c0,0.1-0.4,0.5-0.6,0.5s-0.6-0.3-0.6-0.5
					C106.6-59.7,106.9-60,107-60.5z M74-61.3c-0.3-0.5-0.7-0.8-0.7-1.1l0.7-0.7c0.2,0.2,0.6,0.5,0.6,0.7S74.3-61.9,74-61.3z
					 M114.4-65.4c-0.5,0.2-0.8,0.4-1,0.4c-0.2-0.1-0.5-0.4-0.6-0.7c0-0.2,0.4-0.6,0.5-0.6C113.6-66.1,113.9-65.8,114.4-65.4z
					 M108-65.2c-0.3,0.1-0.7,0.3-0.8,0.2c-0.2-0.2-0.3-0.6-0.4-1c0,0,0.4-0.3,0.6-0.2c0.4,0,0.8,0.2,1.2,0.3
					C108.6-65.9,108-65.2,108-65.2z M60.8-86.7c0.4-0.2,0.9-0.4,1.3-0.7c0.1,0.3,0.2,0.6,0.4,0.8L61-86.3
					C60.9-86.4,60.8-86.5,60.8-86.7z M32.4-86.7c-0.5,0.2-0.8,0.4-1,0.4c-0.2-0.1-0.5-0.4-0.6-0.6c0-0.2,0.4-0.6,0.5-0.6
					C31.6-87.4,31.9-87.1,32.4-86.7z M11.1-53.4c-0.4,0.3-0.7,0.6-0.8,0.5C10-53,9.7-53.3,9.5-53.6c-0.1-0.1,0.4-0.6,0.5-0.6
					C10.3-54,10.6-53.8,11.1-53.4z M5-53.2c-0.5,0.3-0.8,0.6-1.1,0.7c-0.1,0-0.5-0.5-0.5-0.6c0.2-0.3,0.5-0.6,0.8-0.7
					C4.4-53.8,4.7-53.4,5-53.2z M50.6-68.4c-0.5,0.3-0.8,0.5-1.1,0.7C49.3-68,49-68.3,49-68.6c0-0.2,0.5-0.6,0.6-0.6
					C50-69.1,50.2-68.8,50.6-68.4z M31.3-69.6c0.4,0.5,0.8,0.8,0.8,1.1s-0.4,0.6-0.7,0.8c-0.2-0.2-0.6-0.4-0.6-0.6
					C30.8-68.6,31.1-69,31.3-69.6z M104.8-80.1l-1.2-0.6c0,0,0.2-0.5,0.4-0.7c0.4,0.3,0.8,0.6,1.1,0.8
					C105-80.5,104.9-80.3,104.8-80.1z M37.4-81.7c0.4,0.5,0.8,0.8,0.8,1c0,0.3-0.4,0.6-0.7,0.8c-0.2-0.1-0.6-0.3-0.6-0.6
					S37.1-81.1,37.4-81.7z M44.8-80.2c-0.4,0.1-0.8,0.4-1.2,0.3c-0.3,0-0.6-0.5-0.7-0.8c-0.1-0.2,0.3-0.7,0.5-0.7
					c0.3,0,0.6,0.3,0.9,0.4C44.5-80.6,44.7-80.4,44.8-80.2z M49.4-81.8c0.4,0.5,0.7,0.7,0.8,1.1c0,0.1-0.4,0.5-0.6,0.5
					c-0.2,0-0.6-0.3-0.6-0.6C49-81,49.2-81.3,49.4-81.8z M98-69.6l0.9,1c0,0.1-0.4,0.6-0.5,0.6c-0.3-0.1-0.6-0.4-0.8-0.6
					C97.5-68.8,97.8-69.2,98-69.6z M111.3-68.6c-0.4,0.3-0.7,0.6-0.8,0.5c-0.3-0.1-0.6-0.4-0.8-0.6c0.2-0.2,0.4-0.7,0.5-0.6
					C110.5-69.2,110.8-68.9,111.3-68.6z M67.6-57.5c0.4,0.5,0.7,0.7,0.9,1.1c0,0.1-0.4,0.5-0.6,0.5s-0.6-0.3-0.7-0.5
					C67.2-56.7,67.4-57,67.6-57.5z M26.3-86.7c-0.5,0.4-0.8,0.7-1.1,0.8c-0.1,0-0.5-0.4-0.5-0.6s0.3-0.6,0.6-0.6
					C25.5-87.2,25.8-86.9,26.3-86.7z M78-59.4c-0.5,0.5-0.8,0.8-1.1,0.9c-0.1,0-0.6-0.4-0.5-0.6c0-0.2,0.3-0.6,0.6-0.7
					C77.1-59.9,77.4-59.6,78-59.4z M87.9-59l0.8-0.7c0.3,0.1,0.6,0.4,0.9,0.6c-0.2,0.2-0.4,0.6-0.6,0.6C88.7-58.5,88.4-58.8,87.9-59
					z M122.3-55.3c-0.2-0.5-0.5-0.9-0.4-1.2c0-0.2,0.5-0.4,0.7-0.5c0.2,0.3,0.5,0.6,0.5,1C123.2-55.9,122.7-55.7,122.3-55.3z
					 M88.9-36.2c0.4,0.5,0.7,0.8,0.9,1.1c-0.2,0.2-0.5,0.5-0.7,0.5s-0.6-0.3-0.6-0.6C88.4-35.4,88.6-35.7,88.9-36.2z M53.2-34.6
					L52-35.2c0,0,0.2-0.5,0.4-0.7c0.4,0.3,0.8,0.6,1.1,0.8C53.4-34.9,53.3-34.7,53.2-34.6z M16.4-34.3c-0.4-0.4-0.7-0.7-0.8-1
					c0-0.2,0.3-0.4,0.5-0.7c0.3,0.2,0.6,0.5,0.8,0.8C17-35.1,16.7-34.8,16.4-34.3z M62.8-98.8c-0.5,0.2-0.8,0.4-1,0.4
					c-0.2-0.1-0.5-0.4-0.6-0.6c0-0.2,0.4-0.6,0.5-0.6C62-99.5,62.3-99.2,62.8-98.8z M25.2-19.1c-0.2-0.6-0.4-0.9-0.5-1.2
					c0-0.1,0.4-0.4,0.5-0.4c0.3,0.2,0.6,0.5,0.8,0.8C26-19.8,25.6-19.5,25.2-19.1z M13.6-15c0.1,0.3,0.3,0.7,0.3,0.9
					c-0.1,0.3-0.3,0.7-0.5,1c-0.2-0.2-0.7-0.3-0.7-0.5c0-0.3,0.2-0.7,0.3-1C13.2-14.8,13.4-14.9,13.6-15z M81-13.8
					c-0.5,0.2-0.8,0.5-0.9,0.4c-0.3-0.2-0.5-0.5-0.6-0.8c0-0.1,0.5-0.6,0.6-0.5C80.2-14.5,80.5-14.2,81-13.8z M22.8-16.3l-1.2-0.6
					c0,0,0.2-0.5,0.4-0.7c0.4,0.3,0.8,0.6,1.1,0.8C23.1-16.7,22.9-16.5,22.8-16.3z M47.4-17c-0.5,0.2-0.9,0.5-1.2,0.5
					c-0.2,0-0.4-0.4-0.6-0.7c0.3-0.2,0.6-0.5,1-0.5C46.8-17.7,47-17.3,47.4-17z M90.1-101.7c-0.6,0.3-0.9,0.4-1.2,0.6
					c-0.1-0.3-0.4-0.6-0.3-0.8c0.1-0.2,0.4-0.5,0.7-0.5C89.4-102.3,89.6-102,90.1-101.7z M89.2-109c0.3,0.5,0.6,0.8,0.6,1.2
					c0,0.2-0.4,0.4-0.6,0.7c-0.2-0.3-0.6-0.6-0.6-0.9C88.5-108.3,88.8-108.6,89.2-109z M121.5-110.6c0.5-0.4,0.7-0.7,1-0.8
					c0.2,0,0.4,0.3,0.7,0.5c-0.2,0.3-0.5,0.6-0.8,0.8C122.3-110,122-110.3,121.5-110.6z M99-25.8l-1.1,0.7c-0.1-0.3-0.4-0.7-0.4-0.7
					c0.4-0.3,0.8-0.4,1.2-0.6L99-25.8z M71-23.7c0.3,0.5,0.6,0.8,0.5,1c-0.1,0.3-0.4,0.6-0.7,0.7c-0.1,0-0.6-0.4-0.6-0.5
					C70.3-22.9,70.6-23.2,71-23.7z M123-98.3l-1.2-0.6l0.4-0.8l1.1,0.8L123-98.3z M10.1-24.1c0.3,0.5,0.6,0.8,0.7,1.1
					c0,0.1-0.5,0.5-0.6,0.4c-0.3-0.1-0.6-0.4-0.7-0.7C9.5-23.4,9.8-23.7,10.1-24.1z M29.4-22.8c-0.6,0.1-0.9,0.3-1.1,0.2
					c-0.3-0.2-0.4-0.6-0.6-0.9c0.2-0.1,0.6-0.4,0.7-0.3C28.7-23.6,28.9-23.2,29.4-22.8z M47.6-23.1c-0.4,0.3-0.7,0.6-0.8,0.5
					c-0.3-0.1-0.6-0.4-0.9-0.6c0.2-0.2,0.4-0.6,0.5-0.6L47.6-23.1z M125.6-24c0.3,0.5,0.6,0.8,0.6,1.2c0,0.2-0.4,0.4-0.6,0.7
					c-0.2-0.3-0.6-0.6-0.6-0.9C124.9-23.3,125.3-23.5,125.6-24z M22.8-4.2l-1.2-0.6c0,0,0.2-0.5,0.4-0.7c0.4,0.3,0.8,0.6,1.1,0.8
					C23.1-4.6,22.9-4.4,22.8-4.2z M41.5-4.6c-0.6,0.1-0.9,0.4-1.1,0.2C40.1-4.6,40-5,39.8-5.3c0.2-0.1,0.6-0.4,0.7-0.3
					C40.9-5.4,41.1-5,41.5-4.6z M53.4-4.5c-0.3,0.1-0.6,0.3-0.8,0.2c-0.3-0.2-0.4-0.6-0.6-0.8c0.2-0.1,0.5-0.4,0.7-0.4
					c0.4,0,0.8,0.2,1.2,0.3C53.7-5,53.5-4.7,53.4-4.5z M66-4.3c-0.3,0.1-0.8,0.4-1.1,0.3c-0.3,0-0.6-0.4-0.7-0.8
					c-0.1-0.2,0.3-0.7,0.5-0.7c0.3,0,0.6,0.3,0.9,0.4C65.7-4.8,65.9-4.5,66-4.3z M14.2-7.6C13.6-7.3,13.3-7.1,13-7
					c-0.1-0.3-0.4-0.6-0.3-0.8c0.1-0.2,0.5-0.5,0.7-0.5C13.5-8.2,13.8-7.9,14.2-7.6z M32.4-7.8c-0.5,0.4-0.8,0.7-1.1,0.9
					c-0.1,0-0.5-0.4-0.5-0.6s0.3-0.6,0.5-0.7C31.6-8.3,31.9-8,32.4-7.8z M87.1-7.6l-0.8,0.7C86-7,85.7-7.4,85.4-7.6
					c0.2-0.2,0.4-0.6,0.6-0.6C86.3-8.1,86.6-7.9,87.1-7.6z M62.7-1.5c-0.6,0.3-0.9,0.5-1.2,0.6c-0.1-0.3-0.4-0.6-0.3-0.8
					c0.1-0.2,0.4-0.5,0.7-0.5L62.7-1.5z M8.1-1.9C7.7-1.6,7.5-1.2,7.3-1.3C7-1.3,6.7-1.5,6.6-1.8C6.5-1.9,6.7-2.3,6.8-2.5
					C7.2-2.4,7.5-2.2,8.1-1.9z M26.3-1.7c-0.4,0.3-0.7,0.6-1,0.7c-0.1,0-0.6-0.5-0.5-0.7c0.1-0.3,0.4-0.6,0.7-0.8
					C25.6-2.5,25.9-2,26.3-1.7z M49.6-105.9c0.4,0.4,0.8,0.7,0.7,0.9c-0.1,0.3-0.4,0.6-0.6,1c-0.2-0.2-0.7-0.4-0.7-0.6
					C49-105.1,49.3-105.4,49.6-105.9z M38.5-104.9c-0.4,0.4-0.7,0.8-0.8,0.7c-0.3-0.2-0.6-0.5-0.7-0.8c-0.1-0.2,0.4-0.7,0.6-0.7
					C37.8-105.5,38-105.2,38.5-104.9z M19.2-73.5c-0.3-0.6-0.6-0.9-0.5-1.2c0-0.2,0.5-0.4,0.8-0.6c0.2,0.2,0.5,0.5,0.5,0.7
					C19.9-74.2,19.6-74,19.2-73.5z M114.4-4.7c-0.5,0.4-0.8,0.7-1.1,0.8c-0.1,0-0.5-0.4-0.5-0.6s0.4-0.6,0.6-0.6
					C113.6-5.2,113.9-4.9,114.4-4.7z M57.3-38.4c-1.1,0.7-1.3,0.9-1.7,1c-0.2,0-0.6-0.5-0.5-0.7c0.1-0.3,0.5-0.6,0.8-0.7
					C56.2-38.9,56.5-38.6,57.3-38.4z M95.3-103.2c0.3,0.5,0.6,0.9,0.5,0.9c-0.2,0.3-0.6,0.5-0.9,0.6c0,0-0.4-0.4-0.4-0.5
					C94.7-102.4,94.9-102.7,95.3-103.2z M59.7-101.9c-0.4,0.3-0.7,0.8-0.8,0.7c-0.3-0.2-0.6-0.5-0.7-0.8c-0.1-0.1,0.4-0.7,0.6-0.6
					C59-102.5,59.3-102.2,59.7-101.9z M35-102.3c-0.5,0.4-0.7,0.7-1,0.8c-0.2,0.1-0.4-0.3-0.7-0.5c0.2-0.3,0.5-0.6,0.8-0.8
					C34.2-102.8,34.6-102.5,35-102.3z M122.4-15c0.3,0.5,0.6,0.8,0.7,1.1c0,0.1-0.5,0.5-0.6,0.5c-0.3-0.2-0.6-0.5-0.7-0.8
					C121.8-14.3,122.1-14.6,122.4-15z M6.8-39.3c0.4,0.5,0.7,0.7,0.9,1.1c0,0.1-0.4,0.6-0.6,0.5c-0.2,0-0.6-0.3-0.7-0.6
					C6.4-38.4,6.6-38.8,6.8-39.3z M6.9-6.9C6.8-7.2,6.5-7.5,6.6-7.8s0.5-0.6,0.7-0.8c0,0,0.5,0.3,0.5,0.4c0,0.3-0.2,0.7-0.4,1
					C7.3-7.1,7.1-7,6.9-6.9z M50.6-7.6c-0.6,0.1-1,0.3-1.1,0.2c-0.2-0.2-0.3-0.6-0.4-1c0,0,0.5-0.3,0.6-0.2
					C49.9-8.4,50.2-8.1,50.6-7.6z M111.3-7.8c-0.4,0.4-0.6,0.7-0.9,0.8c-0.1,0-0.7-0.5-0.6-0.6c0.1-0.3,0.4-0.6,0.6-0.9
					C110.6-8.3,110.9-8.2,111.3-7.8z M122.4-6.8c-0.2-0.5-0.5-0.8-0.5-1.2c0-0.2,0.5-0.3,0.7-0.5c0.2,0.3,0.5,0.6,0.5,1
					C123.2-7.4,122.7-7.1,122.4-6.8z M4-106.8c-0.3-0.5-0.6-0.7-0.5-0.9c0-0.2,0.3-0.6,0.6-0.6c0.2,0,0.5,0.3,0.7,0.4
					C4.6-107.6,4.4-107.3,4-106.8z M64.7-9.6c-0.3-0.4-0.6-0.7-0.5-0.9c0.1-0.3,0.4-0.6,0.6-0.6s0.5,0.3,0.7,0.4
					C65.3-10.5,65-10.2,64.7-9.6z M53.7-77.5c-0.5,0.2-0.8,0.5-1,0.4c-0.3-0.2-0.5-0.5-0.7-0.8c0-0.1,0.5-0.6,0.6-0.5
					C52.9-78.3,53.2-78,53.7-77.5z M37.6-33.1c0.3,0.5,0.6,0.8,0.6,1.2c0,0.2-0.4,0.4-0.6,0.7c-0.2-0.3-0.6-0.6-0.6-0.9
					C36.9-32.4,37.2-32.7,37.6-33.1z M20.2-32c-0.4,0.3-0.8,0.7-0.9,0.7c-0.3-0.2-0.6-0.5-0.7-0.8c0-0.2,0.5-0.7,0.6-0.6
					C19.6-32.7,19.8-32.3,20.2-32z M122.8-31.4c-0.4-0.4-0.8-0.7-0.7-0.8c0.1-0.3,0.4-0.6,0.7-0.8c0.1-0.1,0.7,0.4,0.7,0.5
					C123.4-32.1,123.1-31.8,122.8-31.4z M4-29.8c0.4,0.4,0.7,0.7,0.8,1c0,0.1-0.3,0.4-0.5,0.6c-0.3-0.2-0.6-0.4-0.8-0.7
					C3.5-29,3.8-29.3,4-29.8z M40.3-78.8l0.9,1c0,0.1-0.4,0.6-0.5,0.6c-0.3-0.1-0.6-0.4-0.8-0.7C39.8-78,40.1-78.3,40.3-78.8z
					 M101.2-28c-0.3-0.5-0.5-0.9-0.5-1.2c0-0.2,0.4-0.4,0.7-0.6c0.2,0.3,0.5,0.6,0.6,0.9C101.9-28.6,101.5-28.4,101.2-28z M65.8-29
					c-0.4,0.4-0.7,0.8-0.8,0.7c-0.3-0.2-0.6-0.5-0.7-0.8c-0.1-0.1,0.4-0.7,0.6-0.6C65.1-29.6,65.4-29.3,65.8-29z M50.6-111
					c-0.5,0.2-0.8,0.5-1,0.5c-0.2-0.1-0.6-0.4-0.6-0.6c0-0.2,0.4-0.7,0.5-0.6C49.8-111.6,50.1-111.4,50.6-111z M78-28.9
					c-0.6,0.2-0.9,0.4-1.1,0.4c-0.3-0.1-0.6-0.4-0.6-0.6s0.4-0.6,0.5-0.6C77.2-29.7,77.4-29.4,78-28.9z M49.5-30.9
					c-0.3-0.4-0.6-0.7-0.5-0.9c0-0.2,0.3-0.6,0.6-0.6c0.2,0,0.5,0.3,0.7,0.4C50.1-31.7,49.9-31.4,49.5-30.9z M80-30.9
					c-0.3-0.4-0.7-0.6-0.6-0.8c0-0.3,0.2-0.6,0.5-0.7c0.2-0.1,0.5,0.2,0.8,0.3C80.5-31.8,80.3-31.5,80-30.9z M95.5-97
					c0.1,0.3,0.3,0.6,0.3,0.9c0,0.3-0.3,0.7-0.5,1c-0.2-0.2-0.7-0.3-0.7-0.5c0-0.3,0.2-0.7,0.3-1C94.9-96.6,95.5-97,95.5-97z
					 M99.1-7.9c-0.3,0.3-0.6,0.5-0.8,0.5c-0.2,0-0.5-0.2-0.8-0.4l0.6-0.9C98.1-8.7,99.1-7.9,99.1-7.9z M99.1-1
					c-0.3,0.3-0.6,0.5-0.8,0.5c-0.2,0-0.5-0.2-0.8-0.4l0.6-0.9C98.1-1.8,99.1-1,99.1-1z M20.2-7.8c-0.4,0.3-0.7,0.6-0.9,0.5
					c-0.2,0-0.6-0.4-0.6-0.6c0-0.3,0.4-0.6,0.6-0.6S19.8-8.2,20.2-7.8z M117.3-7.5c-0.5,0.1-0.8,0.3-1,0.2c-0.2-0.1-0.3-0.4-0.5-0.6
					c0.3-0.1,0.6-0.4,0.9-0.4C116.9-8.4,117.1-7.9,117.3-7.5z M99.7-80.8l-1.4,0.6c-0.2,0-0.4-0.3-0.7-0.5c0.3-0.2,0.5-0.6,0.8-0.6
					C98.6-81.4,99-81.1,99.7-80.8z M43.7-103.9c-0.3-0.4-0.7-0.6-0.7-0.8c0-0.2,0.3-0.6,0.5-0.6s0.6,0.3,0.7,0.5
					C44.2-104.6,44-104.3,43.7-103.9z M74.9-13.9c-0.4,0.4-0.7,0.8-0.9,0.8c-0.2,0-0.5-0.3-0.7-0.5c0.2-0.2,0.3-0.6,0.6-0.6
					C74.1-14.3,74.4-14.1,74.9-13.9z M109.4-14c0.3-0.3,0.6-0.7,0.7-0.7c0.3,0.2,0.5,0.4,0.8,0.7c-0.2,0.2-0.4,0.5-0.7,0.6
					C110-13.4,109.8-13.7,109.4-14z M4.1-103l0.7,1.2c0,0.1-0.4,0.4-0.6,0.6c-0.2-0.3-0.5-0.5-0.5-0.8C3.6-102.2,3.9-102.5,4.1-103z
					 M89-11.9c0.3,0.4,0.7,0.6,0.7,0.8c0,0.2-0.4,0.5-0.7,0.6c-0.2,0-0.5-0.4-0.6-0.6C88.4-11.3,88.7-11.5,89-11.9z M77.7-102.2
					c-0.4,0.3-0.6,0.7-0.8,0.7c-0.2,0-0.6-0.3-0.6-0.5s0.3-0.6,0.5-0.7C77-102.7,77.3-102.5,77.7-102.2z M126.5-53.5
					c-0.4,0.3-0.6,0.6-0.8,0.6c-0.2,0-0.5-0.3-0.7-0.5c0.2-0.2,0.3-0.6,0.6-0.7C125.7-54,126-53.8,126.5-53.5z M71.9-89.7
					c-0.5,0.4-0.7,0.7-1,0.7c-0.2,0-0.4-0.4-0.7-0.6c0.2-0.2,0.4-0.5,0.7-0.5C71.2-90.2,71.4-89.9,71.9-89.7z M64.8-90.4l0.7,0.7
					l-0.7,0.8c-0.2-0.2-0.5-0.4-0.6-0.7C64.2-89.8,64.5-90.1,64.8-90.4z M104.5-49.6l-0.8-0.6c0.1-0.3,0.4-0.6,0.6-0.9
					c0.2,0.2,0.5,0.4,0.6,0.7C105-50.2,104.7-49.9,104.5-49.6z M44.5-74.8c-0.4,0.3-0.6,0.6-0.8,0.6s-0.5-0.3-0.7-0.5
					c0.2-0.2,0.3-0.6,0.6-0.7C43.8-75.3,44-75,44.5-74.8z M126.5-4.6c-0.4,0.3-0.7,0.7-0.9,0.7c-0.2,0-0.4-0.4-0.7-0.6
					c0.2-0.2,0.4-0.5,0.7-0.6C125.8-5.2,126.1-4.9,126.5-4.6z M119.8-90.6c0.1,0.3,0.3,0.6,0.3,0.9s-0.3,0.5-0.5,0.7
					c-0.2-0.2-0.6-0.3-0.7-0.6c-0.1-0.2,0.2-0.5,0.3-0.7C119.2-90.3,119.8-90.6,119.8-90.6z M84-89.5c-0.5,0.3-0.8,0.6-1,0.5
					s-0.4-0.4-0.6-0.7c0.2-0.2,0.5-0.5,0.7-0.5C83.4-90.2,83.6-89.9,84-89.5z M37.3-1.1c-0.2-0.4-0.5-0.7-0.5-0.9s0.4-0.4,0.5-0.6
					c0.2,0.2,0.6,0.4,0.6,0.6C38-1.7,37.7-1.5,37.3-1.1z M104.3-2.6c0.3,0.3,0.6,0.5,0.6,0.8c0,0.2-0.4,0.6-0.5,0.6
					c-0.3-0.1-0.5-0.4-0.8-0.6C103.8-2,104-2.3,104.3-2.6z M31.5-2.7c0.3,0.4,0.6,0.6,0.6,0.9c0,0.2-0.4,0.6-0.6,0.6
					s-0.6-0.4-0.6-0.6C30.9-2,31.2-2.3,31.5-2.7z M111.1-105.2c-0.3,0.3-0.5,0.6-0.7,0.7c-0.2,0-0.7-0.3-0.6-0.4
					c0.1-0.3,0.3-0.6,0.5-0.9C110.5-105.6,110.7-105.5,111.1-105.2z M20.2-68.6c-0.4,0.3-0.7,0.6-0.9,0.5c-0.2,0-0.4-0.4-0.7-0.6
					c0.2-0.2,0.4-0.6,0.7-0.6C19.5-69.3,19.8-68.9,20.2-68.6z M108.3-53.1c-0.5,0.3-0.8,0.6-1,0.5s-0.4-0.4-0.6-0.7
					c0.2-0.2,0.5-0.5,0.7-0.5C107.7-53.7,107.9-53.4,108.3-53.1z M26.3-68.6c-0.4,0.3-0.7,0.6-0.9,0.6s-0.4-0.4-0.7-0.6
					c0.2-0.2,0.4-0.6,0.7-0.6C25.6-69.3,25.9-68.9,26.3-68.6z M32.4-37.9c-0.5,0.3-0.8,0.5-1,0.5c-0.2-0.1-0.4-0.4-0.6-0.7
					c0.2-0.2,0.5-0.5,0.7-0.5C31.8-38.5,32-38.2,32.4-37.9z M97.3-50.4c0.3-0.3,0.6-0.7,0.7-0.7c0.3,0.2,0.5,0.4,0.8,0.7
					c-0.2,0.2-0.4,0.5-0.7,0.6C97.9-49.9,97.6-50.2,97.3-50.4z M35.4-4.8c-0.4,0.3-0.6,0.5-0.8,0.5s-0.5-0.2-0.8-0.3
					c0.2-0.3,0.4-0.6,0.7-0.8C34.6-5.5,35-5.1,35.4-4.8z M7.1-33.2c0.3,0.5,0.6,0.8,0.5,0.9c0,0.3-0.4,0.4-0.7,0.6
					c-0.2-0.2-0.5-0.5-0.5-0.7C6.4-32.4,7.1-33.2,7.1-33.2z M73.9-33c0.3,0.4,0.7,0.6,0.7,0.8c0,0.2-0.3,0.6-0.5,0.6
					s-0.6-0.3-0.7-0.5C73.3-32.3,73.6-32.6,73.9-33z M10-5.9c0.3,0.4,0.7,0.7,0.7,0.9s-0.4,0.4-0.6,0.7C9.9-4.5,9.5-4.7,9.5-5
					C9.5-5.2,9.8-5.5,10-5.9z M73.9-37c-0.3-0.4-0.6-0.6-0.6-0.8c0-0.2,0.3-0.5,0.5-0.7c0.2,0.2,0.6,0.3,0.7,0.6
					C74.5-37.7,74.2-37.4,73.9-37z M25.1-49.7c-0.1-0.3-0.4-0.6-0.4-0.7c0.1-0.2,0.4-0.4,0.7-0.6c0.2,0.2,0.5,0.5,0.5,0.7
					c0,0.3-0.2,0.6-0.3,0.9C25.5-49.5,25.3-49.6,25.1-49.7z M11.1-59.3c-0.4,0.2-0.7,0.5-0.9,0.4c-0.2,0-0.5-0.3-0.7-0.5
					c0.3-0.2,0.5-0.6,0.8-0.7C10.4-60.1,10.7-59.7,11.1-59.3z M44.5-99.1c-0.4,0.3-0.6,0.6-0.8,0.6S43.2-98.8,43-99
					c0.2-0.2,0.3-0.6,0.6-0.7C43.7-99.6,44-99.3,44.5-99.1z M16-97c0.4,0.4,0.8,0.7,0.7,0.8c-0.1,0.3-0.5,0.5-0.7,0.7
					c-0.2-0.2-0.4-0.5-0.4-0.7C15.6-96.3,15.8-96.6,16-97z M80-99.8c0.3,0.4,0.6,0.6,0.6,0.9c0,0.2-0.4,0.5-0.6,0.5
					s-0.6-0.4-0.6-0.5C79.4-99.2,79.8-99.4,80-99.8z M59-35.8c0.2,0.4,0.5,0.7,0.4,0.8c-0.1,0.3-0.4,0.4-0.6,0.6
					c-0.2-0.3-0.5-0.6-0.6-0.9C58.2-35.2,58.6-35.5,59-35.8z M96.1-23c-0.4,0.4-0.6,0.7-0.8,0.8c-0.2,0-0.6-0.3-0.6-0.5
					s0.3-0.6,0.5-0.6C95.4-23.4,95.7-23.2,96.1-23z M102.2-65.4c-0.5,0.2-0.8,0.4-1,0.4c-0.2-0.1-0.4-0.4-0.6-0.6
					c0.2-0.2,0.5-0.5,0.7-0.5C101.6-66.1,101.8-65.8,102.2-65.4z M98.1-61.2c-0.2-0.4-0.4-0.7-0.4-1c0-0.2,0.3-0.7,0.4-0.6
					c0.3,0.1,0.6,0.3,0.9,0.5C98.8-62.1,98.6-61.8,98.1-61.2z M6.9-25.4c-0.1-0.3-0.4-0.6-0.4-0.7c0.1-0.2,0.4-0.4,0.7-0.6
					c0.2,0.2,0.5,0.5,0.5,0.7c0,0.3-0.2,0.6-0.3,0.9C7.3-25.2,7.1-25.3,6.9-25.4z M120.4-65.5c-0.4,0.3-0.7,0.6-0.9,0.5
					c-0.2,0-0.4-0.4-0.7-0.6c0.2-0.2,0.4-0.6,0.7-0.6C119.7-66.2,120-65.8,120.4-65.5z M23.2-34.9c-0.4,0.3-0.8,0.6-0.9,0.6
					c-0.3-0.2-0.4-0.6-0.6-0.9c0.3-0.1,0.5-0.3,0.8-0.3C22.7-35.5,22.9-35.2,23.2-34.9z M16.2-84.6c0.3,0.3,0.6,0.5,0.6,0.8
					c0,0.2-0.4,0.6-0.5,0.6c-0.3-0.1-0.5-0.4-0.8-0.6C15.8-84,16-84.3,16.2-84.6z M102.2-83.9c-0.4,0.3-0.6,0.7-0.8,0.7
					c-0.2,0-0.5-0.3-0.7-0.5c0.2-0.2,0.3-0.6,0.6-0.7C101.4-84.4,101.7-84.1,102.2-83.9z M76.7-64.5c-0.1-0.3-0.3-0.6-0.3-0.9
					s0.4-0.5,0.5-0.7c0.2,0.2,0.6,0.3,0.7,0.6c0.1,0.2-0.2,0.5-0.4,0.7C77-64.8,76.9-64.6,76.7-64.5z M105-56.7
					c-0.4,0.3-0.6,0.7-0.8,0.7c-0.2,0-0.6-0.3-0.6-0.5s0.3-0.7,0.5-0.7S104.6-56.9,105-56.7z M14.2-68.2c-0.5,0.3-0.8,0.6-1,0.5
					c-0.2-0.1-0.4-0.4-0.6-0.7c0.2-0.2,0.5-0.5,0.7-0.5S13.8-68.6,14.2-68.2z M101.3-102.6c0.3,0.4,0.6,0.6,0.6,0.8
					c0,0.2-0.4,0.4-0.6,0.7c-0.2-0.2-0.6-0.4-0.6-0.7C100.6-102,101-102.2,101.3-102.6z M70.8-100.9c-0.2-0.4-0.5-0.7-0.5-0.9
					c0-0.2,0.5-0.5,0.7-0.4c0.2,0,0.5,0.4,0.5,0.6C71.5-101.5,71.1-101.3,70.8-100.9z M46.7-101c-0.3-0.3-0.6-0.5-0.7-0.7
					c0-0.2,0.3-0.7,0.4-0.6c0.3,0.1,0.6,0.3,0.9,0.5C47.1-101.6,47-101.3,46.7-101z M56.7-62.6c-0.4,0.3-0.6,0.6-0.8,0.6
					s-0.5-0.3-0.7-0.5c0.2-0.2,0.3-0.6,0.6-0.7L56.7-62.6z M116.6-31.1c-0.3-0.3-0.6-0.5-0.7-0.7c0-0.2,0.3-0.7,0.4-0.6
					c0.3,0.1,0.6,0.3,0.9,0.5C117-31.8,116.8-31.5,116.6-31.1z M56.7-14c-0.4,0.3-0.6,0.7-0.8,0.7s-0.5-0.3-0.7-0.5
					c0.2-0.2,0.3-0.6,0.6-0.7C55.9-14.6,56.2-14.3,56.7-14z M38.4-13.7c-0.4,0.2-0.8,0.6-1,0.5c-0.3-0.2-0.5-0.5-0.5-0.9
					c0-0.1,0.4-0.5,0.7-0.5C37.8-14.6,38-14.2,38.4-13.7z M98.9-20.3c-0.3,0.3-0.5,0.6-0.7,0.7c-0.2,0-0.7-0.3-0.6-0.4
					c0.1-0.3,0.3-0.6,0.5-0.9C98.3-20.7,98.5-20.5,98.9-20.3z M119.1-34.6c-0.1-0.3-0.3-0.5-0.3-0.8c0.1-0.2,0.4-0.4,0.6-0.5
					c0.2,0.2,0.5,0.4,0.5,0.7l-0.3,0.9C119.5-34.4,119.3-34.5,119.1-34.6z M72-58.9c-0.3,0.1-0.6,0.3-0.9,0.3
					c-0.3-0.1-0.5-0.4-0.8-0.6c0.2-0.2,0.4-0.5,0.6-0.5s0.5,0.2,0.7,0.3S71.9-59.1,72-58.9z M41.6-83.3C41.3-83.2,41-83,40.7-83
					c-0.3-0.1-0.5-0.4-0.8-0.6c0.2-0.2,0.4-0.5,0.6-0.5c0.2,0,0.5,0.1,0.8,0.2C41.3-83.9,41.6-83.3,41.6-83.3z M4.1-47.9
					c0.3,0.3,0.7,0.6,0.7,0.7c-0.2,0.3-0.5,0.5-0.7,0.7c-0.2-0.2-0.5-0.4-0.5-0.7C3.5-47.4,3.8-47.6,4.1-47.9z M41.5-41.2
					c-0.4,0.2-0.6,0.5-0.8,0.5s-0.5-0.2-0.7-0.4c0.2-0.3,0.4-0.6,0.7-0.8C40.7-41.9,41.1-41.5,41.5-41.2z M107.3-48.2
					c0.3,0.4,0.7,0.6,0.7,0.8s-0.3,0.6-0.5,0.6s-0.6-0.3-0.7-0.5S107-47.8,107.3-48.2z M125.7-107.2c-0.4-0.4-0.7-0.6-0.7-0.8
					s0.3-0.5,0.5-0.7c0.2,0.2,0.6,0.3,0.7,0.6C126.2-107.9,125.9-107.6,125.7-107.2z M14.1-80.5c-0.4,0.3-0.7,0.7-0.9,0.7
					s-0.4-0.4-0.7-0.6c0.2-0.2,0.4-0.5,0.7-0.6C13.5-81.1,13.7-80.8,14.1-80.5z M85.9-93.5l0.8,0.6c-0.1,0.3-0.4,0.6-0.6,0.9
					c-0.2-0.2-0.5-0.4-0.6-0.7C85.4-92.8,85.7-93.1,85.9-93.5z M36-114.2c-1,0.4-1.3,0.7-1.5,0.6c-0.2,0-0.4-0.3-0.7-0.5
					c0.3-0.2,0.5-0.6,0.8-0.6C34.9-114.8,35.2-114.5,36-114.2z M82.7-46.3c-0.1-0.3-0.3-0.6-0.3-0.9s0.3-0.5,0.5-0.7
					c0.2,0.2,0.6,0.3,0.7,0.6c0.1,0.2-0.2,0.5-0.4,0.7C83.1-46.5,82.9-46.4,82.7-46.3z M116.9-92.7c-0.5,0.2-0.7,0.4-1,0.4
					c-0.2,0-0.4-0.3-0.6-0.5c0.3-0.2,0.5-0.5,0.8-0.6C116.2-93.5,116.5-93.1,116.9-92.7z M68.8-74.6c-0.4,0.4-0.6,0.7-0.9,0.8
					c-0.2,0-0.5-0.3-0.7-0.5c0.2-0.2,0.3-0.6,0.6-0.6C68.1-75,68.4-74.8,68.8-74.6z M101.3-72.5c0.3,0.4,0.6,0.6,0.6,0.9
					c0,0.2-0.4,0.6-0.6,0.6s-0.6-0.4-0.6-0.6C100.7-71.9,101-72.1,101.3-72.5z M80.9-116.9c-0.4,0.3-0.6,0.5-0.9,0.7
					c-0.2-0.3-0.4-0.6-0.7-0.8c0.2-0.1,0.5-0.4,0.7-0.4C80.3-117.5,80.6-117.2,80.9-116.9z M124.7-77.7c0.4-0.3,0.7-0.7,0.9-0.7
					c0.2,0,0.4,0.4,0.7,0.6c-0.2,0.2-0.4,0.5-0.7,0.6C125.3-77.1,125.1-77.4,124.7-77.7z M16.9-77.9c-0.3,0.3-0.5,0.6-0.8,0.6
					c-0.2,0-0.6-0.4-0.6-0.5l0.5-0.8C16.4-78.3,16.6-78.1,16.9-77.9z M61.8-93.7c0.3,0.4,0.6,0.6,0.6,0.9c0,0.2-0.4,0.5-0.6,0.5
					c-0.2,0-0.6-0.4-0.6-0.5C61.2-93.1,61.5-93.4,61.8-93.7z M113.3-78.7c0.3,0.4,0.6,0.7,0.6,0.9c0,0.3-0.3,0.5-0.5,0.8
					c-0.2-0.2-0.7-0.3-0.7-0.5C112.7-77.5,113.3-78.7,113.3-78.7z M20.2-44.3c-0.4,0.3-0.7,0.6-0.9,0.5c-0.2,0-0.4-0.4-0.7-0.6
					c0.2-0.2,0.4-0.6,0.7-0.6C19.5-45,19.8-44.6,20.2-44.3z M61.7-45.2c0.3,0.4,0.7,0.6,0.7,0.8s-0.3,0.6-0.5,0.6s-0.6-0.3-0.7-0.5
					C61.2-44.5,61.5-44.8,61.7-45.2z M37.6-122.1c-0.3-0.4-0.7-0.6-0.7-0.8c0-0.2,0.3-0.6,0.5-0.6s0.6,0.3,0.7,0.5
					C38.2-122.8,37.9-122.6,37.6-122.1z M111.3-123.2c-0.4,0.4-0.7,0.8-0.8,0.7c-0.3-0.1-0.5-0.4-0.8-0.7c0.2-0.2,0.4-0.5,0.7-0.5
					C110.6-123.6,110.9-123.4,111.3-123.2z M49.6-43.6C49.3-44,49-44.2,49-44.4c0-0.2,0.3-0.5,0.5-0.7c0.2,0.2,0.6,0.3,0.7,0.6
					C50.2-44.3,49.9-44,49.6-43.6z M90.1-114c-0.4,0.4-0.6,0.7-0.9,0.7c-0.2,0-0.5-0.3-0.7-0.5c0.2-0.2,0.3-0.6,0.6-0.6
					C89.3-114.5,89.6-114.2,90.1-114z M77.7-23.2c-0.3,0.2-0.5,0.5-0.8,0.6c-0.1,0-0.4-0.4-0.5-0.6c0.2-0.2,0.5-0.4,0.7-0.5
					C77.1-23.7,77.7-23.2,77.7-23.2z M104-43.5c-0.4-0.3-0.6-0.5-0.8-0.7c0.2-0.2,0.4-0.4,0.6-0.5c0.2,0,0.6,0.2,0.6,0.3
					C104.4-44.1,104.2-43.9,104-43.5z M23.4-22.9c-0.7,0.2-0.9,0.4-1.2,0.3c-0.2-0.1-0.3-0.4-0.5-0.6c0.2-0.1,0.4-0.3,0.6-0.3
					C22.6-23.4,22.8-23.2,23.4-22.9z M4.2-23.6c0.3,0.3,0.4,0.5,0.6,0.6c-0.2,0.2-0.4,0.4-0.7,0.5l-0.5-0.4
					C3.7-23.1,3.9-23.3,4.2-23.6z M92-32.7c0.4,0.3,0.6,0.5,0.8,0.7c-0.2,0.2-0.4,0.4-0.6,0.5c-0.2,0-0.6-0.2-0.6-0.3
					C91.6-32.1,91.8-32.3,92-32.7z M55.9-33c0.2,0.5,0.4,0.8,0.4,1.1c0,0.2-0.4,0.4-0.5,0.6c-0.2-0.2-0.4-0.4-0.6-0.7
					C55.1-32.1,55.3-32.3,55.9-33z M4.2-113c-0.3-0.3-0.7-0.4-0.6-0.5c0-0.3,0.2-0.5,0.3-0.8c0.2,0.1,0.5,0.2,0.5,0.3
					C4.4-113.7,4.2-113.4,4.2-113z M40.9-113.7l-0.9,0.5l-0.4-0.7l0.8-0.4C40.5-114.4,40.7-114,40.9-113.7z M47.4-29.3
					C47.2-29,47-28.6,47-28.7c-0.3-0.1-0.5-0.2-0.8-0.4l0.4-0.7C46.9-29.6,47.1-29.4,47.4-29.3z M125.5-41.7c0.1,0.5,0.3,0.7,0.3,1
					c0,0.2-0.3,0.3-0.5,0.4l-0.4-0.7C124.9-41.2,125.2-41.4,125.5-41.7z M28.4-94.7c-0.2-0.6-0.4-0.9-0.4-1.2c0-0.2,0.3-0.4,0.5-0.7
					c0.2,0.2,0.5,0.4,0.6,0.7C29.1-95.7,28.9-95.5,28.4-94.7z M71.4-40.8l-1.3,0.1c0-0.2,0-0.4-0.1-0.6l1.3-0.1L71.4-40.8z
					 M83.9-65.2c-0.5,0.1-0.8,0.2-1,0.2c-0.1,0-0.2-0.3-0.4-0.5c0.3-0.1,0.6-0.3,0.8-0.3C83.5-65.8,83.6-65.5,83.9-65.2z M62.5-111
					c-0.3,0.2-0.6,0.4-0.9,0.4c-0.1,0-0.3-0.4-0.4-0.7l0.8-0.4C62.1-111.7,62.3-111.3,62.5-111z M71.6-65.5L70.7-65
					c-0.1-0.2-0.2-0.5-0.4-0.7l0.8-0.4C71.2-66.1,71.4-65.8,71.6-65.5z M19.2-110.1c-0.2-0.4-0.4-0.7-0.4-0.8
					c0.1-0.2,0.4-0.4,0.6-0.5c0.1,0,0.5,0.3,0.5,0.4C19.8-110.8,19.6-110.6,19.2-110.1z M97.2-117.1l1.2-0.4
					c0.2,0.1,0.3,0.4,0.5,0.6c-0.2,0.1-0.4,0.3-0.6,0.3C98-116.6,97.8-116.8,97.2-117.1z M8-110.8c-0.2,0.1-0.4,0.3-0.6,0.2
					c-0.3,0-0.5-0.2-0.8-0.4c0.1-0.2,0.2-0.5,0.4-0.5c0.3,0,0.5,0.1,0.8,0.2C7.9-111.1,7.9-110.9,8-110.8z M31.5-117.7
					c0.2,0.3,0.4,0.5,0.5,0.7c0,0.1-0.4,0.4-0.5,0.4c-0.2-0.1-0.4-0.3-0.6-0.5L31.5-117.7z M13.2-27.1c0.1,0.2,0.3,0.4,0.2,0.6
					c0,0.3-0.2,0.5-0.4,0.8c-0.2-0.1-0.5-0.2-0.5-0.4c0-0.3,0.1-0.5,0.2-0.8C12.9-26.9,13-27,13.2-27.1z M110.9-62.4l-1.3,0.4
					l-0.2-0.5l1.3-0.4C110.8-62.7,110.8-62.5,110.9-62.4z M50.5-98.6c-0.2,0.1-0.4,0.2-0.6,0.2c-0.3,0-0.5-0.2-0.7-0.4
					c0.1-0.2,0.2-0.5,0.4-0.5c0.3,0,0.5,0.1,0.8,0.2C50.4-98.9,50.4-98.8,50.5-98.6z M111.5-25.9l-1.2,0.4c-0.2-0.1-0.3-0.4-0.5-0.6
					c0.2-0.1,0.4-0.3,0.6-0.3S110.9-26.2,111.5-25.9z M23.4-77.6c-0.6,0.3-0.8,0.5-1.1,0.5c-0.2,0-0.4-0.2-0.6-0.3
					c0.2-0.2,0.3-0.5,0.5-0.6C22.5-78.1,22.8-77.9,23.4-77.6z M80.7-92.5c-0.3,0.1-0.6,0.2-0.8,0.2c-0.2,0-0.3-0.3-0.4-0.5
					c0.3-0.1,0.5-0.3,0.8-0.3c0.2,0,0.5,0.1,0.7,0.2C80.9-92.9,80.8-92.7,80.7-92.5z M65.2-77.5c-0.4,0.1-0.7,0.3-0.8,0.3l-0.5-0.9
					c0.2-0.1,0.5-0.2,0.6-0.1C64.8-78.1,64.9-77.8,65.2-77.5z M125.7-29.7c0.2,0.3,0.4,0.5,0.4,0.8c0,0.1-0.4,0.4-0.5,0.3
					c-0.2-0.1-0.4-0.4-0.6-0.6C125.2-29.3,125.4-29.4,125.7-29.7z M89.1-29.6c0.2,0.2,0.4,0.3,0.6,0.4l-0.6,0.6l-0.6-0.6
					C88.7-29.3,88.9-29.4,89.1-29.6z M28.4-35.8c0.3,0.4,0.5,0.6,0.6,0.8l-0.7,0.4c-0.1,0-0.5-0.3-0.5-0.4
					C27.9-35.2,28.1-35.5,28.4-35.8z M31.5-105.6c0.2,0.3,0.4,0.5,0.5,0.6c-0.2,0.2-0.4,0.4-0.7,0.5c-0.1,0-0.5-0.3-0.4-0.4
					L31.5-105.6z M122.4-93.6l0.6,0.5l-0.8,0.8l-0.4-0.5C121.8-92.8,122.4-93.6,122.4-93.6z M112.6-90c0.3-0.2,0.5-0.4,0.7-0.5
					c0.1,0,0.4,0.4,0.4,0.5c-0.1,0.2-0.3,0.4-0.5,0.6C113-89.6,112.8-89.7,112.6-90z M116.5-122c-0.5-0.8-0.8-1-0.7-1.1
					c0.1-0.3,0.4-0.5,0.6-0.7c0.2,0.2,0.5,0.4,0.5,0.6C116.9-122.9,116.7-122.6,116.5-122z M121.5-80.7c0.7-0.2,0.9-0.4,1.2-0.4
					c0.2,0.1,0.3,0.4,0.5,0.6c-0.2,0.1-0.4,0.3-0.6,0.3C122.3-80.2,122-80.4,121.5-80.7z M8-86.8l-0.6,0.5c-0.3-0.1-0.5-0.3-0.7-0.5
					c0.2-0.2,0.4-0.6,0.6-0.6S7.7-87.1,8-86.8z M107.4-108.6c0.2,0.3,0.4,0.5,0.5,0.7c0,0.1-0.4,0.4-0.5,0.4
					c-0.2-0.1-0.4-0.3-0.6-0.5L107.4-108.6z M96-107.8c-0.4,0.1-0.7,0.3-0.9,0.3c-0.1,0-0.3-0.3-0.4-0.5l0.7-0.4
					C95.5-108.4,95.7-108.1,96-107.8z M115.5-38.2c0.3-0.4,0.5-0.6,0.7-0.8c0.2,0.2,0.4,0.4,0.5,0.6c0,0.2-0.2,0.6-0.3,0.6
					C116.1-37.8,115.9-38,115.5-38.2z M34.3-72.2c0.4,0.3,0.6,0.5,0.8,0.7c-0.2,0.2-0.4,0.5-0.6,0.5c-0.2,0-0.6-0.2-0.6-0.3
					C33.9-71.6,34.1-71.8,34.3-72.2z M59.8-89.8c-0.6,0.3-0.8,0.5-1.1,0.5c-0.2,0-0.4-0.2-0.6-0.3c0.2-0.2,0.3-0.5,0.5-0.6
					C58.9-90.2,59.2-90,59.8-89.8z M109.6-1.9c0.3-0.2,0.6-0.3,0.8-0.5c0.1,0.2,0.4,0.6,0.3,0.7c-0.2,0.2-0.5,0.3-0.8,0.4
					C109.9-1.3,109.8-1.6,109.6-1.9z M107.5-4.2c-0.3-0.3-0.7-0.5-0.7-0.7s0.3-0.4,0.5-0.6c0.2,0.2,0.5,0.4,0.6,0.7
					C108-4.7,107.8-4.5,107.5-4.2z M86-0.2c-0.3-0.3-0.7-0.5-0.7-0.7s0.3-0.4,0.5-0.6c0.2,0.2,0.5,0.4,0.6,0.7
					C86.5-0.7,86.2-0.5,86-0.2z M46.5-5.6l0.6,0.5l-0.8,0.8l-0.4-0.5C45.9-4.8,46.5-5.6,46.5-5.6z M5-5C4.7-4.7,4.6-4.3,4.5-4.4
					c-0.3,0-0.6-0.2-0.8-0.4C3.8-5,3.9-5.4,4.1-5.4S4.6-5.2,5-5z M116.6-49.7c-0.3-0.3-0.6-0.5-0.6-0.8c0-0.2,0.4-0.4,0.6-0.6
					c0.2,0.2,0.4,0.5,0.5,0.8C117.1-50.2,116.8-49.9,116.6-49.7z M96-4.5c-0.2,0.1-0.4,0.2-0.6,0.2c-0.3,0-0.5-0.2-0.7-0.3
					c0.1-0.2,0.2-0.5,0.4-0.5s0.5,0.1,0.8,0.2C95.9-4.8,95.9-4.7,96-4.5z M7.9-68.2L7-67.7l-0.4-0.7l0.8-0.4
					C7.6-68.8,7.7-68.5,7.9-68.2z M35.6-16.9c-0.6,0.3-0.8,0.5-1.1,0.5c-0.2,0-0.4-0.2-0.6-0.3c0.2-0.2,0.3-0.5,0.5-0.6
					C34.6-17.4,34.9-17.2,35.6-16.9z M84.1-108.3c-0.6,0.4-0.9,0.6-1.2,0.7l-0.5-0.4l0.8-0.7C83.2-108.7,84.1-108.3,84.1-108.3z
					 M87-68.3c-0.5,0.1-0.8,0.3-1.1,0.2c-0.2,0-0.3-0.3-0.4-0.5c0.3-0.1,0.5-0.3,0.8-0.3C86.5-68.9,86.6-68.6,87-68.3z M8-56.2
					c-0.4,0.1-0.7,0.3-1,0.3c-0.2,0-0.3-0.3-0.4-0.5l0.7-0.4C7.3-56.8,8-56.2,8-56.2z M28.9-72c-0.3,0.4-0.5,0.6-0.7,0.8
					c-0.2-0.2-0.5-0.4-0.5-0.6s0.2-0.6,0.3-0.6C28.2-72.3,28.5-72.2,28.9-72z M118.7-71.8c0.3-0.2,0.6-0.3,0.8-0.5l0.4,0.7l-0.8,0.4
					L118.7-71.8z M61.9-20.5c0.3,0.3,0.4,0.5,0.5,0.6c-0.2,0.2-0.4,0.4-0.7,0.5c-0.1,0-0.5-0.3-0.4-0.4
					C61.4-20.1,61.6-20.3,61.9-20.5z M6.4-44.5c0.3-0.2,0.6-0.4,0.9-0.4c0.1,0,0.3,0.4,0.4,0.7l-0.8,0.4C6.7-43.8,6.6-44.2,6.4-44.5
					z M92.4-67.8c-0.4-0.3-0.6-0.5-0.8-0.7c0.2-0.2,0.4-0.4,0.6-0.5c0.2,0,0.6,0.2,0.6,0.3C92.8-68.4,92.6-68.2,92.4-67.8z
					 M46.6-119.5c-0.3-0.2-0.7-0.4-0.6-0.4c0.1-0.3,0.2-0.6,0.4-0.8c0.1-0.1,0.5,0.2,0.7,0.4C47-120.1,46.8-119.9,46.6-119.5z
					 M98.3-45.4c0.2,0.4,0.4,0.7,0.4,0.8c-0.1,0.3-0.4,0.5-0.7,0.8l-0.4-0.5C97.7-44.5,97.9-44.8,98.3-45.4z M28.4-17.9
					c0.2,0.3,0.4,0.6,0.4,0.9c0,0.1-0.4,0.3-0.7,0.4l-0.4-0.8C27.8-17.6,28.1-17.7,28.4-17.9z M61.9-14.5c0.2,0.3,0.4,0.5,0.5,0.7
					c0,0.1-0.4,0.4-0.5,0.4c-0.2-0.1-0.4-0.3-0.6-0.5C61.3-13.9,61.9-14.5,61.9-14.5z M120.3-102.2c-0.2,0.3-0.4,0.7-0.4,0.6
					c-0.3-0.1-0.5-0.2-0.8-0.4c0.1-0.2,0.3-0.7,0.4-0.7C119.7-102.6,120-102.4,120.3-102.2z M76.8-11.7c0.3,0.2,0.5,0.3,0.7,0.5
					c-0.2,0.3-0.4,0.5-0.7,0.8c-0.2-0.1-0.5-0.3-0.5-0.4C76.4-11.1,76.6-11.4,76.8-11.7z M85.9-57.3c0.6,0.6,0.7,0.8,0.9,1
					c-0.2,0.2-0.4,0.4-0.7,0.5c-0.1,0-0.5-0.3-0.5-0.4C85.6-56.6,85.7-56.9,85.9-57.3z M10.6-65.6L10-65.1c-0.2,0-0.4-0.2-0.4-0.4
					s0.1-0.4,0.2-0.6C10-66,10.2-65.8,10.6-65.6z M115.6-80.6c0.2-0.2,0.4-0.5,0.6-0.5s0.4,0.1,0.7,0.2c-0.2,0.2-0.3,0.5-0.6,0.7
					C116.2-80.2,115.9-80.4,115.6-80.6z M29-65.8l-0.4,0.5c-0.3-0.1-0.5-0.3-0.7-0.4c0.2-0.2,0.3-0.5,0.5-0.5
					C28.5-66.2,28.8-66,29-65.8z M89.8-83.7c-0.4,0.3-0.5,0.5-0.7,0.5s-0.5-0.1-0.6-0.3c-0.1-0.1,0.1-0.5,0.2-0.5
					C89.1-84,89.3-83.8,89.8-83.7z M48.5-74.8c0.4-0.2,0.7-0.4,0.8-0.4c0.2,0.1,0.4,0.4,0.5,0.6c0,0.1-0.2,0.3-0.2,0.3
					C49.3-74.3,49.1-74.5,48.5-74.8z M38.4-74.2c-0.5,0.2-0.8,0.5-1,0.4c-0.2-0.1-0.4-0.4-0.4-0.7c0-0.1,0.4-0.4,0.5-0.4
					C37.8-74.8,38-74.5,38.4-74.2z M77.4-89.9c-0.3,0.2-0.6,0.4-0.8,0.5c-0.1-0.2-0.3-0.4-0.3-0.6s0.3-0.4,0.5-0.4
					C76.8-90.4,77.4-89.9,77.4-89.9z M40.7-47.9c0.2,0.3,0.4,0.6,0.5,0.8c-0.2,0.1-0.4,0.3-0.6,0.3c-0.2,0-0.4-0.3-0.5-0.5
					L40.7-47.9z M46.5-46.5c-0.2-0.3-0.4-0.6-0.5-0.8c0.2-0.1,0.4-0.3,0.6-0.3c0.2,0.1,0.4,0.3,0.5,0.5L46.5-46.5z M7-117.6
					c0.2,0.1,0.4,0.2,0.6,0.4L7-116.6c0,0-0.4-0.3-0.4-0.4C6.6-117.3,6.8-117.4,7-117.6z M59-52.6c-0.3-0.4-0.4-0.6-0.6-0.8
					c0.2-0.1,0.4-0.3,0.6-0.3c0.2,0,0.4,0.3,0.5,0.4C59.4-53.2,59.2-53,59-52.6z M7.6-122.9c-0.3,0.2-0.5,0.4-0.6,0.4
					c-0.2-0.1-0.4-0.3-0.4-0.5c0-0.1,0.2-0.3,0.3-0.5C7.1-123.3,7.3-123.1,7.6-122.9z M67.9-2.6c0.3,0.3,0.6,0.5,0.5,0.6l-0.5,0.6
					c-0.2-0.2-0.5-0.3-0.5-0.5S67.7-2.3,67.9-2.6z M55-92.7l0.5-0.5c0.2,0,0.4,0.1,0.6,0.2c-0.2,0.2-0.3,0.5-0.5,0.6L55-92.7z
					 M59.5-114c-0.3,0.2-0.5,0.4-0.6,0.4l-0.6-0.6c0.2-0.1,0.4-0.2,0.6-0.2C59.2-114.4,59.3-114.2,59.5-114z M126.1-114.2
					c-0.3,0.2-0.4,0.5-0.6,0.5s-0.3-0.2-0.5-0.3c0.2-0.2,0.3-0.4,0.5-0.5C125.6-114.5,125.8-114.3,126.1-114.2z M58.8-41.7l0.6,0.5
					l-0.6,0.6c-0.2-0.2-0.4-0.3-0.4-0.5C58.4-41.4,58.7-41.5,58.8-41.7z M26.2-98.9c-0.4,0.2-0.6,0.4-0.8,0.4
					c-0.2,0-0.4-0.1-0.6-0.2c0.2-0.2,0.3-0.5,0.5-0.6C25.4-99.4,25.7-99.1,26.2-98.9z M123-26c-0.3,0.1-0.6,0.3-1,0.4l-0.2-0.6
					l1-0.2C123-26.2,123-26.1,123-26z M77-121.1c0.3,0.3,0.6,0.6,0.5,0.7c-0.1,0.2-0.4,0.5-0.6,0.6c-0.1,0-0.5-0.3-0.4-0.5
					C76.5-120.6,76.8-120.8,77-121.1z M68.4-44.5c-0.3,0.3-0.5,0.5-0.7,0.6c-0.1-0.2-0.4-0.3-0.4-0.5s0.2-0.4,0.4-0.5L68.4-44.5z
					 M20.5-62.6c-0.8,0.4-1.1,0.7-1.2,0.6c-0.2-0.2-0.3-0.4-0.5-0.7c0.2-0.1,0.4-0.2,0.6-0.2C19.8-62.8,20-62.7,20.5-62.6z
					 M119.5-23.7c0.1,0.3,0.3,0.6,0.2,0.6c-0.2,0.2-0.4,0.3-0.7,0.4c-0.1-0.2-0.2-0.4-0.1-0.6C119-23.4,119.2-23.5,119.5-23.7z
					 M79.6-62.8l1,0.1l-0.1,0.6l-1-0.4C79.5-62.6,79.5-62.7,79.6-62.8z M26.1-32c-0.3,0.2-0.5,0.4-0.6,0.4c-0.2,0-0.3-0.3-0.5-0.5
					c0.2-0.1,0.3-0.4,0.5-0.4S25.8-32.3,26.1-32z M11.1-96c-0.4,0.3-0.5,0.6-0.7,0.6l-0.6-0.3c-0.1-0.1,0.1-0.5,0.2-0.5
					C10.3-96.2,10.6-96.1,11.1-96z M23.1-65.3c-0.2,0.2-0.4,0.4-0.6,0.5c-0.1-0.2-0.3-0.4-0.4-0.7c0-0.1,0.3-0.4,0.5-0.3
					C22.8-65.8,23-65.5,23.1-65.3z M46.4-34.4C46.2-34.7,46-35,46-35.1c0.1-0.2,0.3-0.4,0.5-0.4l0.6,0.3
					C46.9-35,46.7-34.8,46.4-34.4z M71.2-95.9c-0.2,0.2-0.3,0.4-0.5,0.4c-0.1,0-0.3-0.2-0.5-0.4l0.6-0.6L71.2-95.9z M21.6-28.9
					c0.2-0.2,0.4-0.5,0.6-0.5s0.4,0.1,0.7,0.2c-0.2,0.2-0.3,0.5-0.6,0.7C22.1-28.5,21.9-28.8,21.6-28.9z M34.2-119.5
					c-0.3-0.1-0.5-0.3-0.6-0.4l0.6-0.6c0.2,0.1,0.4,0.3,0.4,0.4C34.6-119.9,34.4-119.7,34.2-119.5z M59.3-10.8l-1,0.4L58.1-11l1-0.2
					C59.3-11.1,59.3-11,59.3-10.8z M41.3-10.8c-0.5,0.2-0.8,0.4-1,0.4c-0.1,0-0.2-0.3-0.3-0.5c0.2-0.1,0.4-0.3,0.6-0.3
					C40.7-11.3,40.9-11.1,41.3-10.8z M126.1-59.6c-0.2,0.2-0.3,0.5-0.5,0.6s-0.4-0.1-0.6-0.1c0.1-0.2,0.2-0.5,0.4-0.6
					C125.5-59.9,125.8-59.7,126.1-59.6z M116.4-43.7c-0.2-0.2-0.5-0.3-0.6-0.4c0-0.2,0.2-0.5,0.3-0.5c0.3,0,0.5,0.2,0.7,0.3
					C116.7-44.1,116.6-43.9,116.4-43.7z M124.7-10.6l0.6-0.5c0.2,0.2,0.4,0.4,0.5,0.7c0,0.1-0.1,0.3-0.2,0.4
					C125.3-10.2,125.1-10.4,124.7-10.6z M86.2-87.4c0.1,0.2,0.3,0.5,0.3,0.6c-0.1,0.2-0.4,0.4-0.6,0.5c-0.1-0.2-0.4-0.4-0.3-0.5
					C85.6-87,85.8-87.1,86.2-87.4z M98.9-86.7c-0.5,0.2-0.8,0.3-1,0.3c-0.1,0-0.2-0.4-0.3-0.5c0.2-0.1,0.4-0.3,0.6-0.3
					C98.4-87.1,98.5-86.9,98.9-86.7z M123.4-105.1c-0.3,0.3-0.5,0.6-0.7,0.6s-0.5-0.2-0.6-0.3c-0.1-0.1,0.1-0.5,0.2-0.5
					C122.7-105.3,122.9-105.2,123.4-105.1z M113-60.3c0.2,0.2,0.5,0.3,0.5,0.5c0.1,0.2-0.1,0.4-0.1,0.6c-0.2-0.1-0.5-0.2-0.7-0.4
					C112.7-59.6,113-60.3,113-60.3z M4.5-17.1L4-16.5l-0.6-0.6c0.2-0.2,0.3-0.4,0.5-0.4C4.1-17.5,4.3-17.3,4.5-17.1z M89.8-16.9
					c-0.4,0.3-0.5,0.4-0.7,0.4s-0.4-0.2-0.6-0.2c0.1-0.2,0.2-0.5,0.2-0.5C89.1-17.2,89.3-17,89.8-16.9z M74.2-80.5
					c-0.2,0.1-0.4,0.2-0.6,0.2c-0.1,0-0.2-0.3-0.2-0.4c0.1-0.2,0.3-0.3,0.5-0.4C73.9-81.1,74.2-80.5,74.2-80.5z M28.8-83.6
					c-0.3,0.1-0.5,0.2-0.7,0.3c-0.1-0.2-0.2-0.4-0.2-0.6c0,0,0.3-0.2,0.4-0.2C28.4-84,28.5-83.8,28.8-83.6z M107.5-83.8l-0.3,0.5
					c-0.2-0.1-0.4-0.2-0.5-0.3c0,0,0.2-0.4,0.2-0.3C107.1-84,107.3-83.8,107.5-83.8z M125.2-90.1l0.5,0.3c-0.1,0.2-0.2,0.4-0.4,0.5
					l-0.4-0.2C125-89.8,125.1-89.9,125.2-90.1z M110-86.1l-0.3-0.7c0.1-0.1,0.3-0.2,0.5-0.2c0,0,0.2,0.3,0.2,0.4
					S110.3-86.4,110-86.1z M55.9-86.9c-0.1,0.2-0.1,0.4-0.2,0.5c-0.2-0.1-0.4-0.2-0.6-0.2c0.1-0.1,0.1-0.4,0.2-0.4L55.9-86.9z
					 M13.4-86.5l-0.6,0.1c-0.1,0-0.2-0.3-0.1-0.4c0.2-0.1,0.3-0.2,0.5-0.2C13.2-87,13.3-86.7,13.4-86.5z M37.7-68.6
					c-0.1,0.2-0.2,0.3-0.3,0.4l-0.5-0.3c0,0,0.1-0.3,0.2-0.3C37.3-68.8,37.5-68.7,37.7-68.6z M65-71.6c-0.1,0.2-0.2,0.4-0.3,0.5
					c-0.2-0.1-0.4-0.2-0.5-0.4l0.2-0.4C64.4-71.9,65-71.6,65-71.6z M76.6-71.1c-0.1-0.2-0.2-0.4-0.2-0.6c0,0,0.3-0.2,0.4-0.2
					c0.2,0.1,0.2,0.3,0.4,0.5C77.2-71.4,76.6-71.1,76.6-71.1z M89.3-65.5L89-65c-0.2-0.1-0.4-0.2-0.5-0.3l0.2-0.4
					C88.9-65.7,89.1-65.6,89.3-65.5z M125.7-65.3c-0.2,0.1-0.4,0.2-0.6,0.2c-0.1,0-0.2-0.3-0.2-0.4c0.1-0.1,0.3-0.2,0.5-0.3
					C125.6-65.7,125.6-65.5,125.7-65.3z M43.8-68.9c0.2,0.1,0.3,0.2,0.5,0.2L44-68.2c0,0-0.3-0.1-0.3-0.2
					C43.6-68.5,43.7-68.7,43.8-68.9z M79.9-68.4l0.3-0.5c0.2,0.1,0.4,0.2,0.5,0.4l-0.2,0.4C80.5-68.1,79.9-68.4,79.9-68.4z
					 M8.9-77.6c0.6-0.2,0.8-0.3,1-0.3c0.1,0,0.4,0.1,0.4,0.2c0,0.2-0.1,0.4-0.2,0.6C9.9-77.3,9.7-77.3,8.9-77.6z M71.7-77.6
					c-0.3,0.2-0.5,0.4-0.6,0.4s-0.3-0.3-0.3-0.5c0,0,0.2-0.3,0.3-0.3C71.3-77.9,71.4-77.8,71.7-77.6z M74.2-74.7
					c-0.1,0.2-0.2,0.4-0.3,0.5c-0.2-0.1-0.4-0.2-0.5-0.4l0.2-0.4C73.6-75,74.2-74.7,74.2-74.7z M13.4-110.9
					c-0.2,0.1-0.4,0.2-0.6,0.2c0,0-0.2-0.3-0.2-0.4c0.1-0.1,0.3-0.2,0.5-0.3C13.1-111.4,13.4-110.9,13.4-110.9z M90.9-111.1
					c0.6-0.2,0.8-0.3,1-0.3c0.1,0,0.4,0.1,0.4,0.2c0,0.2-0.1,0.4-0.2,0.6C91.9-110.6,91.7-110.7,90.9-111.1z M47.4-107.9
					c-0.6,0.2-0.8,0.3-1,0.3c-0.1,0-0.4-0.1-0.4-0.2c0-0.2,0.1-0.4,0.2-0.6C46.4-108.3,46.6-108.2,47.4-107.9z M71-120.2
					c-0.1,0.2-0.2,0.5-0.2,0.5c-0.2,0-0.4-0.1-0.5-0.2c0,0,0.1-0.4,0.2-0.4C70.6-120.4,70.8-120.3,71-120.2z M77.1-114.1l-0.3,0.5
					c-0.2-0.1-0.4-0.2-0.5-0.3c0,0,0.1-0.4,0.2-0.4C76.7-114.3,76.9-114.2,77.1-114.1z M43.8-116.9c-0.2,0.1-0.4,0.2-0.6,0.2
					c-0.1,0-0.2-0.3-0.2-0.4c0.1-0.1,0.3-0.2,0.5-0.3C43.6-117.3,43.7-117.1,43.8-116.9z M77.1-95.4c-0.1-0.2-0.2-0.4-0.2-0.6
					c0,0,0.3-0.2,0.4-0.2c0.2,0.1,0.2,0.3,0.4,0.5C77.7-95.7,77.1-95.4,77.1-95.4z M25.5-104.7l-0.6,0.1c-0.1,0-0.1-0.2-0.2-0.4
					c0.2-0.1,0.4-0.2,0.5-0.2C25.4-105.2,25.4-104.9,25.5-104.7z M61.2-104.8l0.3-0.5c0.2,0.1,0.4,0.2,0.5,0.3l-0.2,0.4
					C61.6-104.6,61.4-104.7,61.2-104.8z M92-105.5c0.2,0.3,0.4,0.6,0.3,0.7c-0.1,0.1-0.3,0.2-0.5,0.3c0,0-0.2-0.3-0.2-0.4
					C91.6-105.1,91.8-105.2,92-105.5z M73.6-99.2c0.2,0.1,0.5,0.2,0.5,0.2c0,0.2-0.1,0.4-0.2,0.6c-0.1-0.1-0.4-0.1-0.4-0.2
					C73.4-98.8,73.5-99,73.6-99.2z M16.6-101.8c-0.3,0.1-0.5,0.2-0.7,0.3c-0.1-0.2-0.2-0.4-0.2-0.6c0-0.1,0.3-0.2,0.4-0.2
					C16.1-102.3,16.6-101.8,16.6-101.8z M15-41.2c0.6-0.2,0.8-0.3,1-0.3c0.1,0,0.4,0.1,0.4,0.2c0,0.2-0.1,0.4-0.2,0.6
					C16-40.8,15.8-40.9,15-41.2z M34.8-41c-0.3,0.1-0.5,0.2-0.7,0.3c-0.1-0.2-0.2-0.4-0.2-0.6c0-0.1,0.3-0.2,0.4-0.2
					C34.4-41.5,34.6-41.3,34.8-41z M107.5-41l-0.6,0.1c-0.1,0-0.1-0.3-0.2-0.4c0.2-0.1,0.4-0.2,0.6-0.2
					C107.3-41.4,107.4-41.2,107.5-41z M112.8-41l0.3-0.5c0.2,0.1,0.4,0.2,0.5,0.3c0,0-0.1,0.4-0.2,0.3C113.1-40.8,113-41,112.8-41z
					 M99.1-38c-0.3,0.1-0.5,0.2-0.7,0.3c-0.1-0.2-0.2-0.4-0.2-0.6c0,0,0.3-0.2,0.4-0.2C98.7-38.4,98.8-38.2,99.1-38z M110-37.5
					l-0.3-0.7c0.1-0.1,0.4-0.2,0.6-0.2c0,0,0.2,0.3,0.2,0.4C110.5-38,110-37.5,110-37.5z M122.3-37.5c-0.2-0.3-0.4-0.5-0.4-0.6
					s0.3-0.3,0.5-0.3c0.1,0,0.3,0.2,0.3,0.3C122.6-38,122.4-37.8,122.3-37.5z M82.6-17.3c0.2,0.1,0.4,0.1,0.5,0.2
					c-0.1,0.2-0.1,0.4-0.3,0.5c0,0-0.4-0.1-0.4-0.2C82.5-16.9,82.6-17.1,82.6-17.3z M71-17l-0.3,0.5c-0.2-0.1-0.4-0.2-0.5-0.3
					c0,0,0.1-0.4,0.2-0.4C70.7-17.2,70.8-17.1,71-17z M41.3-16.8c-0.6,0.2-0.8,0.3-1,0.3c-0.1,0-0.4-0.1-0.4-0.2
					c0-0.2,0.1-0.4,0.2-0.6C40.3-17.2,40.5-17.1,41.3-16.8z M6.8-14.2C7-14.1,7.1-14,7.3-14c-0.1,0.2-0.2,0.4-0.4,0.5
					c0,0-0.4-0.1-0.4-0.2L6.8-14.2z M55.1-25.9l0.3-0.5c0.2,0.1,0.4,0.2,0.5,0.3c0,0-0.1,0.4-0.2,0.4C55.5-25.7,55.3-25.8,55.1-25.9
					z M53.3-23.1c-0.3,0.2-0.5,0.5-0.6,0.4c-0.2,0-0.3-0.3-0.4-0.5c0.2-0.1,0.3-0.3,0.5-0.3C52.9-23.4,53.1-23.2,53.3-23.1z
					 M64.4-23.4c0.2,0.1,0.4,0.2,0.5,0.3c-0.1,0.2-0.2,0.4-0.4,0.5l-0.4-0.2C64.2-23,64.4-23.2,64.4-23.4z M101.9-22.8
					c-0.2,0.1-0.4,0.2-0.6,0.2l-0.2-0.3c0.1-0.1,0.3-0.2,0.5-0.3C101.7-23.2,101.8-23,101.9-22.8z M112.8-22.8
					c0.1-0.2,0.2-0.3,0.3-0.4l0.5,0.3c0,0-0.1,0.3-0.2,0.3C113.1-22.6,113-22.7,112.8-22.8z M7.3-19.8c-0.2,0.1-0.4,0.2-0.6,0.2
					c0,0-0.2-0.3-0.2-0.4c0.1-0.1,0.3-0.2,0.5-0.3C7-20.3,7.3-19.8,7.3-19.8z M74.6-19.7L74-19.6c-0.1,0-0.1-0.3-0.2-0.4
					c0.2-0.1,0.4-0.2,0.6-0.2C74.5-20.1,74.6-19.9,74.6-19.7z M122.8-19.8c-0.3,0.1-0.5,0.2-0.7,0.3c-0.1-0.2-0.2-0.4-0.2-0.6
					c0,0,0.3-0.2,0.4-0.2C122.3-20.3,122.8-19.8,122.8-19.8z M31.6-31.9L31-31.8c-0.1,0-0.1-0.2-0.2-0.4c0.2-0.1,0.4-0.2,0.5-0.2
					C31.4-32.3,31.5-32.1,31.6-31.9z M110.7-31.9c-0.3,0.1-0.5,0.2-0.7,0.3c-0.1-0.2-0.2-0.4-0.2-0.6c0,0,0.3-0.2,0.4-0.2
					C110.2-32.4,110.7-31.9,110.7-31.9z M55.9-7.6l-0.6,0.1c-0.1,0-0.1-0.3-0.2-0.4c0.2-0.1,0.4-0.2,0.6-0.2L55.9-7.6z M44.3-7.9
					L44-7.4c-0.2-0.1-0.4-0.2-0.5-0.3c0,0,0.2-0.4,0.2-0.3C43.9-8.1,44.1-7.9,44.3-7.9z M58.2-29.2c0.3-0.2,0.4-0.3,0.6-0.3
					c0.2,0,0.3,0.2,0.5,0.4c-0.2,0.2-0.3,0.4-0.5,0.5C58.6-28.7,58.4-28.9,58.2-29.2z M119.2-29.4l0.5,0.3c-0.1,0.2-0.2,0.4-0.3,0.5
					c0,0-0.4-0.1-0.4-0.2C119-29.1,119.1-29.2,119.2-29.4z M119.7-10.7c-0.2,0.1-0.4,0.2-0.5,0.2l-0.2-0.3c0.1-0.1,0.3-0.2,0.5-0.3
					C119.5-11,119.6-10.9,119.7-10.7z M107-11.2c0.2,0.1,0.3,0.2,0.5,0.2l-0.3,0.5c0,0-0.3-0.1-0.3-0.2
					C106.8-10.8,106.9-11,107-11.2z M28.2-11.8c0.2,0.5,0.3,0.7,0.3,0.9c0,0.1-0.1,0.4-0.2,0.4c-0.2,0-0.4-0.1-0.6-0.2
					C27.9-10.8,27.9-11,28.2-11.8z M10.6-10.7l-0.7,0.3c-0.2-0.1-0.2-0.3-0.3-0.5c0,0,0.3-0.2,0.4-0.2
					C10.2-11.1,10.3-10.9,10.6-10.7z M101.3-5.1l0.5,0.2c-0.1,0.2-0.1,0.4-0.3,0.5c0,0-0.4-0.1-0.4-0.2
					C101.2-4.7,101.3-4.9,101.3-5.1z M16.6-4.7c-0.3,0.2-0.6,0.4-0.7,0.3c-0.2-0.1-0.2-0.3-0.3-0.5c0,0,0.3-0.2,0.4-0.2
					C16.2-5,16.3-4.9,16.6-4.7z M31.6-56.5c-0.1,0.2-0.2,0.5-0.2,0.4c-0.2,0-0.4-0.1-0.5-0.2c0.1-0.1,0.1-0.4,0.2-0.4
					C31.2-56.6,31.4-56.5,31.6-56.5z M49.4-56.7l0.5,0.3c-0.1,0.2-0.2,0.4-0.3,0.5c0,0-0.4-0.1-0.3-0.2
					C49.2-56.4,49.3-56.5,49.4-56.7z M55.4-56.7l0.5,0.3c-0.1,0.2-0.2,0.4-0.3,0.5l-0.4-0.2C55.2-56.4,55.3-56.5,55.4-56.7z
					 M35.3-53.2c-0.6,0.2-0.8,0.3-1,0.3c-0.1,0-0.4-0.1-0.4-0.2c0-0.2,0.1-0.4,0.2-0.6C34.3-53.6,34.5-53.5,35.3-53.2z M51.4-53.3
					c0.6-0.2,0.8-0.3,1-0.3c0.1,0,0.4,0.1,0.4,0.2c0,0.2-0.1,0.4-0.2,0.6C52.4-53,52.2-53,51.4-53.3z M83.2-53.5
					C83.1-53.3,83-53,83-53c-0.2,0-0.4-0.1-0.6-0.2c0.1-0.1,0.1-0.4,0.2-0.4L83.2-53.5z M68.1-62.6c-0.1,0.2-0.2,0.4-0.2,0.5
					l-0.6-0.3c0.1-0.1,0.1-0.4,0.2-0.4C67.7-62.7,67.9-62.6,68.1-62.6z M4.5-59.3C4.1-59.2,3.9-59,3.8-59c-0.2-0.1-0.2-0.3-0.3-0.5
					c0,0,0.3-0.2,0.4-0.2C4-59.7,4.2-59.5,4.5-59.3z M83.2-59.5C83.1-59.3,83-59,83-59c-0.2,0-0.4-0.1-0.6-0.2
					c0.1-0.1,0.1-0.4,0.2-0.4C82.8-59.7,83-59.6,83.2-59.5z M43.8-44l-0.6,0.1c-0.1,0-0.1-0.2-0.2-0.4c0.2-0.1,0.4-0.1,0.5-0.2
					C43.6-44.4,43.7-44.2,43.8-44z M12.8-43.8l-0.1-0.6c0-0.1,0.3-0.2,0.4-0.1c0.1,0.2,0.2,0.3,0.2,0.5C13.3-44,12.8-43.8,12.8-43.8
					z M6.8-49.9c-0.1-0.2-0.2-0.4-0.2-0.5l0.3-0.2c0.1,0.1,0.2,0.3,0.3,0.5C7.1-50,7-50,6.8-49.9z M78.8-50.3c0.5-0.2,0.8-0.3,1-0.3
					s0.3,0.2,0.4,0.4c0,0.1-0.1,0.4-0.2,0.4C79.8-49.9,79.6-50,78.8-50.3z M85.9-49.7c-0.2-0.3-0.4-0.5-0.4-0.6
					c0-0.2,0.3-0.3,0.5-0.3c0,0,0.3,0.2,0.2,0.3C86.2-50.1,86.1-50,85.9-49.7z M110.7-50.3c-0.3,0.2-0.5,0.4-0.6,0.4
					s-0.3-0.3-0.3-0.5c0-0.1,0.2-0.3,0.3-0.3C110.2-50.6,110.4-50.4,110.7-50.3z M101.4-47.1c-0.2,0.1-0.4,0.2-0.6,0.2
					c-0.1,0-0.2-0.3-0.2-0.4c0.1-0.1,0.3-0.2,0.5-0.3C101.3-47.5,101.3-47.3,101.4-47.1z M49.8-122.9l-0.6,0.1
					c-0.1,0-0.1-0.3-0.2-0.4c0.2-0.1,0.4-0.2,0.6-0.2C49.7-123.4,49.7-123.2,49.8-122.9z M41.1-59.2L40.8-59l-0.3-0.5
					c0.1,0,0.3-0.1,0.3-0.1L41.1-59.2z M86.3-62.3C86.1-62.2,86-62,85.8-62c-0.1,0-0.2-0.1-0.3-0.2l0.4-0.5
					C86.1-62.6,86.2-62.5,86.3-62.3z M101.4-53.2l-0.4,0.1c-0.1-0.1-0.2-0.3-0.2-0.4c0.2,0,0.3-0.2,0.5-0.1
					C101.3-53.6,101.4-53.4,101.4-53.2z M92.4-1.5l-0.6,0.2l-0.1-0.4c0.1-0.1,0.2-0.2,0.4-0.3C92.1-2,92.4-1.5,92.4-1.5z M79.9-2.1
					l0.3,0.3l-0.4,0.3l-0.3-0.4C79.6-1.9,79.8-2,79.9-2.1z M34.4-35.5l0.3,0.3l-0.4,0.3c-0.1-0.1-0.2-0.3-0.2-0.4
					C34.1-35.4,34.2-35.4,34.4-35.5z M68.4-20.1l-0.3,0.4c-0.1,0-0.2-0.1-0.4-0.1c0.1-0.1,0.1-0.4,0.2-0.4
					C68.1-20.3,68.2-20.2,68.4-20.1z M31.6-13.9c-0.1,0.1-0.2,0.3-0.2,0.3c-0.1,0-0.2-0.2-0.4-0.2c0.1-0.1,0.2-0.2,0.4-0.3
					L31.6-13.9z M113.3-11.2l0.3,0.3l-0.4,0.3c-0.1-0.1-0.2-0.3-0.2-0.4C113-11,113.3-11.2,113.3-11.2z M83.2-10.6l-0.4,0.2
					c0-0.1-0.2-0.3-0.1-0.4S83-11,83.1-11C83.1-10.9,83.1-10.7,83.2-10.6z M71-10.6l-0.4,0.2l-0.1-0.4c0.1-0.1,0.3-0.2,0.4-0.2
					C71-10.9,71-10.7,71-10.6z M119.4-96.2l0.3,0.3l-0.4,0.3c-0.1-0.1-0.2-0.3-0.2-0.4C119.1-96,119.2-96.1,119.4-96.2z M125.6-95.5
					l-0.2-0.3l0.5-0.3c0,0.1,0.1,0.3,0.1,0.3C125.9-95.7,125.8-95.6,125.6-95.5z M9.9-83.3l-0.2-0.3l0.5-0.3l0.1,0.4
					C10.3-83.3,10.1-83.3,9.9-83.3z M119.4-83.9l0.2,0.3l-0.5,0.3l-0.1-0.4C119.2-83.8,119.3-83.8,119.4-83.9z M16.2-89.8
					c-0.1,0.1-0.2,0.2-0.4,0.3L15.6-90l0.4-0.1C16.2-90.1,16.2-89.9,16.2-89.8z M34.6-89.8c-0.1,0.1-0.2,0.2-0.2,0.3
					c-0.1-0.1-0.2-0.2-0.4-0.3l0.4-0.4C34.5-90,34.6-89.9,34.6-89.8z M40.7-89.7c-0.1,0.1-0.2,0.2-0.3,0.2L40.1-90l0.4-0.1
					C40.6-90.1,40.7-89.9,40.7-89.7z M49.2-117.2c0.1-0.1,0.2-0.2,0.3-0.2l0.3,0.5l-0.4,0.1C49.4-116.8,49.2-117.2,49.2-117.2z
					 M85.9-74.8c0.1,0.1,0.3,0.2,0.3,0.2c-0.1,0.2-0.2,0.4-0.3,0.5c-0.1,0-0.3-0.1-0.4-0.2C85.7-74.5,85.8-74.7,85.9-74.8z
					 M125.7-71.4l-0.4,0.1l-0.3-0.4l0.5-0.1C125.6-71.8,125.6-71.6,125.7-71.4z M10.1-71.9l0.3,0.3L10-71.3l-0.3-0.4
					C9.8-71.8,9.9-71.8,10.1-71.9z M52.8-65.3L52.5-65c-0.1-0.1-0.2-0.3-0.2-0.4s0.2-0.2,0.4-0.3L52.8-65.3z M62.1-68.6
					c-0.1,0.2-0.2,0.3-0.3,0.4c-0.2-0.1-0.3-0.3-0.4-0.4l0.2-0.3L62.1-68.6z M116.4-68.7c0.1,0.1,0.2,0.3,0.2,0.3
					c-0.1,0.1-0.3,0.2-0.5,0.3l-0.1-0.4C116-68.5,116.4-68.7,116.4-68.7z M119.6-59.5c0,0.1,0,0.1,0.1,0.2c-0.1,0-0.2,0-0.3,0.1
					v-0.2C119.4-59.5,119.5-59.5,119.6-59.5z M34.5-59.1c0-0.2-0.1-0.2-0.1-0.3c0,0,0.1,0,0.2-0.1C34.5-59.4,34.5-59.3,34.5-59.1z
					 M22.5-59.4c0,0.1,0,0.1-0.1,0.2l-0.2-0.2l0.1-0.1C22.4-59.5,22.4-59.5,22.5-59.4z M34.6-108l-0.1,0.2l-0.2-0.3l0.1-0.1
					C34.6-108.1,34.6-108,34.6-108z M73.9-116.8c0-0.1-0.1-0.2-0.1-0.2l0.2-0.2v0.2C74.1-116.9,74-116.9,73.9-116.8z M61.9-116.9
					c-0.1,0-0.1,0.1-0.2,0l-0.1-0.2c0.1,0,0.2,0,0.3-0.1C62-117,61.9-117,61.9-116.9z M28.3-47.5c-0.1,0.1-0.1,0.1-0.2,0.1v-0.2
					C28.2-47.6,28.3-47.6,28.3-47.5z M61.4-25.7c0.2-0.1,0.2-0.1,0.3-0.1c0,0,0,0.1-0.1,0.1C61.6-25.6,61.5-25.7,61.4-25.7z
					 M58.7-23.1h0.2c0,0.1,0,0.1,0.1,0.2h-0.3V-23.1z M116.6-62.8l-0.2-0.2c0.1,0,0.2,0,0.2-0.1V-62.8z M31.5-62.7
					c0.1,0.1,0.1,0.3,0.1,0.4l-0.2,0.2c-0.1-0.1-0.1-0.3-0.1-0.4C31.3-62.6,31.4-62.6,31.5-62.7z M25.2-62.7L25.2-62.7H25H25.2z
					 M34.4-23.1c0.1,0.1,0.1,0.1,0.1,0.2h-0.3C34.4-22.9,34.4-23,34.4-23.1z M49.5-50.1v0.2L49.3-50L49.5-50.1z M37.7-26.3l0.2,0.1
					l-0.2,0.1V-26.3z M64.9-53.5c0,0.1,0,0.1,0.1,0.2c-0.1,0-0.2,0-0.2,0.1C64.8-53.3,64.8-53.3,64.9-53.5
					C64.8-53.4,64.9-53.4,64.9-53.5z M122.6-50.4c0,0.1,0,0.1,0.1,0.2c-0.1,0-0.2,0-0.3,0.1v-0.2C122.5-50.4,122.5-50.4,122.6-50.4z
					 M31.2-74.9l0.1,0.1l-0.2,0.1L31.2-74.9z M110.3-56.5c0.1,0.1,0.1,0.1,0.1,0.2h-0.2C110.3-56.4,110.3-56.4,110.3-56.5z
					 M73.9-105.1h0.2c0,0.1,0,0.1,0.1,0.2h-0.3C73.8-104.9,73.9-105,73.9-105.1z M74-86.9l0.1,0.4c0,0-0.1,0.1-0.2,0.1
					c0-0.1-0.1-0.2-0.1-0.4C73.8-86.8,73.9-86.9,74-86.9z M92.1-99.1c0,0.1-0.1,0.1-0.2,0.1c-0.1-0.1-0.1-0.1-0.1-0.2
					C91.9-99.2,91.9-99.2,92.1-99.1z M55.9-98.7l-0.2,0.1c-0.1-0.1-0.1-0.2-0.1-0.4c0,0,0.1-0.1,0.1-0.2L55.9-98.7z M4.3-10.8
					l-0.1,0.2L4-10.9c0,0,0.1-0.1,0.2-0.1C4.2-10.9,4.2-10.9,4.3-10.8z M77-4.4c0-0.1-0.1-0.2-0.1-0.4c0,0,0.1-0.1,0.1-0.2
					c0.1,0.1,0.1,0.3,0.1,0.4C77.1-4.6,77-4.5,77-4.4z M68-7.8c0,0.1,0,0.1-0.1,0.2l-0.2-0.2c0,0,0.1-0.1,0.1-0.2
					C68-7.9,68-7.9,68-7.8z"/>
			</g>
			<path fill="#FFFFFF" d="M1.9-34.8c-0.6,0.2-1,0.5-1.3,0.5c-0.2,0-0.7-0.4-0.6-0.5l0.7-1.1C0.8-35.6,1.1-35.4,1.9-34.8z"/>
		</g>
	</g>
</pattern>
<path fill="#C09A6F" d="M70.9,0h526.6v132.7H70.9V0L70.9,0z M663.3,42.6h-60v98.7l-46.5,33.9h106.5l-27.1-66.7L663.3,42.6
	L663.3,42.6z M591.7,140.4l-34.8,26.1v-26.1H591.7z M5.1,42.6l27.1,66.8L5.1,175.2h106.5l-46.5-34.8V42.7L5.1,42.6z M76.7,140.4
	h34.8v26.1L76.7,140.4z"/>
<pattern  id="SVGID_1_" xlink:href="#XMLID_1_" patternTransform="matrix(1 0 0 -1 123.3 -16797.1992)">
</pattern>
<path opacity="0.2" fill="url(#SVGID_1_)" enable-background="new    " d="M70.9,0h526.6v132.7H70.9V0L70.9,0z M663.3,42.6h-60v98.7
	l-46.5,33.9h106.5l-27.1-66.7L663.3,42.6L663.3,42.6z M591.7,140.4l-34.8,26.1v-26.1H591.7z M5.1,42.6l27.1,66.8L5.1,175.2h106.5
	l-46.5-34.8V42.7L5.1,42.6z M76.7,140.4h34.8v26.1L76.7,140.4z"/>
<path opacity="0.15" fill="none" d="M70.9,0h526.6v132.7H70.9V0L70.9,0z M663.3,42.6h-60v98.7l-46.5,33.9h106.5l-27.1-66.7
	L663.3,42.6L663.3,42.6z M591.7,140.4l-34.8,26.1v-26.1H591.7z M5.1,42.6l27.1,66.8L5.1,175.2h106.5l-46.5-34.8V42.7L5.1,42.6z
	 M76.7,140.4h34.8v26.1L76.7,140.4z"/>
<path d="M488.7,33.8c0-11.1-16.7-11.1-16.7,0C472,45,488.7,44.7,488.7,33.8z M552.1,47.8L545,81.6c-3.7,12.7-13.6,11.7-11.3,2
	l7.6-35.8h-15.2L519,81.6c-3.2,11.2-16,13.1-13.4,2l6.7-31.6h6.3l0.8-4.2h-6.2l3.6-16.6l-15.6,2.1L498,47.8h-3.5l-0.8,4.2h3.5
	l-6.4,29.6C487.7,92.3,477,93.5,477,87c0-2.3,7.5-37,8-39.2h-15.2l-7.1,33.8c-1.8,4.6-3.9,9.3-8.8,9.3c-8,0-2.5-12,0.1-24.6
	c4.6-22.4-14.7-22.6-23.2-13l1.2-5.5h-15.2l-7.2,33.8c-3.5,12-14.9,12.6-12.4,2l7.6-35.8h-15.3l-7.1,33.8
	c-3.4,11.7-13.3,12.5-11.3,2l7.6-35.8h-15.2l-7.1,33.8c-1.8,4.6-3.9,9.3-8.8,9.3c-8,0-2.5-12,0.1-24.6c3.9-18.7-9-21.6-17.8-17.3
	c-3.5,1.7-5.9,4.3-7.9,7.4c-2.5-12-16.2-11.5-23.7-3.1l1.2-5.5h-15.2l-7.2,33.8c-1.8,4.6-3.9,9.2-8.8,9.2c-8,0-2.5-12,0.1-24.6
	c4.8-23.3-16.9-23.5-25.6-10c-2.4-12.1-16.3-11.3-23.6-3.1l1.2-5.5h-15.2l-3,14c-3.5,1.5-7.2,2.6-9.6,2c-0.2-11-4.6-16.5-13.5-16.5
	c-13.4,0-21.8,9.6-26.2,22.2c-1.8,5.2-2.6,9.8-2.6,13.8c-4.8,5.5-11.6,9.3-19.1,9.3c-22,0-10.5-44.9-1.4-58.2
	c8-11.7,17.2-9.2,17.2-1.4c0,3.3-2,8.2-4.8,9.6c3.1,3.8,9.5,3.6,11.7,0c13.2-21.4-34.5-39-49.3,11.1c-16.9,57.4,29.4,57.1,46.2,34.7
	c4.5,22.2,38.5,16.9,41.5-19.1c2.9-0.5,5.9-1.3,8.7-2.5l-7.2,33.8H209l7.2-33.8c3.4-11.7,11.7-12.6,11.7-5.2c0,1.9-7.6,37.1-8,39
	h15.3c5.2-24.4,6.6-43.5,15.4-43.5c9,0-1,21.6-1,32.2c0,5,2,8.9,6.6,10.9c5.7,2.4,12.5,1.4,18.2-5.1l-1.2,5.5h15.2l7.2-33.8
	c3.3-11.6,11.6-12.5,11.6-5.1c0,1.9-7.6,37.1-8,39h15.2C319.6,76.1,321,57,329.8,57c7.7,0,1.4,18.2-0.2,26
	c-4,19.8,14.9,25.8,26.4,8.6c2.3,13.7,18.4,12.5,26.4-0.5c1.2,11.6,14.7,14.2,24.5,3.1l-1.3,6.3h15.2c4.9-22.9,6.5-43.5,15.4-43.5
	c13.4,0-17.7,52.1,16.1,43.5c4.4-1.1,7.8-4.6,10.3-8.7c2.6,12.9,18.3,12.7,27.9-0.6c2,14,18.3,13.3,28.1,0
	c1.8,13.2,16.5,12.3,23.8,3.9l-1.2,4.5c-9.6,2.9-18.2,5.7-18.2,15.8c0,14.5,26.6,18.1,31.6-6.5l12.8-61.1L552.1,47.8L552.1,47.8z
	 M183.5,69.5c-3,22.8-15.9,26.3-17.3,17.4c-3.5-21.5,16.6-45.2,17.7-27.4C179.9,60.9,179.3,68.5,183.5,69.5z M539.2,109.2
	c-4.1,18.4-21.9,1.4,1.3-6.2L539.2,109.2z"/>
<pattern  id="SVGID_2_" xlink:href="#XMLID_1_" patternTransform="matrix(1 0 0 -1 123.3 -16797.1992)">
</pattern>
<path opacity="0.3" fill="url(#SVGID_2_)" enable-background="new    " d="M488.7,33.8c0-11.1-16.7-11.1-16.7,0
	C472,45,488.7,44.7,488.7,33.8z M552.1,47.8L545,81.6c-3.7,12.7-13.6,11.7-11.3,2l7.6-35.8h-15.2L519,81.6c-3.2,11.2-16,13.1-13.4,2
	l6.7-31.6h6.3l0.8-4.2h-6.2l3.6-16.6l-15.6,2.1L498,47.8h-3.5l-0.8,4.2h3.5l-6.4,29.6C487.7,92.3,477,93.5,477,87
	c0-2.3,7.5-37,8-39.2h-15.2l-7.1,33.8c-1.8,4.6-3.9,9.3-8.8,9.3c-8,0-2.5-12,0.1-24.6c4.6-22.4-14.7-22.6-23.2-13l1.2-5.5h-15.2
	l-7.2,33.8c-3.5,12-14.9,12.6-12.4,2l7.6-35.8h-15.3l-7.1,33.8c-3.4,11.7-13.3,12.5-11.3,2l7.6-35.8h-15.2l-7.1,33.8
	c-1.8,4.6-3.9,9.3-8.8,9.3c-8,0-2.5-12,0.1-24.6c3.9-18.7-9-21.6-17.8-17.3c-3.5,1.7-5.9,4.3-7.9,7.4c-2.5-12-16.2-11.5-23.7-3.1
	l1.2-5.5h-15.2l-7.2,33.8c-1.8,4.6-3.9,9.2-8.8,9.2c-8,0-2.5-12,0.1-24.6c4.8-23.3-16.9-23.5-25.6-10c-2.4-12.1-16.3-11.3-23.6-3.1
	l1.2-5.5h-15.2l-3,14c-3.5,1.5-7.2,2.6-9.6,2c-0.2-11-4.6-16.5-13.5-16.5c-13.4,0-21.8,9.6-26.2,22.2c-1.8,5.2-2.6,9.8-2.6,13.8
	c-4.8,5.5-11.6,9.3-19.1,9.3c-22,0-10.5-44.9-1.4-58.2c8-11.7,17.2-9.2,17.2-1.4c0,3.3-2,8.2-4.8,9.6c3.1,3.8,9.5,3.6,11.7,0
	c13.2-21.4-34.5-39-49.3,11.1c-16.9,57.4,29.4,57.1,46.2,34.7c4.5,22.2,38.5,16.9,41.5-19.1c2.9-0.5,5.9-1.3,8.7-2.5l-7.2,33.8H209
	l7.2-33.8c3.4-11.7,11.7-12.6,11.7-5.2c0,1.9-7.6,37.1-8,39h15.3c5.2-24.4,6.6-43.5,15.4-43.5c9,0-1,21.6-1,32.2c0,5,2,8.9,6.6,10.9
	c5.7,2.4,12.5,1.4,18.2-5.1l-1.2,5.5h15.2l7.2-33.8c3.3-11.6,11.6-12.5,11.6-5.1c0,1.9-7.6,37.1-8,39h15.2
	C319.6,76.1,321,57,329.8,57c7.7,0,1.4,18.2-0.2,26c-4,19.8,14.9,25.8,26.4,8.6c2.3,13.7,18.4,12.5,26.4-0.5
	c1.2,11.6,14.7,14.2,24.5,3.1l-1.3,6.3h15.2c4.9-22.9,6.5-43.5,15.4-43.5c13.4,0-17.7,52.1,16.1,43.5c4.4-1.1,7.8-4.6,10.3-8.7
	c2.6,12.9,18.3,12.7,27.9-0.6c2,14,18.3,13.3,28.1,0c1.8,13.2,16.5,12.3,23.8,3.9l-1.2,4.5c-9.6,2.9-18.2,5.7-18.2,15.8
	c0,14.5,26.6,18.1,31.6-6.5l12.8-61.1L552.1,47.8L552.1,47.8z M183.5,69.5c-3,22.8-15.9,26.3-17.3,17.4
	c-3.5-21.5,16.6-45.2,17.7-27.4C179.9,60.9,179.3,68.5,183.5,69.5z M539.2,109.2c-4.1,18.4-21.9,1.4,1.3-6.2L539.2,109.2z"/>
<g opacity="0.3">
	<path fill="none" d="M488.7,33.8c0-11.1-16.7-11.1-16.7,0C472,45,488.7,44.7,488.7,33.8z"/>
	<path fill="none" d="M552.1,47.8L545,81.6c-3.7,12.7-13.6,11.7-11.3,2l7.6-35.8h-15.2L519,81.6c-3.2,11.2-16,13.1-13.4,2l6.7-31.6
		h6.3l0.8-4.2h-6.2l3.6-16.6l-15.6,2.1L498,47.8h-3.5l-0.8,4.2h3.5l-6.4,29.6C487.7,92.3,477,93.5,477,87c0-2.3,7.5-37,8-39.2h-15.2
		l-7.1,33.8c-1.8,4.6-3.9,9.3-8.8,9.3c-8,0-2.5-12,0.1-24.6c4.6-22.4-14.7-22.6-23.2-13l1.2-5.5h-15.2l-7.2,33.8
		c-3.5,12-14.9,12.6-12.4,2l7.6-35.8h-15.3l-7.1,33.8c-3.4,11.7-13.3,12.5-11.3,2l7.6-35.8h-15.2l-7.1,33.8
		c-1.8,4.6-3.9,9.3-8.8,9.3c-8,0-2.5-12,0.1-24.6c3.9-18.7-9-21.6-17.8-17.3c-3.5,1.7-5.9,4.3-7.9,7.4c-2.5-12-16.2-11.5-23.7-3.1
		l1.2-5.5h-15.2l-7.2,33.8c-1.8,4.6-3.9,9.2-8.8,9.2c-8,0-2.5-12,0.1-24.6c4.8-23.3-16.9-23.5-25.6-10c-2.4-12.1-16.3-11.3-23.6-3.1
		l1.2-5.5h-15.2l-3,14c-3.5,1.5-7.2,2.6-9.6,2c-0.2-11-4.6-16.5-13.5-16.5c-13.4,0-21.8,9.6-26.2,22.2c-1.8,5.2-2.6,9.8-2.6,13.8
		c-4.8,5.5-11.6,9.3-19.1,9.3c-22,0-10.5-44.9-1.4-58.2c8-11.7,17.2-9.2,17.2-1.4c0,3.3-2,8.2-4.8,9.6c3.1,3.8,9.5,3.6,11.7,0
		c13.2-21.4-34.5-39-49.3,11.1c-16.9,57.4,29.4,57.1,46.2,34.7c4.5,22.2,38.5,16.9,41.5-19.1c2.9-0.5,5.9-1.3,8.7-2.5l-7.2,33.8H209
		l7.2-33.8c3.4-11.7,11.7-12.6,11.7-5.2c0,1.9-7.6,37.1-8,39h15.3c5.2-24.4,6.6-43.5,15.4-43.5c9,0-1,21.6-1,32.2
		c0,5,2,8.9,6.6,10.9c5.7,2.4,12.5,1.4,18.2-5.1l-1.2,5.5h15.2l7.2-33.8c3.3-11.6,11.6-12.5,11.6-5.1c0,1.9-7.6,37.1-8,39h15.2
		C319.6,76.1,321,57,329.8,57c7.7,0,1.4,18.2-0.2,26c-4,19.8,14.9,25.8,26.4,8.6c2.3,13.7,18.4,12.5,26.4-0.5
		c1.2,11.6,14.7,14.2,24.5,3.1l-1.3,6.3h15.2c4.9-22.9,6.5-43.5,15.4-43.5c13.4,0-17.7,52.1,16.1,43.5c4.4-1.1,7.8-4.6,10.3-8.7
		c2.6,12.9,18.3,12.7,27.9-0.6c2,14,18.3,13.3,28.1,0c1.8,13.2,16.5,12.3,23.8,3.9l-1.2,4.5c-9.6,2.9-18.2,5.7-18.2,15.8
		c0,14.5,26.6,18.1,31.6-6.5l12.8-61.1L552.1,47.8L552.1,47.8z M183.5,69.5c-3,22.8-15.9,26.3-17.3,17.4
		c-3.5-21.5,16.6-45.2,17.7-27.4C179.9,60.9,179.3,68.5,183.5,69.5z M539.2,109.2c-4.1,18.4-21.9,1.4,1.3-6.2L539.2,109.2z"/>
</g>
</svg>
