<svg xmlns="http://www.w3.org/2000/svg" width="425.9" height="49.9" viewBox="4.6 0.5 425.9 49.9" enable-background="new 4.6 0.5 425.9 49.9"><path fill="#fff" d="M274.4 35.1l-1.9-4.5h33.8l-1.9 4.5h-30zm-2.7-6.3l-6.7-16c-1.2-.2-2.2-1.3-2.2-2.6 0-1.4 1.2-2.6 2.6-2.6s2.6 1.2 2.6 2.6c0 .5-.2 1-.5 1.5 1.6 3.3 5.5 5.5 9.9 5.3 5.7-.2 10.4-4.2 10.7-9.1v-2.1c-.9-.5-1.5-1.4-1.5-2.5 0-1.5 1.2-2.8 2.8-2.8 1.5 0 2.8 1.2 2.8 2.8 0 1.1-.6 2-1.5 2.5v2.2c.3 4.9 5 8.9 10.7 9.1 4.4.1 8.2-2.1 9.9-5.3-.3-.4-.5-.9-.5-1.5 0-1.4 1.2-2.6 2.6-2.6s2.6 1.2 2.6 2.6c0 1.3-.9 2.3-2.2 2.6l-6.7 16h-35.4v-.1zM289.2 41l.1-.2c.3-.4.7-.8 1.1-1s.9-.4 1.4-.5c.3-.1.6-.1.9-.1h.8999999999999999c.7.1 1.3.2 1.9.4.4.1.8.3 1.2.5.6.3 1.1.7 1.6 1.1 1.8 1.6 3 3.8 5.3 4.6.3.1.5.1.8.1h.5s.3-.1.5-.1c.4-.2.8-.4 1.2-.8.2-.6.2-1.2 0-1.7l-.3-.6-.2-.3-.1-.1-.3-.2-.2-.1c-.3-.1-.6-.2-.9-.2s-.6.1-.7.3l-.2.3h-.1c-.2-1 .7-1.7 1.6-1.8h.4c.4 0 .8.2 1.1.4.2.1.4.3.6.5l.1.1.1.1.3.4c.3.5.4 1 .5 1.6v.8c-.1.6-.3 1.2-.6 1.8-.7 1.4-1.6 2.7-3 3.4-1 .5-2.2.7-3.3.7-.9 0-1.8-.1-2.7-.3-.5-.1-1-.2-1.6-.4l-1.5-.5c-1-.4-1.9-1-2.7-1.7-.8-.7-1.4-1.6-1.9-2.4-.1-.2-.2-.5-.4-.7l-.3-.7-.2-.3c-.1-.3-.3-.6-.5-.8 0 0-.1-.1-.2-.1-.1-.1-.2-.1-.2-.2-.1-.2 0-1.2 0-1.3zm17.5 3.9zM289.3 41l-.1-.2c-.3-.4-.7-.8-1.1-1s-.9-.4-1.4-.5c-.3-.1-.6-.1-.9-.1h-.8999999999999999c-.7.1-1.3.2-1.9.4-.4.1-.8.3-1.2.5-.6.3-1.1.7-1.6 1.1-1.8 1.6-3 3.8-5.3 4.6-.3.1-.5.1-.8.1h-.5s-.3-.1-.5-.1c-.4-.2-.8-.4-1.2-.8-.2-.6-.2-1.2 0-1.7l.3-.6.2-.3.1-.1.3-.2.2-.1c.3-.1.6-.2.9-.2s.6.1.7.3l.2.3h.1c.2-1-.7-1.7-1.6-1.8h-.4c-.4 0-.8.2-1.1.4-.2.1-.4.3-.6.5l-.1.1-.1.1-.3.4c-.3.5-.4 1-.5 1.6v.8c.1.6.3 1.2.6 1.8.7 1.4 1.6 2.7 3 3.4 1 .5 2.2.7 3.3.7.9 0 1.8-.1 2.7-.3.5-.1 1-.2 1.6-.4l1.5-.5c1-.4 1.9-1 2.7-1.7.8-.7 1.4-1.6 1.9-2.4.1-.2.2-.5.4-.7l.3-.7.2-.3c.1-.3.3-.6.5-.8 0 0 .1-.1.2-.1.1-.1.2-.1.2-.2.1-.2 0-1.2 0-1.3zm-17.6 3.9z"/><g fill="#fff"><path d="M330.8 15.3c0-.4.4-.7.8-.7h.7c.2 0 .6.2.7.4l10.2 19h.1l10.2-19c.1-.3.5-.4.7-.4h.7c.4 0 .7.3.8.7l5 29.5c.1.6-.3 1-.8 1h-5.2c-.4 0-.8-.4-.8-.7l-2-13.6h-.1l-7.4 14.2c-.1.3-.5.5-.7.5h-.8c-.3 0-.6-.2-.7-.5l-7.4-14.2h-.1l-1.9 13.6c0 .4-.4.7-.8.7h-5.2c-.5 0-.9-.4-.8-1l4.8-29.5zM371.6 15.9c0-.4.4-.8.8-.8h18.2c.5 0 .8.4.8.8v4.8c0 .4-.4.8-.8.8h-12.2v5.5h10c.4 0 .8.4.8.8v4.8c0 .5-.4.8-.8.8h-10v5.9h12.2c.5 0 .8.4.8.8v4.9c0 .4-.4.8-.8.8h-18.2c-.5 0-.8-.4-.8-.8v-29.1zM404.2 15.4c0-.4.4-.8.8-.8h1.1l17.5 16.8v-15.5c0-.4.4-.8.8-.8h5.3c.4 0 .8.4.8.8v29.5c0 .4-.4.8-.8.8h-.7c-.1 0-.5-.1-.6-.2l-17.3-17.4v16.4c0 .4-.4.8-.8.8h-5.2c-.4 0-.8-.4-.8-.8l-.1-29.6z"/></g><g fill="#fff"><path d="M4.7 16.5c-.2-.6.2-1.1.8-1.1h5.1c.4 0 .7.3.8.6l3.8 15h.2l6.8-15.4c.1-.3.4-.5.7-.5h.8c.4 0 .7.2.7.5l6.8 15.4h.2l3.8-14.9c.1-.3.4-.6.8-.6h5.1c.6 0 1 .4.8 1.1l-8.3 29.4c-.1.4-.4.6-.8.6h-.7c-.3 0-.6-.2-.7-.5l-8-17.9h-.1l-8 17.9c-.1.3-.4.5-.7.5h-.7c-.4 0-.7-.3-.8-.6l-8.4-29.5zM52.7 16.3c0-.4.4-.8.8-.8h18.2c.5 0 .8.4.8.8v4.8c0 .4-.4.8-.8.8h-12.1v5.4h10c.4 0 .8.4.8.8v4.9c0 .5-.4.8-.8.8h-10v5.9h12.2c.5 0 .8.4.8.8v4.8c0 .4-.4.8-.8.8h-18.2c-.5 0-.8-.4-.8-.8l-.1-29zM102.2 16.3c0-.4.4-.8.8-.8h10.2c5.2 0 9.4 3.6 9.4 8.2 0 3.4-3 5.8-5.1 6.9 2.3 1 5.9 3.1 5.9 7.2 0 4.9-4.3 8.5-9.6 8.5h-10.8c-.5 0-.8-.4-.8-.8v-29.2zm10.3 11.6c1.7 0 3.1-1.4 3.1-3.2 0-1.8-1.4-3-3.1-3h-3.5v6.1h3.5v.1zm.5 12c1.7 0 3.2-1.4 3.2-3.2s-1.9-3.1-3.6-3.1h-3.6v6.3h4zM133.9 16.3c0-.4.4-.8.8-.8h5.4c.5 0 .8.4.8.8v17.8c0 3.1 2.3 5.5 5.4 5.5 3.2 0 5.5-2.5 5.5-5.5v-17.8c0-.4.4-.8.8-.8h5.4c.4 0 .8.4.8.8v18.1c0 6.7-5.6 12.2-12.6 12.2-6.9 0-12.5-5.5-12.5-12.2v-18.1h.2zM173 16.3c0-.4.4-.8.8-.8h5.3c.4 0 .8.4.8.8v29c0 .4-.4.8-.8.8h-5.3c-.4 0-.8-.4-.8-.8v-29zM194.5 16.3c0-.4.4-.8.8-.8h5.2c.4 0 .8.4.8.8v23.4h10.4c.5 0 .8.4.8.8v4.8c0 .4-.4.8-.8.8h-16.5c-.5 0-.8-.4-.8-.8v-29h.1zM223.9 16.3c0-.4.4-.8.8-.8h10.7c8.5 0 15.4 6.9 15.4 15.3 0 8.5-6.9 15.4-15.4 15.4h-10.7c-.4 0-.8-.4-.8-.8v-29.1zm11.1 23.4c5 0 8.6-3.9 8.6-8.9s-3.6-8.9-8.6-8.9h-4.2v17.8h4.2z"/></g></svg>