<?xml version="1.0" encoding="utf-8"?>
<!-- Generator: Adobe Illustrator 17.1.0, SVG Export Plug-In . SVG Version: 6.00 Build 0)  -->
<!DOCTYPE svg PUBLIC "-//W3C//DTD SVG 1.1//EN" "http://www.w3.org/Graphics/SVG/1.1/DTD/svg11.dtd">
<svg version="1.1" id="Layer_1" xmlns="http://www.w3.org/2000/svg" xmlns:xlink="http://www.w3.org/1999/xlink" x="0px" y="0px"
	 width="280px" height="107.4px" viewBox="-6.1 -4.2 280 107.4" enable-background="new -6.1 -4.2 280 107.4" xml:space="preserve">
<g>
	<path fill="#FFFFFF" d="M265,58.1l0.2,0.3c2.9,5.7-12.5,41.5-60.7,31.6c-6.6-1.4-13.1-2.5-19.5-3.4c19.1,3.2,56.2,18.3,77.1-8.3
		C262.1,78.4,271.2,66.2,265,58.1"/>
	<g>
		<path fill="#FFFFFF" d="M265.6,53.7c-0.4-0.1-5.9-2.1-13.3,7.7c-1.6,2.2-3.6,4-5.5,5.5c-3.5,2.2-6.9,3.2-9,3.4
			c-4.5,0.2-4.8-2.5-5.7-3c7.7-2.1,16.3-9.6,16-14.8c-0.2-3.2-2.8-6.5-8.1-6.2c-10.6,0.6-17.3,11.3-16.8,20.4c0,0.6,0.1,1.3,0.3,1.9
			c-2.3,2.2-4.8,2.3-5.7,2.3s-2.6,0.1-2.9-4.3c-0.1-1.7,0-3.9,0.2-6.5c2.6-2.5,8.4-8.8,11.8-17.4c0.5-1.4,3-7,2.7-10.9
			c-0.2-4.1-2.4-6.5-6.7-6.2c-5.9,0.3-11.8,9.9-14.6,24.3c-0.9,4.7-1.4,8.5-1.7,11.8c-1.1,2.2-2.4,4.8-4.3,5.7
			c0.8-1.9,1.3-5.5,1.2-8.1c-0.4-7.6-3.7-11-9.8-10.6c-1.8,0.1-3.7,0.6-5.3,1.5V50c5.3-4.9,9.2-10.4,10.8-14.5
			c0.2-0.5,1.9-3.9,0.4-7.1c-0.3-0.6-1-1.2-1.9-1.4c-0.6-0.2-1.6-0.3-2.8-0.2c-8.2,1-12.9,19.7-14.5,36l-2.9,12
			c-1.4,0.9-2.8,0.9-3.6-1.3c0-0.1-0.1-0.2-0.1-0.5c0-0.4-0.1-0.9,0-1.4c0.1-0.6,0.2-1.3,0.2-1.9c0.9-6.1,2.2-11.3,3.8-18.2l0.1-0.2
			c0.3-0.9-0.4-0.8-0.4-0.8l-7.6,0.4c0,0-0.8,0.1-0.8,0.6c0,0.8,0.1,1.6,0.1,1.6c-1.3-1.6-3.4-2.6-6.2-2.1
			c-5.2,1.1-9.6,5.1-12.2,10.9c-0.3,0.8-1.1,2.8-1.3,3.5c-1,4-3.5,16.3,6.5,16.1c4.1-0.1,7.5-2.4,9.7-6.2c0.8,3.2,3.6,5.3,6.7,5
			c1.7-0.1,3.5-0.6,5.1-1.9c0.2,0.2,0.3,0.4,0.4,0.5c0.4,0.4,1.3,1,2.6,0.9c0.4,0,1-0.1,1.5-0.2l0.3-0.1c0.2-0.1,0.5-0.3,0.8-0.5
			c1.3,0.5,3,0.8,5.1,0.6c3.9-0.2,7.9-2.8,11-7.2c2.5-0.8,4.9-2.9,6.9-4.5c0.5,6.5,3.6,10.7,8.9,10.4c3.6-0.2,6.4-2.6,9.4-6.7
			c1.9,3.7,5.9,5.8,10.7,5.5c0.5,0,1.1-0.1,1.6-0.2c0.2,0,0.4-0.1,0.5-0.1c0.3,0,0.5-0.1,0.9-0.2c8.6-1.9,13.5-9.8,17.9-15.5
			c0,0,4.7-5.9,7.8-3.8c0.3,0.2,0.6,0.6,1,1.1l0.2,0.3c2.9,5.7-12.5,41.5-60.7,31.6c-8.6-1.7-17.1-3.2-25.4-4.3
			c-43.5-5.9-80.4,0.7-105.1,9.8c-0.3,2.3-2.1,3.4-3,4.4c24.6-8,68.9-19.9,121.6-4.9l4.3,1.3l3.6,1.1
			C286.1,122.2,279.6,57.6,265.6,53.7 M223.6,33c0.1,0,0.2,0,0.3,0.4c0.6,4.9-3.6,13-7.7,19.1C218.6,41.6,222.1,33.3,223.6,33
			 M194.7,33.2c0,0,1.3,2.6-4.2,9.2C192.1,33.7,194.7,33.2,194.7,33.2 M158.8,73.8c-0.8,0.1-1.3-0.6-1.4-2.2
			c-0.4-4.9,3.5-13.8,6.7-14.1c0.5,0,2.1-0.2,2.4,2.6C167,66,161.9,73.5,158.8,73.8 M188.2,72.8c-1.1,0.1-1.9-0.5-2.4-3.6
			c1.4,1.1,3.1,1.9,5.2,2.4C190.3,72.4,189.3,72.7,188.2,72.8 M193.1,67.9c-4.5-0.5-6.3-3.9-6.5-6.6c0,0,1.7-6.9,5.3-7.1
			c1.7-0.1,2.7,1.4,2.9,4.4C195,61.7,194.3,65.1,193.1,67.9 M231.4,63.1c0.9-8.1,5.9-11.9,8.2-10.2c2.6,2.2-1.3,7.5-8.2,11.7
			C231.3,64.4,231.4,63.2,231.4,63.1 M64.5,85.4l8.2-33.7c1.1-4.3,1.6-7.6,1.3-10.1c-0.3-4.1-2.9-7.8-7.3-7.5
			c-3.6,0.2-9.3,2.9-13.3,8c-0.6-3.7-3.4-7-7.6-6.7c-3.2,0.2-10.1,3.7-13.9,9.9l1-3.8c1.7-5.4-0.9-5.8-2.5-5.7
			c-0.5,0-5.4,0.3-5.4,0.3s-0.5,0-0.8,0.8C22,43.9-7.6,50.2-6,61.1c0.9,5.8,8.1,4.4,12,3.2c1.5-0.4,1-0.9,0-1.2
			c-1.1-0.4-2.1-1.3-2.3-3c-0.5-5,8.1-7.7,18.3-11.9c0,0-5.7,28.1-10.4,38.5c-0.3,0.6-0.5,1.3-0.9,1.7c-1,1.3,0.3,1.3,0.3,1.3
			l1.9-0.1l9.3-0.5l9-35.1c2.9-3.9,6.1-6.3,8.1-6.4c1-0.1,1.7,0.4,1.8,1.4c0.2,1.5-0.8,5.2-1.9,9.7l-7.7,29.9l11.6-0.8l8.8-34.5
			c2.8-4.3,6.3-6.9,8.3-7.1c0.9-0.1,1.6,0.4,1.7,1.5c0.1,1.5-0.8,5.2-1.9,9.7c0,0-5.9,25.2-6.2,25.9c0,0-1.4,5.6-1.4,7.8v0.6
			c-0.2,7.6,3,11,8.8,10.7c8.4-0.5,9.8-6.3,9.8-6.3S60.8,100.8,64.5,85.4 M70.9,70.1c-1,4-3.5,16.3,6.5,16.1
			c4.1-0.1,7.5-2.4,9.7-6.2c0.8,3.2,3.6,5.3,6.7,5c1.4-0.1,2.7-0.4,4.1-1.3c0.4,0.4,1.3,1,2.6,0.9c0.4,0,1-0.1,1.5-0.2
			c0.5-0.2,1.1-0.5,1.5-1.2c0.2-0.3,0.5-1,0.5-1c0.1-0.2,0.2-0.4,0.2-0.8c0.4-1.6,0.8-4.5,1-6.4c0.2,0.1,0.5,0.1,0.8,0
			c0.2,0.8,0.5,1.6,0.6,1.9c1.1,3.6,2.8,5.5,4.9,6.5c4.3,2.1,10.4-1.2,14.4-5.2c2.2,2.7,5.5,4.2,9.7,4c3.5-0.2,7.9-2.1,11.5-4.5
			l0.9-0.6c-0.6-1.6-0.8-3.2-0.8-4.4c-0.3,0.2-0.6,0.4-1,0.5c-3.1,1.8-6.6,2.8-8.2,2.9c-3.1,0.2-4.2-1.4-4.9-2.4
			c-0.3-0.4-0.5-0.8-0.8-1l0.6-0.2c7.5-2.3,15.5-9.5,15.1-14.5c-0.2-3.1-2.7-5.8-8-5.5c-10.5,0.6-17.2,10.7-16.7,19.7
			c0.1,1.3,0.3,2.5,0.8,3.6c-0.3,0.3-0.6,0.5-1,0.8c-1.5,1.1-3,2.6-5.5,2.9c-1.4,0.2-2.9-0.9-4.1-2.5c-0.9-1.2-1.5-2.5-1.7-3.8
			c-0.1-0.5,0.3-0.9,0.9-1.3h0.1c4.2-2.4,8.3-5.8,9.9-9.3c0.5-1.1,0.9-2.3,0.8-3.2c-0.1-1.7-1-3.4-2.5-4.4c-1.3-0.9-3-1.3-5.3-1.2
			c-0.9,0-1.6,0.2-2.4,0.3c2.1-2.2,4.2-5.1,5.8-8.8c0.4-1,2.6-5.4,2.4-8.4s-2.3-5.3-5.7-5.1c-4.6,0.4-9.3,7.8-11.7,18.4l-0.3,1.5
			l-1.6,8.3c-0.6,1.9-5.2,20-5.2,20l0.1-0.1v0.2c-0.9,0-1.5-0.4-2.1-1.7c0-0.1-0.1-0.2-0.1-0.5c0-0.4-0.1-0.9,0-1.4
			c0.1-0.6,0.2-1.3,0.2-1.9c0.9-6.1,2.2-11.3,3.8-18.2l0.1-0.2c0.3-0.9-0.4-0.8-0.4-0.8L91,55.7c0,0-0.8,0.1-0.8,0.6
			c0,0.8,0.1,1.6,0.1,1.6c-1.3-1.6-3.4-2.6-6.2-2.1c-5.2,1.1-9.5,5.1-12.2,10.9C71.9,67.4,71.1,69.6,70.9,70.1 M131.9,69.6v-0.8
			c0.9-8,5.8-11.8,8.1-10.1c2.5,2.1-1.1,7-7.6,11.2l-0.5,0.3V69.6 M116.4,37.8c0,0,0.4-0.1,0.4,0.3c0.1,4.2-2.9,9.6-6.2,14.2
			C112.5,44.2,115.3,38,116.4,37.8 M108.6,67.3c1.5-6.2,5.4-9,7.3-7.5c1.4,1.2,0.9,3.2-1,5.6c-1.1,1.4-2.8,3-4.8,4.4
			c-0.5-1-1.1-1.7-1.6-2.2C108.5,67.7,108.6,67.5,108.6,67.3 M85.5,62.4c0.5,0,2.1-0.2,2.4,2.6c0.5,5.7-4.4,13.3-7.8,13.5
			c-0.8,0.1-1.3-0.6-1.4-2.2C78.2,71.5,82.3,62.6,85.5,62.4"/>
		<g>
			<path fill="#FFFFFF" d="M7-4.1L8.8,6.5h0.1l1.4-10.6h4.8L17,14h-3.7l-1-13h-0.1l-0.6,4.5l-1.5,8.6H7.4L5.6,5.5L5,1.5V1L4.4,14
				H0.6L2.2-4.1C2.3-4.1,7-4.1,7-4.1z M25.6-4.1L29.9,14h-3.8l-0.6-3h-3.6l-0.6,3h-3.5L22-4.1H25.6z M24,3.4l-0.4-2.7h-0.1l-0.4,2.7
				l-0.8,4.8h2.5L24,3.4z M31.4,14V-4.1h2.7c0.6,0,8.1-0.9,8.1,9.2c0,5.1-2,8.9-7.6,8.9H31.4z M38.7,5.1c0-2.3-0.7-5.9-3.7-5.9v11.7
				C37.9,11,38.7,7.4,38.7,5.1z M51.3-4.1v3.4h-3.6v3.9h3.2v3.4h-3.2v4.1h3.7V14h-7.3V-4.1H51.3z M59.4,14V-4.1h3.5
				c1.4,0,2.6,0.1,3.8,1c1.2,1,1.8,2.6,1.8,4.1c0,1.6-0.6,2.8-1.9,3.8c1.5,0.7,2.2,2.6,2.2,4.2c0,3.6-2.6,5.1-5.9,5.1
				C62.9,14,59.4,14,59.4,14z M63-1v4.4c1.4,0,2.2-0.9,2.2-2.2C65.1-0.2,64.3-1.1,63-1z M63,6.2v4.9c1.4,0.1,2.2-1,2.2-2.5
				C65.2,7.1,64.4,6.1,63,6.2z M73.6-4.1l1.8,4.9l0.2,0.9h0.1l0.4-1.4l1.6-4.5h4l-4.2,9.4v8.6h-3.6V5.2l-4.3-9.4
				C69.6-4.1,73.6-4.1,73.6-4.1z"/>
		</g>
	</g>
</g>
</svg>
