<?xml version="1.0" encoding="utf-8"?>
<!-- Generator: Adobe Illustrator 17.1.0, SVG Export Plug-In . SVG Version: 6.00 Build 0)  -->
<!DOCTYPE svg PUBLIC "-//W3C//DTD SVG 1.1//EN" "http://www.w3.org/Graphics/SVG/1.1/DTD/svg11.dtd">
<svg version="1.1" id="Layer_1" xmlns="http://www.w3.org/2000/svg" xmlns:xlink="http://www.w3.org/1999/xlink" x="0px" y="0px"
	 width="280px" height="100.6px" viewBox="-1.1 7.9 280 100.6" enable-background="new -1.1 7.9 280 100.6" xml:space="preserve">
<g>
	<g>
		<path fill="#FFFFFF" d="M35.7,39.6c-2.8-0.4-20.8-1.9-30.4,10.8c-4.6,5.8-1.4,12.8,9,12.8C4.7,66.8-2.8,73.3-0.7,81
			c2.7,10.6,14.6,10.2,24,9.2c16.6-1.7,28-17.4,30.6-19.3c4,1.9,5.9,5.5,4.3,7.9c-4.4,0.1-16,1.1-15.6,7.2c0.5,6.1,18.9,5.4,29-1.4
			c1.5,0.5,4.4,1.9,5.9,3.2c1.5,1.1,3.2,0.1,3.3-4.7c-1.5-1.5-5.5-2.9-7.7-2.9c0.7-3.3,1.8-7.2-7.3-13.9c-1.5-0.8-1.4-1.8-0.1-2.6
			c1.1-0.8-0.1-2.8-3.3-3.7c-3.2-1-9.8-0.5-12,1.9c-1,1-1,4.4,0.7,5.5c-1.6,2.8-9.8,14.8-21.9,15.7c-4.4,0.5-9.4-0.1-9-6.6
			c0.3-5.4,8.5-10.2,11.5-11.5c1.8-0.8,1.5-3.4-0.8-4.1s-7.7-1-8-5.2c-0.3-4.3,5.1-7.3,13.8-9C39,46.1,39,40.4,35.7,39.6L35.7,39.6z
			"/>
		<path fill="#FFFFFF" d="M57.5,83.5c-2.8-0.5-9.9-0.5-9.9,1.8C47.5,87.7,55.4,87.2,57.5,83.5z"/>
		<path fill="#FFFFFF" d="M105.6,67.9c-2.6-0.3-11-1.4-12.1,6.7c-1.1,8,5.4,8.7,8,8.4c2.6-0.3,8-3.2,8-12.8c-0.1-5,1.8-6.7,6.1-6.9
			c4.3-0.1,6.2,0.8,6.2,5.2s0.1,37.7,0.1,39.2c-3.2,0-11.3,0.3-14.6,0.8c0.3-7.9,1.4-23.7,1.4-26.2c-2.1,3.2-6.2,7.7-13.9,7.6
			S80,86.2,80.6,76c0.5-10.2,10.8-17.2,26.7-14.9C110,61.6,110.3,68.5,105.6,67.9z"/>
		<path fill="#FFFFFF" d="M276.1,83.4c-3.7-0.1-6.4,0.5-9.4,1c-2.9,0.5-7.6,1-11,0.1c-3.4-0.8-4.4-4.3-3.4-6.4s4.3-3.3,6.2-4
			s1.9-3.3-0.1-3.7c-2.1-0.5-5.1-1.4-5.1-3.2c0-1.8,2.6-4.3,10.8-3.6c3.2,0.3,2.3-5.1-1.1-5.9c-3.2-0.1-13.9,0.8-21.4,4.6
			c-3.7,1.9-4.4,7.3,5.5,9.2c-6.2,0.5-10.5,5.9-10.3,8.4c0,0.7-0.1,1.9,0.3,3.3c-1.6,1-3.6,1.4-5.9,1.2c-3.3-0.1-8.2-4.1-7.1-10.8
			c0.9-6,2.6-5.2,3.4-5.5c1.8,0,3.6-1,3.6-3.3s0.6-2.8-1.2-2.8s-13,1.7-21.4-0.2c-0.1-2.5-4.3-5.9-8.5-3.6c-4.3,2.3-3.2,7.6,1.8,8.8
			l1.1,0.3c-1.5,6.2-5,16.5-10.5,17.5c-3.2,0.7-5.1-1.5-4.7-6.6c0.3-5.1,1.4-14.6,1.4-14.6c0.3-4.1-14.6-4-14.5,1.1v16.2
			c0,0.3,0.1,0.9,0.2,1.4c-3.7,2.9-12.1,3.6-11.5-3.1l1.9-14.6c0.5-4.3-13.1-5.8-13.4,0.1l-0.1,11.8c0,0.7-0.1,1.5,0,2.4
			c-1.1,2-3.2,4-5.8,4.1c-3.7,0.1-5.9-0.3-5.5-5.1c0.3-4.7,1.5-13.8,1.5-13.8c0.3-4.3-13.2-4.3-13.6-0.5c-0.1,3.2-1,14.6-1.1,18.2
			c-0.1,3.6,5.4,8,13.2,7.7c6.9-0.3,9.4-2.3,12.2-6.1c1.4,3.4,4.5,6.3,11.3,6.1c2.6-0.1,6.4,0.7,12.5-4.1c1.6,2.1,4.4,4.2,8.5,4.4
			c7.3,0.3,13-0.3,16.8-8c3.4-6.7,4.5-9.4,5.3-13.7c3.4,0.7,6.8,1,10.2,1c-4,2.8-5.5,5.1-5.2,9.8c0.1,2.9,2.1,10.5,14.8,10.6
			c7.1,0.1,10.4-1.5,12.7-3.2c3.1,2.1,9.3,3.7,22.4,2.7c4.3-0.7,10.6-0.5,14.8-0.3C279.7,89,279.9,83.5,276.1,83.4z"/>
	</g>
	<g>
		<path fill="#FFFFFF" d="M160.2,25.7V8.1h3.6c0.7,0,5.9-0.5,5.9,5.2c0,3.3-2.1,5.2-5.3,5.2h-0.8v7.2H160.2z M163.7,15.6
			c1.7,0.1,2.6-0.6,2.6-2.3c0-1.3-0.5-2.3-2-2.3h-0.7L163.7,15.6L163.7,15.6z"/>
		<path fill="#FFFFFF" d="M183.2,16.9c0,6.6-3.1,9-6.2,9s-6.2-2.5-6.2-9s3.1-9,6.2-9S183.2,10.3,183.2,16.9z M177.1,22.7
			c2.3,0,2.5-4.4,2.5-5.8c0-1.6-0.2-5.8-2.5-5.8s-2.5,4.3-2.5,5.8C174.6,18.3,174.8,22.7,177.1,22.7z"/>
		<path fill="#FFFFFF" d="M187.5,8.1l1.5,8.4c0.2,1.2,0.3,2.5,0.4,3.7l0,0c0.2-1.2,0.3-2.5,0.5-3.7l1.7-8.4h2.7l2.2,12.1l0,0
			c0.1-1.2,0.1-2.4,0.3-3.7l1.4-8.4h3.6l-3.6,17.5h-3l-1.8-9.2c-0.1-1.1-0.3-2.1-0.5-3.2l0,0c-0.2,1.1-0.3,2.1-0.6,3.2l-2,9.2h-3
			l-3.5-17.5C183.8,8.1,187.5,8.1,187.5,8.1z"/>
		<path fill="#FFFFFF" d="M210.4,8.1v3.3h-3.5v3.8h3.1v3.3h-3.1v4h3.6v3.3h-7V8.1H210.4z"/>
		<path fill="#FFFFFF" d="M212.6,25.7V8.1h3.5c2.2,0,6.2,0.2,6.2,5c0,1.9-0.8,3.6-2.5,4.5l3,8h-3.6l-3-8.1l0,0v8.1h-3.6L212.6,25.7
			L212.6,25.7z M216,15.7h0.6c1.6,0,2.2-1.1,2.2-2.5c0-1.3-0.6-2.3-2.3-2.2H216V15.7z"/>
		<path fill="#FFFFFF" d="M231.9,8.1v3.3h-3.5v3.8h3.1v3.3h-3.1v4h3.6v3.3h-7V8.1H231.9z"/>
		<path fill="#FFFFFF" d="M234,25.7V8.1h2.6c0.6,0,7.9-0.9,7.9,8.9c0,5-1.9,8.6-7.4,8.6H234V25.7z M241,17c0-2.2-0.7-5.8-3.6-5.8
			v11.3C240.3,22.7,241,19.2,241,17z"/>
		<path fill="#FFFFFF" d="M252,25.7V8.1h3.4c1.3,0,2.5,0,3.6,1c1.2,0.9,1.8,2.5,1.8,4c0,1.6-0.6,2.7-1.9,3.6
			c1.4,0.7,2.2,2.6,2.2,4.1c0,3.5-2.6,4.9-5.7,4.9C255.4,25.7,252,25.7,252,25.7z M255.5,11v4.3c1.3,0,2.1-0.9,2.1-2.2
			C257.5,11.8,256.8,11,255.5,11z M255.5,18v4.7c1.4,0.1,2.2-1,2.2-2.4C257.7,19,256.8,18,255.5,18z"/>
		<path fill="#FFFFFF" d="M265.8,8.1l1.8,4.8l0.3,0.9l0,0l0.4-1.3l1.6-4.3h3.9l-4.1,9.1v8.4h-3.5v-8.4L262,8.2h3.8L265.8,8.1
			L265.8,8.1z"/>
	</g>
</g>
</svg>
