<?xml version="1.0" encoding="utf-8"?>
<!-- Generator: Adobe Illustrator 17.1.0, SVG Export Plug-In . SVG Version: 6.00 Build 0)  -->
<!DOCTYPE svg PUBLIC "-//W3C//DTD SVG 1.1//EN" "http://www.w3.org/Graphics/SVG/1.1/DTD/svg11.dtd">
<svg version="1.1" id="Layer_1" xmlns="http://www.w3.org/2000/svg" xmlns:xlink="http://www.w3.org/1999/xlink" x="0px" y="0px"
	 width="622px" height="165px" viewBox="0 0 622 165" enable-background="new 0 0 622 165" xml:space="preserve">
<g>
	<path fill="#FFFFFF" d="M183.4,79.6c4.1,0,7.5-2.8,7.5-6.2c0-3.5-3.3-6.2-7.5-6.2c-4.1,0-7.5,2.8-7.5,6.2
		C176,76.7,179.2,79.6,183.4,79.6z"/>
	<g>
		<g>
			<path fill="#FFFFFF" d="M36.7,62.6c-2.8-0.4-20.8-1.9-30.4,10.8c-4.6,5.8-1.4,12.8,9,12.8C5.7,89.8-1.8,96.3,0.3,104
				c2.7,10.6,14.6,10.2,24,9.2c16.6-1.7,28-17.4,30.6-19.3c4,1.9,5.9,5.5,4.3,7.9c-4.4,0.1-16,1.1-15.6,7.2c0.5,6.1,18.9,5.4,29-1.4
				c1.5,0.5,4.4,1.9,5.9,3.2c1.5,1.1,3.2,0.1,3.3-4.7c-1.5-1.5-5.5-2.9-7.7-2.9c0.7-3.3,1.8-7.2-7.3-13.9c-1.5-0.8-1.4-1.8-0.1-2.6
				c1.1-0.8-0.1-2.8-3.3-3.7c-3.2-1-9.8-0.5-12,1.9c-1,1-1,4.4,0.7,5.5c-1.6,2.8-9.8,14.8-21.9,15.7c-4.4,0.5-9.4-0.1-9-6.6
				c0.3-5.4,8.5-10.2,11.5-11.5c1.8-0.8,1.5-3.4-0.8-4.1s-7.7-1-8-5.2c-0.3-4.3,5.1-7.3,13.8-9C40,69.1,40,63.4,36.7,62.6L36.7,62.6
				z"/>
			<path fill="#FFFFFF" d="M58.5,106.5c-2.8-0.5-9.9-0.5-9.9,1.8C48.5,110.7,56.4,110.2,58.5,106.5z"/>
			<path fill="#FFFFFF" d="M106.6,90.9c-2.6-0.3-11-1.4-12.1,6.7c-1.1,8,5.4,8.7,8,8.4c2.6-0.3,8-3.2,8-12.8c-0.1-5,1.8-6.7,6.1-6.9
				c4.3-0.1,6.2,0.8,6.2,5.2s0.1,37.7,0.1,39.2c-3.2,0-11.3,0.3-14.6,0.8c0.3-7.9,1.4-23.7,1.4-26.2c-2.1,3.2-6.2,7.7-13.9,7.6
				S81,109.2,81.6,99c0.5-10.2,10.8-17.2,26.7-14.9C111,84.6,111.3,91.5,106.6,90.9z"/>
			<path fill="#FFFFFF" d="M277.1,106.4c-3.7-0.1-6.4,0.5-9.4,1c-2.9,0.5-7.6,1-11,0.1c-3.4-0.8-4.4-4.3-3.4-6.4s4.3-3.3,6.2-4
				s1.9-3.3-0.1-3.7c-2.1-0.5-5.1-1.4-5.1-3.2c0-1.8,2.6-4.3,10.8-3.6c3.2,0.3,2.3-5.1-1.1-5.9c-3.2-0.1-13.9,0.8-21.4,4.6
				c-3.7,1.9-4.4,7.3,5.5,9.2c-6.2,0.5-10.5,5.9-10.3,8.4c0,0.7-0.1,1.9,0.3,3.3c-1.6,1-3.6,1.4-5.9,1.2c-3.3-0.1-8.2-4.1-7.1-10.8
				c0.9-6,2.6-5.2,3.4-5.5c1.8,0,3.6-1,3.6-3.3s0.6-2.8-1.2-2.8s-13,1.7-21.4-0.2c-0.1-2.5-4.3-5.9-8.5-3.6
				c-4.3,2.3-3.2,7.6,1.8,8.8l1.1,0.3c-1.5,6.2-5,16.5-10.5,17.5c-3.2,0.7-5.1-1.5-4.7-6.6c0.3-5.1,1.4-14.6,1.4-14.6
				c0.3-4.1-14.6-4-14.5,1.1v16.2c0,0.3,0.1,0.9,0.2,1.4c-3.7,2.9-12.1,3.6-11.5-3.1l1.9-14.6c0.5-4.3-13.1-5.8-13.4,0.1l-0.1,11.8
				c0,0.7-0.1,1.5,0,2.4c-1.1,2-3.2,4-5.8,4.1c-3.7,0.1-5.9-0.3-5.5-5.1c0.3-4.7,1.5-13.8,1.5-13.8c0.3-4.3-13.2-4.3-13.6-0.5
				c-0.1,3.2-1,14.6-1.1,18.2c-0.1,3.6,5.4,8,13.2,7.7c6.9-0.3,9.4-2.3,12.2-6.1c1.4,3.4,4.5,6.3,11.3,6.1c2.6-0.1,6.4,0.7,12.5-4.1
				c1.6,2.1,4.4,4.2,8.5,4.4c7.3,0.3,13-0.3,16.8-8c3.4-6.7,4.5-9.4,5.3-13.7c3.4,0.7,6.8,1,10.2,1c-4,2.8-5.5,5.1-5.2,9.8
				c0.1,2.9,2.1,10.5,14.8,10.6c7.1,0.1,10.4-1.5,12.7-3.2c3.1,2.1,9.3,3.7,22.4,2.7c4.3-0.7,10.6-0.5,14.8-0.3
				C280.7,112,280.9,106.5,277.1,106.4z"/>
		</g>
		<g>
			<path fill="#FFFFFF" d="M161.2,48.7V31.1h3.6c0.7,0,5.9-0.5,5.9,5.2c0,3.3-2.1,5.2-5.3,5.2h-0.8v7.2H161.2z M164.7,38.6
				c1.7,0.1,2.6-0.6,2.6-2.3c0-1.3-0.5-2.3-2-2.3h-0.7L164.7,38.6L164.7,38.6z"/>
			<path fill="#FFFFFF" d="M184.2,39.9c0,6.6-3.1,9-6.2,9s-6.2-2.5-6.2-9s3.1-9,6.2-9S184.2,33.3,184.2,39.9z M178.1,45.7
				c2.3,0,2.5-4.4,2.5-5.8c0-1.6-0.2-5.8-2.5-5.8s-2.5,4.3-2.5,5.8C175.6,41.3,175.8,45.7,178.1,45.7z"/>
			<path fill="#FFFFFF" d="M188.5,31.1l1.5,8.4c0.2,1.2,0.3,2.5,0.4,3.7l0,0c0.2-1.2,0.3-2.5,0.5-3.7l1.7-8.4h2.7l2.2,12.1l0,0
				c0.1-1.2,0.1-2.4,0.3-3.7l1.4-8.4h3.6l-3.6,17.5h-3l-1.8-9.2c-0.1-1.1-0.3-2.1-0.5-3.2l0,0c-0.2,1.1-0.3,2.1-0.6,3.2l-2,9.2h-3
				l-3.5-17.5C184.8,31.1,188.5,31.1,188.5,31.1z"/>
			<path fill="#FFFFFF" d="M211.4,31.1v3.3h-3.5v3.8h3.1v3.3h-3.1v4h3.6v3.3h-7V31.1H211.4z"/>
			<path fill="#FFFFFF" d="M213.6,48.7V31.1h3.5c2.2,0,6.2,0.2,6.2,5c0,1.9-0.8,3.6-2.5,4.5l3,8h-3.6l-3-8.1l0,0v8.1h-3.6
				L213.6,48.7L213.6,48.7z M217,38.7h0.6c1.6,0,2.2-1.1,2.2-2.5c0-1.3-0.6-2.3-2.3-2.2H217V38.7z"/>
			<path fill="#FFFFFF" d="M232.9,31.1v3.3h-3.5v3.8h3.1v3.3h-3.1v4h3.6v3.3h-7V31.1H232.9z"/>
			<path fill="#FFFFFF" d="M235,48.7V31.1h2.6c0.6,0,7.9-0.9,7.9,8.9c0,5-1.9,8.6-7.4,8.6H235V48.7z M242,40c0-2.2-0.7-5.8-3.6-5.8
				v11.3C241.3,45.7,242,42.2,242,40z"/>
			<path fill="#FFFFFF" d="M253,48.7V31.1h3.4c1.3,0,2.5,0,3.6,1c1.2,0.9,1.8,2.5,1.8,4c0,1.6-0.6,2.7-1.9,3.6
				c1.4,0.7,2.2,2.6,2.2,4.1c0,3.5-2.6,4.9-5.7,4.9C256.4,48.7,253,48.7,253,48.7z M256.5,34v4.3c1.3,0,2.1-0.9,2.1-2.2
				C258.5,34.8,257.8,34,256.5,34z M256.5,41v4.7c1.4,0.1,2.2-1,2.2-2.4C258.7,42,257.8,41,256.5,41z"/>
			<path fill="#FFFFFF" d="M266.8,31.1l1.8,4.8l0.3,0.9l0,0l0.4-1.3l1.6-4.3h3.9l-4.1,9.1v8.4h-3.5v-8.4l-4.2-9.1h3.8L266.8,31.1
				L266.8,31.1z"/>
		</g>
	</g>
	<g>
		<path fill="#FFFFFF" d="M613,93.1l0.2,0.3c2.9,5.7-12.5,41.5-60.7,31.6c-6.6-1.4-13.1-2.5-19.5-3.4c19.1,3.2,56.2,18.3,77.1-8.3
			C610.1,113.4,619.2,101.2,613,93.1"/>
		<g>
			<path fill="#FFFFFF" d="M613.6,88.7c-0.4-0.1-5.9-2.1-13.3,7.7c-1.6,2.2-3.6,4-5.5,5.5c-3.5,2.2-6.9,3.2-9,3.4
				c-4.5,0.2-4.8-2.5-5.7-3c7.7-2.1,16.3-9.6,16-14.8c-0.2-3.2-2.8-6.5-8.1-6.2c-10.6,0.6-17.3,11.3-16.8,20.4
				c0,0.6,0.1,1.3,0.3,1.9c-2.3,2.2-4.8,2.3-5.7,2.3s-2.6,0.1-2.9-4.3c-0.1-1.7,0-3.9,0.2-6.5c2.6-2.5,8.4-8.8,11.8-17.4
				c0.5-1.4,3-7,2.7-10.9c-0.2-4.1-2.4-6.5-6.7-6.2c-5.9,0.3-11.8,9.9-14.6,24.3c-0.9,4.7-1.4,8.5-1.7,11.8
				c-1.1,2.2-2.4,4.8-4.3,5.7c0.8-1.9,1.3-5.5,1.2-8.1c-0.4-7.6-3.7-11-9.8-10.6c-1.8,0.1-3.7,0.6-5.3,1.5V85
				c5.3-4.9,9.2-10.4,10.8-14.5c0.2-0.5,1.9-3.9,0.4-7.1c-0.3-0.6-1-1.2-1.9-1.4c-0.6-0.2-1.6-0.3-2.8-0.2c-8.2,1-12.9,19.7-14.5,36
				l-2.9,12c-1.4,0.9-2.8,0.9-3.6-1.3c0-0.1-0.1-0.2-0.1-0.5c0-0.4-0.1-0.9,0-1.4c0.1-0.6,0.2-1.3,0.2-1.9
				c0.9-6.1,2.2-11.3,3.8-18.2l0.1-0.2c0.3-0.9-0.4-0.8-0.4-0.8l-7.6,0.4c0,0-0.8,0.1-0.8,0.6c0,0.8,0.1,1.6,0.1,1.6
				c-1.3-1.6-3.4-2.6-6.2-2.1c-5.2,1.1-9.6,5.1-12.2,10.9c-0.3,0.8-1.1,2.8-1.3,3.5c-1,4-3.5,16.3,6.5,16.1c4.1-0.1,7.5-2.4,9.7-6.2
				c0.8,3.2,3.6,5.3,6.7,5c1.7-0.1,3.5-0.6,5.1-1.9c0.2,0.2,0.3,0.4,0.4,0.5c0.4,0.4,1.3,1,2.6,0.9c0.4,0,1-0.1,1.5-0.2l0.3-0.1
				c0.2-0.1,0.5-0.3,0.8-0.5c1.3,0.5,3,0.8,5.1,0.6c3.9-0.2,7.9-2.8,11-7.2c2.5-0.8,4.9-2.9,6.9-4.5c0.5,6.5,3.6,10.7,8.9,10.4
				c3.6-0.2,6.4-2.6,9.4-6.7c1.9,3.7,5.9,5.8,10.7,5.5c0.5,0,1.1-0.1,1.6-0.2c0.2,0,0.4-0.1,0.5-0.1c0.3,0,0.5-0.1,0.9-0.2
				c8.6-1.9,13.5-9.8,17.9-15.5c0,0,4.7-5.9,7.8-3.8c0.3,0.2,0.6,0.6,1,1.1l0.2,0.3c2.9,5.7-12.5,41.5-60.7,31.6
				c-8.6-1.7-17.1-3.2-25.4-4.3c-43.5-5.9-80.4,0.7-105.1,9.8c-0.3,2.3-2.1,3.4-3,4.4c24.6-8,68.9-19.9,121.6-4.9l4.3,1.3l3.6,1.1
				C634.1,157.2,627.6,92.6,613.6,88.7 M571.6,68c0.1,0,0.2,0,0.3,0.4c0.6,4.9-3.6,13-7.7,19.1C566.6,76.6,570.1,68.3,571.6,68
				 M542.7,68.2c0,0,1.3,2.6-4.2,9.2C540.1,68.7,542.7,68.2,542.7,68.2 M506.8,108.8c-0.8,0.1-1.3-0.6-1.4-2.2
				c-0.4-4.9,3.5-13.8,6.7-14.1c0.5,0,2.1-0.2,2.4,2.6C515,101,509.9,108.5,506.8,108.8 M536.2,107.8c-1.1,0.1-1.9-0.5-2.4-3.6
				c1.4,1.1,3.1,1.9,5.2,2.4C538.3,107.4,537.3,107.7,536.2,107.8 M541.1,102.9c-4.5-0.5-6.3-3.9-6.5-6.6c0,0,1.7-6.9,5.3-7.1
				c1.7-0.1,2.7,1.4,2.9,4.4C543,96.7,542.3,100.1,541.1,102.9 M579.4,98.1c0.9-8.1,5.9-11.9,8.2-10.2c2.6,2.2-1.3,7.5-8.2,11.7
				C579.3,99.4,579.4,98.2,579.4,98.1 M412.5,120.4l8.2-33.7c1.1-4.3,1.6-7.6,1.3-10.1c-0.3-4.1-2.9-7.8-7.3-7.5
				c-3.6,0.2-9.3,2.9-13.3,8c-0.6-3.7-3.4-7-7.6-6.7c-3.2,0.2-10.1,3.7-13.9,9.9l1-3.8c1.7-5.4-0.9-5.8-2.5-5.7
				c-0.5,0-5.4,0.3-5.4,0.3s-0.5,0-0.8,0.8c-2.2,7-31.8,13.3-30.2,24.2c0.9,5.8,8.1,4.4,12,3.2c1.5-0.4,1-0.9,0-1.2
				c-1.1-0.4-2.1-1.3-2.3-3c-0.5-5,8.1-7.7,18.3-11.9c0,0-5.7,28.1-10.4,38.5c-0.3,0.6-0.5,1.3-0.9,1.7c-1,1.3,0.3,1.3,0.3,1.3
				l1.9-0.1l9.3-0.5l9-35.1c2.9-3.9,6.1-6.3,8.1-6.4c1-0.1,1.7,0.4,1.8,1.4c0.2,1.5-0.8,5.2-1.9,9.7l-7.7,29.9l11.6-0.8l8.8-34.5
				c2.8-4.3,6.3-6.9,8.3-7.1c0.9-0.1,1.6,0.4,1.7,1.5c0.1,1.5-0.8,5.2-1.9,9.7c0,0-5.9,25.2-6.2,25.9c0,0-1.4,5.6-1.4,7.8v0.6
				c-0.2,7.6,3,11,8.8,10.7c8.4-0.5,9.8-6.3,9.8-6.3S408.8,135.8,412.5,120.4 M418.9,105.1c-1,4-3.5,16.3,6.5,16.1
				c4.1-0.1,7.5-2.4,9.7-6.2c0.8,3.2,3.6,5.3,6.7,5c1.4-0.1,2.7-0.4,4.1-1.3c0.4,0.4,1.3,1,2.6,0.9c0.4,0,1-0.1,1.5-0.2
				c0.5-0.2,1.1-0.5,1.5-1.2c0.2-0.3,0.5-1,0.5-1c0.1-0.2,0.2-0.4,0.2-0.8c0.4-1.6,0.8-4.5,1-6.4c0.2,0.1,0.5,0.1,0.8,0
				c0.2,0.8,0.5,1.6,0.6,1.9c1.1,3.6,2.8,5.5,4.9,6.5c4.3,2.1,10.4-1.2,14.4-5.2c2.2,2.7,5.5,4.2,9.7,4c3.5-0.2,7.9-2.1,11.5-4.5
				l0.9-0.6c-0.6-1.6-0.8-3.2-0.8-4.4c-0.3,0.2-0.6,0.4-1,0.5c-3.1,1.8-6.6,2.8-8.2,2.9c-3.1,0.2-4.2-1.4-4.9-2.4
				c-0.3-0.4-0.5-0.8-0.8-1l0.6-0.2c7.5-2.3,15.5-9.5,15.1-14.5c-0.2-3.1-2.7-5.8-8-5.5c-10.5,0.6-17.2,10.7-16.7,19.7
				c0.1,1.3,0.3,2.5,0.8,3.6c-0.3,0.3-0.6,0.5-1,0.8c-1.5,1.1-3,2.6-5.5,2.9c-1.4,0.2-2.9-0.9-4.1-2.5c-0.9-1.2-1.5-2.5-1.7-3.8
				c-0.1-0.5,0.3-0.9,0.9-1.3h0.1c4.2-2.4,8.3-5.8,9.9-9.3c0.5-1.1,0.9-2.3,0.8-3.2c-0.1-1.7-1-3.4-2.5-4.4c-1.3-0.9-3-1.3-5.3-1.2
				c-0.9,0-1.6,0.2-2.4,0.3c2.1-2.2,4.2-5.1,5.8-8.8c0.4-1,2.6-5.4,2.4-8.4s-2.3-5.3-5.7-5.1c-4.6,0.4-9.3,7.8-11.7,18.4l-0.3,1.5
				l-1.6,8.3c-0.6,1.9-5.2,20-5.2,20l0.1-0.1v0.2c-0.9,0-1.5-0.4-2.1-1.7c0-0.1-0.1-0.2-0.1-0.5c0-0.4-0.1-0.9,0-1.4
				c0.1-0.6,0.2-1.3,0.2-1.9c0.9-6.1,2.2-11.3,3.8-18.2l0.1-0.2c0.3-0.9-0.4-0.8-0.4-0.8l-7.6,0.3c0,0-0.8,0.1-0.8,0.6
				c0,0.8,0.1,1.6,0.1,1.6c-1.3-1.6-3.4-2.6-6.2-2.1c-5.2,1.1-9.5,5.1-12.2,10.9C419.9,102.4,419.1,104.6,418.9,105.1 M479.9,104.6
				v-0.8c0.9-8,5.8-11.8,8.1-10.1c2.5,2.1-1.1,7-7.6,11.2l-0.5,0.3V104.6 M464.4,72.8c0,0,0.4-0.1,0.4,0.3c0.1,4.2-2.9,9.6-6.2,14.2
				C460.5,79.2,463.3,73,464.4,72.8 M456.6,102.3c1.5-6.2,5.4-9,7.3-7.5c1.4,1.2,0.9,3.2-1,5.6c-1.1,1.4-2.8,3-4.8,4.4
				c-0.5-1-1.1-1.7-1.6-2.2C456.5,102.7,456.6,102.5,456.6,102.3 M433.5,97.4c0.5,0,2.1-0.2,2.4,2.6c0.5,5.7-4.4,13.3-7.8,13.5
				c-0.8,0.1-1.3-0.6-1.4-2.2C426.2,106.5,430.3,97.6,433.5,97.4"/>
			<g>
				<path fill="#FFFFFF" d="M355,30.9l1.8,10.6h0.1l1.4-10.6h4.8L365,49h-3.7l-1-13h-0.1l-0.6,4.5l-1.5,8.6h-2.7l-1.8-8.6l-0.6-4V36
					l-0.6,13h-3.8l1.6-18.1C350.3,30.9,355,30.9,355,30.9z M373.6,30.9l4.3,18.1h-3.8l-0.6-3h-3.6l-0.6,3h-3.5l4.2-18.1H373.6z
					 M372,38.4l-0.4-2.7h-0.1l-0.4,2.7l-0.8,4.8h2.5L372,38.4z M379.4,49V30.9h2.7c0.6,0,8.1-0.9,8.1,9.2c0,5.1-2,8.9-7.6,8.9H379.4
					z M386.7,40.1c0-2.3-0.7-5.9-3.7-5.9v11.7C385.9,46,386.7,42.4,386.7,40.1z M399.3,30.9v3.4h-3.6v3.9h3.2v3.4h-3.2v4.1h3.7V49
					h-7.3V30.9H399.3z M407.4,49V30.9h3.5c1.4,0,2.6,0.1,3.8,1c1.2,1,1.8,2.6,1.8,4.1c0,1.6-0.6,2.8-1.9,3.8
					c1.5,0.7,2.2,2.6,2.2,4.2c0,3.6-2.6,5.1-5.9,5.1C410.9,49,407.4,49,407.4,49z M411,34v4.4c1.4,0,2.2-0.9,2.2-2.2
					C413.1,34.8,412.3,33.9,411,34z M411,41.2v4.9c1.4,0.1,2.2-1,2.2-2.5C413.2,42.1,412.4,41.1,411,41.2z M421.6,30.9l1.8,4.9
					l0.2,0.9h0.1l0.4-1.4l1.6-4.5h4l-4.2,9.4v8.6h-3.6v-8.6l-4.3-9.4C417.6,30.9,421.6,30.9,421.6,30.9z"/>
			</g>
		</g>
	</g>
	<rect x="310" fill="#FFFFFF" width="2" height="165"/>
</g>
</svg>
