<svg xmlns="http://www.w3.org/2000/svg" xmlns:xlink="http://www.w3.org/1999/xlink" width="0" height="0" style="position:absolute">

    <symbol id="popularmechanics_popular-mechanics" viewBox="0 0 462.3 44.6">
        <g fill="#fff"><path d="M179.9 9l.7 3.7c1.7-2.7 4.6-4.3 7.4-4.3 2.1 0 3 .3 4.1.9v9.5h-6.7v-3s-.5-.1-1.2-.1c-1.6 0-2.6.8-3.5 1.8v13.3h2.4V36h-13.3v-5.2h1.8V14.9h-2.1V9h10.4zM12 5.8v12.4h3.8c3.5 0 4.9-1.8 4.9-4.7v-3.1c0-3-1.4-4.6-4.6-4.6H12zM17.1 0c8.4 0 13 3.1 13 10.3v2.6c0 7.6-4.8 10.9-13.4 10.9H12v7h3V36H0v-5.2h2.5V5.7H0V0h17.1zM49.7 25.7v-6.1c0-3.9-1.4-5.6-4.2-5.6-2.8 0-4.3 1.7-4.3 5.6v6.1c0 3.9 1.4 5.3 4.3 5.3 2.8 0 4.2-1.6 4.2-5.3m9.2-5.5v4.3c0 8.6-5.4 12-13.4 12C37.9 36.5 32 33 32 25v-4.7c0-8.5 5.9-11.9 13.5-11.9 8 0 13.4 3.4 13.4 11.8"/><path d="M80.3 25v-4.6c0-4.2-1.1-5.4-3.5-5.4-2 0-3.5 1.1-4.8 2.7v11.5c1.5 1 2.4 1.6 4.2 1.6 2.5 0 4.1-1.7 4.1-5.8m-8.4 14.4h2.3v5.2H61v-5.2h1.7V14.9h-2V9h10.2l.7 4.1c2.2-2.4 4.5-4.8 9-4.8 6 0 8.9 3.2 8.9 10.6v6.7c0 7.7-4.6 10.9-10.2 10.9-3.1 0-5.7-1.7-7.4-3.1v6zM111 32.1c-2.4 2.5-5.1 4.4-9 4.4-5.5 0-8.4-2.6-8.4-9V14.9h-1.7V9h10.9v17.5c0 2.4.9 3.6 3 3.6 2.2 0 3.6-1.5 5-2.7V14.9h-2.1V9h11.2v21.8h2V36h-10.2l-.7-3.9z"/></g><path fill="#fff" d="M135.6 0v30.8h1.7V36h-12.7v-5.2h1.8V5.7H124V0z"/><g fill="#fff"><path d="M155.8 29.6v-6.2l-2.5.4c-4 .7-4.6 1.6-4.6 4.1 0 2 .6 3.2 3.2 3.2 1.7 0 3.1-.8 3.9-1.5m9.2-11.9v13.1h2.2V36h-10.3l-.7-2.8c-1.6 1.8-4.1 3.4-7.8 3.4-5.2 0-8.3-3-8.3-7.8v-.7c0-5.5 3.7-7.2 12.9-8.8l2.9-.5v-1.2c0-2.6-1.1-3.7-4.2-3.7-1.6 0-2.4.2-3.1.5v2.8h-7v-6.5c2.9-1.4 6.8-2.5 11.6-2.5 8.7.2 11.8 3.5 11.8 9.5M450.3 8.4c5.3 0 8.2.7 10.3 1.7V17H454v-2.7c-.8-.4-1.8-.7-3.7-.7-2.9 0-3.6.8-3.6 2.4 0 1.4.7 2 3.4 2.4l2.3.4c7.6 1.1 9.8 2.6 9.8 8.8 0 6.2-4 9.2-11.9 9.2-4.4 0-8.1-1-10.7-2.3v-6.9h6.7v3.2c.8.4 2.1.5 4 .5 2.6 0 4.2-.6 4.2-2.4 0-1.8-.7-1.9-3.9-2.4l-2.3-.4c-6.9-1.1-9.1-3-9.1-8.9.1-7 4.9-8.8 11.1-8.8"/><path d="M411.7 20.3c0-8.7 6-11.9 13.1-11.9 5.3 0 8.3 1.1 11 2.7v7.8h-7.1v-4.2c-.6-.4-1.6-.7-3.4-.7-3.6 0-4.5 2.2-4.5 6.3v4.4c0 4.6 1.2 6.5 4.4 6.5 1.1 0 2.9-.1 3.7-.6v-3.1h7v6.9c-2.8 1.5-5.9 2.3-11.1 2.3-8.3 0-13.1-3.8-13.1-12.1v-4.3zM350.3 29.6v-6.2l-2.5.4c-4 .7-4.6 1.6-4.6 4.1 0 2 .6 3.2 3.2 3.2 1.6 0 3.1-.7 3.9-1.5m9.2-11.9v13.1h2.2V36h-10.4l-.7-2.8c-1.6 1.8-4.1 3.4-7.8 3.4-5.2 0-8.3-3-8.3-7.8v-.7c0-5.5 3.7-7.2 12.9-8.8l2.9-.5v-1.2c0-2.6-1.1-3.7-4.2-3.7-1.6 0-2.4.2-3.1.5v2.9h-7v-6.5c2.9-1.4 6.8-2.5 11.6-2.5 8.8.1 11.9 3.4 11.9 9.4"/></g><path fill="#fff" d="M244.3 0v5.8h-2.6v25h2.6V36h-14.8v-5.2h2.8V11.6l-6.2 17.3h-4.9l-6.5-17.3v19.2h2.7V36h-12.2v-5.2h2.5v-25h-2.5V0h13.6l5.9 16.3L230.6 0z"/><g fill="#fff"><path d="M255.3 19.7h8v-1.1c0-3.7-1.1-4.7-3.8-4.7-2.6 0-4.2 1.2-4.2 4.9v.9zm16.3-.5v5.2h-16.2v.8c0 4.4 1.7 5.7 5.3 5.7 1.6 0 3.1-.2 4-.6v-2.9h6.9v6.2c-2.2 1.4-5.7 2.9-11.1 2.9-9.1 0-14.2-3.7-14.2-11.9v-4.5c0-7.1 4.1-11.9 13.1-11.9 8.6.2 12.2 3.6 12.2 11"/><path d="M275.2 20.3c0-8.7 6-11.9 13.1-11.9 5.3 0 7.9 1 11 2.7v7.8h-7.1v-4.2c-.6-.4-1.6-.7-3.3-.7-3.6 0-4.5 2.2-4.5 6.3v4.4c0 4.6 1.2 6.5 4.4 6.5 1.1 0 2.9-.1 3.7-.6v-3.1h7v6.4c-2.8 1.7-5.9 2.7-11.1 2.7-8.3 0-13.1-3.8-13.1-12.1v-4.2zM313.4 0v13c2.3-2.6 5.1-4.6 8.9-4.6 5.1 0 8 2.5 8 8.8v13.7h1.7V36h-13.2v-5.2h2.4V18.6c0-2.4-.8-3.3-2.6-3.3-2.1 0-3.8 1.3-5.2 2.7v12.9h2.4V36h-13.3v-5.2h1.8v-25h-2.1V0h11.2zM374.4 9.1l.7 4.1c2.3-2.6 5.2-4.7 9.1-4.7 5.1 0 8 2.5 8 8.8V31h1.7v5h-13.2v-5.2h2.4V18.6c0-2.4-.8-3.3-2.6-3.3-2.1 0-3.8 1.3-5.2 2.7v12.9h2.4V36h-13.3v-5.2h1.8V14.9H364V9.1h10.4z"/></g><path fill="#fff" d="M407.5 9.1v21.7h1.9V36h-12.9v-5.2h1.8V14.9h-2.1V9.1zM398.8-.5h8.7v7.8h-8.7z"/>
    </symbol>
</svg>