<?xml version="1.0" encoding="utf-8"?>
<!-- Generator: Adobe Illustrator 17.1.0, SVG Export Plug-In . SVG Version: 6.00 Build 0)  -->
<!DOCTYPE svg PUBLIC "-//W3C//DTD SVG 1.1//EN" "http://www.w3.org/Graphics/SVG/1.1/DTD/svg11.dtd">
<svg version="1.1" id="Layer_1" xmlns="http://www.w3.org/2000/svg" xmlns:xlink="http://www.w3.org/1999/xlink" x="0px" y="0px"
	 width="12.9px" height="9.4px" viewBox="0 0 12.9 9.4" enable-background="new 0 0 12.9 9.4" xml:space="preserve">
<g>
	<path fill="#FFFFFF" d="M10.3,9.4H3c-1.7,0-3-1.3-3-3c0-1.2,0.7-2.2,1.7-2.7c0-0.1,0-0.2,0-0.3C1.7,1.5,3.2,0,5.1,0
		c1.4,0,2.6,0.8,3.2,2.1C8.6,1.9,9,1.7,9.4,1.7c0.9,0,1.7,0.8,1.7,1.7c0,0.3-0.1,0.6-0.3,0.9c1.2,0.3,2,1.3,2,2.5
		C12.9,8.3,11.7,9.4,10.3,9.4z M8.4,5.1H6.9V2.8c0-0.1-0.1-0.2-0.2-0.2H5.4c-0.1,0-0.2,0.1-0.2,0.2v2.4H3.6c-0.1,0-0.2,0.1-0.2,0.2
		c0,0.1,0,0.1,0.1,0.2l2.4,2.4c0,0,0.1,0.1,0.2,0.1c0.1,0,0.1,0,0.2-0.1l2.4-2.4c0,0,0.1-0.1,0.1-0.2C8.6,5.2,8.5,5.1,8.4,5.1z"/>
</g>
</svg>
