<?xml version="1.0" encoding="utf-8"?>
<!-- Generator: Adobe Illustrator 17.1.0, SVG Export Plug-In . SVG Version: 6.00 Build 0)  -->
<!DOCTYPE svg PUBLIC "-//W3C//DTD SVG 1.1//EN" "http://www.w3.org/Graphics/SVG/1.1/DTD/svg11.dtd">
<svg version="1.1" id="Layer_1" xmlns="http://www.w3.org/2000/svg" xmlns:xlink="http://www.w3.org/1999/xlink" x="0px" y="0px"
	 width="116.6px" height="112px" viewBox="0 0 116.6 112" enable-background="new 0 0 116.6 112" xml:space="preserve">
<g>
	<g>
		<path fill="#FFFFFF" d="M74.5,57.8l22.1-22.1l5.5-0.8L116,16L106,6L87.1,19.9l-0.8,5.5L64.2,47.5L53,58.6l-3.7,3.7l-2.9-2.9
			c-2.4-2.3-6.2-2.3-8.5,0L37.2,60c-1.6,1.6-2.1,3.9-1.5,5.9l0.9,1.9L23.9,80.6l-3.4,0.6l-7.3,7.3c-2.2,2.2-2.2,5.8,0,8l12.3,12.3
			c2.2,2.2,5.8,2.2,8,0l7.3-7.3l0.6-3.4l12.7-12.7l1.9,0.9c2,0.6,4.3,0.1,5.9-1.5l0.7-0.7c2.3-2.4,2.3-6.2,0-8.5l-2.9-2.9l3.7-3.7
			L74.5,57.8z M24.6,93.3l-3-3l18.7-18.7l3,3L24.6,93.3z M31.6,100.3l-3-3l18.7-18.7l3,3L31.6,100.3z M57.5,70.4l-5.9-5.9l37.6-37.6
			l0.8-5.3l15.7-11.6l6.2,6.2L100.3,32l-5.3,0.8L57.5,70.4z"/>
	</g>
	<g>
		<g>
			<path fill="#FFFFFF" d="M47.3,32.4l8.7-8.7l-5.3-5.3L63.8,5.3L62.5,4c-4.3-4.3-12.6-2.8-22.2,3.9l-2-2L11,33.1l2.7,2.7l-2.1,2.1
				l-0.4-0.4c-1.3-1.3-3.4-1.2-4.8,0.2l-4.8,4.8c-1.4,1.4-1.5,3.5-0.2,4.8l13.2,13.2c1.3,1.3,3.4,1.2,4.8-0.2l4.8-4.8
				c1.4-1.4,1.5-3.5,0.2-4.8L24,50.2l2.1-2.1l2.7,2.7l7.6-7.6l13.1,13.1l10.8-10.8L47.3,32.4z"/>
			<path fill="#FFFFFF" d="M65.6,77.6l26.5,28c0.7,0.7,2.1,0.5,3.1-0.5l13.9-13.9c1-1,1.3-2.4,0.5-3.1L81.5,61.7l-1.9,1.9L65.6,77.6
				z"/>
		</g>
	</g>
</g>
<g>
	<defs>
		<path id="SVGID_1_" d="M74.5,57.8l22.1-22.1l5.5-0.8L116,16L106,6L87.1,19.9l-0.8,5.5L64.2,47.5L53,58.6l-3.7,3.7l-2.9-2.9
			c-2.4-2.3-6.2-2.3-8.5,0L37.2,60c-1.6,1.6-2.1,3.9-1.5,5.9l0.9,1.9L23.9,80.6l-3.4,0.6l-7.3,7.3c-2.2,2.2-2.2,5.8,0,8l12.3,12.3
			c2.2,2.2,5.8,2.2,8,0l7.3-7.3l0.6-3.4l12.7-12.7l1.9,0.9c2,0.6,4.3,0.1,5.9-1.5l0.7-0.7c2.3-2.4,2.3-6.2,0-8.5l-2.9-2.9l3.7-3.7
			L74.5,57.8z M24.6,93.3l-3-3l18.7-18.7l3,3L24.6,93.3z M31.6,100.3l-3-3l18.7-18.7l3,3L31.6,100.3z M57.5,70.4l-5.9-5.9l37.6-37.6
			l0.8-5.3l15.7-11.6l6.2,6.2L100.3,32l-5.3,0.8L57.5,70.4z M60.3,45.4L49.5,56.3L36.4,43.2l-7.6,7.6l-2.7-2.7L24,50.2l0.4,0.4
			c1.3,1.3,1.2,3.4-0.2,4.8l-4.8,4.8c-1.4,1.4-3.5,1.5-4.8,0.2L1.5,47.2c-1.3-1.3-1.2-3.4,0.2-4.8l4.8-4.8c1.4-1.4,3.5-1.5,4.8-0.2
			l0.4,0.4l2.1-2.1L11,33.1L38.2,5.9l2,2C49.9,1.1,58.1-0.3,62.5,4l1.3,1.3L50.7,18.4l5.3,5.3l-8.7,8.7L60.3,45.4z M79.6,63.6
			l1.9-1.9l28.2,26.4c0.7,0.7,0.5,2.1-0.5,3.1l-13.9,13.9c-1,1-2.4,1.3-3.1,0.5l-26.5-28L79.6,63.6z"/>
	</defs>
	<clipPath id="SVGID_2_">
		<use xlink:href="#SVGID_1_"  overflow="visible"/>
	</clipPath>
	<g clip-path="url(#SVGID_2_)">
		<path fill="#5571C9" d="M-21.2,54.5l-0.3-0.5l0.3-0.5l0.3,0.5L-21.2,54.5z M-20.4,30.3l0.9-0.8v0.8H-20.4z M-19.5,58.6l-0.8-0.8
			l0.8-0.9l0.6,0.9L-19.5,58.6z M-19,51.9c0-0.8,0.3-1.3,1-1.5c0.7-0.2,1.3-0.3,1.9-0.3v1.8H-19z M-18,27.9l-0.5-0.8l0.5-0.9
			l0.8,0.9L-18,27.9z M-16.9,32.9l-0.8-0.8l0.8-0.9l0.6,0.9L-16.9,32.9z M-16.9,45.3l-0.8-0.8l0.8-0.9l0.6,0.9L-16.9,45.3z
			 M-13.5,58.1c0.3,1.3,0.5,2.3,0.5,3v0.8c-1.4-1.3-2.7-3-3.9-5l1.7-0.8C-14.4,56.2-13.8,56.8-13.5,58.1z M-13,41.9v0.9h-0.6v-0.9
			H-13z M-11.2,64.5l-0.6-0.8l0.6-0.9l0.6,0.9L-11.2,64.5z M-10.4,67.8L-11,67c0.1-0.1,0.1-0.2,0.1-0.2c-0.1-0.1-0.1,0-0.2,0.1
			l-0.6-0.8l0.6-0.9l1.4,1.8L-10.4,67.8z M-10.1,48.7c0.6,0.5,1.2,1.1,1.8,1.8c0.6,0.7,1.2,1.4,1.7,2c0.5,0.7,0.9,1.2,1.2,1.6
			L-7,56.3c-0.6,0-1.2-0.3-1.7-1c-0.6-0.7-1.1-1.4-1.5-2.3c-0.5-0.9-0.8-1.8-1.1-2.8c-0.3-1-0.4-1.7-0.4-2.2
			C-11.2,48-10.7,48.2-10.1,48.7z M-10.4,35.3l-0.6,2.6l0.6-4.2l0.6,0.9L-10.4,35.3z M-10.4,37.9l-0.6-0.8l0.6-0.9l0.6,0.9
			L-10.4,37.9z M-8,24.6l-0.6-0.9H-8V24.6z M-8,42.9h-0.6l0.6-0.9V42.9z M-5.4,65.4L-7,64.5l1.5-0.9V65.4z M-6.2,63.6l-0.6-0.8
			l0.6-0.9l0.6,0.9L-6.2,63.6z M-5.9,32.4l-0.5,1.2c-0.2-0.8-0.2-1.6,0-2.4h0.2L-5.9,32.4z M-3.6,47.8l-0.9,0.8
			c-0.5-0.2-0.9-0.5-1.1-1c-0.2-0.5-0.4-0.9-0.6-1.4l0.3-0.2L-3.6,47.8z M-4.5,70.2l-0.8-0.8l0.8-0.9l0.6,0.9L-4.5,70.2z M-3.6,38.5
			l0.3-0.2l0.3,0.3l-0.3,0.5L-3.6,38.5z M-0.9,57.2L-3,57.8v-0.9c0-1.1,0.6-1.7,1.8-1.7l1.7,0.9l1.2-0.9c1.1,0,1.9,0.4,2.4,1.2
			c0.5,0.8,0.8,1.7,0.8,2.7c-0.8,0-1.5-0.2-2-0.7c-0.6-0.5-1-1-1.4-1.6C0.5,56.9-0.2,57-0.9,57.2z M-2.1,17.9c0-0.9,0.3-1.5,0.9-1.7
			v1.7H-2.1z M-2,33.5l0.3-0.2l0.5,0.3l-0.5,0.5L-2,33.5z M-2,74.4l0.8-0.9v0.9H-2z M-0.5,66.1l0.9-1.7l1.1,1.7H-0.5z M2,30.2
			c0.5,0,1.1,0.1,1.7,0.3s1,0.7,1,1.4l-0.9,1.8l-2.4-3.3L2,30.2z M2.9,70.2c0.1-0.9,0.2-1.9,0.4-3c0.2-1.1,0.5-2.2,1-3.2
			c0.5-1.1,1.6-1.8,3.2-2.2l1.4,1.1c0,0.9-0.2,1.5-0.5,1.8c-0.4,0.3-0.8,0.5-1.2,0.5c-0.5,0.1-0.9,0.1-1.4,0.2
			c-0.5,0.1-0.9,0.3-1.1,0.8c0,0.8,0.1,1.7,0.2,2.8c0.2,1.1,0.7,1.8,1.6,2.2c-0.8,0.2-1.6,0.4-2.5,0.5s-1.7,0.2-2.5,0.2
			C2.3,71.7,2.8,71.1,2.9,70.2z M4.5,24.6l-0.8,1.7c-0.5-0.3-0.9-0.7-1.3-1.1C2.1,24.8,2,24.3,2,23.7v-0.8L4.5,24.6z M4.4,48.6
			l-0.3-0.3l0.5-0.5l0.3,0.5L4.4,48.6z M6.5,77l-2-0.9l0.9-0.9L6.5,77z M6.9,27.9L8,29.6l-1.1,0.8L6,29.3h0.2L6.9,27.9z M6.9,39.5
			l-0.5-0.8l0.5-0.9l0.8,0.9L6.9,39.5z M7.9,69.8l5.1-5.3L12.8,63l0.9-1.8l0.9,1.7c0,1.2-0.4,2.2-1.3,3.1c-0.9,0.9-1.8,1.5-2.9,1.9
			l2.6,1.7c-0.7,0.5-1.4,1.1-2,1.8c-0.7,0.7-1.1,1.5-1.4,2.3l0.9,1.7c-0.8,0-1.5-0.2-2.2-0.6s-1.1-1-1.3-1.8l2-0.9L7.9,69.8z
			 M9.7,31.9c0.9,0.2,1.5,0.5,1.7,1l-2.6,1.7c-0.5,0-0.8-0.4-1-1.1c-0.2-0.8-0.2-1.3-0.2-1.7C8.1,31.7,8.8,31.7,9.7,31.9z M7.9,46.2
			c0-0.9,0.3-1.5,0.9-1.7v1.7H7.9z M8,42.7l0.3-0.3l0.5,0.5l-0.5,0.3L8,42.7z M9.4,53.7c-0.2,0.3-0.4,0.6-0.7,0.8v-1.7h1.1
			C9.7,53.1,9.6,53.4,9.4,53.7z M10.4,70.2l0.6-0.8l-0.6-0.9l-0.8,0.9L10.4,70.2z M10.3,36.6c0.1,0.4,0.3,0.6,0.5,0.8l-0.5,0.5
			l-0.2-2.1C10.1,36,10.2,36.2,10.3,36.6z M12.2,19.7c-1.3,0-2-0.7-2-2C11.6,17.8,12.2,18.4,12.2,19.7z M13.1,41
			c-0.4,0.2-0.7,0.2-1,0.2h-0.8l2-0.9h0.5C13.6,40.6,13.4,40.8,13.1,41z M17.4,76.3c-0.4-0.5-0.9-0.8-1.5-1.1
			c-0.6-0.3-1.3-0.5-2-0.6c-0.7-0.2-1.4-0.2-2-0.2c0-1.8,0.9-2.7,2.6-2.7v1.4l1.7,0.5c0.5-0.5,1.1-1,1.7-1.6
			c0.6-0.6,1.2-1.1,1.7-1.7l0.9,0.9c-0.1,0.3-0.3,0.9-0.6,1.9s-0.5,1.5-0.5,1.7c0,1.2,0.4,2.3,1.1,3.3l-3.5,3l-0.2-0.6
			c0-0.5,0.2-0.9,0.6-1.2c0.4-0.3,0.6-0.7,0.6-1.2C18,77.4,17.8,76.8,17.4,76.3z M13,23.7l-0.8,0.2L13,22l0.6,0.9L13,23.7z
			 M15.3,28.1c-0.2,1.2-0.9,1.7-2,1.7c0-0.8,0.2-1.8,0.5-2.9s1-1.7,2-1.7l0.6,0.2C15.8,26,15.5,27,15.3,28.1z M16.3,37v1.7h-0.9V37
			H16.3z M16.3,79.4l-0.8-0.8l0.8-0.9l0.5,0.9L16.3,79.4z M16.9,24.6l-0.5-0.8l0.5-0.9l0.8,0.9L16.9,24.6z M20.4,26.2h-0.3
			c-0.2,0-0.5-0.1-0.8-0.2c-0.4-0.2-0.5-0.4-0.5-0.7l0.3-0.2L20.4,26.2z M22.5,47.2c0-0.6-0.1-1.3-0.3-2c-0.2-0.7-0.3-1.4-0.3-2
			s0.2-1.1,0.5-1.5c0.3-0.4,1-0.6,2.1-0.6c0.6,0.6,1.3,1,2,1.2c0.7,0.2,1.4,0.4,2,0.6c0.6,0.2,1.1,0.5,1.4,1s0.5,1.3,0.5,2.6
			c0,0.5-0.3,0.9-0.8,1.3c-0.5,0.4-1.1,0.7-1.8,0.9s-1.4,0.5-2.1,0.6c-0.7,0.2-1.3,0.2-1.7,0.2c-1,0-1.9-0.2-2.8-0.5
			c-0.9-0.4-1.7-0.8-2.5-1.3l1.5-0.9L22.5,47.2z M20.3,88c0.2,0.6,0.2,1.1,0.2,1.5l-1.8-1.1l0.8-1.7C19.9,87,20.2,87.4,20.3,88z
			 M25.5,59.3c1.2,1.1,2,1.9,2.5,2.6l-1.7,0.9c-1.1,0-2.1-0.2-3.1-0.5c-1-0.4-2-0.5-3.1-0.5l2.3-4.1C23.3,57.7,24.3,58.2,25.5,59.3z
			 M22.4,83.1c0.4,1,0.6,1.9,0.6,2.7c-1.3,0-2.1-0.5-2.3-1.4c-0.3-0.9-0.4-1.9-0.4-2.9C21.3,81.5,22,82,22.4,83.1z M20.4,64.5
			l0.9,4.1l-0.9-0.8V64.5z M21.9,92.7h-0.6v-0.9h0.6V92.7z M25.1,22.5c-0.8,0.6-1.9,0.8-3.2,0.8c0-0.7,0.2-1.2,0.5-1.5
			c0.4-0.3,0.8-0.5,1.3-0.7c0.5-0.2,1-0.3,1.4-0.5c0.5-0.2,0.8-0.6,1.1-1.1C26.3,21,25.9,22,25.1,22.5z M23.4,54.6l-1.5,0.6
			c0-1.3,0.6-2.2,1.7-2.7c1.1-0.5,2.2-0.8,3.3-0.8c0,0.6,0.2,1.2,0.5,1.7s0.5,1.1,0.6,1.7l-1.1,0.9c0-0.6-0.3-1.2-0.8-1.7
			c-0.5-0.6-1.1-0.8-1.7-0.8C24.3,54.1,23.9,54.4,23.4,54.6z M24.5,70.2l-0.8-1.7h0.8V70.2z M25.2,34.5l-0.2-0.5l0.3-0.5l0.3,0.5
			L25.2,34.5z M25.6,46.1c0.2,0.4,0.4,0.6,0.7,0.8l0.6-0.8l-1.7-1.1C25.3,45.4,25.5,45.8,25.6,46.1z M26.9,98.5l-1.5-0.8l0.9-1.7
			L26.9,98.5z M26.3,66.1l-0.8-3.3l1.2,2.6L26.3,66.1z M27.6,38.5c0.3,0.5,0.4,1.2,0.4,2v0.8c-1.5-0.8-2.3-2-2.3-3.5
			C26.7,37.7,27.3,38,27.6,38.5z M26.1,75.2l-0.3-0.3l0.5-0.5l0.3,0.5L26.1,75.2z M28.7,27.5c0.8,0.9,1.2,1.8,1.2,2.9
			c-1.1,0-2-0.5-2.7-1.4c-0.7-0.9-1.1-1.9-1.1-2.9l0.2-0.9C27.1,25.9,27.9,26.7,28.7,27.5z M28.7,77.8c0,0.8-0.2,1.5-0.5,2.1
			s-1,0.9-1.9,0.9v-1.2L28.7,77.8z M26.7,66.9l-0.2-0.3l0.3-0.5l0.3,0.5L26.7,66.9z M27.2,37.9l0.8-2.6l0.6,0.9L27.2,37.9z M28,95.1
			l-0.8-0.8l0.8-0.9l0.6,0.9L28,95.1z M27.8,101.6l0.8-0.2l0.9,0.3l-0.9,0.5L27.8,101.6z M28.7,61.1l-0.6-0.8l0.6-0.9l0.6,0.9
			L28.7,61.1z M31.3,73.7c-0.8,0-1.4-0.3-1.8-0.9h1.8V73.7z M30.4,17.9l-0.8-0.8l0.8-0.9l0.6,0.9L30.4,17.9z M30.4,70.2l-0.8-0.8
			l0.8-0.9l0.6,0.9L30.4,70.2z M31.3,85.2h-0.9v-0.8L31.3,85.2z M30.4,103.5l0.5-0.3l0.5,0.3l-0.6,0.5L30.4,103.5z M31.3,40.3
			l-0.8-0.8l0.8-0.9l0.5,0.9L31.3,40.3z M31.3,63.6l-0.8-0.8l0.8-0.9l0.5,0.9L31.3,63.6z M31.3,41.2c0.1-0.7,0.7-1.1,1.7-1.1v1.1
			H31.3z M33.3,53.7c0.7,0.4,1.2,0.8,1.7,1.3c0.5,0.5,1,1.1,1.4,1.7c0.4,0.6,0.6,1.1,0.6,1.5l-0.3,0.5c-1.4,0-2.6-0.6-3.6-1.7
			c-1-1.2-1.4-2.4-1.4-3.7C32.1,53.1,32.7,53.3,33.3,53.7z M32.9,68.5l-1.1,0.9v-0.9H32.9z M32.9,65.2l-0.8-0.8l0.8-0.9l0.6,0.9
			L32.9,65.2z M35.1,45.2c1.3,0.2,1.9,0.6,1.9,1.4l-1.7,1.2c-0.8,0-1.5-0.3-2-0.8s-0.8-1.2-0.8-2C33,45,33.9,45,35.1,45.2z
			 M33.2,77.8c0,0.8,0.2,1.6,0.5,2.4c0.3,0.8,0.9,1.4,1.7,1.7l-2.3,1.1h-0.2v-5.1H33.2z M34.3,90.2l-1.4-0.8l2.4,0.8H34.3z
			 M32.9,102.7l0.6-0.8l-0.6-0.9l0.6,0.9L32.9,102.7z M35.4,30.3L33.7,32v-1.7H35.4z M34.5,33.6h-0.8l0.8-0.8V33.6z M34.5,69.5
			l-0.6-0.8l0.6-0.9l0.6,0.9L34.5,69.5z M34.5,84.4l-0.6-0.8l0.6-0.9l0.6,0.9L34.5,84.4z M34.3,16.9l0.8-0.8l0.3,0.2L34.6,17
			L34.3,16.9z M35.3,38.8c0.4-0.2,0.7-0.3,1-0.4v1.8l-1.8-0.8C34.7,39.2,34.9,39,35.3,38.8z M40.3,51.2l-3.5,0.8l-0.6-0.8l2.4-0.9
			L40.3,51.2z M36.9,62.8v0.8h-0.6v-0.8H36.9z M36.3,85.2l1.7-2.4v2.4H36.3z M37.9,27.9l-1.1,0.8v-0.8H37.9z M39.4,64.5l0.9,0.8
			l-1.8,2.7l0.9,0.6l2.3-0.9l0.2,0.2l-2.4,2.4l-2.6-1.7C38,67.2,38.8,65.9,39.4,64.5z M37.4,86.5c0.4-0.3,0.8-0.5,1.3-0.5l-1.8,1.7
			C36.9,87.2,37,86.8,37.4,86.5z M37.8,41.2l-0.3-0.5l0.5-0.5l0.3,0.5L37.8,41.2z M41,32.7c0.6,0.5,1.2,0.8,1.9,1l-1.5,0.9L38.7,32
			l0.8-0.8C39.9,31.7,40.5,32.2,41,32.7z M41.9,56.5c0.6,0.6,1,1.2,1.1,2c-0.8-0.2-1.5-0.5-2.2-1c-0.7-0.5-1.3-0.9-2-1.4l1.4-0.9
			C40.7,55.5,41.3,56,41.9,56.5z M39.3,44.5L39,44.1l0.5-0.5l0.3,0.5L39.3,44.5z M39.3,73.5L39,73.2l0.5-0.5l0.3,0.5L39.3,73.5z
			 M39.4,17v-0.8l0.9,0.8H39.4z M41.4,38.5l1.5-0.6l-1.2,2.6l-1.4-0.9C40.5,39,40.9,38.7,41.4,38.5z M41.3,12.9l-0.5-0.5l0.5-0.5
			l0.3,0.5L41.3,12.9z M41.7,90.9l0.9-0.9l0.3,0.2L42,91.1L41.7,90.9z M42.9,82.8L42.2,82l0.8-0.9l0.6,0.9L42.9,82.8z M42.9,88.5
			l-0.8-0.8l0.8-0.9l0.6,0.9L42.9,88.5z M43.7,51.9l-0.6-0.8l0.6-0.9l0.6,0.9L43.7,51.9z M44.4,46.2h-0.8l0.8-2.6V46.2z M44.7,60.1
			l1.5-0.6l-1.8,2.4l-0.8-0.8C43.9,60.6,44.2,60.3,44.7,60.1z M46.2,75.2c-0.2,0.6-0.6,0.9-1.3,0.9c-0.3-0.4-0.5-0.8-0.7-1.2
			c-0.2-0.4-0.3-0.9-0.5-1.4h2.7C46.4,74,46.3,74.6,46.2,75.2z M44.3,81.8L44,81.5l0.5-0.5l0.3,0.3L44.3,81.8z M45.9,13.6
			c0.6,0.2,0.9,0.5,1,1l-1.5,1.7c0-0.5-0.2-1-0.5-1.4c-0.3-0.5-0.5-0.9-0.5-1.4C44.8,13.4,45.3,13.5,45.9,13.6z M44.4,35.3l0.5-0.3
			l0.5,0.3l-0.5,0.5L44.4,35.3z M46.2,52.8h-1.8v-0.9L46.2,52.8z M47.4,85.9c-0.3,1.2-1.1,1.7-2.5,1.7c0-1,0.3-2.1,0.8-3.2
			c0.5-1.2,1.4-1.7,2.6-1.7l0.5,0.2C48.1,83.7,47.6,84.7,47.4,85.9z M46.1,78.5l-0.3-0.9l0.5-0.8l0.3,0.8L46.1,78.5z M47,62.7
			c0.5-0.4,1.1-0.5,1.8-0.5c0,0.5-0.1,1.1-0.2,1.9s-0.6,1.1-1.4,1.1l-0.9-0.8C46.2,63.7,46.5,63.1,47,62.7z M46.8,69.5l-0.5-0.8
			l0.5-0.9l0.8,0.9L46.8,69.5z M47.9,60.2l-0.8-0.8l0.8-0.9l0.6,0.9L47.9,60.2z M52.1,27.2c0.7,0.3,1.1,0.7,1.1,1.4h-5.9
			c0-0.7,0.4-1.2,1.1-1.4c0.8-0.3,1.4-0.4,1.9-0.4S51.4,27,52.1,27.2z M48.8,33.6c-0.2,0.7-0.5,1.3-0.9,1.7v-1.7H48.8z M48.7,89.4
			l-0.6-0.8l0.6-0.9l0.6,0.9L48.7,89.4z M50.5,13.7c0.4,0.2,0.8,0.4,1.3,0.5c0.5,0.1,1,0.2,1.4,0.2c0.5,0.1,0.8,0.4,1.1,1
			c-0.4,0.7-1,1.1-1.8,1.3c-0.8,0.2-1.6,0.3-2.3,0.4c-0.5-0.8-0.9-1.6-1.2-2.4c-0.3-0.8-0.5-1.7-0.5-2.6H50
			C50,12.9,50.2,13.5,50.5,13.7z M49.4,21.2l-0.6-0.8l0.6-0.9l0.6,0.9L49.4,21.2z M49.4,31.2l-0.6-0.8l0.6-0.9l0.6,0.9L49.4,31.2z
			 M49.4,66.9l-0.6-0.8l0.6-0.9l0.6,0.9L49.4,66.9z M49.4,53.6l0.8-0.3l1.1,0.3L50.2,54L49.4,53.6z M49.4,72.6l0.8-0.3l1.1,0.5
			l-1.1,0.3L49.4,72.6z M51.2,85.2h-1.8v-0.8L51.2,85.2z M52,88c0,0.6-0.3,1.1-0.9,1.4c-0.6,0.3-1.2,0.6-1.7,0.8l2.4-2.4L52,88z
			 M50.2,101.5c0-0.6,0.3-1.1,1-1.4c0.7-0.3,1.2-0.6,1.7-0.8l-2.6,2.4L50.2,101.5z M51.2,60.2l-0.8-0.8l0.8-0.9l0.5,0.9L51.2,60.2z
			 M51.1,70.1l0.3-0.2l0.5,0.3l-0.3,0.5L51.1,70.1z M51.8,61.9l-0.5-0.8l0.5-0.9l0.8,0.9L51.8,61.9z M51.8,91.8l-0.5-0.8l0.5-0.9
			l0.8,0.9L51.8,91.8z M54.4,22l-0.8,0.9L51.8,22l1.1-0.8L54.4,22z M52.9,44.5h-0.8l0.8-1.7l0.6,0.9L52.9,44.5z M53.6,35.3l-0.8,0.9
			v-0.9H53.6z M52.9,71.9l0.6-0.8l-0.6-0.9l0.6,0.9L52.9,71.9z M55.3,91.8c0,0.8-0.2,1.5-0.7,2c-0.5,0.5-1,1-1.7,1.4l0.8-5.7
			C54.8,89.9,55.3,90.7,55.3,91.8z M52.9,104.4l0.3-0.5l0.5,0.5l-0.5,0.3L52.9,104.4z M55.2,81.7c0.8,0,1.6,0.2,2.3,0.6
			c0.7,0.4,1.4,0.8,2,1.2c-2,0.5-3.5,1.7-4.5,3.5l-1.2-0.9l0.8-4.2L55.2,81.7z M54.3,32.9L54,32.4l0.5-0.5l0.3,0.5L54.3,32.9z
			 M54.3,43.6L54,43.3l0.5-0.5l0.3,0.5L54.3,43.6z M54.4,51.9l1.2-1.8l1.5,1.8H54.4z M54.4,57.8l0.5-0.5l0.5,0.5l-0.5,0.3L54.4,57.8
			z M55.2,76.3c-0.1,0.2-0.3,0.4-0.8,0.6l0.9-1.7C55.3,75.7,55.3,76.1,55.2,76.3z M55.3,56.9l-0.8-0.8l0.8-0.9l0.6,0.9L55.3,56.9z
			 M55.2,13.8c0.1-0.3,0.2-0.6,0.4-1c0.2-0.4,0.4-0.6,0.7-0.8l0.6,0.9L55.2,13.8z M56.2,77.8L55.5,77l0.8-0.9l0.5,0.9L56.2,77.8z
			 M56.7,71.7c0.3-0.5,0.6-1,0.9-1.4c0.3-0.4,0.6-0.8,0.9-1.3c0.3-0.5,0.5-1,0.5-1.6c0-0.5-0.1-1.3-0.3-2.3l2.6,2
			c0,1.5-0.5,2.9-1.4,4.1s-1.9,2.3-3,3.2l-0.6-0.9C56.2,72.8,56.4,72.2,56.7,71.7z M57.9,55.2l-0.8-0.8l0.8-0.9l0.6,0.9L57.9,55.2z
			 M58.6,80.2c-0.2-0.4-0.7-0.9-1.5-1.5l0.8-0.9l1.4,1.7L58.6,80.2z M57.9,105.1l-0.8-0.8l0.8-0.9l0.6,0.9L57.9,105.1z M58.6,40.4
			c0,0.6-0.3,1.1-0.7,1.6l-0.2-1.4l0.9-2C58.6,39.2,58.6,39.8,58.6,40.4z M61.2,86.8c-0.9,1.1-2,1.7-3.3,1.7l1.5-3.3L61.2,86.8z
			 M58.6,43.6L58,42.9l0.6-0.9l0.6,0.9L58.6,43.6z M60.3,34.5l-0.8-0.8l0.8-0.9l0.6,0.9L60.3,34.5z M60.3,38.6l-0.8-0.8l0.8-0.9
			l0.6,0.9L60.3,38.6z M61.2,48.6l0.5,0.9l-0.5,0.8l-1.7-1.5l0.8-0.9l0.6,0.9L61.2,48.6z M63.6,89.4c0,1-0.4,1.6-1.3,1.8
			c-0.9,0.2-1.7,0.3-2.5,0.3c0-0.6,0.1-1.3,0.4-2s0.8-1.1,1.6-1.1l-0.6,1.7L63.6,89.4z M61.2,19.6l-0.8-0.8l0.8-0.9l0.5,0.9
			L61.2,19.6z M62.9,56.9h-1.7v-0.8L62.9,56.9z M61.8,98.5l-0.5-0.8l0.5-0.9l0.8,0.9L61.8,98.5z M61.7,36.2l-0.2-0.5l0.3-0.5
			l0.3,0.5L61.7,36.2z M63.6,20.5c0.5,0.6,0.8,1.3,0.8,2L63,23.7l-1.2-3.8v-0.3C62.5,19.6,63.1,19.9,63.6,20.5z M62.7,32.9l-0.3-0.5
			l0.5-0.5l0.3,0.5L62.7,32.9z M62.7,46.2c0-0.9,0.3-1.5,0.9-1.7v1.7H62.7z M62.9,13.7c0.3-0.6,0.8-0.9,1.5-0.9v0.9H62.9z
			 M64.6,63.3c-0.3,0.4-0.6,0.8-1,1.2l-0.8-2.6h2.4C65.1,62.4,64.9,62.9,64.6,63.3z M63.6,76.9L63,76.1l0.6-0.9l0.6,0.9L63.6,76.9z
			 M63.6,101l-0.6-0.8l0.6-0.9l0.6,0.9L63.6,101z M63.5,52.8l-0.2-0.5l0.3-0.5l0.3,0.5L63.5,52.8z M64.4,83.5l0.5-0.3l0.5,0.3
			L64.8,84L64.4,83.5z M66.9,101.9l-0.8,1.5c-0.5-0.5-0.8-1.1-0.8-1.8c-0.1-0.7-0.4-1.2-1-1.5l1.8-0.8L66.9,101.9z M65.3,70.2
			l-0.8-0.8l0.8-0.9l0.6,0.9L65.3,70.2z M65.5,16.6c0.2-0.8,0.5-1.5,1-2v3.3l1.4,1.7l-2.6-0.9C65.3,18.1,65.4,17.4,65.5,16.6z
			 M65.4,64.2l-0.2,0.3C65.3,64.4,65.3,64.3,65.4,64.2z M65.4,64.2l0.8-1.4C66,63.5,65.7,64,65.4,64.2z M66.2,87.7L65.4,87l0.8-0.9
			l0.5,0.9L66.2,87.7z M66.8,65.2l-0.5-0.8l0.5-0.9l0.8,0.9L66.8,65.2z M66.8,75.2l-0.5-0.8l0.5-0.9l0.8,0.9L66.8,75.2z M66.8,28.6
			l0.8-0.8L66.8,27l0.8,0.9L66.8,28.6z M70,38.9c0.7,0.4,1.3,0.9,1.8,1.4l2.3-0.9c0,1.7-0.9,2.6-2.6,2.6c-2.5,0-3.8-1.2-3.8-3.6
			C68.5,38.3,69.3,38.5,70,38.9z M68.6,55.2c-0.6-0.2-0.9-0.8-0.9-1.7h0.9V55.2z M69.4,58.6l-0.8,1.7l-0.8-0.8L69.4,58.6z
			 M68.6,73.5L68,72.8l0.6-0.9l0.6,0.9L68.6,73.5z M70,31.4c-0.4,0.3-0.9,0.5-1.4,0.6l-0.2-0.3l2.1-1.5C70.6,30.7,70.4,31.1,70,31.4
			z M69.2,80l0.8-0.8l0.3,0.2l-0.6,0.9L69.2,80z M70.3,17.9l-0.9-1.8l1.8,0.9L70.3,17.9z M70.3,51.2h-0.9l0.9-0.9V51.2z M69.4,73.5
			c0.4-0.6,1-0.9,1.8-0.9v0.9H69.4z M70.3,69.5h-0.8l0.8-1.7l0.6,0.9L70.3,69.5z M70.3,12.9V12h1.5L70.3,12.9z M74.4,85.2L72.2,87
			l-0.5-0.2l-1.5-1.7l0.9-0.8C72.2,84.9,73.2,85.2,74.4,85.2z M70.3,103.5l0.6-0.8l-0.6-0.9l0.6,0.9L70.3,103.5z M71.2,83.5
			l-0.8-0.8l0.8-0.9l0.5,0.9L71.2,83.5z M72.4,20.2c-0.2,1-0.6,1.6-1.2,1.8L71,20.6c0-1.3,0.6-2.2,1.8-2.7L72.4,20.2z M72.8,62.9
			c0.6,0.5,0.8,1,0.8,1.6l-2.4,1.1v-3.6C71.7,62.1,72.2,62.4,72.8,62.9z M71.8,27.9l-0.5-0.8l0.5-0.9l0.8,0.9L71.8,27.9z
			 M71.9,103.5l0.6,0.9l-0.8,0.8l-0.5-0.8l0.3-0.9l-0.3-0.8l0.5-0.9l0.8,0.9L71.9,103.5z M71.6,80.5c0.1-0.4,0.3-1,0.5-1.7
			s0.6-1.1,1.1-1.1l1.2,1.8L71.6,80.5z M71.8,57.8c0-0.5,0.2-0.9,0.5-1.3c0.4-0.4,0.8-0.5,1.3-0.5v1.8H71.8z M72.8,100.1l-0.8-0.8
			l0.8-0.9l0.6,0.9L72.8,100.1z M72.7,72.2l0.9-1.1l-0.8,1.7L72.7,72.2z M73.6,60.2L73,59.5l0.6-0.9l0.6,0.9L73.6,60.2z M73.6,88.5
			L73.3,88l0.3-0.3l0.3,0.5L73.6,88.5z M74.4,51.9l-0.6-0.8l0.6-0.9l0.6,0.9L74.4,51.9z M75.3,44.5h-0.9l0.9-0.9V44.5z M75.3,96.1
			l-0.8-0.8l0.8-0.9l0.6,0.9L75.3,96.1z M75.3,105.1l-0.8-0.8l0.8-0.9l0.6,0.9L75.3,105.1z M75.1,26.2l1.1-1.7l2,1.7H75.1z
			 M75.3,49.5c0.3-0.5,0.8-0.9,1.5-1.1v1.1H75.3z M76.2,102.7l-0.5-0.5l0.5-0.5l0.3,0.5L76.2,102.7z M77.8,57.8h-1.1l1.1-1.7V57.8z
			 M77.8,46.2l-0.8-0.8l0.8-0.9l0.6,0.9L77.8,46.2z M78.6,40.3v0.9h-0.8v-0.9H78.6z M79.4,103.2c0.4-0.2,0.6-0.5,0.8-0.8
			c0.2-0.4,0.4-0.7,0.5-1.1c0.2-0.4,0.5-0.8,1-1.1c0,0.4,0,0.9,0.1,1.5c0.1,0.6,0.3,1,0.8,1.1l-3.5,1.7l-1.4-0.9
			C78.5,103.5,79.1,103.4,79.4,103.2z M78.6,12.9L78,12.2l0.6-0.9l0.6,0.9L78.6,12.9z M78.6,37L78,36.2l0.6-0.9l0.6,0.9L78.6,37z
			 M78.6,91.1L78,90.3l0.6-0.9l0.6,0.9L78.6,91.1z M78.6,77.6l0.3-0.3l0.5,0.5L79,78.1L78.6,77.6z M79.3,100.1l0.5-0.3l0.5,0.3
			l-0.5,0.5L79.3,100.1z M81.3,46.9c-0.4,0.8-0.8,1.4-1.1,1.7v-1.7H81.3z M82.2,89.7c-0.4,0.3-0.9,0.5-1.4,0.5l-0.6-0.5l1.5-1.2h1.1
			C82.8,89,82.6,89.4,82.2,89.7z M81.2,60.2l-0.8-0.8l0.8-0.9l0.5,0.9L81.2,60.2z M82.8,50.3l-1.1-1.7h1.8L82.8,50.3z M85.1,83
			c-0.6,0.5-1.3,0.8-2,1.1l0.2,0.3h-1.2l1.1-0.3l-0.5-1.1c0.5-0.4,1-0.8,1.6-1.3c0.6-0.5,1.2-0.7,1.9-0.7C86,81.9,85.7,82.5,85.1,83
			z M83.6,94.4L83,93.6l0.6-0.9l0.6,0.9L83.6,94.4z M83.6,98.5L83,97.7l0.6-0.9l0.6,0.9L83.6,98.5z M83.7,68.5l-0.3-0.2l0.6,0.2
			l0.3-0.8C84.3,68.3,84.1,68.5,83.7,68.5z M83.6,80l0.3-0.2l0.5,0.3L84,80.6C83.8,80.4,83.7,80.2,83.6,80z M86.1,77.8
			c-0.5,0.6-1.1,0.9-1.8,0.9v-0.9H86.1z M86.1,46.2v0.8h-0.9v-0.8H86.1z M86.1,76.1l-0.8-0.8l0.8-0.9l0.5,0.9L86.1,76.1z M86.1,85.2
			l-0.8-0.8l0.8-0.9l0.5,0.9L86.1,85.2z M86.1,102.7l0.5-0.8l-0.5-0.9l0.5,0.9L86.1,102.7z M87.8,24.6L87,23.8l0.8-0.9l0.6,0.9
			L87.8,24.6z M87.8,38.6L87,37.9l0.8-0.9l0.6,0.9L87.8,38.6z M87.8,30.3l0.3-0.3l0.5,0.3l-0.5,0.5L87.8,30.3z M89.8,55.6
			c-0.3,0.4-0.9,0.5-2,0.5l2.4-2.6C90.2,54.6,90.1,55.3,89.8,55.6z M87.8,94.4l0.3-0.5l0.5,0.5l-0.5,0.3L87.8,94.4z M88.6,77.8
			L88,77l0.6-0.9l0.6,0.9L88.6,77.8z M88.6,89.4L88,88.6l0.6-0.9l0.6,0.9L88.6,89.4z M88.6,64.5l0.8-0.9v0.9H88.6z M89.3,74.4
			l-0.6-0.8l0.6-0.9l0.6,0.9L89.3,74.4z M89.3,87.7L88.7,87l0.6-0.9l0.6,0.9L89.3,87.7z M89.3,96.1l0.6-0.8l-0.6-0.9l0.6,0.9
			L89.3,96.1z M90.2,66.1l-0.8-0.8l0.8-0.9l0.6,0.9L90.2,66.1z M90.1,48.4l0.8-0.8l0.3,0.2l-0.8,0.8L90.1,48.4z M93.9,76.2l-1.1,1.4
			c-0.4,0.5-0.7,0.9-1.1,1.2c-0.4,0.4-0.9,0.6-1.5,0.7c0.3-1.1,0.7-2.1,1.3-3.1c0.6-1,1.1-1.9,1.6-2.8l2.1,1.7
			C94.7,75.4,94.3,75.7,93.9,76.2z M91.1,17.9l-0.8-0.8l0.8-0.9l0.5,0.9L91.1,17.9z M91.1,63.6l-0.8-0.8l0.8-0.9l0.5,0.9L91.1,63.6z
			 M91.1,69.5l-0.8-0.8l0.8-0.9l0.5,0.9L91.1,69.5z M91.1,100.1l-0.8-0.8l0.8-0.9l0.5,0.9L91.1,100.1z M91.1,102.7l-0.8-0.8l0.8-0.9
			l0.5,0.9L91.1,102.7z M92.8,54.9c1.1-0.3,1.9-0.4,2.4-0.4c-0.8,0.3-1.5,0.7-2.2,1.3c-0.7,0.6-1.1,1.2-1.3,2
			c-0.1-0.2-0.2-0.5-0.4-0.8c-0.2-0.4-0.2-0.6-0.2-0.8C91.1,55.5,91.7,55.1,92.8,54.9z M92,36c0.1-0.5,0.4-0.7,0.8-0.7L91.7,37
			C91.8,36.8,91.9,36.4,92,36z M92.8,66.9h-1.1v-0.8h1.1V66.9z M92.8,72.8L92,72l0.8-0.9l0.6,0.9L92.8,72.8z M96.6,32.2
			c0.5,0.5,0.8,0.9,1.1,1.4l-5,5l-0.2-0.5c0-0.9,0.4-1.8,1.3-2.6c0.9-0.8,1.6-1.5,2.2-2l-1.1-2.1C95.7,31.5,96.2,31.7,96.6,32.2z
			 M93.5,68.5l-0.6-0.8l0.6-0.9l0.6,0.9L93.5,68.5z M93.5,71.1l-0.6-0.8l0.6-0.9l0.6,0.9L93.5,71.1z M93.5,16.3l1.7-1.7L94,16.4
			L93.5,16.3z M93.5,40.3l0.6-0.8l-0.6-0.9l0.6,0.9L93.5,40.3z M94.5,95.1l-1,1l1.7-2.6l0.2,0.3C95.2,94.3,94.9,94.7,94.5,95.1z
			 M94.3,44.5l-0.6-0.8l0.6-0.9l0.6,0.9L94.3,44.5z M94.2,88.3l0.8-0.8l0.3,0.2l-0.8,0.8L94.2,88.3z M95.2,70.2l-0.8-0.8l0.8-0.9
			l0.6,0.9L95.2,70.2z M95.2,86.8l-0.8-0.8l0.8-0.9l0.6,0.9L95.2,86.8z M101.3,27.8c-0.9-1.2-1.8-2.3-2.7-3.6s-1.7-2.4-2.3-3.5
			s-1-2.1-1-2.9l2.7,0.9l2.3-0.9l1.5,0.9c0,0.5-0.1,1-0.3,1.6c-0.2,0.6-0.3,1.1-0.3,1.6c0,1.6,0.4,2.8,1.1,3.6
			c0.7,0.8,1.5,1.4,2.3,1.8c0.8,0.4,1.6,0.7,2.3,0.9c0.7,0.2,1.1,0.5,1.1,0.9c-0.8,0.4-1.6,0.7-2.3,0.8c-0.8,0.1-1.5,0.4-2.2,0.8
			l0.3,0.5h-0.8l0.5-0.5C102.8,30,102.2,29,101.3,27.8z M95.2,46.9l0.3-2.9l0.6,2.9l-0.6,0.5L95.2,46.9z M96.1,52.8l-0.8-0.8
			l0.8-0.9l0.5,0.9L96.1,52.8z M96.1,56.2l-0.8-0.8l0.8-0.9l0.5,0.9L96.1,56.2z M96.1,79.4l-0.8-0.8l0.8-0.9l0.5,0.9L96.1,79.4z
			 M96.1,89.4l-0.8-0.8l0.8-0.9l0.5,0.9L96.1,89.4z M96.3,96.1L96,95.8l0.6-0.8l0.2,0.2l0.2,0.5L96.3,96.1z M96.1,12.9l0.5-0.8
			l-0.5-0.9l0.5,0.9L96.1,12.9z M98.5,38.6l0.9,1.2l-1.7,1.4l-1.7-0.9l0.8,0.3L98.5,38.6z M96.7,91.1l-0.5-0.8l0.5-0.9l0.8,0.9
			L96.7,91.1z M96.7,97.7L96.3,97l0.5-0.9l0.8,0.9L96.7,97.7z M96.7,66.9l-0.3-0.3l0.3-0.5l0.3,0.5L96.7,66.9z M97.8,37v0.9h-1.1V37
			H97.8z M97.8,53.6l-1.1-0.8h1.1V53.6z M97.8,74.4l-1.1-0.9l1.1-1.7V74.4z M99.3,84.4l-0.8-0.9h0.8V84.4z M99.3,71.9l-0.6-0.8
			l0.6-0.9l0.6,0.9L99.3,71.9z M101.7,15.3l-0.6,0.9l-1.8-1.7l0.9-0.2L101.7,15.3z M101.1,40.3l-0.8-0.8l0.8-0.9l0.5,0.9L101.1,40.3
			z M102.8,36.2l-1.1,1.7l-0.6-0.9L102.8,36.2z M101.7,52.8l-0.5-0.8l0.5-0.9l0.8,0.9L101.7,52.8z M101.7,96.1l-0.5-0.8l0.5-0.9
			l0.8,0.9L101.7,96.1z M103.5,40.3c-0.4-0.2-0.7-0.5-0.8-0.9c-0.1-0.4-0.2-0.8-0.2-1.2c1.4,0,2.6,0.7,3.5,2.1
			c-0.9,1-2.1,1.8-3.5,2.3l-0.9-1.4L103.5,40.3z M102.8,42.9h-0.9l0.8-0.3L102.8,42.9z M103.5,58.6l-0.6-0.8l0.6-0.9l0.6,0.9
			L103.5,58.6z M103.5,94.4l-0.6-0.8l0.6-0.9l0.6,0.9L103.5,94.4z M103.5,96.8l-0.6-0.8l0.6-0.9l0.6,0.9L103.5,96.8z M107.5,22.4
			c-0.7,1.4-1,2.8-1,4.3c-0.6,0-1.3-0.2-2-0.6c-0.8-0.4-1.1-1-1.1-1.8l5.1-6.2C108.5,19.6,108.2,21,107.5,22.4z M104.3,79.4
			l-0.6-0.8l0.6-0.9l0.6,0.9L104.3,79.4z M105.1,15c0.6-0.5,1.1-0.8,1.7-0.8l-1.1,3.6l-1.5-1.2C104.3,16.1,104.6,15.5,105.1,15z
			 M105.2,90.2l-0.8-0.8l0.8-0.9l0.6,0.9L105.2,90.2z M109.1,46.3c-1.4,1-2.9,1.4-4.4,1.4c0-1.2,0.2-2.2,0.5-2.9
			c0.3-0.7,0.8-1.3,1.4-1.7c0.6-0.4,1.3-0.7,2-1c0.8-0.3,1.6-0.6,2.5-1l0.2,1.1C111.2,44,110.5,45.3,109.1,46.3z M105.2,95.1
			l-0.3-0.5l0.3-0.3l0.3,0.5L105.2,95.1z M108.5,25.3l-3-0.3l3-0.5l0.3,0.5L108.5,25.3z M106.1,51.2l-0.5-0.5l0.5-0.5l0.3,0.5
			L106.1,51.2z M106.7,56.9l-0.5-0.8l0.5-0.9l0.8,0.9L106.7,56.9z M106.7,85.2l-0.5-0.8l0.5-0.9l0.8,0.9L106.7,85.2z M108.5,35.3
			c-0.2-0.4-0.7-0.9-1.5-1.5l0.8-0.9l1.4,1.7L108.5,35.3z M107.8,41.9l-0.8-0.8l0.8-0.9l0.6,0.9L107.8,41.9z M107.8,45.3l0.6-0.8
			l-0.6-0.9l-0.8,0.9L107.8,45.3z M107,54.5l0.8-2.6l0.6,0.9L107,54.5z M109.3,38.6l-0.6-1.5l0.6-0.2l0.6,0.9L109.3,38.6z
			 M109.3,40.3l0.5-0.3l0.5,0.3l-0.5,0.5L109.3,40.3z M110.2,23.7l-0.8-0.8l0.8-0.9l0.6,0.9L110.2,23.7z M110.2,44.5l0.6-0.8
			l-0.6-0.9l-0.8,0.9L110.2,44.5z M111.7,28.6l-1.5-1.7h2.6L111.7,28.6z M110.2,51.2l0.3-0.5l0.6,0.5l-0.6,0.3L110.2,51.2z
			 M111.1,16.3l-0.8-0.8l0.8-0.9l0.5,0.9L111.1,16.3z M111.1,22l-0.8-0.8l0.8-0.9l0.5,0.9L111.1,22z M111.7,53.6l-0.5-0.8l0.5-0.9
			l0.8,0.9L111.7,53.6z M111.7,80.2l-0.5-0.8l0.5-0.9l0.8,0.9L111.7,80.2z M112.7,17.9l-0.8-0.8l0.8-0.9l0.6,0.9L112.7,17.9z
			 M112.7,46.2l-0.8-0.8l0.8-0.9l0.6,0.9L112.7,46.2z M113.3,17.8l0.8-0.9l0.2,0.2l-0.5,1.1L113.3,17.8z M113.5,25.3l0.3-0.3
			l0.5,0.3l-0.5,0.5L113.5,25.3z M114.3,57.8l-0.6-0.8l0.6-0.9l0.6,0.9L114.3,57.8z M114.3,32l0.6-0.8l-0.6-0.9l0.6,0.9L114.3,32z
			 M115.2,47.8l-0.8-0.8l0.8-0.9l0.6,0.9L115.2,47.8z M116.7,29.6l-0.5-5.7l0.5,4.1l0.8,0.9L116.7,29.6z M116.7,49.5l-0.5-0.8
			l0.5-0.9l0.8,0.9L116.7,49.5z"/>
	</g>
</g>
</svg>
