<?xml version="1.0" encoding="utf-8"?>
<!-- Generator: Adobe Illustrator 17.1.0, SVG Export Plug-In . SVG Version: 6.00 Build 0)  -->
<!DOCTYPE svg PUBLIC "-//W3C//DTD SVG 1.1//EN" "http://www.w3.org/Graphics/SVG/1.1/DTD/svg11.dtd">
<svg version="1.1" id="Layer_1" xmlns="http://www.w3.org/2000/svg" xmlns:xlink="http://www.w3.org/1999/xlink" x="0px" y="0px"
	 width="664.6px" height="99.3px" viewBox="3.3 0.1 664.6 99.3" enable-background="new 3.3 0.1 664.6 99.3" xml:space="preserve">
<g>
	<path fill="#FFFFFF" d="M99.6,90.8c1.3-2.6,2.6-6,4.3-9.9c1.7-3.9,3.9-8.6,6.4-13.7c2.6-5.2,4.7-10.3,7.3-15.9s5.2-10.7,7.7-15.9
		s4.7-10.3,6.9-14.6c2.1-4.3,3.9-8.2,5.2-11.2s2.1-5.2,3-6c0.4-0.9,0.9-1.7,1.7-2.6c0.4-0.4,1.3-0.9,2.6-0.9s2.6,0.4,3,1.7
		c0.9,1.3,1.3,2.1,1.7,3.4s1.7,3.4,3,6.9c1.7,3,3.4,6.9,5.2,11.2c2.1,4.3,4.3,9,6.4,14.2l7.3,15.5c0,0,4.7,10.3,6.9,15
		c2.1,4.7,4.3,9.4,6,13.3s3,6.9,4.3,9.4c1.3,2.6,1.7,3.9,1.7,4.3s0,0.9-0.4,1.7c-0.4,0.4-0.9,0.9-1.3,0.9H170
		c-0.9,0-1.7-0.9-2.6-2.1c-0.9-1.3-1.7-3-2.1-4.7c-0.9-1.7-1.3-3.4-2.1-4.7c-0.4-1.3-0.9-2.1-1.3-2.1h-35.2c-0.9,0-1.7,0.9-2.1,2.1
		c-0.4,1.3-1.3,3-1.7,4.7c-0.4,1.7-1.3,3.4-2.1,4.7c-0.9,1.3-1.7,2.1-3,2.1h-17.6c-0.4,0-0.9-0.4-1.3-0.9c-0.4-0.9-0.4-1.3-0.4-1.7
		C97.8,94.7,98.3,93.4,99.6,90.8L99.6,90.8z M106.4,86.8h0.4H106.4z M109,86.4V86h-0.9v0.4H109z M109.9,89.4V89l-0.4-0.4l-0.4,0.9
		L109.9,89.4z M112,84.3h-0.9H112z M112.9,83.8v-0.9V83.8z M113.3,73.5v-0.9V73.5z M114.2,88.2v-1.3l-0.9,1.3H114.2z M113.7,76.6
		v-0.4V76.6z M114.6,82.7l0.4-0.9l-1.3-1.3C114.2,80.8,114.6,81.8,114.6,82.7z M116.3,70.6h-0.9v0.9
		C115.9,71.1,116.3,71.1,116.3,70.6z M117.6,69.2c0.4,0.4,1.3,0.4,1.7,0.4v-0.9l-2.6-1.7C116.7,68.4,116.7,68.8,117.6,69.2z
		 M117.2,71.5v-0.9l-0.4,1.3C116.7,71.8,117.2,71.8,117.2,71.5z M117.2,80.5l-0.4-1.3l0.4,2.6C117.2,81.8,117.2,80.5,117.2,80.5z
		 M117.6,78.8l-0.9-0.9v1.3L117.6,78.8z M121,78.3l-2.6,3C120.2,81.3,121,80.4,121,78.3z M120.6,66.2c0.4,0.9,0.9,1.7,1.7,1.7
		c0-0.9-0.4-1.3-0.9-2.1c-0.4-0.4-0.9-1.3-0.9-2.1h-0.4C120.2,64.2,120.2,65.1,120.6,66.2z M121.5,74.4v-0.9h-0.4L121.5,74.4z
		 M122.3,78.3v-0.9l-0.4,0.4L122.3,78.3z M123.2,52.2v-0.9l-0.4,0.4L123.2,52.2z M123.2,54.8v-0.9l-0.4,0.4L123.2,54.8z M123.6,69.2
		l-0.4-1.3l-0.4,0.4C122.7,68.8,123.2,69.2,123.6,69.2z M122.7,77.1l0.9-1.7L122.7,77.1z M123.6,73.2v-1.7l-0.4,0.4
		C123.2,71.9,123.6,73.2,123.6,73.2z M123.6,69.8h0.4H123.6z M124.5,49.2v-0.9l-0.4,0.4L124.5,49.2z M124.9,72.8v-1.3l-0.4,0.4
		C124.5,71.8,124.9,72.8,124.9,72.8z M126.6,62l-1.3-1.3l-0.4,0.4l1.3,1.7C126.2,62.8,126.6,62,126.6,62z M127.5,79.5v-0.9l-0.9,0.9
		H127.5z M127.5,56.8v-0.9l-0.4,0.4L127.5,56.8z M127.5,58.5v-0.9l-0.4,0.4L127.5,58.5z M127,76.5l3-1.7l-0.9-0.4
		C127.9,74.4,127,74.8,127,76.5z M129.2,69.8c0,0,0.4-0.4,0.4-0.9C129.2,69.2,129.2,69.8,129.2,69.8z M130,47.8l-0.9-0.4v0.4H130z
		 M130,49.9l-0.9-0.4v0.4H130z M130,53.4l-0.9-0.4v0.4H130z M130,60.2l-0.9-0.4v0.4H130z M130.9,76.2v-0.9V76.2z M132.6,49.9v-0.4
		l-1.3,0.4H132.6z M131.8,37.9l0.4-0.4l-0.4-0.4l-0.4,0.4L131.8,37.9z M132.2,70.5l-0.4,1.3v0.4C131.8,72.2,132.2,70.5,132.2,70.5z
		 M132.6,52.5h0.4H132.6z M133,33.6v-0.4l-0.4-0.4C132.6,32.8,133,33.6,133,33.6z M133.5,71.1l0.9-0.9H134L133.5,71.1z M134.3,36.2
		h-0.4v0.9C133.9,36.7,134.3,36.7,134.3,36.2z M135.6,35.4l-0.9-0.4v0.4H135.6z M135.2,50.9l-0.4,0.4L135.2,50.9z M153.2,64.2v-0.9
		c-0.9-0.9-1.3-2.1-2.1-4.3c-0.9-2.1-1.3-3.9-2.1-6s-1.7-3.9-2.1-5.6c-0.9-1.7-1.7-3-2.1-3.4c-1.7,3-3,6.4-4.7,9.9l-4.7,9.9l0.4,0.4
		H153.2L153.2,64.2z M136.9,74.8l-0.4-0.4l-0.4,0.4H136.9L136.9,74.8z M136.5,38.8V38V38.8z M139,73.2l-1.3-0.4l-0.9,0.4H139z
		 M138.6,26.4c-0.9,0.4-1.3,1.3-1.3,1.7c0.4-0.4,0.9-0.4,1.3-0.4h1.3l0.9-0.4c0.4-0.4,0.4-0.9,0.4-1.7
		C140.3,25.6,139.9,26,138.6,26.4L138.6,26.4z M138.2,32.3l-0.9-0.4v0.4H138.2z M138.6,38.8l-0.4-0.4L138.6,38.8z M139.5,41
		c0.4,0,0.4-0.4,0.4-0.9l-0.9,1.3C139,41.5,139,41.5,139.5,41z M139,34.2l2.6-0.4l-2.6-0.4C139,33.4,139,34.2,139,34.2z M139,36.2
		v-0.9V36.2z M139.5,21.6v-0.9V21.6z M139.5,74.8h0.9v-0.4C139.9,74.4,139.9,74.4,139.5,74.8z M139.9,78.3v-0.9V78.3z M142.1,71.1
		v-0.9V71.1z M142.9,34.2l1.7-0.4l-1.7-0.4C142.9,33.4,142.9,34.2,142.9,34.2z M143.3,32.3l0.4-0.4l-0.4-0.4l-0.4,0.4L143.3,32.3z
		 M144.2,71.5h0.9H144.2z M144.6,31.2c0.4,0,0.4,0,0.4-0.4v-0.9C144.6,30.7,144.6,31.2,144.6,31.2z M145.1,40.2h-0.4v0.4L145.1,40.2
		z M146.3,76.2c-0.4,0.4-0.4,0.4-0.4,0.9C146.3,77.1,146.8,77.1,146.3,76.2c0.4,0,0.9-0.4,0.9-0.4S146.8,76.2,146.3,76.2z
		 M146.3,71.9V71V71.9z M146.8,23l0.9-0.4h-0.4L146.8,23z M148.1,26.9c0-0.4-0.4-0.9-0.9-1.3C146.8,26.4,147.2,26.9,148.1,26.9z
		 M147.2,29.4h0.4H147.2z M149.3,25.6h1.3v-0.4C149.8,25.1,149.3,25.1,149.3,25.6z M149.8,44v-0.8V44z M149.8,36.7l0.9-0.4
		C150.7,36.2,149.8,36.7,149.8,36.7z M150.6,41.9v-1.3V41.9z M151.5,32.9h-0.9l0.4,0.9L151.5,32.9z M151.5,73.2v-0.9h-0.4
		C151.1,72.8,151.1,73.2,151.5,73.2z M152.4,30.6v-0.4H152L152.4,30.6z M152.4,36.2v-0.9V36.2z M153.2,29.8v-1.3V29.8z M153.2,70.2
		l0.4-0.4l-0.4-0.4l-0.4,0.4L153.2,70.2z M153.6,40.2c0.9,0,0.9,0,0.9-0.9C154.1,39.2,153.6,39.7,153.6,40.2z M154.9,33.2v-0.4H154
		C154.5,33.2,154.5,33.2,154.9,33.2z M154.5,54.8v-0.9V54.8z M155.4,74.8h-0.9H155.4z M154.9,37.9l0.4-0.4l-0.4-0.4l-0.4,0.4
		L154.9,37.9z M156.2,70.5h-0.4H156.2z M156.2,78.3v-0.9h-0.4v0.9H156.2z M156.2,41.8v-1.3V41.8z M156.2,55.9V55V55.9z M156.2,72.3
		h0.9H156.2z M157.1,50.4v-0.9V50.4z M157.1,57.7v-0.9V57.7z M157.1,77.4l0.4-0.4l-0.4-0.4l-0.4,0.4L157.1,77.4z M157.9,47.8v0.9
		V47.8z M157.9,53.8v-0.9V53.8z M158.8,44.4v-0.9h-0.4C158.4,43.9,158.4,43.9,158.8,44.4z M158.8,72.7l0.4-0.4l-0.4-0.4l-0.4,0.4
		L158.8,72.7z M160.1,49.1c0,0.4-0.4,0.9-0.9,0.9c0.9,0,1.3-0.4,1.7-1.7C160.5,48.2,160.1,48.6,160.1,49.1z M159.6,52.1v-0.9V52.1z
		 M159.6,56.8v-0.9V56.8z M159.6,68.8v-0.4V68.8z M160.1,75.7l0.4-0.4l-0.4-0.4l-0.4,0.4L160.1,75.7z M160.9,60.2l-0.9-0.4
		L160.9,60.2z M160.5,63.2v-0.8V63.2z M160.5,70.1l0.4-0.4l-0.4-0.4l-0.4,0.4L160.5,70.1z M161.4,53.8h-0.9v0.9
		C160.9,54.7,161.4,54.7,161.4,53.8z M160.9,58.1v-0.9h-0.4L160.9,58.1z M160.9,77h0.4H160.9z M162.7,72.3l-1.3-1.3v1.3H162.7z
		 M162.2,80l0.4-0.4l-0.4-0.4l-0.4,0.4L162.2,80z M162.2,61.1v-0.9V61.1z M163.1,53.8h-0.4v0.9C162.7,54.8,163.1,54.8,163.1,53.8z
		 M162.2,64.5l0.4,0.4l0.4-0.4H162.2L162.2,64.5z M163.1,69.2l0.4,0.9l0.4-0.4c0-0.4-0.4-0.4-0.9-0.9L163.1,69.2z M163.1,57.8
		c0.4,0,0.9-0.4,1.3-0.9C163.5,56.8,163.1,57.2,163.1,57.8z M163.1,76.5v-0.4V76.5z M164.8,66.2c0.4-0.4,0.9-0.9,0.9-1.3v-0.4
		l-2.1,2.1C163.9,66.8,164.4,66.2,164.8,66.2L164.8,66.2z M164.8,68l-0.4,0.4L164.8,68z M165.2,58.9v-0.4V58.9z M165.2,60.7v-0.9
		V60.7z M166.5,62v0.4V62z M167.4,68.8h-1.3v1.3L167.4,68.8z M166.9,77.8H166v1.3C166.5,78.7,166.5,78.3,166.9,77.8z M166.9,82.6
		v-2.1v0.9V82.6z M168.7,67.5l-0.9,0.9l1.3,0.9L168.7,67.5L168.7,67.5z M168.7,79.1l-0.9-0.4v0.4H168.7z M168.7,72.7l0.4-0.4
		l-0.4-0.4l-0.4,0.4L168.7,72.7z M169.1,75.7h-0.9v0.4L169.1,75.7z M170.8,80.4c0.4,0,0.9,0.4,1.3,0.9c0.4,0.4,0.9,0.9,1.3,0.9
		c0-0.4-0.4-1.3-1.3-1.7s-1.7-0.9-2.1-1.3v3L170.8,80.4z M171.7,70.5l-0.9-0.4C170.8,70.1,171.2,70.5,171.7,70.5z M170.8,82.6h0.9
		H170.8z M171.7,68l0.4-0.4l-0.4-0.4V68z M171.7,75.7l0.4-0.4l-0.4-0.9l-0.4,0.4L171.7,75.7z M172.5,78.3c0-0.4-0.4-0.9-1.3-0.9
		L172.5,78.3z M171.7,85.1h0.9H171.7z M172.5,72.7l0.4,0.9C173,73.1,173,73.1,172.5,72.7z M173.8,85.6l-0.4-0.4
		C173.4,85.6,173.4,85.6,173.8,85.6z M173.8,69.2v0.9V69.2z M174.2,91.1c0-0.4-0.4-0.4-0.4-0.4v0.4H174.2z M173.8,89.8v-0.9V89.8z
		 M173.8,77c0.9,0,1.3,0,1.3-0.4l0.9-0.9h-0.4L173.8,77z M175.1,83l0.4-0.4l-0.4-0.4l-0.4,0.4L175.1,83z M175.5,88.1v-0.9V88.1z
		 M178.5,77.4l0.4-0.4l-0.4-0.4l-0.4,0.4L178.5,77.4z M178.5,86c0.4,0,0.4-0.4,0.9-0.9L178.5,86z M179,88.1h-0.4v0.4L179,88.1z
		 M180.2,88.1l-0.4-0.4v0.4H180.2z M182.4,93.3v-0.4V93.3z M208.6,1.5h37.3c3.4,0,6.4,0.9,9.4,2.1c3,1.3,5.6,3.4,8.2,5.6
		c2.1,2.6,4.3,5.2,5.6,8.2c1.3,3,2.1,6.4,2.1,9.4c0,4.7-1.3,9-3.9,12.4c-2.6,3.4-6,6.4-9.9,8.6v0.4c4.7,2.1,8.6,5.2,11.6,8.6
		s4.7,8.2,4.7,13.7c0,3.4-0.9,6.4-2.1,9.9c-1.3,3-3,6-5.6,8.6c-2.1,2.6-5.2,4.3-8.2,6s-6.4,2.1-9.9,2.1h-39.5l-1.7-1.7V3.5
		L208.6,1.5L208.6,1.5z M212.4,71.8v-0.9V71.8z M214.6,86.5c0.9-0.4,1.3-1.3,1.7-2.1l-1.3,0.4v-0.4l-2.1,0.4l0.4,1.7h-0.9v1.3
		L214.6,86.5L214.6,86.5z M214.2,91.7l0.9,0.4l0.4-1.3c0-0.4,0-0.9,0.4-1.3l-1.7-0.4l1.3,0.9l-1.3,0.4l-1.7-0.4l0.9,2.1L214.2,91.7
		L214.2,91.7z M212.9,93.4v-0.9V93.4z M213.3,34.6l-0.4-0.4v0.4H213.3z M215,76.6l-1.3,0.4l0.4,0.9L215,76.6L215,76.6z M214.2,74.9
		l2.6-0.4l-2.6-0.4V74.9z M214.2,83.1l0.4-0.4l-0.4-0.4V83.1z M214.2,27.3h0.9H214.2z M214.2,71.9V71V71.9z M214.6,87.8
		C215,87.8,215,88.2,214.6,87.8z M215,13.1l3,0.4l-0.4-0.4c0-0.4,0-0.4,0.4-0.4L215,13.1z M215,79.2v-0.9V79.2z M216.3,8.8V7.5
		l-0.4-0.4L215,8L216.3,8.8l-0.9,0.9l0.9,0.4L216.3,8.8L216.3,8.8z M216.7,87.4l2.1-2.1l-0.9-0.4c-0.4,0-0.4,0.4-0.4,0.4
		c0,0.4-0.4,0.4-0.4,0.9s0,0.4-0.4,0.9c0,0.4-0.4,0.4-0.9,0.4h-0.9L216.7,87.4L216.7,87.4z M215.9,14.4V14V14.4z M215.9,43.2
		c0.4,0,0.4-0.4,0.9-0.9V41C216.3,41.9,215.9,42.3,215.9,43.2z M216.3,10.1l2.6,0.4v-0.4H216.3z M216.3,77.9h0.9V77
		C216.7,77.5,216.3,77.5,216.3,77.9z M216.3,85.7l1.3-0.4l-1.3-0.4V85.7z M216.3,88.7l1.3-0.4l-1.3-0.4V88.7z M216.3,92.5l2.6-0.4
		v-0.9C218,91.2,217.2,91.7,216.3,92.5z M216.7,16.6l3.9-0.4l-3.9-0.4V16.6z M216.7,27.7l0.4-0.4l-0.4-0.4V27.7z M216.7,36.2
		l0.4-0.4l-0.4-0.4C216.7,35.4,216.7,36.2,216.7,36.2z M219.7,87.8l-2.6,0.9L218,90C218.4,89.9,219.3,89.1,219.7,87.8L219.7,87.8z
		 M218,38v-0.9V38z M218.9,75.4l-0.9-0.9l-0.4,0.4v0.9h1.3L218.9,75.4L218.9,75.4z M219.3,81.4l-0.9,0.9h0.4l1.7-1.7h-0.4
		C219.7,80.9,219.3,81.4,219.3,81.4z M218.9,35.4v-1.3l-0.4,0.4C218.5,34.5,218.9,35.4,218.9,35.4z M220.2,73.6h-1.3V74L220.2,73.6z
		 M219.7,22.1l0.4-0.4l-0.4-0.4V22.1z M219.7,73.2h0.4l-0.4-0.9V73.2z M219.7,91.2l0.4-0.4l-0.4-0.4V91.2z M221,8.4L219.3,8l1.3,1.3
		L221,8.4z M219.7,29l0.9,2.1C220.6,30.2,220.2,29.4,219.7,29z M220.2,83.5h0.4H220.2z M220.6,16.6v-1.3V16.6z M220.6,37.6v-0.9
		V37.6z M220.2,48.7l0.4-0.4L220.2,48.7z M220.6,77.9l1.7-0.4L220.6,77.9z M220.6,89.5l1.3-1.7h-0.4L220.6,89.5L220.6,89.5z
		 M221,13.6l0.4-0.4l-0.4-0.4C221,12.8,221,13.6,221,13.6z M221,80.1l0.4-0.4l-0.4-0.4V80.1z M221.9,65.1V63l-0.9,0.9L221.9,65.1z
		 M221.9,85.2v0.4l-0.4-1.7l-0.4,0.4C221.5,84.3,221.9,84.8,221.9,85.2L221.9,85.2z M221.9,92.1l0.4,0.9l2.1-2.6l-1.3-1.3
		c0.4-0.4,1.3-0.9,1.7-1.7c0.4-0.9,0.9-1.3,0.9-2.1l-0.9,0.9l-0.4-0.4l-0.9,0.4l-1.3-0.4v3.4h-0.9l0.9,1.3
		C222.2,90.5,221.9,92.1,221.9,92.1z M221.9,17.4V17V17.4z M223.2,65.5h-0.9v0.4L223.2,65.5z M223.2,69.8v-0.9l-0.4,0.4L223.2,69.8z
		 M224,7.5c-0.4,0-0.9,0.4-0.9,0.4l1.7-0.4H224z M223.6,9.7V8.4V9.7z M223.6,13.6v-0.9V13.6z M223.6,42.7v-0.8V42.7z M223.2,80.1
		l0.4-0.9L223.2,80.1z M223.6,83.5c0.4-0.4,0.9-0.9,1.3-0.9h-0.4C223.6,82.2,223.6,82.7,223.6,83.5L223.6,83.5z M224.9,11.8l1.3-0.4
		l-1.3-0.4C224.9,11,224.9,11.8,224.9,11.8z M224.9,88.7h0.9v-0.9C225.3,87.8,224.9,88.2,224.9,88.7z M224.9,90.4l1.7,0.4l-0.4-0.4
		l0.4-0.4L224.9,90.4z M225.7,14.8h-0.9v0.4L225.7,14.8z M226.2,47l0.4-0.4L226.2,47z M226.6,81.8l0.4-0.4l-0.4-0.4V81.8z
		 M245.9,89.5v-1.3h1.7c0.4-0.4,0.9-0.9,0.9-1.7l-1.7-0.9l-0.9,0.4c-0.4,0-0.9-0.4-1.3-0.9c-0.4-0.4-0.4-0.9-0.9-1.3v1.7l1.3,1.3
		l-0.9,0.9v0.9h-0.4v-0.4l-0.9,0.4l-2.6-1.7c0,0.4,0.4,0.9,0.9,1.3c0.4,0.4,0.9,0.9,0.9,1.3c-0.4,0-0.9,0-1.3-0.4
		c-0.4,0-0.4-0.4-0.9-0.9c0-0.4-0.4-0.4-0.4-0.9c0,0-0.4-0.4-0.9-0.4l-0.9,0.9l0.9,1.7l-0.9,0.4c-0.4,0-0.9-0.4-0.9-0.9l-0.4-1.3
		l1.3-1.7l-1.3-0.4H235l-1.7,0.4c-0.4,0-1.3,0.4-1.7,0.9c-0.4,0.4-0.9,0.4-0.9,0.9l-0.4-0.9l0.4-1.3l-0.9,0.4l-0.9-0.9l0.4-0.9
		l-1.3-1.3l-0.9,1.3l-1.3-0.4l1.3,2.6l-0.9,1.7l2.6-0.9v0.4l-0.9,1.7l-1.7-0.4l0.9,1.3h3.4c0.4,0.9,0.9,1.3,1.3,1.3
		c0.4,0.4,0.9,0.4,1.3,0.4h1.3c0,0,0.9,0,1.7,0.4l-0.4,0.4l0.4,0.9l0.9-1.7v-0.4l1.3-0.4h1.3c0.4,0,0.9,0,0.9,0.4l0.4,0.4
		c0,0.4,0,0.4,0.4,0.9c0,0.4,0.4,0.4,0.4,0.9l0.9-1.3l1.7,0.9l1.7-0.4l-0.4-1.3l2.1-0.4l1.3,1.7l0.4-1.3l-2.1-1.7h-0.9l-0.4-0.4
		l-0.4,0.4L245.9,89.5L245.9,89.5z M227.9,11.4h0.9H227.9z M228.3,85.2l-0.4-0.4l0.4-0.4V85.2z M228.7,16.6v-1.3V16.6z M242.1,39.7
		c0.9,0,1.7-0.4,2.6-0.9c0.9-0.4,1.3-1.3,1.7-2.1c0.4-0.9,0.9-1.7,1.3-3c0.4-0.9,0.4-2.1,0.4-3s0-1.7-0.4-2.6s-0.9-1.7-1.3-3
		c-0.4-0.9-1.3-1.7-1.7-2.1c-0.9-0.4-1.7-0.9-2.6-0.9h-12.9v17.6H242.1z M236.9,77.5c1.7,0,3.4,0,4.7-0.4c1.7-0.4,3-0.9,4.3-1.3
		c1.3-0.9,2.1-1.7,3-3s1.3-3,1.3-4.7c0-1.3,0-2.1-0.4-3s-0.9-2.1-1.7-3c-0.9-0.9-1.7-1.7-2.6-2.1s-2.1-0.9-3.4-0.9h-12.9v17.6
		l0.4,0.9L236.9,77.5L236.9,77.5z M230.9,11.8v-0.9V11.8z M231.3,83.9V83V83.9z M232.2,84.8l0.4,0.9l-0.4-1.7
		C232.2,84,232.2,84.8,232.2,84.8z M232.2,88.7v-0.9V88.7z M233.9,8.4V8l-0.4-0.9l-0.4,0.4L233.9,8.4L233.9,8.4z M233.9,89.9V89
		V89.9z M234.8,93.8v-0.9V93.8z M236.5,90.4l-1.3-0.4l0.4-0.4L236.5,90.4L236.5,90.4z M235.6,11v-0.9V11z M235.6,92.1l-0.4,0.9
		l0.4-1.7C235.6,91.3,235.6,92.1,235.6,92.1z M236.9,11.8v-0.9V11.8z M238.2,92.5v-0.9V92.5z M238.6,10.6v-0.4h-0.4L238.6,10.6z
		 M239,13.1h0.4v-0.4L239,13.1z M239.9,13.6v-0.9V13.6z M240.3,93.4v-0.9v0.4V93.4z M240.8,84.8l0.9,1.7
		C241.6,85.7,241.6,85.2,240.8,84.8z M242.1,10.6l0.4,0.9L242.1,10.6z M243.3,94.2v-0.9V94.2z M245.1,90.4c0,0.4,0.4,0.9,0.9,1.3
		l0.4,0.4l-0.4,0.4c-0.4,0-0.4,0-0.4-0.4v-0.4h-0.4c-0.4,0-0.9,0-1.3-0.4s-0.4-0.4-0.4-0.9l1.3-1.7
		C244.6,89.1,245.1,89.9,245.1,90.4L245.1,90.4z M244.2,12.7v-0.9V12.7z M244.2,14.4v-0.9V14.4z M245.5,83.9l1.3-0.4l-1.3-0.4V83.9z
		 M245.9,17.8v-0.9V17.8z M247.2,86.9v0.4h-0.9L247.2,86.9z M246.8,12.7v-0.9V12.7z M246.8,17.4V17V17.4z M247.2,50v-0.4h-0.4V50
		H247.2z M247.6,19.6v-0.9l-0.4-0.4l-0.4,0.4L247.6,19.6L247.6,19.6z M248.5,15.3l-0.9-1.3l-0.4,0.9l0.9,0.9
		C248.1,15.8,248.5,15.3,248.5,15.3z M248.5,56.9V56V56.9z M249.8,84.8h2.1l0.9-0.4c0-0.4-0.9-0.9-1.7-1.3c-0.9,0-1.7-0.4-2.1-0.4
		l-0.4,0.4C248.9,83.9,249.3,84.4,249.8,84.8z M250.2,80.9h-1.3l0.4,0.9L250.2,80.9L250.2,80.9z M249.3,42.7v-0.8V42.7z M250.6,88.7
		l1.3-1.7l-0.9,0.9l-1.3-0.4L250.6,88.7z M251.1,54.3c0.9,0,1.3-0.4,1.3-1.7C251.5,53,251.1,53.5,251.1,54.3z M252.4,81.8h-0.9v0.9
		L252.4,81.8z M252.4,18.7l0.4-0.4l-0.4-0.4l-0.4,0.4L252.4,18.7z M252.8,91.2v-0.9l-0.4-0.4l-0.4,0.4
		C251.9,90.8,252.4,90.8,252.8,91.2L252.8,91.2z M252.4,90.8c0,0,0-0.4,0.4-0.4L252.4,90.8z M254.1,80.1h-0.9v1.3
		C253.6,81.4,254.1,80.9,254.1,80.1z M253.6,85.7l0.9-0.9l-1.3,0.4L253.6,85.7L253.6,85.7z M254.1,88.7c0.4,0.4,0.9,0.4,1.3,0.4v0.4
		l0.4,1.3l0.4-0.4V90l-0.4-0.4h-0.4c0-0.4-0.4-0.9-0.9-1.3c-0.4-0.4-0.9-0.4-1.3-0.9C253.2,87.8,253.6,88.2,254.1,88.7L254.1,88.7z
		 M253.6,83.1v-0.9V83.1z M254.5,36.3v-0.4h-0.9C253.6,35.9,254.1,36.3,254.5,36.3z M254.1,17.4l0.4-0.4l-0.4-0.4l-0.4,0.4
		L254.1,17.4z M254.1,14.8h0.9H254.1z M254.9,37.2l0.4,1.3C255.4,37.6,255.4,37.2,254.9,37.2z M254.9,57.3c0.4-0.4,0.4-0.9,0.4-0.9
		C254.9,56.5,254.9,56.9,254.9,57.3z M255.4,83.1v0.4V83.1z M255.8,86.5l-0.9-0.4v0.4H255.8z M256.6,81.4c0.4,0,0.4-0.4,0.9-0.9
		l-0.9-0.4l-0.9,1.7C255.8,81.8,256.2,81.4,256.6,81.4z M256.2,20.9l-0.4,1.3c0.4,0,0.9,0,1.3-0.4l0.4-1.3h-0.4
		C256.6,20.4,256.2,20.9,256.2,20.9z M256.2,77.5v-0.9V77.5z M257.1,25.1h-0.4H257.1z M257.1,86.1l0.9-0.4l-0.9-0.4V86.1z M257.1,32
		h0.4H257.1z M257.1,66.3v-0.8h-0.4L257.1,66.3z M258.4,36.7l-0.9-0.4v1.3C257.5,37.6,258.4,36.7,258.4,36.7z M257.9,83.1
		c0-0.4-0.4-0.9-0.9-0.9v0.9H257.9z M258.4,19.1h2.6c0.4,0,0.9-0.4,0.9-0.9v-0.4c-0.9,0.4-1.7,0.4-2.1,0.9l-2.1-0.9
		C257.5,18.3,257.9,18.7,258.4,19.1z M258.4,68.1v-0.9l-0.9,0.9H258.4z M258.4,16.6v-1.3V16.6z M258.4,33.3v-0.9V33.3z M258.4,84.4
		v-0.9V84.4z M258.8,71.9c-0.4,0.4-0.4,0.9-0.4,1.7c0.9,0,1.3-0.4,1.7-0.9c0.4-0.4,0.4-0.9,0.4-1.7
		C259.6,71.5,259.2,71.5,258.8,71.9z M259.2,26.4l-0.9-0.4v0.4H259.2z M259.2,64.6h-0.9l0.9,0.9V64.6z M258.8,88.7v-0.9V88.7z
		 M259.6,79.6l-0.4-0.9l-0.4,0.9H259.6z M259.6,59.5v-0.4h-0.4v0.4H259.6z M259.2,62.5l0.9-1.3C259.2,61.2,259.2,61.6,259.2,62.5z
		 M259.6,82.7c0,0.4,0.4,0.4,0.9,0.4l-0.9-1.3V82.7z M260.1,36.7v-0.4h-0.4L260.1,36.7z M260.1,14.4l0.4,1.3l-0.4-2.1
		C260.1,13.6,260.1,14.4,260.1,14.4z M260.1,80.9V80V80.9z M260.9,29l-0.9-0.4V29H260.9z M260.9,32.9l-0.9-0.4v0.4H260.9z
		 M261.4,63.8c0-0.4-0.4-0.9-0.9-0.9v0.9H261.4z M260.9,73.6v-0.9l-0.4,0.4L260.9,73.6z M262.2,65.9c0-0.4-0.4-0.4-0.4-0.9l-0.4,0.9
		l1.3,0.9C262.2,66.3,262.2,65.9,262.2,65.9z M261.8,80.1c0,0.4,0.4,0.4,0.4,0.9l-0.4-2.1l-0.4,0.4
		C261.8,79.6,261.8,79.6,261.8,80.1z M262.2,81.4l-0.4,0.4L262.2,81.4z M262.7,86.1h-0.9v0.4L262.7,86.1z M261.8,30.3l0.4,0.4v-0.9
		C262.2,29.9,262.2,29.9,261.8,30.3z M263.5,74.5l0.4-0.4l-1.7-0.9C262.2,74.1,262.7,74.5,263.5,74.5L263.5,74.5z M262.7,28.6v-0.9
		V28.6z M263.5,70.6l1.7-1.3l-0.9-0.9L263.5,70.6L263.5,70.6z M263.9,20.4v-0.9l-0.4,0.4L263.9,20.4z M263.9,27.3V26l-0.4,0.4
		L263.9,27.3z M263.9,34.2v-0.9l-0.4,0.4L263.9,34.2z M263.5,62.1v-0.4V62.1z M263.9,71.5v-0.9V71.5z M264.4,71.5h0.9H264.4z
		 M265.2,80.5l-0.9-0.4v0.4H265.2z M266.5,80.1v-0.9l-0.4,0.4L266.5,80.1z M267.4,71.9V71V71.9z M294.4,30.3c2.6-6,6-11.2,10.3-15.5
		c4.3-4.7,9.9-8.2,15.5-10.7c6-2.6,12.4-3.9,19.3-3.9s13.3,1.3,19.3,3.9s11.2,6,15.9,10.7c4.3,4.7,8.2,9.9,10.7,15.9
		s3.9,12.4,3.9,19.3s-1.3,12.9-3.9,18.9s-6.4,11.2-10.7,15.9c-4.8,4.7-9.9,8.2-15.9,10.7c-6,2.6-12.4,3.9-18.9,3.9
		c-6.9,0-13.3-1.3-19.3-3.9s-11.2-6-15.5-10.7c-4.3-4.3-8.2-9.9-10.7-15.9c-2.6-6-3.9-12.4-3.9-19.3S291.8,36.7,294.4,30.3
		L294.4,30.3z M296.6,51.3v-0.8h-0.4C296.1,50.9,296.1,51.3,296.6,51.3z M297.4,47.5c0-0.4,0-0.9-0.4-0.9v0.9H297.4z M297.4,56
		c0.4,0.4,0.9,0,0.9,0c0-0.4,0.4-0.9,0.4-0.9C297.8,55.2,297.4,55.6,297.4,56z M298.7,45.3c0,0,0-0.4-0.4-0.4l-0.5-0.4
		C297.8,44.5,298.7,45.3,298.7,45.3z M298.7,38.9v-1.3V38.9z M298.7,61.6v-0.9V61.6z M299.6,53.5v-0.4h-0.9L299.6,53.5z M299.6,39.7
		l-0.4,3.9h0.4V39.7z M299.1,59l0.4-0.4L299.1,59z M299.6,48.3v-0.8V48.3z M300,65.5c-0.4,0-0.4,0.4-0.4,0.9
		C300,66.2,300.4,66.2,300,65.5l0.9-0.4C300.9,65.1,300.4,65.5,300,65.5z M300,37.2v-0.9V37.2z M300,39.7v-0.8V39.7z M301.7,35
		c0-0.4,0.4-0.4,0.9-0.4h0.9c0.4,0,0.4-0.4,0.4-0.9l-2.1-1.3l-1.3,0.9l1.7,3C301.7,35.9,301.7,35.4,301.7,35z M301.3,57.2
		c0-0.4,0-0.9-0.4-0.9v0.9H301.3z M302.1,43.2l-0.9-0.9v0.4l0.4,0.9L302.1,43.2z M304.3,49.2l1.3-2.1c-0.9-0.4-1.7-0.9-2.1-1.3
		c-0.4,0-0.9,0.4-0.9,0.9l-0.4,1.3h1.3l1.3,0.9C304.8,48.8,304.3,49.2,304.3,49.2L304.3,49.2z M302.6,53.5l-0.4,0.4L302.6,53.5z
		 M303.4,25.1h-0.9H303.4z M303,64.2v-0.9V64.2z M304.7,30.7c0.4,0,1.3,0,1.7,0.4c0-0.4-0.4-0.9-0.9-1.3h-1.3l-1.7,0.9H304.7
		L304.7,30.7z M303.4,59h0.4H303.4z M303.9,57.8v-0.9V57.8z M305.1,27.6l-0.4-0.4l-0.9,1.3C303.8,28.5,305.1,27.7,305.1,27.6z
		 M304.3,51.8h1.3c0.4,0,0.4-0.4,0.4-0.9C305.1,50.8,304.7,51.2,304.3,51.8L304.3,51.8z M304.7,61.2l-0.4,0.4L304.7,61.2z
		 M304.7,36.7v-0.9V36.7z M304.7,71.1v1.7c0.4,0,0.9-0.4,0.9-0.9l0.4-1.3C305.6,70.6,305.1,70.6,304.7,71.1z M305.1,55.2v-0.9V55.2z
		 M306,38l1.3,0.4l-2.1-1.7L306,38L306,38z M305.6,43.2l1.7,1.7L305.6,43.2z M305.6,68.4v-0.9V68.4z M305.6,76.6l0.9-0.9L305.6,76.6
		z M307.7,57.8l-0.9-1.3l-1.3,1.3H307.7L307.7,57.8z M306.4,20v-1.3V20z M306.4,61.2v-0.9V61.2z M306.4,26.9V26V26.9z M307.7,23.9
		c0.4,0.4,0.9,0.4,1.3,0.4c0-0.4-0.4-0.9-0.9-1.3c-0.4-0.4-0.9-0.4-1.7-0.4C306.9,23.4,307.3,23.9,307.7,23.9L307.7,23.9z
		 M308.1,29.4l-0.9-1.3l-1.3,0.4L308.1,29.4L308.1,29.4z M306.9,65.9v0.4V65.9z M307.7,72.8v-0.9h-0.9v0.9H307.7z M307.3,64.2
		c0,0.4,0,0.4,0.4,0.4l0.4,2.1l-0.4-3.4C307.3,63.8,307.3,64.2,307.3,64.2z M307.7,38l0.4-1.7l-0.4,0.9V38z M308.1,60.8v-0.9V60.8z
		 M310.3,31.2h-1.7v0.9C309.4,31.6,309.9,31.6,310.3,31.2z M309.4,18.7v-0.9V18.7z M309.4,21.3l0.9-0.9h-0.4L309.4,21.3z
		 M310.3,79.6v-0.9h-0.9v0.9H310.3z M310.3,35l0.4-0.4l-0.4-0.4l-0.4,0.4L310.3,35z M310.7,17v-0.9V17z M310.7,30.7
		c0.4,0.4,0.9,0.4,1.3,0.4c0-1.3-0.4-1.7-1.7-1.7C310.3,29.9,310.7,30.3,310.7,30.7L310.7,30.7z M310.7,24.7h0.9H310.7v-0.4V24.7z
		 M312.4,78.8c-0.4,0.4-0.4,0.9-0.4,1.3c0.4,0,0.9-0.4,1.3-0.9c0.4-0.4,0.4-0.9,0.4-1.3C313.3,77.8,312.9,77.8,312.4,78.8z
		 M312.9,69.8v-0.4V69.8z M315.4,59.9c1.3,3.4,3.4,6,5.6,8.6c2.6,2.6,5.2,4.3,8.2,5.6c3,1.3,6.4,2.1,10.3,2.1s7.3-0.9,10.3-2.1
		c3.4-1.3,6-3.4,8.6-5.6c2.6-2.6,4.3-5.2,5.6-8.6c1.3-3.4,2.1-6.9,2.1-10.3c0-3.9-0.9-7.3-2.1-10.3c-1.3-3.4-3.4-6-5.6-8.6
		c-2.6-2.6-5.2-4.3-8.6-5.6c-3-1.3-6.4-2.1-10.3-2.1s-6.9,0.9-10.3,2.1c-3,1.3-6,3.4-8.6,5.6c-2.6,2.6-4.3,5.2-5.6,8.6
		c-0.9,3.4-1.7,6.9-1.7,10.3C313.3,53.4,314.2,56.8,315.4,59.9z M313.7,17.8v-0.9V17.8z M315.9,23.4l-0.9-2.1l-1.7,1.7L315.9,23.4z
		 M314.6,12.7v2.6C314.6,15.3,314.6,12.7,314.6,12.7z M315.9,72.8l0.4-0.4l-0.4-0.4l-0.4,0.4L315.9,72.8z M315.4,17.4l0.4,2.1l0.9-3
		h-0.4L315.4,17.4z M315.9,20v-0.9V20z M316.7,74.9c0-0.4,0-0.4-0.4-0.4L316.7,74.9z M316.7,21.7l2.1-0.4l-2.6-0.4v0.9h0.5V21.7z
		 M316.7,23h0.9H316.7z M317.2,82.7c0-0.4-0.4-0.9-0.9-1.3v1.3H317.2z M317.2,25.1l3.4-0.4l-3.4-0.4l-0.4,0.4L317.2,25.1z
		 M317.6,20.9V20V20.9z M319.3,22.1l-0.9-0.9l-0.9,0.9H319.3z M318.4,76.6c-0.4-0.4-0.4-0.4-0.9-0.4v0.9L318.4,76.6z M318.9,79.2
		c0.4,0,0.4-0.4,0.4-0.4l-0.4-0.4l-0.9,0.9C318,79.6,318.4,79.6,318.9,79.2z M318.4,19.6v-1.3l-0.4,0.4L318.4,19.6z M319.3,25.1
		l0.4-0.4l-0.4-0.4l-0.4,0.4L319.3,25.1z M319.3,88.7l0.4-0.4l-0.4-0.4V88.7z M319.7,20.4c0.4,0,0.9-0.4,1.3-1.3
		c0-0.9,0.4-1.3,0.4-1.7h-2.1l0.9,1.3l-0.9,1.3C319.3,19.9,319.7,20.3,319.7,20.4L319.7,20.4z M320.6,13.1v-1.3V13.1z M322.7,80.1
		l-1.3-1.3l-1.3,2.6C321,80.8,321.9,80.4,322.7,80.1L322.7,80.1z M320.6,77.5l0.4-0.4l-0.4-0.4V77.5z M321.9,86.5l1.3-0.4h-2.6v0.4
		H321.9L321.9,86.5z M321.5,20.9V20l-0.4,0.4L321.5,20.9z M321.5,89.1v-0.9l-0.4,0.4L321.5,89.1z M323.2,83.8l-1.3-0.4v0.4H323.2z
		 M322.3,20.9V20V20.9z M324.9,14.8c0.4-0.4,0.9-0.9,0.9-1.7l-2.1,1.7l-1.3-0.9v0.4l0.9,0.9C323.6,15.6,324.5,15.2,324.9,14.8z
		 M324,19.6l-0.4-0.4l-0.4,0.9L324,19.6z M327.9,80.1l-4.7,0.9l0.4,0.4L327.9,80.1L327.9,80.1z M323.6,78.3l0.4-0.4l-0.4-0.9
		l-0.4,0.4L323.6,78.3z M324.5,89.1v-0.9V89.1z M327,84.3c-0.4,0-1.3,0.4-1.7,0.9s-0.9,0.9-0.9,1.7l0.4,0.9
		C324.8,87.9,327,84.4,327,84.3z M325.3,10.5c0.4,0,0.4-0.4,0.9-0.4L325.3,10.5z M326.2,90.7v-0.9V90.7z M327,86l0.9,0.9L327,86z
		 M327.5,91.1v-0.9V91.1z M328.3,18.2h-0.4H328.3z M328.3,84.3l-0.4-0.4v0.4H328.3z M328.3,15.2v-0.9V15.2z M329.2,89.4
		c0.4,0,0.9-0.4,0.9-0.4H328v0.4H329.2z M330,93.3l0.4-0.4L330,93.3z M330.5,11.3V10V11.3z M330.9,7h-0.4v0.4L330.9,7z M330.5,14.3
		h0.4H330.5z M331.8,92.4v-0.9V92.4z M332.2,83.8l-0.4-0.4v0.4H332.2z M336.9,84.7l-4.3-0.9l-0.4,0.4L336.9,84.7L336.9,84.7z
		 M333,88.1v1.3h0.4l0.4-1.7l-1.3-0.9C333,87.3,333,87.7,333,88.1z M333.5,82.1c0,0.4-0.4,0.4-0.4,0.9h1.3v-1.3
		C333.9,81.7,333.5,81.7,333.5,82.1z M333.9,10.5l0.9-0.4l-0.4-0.9l-0.4,1.7l0.9,1.7L333.9,10.5z M334.3,6.6V5.3
		C334.3,5.3,334.3,6.6,334.3,6.6z M334.3,8.7V7.8V8.7z M336,85.7h0.4H336z M336.9,12.2l-0.4-0.9v0.4l0.4,0.9V12.2z M337.8,82.2h-1.7
		l0.9,1.3L337.8,82.2L337.8,82.2z M337.8,9.6h-0.9l0.4,0.9L337.8,9.6z M337.3,6.6V5.4V6.6z M337.3,8.4V8V8.4z M338.2,84.8v-0.9h-0.9
		v0.9H338.2z M339,91.2l0.9,0.9l0.4,0.9c0,0.4,0.4,0.4,0.9,0.4h0.4l-0.9-1.3l0.4-0.9l-1.6-0.8l-2.1,0.9
		C338.2,91.2,338.6,91.2,339,91.2L339,91.2z M338.2,7.5V6.6V7.5z M341.6,86.5l1.3-2.6h0.9l-0.4-0.9l1.7-2.1c-0.9,0-1.3,0.4-2.1,0.9
		c-0.4,0.4-0.9,1.3-1.3,2.1c-0.4,0.9-0.9,1.7-1.3,2.1c-0.4,0.9-0.9,1.3-1.7,1.7l0.9,0.4C340.3,88.2,340.8,87.8,341.6,86.5z
		 M339,95.1v-0.9V95.1z M339.9,15.7v-0.9V15.7z M339.9,82.2v-0.9V82.2z M342.5,9.7l-1.7-1.3v0.4l0.9,1.3L342.5,9.7L342.5,9.7z
		 M342.5,90.4v-0.9h-0.4L342.5,90.4z M343.8,88.2c0,0.4,0.4,0.4,0.9,0.4h0.4l-1.7-1.3C343.3,87.4,343.3,87.8,343.8,88.2L343.8,88.2z
		 M344.2,93.8v-0.9V93.8z M344.6,92.5v-0.9V92.5z M345.5,91.7v-0.9V91.7z M346.8,8h-0.4v0.9C346.8,8.8,346.8,8.4,346.8,8z
		 M349.3,88.7l-1.7-1.3l-0.9,1.3l0.9-0.4l1.3,0.9L349.3,88.7L349.3,88.7z M349.8,91.2l-1.7,1.3L349.8,91.2z M349.3,83.4v-1.3h-0.4
		C348.9,83.1,349.3,83.4,349.3,83.4z M350.2,86l0.4,0.9L350.2,86z M350.6,90.3c0.4,0,1.3-0.4,1.3-0.9c0.4-0.4,0.4-0.9,0.4-1.7
		c0-0.4,0-0.9-0.4-1.3C351.1,87.7,350.6,89,350.6,90.3z M352.8,7.9h-0.9l0.9,0.9C352.8,8.8,352.8,7.9,352.8,7.9z M352.4,16v0.4V16z
		 M352.4,84.7v-0.9V84.7z M352.4,15.2v-0.9V15.2z M355.4,80.4c-0.4,0-0.4,0.4-0.9,0.4l-0.9,0.4c-0.4,0-0.4,0.4-0.4,0.9
		c1.7,0,3-0.4,3.9-0.9l-0.9-1.7C355.8,80,355.8,80.4,355.4,80.4L355.4,80.4z M354.1,16.9h-0.9v0.9C353.6,17.7,354.1,17.3,354.1,16.9
		z M353.6,89v-0.9V89z M354.5,83.8l0.9-0.4L354.5,83.8z M354.9,87.3l-0.4-0.9l-0.4,0.4L354.9,87.3z M354.9,91.1v-0.9V91.1z
		 M356.2,14.3l-0.4-0.4l-0.9,1.7C355.8,15.6,356.2,15.2,356.2,14.3z M355.8,10V9.1h-0.4L355.8,10z M356.2,17.3l-0.4-0.4L356.2,17.3z
		 M355.8,22.5v-0.9V22.5z M356.6,89.4c0.4,0,0.4,0,0.4-0.4h-1.2v0.4H356.6L356.6,89.4z M356.2,11.3h0.4H356.2z M358.8,20.8l1.3-1.3
		l-1.3-1.7l-0.9,0.4l0.4,0.9l-2.1,0.9l1.3,0.9C357.5,20.8,358.8,20.8,358.8,20.8L358.8,20.8z M357.1,78.7c0.4,0.4,0.9,0.4,1.7,0.4
		v-1.7l-2.6-0.4v0.4C356.2,77.8,356.6,78.7,357.1,78.7z M357.1,84.3c0,1.3-0.4,1.7-0.4,2.6c0.4-0.9,1.3-1.7,1.7-2.1
		c0.4-0.4,1.3-1.3,2.1-1.7c-0.9,0-1.7-0.4-2.1-0.4C357.9,82.6,357.5,83,357.1,84.3L357.1,84.3z M358.8,16.5l-1.3-1.8L358.8,16.5z
		 M357.9,80v-0.9V80z M358.8,86.8l1.3-1.3l-0.4-0.9C359.2,85.1,358.8,86,358.8,86.8z M360.5,81.3l-0.9-1.7h-0.9l0.9,2.1L360.5,81.3z
		 M361.8,15.6l-1.7-2.6l-0.4,0.4l1.3,3L361.8,15.6L361.8,15.6z M361.4,76.5l1.7,0.4l0.9-0.4v-0.4l-3.9-1.3l-0.4,0.4l0.9,1.7
		C360.6,76.9,361.4,76.5,361.4,76.5z M359.6,88.1l2.6-0.9l-1.3-0.8C360.5,86.8,359.6,87.3,359.6,88.1L359.6,88.1z M361.4,22.5v-0.9
		V22.5z M362.7,17.3l-1.3,0.9l2.1,1.3L362.7,17.3L362.7,17.3z M362.7,14.3v-0.9l-0.4,0.4L362.7,14.3z M362.7,83.4v-0.9l-0.4,0.4
		L362.7,83.4z M363.1,85.1c0-0.4,0-0.9-0.4-1.3v1.3H363.1z M366.1,80l-1.3-0.9c0-0.4,0-0.9,0.4-0.9s0.9-0.4,0.9-0.9
		c0.4-0.4,0.9-0.4,0.9-0.9c0.4-0.4,0.4-0.9,0.4-1.3l-1.7,0.4l-0.9-0.9l-2.6,3.9l2.6,2.1L366.1,80L366.1,80z M364.4,16h-0.9l0.9,0.4
		V16z M363.9,22v-0.4H363V22H363.9z M364.8,74.4l-0.9-0.4l-0.4,0.4H364.8z M364.4,87.7l0.4-0.4l-0.4-0.4V87.7z M365.2,25l-1.3-0.9
		V25H365.2z M366.5,72.7l0.4,0.4l1.3-0.9l-1.3-1.3l-2.6,1.7l0.9,0.4L366.5,72.7L366.5,72.7z M366.1,18.6h-1.3l0.4,0.9L366.1,18.6z
		 M365.2,23.3v-0.9V23.3z M366.1,74.8v-0.9l-0.4,0.5L366.1,74.8z M368.2,22.9c-0.4-0.9-1.3-1.7-2.1-1.7l1.3,2.1L368.2,22.9
		L368.2,22.9z M366.5,82.6l-0.4-1.3L366.5,82.6z M366.5,78.7c0,0,0.4-0.4,0.4-0.9C366.9,78.3,366.5,78.3,366.5,78.7z M369.5,62.8
		l-1.3,1.3C369.1,64.1,369.5,63.7,369.5,62.8z M371.7,68.8l0.4-0.9l-0.4-0.9v-0.4h1.7l-1.3-1.2c-0.9,0-1.7,0-3,0.4s-1.7,1.3-1.7,2.1
		l2.6,1.3C371.2,69.2,371.7,68.8,371.7,68.8L371.7,68.8z M369.1,75.3l0.4-1.3L369.1,75.3z M370.4,74c0,0.4,0.4,0.9,0.9,0.9l1.3,0.4
		l-0.9-2.1l0.9-0.9l-1.3-1.3c-0.4-0.4-0.9-0.9-1.7-0.9l1.7,1.3C370.8,72.3,370.4,73.2,370.4,74z M369.5,77v-0.9V77z M370.8,78.3
		c-0.4-0.4-0.9-0.4-1.3-0.9v0.9H370.8z M370.4,29.8l-0.4-0.4v0.4H370.4z M369.9,68h0.9H369.9z M370.8,80.8h-0.9v0.4L370.8,80.8z
		 M370.4,36.6v-0.9V36.6z M374.2,31.1l-1.3,1.3l-1.3,1.3c-0.4,0.4-0.4,0.9-0.4,1.3c0.4,0,0.9,0,1.3-0.4s0.4-0.9,0.9-1.3
		c0.4-0.4,0.4-0.9,0.4-1.3s0.4-0.4,0.9-0.4c0,0,0.4,0,0.9,0.4c0.4,0,0.9,0.4,0.9,0.4c0-0.9,0-1.3-0.4-1.7c-0.4-0.4-0.9-0.9-0.9-1.7
		l0.4-0.9c-0.4-1.3-1.3-1.7-2.1-1.7s-1.7,0.4-2.1,1.7c-0.4,1.3-0.9,2.1-0.9,3c0.4,0,1.3,0,1.3-0.4c0.4-0.4,0.4-0.9,0.4-1.3l0.4-1.3
		c0-0.4,0.4-0.9,0.9-0.9c0.4,0.4,0.9,0.9,0.9,1.3s0.4,0.9,0.4,1.7C375.1,30.2,374.7,30.6,374.2,31.1L374.2,31.1z M371.2,19.5
		c-0.4,0-0.4,0-0.4,0.4h1.3v-0.4H371.2z M371.2,32.3c0-0.4-0.4-0.4-0.4-0.9v0.9H371.2z M371.2,52.5v-1.3V52.5z M371.7,70.1v-0.9
		V70.1z M372.1,79.5c0.4,0,0.9,0.4,0.9,0.4c0-0.4,0-0.9-0.4-0.9h-1.3C371.7,79.1,371.7,79.1,372.1,79.5z M371.7,36.2h0.8v-0.4
		C372.1,35.8,371.7,35.8,371.7,36.2z M372.1,56.8v-0.9V56.8z M372.1,77.4v-0.9V77.4z M372.5,58.1c0,0.4,0,0.9,0.4,1.3
		c0.9,0,1.3-0.4,1.7-1.7c0.4-1.3,0.4-2.1,0.4-2.6l1.3,0.4l0.4-1.3l-1.2-0.8h-1.7l-0.4,0.9v3.4l-1.3-0.4
		C372.5,57.2,372.5,57.7,372.5,58.1L372.5,58.1z M373,24.2v-0.9V24.2z M373,68.8c0.4,0,0.4,0,0.9-0.4l0.4-0.9
		C373.4,68,373,68.4,373,68.8z M373.8,40.1v-0.5V40.1z M376,48.2l-1.7-1.7v2.1l0.9,1.3L376,48.2L376,48.2z M373.8,78.3l0.4-1.3v0.4
		C374.2,77.8,373.8,78.3,373.8,78.3z M374.7,42.2v-0.8V42.2z M374.7,52.5v-1.3V52.5z M375.1,34.1l-0.9-1.3v1.7L375.1,34.1z
		 M375.1,51.2v-0.8V51.2z M375.1,55.1v-0.9V55.1z M376,45.2l1.3,0.4l-0.4-0.9c0-0.9,0-1.3,0.4-2.1c0.4-0.9,0.4-1.7,0.4-2.6
		c0,0.9-0.4,1.3-0.9,2.1s-0.8,1.4-1.3,2.3C375.1,44.8,375.5,44.8,376,45.2z M377.7,62.4c-0.4-0.4-0.9-0.9-0.9-1.7l-0.4,1.3
		c-0.4,0.4-0.4,0.9-0.4,1.3l2.6,0.4C378.1,63.7,378.1,63.2,377.7,62.4L377.7,62.4z M376.4,36.6l-0.4,0.9L376.4,36.6z M378.1,49.1
		v0.8l0.4-0.4L378.1,49.1l0.9-0.9l-1.3-0.8l-1.3,1.3l0.9,0.4C377.3,49.1,378.1,49.1,378.1,49.1z M376.8,74l-0.4,0.4l0.4,0.9V74z
		 M376.8,33.6l0.4,0.4l0.4-0.4l-0.4-0.4L376.8,33.6l0.4-0.4l-0.4-0.4l-0.4,0.4L376.8,33.6z M376.4,38.8h0.4H376.4z M378.1,35.3
		l1.3-0.4l-0.9-0.4l-1.3,1.3C377.2,35.8,377.7,35.3,378.1,35.3z M377.7,57.7c0.4,0.4,0.4,0.4,0.9,0.4c0-0.4,0-0.9-0.4-0.9l-0.9-0.4
		L377.7,57.7z M377.7,28.9c0.4,0,0.4,0,0.4-0.4L377.7,28.9z M378.1,67.5v-0.9V67.5z M378.5,30.6l-0.4,0.4l0.4,0.9V30.6z M379,37.1
		v-0.4h-0.9C378.1,37.1,378.5,37.1,379,37.1z M378.1,45.6h0.4H378.1z M378.5,49.5h0.4H378.5z M379.4,52.9v-1.3h-0.9
		C378.5,52.5,379,52.9,379.4,52.9z M379,32.3v-0.4V32.3z M379.8,39.6C379.8,39.2,379.4,39.2,379.8,39.6h-0.9l0.9,0.4V39.6z
		 M379.4,47.4l-0.4-0.9L379.4,47.4z M379.4,58.5v0.4V58.5z M379.4,43.1v-0.9V43.1z M380.2,64.1v-0.9h-0.9v0.9H380.2z M379.8,55.9V55
		V55.9z M380.7,37.5h-0.9H380.7z M381.5,48.6l-1.3-0.9V49C380.2,49,381.5,48.6,381.5,48.6z M380.7,56.8l-0.4,0.9l0.9,1.7
		C381.2,59.4,380.7,56.8,380.7,56.8z M382,44.4l-1.3-1.3v0.4l0.8,1.7C381.5,45.2,382,44.4,382,44.4z M381.5,51.2l-0.8-0.8v1.7
		L381.5,51.2z M381.5,65.4v-0.9V65.4z M381.5,54.2v-0.8V54.2z M383.3,58.9V58V58.9z M455.4,75.4c2.1-0.4,3.9-1.3,5.2-2.6
		c1.7-0.9,3-2.1,3.9-3.9c0.9-1.7,1.7-3.4,1.7-5.6V3.2l2.6-2.1h17.6l2.1,2.1v62.3c0,4.7-1.3,9.4-3.4,13.3c-2.6,3.9-5.6,7.7-9.4,10.3
		c-3.9,3-8.2,5.2-12.4,6.9c-4.7,1.7-9,2.6-13.7,2.6s-9.4-0.9-14.2-2.6c-4.7-1.7-9-4.3-12.4-7.3c-3.9-3-6.9-6.9-9-11.2
		c-2.1-4.3-3.4-9-3.4-14.2V4.1c0-0.4,0.4-1.3,0.9-1.7s1.3-0.9,1.7-0.9h17.3l2.6,1.7v59.7c0,2.1,0.4,4.3,1.7,5.6
		c0.9,1.7,2.1,3,3.9,4.3c1.7,1.3,3.4,2.1,5.2,2.6c1.8,0.5,3.9,0.9,6,0.9C451.5,76.2,453.2,75.8,455.4,75.4L455.4,75.4z M415.4,58.6
		v-0.4V58.6z M415.9,32.4l0.4,0.4l0.4-0.4c0-0.4-0.4-0.4-0.9-0.9L415.9,32.4z M417.2,10.6V8.9l-0.9,0.9L417.2,10.6z M418.9,22.1
		l-1.7-0.9l-0.4,0.9H418.9z M417.2,51.8v1.3c0.4,0,0.9,0,0.9-0.4v-1.3C417.6,51.3,417.6,51.3,417.2,51.8z M417.6,41.9l0.4-0.4
		l-0.4-0.4C417.6,41.1,417.6,41.9,417.6,41.9z M419.7,54.3c-0.4,0-0.9-0.4-0.9-0.4h-1.3l1.7,0.9L419.7,54.3L419.7,54.3z M419.7,8.4
		l-0.8-0.9L418,8.4H419.7L419.7,8.4z M418,12.7l0.4,0.9v-1.3C418.4,12.3,418,12.7,418,12.7z M418.4,19.6v-0.9V19.6z M418.9,29.4
		l0.4-0.4l-0.4-0.4V29.4z M420.2,19.6h-1.3l0.9,0.9L420.2,19.6z M419.7,33.7v-0.9h-0.9v0.9H419.7z M419.7,57.8v-0.9l-0.4,0.4
		L419.7,57.8z M419.7,76.6v-0.9l-0.4,0.4L419.7,76.6z M419.3,22.1l0.4,0.4L419.3,22.1z M419.7,23.9l0.9-1.3L419.7,23.9z M419.7,39.7
		v-0.4V39.7z M420.2,10.9l0.4-0.4h-0.4l-0.9,0.9C419.7,11.3,420.2,10.9,420.2,10.9z M420.2,64.5h0.4H420.2z M423.2,72.3l-3-0.9v0.9
		H423.2z M421.9,29.3v-0.9c0-0.4-0.4-0.4-0.4-0.4l-0.9,1.3H421.9z M421.5,54.7v-0.9V54.7z M421.9,12.6l0.4-0.4l-0.4-0.4
		C421.9,11.8,421.9,12.6,421.9,12.6z M421.9,48.2l0.4-0.4l-0.4-0.4C421.9,47.4,421.9,48.2,421.9,48.2z M421.5,50.8l1.7,0.4l-0.4-0.4
		l0.4-0.4L421.5,50.8z M422.7,22.5h-0.9l0.9,0.4V22.5z M423.2,55.5v-1.3l-0.9,1.3H423.2z M422.7,37.6v0.9c0.4,0,0.4,0,0.4-0.4
		s0-0.4,0.4-0.9C423.2,37.2,422.7,37.2,422.7,37.6z M422.7,67.2v-0.9V67.2z M423.2,46.6l0.4-0.4l-0.4-0.4
		C423.2,45.8,423.2,46.6,423.2,46.6z M423.2,14.8l0.4-0.9l-0.4-0.4C423.2,13.5,423.2,14.8,423.2,14.8z M423.6,7.5l-0.9-0.4v0.4
		H423.6z M423.6,26v-0.9l-0.4,0.4L423.6,26z M425.7,10.6l-0.4-0.4l-1.3,1.3L425.7,10.6L425.7,10.6z M424.5,19.1v-0.4V19.1z
		 M425.7,23.4H424l1.7,0.9V23.4z M427,48.7l-1.3-0.4l-1.7,0.9C425.3,49.6,426.2,49.2,427,48.7z M424.5,72.4v-0.9V72.4z M426.2,7.1
		c0-0.4,0-0.9-0.4-0.9l-1.3-0.4V7C424.5,7,426.2,7,426.2,7.1L426.2,7.1z M425.7,75.8l-1.2-0.4v0.4l0.9,0.9L425.7,75.8L425.7,75.8z
		 M425.3,27.2l0.4-0.4l-0.4-0.4l-0.4,0.4L425.3,27.2z M425.3,83.8l0.4-0.4l-0.4-0.4l-0.4,0.4L425.3,83.8z M425.3,45.2v-0.4V45.2z
		 M425.7,13.5c0-0.4-0.4-0.4-0.9-0.4v0.4H425.7z M425.7,51.8l0.4-0.4l-0.4-0.4C425.7,51,425.7,51.8,425.7,51.8z M425.7,62.4l0.4-0.4
		l-0.4-0.4C425.7,61.6,425.7,62.4,425.7,62.4z M425.7,69.2v-0.8v0.4V69.2z M426.6,15.2l-0.9-0.4v0.4H426.6z M426.6,67.2v-0.9
		l-0.4,0.4L426.6,67.2z M427,44v-0.8V44z M427,78.3V77h-0.4L427,78.3z M427.9,71.8v-0.9l-0.4,0.5L427.9,71.8z M428.7,75.3
		c0,0.4-0.4,0.4-0.4,0.9l0.4,0.4l0.4-1.7C428.7,74.9,428.7,74.9,428.7,75.3z M429.6,78.3V77l-0.4,0.4
		C429.2,77.5,429.6,78.4,429.6,78.3z M431.3,83.5l0.4-0.4l-0.4-0.4V83.5z M432.2,85.7h-0.9v0.4L432.2,85.7z M433,81.4
		c-0.4,0-0.4,0.4-0.4,0.9c0.4,0,0.4,0,0.9-0.4c0.4,0,0.4-0.4,0.4-0.9C433.5,81.4,433.5,81.4,433,81.4z M433,88.2v-0.9V88.2z
		 M433.9,84.8l-0.4-1.3v0.9L433.9,84.8z M433.9,78.4l0.9-0.4L433.9,78.4z M435.2,85.7v-0.9h-0.4v-0.9h-0.4l-0.4,0.4
		C434.3,84.8,434.8,85.2,435.2,85.7L435.2,85.7z M434.8,89.5l0.4,0.4l0.4-0.4c0-0.4-0.4-0.4-0.9-0.9L434.8,89.5z M436.5,80.1v-0.9
		V80.1z M439.5,87.8h-0.9H439.5z M441.2,86.1v-0.9V86.1z M442.1,86.5v-0.9V86.5z M442.9,90.4v-0.9h-0.4
		C442.5,89.5,442.5,89.9,442.9,90.4z M443.3,82.7l0.9-0.4L443.3,82.7z M444.2,88.7v-0.9V88.7z M446.8,90.4l-1.3-1.3v2.1
		C445.5,91.2,446.8,90.4,446.8,90.4z M446.8,93.4v-0.9V93.4z M446.8,82.2l0.9-1.3h-0.4L446.8,82.2z M451.1,85.7
		c0.4-0.4,0.9-1.3,0.9-1.7v-0.5c-0.4,0-0.9,0.4-1.7,0.9c-0.9,0.4-0.9,0.9-0.9,1.3l1.3,1.7C450.2,86.9,450.2,86.1,451.1,85.7
		L451.1,85.7z M449.8,90.4h0.9V90C450.2,89.5,450.2,89.9,449.8,90.4z M451.5,88.2c0.9,0,1.3-0.4,1.7-1.7h-0.4L451.5,88.2L451.5,88.2
		z M454.5,89.5v-0.9V89.5z M455.4,85.7c0-0.4,0-0.9-0.4-0.9L455.4,85.7z M457.5,83.9l-0.9-0.9l-0.4,0.4v0.9h1.3V83.9z M456.6,81.4
		l1.3-0.4l-0.4-0.9C457.5,80.5,457.1,80.8,456.6,81.4z M457.5,89.1v-0.9V89.1z M457.5,86.5h0.9H457.5z M458.8,89.9h0.9
		c0-0.4,0-0.9-0.4-0.9H458C457.9,89.5,458.4,89.9,458.8,89.9z M458.4,85.2l0.4-0.4l-0.4-0.4l-0.4,0.4L458.4,85.2z M460.9,84.8v-0.9
		h-0.4L460.9,84.8z M463.1,84.8v-0.9c0,0,0-0.4-0.4-0.9c0-0.4-0.4-0.9-0.4-0.9l-1.3,2.1l1.3-0.4l-0.4,1.3h1.3v-0.3
		C463.2,84.8,463.1,84.8,463.1,84.8z M463.9,89.1H463H463.9z M465.2,85.7l0.4-0.4l-0.4-0.4V85.7z M466.5,80.9l-0.4-0.9v1.4
		L466.5,80.9z M467.4,77.1c0-0.4-0.4-0.4-0.9-0.9v0.9H467.4z M467.4,84.8v-0.9l-0.9,0.9H467.4z M468.2,80.1l0.4-0.4l-0.4-0.4V80.1z
		 M469.1,85.7v0.4V85.7z M469.5,83.5l0.4-0.4v-0.4C469.5,82.2,469.5,82.7,469.5,83.5z M470.4,84.8v-0.9V84.8z M471.7,10.6l-1.3-0.4
		v0.9L471.7,10.6z M471.7,20.4l0.4-0.9L471.7,20.4z M471.7,86.1v-0.9V86.1z M473,37.2l-0.9,0.4l0.9,0.9C473,38.5,473,37.2,473,37.2z
		 M472.1,50.8c0.4,0,0.9-0.4,0.9-0.9C472.5,49.5,472.1,50,472.1,50.8z M473,7.4l2.1-0.4L473,6.6L472.1,7L473,7.4z M473.4,21.2v-0.9
		l-0.9,0.9H473.4z M473.4,45.2l-0.4-0.8L473.4,45.2z M473.8,27.2c-0.4,0.4-0.9,0.9-0.9,1.3c0.9,0,1.3-0.4,1.3-0.9s0.4-1.3,0.4-1.7
		C474.6,25.9,473.8,27.2,473.8,27.2z M473.4,8.3l0.4-0.4l-0.4-0.4V8.3z M473.4,10.5l1.3-0.4l-1.3-0.4
		C473.4,9.7,473.4,10.5,473.4,10.5z M473.4,40.9v-0.8V40.9z M474.2,61.5l-0.9-0.4l-0.4,0.4l0.4,0.4L474.2,61.5z M475.1,16.5l1.3-0.4
		h-2.1l-0.9,0.9C473.8,16.5,474.2,16.5,475.1,16.5z M473.4,17.8h0.9H473.4z M473.4,48.7h1.3v-0.4C474.2,48.2,473.8,48.7,473.4,48.7z
		 M474.2,80.1l-0.9-0.4v0.4H474.2z M474.2,24.6l0.4,2.1l-0.4-3.4l-0.4,0.4L474.2,24.6z M475.5,33.2c0.4-0.4,0.4-0.4,0.4-1.3
		l-1.7,1.3l0.4,0.9C475.1,34.2,475.1,33.7,475.5,33.2L475.5,33.2z M475.1,70.2h-0.9H475.1z M474.7,11.8v-0.9V11.8z M474.7,19.9v0.4
		l0.4-0.4H474.7V19l-0.4,0.4C474.7,19.5,474.7,19.9,474.7,19.9z M474.7,77.8v-2.1l-0.4,0.4C474.3,76.2,474.7,77.9,474.7,77.8z
		 M476,62.4h-1.3l1.3,0.9V62.4z M476.4,43.9l-0.4-0.4l-1.3,0.9L476.4,43.9L476.4,43.9z M476,80.8v-1.3h-1.3v1.3H476z M475.5,53.8V53
		l-0.4,0.4C475.1,53.4,475.5,53.8,475.5,53.8z M475.5,7.9h0.9H475.5z M476,42.7l-0.5-0.4L476,42.7z M476.4,17.4l0.4-0.4l-0.4-0.4
		V17.4z M477.7,25.5l-1.3-0.4l-0.4,0.4H477.7L477.7,25.5z M476.4,29v-0.9V29z M477.2,14.4h-0.9H477.2z M476.4,38.8h0.9H476.4z
		 M476.8,65.4h0.9H476.8c0-0.4-0.4-0.9-0.4-0.9v0.4C476.4,65.4,476.4,65.4,476.8,65.4z M476.8,8.8V7.9l-0.4,0.4L476.8,8.8z
		 M476.8,35.8h0.4H476.8z M477.2,19.1v-0.9V19.1z M477.2,50.8V50V50.8z M477.2,76.6v-0.9V76.6z M478.1,7.1L477.2,8
		C478.1,8,478.1,7.5,478.1,7.1z M478.1,17l-0.9,0.9C478.1,17.4,478.1,17.4,478.1,17z M478.5,46.2l-1.3-0.4v0.4H478.5z M478.1,37.6
		v-0.4l-0.4,0.4H478.1z M478.1,48.2v-0.8l-0.4,0.4C477.7,47.8,478.1,48.2,478.1,48.2z M478.1,75.3l0.4-0.4l-0.4-0.4l-0.4,0.4
		L478.1,75.3z M478.1,69.2v-0.4V69.2z M478.5,29l1.3-0.4l-1.3-0.4l-0.4,0.4L478.5,29z M480.2,8.8l-1.3-0.9v1.3L480.2,8.8z
		 M481.1,26.4H479l1.3,1.3L481.1,26.4L481.1,26.4z M479,7.5V6.6V7.5z M479,15.6v-0.9V15.6z M480.2,13.5v-0.4V13.5z M479.8,67.1h0.4
		H479.8z M480.2,72.3l0.4-0.4l-0.4-0.4l-0.4,0.4L480.2,72.3z M481.5,10.5l-0.9-0.4l-0.4,0.4H481.5z M480.7,51.8l0.9,0.4l1.3-0.4
		C482,51.2,481.1,51.2,480.7,51.8L480.7,51.8z M480.7,72.3h0.4H480.7z M481.1,17.7v-0.9l-0.4,0.4L481.1,17.7z M481.1,7.9l0.9-1.3
		V6.2l-0.9,0.9V7.9z M482,30.2v-0.9V30.2z M482,34.1v-0.9V34.1z M482,22l1.3,0.4L482,22z M482,26.3h0.9h-0.4H482z M482.8,48.6
		c0-0.9-0.4-1.3-1.3-1.3C482,48.2,482.4,48.6,482.8,48.6z M482,53.4h0.4H482z M506.9,19.6V3.7l2.1-2.1h61.8c0.4,0,1.3,0.4,1.7,0.9
		c0.4,0.4,0.9,1.3,0.9,1.7v15l-1.7,3H552l-0.9,0.4v73l-2.1,1.7h-17.2l-3-2.6V22.2h-20.2L506.9,19.6L506.9,19.6z M514.2,10.6h0.4
		H514.2z M515,14.4l-0.4-0.9L515,14.4z M517.2,14.8v0.9V14.8z M518,8.4v0.4V8.4z M517.6,17l0.4-2.1L517.6,17z M519.3,6.7l-0.4,0.4
		l0.9,0.4L519.3,6.7z M523.6,9.7v0.4V9.7z M527.5,5.8V5.4h-0.4L527.5,5.8z M527.5,13.6l-0.4-0.4L527.5,13.6z M527.5,10.1
		C527.9,9.7,527.5,9.7,527.5,10.1z M530.9,18.3h0.9v-0.9C531.3,17.4,530.9,17.4,530.9,18.3z M533.9,14.8h0.9H533.9z M534.3,89.1
		v-0.9V89.1z M534.3,16.6v-0.9V16.6z M535.2,8.8l-0.9-0.4v0.4H535.2z M535.2,43.2v-1.3l-0.4,0.4C534.8,42.3,535.2,43.2,535.2,43.2z
		 M537.8,68.1l-2.6-0.9l-0.4,0.4L537.8,68.1z M536.5,23.4l-0.9,0.4l0.9,0.4V23.4z M535.6,58.2l1.3-0.4l-0.4-0.4L535.6,58.2
		L535.6,58.2z M535.6,75.4h0.9H535.6z M538.2,65.9l-1.7-0.4h-0.4l0.9,0.9L538.2,65.9z M536.5,41.5h0.4H536.5z M536.9,21.7v-0.4V21.7
		z M537.3,38.9l0.4-0.4l-0.4-0.4l-0.4,0.4L537.3,38.9z M537.3,71.9l0.4-0.4l-0.4-0.4V71.9z M537.3,86.9l0.4-0.4l-0.4-0.4V86.9z
		 M537.8,53.9l-0.9-0.4v0.4H537.8z M537.8,84.8c0-0.4-0.4-0.9-0.9-0.9v0.9H537.8z M539,88.2l0.9-1.7l-2.1,0.4l-0.4,0.4l0.9,1.7
		L539,88.2L539,88.2z M538.2,43.2l-0.4,0.4L538.2,43.2z M538.2,14.4v-0.9V14.4z M538.2,86.1v-0.9V86.1z M538.2,48.7h0.9H538.2z
		 M540.3,91.7l1.3-0.9l0.4,0.4l1.3-0.9h-0.8l-0.9-0.9c0-0.9,0-1.3,0.4-1.7l1.3-1.3l-0.9-0.9l-0.4,0.4l0.5,0.6
		c-0.9,0.4-1.3,1.3-1.3,1.7c0,0.9-0.4,1.7-0.4,2.1l-1.7-0.4l-0.9,0.9C539,90.8,539.9,90.8,540.3,91.7L540.3,91.7z M538.6,27.7
		l2.6-0.4l-2.6-0.4V27.7z M538.6,73.2l0.4,0.4c0,0-0.4,0,0,0.4c0,0.4,0,0.4,0.4,0.4l0.4-0.4l-0.4-0.4l0.4-0.4l-0.4-0.4h-0.8
		l-0.4,0.4H538.6L538.6,73.2z M540.8,19.6l1.3,0.4c0-0.9-0.4-1.3-1.3-1.7h-2.6l1.3,0.9C539.5,19.2,540.8,19.6,540.8,19.6z
		 M538.6,87.4h0.4H538.6z M539,69.3h0.4H539z M538.6,73.2C539,73.2,539,72.8,538.6,73.2z M539,77.1v-0.9V77.1z M539,7.1h0.4H539z
		 M540.8,16.1c-0.9,0-1.3,0.4-1.7,0.4l3-0.4H540.8z M539.5,43.2v-1.3V43.2z M539.9,88.2v-0.9V88.2z M540.8,61.2v-0.4h-0.9v0.4H540.8
		z M540.3,84.8v-0.9V84.8z M540.3,89.5l2.1-0.4l-2.1-0.4V89.5z M540.3,77.1h0.4H540.3z M542.1,50l-0.4-1.3l-0.4,0.4l0.4,1.7
		C541.7,50.8,542.1,50,542.1,50z M541.2,58.6v-0.9V58.6z M541.2,81.8l0.4-0.4L541.2,81.8z M541.2,88.2h1.3l0.4-0.4L541.2,88.2z
		 M541.6,10.1l1.7,0.4l-0.4-0.4l0.4-0.4L541.6,10.1z M542.1,44l0.9-0.4l-0.9-0.4C542.1,43.2,542.1,44,542.1,44z M542.1,84.8v-0.9
		V84.8z M542.1,92.5v-0.9V92.5z M542.5,68.9V68V68.9z M542.5,79.6l-0.4,0.9C542.1,80.1,542.5,80.1,542.5,79.6z M542.5,81.4v-0.9
		V81.4z M542.9,92.5l0.4,0.4l0.4-0.4l-0.4-0.4l-0.4-0.4V92.5z M543.3,81.8v-0.9V81.8z M543.8,83.9l0.4-0.4l-0.4-0.4l-0.4,0.4
		L543.8,83.9z M545.1,89.9v-1.7h-1.7C543.3,89.1,543.8,89.9,545.1,89.9z M544.2,24.7v-0.9h-0.4L544.2,24.7z M543.8,39.7l2.1,0.9
		h-0.4v-0.9H543.8L543.8,39.7z M544.2,63.3v-0.8V63.3z M544.2,76.6l0.4-0.4l-0.4-0.4l-0.4,0.4L544.2,76.6z M544.2,85.7v-0.9V85.7z
		 M544.6,8.8l0.4-0.4L544.6,8.8z M545.1,17.4c-0.4,0.4-0.4,0.9-0.4,1.3c0.4,0,0.9-0.4,0.9-0.9s0.4-0.9,0.4-1.3L545.1,17.4z
		 M545.1,29.4V29V29.4z M545.1,32.9V32V32.9z M545.1,74.1v-0.9V74.1z M547.2,9.7l-0.4,0.4v0.4C546.8,10.5,547.2,9.7,547.2,9.7z
		 M547.6,6.7V5.8V6.7z M547.6,14.4v-0.9V14.4z M551.5,13.6l-0.4-0.4l-0.9,0.4l0.4,0.9L551.5,13.6z M550.6,11c0.4,0,0.4,0.4,0.9,0.4
		v-0.9h-1.3C550.2,10.6,550.2,11,550.6,11L550.6,11z M554.1,12.7v-0.9V12.7z M559.6,13.6v-0.9l-0.9,0.9H559.6z M562.7,14.4
		c0-0.4,0-0.9-0.4-0.9v0.9H562.7z M563.1,13.6v-0.4V13.6z M585.3,63.2h7.7v-9.4h60.9l13.3-4.3c0.9-0.4,0.9-0.9,0-1.3L653.9,44H593
		v-9.4h-7.7C585.3,34.6,585.3,63.2,585.3,63.2z M27.9,43.2l12,11.6h14.2l-12-11.6C42.1,43.2,27.9,43.2,27.9,43.2z M65.7,43.2
		l11.2,11.2v12c5.2,0,9-6.9,9.4-15.9H82v-3h4.3c-0.4-9-4.3-15.9-9.4-15.9v11.6H65.7z M46.8,43.2l11.6,11.6h14.1L60.9,43.2
		C60.9,43.2,46.8,43.2,46.8,43.2z M20.6,43.2L4.3,48.4c-1.3,0.4-1.3,0.9,0,1.3l16.3,5.2h13.7l-12-11.6
		C22.3,43.3,20.6,43.2,20.6,43.2z"/>
</g>
</svg>
