<?xml version="1.0" encoding="utf-8"?>
<!-- Generator: Adobe Illustrator 18.1.0, SVG Export Plug-In . SVG Version: 6.00 Build 0)  -->
<svg version="1.2" baseProfile="tiny" id="Layer_1" xmlns="http://www.w3.org/2000/svg" xmlns:xlink="http://www.w3.org/1999/xlink"
	 x="0px" y="0px" width="280px" height="100.6px" viewBox="-340.1 1238.3 280 100.6" xml:space="preserve">
<g>
	<g>
		<path fill="#FFFFFF" d="M-303.3,1270c-2.8-0.4-20.8-1.9-30.4,10.8c-4.6,5.8-1.4,12.8,9,12.8c-9.6,3.6-17.1,10.1-15,17.8
			c2.7,10.6,14.6,10.2,24,9.2c16.6-1.7,28-17.4,30.6-19.3c4,1.9,5.9,5.5,4.3,7.9c-4.4,0.1-16,1.1-15.6,7.2c0.5,6.1,18.9,5.4,29-1.4
			c1.5,0.5,4.4,1.9,5.9,3.2c1.5,1.1,3.2,0.1,3.3-4.7c-1.5-1.5-5.5-2.9-7.7-2.9c0.7-3.3,1.8-7.2-7.3-13.9c-1.5-0.8-1.4-1.8-0.1-2.6
			c1.1-0.8-0.1-2.8-3.3-3.7c-3.2-1-9.8-0.5-12,1.9c-1,1-1,4.4,0.7,5.5c-1.6,2.8-9.8,14.8-21.9,15.7c-4.4,0.5-9.4-0.1-9-6.6
			c0.3-5.4,8.5-10.2,11.5-11.5c1.8-0.8,1.5-3.4-0.8-4.1c-2.3-0.7-7.7-1-8-5.2c-0.3-4.3,5.1-7.3,13.8-9
			C-300,1276.5-300,1270.8-303.3,1270L-303.3,1270z"/>
		<path fill="#FFFFFF" d="M-281.5,1313.9c-2.8-0.5-9.9-0.5-9.9,1.8C-291.5,1318.1-283.6,1317.6-281.5,1313.9z"/>
		<path fill="#FFFFFF" d="M-233.4,1298.3c-2.6-0.3-11-1.4-12.1,6.7c-1.1,8,5.4,8.7,8,8.4c2.6-0.3,8-3.2,8-12.8
			c-0.1-5,1.8-6.7,6.1-6.9c4.3-0.1,6.2,0.8,6.2,5.2s0.1,37.7,0.1,39.2c-3.2,0-11.3,0.3-14.6,0.8c0.3-7.9,1.4-23.7,1.4-26.2
			c-2.1,3.2-6.2,7.7-13.9,7.6c-7.7-0.1-14.8-3.7-14.2-13.9c0.5-10.2,10.8-17.2,26.7-14.9C-229,1292-228.7,1298.9-233.4,1298.3z"/>
		<path fill="#FFFFFF" d="M-62.9,1313.8c-3.7-0.1-6.4,0.5-9.4,1c-2.9,0.5-7.6,1-11,0.1c-3.4-0.8-4.4-4.3-3.4-6.4
			c1-2.1,4.3-3.3,6.2-4c1.9-0.7,1.9-3.3-0.1-3.7c-2.1-0.5-5.1-1.4-5.1-3.2c0-1.8,2.6-4.3,10.8-3.6c3.2,0.3,2.3-5.1-1.1-5.9
			c-3.2-0.1-13.9,0.8-21.4,4.6c-3.7,1.9-4.4,7.3,5.5,9.2c-6.2,0.5-10.5,5.9-10.3,8.4c0,0.7-0.1,1.9,0.3,3.3c-1.6,1-3.6,1.4-5.9,1.2
			c-3.3-0.1-8.2-4.1-7.1-10.8c0.9-6,2.6-5.2,3.4-5.5c1.8,0,3.6-1,3.6-3.3c0-2.3,0.6-2.8-1.2-2.8s-13,1.7-21.4-0.2
			c-0.1-2.5-4.3-5.9-8.5-3.6c-4.3,2.3-3.2,7.6,1.8,8.8l1.1,0.3c-1.5,6.2-5,16.5-10.5,17.5c-3.2,0.7-5.1-1.5-4.7-6.6
			c0.3-5.1,1.4-14.6,1.4-14.6c0.3-4.1-14.6-4-14.5,1.1v16.2c0,0.3,0.1,0.9,0.2,1.4c-3.7,2.9-12.1,3.6-11.5-3.1l1.9-14.6
			c0.5-4.3-13.1-5.8-13.4,0.1l-0.1,11.8c0,0.7-0.1,1.5,0,2.4c-1.1,2-3.2,4-5.8,4.1c-3.7,0.1-5.9-0.3-5.5-5.1
			c0.3-4.7,1.5-13.8,1.5-13.8c0.3-4.3-13.2-4.3-13.6-0.5c-0.1,3.2-1,14.6-1.1,18.2c-0.1,3.6,5.4,8,13.2,7.7
			c6.9-0.3,9.4-2.3,12.2-6.1c1.4,3.4,4.5,6.3,11.3,6.1c2.6-0.1,6.4,0.7,12.5-4.1c1.6,2.1,4.4,4.2,8.5,4.4c7.3,0.3,13-0.3,16.8-8
			c3.4-6.7,4.5-9.4,5.3-13.7c3.4,0.7,6.8,1,10.2,1c-4,2.8-5.5,5.1-5.2,9.8c0.1,2.9,2.1,10.5,14.8,10.6c7.1,0.1,10.4-1.5,12.7-3.2
			c3.1,2.1,9.3,3.7,22.4,2.7c4.3-0.7,10.6-0.5,14.8-0.3C-59.3,1319.4-59.1,1313.9-62.9,1313.8z"/>
	</g>
	<g>
		<path fill="#FFFFFF" d="M-178.8,1256.1v-17.6h3.6c0.7,0,5.9-0.5,5.9,5.2c0,3.3-2.1,5.2-5.3,5.2h-0.8v7.2H-178.8z M-175.3,1246
			c1.7,0.1,2.6-0.6,2.6-2.3c0-1.3-0.5-2.3-2-2.3h-0.7L-175.3,1246L-175.3,1246z"/>
		<path fill="#FFFFFF" d="M-155.8,1247.3c0,6.6-3.1,9-6.2,9s-6.2-2.5-6.2-9s3.1-9,6.2-9S-155.8,1240.7-155.8,1247.3z M-161.9,1253.1
			c2.3,0,2.5-4.4,2.5-5.8c0-1.6-0.2-5.8-2.5-5.8s-2.5,4.3-2.5,5.8C-164.4,1248.7-164.2,1253.1-161.9,1253.1z"/>
		<path fill="#FFFFFF" d="M-151.5,1238.5l1.5,8.4c0.2,1.2,0.3,2.5,0.4,3.7l0,0c0.2-1.2,0.3-2.5,0.5-3.7l1.7-8.4h2.7l2.2,12.1l0,0
			c0.1-1.2,0.1-2.4,0.3-3.7l1.4-8.4h3.6l-3.6,17.5h-3l-1.8-9.2c-0.1-1.1-0.3-2.1-0.5-3.2l0,0c-0.2,1.1-0.3,2.1-0.6,3.2l-2,9.2h-3
			l-3.5-17.5C-155.2,1238.5-151.5,1238.5-151.5,1238.5z"/>
		<path fill="#FFFFFF" d="M-128.6,1238.5v3.3h-3.5v3.8h3.1v3.3h-3.1v4h3.6v3.3h-7v-17.7H-128.6z"/>
		<path fill="#FFFFFF" d="M-126.4,1256.1v-17.6h3.5c2.2,0,6.2,0.2,6.2,5c0,1.9-0.8,3.6-2.5,4.5l3,8h-3.6l-3-8.1l0,0v8.1h-3.6
			L-126.4,1256.1L-126.4,1256.1z M-123,1246.1h0.6c1.6,0,2.2-1.1,2.2-2.5c0-1.3-0.6-2.3-2.3-2.2h-0.5V1246.1z"/>
		<path fill="#FFFFFF" d="M-107.1,1238.5v3.3h-3.5v3.8h3.1v3.3h-3.1v4h3.6v3.3h-7v-17.7H-107.1z"/>
		<path fill="#FFFFFF" d="M-105,1256.1v-17.6h2.6c0.6,0,7.9-0.9,7.9,8.9c0,5-1.9,8.6-7.4,8.6h-3.1V1256.1z M-98,1247.4
			c0-2.2-0.7-5.8-3.6-5.8v11.3C-98.7,1253.1-98,1249.6-98,1247.4z"/>
		<path fill="#FFFFFF" d="M-87,1256.1v-17.6h3.4c1.3,0,2.5,0,3.6,1c1.2,0.9,1.8,2.5,1.8,4c0,1.6-0.6,2.7-1.9,3.6
			c1.4,0.7,2.2,2.6,2.2,4.1c0,3.5-2.6,4.9-5.7,4.9C-83.6,1256.1-87,1256.1-87,1256.1z M-83.5,1241.4v4.3c1.3,0,2.1-0.9,2.1-2.2
			C-81.5,1242.2-82.2,1241.4-83.5,1241.4z M-83.5,1248.4v4.7c1.4,0.1,2.2-1,2.2-2.4C-81.3,1249.4-82.2,1248.4-83.5,1248.4z"/>
		<path fill="#FFFFFF" d="M-73.2,1238.5l1.8,4.8l0.3,0.9l0,0l0.4-1.3l1.6-4.3h3.9l-4.1,9.1v8.4h-3.5v-8.4l-4.2-9.1h3.8V1238.5
			L-73.2,1238.5z"/>
	</g>
</g>
</svg>
