<?xml version="1.0" encoding="utf-8"?>
<!-- Generator: Adobe Illustrator 18.1.0, SVG Export Plug-In . SVG Version: 6.00 Build 0)  -->
<!DOCTYPE svg PUBLIC "-//W3C//DTD SVG 1.1//EN" "http://www.w3.org/Graphics/SVG/1.1/DTD/svg11.dtd">
<svg version="1.1" id="Layer_1" xmlns="http://www.w3.org/2000/svg" xmlns:xlink="http://www.w3.org/1999/xlink" x="0px" y="0px"
	 width="280px" height="107.4px" viewBox="-345.1 1223.4 280 107.4" enable-background="new -345.1 1223.4 280 107.4"
	 xml:space="preserve">
<g>
	<path fill="#FFFFFF" d="M-74,1285.7l0.2,0.3c2.9,5.7-12.5,41.5-60.7,31.6c-6.6-1.4-13.1-2.5-19.5-3.4c19.1,3.2,56.2,18.3,77.1-8.3
		C-76.9,1306-67.8,1293.8-74,1285.7"/>
	<g>
		<path fill="#FFFFFF" d="M-73.4,1281.3c-0.4-0.1-5.9-2.1-13.3,7.7c-1.6,2.2-3.6,4-5.5,5.5c-3.5,2.2-6.9,3.2-9,3.4
			c-4.5,0.2-4.8-2.5-5.7-3c7.7-2.1,16.3-9.6,16-14.8c-0.2-3.2-2.8-6.5-8.1-6.2c-10.6,0.6-17.3,11.3-16.8,20.4c0,0.6,0.1,1.3,0.3,1.9
			c-2.3,2.2-4.8,2.3-5.7,2.3s-2.6,0.1-2.9-4.3c-0.1-1.7,0-3.9,0.2-6.5c2.6-2.5,8.4-8.8,11.8-17.4c0.5-1.4,3-7,2.7-10.9
			c-0.2-4.1-2.4-6.5-6.7-6.2c-5.9,0.3-11.8,9.9-14.6,24.3c-0.9,4.7-1.4,8.5-1.7,11.8c-1.1,2.2-2.4,4.8-4.3,5.7
			c0.8-1.9,1.3-5.5,1.2-8.1c-0.4-7.6-3.7-11-9.8-10.6c-1.8,0.1-3.7,0.6-5.3,1.5v-0.2c5.3-4.9,9.2-10.4,10.8-14.5
			c0.2-0.5,1.9-3.9,0.4-7.1c-0.3-0.6-1-1.2-1.9-1.4c-0.6-0.2-1.6-0.3-2.8-0.2c-8.2,1-12.9,19.7-14.5,36l-2.9,12
			c-1.4,0.9-2.8,0.9-3.6-1.3c0-0.1-0.1-0.2-0.1-0.5c0-0.4-0.1-0.9,0-1.4c0.1-0.6,0.2-1.3,0.2-1.9c0.9-6.1,2.2-11.3,3.8-18.2l0.1-0.2
			c0.3-0.9-0.4-0.8-0.4-0.8l-7.6,0.4c0,0-0.8,0.1-0.8,0.6c0,0.8,0.1,1.6,0.1,1.6c-1.3-1.6-3.4-2.6-6.2-2.1
			c-5.2,1.1-9.6,5.1-12.2,10.9c-0.3,0.8-1.1,2.8-1.3,3.5c-1,4-3.5,16.3,6.5,16.1c4.1-0.1,7.5-2.4,9.7-6.2c0.8,3.2,3.6,5.3,6.7,5
			c1.7-0.1,3.5-0.6,5.1-1.9c0.2,0.2,0.3,0.4,0.4,0.5c0.4,0.4,1.3,1,2.6,0.9c0.4,0,1-0.1,1.5-0.2l0.3-0.1c0.2-0.1,0.5-0.3,0.8-0.5
			c1.3,0.5,3,0.8,5.1,0.6c3.9-0.2,7.9-2.8,11-7.2c2.5-0.8,4.9-2.9,6.9-4.5c0.5,6.5,3.6,10.7,8.9,10.4c3.6-0.2,6.4-2.6,9.4-6.7
			c1.9,3.7,5.9,5.8,10.7,5.5c0.5,0,1.1-0.1,1.6-0.2c0.2,0,0.4-0.1,0.5-0.1c0.3,0,0.5-0.1,0.9-0.2c8.6-1.9,13.5-9.8,17.9-15.5
			c0,0,4.7-5.9,7.8-3.8c0.3,0.2,0.6,0.6,1,1.1l0.2,0.3c2.9,5.7-12.5,41.5-60.7,31.6c-8.6-1.7-17.1-3.2-25.4-4.3
			c-43.5-5.9-80.4,0.7-105.1,9.8c-0.3,2.3-2.1,3.4-3,4.4c24.6-8,68.9-19.9,121.6-4.9l4.3,1.3l3.6,1.1
			C-52.9,1349.8-59.4,1285.2-73.4,1281.3 M-115.4,1260.6c0.1,0,0.2,0,0.3,0.4c0.6,4.9-3.6,13-7.7,19.1
			C-120.4,1269.2-116.9,1260.9-115.4,1260.6 M-144.3,1260.8c0,0,1.3,2.6-4.2,9.2C-146.9,1261.3-144.3,1260.8-144.3,1260.8
			 M-180.2,1301.4c-0.8,0.1-1.3-0.6-1.4-2.2c-0.4-4.9,3.5-13.8,6.7-14.1c0.5,0,2.1-0.2,2.4,2.6
			C-172,1293.6-177.1,1301.1-180.2,1301.4 M-150.8,1300.4c-1.1,0.1-1.9-0.5-2.4-3.6c1.4,1.1,3.1,1.9,5.2,2.4
			C-148.7,1300-149.7,1300.3-150.8,1300.4 M-145.9,1295.5c-4.5-0.5-6.3-3.9-6.5-6.6c0,0,1.7-6.9,5.3-7.1c1.7-0.1,2.7,1.4,2.9,4.4
			C-144,1289.3-144.7,1292.7-145.9,1295.5 M-107.6,1290.7c0.9-8.1,5.9-11.9,8.2-10.2c2.6,2.2-1.3,7.5-8.2,11.7
			C-107.7,1292-107.6,1290.8-107.6,1290.7 M-274.5,1313l8.2-33.7c1.1-4.3,1.6-7.6,1.3-10.1c-0.3-4.1-2.9-7.8-7.3-7.5
			c-3.6,0.2-9.3,2.9-13.3,8c-0.6-3.7-3.4-7-7.6-6.7c-3.2,0.2-10.1,3.7-13.9,9.9l1-3.8c1.7-5.4-0.9-5.8-2.5-5.7
			c-0.5,0-5.4,0.3-5.4,0.3s-0.5,0-0.8,0.8c-2.2,7-31.8,13.3-30.2,24.2c0.9,5.8,8.1,4.4,12,3.2c1.5-0.4,1-0.9,0-1.2
			c-1.1-0.4-2.1-1.3-2.3-3c-0.5-5,8.1-7.7,18.3-11.9c0,0-5.7,28.1-10.4,38.5c-0.3,0.6-0.5,1.3-0.9,1.7c-1,1.3,0.3,1.3,0.3,1.3
			l1.9-0.1l9.3-0.5l9-35.1c2.9-3.9,6.1-6.3,8.1-6.4c1-0.1,1.7,0.4,1.8,1.4c0.2,1.5-0.8,5.2-1.9,9.7l-7.7,29.9l11.6-0.8l8.8-34.5
			c2.8-4.3,6.3-6.9,8.3-7.1c0.9-0.1,1.6,0.4,1.7,1.5c0.1,1.5-0.8,5.2-1.9,9.7c0,0-5.9,25.2-6.2,25.9c0,0-1.4,5.6-1.4,7.8v0.6
			c-0.2,7.6,3,11,8.8,10.7c8.4-0.5,9.8-6.3,9.8-6.3S-278.2,1328.4-274.5,1313 M-268.1,1297.7c-1,4-3.5,16.3,6.5,16.1
			c4.1-0.1,7.5-2.4,9.7-6.2c0.8,3.2,3.6,5.3,6.7,5c1.4-0.1,2.7-0.4,4.1-1.3c0.4,0.4,1.3,1,2.6,0.9c0.4,0,1-0.1,1.5-0.2
			c0.5-0.2,1.1-0.5,1.5-1.2c0.2-0.3,0.5-1,0.5-1c0.1-0.2,0.2-0.4,0.2-0.8c0.4-1.6,0.8-4.5,1-6.4c0.2,0.1,0.5,0.1,0.8,0
			c0.2,0.8,0.5,1.6,0.6,1.9c1.1,3.6,2.8,5.5,4.9,6.5c4.3,2.1,10.4-1.2,14.4-5.2c2.2,2.7,5.5,4.2,9.7,4c3.5-0.2,7.9-2.1,11.5-4.5
			l0.9-0.6c-0.6-1.6-0.8-3.2-0.8-4.4c-0.3,0.2-0.6,0.4-1,0.5c-3.1,1.8-6.6,2.8-8.2,2.9c-3.1,0.2-4.2-1.4-4.9-2.4
			c-0.3-0.4-0.5-0.8-0.8-1l0.6-0.2c7.5-2.3,15.5-9.5,15.1-14.5c-0.2-3.1-2.7-5.8-8-5.5c-10.5,0.6-17.2,10.7-16.7,19.7
			c0.1,1.3,0.3,2.5,0.8,3.6c-0.3,0.3-0.6,0.5-1,0.8c-1.5,1.1-3,2.6-5.5,2.9c-1.4,0.2-2.9-0.9-4.1-2.5c-0.9-1.2-1.5-2.5-1.7-3.8
			c-0.1-0.5,0.3-0.9,0.9-1.3h0.1c4.2-2.4,8.3-5.8,9.9-9.3c0.5-1.1,0.9-2.3,0.8-3.2c-0.1-1.7-1-3.4-2.5-4.4c-1.3-0.9-3-1.3-5.3-1.2
			c-0.9,0-1.6,0.2-2.4,0.3c2.1-2.2,4.2-5.1,5.8-8.8c0.4-1,2.6-5.4,2.4-8.4s-2.3-5.3-5.7-5.1c-4.6,0.4-9.3,7.8-11.7,18.4l-0.3,1.5
			l-1.6,8.3c-0.6,1.9-5.2,20-5.2,20l0.1-0.1v0.2c-0.9,0-1.5-0.4-2.1-1.7c0-0.1-0.1-0.2-0.1-0.5c0-0.4-0.1-0.9,0-1.4
			c0.1-0.6,0.2-1.3,0.2-1.9c0.9-6.1,2.2-11.3,3.8-18.2l0.1-0.2c0.3-0.9-0.4-0.8-0.4-0.8l-7.6,0.3c0,0-0.8,0.1-0.8,0.6
			c0,0.8,0.1,1.6,0.1,1.6c-1.3-1.6-3.4-2.6-6.2-2.1c-5.2,1.1-9.5,5.1-12.2,10.9C-267.1,1295-267.9,1297.2-268.1,1297.7
			 M-207.1,1297.2v-0.8c0.9-8,5.8-11.8,8.1-10.1c2.5,2.1-1.1,7-7.6,11.2l-0.5,0.3V1297.2 M-222.6,1265.4c0,0,0.4-0.1,0.4,0.3
			c0.1,4.2-2.9,9.6-6.2,14.2C-226.5,1271.8-223.7,1265.6-222.6,1265.4 M-230.4,1294.9c1.5-6.2,5.4-9,7.3-7.5c1.4,1.2,0.9,3.2-1,5.6
			c-1.1,1.4-2.8,3-4.8,4.4c-0.5-1-1.1-1.7-1.6-2.2C-230.5,1295.3-230.4,1295.1-230.4,1294.9 M-253.5,1290c0.5,0,2.1-0.2,2.4,2.6
			c0.5,5.7-4.4,13.3-7.8,13.5c-0.8,0.1-1.3-0.6-1.4-2.2C-260.8,1299.1-256.7,1290.2-253.5,1290"/>
		<g>
			<path fill="#FFFFFF" d="M-332,1223.5l1.8,10.6h0.1l1.4-10.6h4.8l1.9,18.1h-3.7l-1-13h-0.1l-0.6,4.5l-1.5,8.6h-2.7l-1.8-8.6
				l-0.6-4v-0.5l-0.6,13h-3.8l1.6-18.1C-336.7,1223.5-332,1223.5-332,1223.5z M-313.4,1223.5l4.3,18.1h-3.8l-0.6-3h-3.6l-0.6,3h-3.5
				l4.2-18.1H-313.4z M-315,1231l-0.4-2.7h-0.1l-0.4,2.7l-0.8,4.8h2.5L-315,1231z M-307.6,1241.6v-18.1h2.7c0.6,0,8.1-0.9,8.1,9.2
				c0,5.1-2,8.9-7.6,8.9H-307.6z M-300.3,1232.7c0-2.3-0.7-5.9-3.7-5.9v11.7C-301.1,1238.6-300.3,1235-300.3,1232.7z M-287.7,1223.5
				v3.4h-3.6v3.9h3.2v3.4h-3.2v4.1h3.7v3.3h-7.3v-18.1H-287.7z M-279.6,1241.6v-18.1h3.5c1.4,0,2.6,0.1,3.8,1c1.2,1,1.8,2.6,1.8,4.1
				c0,1.6-0.6,2.8-1.9,3.8c1.5,0.7,2.2,2.6,2.2,4.2c0,3.6-2.6,5.1-5.9,5.1C-276.1,1241.6-279.6,1241.6-279.6,1241.6z M-276,1226.6
				v4.4c1.4,0,2.2-0.9,2.2-2.2C-273.9,1227.4-274.7,1226.5-276,1226.6z M-276,1233.8v4.9c1.4,0.1,2.2-1,2.2-2.5
				S-274.6,1233.7-276,1233.8z M-265.4,1223.5l1.8,4.9l0.2,0.9h0.1l0.4-1.4l1.6-4.5h4l-4.2,9.4v8.6h-3.6v-8.6l-4.3-9.4
				C-269.4,1223.5-265.4,1223.5-265.4,1223.5z"/>
		</g>
	</g>
</g>
</svg>
