<?xml version="1.0" encoding="utf-8"?>
<!-- Generator: Adobe Illustrator 18.1.0, SVG Export Plug-In . SVG Version: 6.00 Build 0)  -->
<svg version="1.2" baseProfile="tiny" id="Ebene_1" xmlns="http://www.w3.org/2000/svg" xmlns:xlink="http://www.w3.org/1999/xlink"
	 x="0px" y="0px" width="81.8px" height="87.4px" viewBox="-429.9 1237.3 81.8 87.4" xml:space="preserve">
<path fill="currentColor" d="M-355.3,1237.3h-33.3c-3.9,0-6,3-6,6.8v30.4h-12.8h-2.2l19.7,33.3l19.7-33.3h-15v-29.1h26.7v70.9h-61.1c0,0,0-53.9,0-71.7
	c0-3.7-1.6-6.5-4.9-6.5c-3.9,0-5.4,2.8-5.4,6.6v73.1c0,3.8,2.2,6.9,6.1,6.9h68.6c3.9,0,7.1-3.1,7.1-6.9v-73.4
	C-348.2,1240.5-351.4,1237.3-355.3,1237.3z"/>
</svg>
