<?xml version="1.0" encoding="utf-8"?>
<!-- Generator: Adobe Illustrator 18.1.0, SVG Export Plug-In . SVG Version: 6.00 Build 0)  -->
<svg version="1.1" id="Layer_1" xmlns="http://www.w3.org/2000/svg" xmlns:xlink="http://www.w3.org/1999/xlink" x="0px" y="0px"
	 viewBox="-49 141 512 512" enable-background="new -49 141 512 512" xml:space="preserve">
<path id="facebook-like-square-icon" fill="#FFFFFF" d="M312.8,374l18.5,11.8v103.3l-25.6,22.4h-74.6L196.5,492l-38.6,0v-88.8
	c0.3,0,0.7-0.1,1.1-0.1c45-6.7,64-52.8,80.9-93.4c3.2-7.6,9.9-22.9,11.8-27.3h17.8v10.4l-8,27.2V374L312.8,374L312.8,374z
	 M413.5,191v412H1.5V191H413.5z M351.7,375.5l-33.5-21.8h-36.4v-33l8-27.2v-31.3h-51c0,0-13.1,28.8-17.7,39.9
	c-15.2,36.6-30.8,74.4-63.2,80.7v-16.2H63.3v159.7h94.6v-13.8h32.1l35.7,19.5h86.8l39.3-35.2V375.5z"/>
</svg>
