<?xml version="1.0" encoding="utf-8"?>
<!-- Generator: Adobe Illustrator 18.1.0, SVG Export Plug-In . SVG Version: 6.00 Build 0)  -->
<!DOCTYPE svg PUBLIC "-//W3C//DTD SVG 1.1//EN" "http://www.w3.org/Graphics/SVG/1.1/DTD/svg11.dtd">
<svg version="1.1" id="Ebene_1" xmlns="http://www.w3.org/2000/svg" xmlns:xlink="http://www.w3.org/1999/xlink" x="0px" y="0px"
	 width="90.1px" height="100px" viewBox="-419.1 1231 90.1 100" enable-background="new -419.1 1231 90.1 100" xml:space="preserve"
	>
<path fill="#FFFFFF" d="M-339.8,1236.9h-33.3c-3.9,0-6,3-6,6.8v30.4h-12.8h-2.2l19.7,33.3l19.7-33.3h-15v-29.1h26.7v70.9h-61.1
	c0,0,0-53.9,0-71.7c0-3.7-1.6-6.5-4.9-6.5c-3.9,0-5.4,2.8-5.4,6.6v73.1c0,3.8,2.2,6.9,6.1,6.9h68.6c3.9,0,7.1-3.1,7.1-6.9v-73.4
	C-332.7,1240.1-335.9,1236.9-339.8,1236.9z"/>
</svg>
