<?xml version="1.0" encoding="utf-8"?>
<!-- Generator: Adobe Illustrator 17.1.0, SVG Export Plug-In . SVG Version: 6.00 Build 0)  -->
<!DOCTYPE svg PUBLIC "-//W3C//DTD SVG 1.1//EN" "http://www.w3.org/Graphics/SVG/1.1/DTD/svg11.dtd">
<svg version="1.1" id="Layer_1" xmlns="http://www.w3.org/2000/svg" xmlns:xlink="http://www.w3.org/1999/xlink" x="0px" y="0px"
	 width="116.6px" height="112px" viewBox="0 0 116.6 112" enable-background="new 0 0 116.6 112" xml:space="preserve">
<g>
	<path fill="none" d="M33.9,83.6l0.6-0.9l0.3,0.4l8.5-8.5l-3-3l-7,7c0.1,0.5,0.2,1,0.4,1.6c0.3,0.8,0.9,1.4,1.7,1.7L33.1,83h-0.2v-4
		L21.6,90.3l3,3l9.5-9.5L33.9,83.6z M39.5,72.7l0.3,0.5l-0.5,0.3L39,73.2L39.5,72.7z M30.4,85.2v-0.8l0.9,0.8H30.4z"/>
	<path fill="none" d="M48.3,82.7l0.5,0.2c-0.2,0.2-0.4,0.5-0.5,0.7l2-2l-3-3l-2.6,2.6l0.1,0.1l-0.5,0.5l-0.1-0.1L28.6,97.3l3,3
		L44.9,87c0.1-0.8,0.4-1.7,0.8-2.6C46.2,83.2,47.1,82.7,48.3,82.7z M42.9,88.5l-0.8-0.8l0.8-0.9l0.6,0.9L42.9,88.5z"/>
	<path fill="none" d="M98.6,24.2c-0.9-1.3-1.7-2.4-2.3-3.5c-0.6-1.1-1-2.1-1-2.9l2.7,0.9l2.3-0.9l1.5,0.9c0,0.5-0.1,1-0.3,1.6
		s-0.3,1.1-0.3,1.6c0,1.6,0.4,2.8,1.1,3.6c0.5,0.6,1.1,1.1,1.7,1.5l0.6-0.8c0,0-0.1,0-0.1,0c-0.8-0.4-1.1-1-1.1-1.8l5.1-6.2
		c0,1.3-0.3,2.6-0.8,3.8l4.2-5.7l-0.5-0.5l-0.3,0.6l-0.8-0.8l0.4-0.5l-5-5l-6,4.4l0.5-0.1l1.5,1l-0.6,0.9l-1.7-1.6l-9.4,7l-0.8,5.3
		L63.9,52.2l0,0.1l-0.4,0.5l-0.1-0.1L51.6,64.5l5.9,5.9c0,0,0,0,0.1-0.1c0.3-0.4,0.6-0.8,0.9-1.3c0.3-0.5,0.5-1,0.5-1.6
		c0-0.5-0.1-1.3-0.3-2.3l2.3,1.8c0.8-0.8,1.6-1.6,2.5-2.5l-0.7-2.4h2.4c-0.1,0.5-0.3,1-0.6,1.4c1.1-1.1,2.2-2.2,3.5-3.5l-0.3-0.3
		c0,0,0.9-0.5,1.3-0.7c3.5-3.5,7.4-7.4,11.1-11.1v-0.7h0.7c4.5-4.5,8.6-8.6,11.2-11.2c0.1-0.1,0.2-0.2,0.3-0.3
		c1.6-1.6,2.6-2.6,2.6-2.6l0.6-0.1l-0.7-1.3c0.8,0.1,1.3,0.3,1.7,0.8c0.1,0.1,0.2,0.2,0.3,0.3l3.4-0.5l2-2.8c-0.3-0.4-0.6-0.9-1-1.4
		C100.4,26.6,99.5,25.5,98.6,24.2z M105.1,15c0.6-0.5,1.1-0.8,1.7-0.8l-1.1,3.6l-1.5-1.2C104.3,16.1,104.6,15.5,105.1,15z
		 M61.2,56.9v-0.8l1.7,0.8H61.2z M75.3,43.6v0.9h-0.9L75.3,43.6z M68.6,55.2c-0.6-0.2-0.9-0.8-0.9-1.7h0.9V55.2z M70.3,51.2h-0.9
		l0.9-0.9V51.2z M74.4,51.9l-0.6-0.8l0.6-0.9l0.6,0.9L74.4,51.9z M76.8,49.5h-1.5c0.3-0.5,0.8-0.9,1.5-1.1V49.5z M77.8,46.2L77,45.4
		l0.8-0.9l0.6,0.9L77.8,46.2z M78.6,41.2h-0.8v-0.9h0.8V41.2z M87.8,38.6L87,37.9l0.8-0.9l0.6,0.9L87.8,38.6z M88.1,30.8l-0.3-0.5
		l0.3-0.3l0.5,0.3L88.1,30.8z"/>
	<path fill="#FFFFFF" d="M14.6,60.5c1.3,1.3,3.4,1.2,4.8-0.2l4.8-4.8c0.5-0.5,0.9-1.2,1-1.8c-0.3-0.1-0.5-0.2-0.8-0.2
		c-0.1,0.6-0.5,0.9-1,1.1l-1.5,0.6c0-1.3,0.6-2.2,1.7-2.7c0.5-0.2,1-0.4,1.6-0.6c-0.1-0.5-0.4-0.9-0.8-1.2L24,50.2l0.7-0.7
		c-0.3,0-0.5,0-0.7,0c-1,0-1.9-0.2-2.8-0.5c-0.9-0.4-1.7-0.8-2.5-1.3l1.5-0.9l2.3,0.4c0-0.6-0.1-1.3-0.3-2s-0.3-1.4-0.3-2
		s0.2-1.1,0.5-1.5c0.3-0.4,1-0.6,2.1-0.6c0.6,0.6,1.3,1,2,1.2c0.7,0.2,1.4,0.4,2,0.6s1.1,0.5,1.4,1c0.3,0.5,0.5,1.3,0.5,2.6
		c0,0.5-0.3,0.9-0.8,1.3c-0.5,0.4-1.1,0.7-1.8,0.9c-0.3,0.1-0.6,0.2-0.8,0.3l1.8,1.8l4.2-4.2c-0.3-0.5-0.5-1-0.5-1.6
		c0.4,0,1.1,0,2,0.1l1.9-1.9l7.2,7.2l0.1-0.2l0.6,0.9l1.5,1.5l0.4,0.2H46l3.5,3.5l5.9-5.9l0.2-0.3l0,0.1l4.7-4.7
		c0,0-9.3-9.4-11.6-11.7c-0.2,0.6-0.5,1.1-0.8,1.5v-1.7h0.6c-0.2-0.2-1.2-1.2-1.2-1.2l1.7-1.7l-0.2-0.3l0.6-0.9l0.3,0.5l1.4-1.4
		h-3.8c0-0.7,0.4-1.2,1.1-1.4c0.8-0.3,1.4-0.4,1.9-0.4s1.1,0.2,1.8,0.4c0.1,0,0.2,0.1,0.3,0.1l3.6-3.6l-1.6-1.6l-0.8,0.8L51.8,22
		l1.1-0.8l1.3,0.7l-3.5-3.5l1.7-1.7c-0.8,0.2-1.5,0.3-2.2,0.4c-0.5-0.8-0.9-1.6-1.2-2.4s-0.5-1.7-0.5-2.6H50c0,0.8,0.2,1.4,0.5,1.6
		c0.4,0.2,0.8,0.4,1.3,0.5c0.5,0.1,1,0.2,1.4,0.2c0.4,0.1,0.6,0.3,0.9,0.6l1.3-1.3c0,0-0.2,0.1-0.2,0.1c0.1-0.3,0.2-0.6,0.4-1
		s0.4-0.6,0.7-0.8l0.3,0.5l7.2-7.2L62.5,4c-4.3-4.3-12.6-2.8-22.2,3.9l-2-2L18.9,25.2l0.2-0.1l1.3,1.1h-0.3c-0.2,0-0.5-0.1-0.8-0.2
		c-0.4-0.2-0.5-0.4-0.5-0.7l-7.5,7.5c0,0,0.1,0.1,0.1,0.1L11,33.1l2.7,2.7l-2.1,2.1l-0.4-0.4c-0.2-0.2-0.5-0.4-0.8-0.5
		c0.1,0.2,0.2,0.3,0.4,0.4l-0.5,0.5l-0.1-1.1c-1.2-0.5-2.7-0.2-3.8,0.9l-4.8,4.8c-1.4,1.4-1.5,3.5-0.2,4.8L14.6,60.5z M54.5,42.8
		l0.3,0.5l-0.5,0.3L54,43.3L54.5,42.8z M52.9,42.8l0.6,0.9l-0.6,0.8h-0.8L52.9,42.8z M50.2,53.3l1.1,0.3L50.2,54l-0.8-0.4L50.2,53.3
		z M49.4,19.5l0.6,0.9l-0.6,0.8l-0.6-0.8L49.4,19.5z M39.3,44.5L39,44.1l0.5-0.5l0.3,0.5L39.3,44.5z M41.7,40.5l-1.4-0.9
		c0.2-0.6,0.6-0.9,1.1-1.1l1.5-0.6L41.7,40.5z M45.9,13.6c0.6,0.2,0.9,0.5,1,1l-1.5,1.7c0-0.5-0.2-1-0.5-1.4
		c-0.3-0.5-0.5-0.9-0.5-1.4C44.8,13.4,45.3,13.5,45.9,13.6z M44.9,35l0.5,0.3l-0.5,0.5l-0.5-0.5L44.9,35z M44.4,43.6v2.6h-0.8
		L44.4,43.6z M41.3,11.9l0.3,0.5l-0.3,0.5l-0.5-0.5L41.3,11.9z M39.4,16.2l0.9,0.8h-0.9V16.2z M39.5,31.2c0.4,0.5,1,1,1.5,1.5
		c0.6,0.5,1.2,0.8,1.9,1l-1.5,0.9L38.7,32L39.5,31.2z M38.3,40.7l-0.5,0.5l-0.3-0.5l0.5-0.5L38.3,40.7z M36.8,27.9h1.1l-1.1,0.8
		V27.9z M25.2,34.5L25,34l0.3-0.5l0.3,0.5L25.2,34.5z M28,41.3c-1.5-0.8-2.3-2-2.3-3.5c1-0.1,1.6,0.2,1.9,0.7c0.3,0.5,0.4,1.2,0.4,2
		V41.3z M27.2,37.9l0.8-2.6l0.6,0.9L27.2,37.9z M36.3,40.2l-1.8-0.8c0.2-0.2,0.4-0.4,0.8-0.6s0.7-0.3,1-0.4V40.2z M35.1,16.1
		l0.3,0.2L34.6,17l-0.3-0.1L35.1,16.1z M33.7,30.3h1.7L33.7,32V30.3z M34.5,32.8v0.8h-0.8L34.5,32.8z M33,41.2h-1.7
		c0.1-0.7,0.7-1.1,1.7-1.1V41.2z M31.8,39.5l-0.5,0.8l-0.8-0.8l0.8-0.9L31.8,39.5z M30.4,16.2l0.6,0.9l-0.6,0.8l-0.8-0.8L30.4,16.2z
		 M28.7,27.5c0.8,0.9,1.2,1.8,1.2,2.9c-1.1,0-2-0.5-2.7-1.4c-0.7-0.9-1.1-1.9-1.1-2.9l0.2-0.9C27.1,25.9,27.9,26.7,28.7,27.5z
		 M22.4,21.8c0.4-0.3,0.8-0.5,1.3-0.7c0.5-0.2,1-0.3,1.4-0.5c0.5-0.2,0.8-0.6,1.1-1.1c0.1,1.5-0.3,2.5-1.1,3
		c-0.8,0.6-1.9,0.8-3.2,0.8C21.9,22.6,22.1,22.1,22.4,21.8z M15.4,37h0.9v1.7h-0.9V37z M13.3,40.3h0.5c-0.2,0.3-0.4,0.5-0.7,0.7
		c-0.4,0.2-0.7,0.2-1,0.2h-0.8L13.3,40.3z M9.8,52.8c-0.1,0.3-0.2,0.6-0.4,0.9C9.2,54,9,54.3,8.7,54.5v-1.7H9.8z M8.3,42.4l0.5,0.5
		l-0.5,0.3L8,42.7L8.3,42.4z M8.8,44.5v1.7H7.9C7.9,45.3,8.2,44.7,8.8,44.5z M6.9,37.8l0.8,0.9l-0.8,0.8l-0.5-0.8L6.9,37.8z
		 M4.6,47.8l0.3,0.5l-0.5,0.3l-0.3-0.3L4.6,47.8z"/>
	<path fill="#FFFFFF" d="M91.4,16.7l0.2,0.4l-0.5,0.8l-0.5-0.5l-3.5,2.5l-0.8,5.5L71.6,40.1c0.1,0.1,0.1,0.1,0.2,0.2l2.3-0.9
		c0,1.7-0.9,2.6-2.6,2.6c-0.6,0-1.1-0.1-1.6-0.2l-5.7,5.7L58,53.6l0.5,0.8l-0.6,0.8l-0.7-0.7l-1.4,1.4l0.2,0.2l-0.6,0.8L55,56.6
		l-2,2l-3.7,3.7l-2.9-2.9c-1-1-2.3-1.5-3.6-1.7c0.1,0.2,0.2,0.5,0.2,0.8c-0.6-0.2-1.2-0.4-1.8-0.7c-1.2,0.2-2.4,0.7-3.3,1.6L37.2,60
		c-1.6,1.6-2.1,3.9-1.5,5.9l0.9,1.9l-5.3,5.3v0.6c-0.2,0-0.3,0-0.5-0.1l-6.9,7l-3.4,0.6l-7.3,7.3c-2.2,2.2-2.2,5.8,0,8l12.3,12.3
		c2.2,2.2,5.8,2.2,8,0l7.3-7.3l0.6-3.4l12.5-12.5l0.7-3.7l0.6-0.2c0.8,0,1.6,0.2,2.3,0.6c0.7,0.4,1.4,0.8,2,1.2
		c-1.6,0.4-2.9,1.3-3.9,2.6l0.4,0.2c0.9,0.3,1.9,0.3,2.8,0.1l0.6-1.2c0,0,0.4,0.4,0.8,0.8c0.6-0.3,1.2-0.7,1.7-1.2l0.7-0.7
		c2-2.1,2.2-5.1,0.8-7.4L63,76.1l0,0c-0.1-0.2-0.2-0.3-0.4-0.5l-2.9-2.9l3.7-3.7c0,0,8.2-8.2,10-10.1l0.2-0.3l0,0.1
		c0.1-0.1,0.9-0.9,0.9-0.9l8-8l-0.8-1.2h1.8c0,0-0.1,0.2-0.1,0.3l1.9-1.9h-0.1v-0.8h0.9v0l7.5-7.5l-0.1-0.1l0.1,0.1l3-3l5.5-0.8
		l3.7-5c0,0-0.1,0-0.1,0c-0.8,0.1-1.5,0.4-2.2,0.8l0.3,0.5H103l0.5-0.5c-0.4-0.4-0.8-0.9-1.2-1.5l-2,2.8l-3.4,0.5
		c0.3,0.4,0.6,0.7,0.8,1.1l-5,5l-0.2-0.5c0-0.9,0.4-1.8,1.3-2.6c0.9-0.8,1.6-1.5,2.2-2l-0.4-0.8L95,32.8c0,0-1,1-2.6,2.6
		c0.1-0.1,0.2-0.1,0.4-0.1L91.7,37c0.1-0.2,0.2-0.6,0.3-1c0-0.1,0.1-0.2,0.1-0.3c-2.6,2.6-6.7,6.7-11.2,11.2h0.4
		c-0.4,0.8-0.8,1.4-1.1,1.7v-1c-3.7,3.7-7.6,7.6-11.1,11.1c0.1-0.1,0.3-0.2,0.3-0.2l-0.8,1.7l-0.5-0.5c-1.2,1.2-2.4,2.4-3.5,3.5
		c0,0,0,0,0,0c-0.3,0.4-0.6,0.8-1,1.2l-0.1-0.2c-0.9,0.9-1.8,1.8-2.5,2.5l0.3,0.2c0,1.5-0.5,2.9-1.4,4.1c-0.9,1.2-1.9,2.3-3,3.2
		l-0.6-0.9c-0.1-0.7,0.1-1.3,0.4-1.8v0c0.3-0.5,0.6-1,0.9-1.4c0,0,0,0,0,0c-0.1,0.1-0.1,0.1-0.1,0.1l-5.9-5.9l11.8-11.8l-0.1-0.4
		l0.3-0.5l0.3,0.4l25.3-25.3l0.8-5.3l9.4-7l-0.1-0.1l0.4-0.1l6-4.4l5,5l0.4-0.4l0.5,0.9l-0.2,0.2l0.5,0.5l-4.2,5.7
		c-0.1,0.2-0.1,0.3-0.2,0.5c-0.4,0.8-0.7,1.6-0.8,2.4l1.8-0.3l0.3,0.5l-0.3,0.3l-1.9-0.2c-0.1,0.5-0.1,1-0.1,1.6
		c-0.6,0-1.2-0.2-1.9-0.6L104,27c0.2,0.1,0.4,0.2,0.6,0.3c0.8,0.4,1.6,0.7,2.3,0.9c0,0,0.1,0,0.1,0l9-12.2L106,6L91.4,16.7z
		 M72.3,56.5c0.4-0.4,0.8-0.5,1.3-0.5v1.8h-1.8C71.8,57.3,72,56.9,72.3,56.5z M66.8,63.5l0.8,0.9l-0.8,0.8l-0.5-0.8L66.8,63.5z
		 M65.4,64.2l0.8-1.4C66,63.5,65.7,64,65.4,64.2l-0.2,0.3L65.4,64.2z M57.9,77.8l1.4,1.7l-0.7,0.7c-0.2-0.4-0.7-0.9-1.5-1.5
		L57.9,77.8z M49.4,65.2l0.6,0.9l-0.6,0.8l-0.6-0.8L49.4,65.2z M47,62.7c0.5-0.4,1.1-0.5,1.8-0.5c0,0.5-0.1,1.1-0.2,1.9
		c-0.1,0.8-0.6,1.1-1.4,1.1l-0.9-0.8C46.2,63.7,46.5,63.1,47,62.7z M46.3,76.8l0.3,0.8l-0.5,0.9l-0.3-0.9L46.3,76.8z M44.9,76.1
		c-0.3-0.4-0.5-0.8-0.7-1.2c-0.2-0.4-0.3-0.9-0.5-1.4h2.7c0,0.5-0.1,1.1-0.2,1.7C46,75.8,45.6,76.1,44.9,76.1z M46.3,68.7l0.5-0.9
		l0.8,0.9l-0.8,0.8L46.3,68.7z M44.7,60.1l1.5-0.6l-1.8,2.4l-0.8-0.8C43.9,60.6,44.2,60.3,44.7,60.1z M39.4,64.5l0.9,0.8L38.5,68
		l0.9,0.6l2.3-0.9l0.2,0.2l-2.4,2.4l-2.6-1.7C38,67.2,38.8,65.9,39.4,64.5z M36.3,63.6v-0.8h0.6v0.8H36.3z M26.3,79.6l2.4-1.8
		c0,0.8-0.2,1.5-0.5,2.1c-0.3,0.6-1,0.9-1.9,0.9V79.6z M18.7,88.4l0.8-1.7c0.4,0.3,0.7,0.7,0.8,1.3c0.2,0.6,0.2,1.1,0.2,1.5
		L18.7,88.4z M20.7,84.4c-0.3-0.9-0.4-1.9-0.4-2.9c1,0,1.7,0.5,2.1,1.6c0.4,1,0.6,1.9,0.6,2.7C21.7,85.8,20.9,85.3,20.7,84.4z
		 M21.9,92.7h-0.6v-0.9h0.6V92.7z M21.6,90.3L32.9,79v-1.1l0.3-0.1c0,0.3,0,0.6,0.1,0.8l7-7l3,3l-8.5,8.5l0.3,0.5l-0.6,0.8l-0.4-0.6
		l-9.5,9.5L21.6,90.3z M43.6,82c0,0-0.7,0.8-0.7,0.8L42.2,82l0.8-0.9L43.6,82z M37.4,86.5c0.4-0.3,0.8-0.5,1.3-0.5l-1.8,1.7
		C36.9,87.2,37,86.8,37.4,86.5z M36.3,85.2l1.7-2.4v2.4H36.3z M35.3,90.2h-1l-1.4-0.8L35.3,90.2z M25.4,97.7l0.9-1.7l0.6,2.5
		L25.4,97.7z M28,93.4l0.6,0.9L28,95.1l-0.8-0.8L28,93.4z M28.6,102.2l-0.8-0.6l0.8-0.2l0.9,0.3L28.6,102.2z M30.8,104l-0.4-0.5
		l0.5-0.3l0.5,0.3L30.8,104z M32.9,102.7l0.6-0.8l-0.6-0.9l0.6,0.9L32.9,102.7z M42,91.1l-0.3-0.2l0.9-0.9l0.3,0.2L42,91.1z
		 M44.9,87.6c0-0.2,0-0.4,0-0.6l-13.3,13.3l-3-3l15.6-15.6L44,81.5l0.5-0.5l0.2,0.2l2.6-2.6l3,3l-2,2c-0.4,0.7-0.7,1.4-0.9,2.3
		C47.1,87.1,46.3,87.6,44.9,87.6z M48.7,89.4l-0.6-0.8l0.6-0.9l0.6,0.9L48.7,89.4z M49.4,85.2v-0.8l1.8,0.8H49.4z M50.2,73.1
		l-0.8-0.5l0.8-0.3l1.1,0.5L50.2,73.1z M56.3,76.1l0.5,0.9l-0.6,0.8L55.5,77L56.3,76.1z M55.3,75.2c0,0.5,0,0.9-0.1,1.1
		c-0.1,0.2-0.3,0.4-0.8,0.6L55.3,75.2z M52.9,70.2l0.6,0.9l-0.6,0.8l0.6-0.8L52.9,70.2z M51.9,70.2l-0.3,0.5l-0.5-0.6l0.3-0.2
		L51.9,70.2z M51.8,61.9l-0.5-0.8l0.5-0.9l0.8,0.9L51.8,61.9z M54.9,58.1l-0.5-0.3l0.5-0.5l0.5,0.5L54.9,58.1z M78.6,37L78,36.2
		l0.6-0.9l0.6,0.9L78.6,37z M87.8,24.6L87,23.8l0.8-0.9l0.6,0.9L87.8,24.6z M94,16.4l-0.5-0.1l1.7-1.7L94,16.4z M110.2,23.7
		l-0.8-0.8l0.8-0.9l0.6,0.9L110.2,23.7z M111.1,22l-0.8-0.8l0.8-0.9l0.5,0.9L111.1,22z M114.3,17.1l-0.5,1.1l-0.5-0.4l0.8-0.9
		L114.3,17.1z M113.3,17.1l-0.6,0.8l-0.8-0.8l0.8-0.9L113.3,17.1z"/>
	<path fill="#FFFFFF" d="M93,72.5l-0.2,0.3L92,72l0.2-0.2L81.5,61.7l-1.9,1.9l-9.1,9.1c0.2-0.1,0.4-0.1,0.7-0.1v0.9h-1.5l-4.1,4.1
		l4.8,5.1l0.8-0.9l0.5,0.9l-0.5,0.8l-0.3-0.3l1.6,1.7c0.6,0.2,1.2,0.3,1.9,0.3l-0.9,0.7l18.6,19.7c0.7,0.7,2.1,0.5,3.1-0.5l8.3-8.3
		l-0.6-0.8l0.6-0.9l0.6,0.9l-0.6,0.8l1.7-1.7l-0.3-0.5l0.3-0.3l0.3,0.5l3.6-3.6c1-1,1.3-2.4,0.5-3.1L93,72.5z M69.7,80.3
		c0,0-0.5-0.3-0.5-0.3l0.8-0.8l0.3,0.2L69.7,80.3z M73.6,71.1l-0.8,1.7l-0.1-0.6L73.6,71.1z M71.6,80.5c0.1-0.4,0.3-1,0.5-1.7
		c0.2-0.7,0.6-1.1,1.1-1.1l1.2,1.8L71.6,80.5z M78.6,91.1L78,90.3l0.6-0.9l0.6,0.9L78.6,91.1z M79,78.1l-0.4-0.5l0.3-0.3l0.5,0.5
		L79,78.1z M97.5,90.3l-0.8,0.8l-0.5-0.8l0.5-0.9L97.5,90.3z M95,87.5l0.3,0.2l-0.8,0.8l-0.3-0.2L95,87.5z M94.4,86l0.8-0.9l0.6,0.9
		l-0.6,0.8L94.4,86z M96.1,87.7l0.5,0.9l-0.5,0.8l-0.8-0.8L96.1,87.7z M96.1,77.7l0.5,0.9l-0.5,0.8l-0.8-0.8L96.1,77.7z M88.6,76.1
		l0.6,0.9l-0.6,0.8L88,77L88.6,76.1z M84.3,67.7c0,0.4-0.1,0.6-0.3,0.7l0,0.1l-0.1,0c-0.1,0-0.1,0-0.2,0l-0.3-0.2l0.5,0.2
		c0,0,0.1,0,0.1-0.1L84.3,67.7z M84.3,78.7v-0.9h1.8C85.6,78.4,85,78.7,84.3,78.7z M84.4,80.1L84,80.6c-0.2-0.2-0.3-0.4-0.4-0.6
		l0.3-0.2L84.4,80.1z M82.2,89.7c-0.4,0.3-0.9,0.5-1.4,0.5l-0.6-0.5l1.5-1.2h1.1C82.8,89,82.6,89.4,82.2,89.7z M83.6,94.4L83,93.6
		l0.6-0.9l0.6,0.9L83.6,94.4z M83.2,84.1L83.2,84.1L83.2,84.1l0.1,0.3h-1.2L83.2,84.1L83.2,84.1C83.1,84.1,83.2,84.1,83.2,84.1
		L82.7,83c0.5-0.4,1-0.8,1.6-1.3c0.6-0.5,1.2-0.7,1.9-0.7c-0.2,0.9-0.5,1.5-1.1,2C84.5,83.5,83.9,83.8,83.2,84.1z M86.1,85.2
		l-0.8-0.8l0.8-0.9l0.5,0.9L86.1,85.2z M86.1,76.1l-0.8-0.8l0.8-0.9l0.5,0.9L86.1,76.1z M88.1,94.7l-0.3-0.3l0.3-0.5l0.5,0.5
		L88.1,94.7z M88.6,89.4L88,88.6l0.6-0.9l0.6,0.9L88.6,89.4z M89.3,96.1l0.6-0.8l-0.6-0.9l0.6,0.9L89.3,96.1z M89.3,87.7L88.7,87
		l0.6-0.9l0.6,0.9L89.3,87.7z M89.3,74.4l-0.6-0.8l0.6-0.9l0.6,0.9L89.3,74.4z M91.1,102.7l-0.8-0.8l0.8-0.9l0.5,0.9L91.1,102.7z
		 M91.1,100.1l-0.8-0.8l0.8-0.9l0.5,0.9L91.1,100.1z M92.8,77.6c-0.4,0.5-0.7,0.9-1.1,1.2c-0.4,0.4-0.9,0.6-1.5,0.7
		c0.3-1.1,0.7-2.1,1.3-3.1c0.6-1,1.1-1.9,1.6-2.8l2.1,1.7c-0.5,0.1-0.9,0.4-1.3,0.9L92.8,77.6z M94.5,95.1l-1,1l1.7-2.6l0.2,0.3
		C95.2,94.3,94.9,94.7,94.5,95.1z M96.6,95l0.2,0.2l0.2,0.5l-0.7,0.4L96,95.8L96.6,95z M96.7,97.7L96.3,97l0.5-0.9l0.8,0.9
		L96.7,97.7z M99.3,84.4l-0.8-0.9h0.8V84.4z M101.7,96.1l-0.5-0.8l0.5-0.9l0.8,0.9L101.7,96.1z M103.5,94.4l-0.6-0.8l0.6-0.9
		l0.6,0.9L103.5,94.4z M105.2,90.2l-0.8-0.8l0.8-0.9l0.6,0.9L105.2,90.2z"/>
	<path fill="#FFFFFF" d="M25.6,46.1c0.2,0.4,0.4,0.6,0.7,0.8l0.6-0.8L25.2,45C25.3,45.4,25.5,45.8,25.6,46.1z"/>
</g>
</svg>
