<?xml version="1.0" encoding="utf-8"?>
<!-- Generator: Adobe Illustrator 18.1.0, SVG Export Plug-In . SVG Version: 6.00 Build 0)  -->
<svg version="1.1" id="Layer_1" xmlns="http://www.w3.org/2000/svg" xmlns:xlink="http://www.w3.org/1999/xlink" x="0px" y="0px"
	 viewBox="-49 141 512 512" enable-background="new -49 141 512 512" xml:space="preserve">
<path fill="currentColor" id="twitter-2-icon" fill="currentColor" d="M1,191v412h412V191H1z M321.9,348.1c3.6,79.1-55.4,167.2-159.8,167.2
	c-31.7,0-61.3-9.3-86.2-25.3c29.8,3.5,59.6-4.8,83.2-23.3c-24.6-0.5-45.4-16.7-52.5-39c8.8,1.7,17.5,1.2,25.4-1
	c-27-5.4-45.7-29.8-45.1-55.8c7.6,4.2,16.2,6.7,25.5,7c-25-16.7-32.1-49.8-17.4-75c27.7,34,69.1,56.4,115.9,58.7
	c-8.2-35.2,18.5-69,54.8-69c16.2,0,30.8,6.8,41,17.8c12.8-2.5,24.8-7.2,35.7-13.6c-4.2,13.1-13.1,24.1-24.7,31.1
	c11.4-1.4,22.2-4.4,32.3-8.9C342.5,330.3,332.9,340.2,321.9,348.1z"/>
</svg>
