<?xml version="1.0" encoding="utf-8"?>
<!-- Generator: Adobe Illustrator 18.1.0, SVG Export Plug-In . SVG Version: 6.00 Build 0)  -->
<svg version="1.2" baseProfile="tiny" id="Layer_1" xmlns="http://www.w3.org/2000/svg" xmlns:xlink="http://www.w3.org/1999/xlink"
	 x="0px" y="0px" width="462.3px" height="44.6px" viewBox="0 0 462.3 44.6" xml:space="preserve">
<g>
	<path fill="#FFFFFF" d="M179.9,9l0.7,3.7c1.7-2.7,4.6-4.3,7.4-4.3c2.1,0,3,0.3,4.1,0.9v9.5h-6.7v-3c0,0-0.5-0.1-1.2-0.1
		c-1.6,0-2.6,0.8-3.5,1.8v13.3h2.4V36h-13.3v-5.2h1.8V14.9h-2.1V9H179.9z"/>
	<path fill="#FFFFFF" d="M12,5.8v12.4h3.8c3.5,0,4.9-1.8,4.9-4.7v-3.1c0-3-1.4-4.6-4.6-4.6H12z M17.1,0c8.4,0,13,3.1,13,10.3v2.6
		c0,7.6-4.8,10.9-13.4,10.9H12v7h3V36H0v-5.2h2.5V5.7H0V0H17.1z"/>
	<path fill="#FFFFFF" d="M49.7,25.7v-6.1c0-3.9-1.4-5.6-4.2-5.6c-2.8,0-4.3,1.7-4.3,5.6v6.1c0,3.9,1.4,5.3,4.3,5.3
		C48.3,31,49.7,29.4,49.7,25.7 M58.9,20.2v4.3c0,8.6-5.4,12-13.4,12c-7.6,0-13.5-3.5-13.5-11.5v-4.7c0-8.5,5.9-11.9,13.5-11.9
		C53.5,8.4,58.9,11.8,58.9,20.2"/>
	<path fill="#FFFFFF" d="M80.3,25v-4.6c0-4.2-1.1-5.4-3.5-5.4c-2,0-3.5,1.1-4.8,2.7v11.5c1.5,1,2.4,1.6,4.2,1.6
		C78.7,30.8,80.3,29.1,80.3,25 M71.9,39.4h2.3v5.2H61v-5.2h1.7V14.9h-2V9h10.2l0.7,4.1c2.2-2.4,4.5-4.8,9-4.8c6,0,8.9,3.2,8.9,10.6
		v6.7c0,7.7-4.6,10.9-10.2,10.9c-3.1,0-5.7-1.7-7.4-3.1V39.4z"/>
	<path fill="#FFFFFF" d="M111,32.1c-2.4,2.5-5.1,4.4-9,4.4c-5.5,0-8.4-2.6-8.4-9V14.9h-1.7V9h10.9v17.5c0,2.4,0.9,3.6,3,3.6
		c2.2,0,3.6-1.5,5-2.7V14.9h-2.1V9h11.2l0,21.8h2V36h-10.2L111,32.1z"/>
</g>
<polygon fill="#FFFFFF" points="135.6,0 135.6,30.8 137.3,30.8 137.3,36 124.6,36 124.6,30.8 126.4,30.8 126.4,5.7 124,5.7 124,0 
	"/>
<g>
	<path fill="#FFFFFF" d="M155.8,29.6v-6.2l-2.5,0.4c-4,0.7-4.6,1.6-4.6,4.1c0,2,0.6,3.2,3.2,3.2C153.6,31.1,155,30.3,155.8,29.6
		 M165,17.7v13.1h2.2V36h-10.3l-0.7-2.8c-1.6,1.8-4.1,3.4-7.8,3.4c-5.2,0-8.3-3-8.3-7.8v-0.7c0-5.5,3.7-7.2,12.9-8.8l2.9-0.5v-1.2
		c0-2.6-1.1-3.7-4.2-3.7c-1.6,0-2.4,0.2-3.1,0.5v2.8h-7v-6.5c2.9-1.4,6.8-2.5,11.6-2.5C161.9,8.4,165,11.7,165,17.7"/>
	<path fill="#FFFFFF" d="M450.3,8.4c5.3,0,8.2,0.7,10.3,1.7v6.9H454v-2.7c-0.8-0.4-1.8-0.7-3.7-0.7c-2.9,0-3.6,0.8-3.6,2.4
		c0,1.4,0.7,2,3.4,2.4l2.3,0.4c7.6,1.1,9.8,2.6,9.8,8.8c0,6.2-4,9.2-11.9,9.2c-4.4,0-8.1-1-10.7-2.3v-6.9h6.7v3.2
		c0.8,0.4,2.1,0.5,4,0.5c2.6,0,4.2-0.6,4.2-2.4c0-1.8-0.7-1.9-3.9-2.4l-2.3-0.4c-6.9-1.1-9.1-3-9.1-8.9
		C439.3,10.2,444.1,8.4,450.3,8.4"/>
	<path fill="#FFFFFF" d="M411.7,20.3c0-8.7,6-11.9,13.1-11.9c5.3,0,8.3,1.1,11,2.7v7.8h-7.1v-4.2c-0.6-0.4-1.6-0.7-3.4-0.7
		c-3.6,0-4.5,2.2-4.5,6.3v4.4c0,4.6,1.2,6.5,4.4,6.5c1.1,0,2.9-0.1,3.7-0.6v-3.1h7v6.9c-2.8,1.5-5.9,2.3-11.1,2.3
		c-8.3,0-13.1-3.8-13.1-12.1V20.3z"/>
	<path fill="#FFFFFF" d="M350.3,29.6v-6.2l-2.5,0.4c-4,0.7-4.6,1.6-4.6,4.1c0,2,0.6,3.2,3.2,3.2C348,31.1,349.5,30.4,350.3,29.6
		 M359.5,17.7v13.1h2.2V36h-10.4l-0.7-2.8c-1.6,1.8-4.1,3.4-7.8,3.4c-5.2,0-8.3-3-8.3-7.8v-0.7c0-5.5,3.7-7.2,12.9-8.8l2.9-0.5v-1.2
		c0-2.6-1.1-3.7-4.2-3.7c-1.6,0-2.4,0.2-3.1,0.5v2.9h-7v-6.5c2.9-1.4,6.8-2.5,11.6-2.5C356.4,8.4,359.5,11.7,359.5,17.7"/>
</g>
<polygon fill="#FFFFFF" points="244.3,0 244.3,5.8 241.7,5.8 241.7,30.8 244.3,30.8 244.3,36 229.5,36 229.5,30.8 232.3,30.8 
	232.3,11.6 226.1,28.9 221.2,28.9 214.7,11.6 214.7,30.8 217.4,30.8 217.4,36 205.2,36 205.2,30.8 207.7,30.8 207.7,5.8 205.2,5.8 
	205.2,0 218.8,0 224.7,16.3 230.6,0 "/>
<g>
	<path fill="#FFFFFF" d="M255.3,19.7h8v-1.1c0-3.7-1.1-4.7-3.8-4.7c-2.6,0-4.2,1.2-4.2,4.9V19.7z M271.6,19.2v5.2h-16.2v0.8
		c0,4.4,1.7,5.7,5.3,5.7c1.6,0,3.1-0.2,4-0.6v-2.9h6.9v6.2c-2.2,1.4-5.7,2.9-11.1,2.9c-9.1,0-14.2-3.7-14.2-11.9v-4.5
		c0-7.1,4.1-11.9,13.1-11.9C268,8.4,271.6,11.8,271.6,19.2"/>
	<path fill="#FFFFFF" d="M275.2,20.3c0-8.7,6-11.9,13.1-11.9c5.3,0,7.9,1,11,2.7v7.8h-7.1v-4.2c-0.6-0.4-1.6-0.7-3.3-0.7
		c-3.6,0-4.5,2.2-4.5,6.3v4.4c0,4.6,1.2,6.5,4.4,6.5c1.1,0,2.9-0.1,3.7-0.6v-3.1h7v6.4c-2.8,1.7-5.9,2.7-11.1,2.7
		c-8.3,0-13.1-3.8-13.1-12.1V20.3z"/>
	<path fill="#FFFFFF" d="M313.4,0v13c2.3-2.6,5.1-4.6,8.9-4.6c5.1,0,8,2.5,8,8.8v13.7h1.7V36h-13.2v-5.2h2.4V18.6
		c0-2.4-0.8-3.3-2.6-3.3c-2.1,0-3.8,1.3-5.2,2.7v12.9h2.4V36h-13.3v-5.2h1.8V5.8h-2.1V0H313.4z"/>
	<path fill="#FFFFFF" d="M374.4,9.1l0.7,4.1c2.3-2.6,5.2-4.7,9.1-4.7c5.1,0,8,2.5,8,8.8v13.7h1.7V36h-13.2v-5.2h2.4V18.6
		c0-2.4-0.8-3.3-2.6-3.3c-2.1,0-3.8,1.3-5.2,2.7v12.9h2.4V36h-13.3v-5.2h1.8V14.9H364V9.1H374.4z"/>
</g>
<polygon fill="#FFFFFF" points="407.5,9.1 407.5,30.8 409.4,30.8 409.4,36 396.5,36 396.5,30.8 398.3,30.8 398.3,14.9 396.2,14.9 
	396.2,9.1 "/>
<rect x="398.8" y="-0.5" fill="#FFFFFF" width="8.7" height="7.8"/>
</svg>
