<?xml version="1.0" encoding="utf-8"?>
<!-- Generator: Adobe Illustrator 18.1.0, SVG Export Plug-In . SVG Version: 6.00 Build 0)  -->
<svg version="1.2" baseProfile="tiny" id="Layer_1" xmlns="http://www.w3.org/2000/svg" xmlns:xlink="http://www.w3.org/1999/xlink"
	 x="0px" y="0px" width="230.2px" height="193.8px" viewBox="-364 1183.2 230.2 193.8" xml:space="preserve">
<path fill="currentColor" stroke="currentColor" stroke-width="4" stroke-miterlimit="10" d="M-231.8,1319.4c3.9-9,11.7-11.2,20.3-11.9
	c4.6-0.3,9.2-0.1,13.8,1c6.1,1.5,10.2,5.1,11.5,11.4c0,0.2,0.2,0.4,0.3,0.6c0,0,0.1,0.1,0.2,0.1c3.7-9.7,11.8-12.5,21.1-13.2
	c4.4-0.3,8.8-0.2,13.1,0.8c8.1,1.9,12.1,6.4,13.2,14.5c0.4,3,0.5,6,0.5,9c0,13.7,0,27.4,0,41c0,1.2-0.1,1.8-1.6,1.8
	c-1.3,0-1.7-0.4-1.7-1.7c0.1-13.7,0-27.5,0-41.2c0-3.5-0.1-7-0.9-10.4c-1.2-5-4.3-8.4-9.3-9.7c-7.3-1.9-14.6-1.8-21.7,0.7
	c-6.5,2.3-9.7,7.4-11,13.9c-0.6,3-0.8,5.9-0.8,8.9c0,12.6,0,25.2,0,37.8c0,0.5,0.3,1.3-0.3,1.4c-0.8,0.2-1.8,0.3-2.7,0
	c-0.5-0.1-0.2-1-0.2-1.5c0-10.5,0-21,0-31.5c0-5.1,0.2-10.2-0.3-15.3c-0.1-1.3-0.2-2.5-0.5-3.7c-1.1-6-4.6-9.8-10.7-11.2
	c-6.2-1.3-12.4-1.3-18.5,0.3c-7.7,2-11.8,7.3-13.2,15c-0.5,2.8-0.8,5.6-0.8,8.4c0,12.7,0,25.3,0,38c0,1.3-0.3,1.7-1.6,1.7
	s-1.7-0.3-1.7-1.7c0.1-20.8,0-41.5,0-62.3c0-1,0-1.6,1.3-1.7c1.5-0.1,1.3,0.8,1.4,1.6c0.1,2.3,0.2,4.7,0.3,7
	C-232.2,1318.2-232.3,1318.8-231.8,1319.4z"/>
<path fill="currentColor" d="M-274,1233c-0.9-0.1-1.7-0.2-2.2-0.8c-1.3-1.6-3.1-1.4-4.9-1.4c-1.5,0-2.7-0.3-3.7-1.7c-1.3-1.7-3.4-2.2-5.2-3.3
	c-1-0.6-1.9-1.2-2.4-2.1c-0.7-1.3-1.8-2.1-2.9-2.5c-3.1-0.9-4.1-3.4-4.7-5.9c-0.5-2.1-1.8-2.7-3.4-2.8c-1.7-0.2-3.1-1.1-4.9-0.9
	c-0.5,0.1-1.4-0.2-1.3-0.9c0-1,0.4-1.9,1.1-2.7c1.2-1.5,3-1.9,4.7-1.7c2.8,0.3,5.6,0.1,8.4,0.8c0.4,0.1,1,0.1,1.4-0.2
	c4.4-3.2,9.5-3.2,14.5-2.8c4.7,0.4,8.5,3.2,12.3,5.7c3.2,2,4.7,5.2,6.3,8.3c0.6,1.2,1.7,2,2.1,3.4c0.7,2.5-0.7,4.1-2.2,5.4
	c-2.5,2.2-5.3,3.9-8.5,4.9C-271.1,1232.2-272.7,1232.7-274,1233z"/>
<path fill="currentColor" d="M-251.6,1236.7c2.2,0,4.1-0.7,6.1-0.9c3.9-0.3,7.7-0.6,11.5,0.8c1.6,0.6,3.1,1.1,4.8,1c0.3,0,0.9,0.1,1,0.3
	c0.5,1.8,2.3,1.7,3.4,2.6c2.5,1.7,4.5,3.9,6.1,6.4c0.6,1,0.9,2.1,1.8,2.9c0.5,0.4,0.3,1-0.1,1.6c-0.8,1.2-1.4,2.5-1.5,4.1
	c-0.2,3.3-2.5,4.6-6,4c-1.8-0.3-3,0-4.5,1c-4.7,3-9.7,3.4-14.7,0.7c-0.5-0.2-1-0.6-1.2-1.1c-0.9-2.2-3.1-2.8-4.8-4.1
	c-1.4-1.1-2.4-2.8-3.3-4.4c-1.5-2.4-3.3-4.5-5.3-6.4c-0.7-0.7-1.6-1.3-2.1-2.1c-1.3-1.9-0.2-4.4,2.6-5.3
	C-255.7,1237.2-253.6,1236.4-251.6,1236.7z"/>
<path fill="currentColor" d="M-217.6,1196.3c0.1,1.3,0.2,2.6,0.3,3.9c0.3,3-0.9,5.6-2.3,8.1c-1,1.9-1.8,3.8-3.2,5.5c-1.6,2-3.3,3.5-5.9,4
	c-1.7,0.4-3.3,1.1-4.9,2.3c-3.2,2.5-6.9,3.9-11.1,2.5c-0.4-0.1-0.9-0.3-1.2,0c-1.1,1.2-2.6,0.5-3.9,1.2c-0.9,0.5-1.9-0.7-1.7-2.1
	c0.7-4.4,2.7-8.2,5.1-11.7c1.5-2.2,2.7-4.5,4-6.7c1.6-2.7,3.3-5.2,5.5-7.5c1.2-1.3,1.3-3,1.5-4.6c0.4-3.9,2.8-6.2,6.4-7
	c1.9-0.4,3.5,0.7,4.9,2c0.5,0.4,1,0.9,1.4,1.3c1.8,2.1,4.1,3.7,4.9,6.6C-217.5,1195-217.6,1195.7-217.6,1196.3z"/>
<path fill="currentColor" stroke="currentColor" stroke-width="4" stroke-miterlimit="10" d="M-305,1323.4c-1.7-9.5-7.1-14.9-16.6-16.7
	c-4.8-0.9-9.7-0.8-14.5-0.3c-11.2,1.3-18.5,7.5-21,18.4c-2.4,10.4-2.3,21,0,31.4c2.1,9.5,8.1,15.2,17.6,17.3c4.4,1,8.9,1.2,13.4,1
	c7.1-0.3,13.7-2.5,19.6-6.6c0.6-0.4,1.8-0.7,0.7-1.8c-0.7-0.7-0.9-2.2-2.5-0.9c-2,1.7-4.3,3-6.8,4c-7.5,3-15.2,3-23,1.5
	c-8.5-1.7-13.8-7-15.9-15.4c-1.2-4.6-1.4-9.4-1.5-14.1c0-1.4,0.3-1.7,1.7-1.7c8,0,16.1,0,24.1,0c8.1,0,16.2,0,24.3,0
	c1.1,0.1,1.5-0.2,1.5-1.4C-304,1333.2-304.1,1328.3-305,1323.4z M-308.8,1336.5c-7.5,0-15,0-22.5,0c-7.4,0-14.9-0.1-22.3,0
	c-1.7,0-2-0.5-1.8-2c0.4-4,0.8-8,2.2-11.8c2.3-6.3,6.6-10.5,13-12.3c6.1-1.7,12.3-1.9,18.5-0.6c7.7,1.6,12,6.4,13.4,14.5
	c0.6,3.5,0.8,7,1.1,10.5C-307.1,1336.1-307.4,1336.5-308.8,1336.5z"/>
<path stroke="currentColor" stroke-width="4" stroke-miterlimit="10" d="M-276.3,1307.6c0-19,0-38,0-57c0-1.6,1.3-2.4,2.8-1.7
	c0.3,0.1,0.4,0.4,0.4,0.7c0,0.4,0,0.8,0,1.3c0,36.4,0,72.8,0,109.2c0,2.3-0.1,4.6,0.4,6.8c0.5,2.3,1.8,3.7,4.1,4.2
	c2,0.5,3.9,0.3,5.9,0.3c1.2,0,1.2,0.6,1.2,1.4c-0.1,0.8,0.3,1.7-1.1,1.7c-2.4-0.1-4.8,0-7.2-0.5c-3.5-0.7-5.4-2.9-6-6.3
	c-0.3-1.4-0.4-2.8-0.4-4.3C-276.3,1344.8-276.3,1326.2-276.3,1307.6z"/>
</svg>
