<?xml version="1.0" encoding="utf-8"?>
<!-- Generator: Adobe Illustrator 18.1.0, SVG Export Plug-In . SVG Version: 6.00 Build 0)  -->
<svg version="1.2" baseProfile="tiny" id="Layer_1" xmlns="http://www.w3.org/2000/svg" xmlns:xlink="http://www.w3.org/1999/xlink"
	 x="0px" y="0px" width="280px" height="69.2px" viewBox="-340.1 1269.7 280 69.2" xml:space="preserve">
<g>
	<g>
		<path fill="#FFFFFF" d="M-303.3,1270c-2.8-0.4-20.8-1.9-30.4,10.8c-4.6,5.8-1.4,12.8,9,12.8c-9.6,3.6-17.1,10.1-15,17.8
			c2.7,10.6,14.6,10.2,24,9.2c16.6-1.7,28-17.4,30.6-19.3c4,1.9,5.9,5.5,4.3,7.9c-4.4,0.1-16,1.1-15.6,7.2c0.5,6.1,18.9,5.4,29-1.4
			c1.5,0.5,4.4,1.9,5.9,3.2c1.5,1.1,3.2,0.1,3.3-4.7c-1.5-1.5-5.5-2.9-7.7-2.9c0.7-3.3,1.8-7.2-7.3-13.9c-1.5-0.8-1.4-1.8-0.1-2.6
			c1.1-0.8-0.1-2.8-3.3-3.7c-3.2-1-9.8-0.5-12,1.9c-1,1-1,4.4,0.7,5.5c-1.6,2.8-9.8,14.8-21.9,15.7c-4.4,0.5-9.4-0.1-9-6.6
			c0.3-5.4,8.5-10.2,11.5-11.5c1.8-0.8,1.5-3.4-0.8-4.1c-2.3-0.7-7.7-1-8-5.2c-0.3-4.3,5.1-7.3,13.8-9
			C-300,1276.5-300,1270.8-303.3,1270L-303.3,1270z"/>
		<path fill="#FFFFFF" d="M-281.5,1313.9c-2.8-0.5-9.9-0.5-9.9,1.8C-291.5,1318.1-283.6,1317.6-281.5,1313.9z"/>
		<path fill="#FFFFFF" d="M-233.4,1298.3c-2.6-0.3-11-1.4-12.1,6.7c-1.1,8,5.4,8.7,8,8.4c2.6-0.3,8-3.2,8-12.8
			c-0.1-5,1.8-6.7,6.1-6.9c4.3-0.1,6.2,0.8,6.2,5.2c0,4.4,0.1,37.7,0.1,39.2c-3.2,0-11.3,0.3-14.6,0.8c0.3-7.9,1.4-23.7,1.4-26.2
			c-2.1,3.2-6.2,7.7-13.9,7.6c-7.7-0.1-14.8-3.7-14.2-13.9c0.5-10.2,10.8-17.2,26.7-14.9C-229,1292-228.7,1298.9-233.4,1298.3z"/>
		<path fill="#FFFFFF" d="M-62.9,1313.8c-3.7-0.1-6.4,0.5-9.4,1c-2.9,0.5-7.6,1-11,0.1c-3.4-0.8-4.4-4.3-3.4-6.4s4.3-3.3,6.2-4
			s1.9-3.3-0.1-3.7c-2.1-0.5-5.1-1.4-5.1-3.2c0-1.8,2.6-4.3,10.8-3.6c3.2,0.3,2.3-5.1-1.1-5.9c-3.2-0.1-13.9,0.8-21.4,4.6
			c-3.7,1.9-4.4,7.3,5.5,9.2c-6.2,0.5-10.5,5.9-10.3,8.4c0,0.7-0.1,1.9,0.3,3.3c-1.6,1-3.6,1.4-5.9,1.2c-3.3-0.1-8.2-4.1-7.1-10.8
			c0.9-6,2.6-5.2,3.4-5.5c1.8,0,3.6-1,3.6-3.3c0-2.3,0.6-2.8-1.2-2.8s-13,1.7-21.4-0.2c-0.1-2.5-4.3-5.9-8.5-3.6
			c-4.3,2.3-3.2,7.6,1.8,8.8l1.1,0.3c-1.5,6.2-5,16.5-10.5,17.5c-3.2,0.7-5.1-1.5-4.7-6.6c0.3-5.1,1.4-14.6,1.4-14.6
			c0.3-4.1-14.6-4-14.5,1.1v16.2c0,0.3,0.1,0.9,0.2,1.4c-3.7,2.9-12.1,3.6-11.5-3.1l1.9-14.6c0.5-4.3-13.1-5.8-13.4,0.1l-0.1,11.8
			c0,0.7-0.1,1.5,0,2.4c-1.1,2-3.2,4-5.8,4.1c-3.7,0.1-5.9-0.3-5.5-5.1c0.3-4.7,1.5-13.8,1.5-13.8c0.3-4.3-13.2-4.3-13.6-0.5
			c-0.1,3.2-1,14.6-1.1,18.2c-0.1,3.6,5.4,8,13.2,7.7c6.9-0.3,9.4-2.3,12.2-6.1c1.4,3.4,4.5,6.3,11.3,6.1c2.6-0.1,6.4,0.7,12.5-4.1
			c1.6,2.1,4.4,4.2,8.5,4.4c7.3,0.3,13-0.3,16.8-8c3.4-6.7,4.5-9.4,5.3-13.7c3.4,0.7,6.8,1,10.2,1c-4,2.8-5.5,5.1-5.2,9.8
			c0.1,2.9,2.1,10.5,14.8,10.6c7.1,0.1,10.4-1.5,12.7-3.2c3.1,2.1,9.3,3.7,22.4,2.7c4.3-0.7,10.6-0.5,14.8-0.3
			C-59.3,1319.4-59.1,1313.9-62.9,1313.8z"/>
	</g>
</g>
</svg>
