<?xml version="1.0" encoding="utf-8"?>
<!-- Generator: Adobe Illustrator 18.1.0, SVG Export Plug-In . SVG Version: 6.00 Build 0)  -->
<svg version="1.2" baseProfile="tiny" id="Layer_1" xmlns="http://www.w3.org/2000/svg" xmlns:xlink="http://www.w3.org/1999/xlink"
	 x="0px" y="0px" width="230.2px" height="192.5px" viewBox="-358.9 1173.1 230.2 192.5" xml:space="preserve">
<path fill="currentColor" stroke="currentColor" stroke-width="4" stroke-miterlimit="10" d="M-224.8,1307.1c3.9-9,11.7-11.2,20.3-11.9
	c4.6-0.3,9.2-0.1,13.8,1c6.1,1.5,10.2,5.1,11.5,11.4c0,0.2,0.2,0.4,0.3,0.6c0,0,0.1,0.1,0.2,0.1c3.7-9.7,11.8-12.5,21.1-13.2
	c4.4-0.3,8.8-0.2,13.1,0.8c8.1,1.9,12.1,6.4,13.2,14.5c0.4,3,0.5,6,0.5,9c0,13.7,0,27.4,0,41c0,1.2-0.1,1.8-1.6,1.8
	c-1.3,0-1.7-0.4-1.7-1.7c0.1-13.7,0-27.5,0-41.2c0-3.5-0.1-7-0.9-10.4c-1.2-5-4.3-8.4-9.3-9.7c-7.3-1.9-14.6-1.8-21.7,0.7
	c-6.5,2.3-9.7,7.4-11,13.9c-0.6,3-0.8,5.9-0.8,8.9c0,12.6,0,25.2,0,37.8c0,0.5,0.3,1.3-0.3,1.4c-0.8,0.2-1.8,0.3-2.7,0
	c-0.5-0.1-0.2-1-0.2-1.5c0-10.5,0-21,0-31.5c0-5.1,0.2-10.2-0.3-15.3c-0.1-1.3-0.2-2.5-0.5-3.7c-1.1-6-4.6-9.8-10.7-11.2
	c-6.2-1.3-12.4-1.3-18.5,0.3c-7.7,2-11.8,7.3-13.2,15c-0.5,2.8-0.8,5.6-0.8,8.4c0,12.7,0,25.3,0,38c0,1.3-0.3,1.7-1.6,1.7
	s-1.7-0.3-1.7-1.7c0.1-20.8,0-41.5,0-62.3c0-1,0-1.6,1.3-1.7c1.5-0.1,1.3,0.8,1.4,1.6c0.1,2.3,0.2,4.7,0.3,7
	C-225.2,1305.9-225.3,1306.5-224.8,1307.1z"/>
<path fill="currentColor" d="M-269,1222c-0.9-0.1-1.7-0.2-2.2-0.8c-1.3-1.6-3.1-1.4-4.9-1.4c-1.5,0-2.7-0.3-3.7-1.7
	c-1.3-1.7-3.4-2.2-5.2-3.3c-1-0.6-1.9-1.2-2.4-2.1c-0.7-1.3-1.8-2.1-2.9-2.5c-3.1-0.9-4.1-3.4-4.7-5.9c-0.5-2.1-1.8-2.7-3.4-2.8
	c-1.7-0.2-3.1-1.1-4.9-0.9c-0.5,0.1-1.4-0.2-1.3-0.9c0-1,0.4-1.9,1.1-2.7c1.2-1.5,3-1.9,4.7-1.7c2.8,0.3,5.6,0.1,8.4,0.8
	c0.4,0.1,1,0.1,1.4-0.2c4.4-3.2,9.5-3.2,14.5-2.8c4.7,0.4,8.5,3.2,12.3,5.7c3.2,2,4.7,5.2,6.3,8.3c0.6,1.2,1.7,2,2.1,3.4
	c0.7,2.5-0.7,4.1-2.2,5.4c-2.5,2.2-5.3,3.9-8.5,4.9C-266.1,1221.2-267.7,1221.7-269,1222z"/>
<path fill="currentColor" d="M-246.6,1225.7c2.2,0,4.1-0.7,6.1-0.9c3.9-0.3,7.7-0.6,11.5,0.8c1.6,0.6,3.1,1.1,4.8,1c0.3,0,0.9,0.1,1,0.3
	c0.5,1.8,2.3,1.7,3.4,2.6c2.5,1.7,4.5,3.9,6.1,6.4c0.6,1,0.9,2.1,1.8,2.9c0.5,0.4,0.3,1-0.1,1.6c-0.8,1.2-1.4,2.5-1.5,4.1
	c-0.2,3.3-2.5,4.6-6,4c-1.8-0.3-3,0-4.5,1c-4.7,3-9.7,3.4-14.7,0.7c-0.5-0.2-1-0.6-1.2-1.1c-0.9-2.2-3.1-2.8-4.8-4.1
	c-1.4-1.1-2.4-2.8-3.3-4.4c-1.5-2.4-3.3-4.5-5.3-6.4c-0.7-0.7-1.6-1.3-2.1-2.1c-1.3-1.9-0.2-4.4,2.6-5.3
	C-250.7,1226.2-248.6,1225.4-246.6,1225.7z"/>
<path fill="currentColor" d="M-212.6,1185.3c0.1,1.3,0.2,2.6,0.3,3.9c0.3,3-0.9,5.6-2.3,8.1c-1,1.9-1.8,3.8-3.2,5.5c-1.6,2-3.3,3.5-5.9,4
	c-1.7,0.4-3.3,1.1-4.9,2.3c-3.2,2.5-6.9,3.9-11.1,2.5c-0.4-0.1-0.9-0.3-1.2,0c-1.1,1.2-2.6,0.5-3.9,1.2c-0.9,0.5-1.9-0.7-1.7-2.1
	c0.7-4.4,2.7-8.2,5.1-11.7c1.5-2.2,2.7-4.5,4-6.7c1.6-2.7,3.3-5.2,5.5-7.5c1.2-1.3,1.3-3,1.5-4.6c0.4-3.9,2.8-6.2,6.4-7
	c1.9-0.4,3.5,0.7,4.9,2c0.5,0.4,1,0.9,1.4,1.3c1.8,2.1,4.1,3.7,4.9,6.6C-212.5,1184-212.6,1184.7-212.6,1185.3z"/>
<path fill="#FEFEFE" stroke="currentColor" stroke-width="4" stroke-miterlimit="10" d="M-303,1312.4c-1.7-9.5-7.1-14.9-16.6-16.7
	c-4.8-0.9-9.7-0.8-14.5-0.3c-11.2,1.3-18.5,7.5-21,18.4c-2.4,10.4-2.3,21,0,31.4c2.1,9.5,8.1,15.2,17.6,17.3c4.4,1,8.9,1.2,13.4,1
	c7.1-0.3,13.7-2.5,19.6-6.6c0.6-0.4,1.8-0.7,0.7-1.8c-0.7-0.7-0.9-2.2-2.5-0.9c-2,1.7-4.3,3-6.8,4c-7.5,3-15.2,3-23,1.5
	c-8.5-1.7-13.8-7-15.9-15.4c-1.2-4.6-1.4-9.4-1.5-14.1c0-1.4,0.3-1.7,1.7-1.7c8,0,16.1,0,24.1,0c8.1,0,16.2,0,24.3,0
	c1.1,0.1,1.5-0.2,1.5-1.4C-302,1322.2-302.1,1317.3-303,1312.4z M-306.8,1325.5c-7.5,0-15,0-22.5,0c-7.4,0-14.9-0.1-22.3,0
	c-1.7,0-2-0.5-1.8-2c0.4-4,0.8-8,2.2-11.8c2.3-6.3,6.6-10.5,13-12.3c6.1-1.7,12.3-1.9,18.5-0.6c7.7,1.6,12,6.4,13.4,14.5
	c0.6,3.5,0.8,7,1.1,10.5C-305.1,1325.1-305.4,1325.5-306.8,1325.5z"/>
<path fill="currentColor" stroke="currentColor" stroke-width="4" stroke-miterlimit="10" d="M-271.3,1295.4c0-19,0-38,0-57
	c0-1.6,1.3-2.4,2.8-1.7c0.3,0.1,0.4,0.4,0.4,0.7c0,0.4,0,0.8,0,1.3c0,36.4,0,72.8,0,109.2c0,2.3-0.1,4.6,0.4,6.8
	c0.5,2.3,1.8,3.7,4.1,4.2c2,0.5,3.9,0.3,5.9,0.3c1.2,0,1.2,0.6,1.2,1.4c-0.1,0.8,0.3,1.7-1.1,1.7c-2.4-0.1-4.8,0-7.2-0.5
	c-3.5-0.7-5.4-2.9-6-6.3c-0.3-1.4-0.4-2.8-0.4-4.3C-271.3,1332.6-271.3,1314-271.3,1295.4z"/>
<path fill="#373435" d="M-166,1392c-1.6-0.8-2.3-2.6-1.7-4.7c0.5-1.6,1.9-1.8,3.3-1.7c0.2,0,0.4,0.1,0.5,0.1
	c1.3,0.4,1.5,1.5,1.5,2.6c0,1.4-1.2,0.6-1.8,0.7c-0.4,0.1-1-0.1-1.4,0c-0.5,0.1-1.5-0.5-1.5,0.6c0,0.9,0.4,1.7,1.5,1.8
	c1,0.2,1.8-0.6,2.7-0.3c-0.1,0.6-0.5,0.7-0.9,0.7C-164.4,1392.2-165.2,1392.2-166,1392z"/>
<path fill="#363334" d="M-181.3,1391.9c-1.4-0.8-2.1-3.2-1.4-4.8c0.7-1.5,2-1.7,3.5-1.4c0.5,0.1,1,0.3,1.3,0.8
	c0.5,0.7,0.7,1.5,0.4,2.2c-0.2,0.8-1.1,0.3-1.7,0.4c-0.3,0.1-0.7,0-1.1,0c-0.7,0.1-1.7-0.4-2.1,0.3c-0.4,0.8,0.6,1.4,1,2.1
	C-181.1,1391.6-181.1,1391.8-181.3,1391.9z"/>
<path fill="#474545" d="M-214.4,1383.3c0.1,0,0.2,0,0.4,0c0.3,2.9,0.3,5.7,0,8.6c-0.6-0.2-1.2,0-1.8,0.2c-1.2,0.3-2.4,0.3-3.3-0.8
	c0.1-0.3,0.2-0.4,0.5-0.5c1.3,0.2,2.7,0.9,3.5-0.8c0.3-0.7,0.4-1.5,0-2.2c-0.8-1.6-2.5-0.7-3.7-1.2c-0.1-0.2,0-0.3,0.1-0.5
	c0.2-0.4,0.6-0.3,0.9-0.3c0.7-0.2,1.4-0.2,2.1,0c0.3,0.1,0.6,0.2,1,0.3C-214.3,1385.3-215,1384.2-214.4,1383.3z"/>
<path fill="#2E2C2D" d="M-238.3,1391.7c-0.9,0.5,0.1,1.6-0.8,2.2c-0.6-0.4-0.4-1-0.4-1.5c0-1.8,0.1-3.7,0-5.5
	c-0.1-1.2,0.5-1,1.2-0.7c0.4-0.2,0.5,0,0.6,0.3c-0.4,1.6-0.6,3.2,0,4.8C-237.8,1391.6-238,1391.8-238.3,1391.7z"/>
<path fill="#3E3B3C" d="M-314.5,1391.9c-1-1.9-0.3-3.9-0.3-5.8c0-0.2,2.1-0.7,3.3-0.5c0.8,0.1,1.6,0.5,1.6,1.4
	c0.1,1.6,0.2,3.3-0.2,5.3c-0.8-1.4-0.4-2.6-0.5-3.7c-0.1-0.9,0.1-2-1.2-2.3c-1.2-0.2-2.2,0-2.6,1.3
	C-314.6,1389-314.1,1390.5-314.5,1391.9z"/>
<path fill="#3B393A" d="M-296.2,1385.9c3.1-0.7,3.8-0.2,3.8,2.9c0,0.9-0.4,1.9,0.5,2.7c0.2,0.2,0.1,0.3,0,0.4
	c-0.4,0.2-0.8,0.1-1-0.4c-0.4-0.1-0.6-0.4-0.7-0.7c0.2-1.4-0.6-1.8-1.9-1.6c-0.5,0.1-1,0.2-1.5-0.1c-0.1-0.2-0.1-0.3,0-0.5
	c0.2-0.5,0.6-0.3,1-0.3c0.6-0.3,1.3,0,1.9-0.3c0.3-0.2,0.9,0.1,0.9-0.5c0-0.4-0.2-0.8-0.6-1c-0.5-0.3-1.1-0.2-1.7-0.3
	C-295.7,1386.3-296.1,1386.6-296.2,1385.9z"/>
<path fill="#424141" d="M-281.3,1385.9c1.9,0.1,1.1-1.4,1.7-2.4c0.3,1.3,0.2,2.7,2.2,2.5c-2.7,0.3-1.8,2.1-1.9,3.5
	c-0.1,1.2,0.2,2.1,1.8,2.1c-2.1,0.7-2.4,0.4-2.5-1.5c0-0.8,0-1.6,0-2.3C-280.1,1386.7-280.1,1386.7-281.3,1385.9z"/>
<path fill="#393838" d="M-286,1391.6c-1.4,0.9-2.8,0.9-4-0.2c-1-0.9-1-4,0-5c1.2-1.1,2.6-1.1,4-0.3c-0.1,0.3-0.2,0.4-0.5,0.5
	c-2.4,0-3.3,0.7-3,2.5c0.2,1.4,0.8,1.8,3,1.8C-286.3,1391.2-286.1,1391.4-286,1391.6z"/>
<path fill="#2E2C2D" d="M-302.3,1391.7c-2.3,0.4-2.3,0.3-2.5-1.9c-0.1-1.2,1-2.8-0.9-3.5v-0.4c1.6,0.1,0.5-1.7,1.5-2.2
	c0.1,1.2,0.1,2.6,2.1,2.3c-3.3,0.4-1.6,2.8-2,4.3C-304.3,1391.5-303.2,1391.5-302.3,1391.7z"/>
<path fill="#323031" d="M-332.9,1385.9c1.2,0,2.4-0.5,3.5,0.7c0.6,0.7,0.6,1.5,0.5,2.2c-0.2,0.8-1,0.3-1.5,0.4c-0.6,0.1-1.3,0.1-2,0
	c-1.2-0.2-1.3,0.4-1.1,1.3c0.1,0.4-0.1,0.5-0.4,0.5c-0.6-1.3-0.6-2.6,0-3.9c0.3-0.1,0.5,0.1,0.6,0.3c0.7,0.9,1.7,0.7,2.6,0.5
	c0.2,0,0.3-0.3,0.2-0.4c-0.4-0.8-1.4-0.6-2.1-0.9C-332.8,1386.3-333,1386.2-332.9,1385.9z"/>
<path fill="#333132" d="M-144.1,1386.1c1.8,2.1,1.5,4.8-0.7,5.9c-0.7,0.2-1.4,0.2-2.1,0c-2.3-0.8-2.8-3.7-0.9-5.9
	c0.1,0.1,0.2,0.2,0.3,0.4c0.2,0.7-0.1,1.3-0.1,1.9c-0.1,1-0.1,2,1,2.4c1,0.5,1.8,0.1,2.4-0.8c0.4-0.7,0.4-1.5,0.1-2.2
	c-0.2-0.5-0.5-0.9-0.5-1.4C-144.6,1386.1-144.4,1386-144.1,1386.1z"/>
<path fill="#3F3D3E" d="M-352.4,1387.4c0-1.1,0.6-1.6,1.7-1.6c0.7-0.2,1.4-0.2,2.1,0c0.3,0,0.6,0,0.7,0.3c-0.1,0.3-0.2,0.5-0.5,0.6
	c-0.3,0.1-0.6,0.1-0.9,0.1c-1.1-0.2-1.9,0.1-2.2,1.3c-0.2,1-0.3,2.1,0.8,2.7c1,0.6,1.9,0.3,2.6-0.6c0.1-0.2,0.3-0.3,0.6-0.4
	c0.5,0.1,0.3,0.6,0.5,0.8c-0.4,1.6-1.7,1.8-3.1,1.7c-1.1-0.1-2.3-0.3-2.3-1.8C-352.6,1389.4-352.6,1388.4-352.4,1387.4z"/>
<path fill="#4D4C4C" d="M-265.6,1386.2c2.8-1.4,4.3-0.5,4.2,2.5c0,1.1,0.3,2.3-0.4,3.6c-0.8-1.1-0.4-2.2-0.5-3.1
	c-0.1-2.8-0.3-3.1-3-2.5C-265.4,1386.4-265.6,1386.4-265.6,1386.2z"/>
<path fill="#343233" d="M-157.6,1388c0.4-0.1,0.8-0.1,0.7-0.7s-0.5-0.8-0.9-1c-0.9-0.3-1.8,0.3-2.8,0.1c1-0.9,2.2-1,3.4-0.6
	c1.1,0.3,1,1.3,1,2.2c0.1,1.3-0.5,2.7,0.7,3.8c-0.7,0.6-1.1-0.4-1.7-0.2c-0.3,0.2-0.4,0-0.5-0.2c0-0.8,0.5-1.5,0.4-2.3
	C-157.3,1388.7-157.7,1388.4-157.6,1388z"/>
<path fill="#363435" d="M-344,1391.9c-1.9-0.9-1.5-2.6-1.4-4.1c0.1-1.1,0.7-1.9,1.9-2.1c1.4-0.2,2.7-0.4,3.5,1.2
	c-0.1,0.2-0.2,0.5-0.5,0.5c-1.1-0.3-2.2-1.3-3.2,0c-0.9,1.2-0.5,2.5,0.2,3.7c0.1,0.1,0.1,0.2,0.1,0.3
	C-343.6,1391.7-343.8,1391.8-344,1391.9z"/>
<path fill="#343232" d="M-225.9,1390.9c-0.6-1.5-0.7-2.9,0.3-4.3c0.3,0.1,0.4,0.2,0.5,0.5c0.3,1.2,1.2,0.9,2,0.9s0.9-0.6,1-1.2
	c0.1-0.3,0.2-0.4,0.5-0.5c1,0.6,1,1.7,0.7,2.5c-0.2,0.7-1.2,0.2-1.8,0.3s-1.2,0.1-1.8,0c-1.1-0.2-1.1,0.5-1,1.3
	C-225.4,1390.8-225.6,1390.9-225.9,1390.9z"/>
<path fill="#2F2D2E" d="M-208.4,1391.6c-0.3-0.2-1.1,1-1.1-0.3c0-2.7,0-5.4,0-8.4c1.4,1,0,2.5,1.2,3.2c0.4-0.1,0.5,0.1,0.5,0.4
	c-0.6,1.6-0.5,3.1,0,4.7C-207.9,1391.6-208,1391.8-208.4,1391.6z"/>
<path fill="#363435" d="M-286,1391.6c-0.1-0.1-0.3-0.2-0.4-0.4c0.3-1.6,0.3-3.2,0-4.7c0.1-0.1,0.3-0.2,0.4-0.4c1-0.8-0.1-2,0.8-3
	c0.5,0.5,0.3,1.2,0.3,1.8c0,2-0.1,4,0,6.1C-284.8,1392.2-285.4,1391.8-286,1391.6z"/>
<path fill="#3D3B3C" d="M-251.5,1386.2c0.6-0.2,1.2-0.4,1.9-0.5c2-0.2,2.8,0.4,2.8,2.4c0,1.2-0.1,2.5-0.1,3.7c0,0.1-0.2,0.1-0.6,0.3
	c0-1.1,0-2.2,0-3.2c0-2.8-1.1-3.4-3.5-1.9C-251.5,1386.8-251.7,1386.6-251.5,1386.2z"/>
<path fill="#3B3839" d="M-323.1,1386.2c1-0.8-0.1-2.1,1.1-3.3c0,1.5,0,2.6,0,3.6c0,1.6-0.1,3.1,0,4.7c0.1,1.4-0.7,0.4-1.1,0.6
	c-0.4,0.2-0.5,0-0.6-0.3c0.5-1.6,0.5-3.2,0-4.8C-323.6,1386.2-323.5,1386-323.1,1386.2z"/>
<path fill="#3E3B3C" d="M-141,1386.2c0.6-0.2,1.2-0.5,1.9-0.5c2-0.2,2.8,0.5,2.8,2.4c0,1.3,0.3,2.6-0.2,3.9c-0.2,0-0.3,0-0.5,0
	c0-1,0-2,0-3c0-2.8-1.1-3.3-3.5-1.9C-141,1386.8-141.2,1386.6-141,1386.2z"/>
<path fill="#292727" d="M-188.1,1386.6c-1.2,1.6-0.4,3.6-1.1,5.3c0-2.9,0-5.7,0-8.9c0.8,1.2-0.1,2.4,0.7,3.3
	C-188.3,1386.2-188.2,1386.4-188.1,1386.6z"/>
<path fill="#282626" d="M-188.1,1386.6c-0.1-0.1-0.3-0.2-0.4-0.4c3-1.4,4.3-0.6,4.3,2.6c0,1.1,0,2.1-0.3,3.2c-0.6-1-0.4-2-0.4-3
	C-185,1386.3-185.4,1385.9-188.1,1386.6z"/>
<path fill="#3D3B3C" d="M-237.9,1386.5c-0.2-0.1-0.3-0.2-0.5-0.4c1.3-0.8,2.7-0.8,3.9,0.1c1,0.8,1,3.1,0.2,5
	c-0.3,0.1-0.5-0.1-0.6-0.3c-0.1-0.2-0.1-0.3-0.1-0.5C-234.8,1387.1-234.8,1387.1-237.9,1386.5z"/>
<path fill="#3C3A3A" d="M-323.5,1391.3c0.1,0.1,0.3,0.2,0.4,0.4c-1.3,0.9-2.7,0.9-3.9-0.1c-1.1-0.9-1.1-3.2-0.2-5
	c0.3-0.1,0.5,0.1,0.6,0.3c0,0.1,0.1,0.2,0.1,0.3C-326.7,1390.7-326.7,1390.7-323.5,1391.3z"/>
<path fill="#403E3F" d="M-356,1391.9c0-1.3,0-2.6,0-3.9c0-2.3,0.1-2.4,3.2-2c-3.7,0.9-1.9,3.9-2.7,5.9
	C-355.7,1391.9-355.9,1391.9-356,1391.9z"/>
<path fill="#2F2E2E" d="M-170.1,1385.8c0.5,0,0.8,0.2,0.9,0.6c-0.6,0.4-1.1-0.2-1.6-0.2c-0.7,0-1.7-0.2-1.9,0.8
	c-0.2,1.1,0.7,1.4,1.5,1.5c1.4,0.1,2.6,0.5,2.3,2.3c-0.7,0.2-0.4-0.5-0.6-0.7c-0.7-1-1.8-1-2.8-1.3c-0.9-0.3-1.3-0.8-1.2-1.6
	c0.1-0.8,0.3-1.6,1.3-1.5C-171.4,1385.6-170.7,1385.6-170.1,1385.8z"/>
<path fill="#3F3E3E" d="M-229.7,1391.9c0-1.9,0-3.7,0-5.6c0-0.8,0.3-0.2,0.7-0.2c0.7,0,1.3-0.6,2.5-0.2c-3.6,1-2,3.9-2.6,6
	C-229.3,1392-229.5,1391.9-229.7,1391.9z"/>
<path fill="#292728" d="M-269.2,1391.6c-1.9,0.9-3.5,0.7-4.4-0.6c-1-1.5-0.7-3.5,0.7-4.9c0.3-0.2,0.5,0,0.6,0.3
	c0,0.5-0.4,0.9-0.5,1.4c-0.3,0.8-0.3,1.5,0,2.3c0.7,1.6,2.1,0.9,3.3,1C-269.2,1391.2-269,1391.3-269.2,1391.6z"/>
<path fill="#312F30" d="M-192.5,1391.2c0.5,0.2,1.1,0.3,1.8,0.5c-2.3,0.5-2.4,0.3-2.7-1.6c-0.2-1.3,1-2.9-0.9-3.8
	c-0.2-0.1-0.1-0.5,0.2-0.5c1.3-0.1,0.6-1.2,0.9-1.8c1.1,0.2-0.1,1.4,0.8,1.7c0.4,0.2,1.1-0.5,1.3,0.4c-1.2,0.1-1.8,0.5-1.6,1.9
	C-192.5,1389.1-192.9,1390.2-192.5,1391.2z"/>
<path fill="#383536" d="M-133.1,1388.4c0.5,0.1,1,0.2,1.6,0.3c0.8,0.2,1.2,0.8,1.3,1.5c0,0.8-0.1,1.7-1.2,1.8
	c-0.8,0.2-1.6,0.2-2.4,0c-0.5,0-1.1,0-1.3-0.7c0.8-0.3,1.5,0.3,2.3,0.3c0.9,0,1.8-0.2,1.9-1.2c0.2-1-0.8-1-1.4-1.2
	c-0.4-0.2-0.9,0-1.2-0.4C-133.5,1388.5-133.3,1388.5-133.1,1388.4z"/>
<path fill="#333132" d="M-336.9,1390.9c0.1,1.2,1.2,0.3,1.6,0.8c-1.8,0.6-2.3,0.4-2.3-1.4c0-0.9,0.4-2.1-0.1-2.6
	c-1-1.3-0.1-2.2,0.1-3.2c1,0.1,0.1,1.2,0.8,1.4c0.4,0.1,1.1-0.4,1.3,0.4c-1.3,0-1.8,0.7-1.6,2
	C-336.9,1389.1-337.2,1390-336.9,1390.9z"/>
<path fill="#2E2B2C" d="M-251.5,1386.2c0.1,0.3,0.3,0.5,0.4,0.8c-0.6,1.6-0.2,3.3-0.6,4.9c-0.3-2-0.5-4-0.1-6c0,0,0.1,0,0.2,0
	C-251.6,1386-251.6,1386.1-251.5,1386.2z"/>
<path fill="#252223" d="M-265.6,1386.2c0.1,0.1,0.3,0.3,0.4,0.4c-1,0.9-0.6,2.1-0.7,3.2c-0.1,0.7,0.2,1.5-0.7,2.2
	c0-1.9-0.1-3.9,0-5.8C-266.5,1385.4-266,1386.2-265.6,1386.2z"/>
<path fill="#343233" d="M-133.1,1388.4c-0.2,0.1-0.3,0.3-0.5,0.4c-1.1-0.1-1.4-0.8-1.3-1.7c0.1-1,0.8-1.3,1.6-1.4c1-0.1,2-0.1,3,0.6
	c-0.9,0.5-1.5-0.2-2.2-0.1c-0.6,0.1-1.4,0-1.6,0.8C-134.4,1387.9-133.7,1388.1-133.1,1388.4z"/>
<path fill="#423F40" d="M-296.9,1388.6c0,0.2,0,0.3,0.1,0.5c0.9,1.9,0.9,1.9,3.5,1.6c0.1,0.3,0.3,0.5,0.4,0.8
	c-0.9,0.3-1.7,0.9-2.7,0.7c-0.8-0.1-1.6-0.2-1.9-1.1C-297.7,1390.3-298,1389.3-296.9,1388.6z"/>
<path fill="#4A4848" d="M-242,1385.8c0.5,0,0.7,0.2,0.9,0.7c-0.7,0.4-1.2-0.2-1.8-0.2c-0.7,0-1.5-0.2-1.7,0.8
	c-0.1,1,0.6,1.1,1.4,1.3c0.3,0.1,0.5,0.2,0.8,0.3c-0.3,0.4-0.8,0.1-1.1,0.3c-1.1-0.1-1.9-0.5-1.9-1.8c0-0.9,0.2-1.5,1.3-1.4
	C-243.4,1385.6-242.7,1385.6-242,1385.8z"/>
<path fill="#353333" d="M-241.4,1389.1c1.2,1.3,0.9,2.6-0.7,3c-1.3,0.3-2.4,0.1-3.7-0.7c1.1-0.4,1.9,0.3,2.7,0.2
	c1.5-0.1,1.9-0.6,1.3-2.2C-241.8,1389.2-241.6,1389.2-241.4,1389.1z"/>
<path fill="#333131" d="M-340.5,1387.4c0.1-0.2,0.3-0.3,0.4-0.5c1,2.5,0.5,4.2-1.4,5.1c-0.8,0.2-1.5,0.2-2.3,0h-0.2l-0.1-0.1
	c0.2-0.1,0.3-0.3,0.5-0.4C-341.1,1391.2-341,1389.2-340.5,1387.4z"/>
<path fill="#343233" d="M-205.1,1385.9c1.9,1.3,2,3.9,0.4,5.7c-0.3,0.2-0.5,0-0.6-0.3c0.5-1.7,0.7-3.4-0.6-4.9
	C-205.8,1385.9-205.3,1386.1-205.1,1385.9z"/>
<path fill="#221F20" d="M-282.6,1385.9c0,2,0,4,0,6C-283.2,1389.9-283.2,1387.9-282.6,1385.9z"/>
<path fill="#333131" d="M-299.7,1387c-1,1.6,0,3.4-0.8,5c-0.4-2-0.6-4-0.1-6.1c0,0,0.1,0,0.1,0.1l0.1,0.1
	C-300.4,1386.5-299.5,1386.3-299.7,1387z"/>
<path fill="#212020" d="M-317.3,1385.9c0.6,2,0.6,4,0,6C-317.3,1389.9-317.3,1387.9-317.3,1385.9z"/>
<path fill="#211F20" d="M-232,1391.9c0-2,0-4,0-6c0.1,0,0.2,0,0.3,0c0,2,0,4,0,6C-231.8,1391.9-231.9,1391.9-232,1391.9z"/>
<path fill="#242323" d="M-141,1386.2c0.1,0.3,0.3,0.5,0.4,0.8c-0.6,1.6-0.2,3.3-0.6,4.9c-0.4-2-0.5-4-0.1-6c0,0,0.1,0,0.2,0
	C-141.1,1386-141.1,1386.1-141,1386.2z"/>
<path fill="#353334" d="M-269.2,1391.6c-0.1-0.1-0.3-0.3-0.4-0.4c0.2-1.4,0.3-2.9,0.1-4.3c0-0.2,0.2-0.3,0.3-0.5
	C-267.6,1387.7-267.6,1390-269.2,1391.6z"/>
<path fill="#444242" d="M-218.8,1386.1c0,0.2,0.1,0.4,0.1,0.6c0.4,1.4,0.2,2.7,0,4.1c-0.1,0.2-0.3,0.3-0.4,0.5
	C-220.2,1389.5-220.1,1387.7-218.8,1386.1z"/>
<path fill="#525051" d="M-214.1,1391.9c0-2.9,0-5.7,0-8.6C-213.7,1386.2-213.7,1389.1-214.1,1391.9z"/>
<path fill="#4D4C4C" d="M-221.7,1386.2c-0.1,0.1-0.2,0.2-0.4,0.3c-1.1,0.3-2.1,0.4-3.2,0.4c-0.1-0.1-0.3-0.3-0.4-0.4
	C-224.4,1385.3-223.1,1385.2-221.7,1386.2z"/>
<path fill="#222020" d="M-276,1391.9c0-2,0-4.1,0-6.1c0.1,0,0.2,0,0.4,0c0,2,0,4.1,0,6.1C-275.7,1391.9-275.9,1391.9-276,1391.9z"/>
<path fill="#231F21" d="M-254,1385.9c0,2,0,4,0,6c-0.1,0-0.2,0-0.3,0c0-2,0-4,0-6C-254.2,1385.9-254.1,1385.9-254,1385.9z"/>
<path fill="#4B4A4A" d="M-326.7,1387c-0.1-0.2-0.3-0.3-0.4-0.5c1.2-1.3,2.6-1.2,4.1-0.4c-0.1,0.1-0.3,0.3-0.4,0.4
	C-324.6,1386.9-325.7,1386.9-326.7,1387z"/>
<path fill="#4F4E4E" d="M-234.7,1390.8c0.1,0.2,0.3,0.3,0.4,0.5c-1.2,1.4-2.6,1.2-4.1,0.4c0.2-0.1,0.3-0.3,0.5-0.4
	C-236.8,1391.1-235.7,1390.9-234.7,1390.8z"/>
<path fill="#444242" d="M-151.2,1391.5c1.1-1.2,0.5-1.9-0.7-2.4c0.2-0.3,0.5-0.1,0.8-0.3c1.5,0.9,1.7,1.8,0.4,3.1
	C-150.9,1391.8-151.2,1391.8-151.2,1391.5z"/>
<path fill="#424040" d="M-225.9,1390.9c0.1-0.2,0.3-0.3,0.4-0.5c1,1.7,2.6,1.2,4.2,0.7c-0.2,0.7-0.4,0.9-0.9,0.9
	c-0.8,0.2-1.6,0.2-2.4,0C-225.3,1391.9-225.7,1391.5-225.9,1390.9z"/>
<path fill="#454344" d="M-334,1390.9c0.1-0.2,0.3-0.3,0.4-0.5c1.1,1.6,2.6,1.2,4.3,0.7c-0.2,0.7-0.4,0.9-0.9,0.9
	c-0.8,0.2-1.6,0.2-2.4,0C-333.3,1391.9-333.8,1391.5-334,1390.9z"/>
<path fill="#454343" d="M-157.6,1391.3c0.1,0.1,0.3,0.2,0.4,0.4c-1.2,0.8-2.4,1-3.7,0c-0.2-0.4,0.1-0.5,0.3-0.6
	C-159.5,1391.1-158.5,1390.9-157.6,1391.3z"/>
<path fill="#413E3F" d="M-153.6,1388.7c-1.5-1.1-1.5-1.7,0-2.8c0.2,0.1,0.4,0.1,0.5,0.4c-1,0.7-1,1.3,0,2
	C-153.2,1388.5-153.4,1388.6-153.6,1388.7z"/>
<path fill="#424141" d="M-205.1,1391.2c0.1,0.1,0.3,0.3,0.4,0.4c-1.2,1-2.5,0.8-3.7,0c0.1-0.1,0.3-0.2,0.4-0.4
	C-207,1391-206.1,1391-205.1,1391.2z"/>
<path fill="#2F2D2E" d="M-153.1,1386.3c-0.2-0.1-0.3-0.3-0.5-0.4c1.2-0.4,2.3-0.3,3.3,0.7C-151.2,1386.4-152.2,1386.4-153.1,1386.3z
	"/>
<path fill="#3C3A3B" d="M-192.5,1391.2c-0.8-1.4-0.4-3-0.3-4.5c0.1-0.9,1-0.5,1.6-0.6c-1,0.2-1.6,0.6-1.4,1.8
	C-192.4,1389.1-192.5,1390.2-192.5,1391.2z"/>
<path fill="#3C3A3B" d="M-336.9,1390.9c-0.6-1.3-0.3-2.7-0.2-4c0.1-1.1,1.1-0.6,1.7-0.7c-1.2,0.2-1.6,0.8-1.5,2
	C-336.8,1389.1-336.9,1390-336.9,1390.9z"/>
<path fill="#434142" d="M-157.6,1388c0.2,0.2,0.5,0.5,0.7,0.7c-0.9,0.7-2,0.5-3.1,0.5c-0.3-0.1-0.5-0.3-0.6-0.6
	C-159.7,1388-158.6,1388-157.6,1388z"/>
<path fill="#393737" d="M-169.4,1390.2c0.2,0.2,0.4,0.5,0.6,0.7c-0.1,0.7-0.6,1-1.2,1.1c-0.8,0.2-1.6,0.2-2.4,0
	c-0.2-0.1-0.8,0-0.4-0.3c0.5-0.3,1.3,0,1.9-0.1C-170.1,1391.5-169.4,1391.2-169.4,1390.2z"/>
<path fill="#221F20" d="M-200.8,1390.8c0.3-0.1,0.8-0.1,0.9-0.6c0.6,0,0.5,0.4,0.3,0.7c-0.1,0.6-0.3,1.3-0.7,1.8
	c-0.3,0.1-0.5,0-0.4-0.4C-200.6,1391.8-201.2,1391.4-200.8,1390.8L-200.8,1390.8z"/>
<path fill="#2F2C2D" d="M-160.5,1388.7c0.1,0.1,0.3,0.2,0.4,0.4c-0.1,0.7-0.1,1.5-0.3,2.2c-0.1,0.1-0.3,0.3-0.4,0.4
	C-161.7,1390.6-161.6,1389.6-160.5,1388.7z"/>
<path fill="#444243" d="M-200.8,1390.8L-200.8,1390.8l-0.2,0.1c-0.7-0.7-0.9-1.6-1.2-2.5c0.1-0.2,0.1-0.4,0.4-0.5
	C-201.3,1388.8-200.7,1389.7-200.8,1390.8z"/>
<path fill="#2D2B2C" d="M-205.1,1385.9c-0.3,0.1-0.5,0.2-0.8,0.3c-0.6,0.5-1.3,0.8-2.1,0.3c-0.1-0.1-0.2-0.2-0.3-0.3
	C-207.3,1385.4-206.2,1385.5-205.1,1385.9z"/>
<path fill="#222020" d="M-151.2,1391.5c0.2,0.1,0.3,0.3,0.5,0.4c-1.1,0.5-2.1,0.4-3.2,0c0-0.7,0.4-0.5,0.8-0.4
	C-152.5,1391.5-151.9,1391.5-151.2,1391.5z"/>
<path fill="#272526" d="M-347,1390.5c-0.1-0.3-0.3-0.5-0.4-0.8c-0.4-0.5-0.4-1.1-0.3-1.7c0.1-0.4,0.2-0.8,0.7-0.8
	C-346.6,1388.4-346.6,1389.4-347,1390.5z"/>
<path fill="#3C3A3B" d="M-147.8,1386.6c0-0.2,0-0.4-0.1-0.5c0.2-0.5,0.6-0.3,1-0.3c0.7-0.2,1.3-0.2,2,0c0.3,0,0.6,0,0.8,0.3
	c-0.2,0.1-0.3,0.3-0.5,0.4C-145.7,1386.9-146.7,1386.8-147.8,1386.6z"/>
<path fill="#403E3E" d="M-269.1,1386.5c0,0.2,0,0.3-0.1,0.5c-1.1-0.1-2.2-0.3-3.2-0.5c-0.1-0.1-0.3-0.2-0.4-0.4
	c0.1-0.3,0.4-0.3,0.7-0.3c0.7-0.2,1.4-0.2,2,0C-269.6,1385.7-269.4,1386.1-269.1,1386.5z"/>
<path fill="#211F20" d="M-181.3,1391.9c0-0.1,0-0.3,0-0.4c0.8,0,1.6,0,2.4,0.1c0.4-0.2,0.5,0.1,0.4,0.4
	C-179.4,1392.4-180.4,1392.4-181.3,1391.9z"/>
<path fill="#494748" d="M-199.7,1390.9c-0.1-0.2-0.2-0.5-0.3-0.7c0.3-0.8,0.6-1.5,0.9-2.3c0.3,0,0.3,0.3,0.4,0.5
	C-198.9,1389.2-199.1,1390.1-199.7,1390.9z"/>
<path fill="#363435" d="M-201.8,1387.9c-0.1,0.2-0.3,0.3-0.4,0.5c-0.4-0.8-0.7-1.6-1.1-2.5C-202,1386-202,1387.1-201.8,1387.9z"/>
<path fill="#545253" d="M-299.7,1387c-0.1-0.4-0.7-0.4-0.7-0.9c0.8,0.3,1.5-0.8,2.4-0.1C-298.3,1386.7-299.3,1386.4-299.7,1387z"/>
<path fill="#434041" d="M-314.5,1391.9c0.1-1.4-0.3-2.9,0.3-4.2C-314.5,1389.1-314,1390.5-314.5,1391.9z"/>
<path fill="#211F20" d="M-153.6,1388.7c0.1-0.1,0.3-0.3,0.4-0.4c0.7,0.2,1.4,0.3,2.1,0.5c-0.3,0.1-0.5,0.2-0.8,0.3
	C-152.5,1389.1-153.1,1389-153.6,1388.7z"/>
<path fill="#353333" d="M-259.3,1392.8c-0.2-0.7-0.9-1.2-0.4-1.8c0.1-0.1,0.4-0.1,0.5,0C-258.7,1391.5-258.8,1392-259.3,1392.8z"/>
<path fill="#525051" d="M-214.4,1383.3c0,0.9-0.1,1.9-0.1,2.8l-0.1,0.1c-0.1,0-0.1-0.1-0.2-0.1
	C-214.5,1385.2-215.1,1384.2-214.4,1383.3z"/>
<path fill="#343233" d="M-347,1387.3c-0.1,0.3-0.2,0.5-0.3,0.8c-0.8-0.2-0.9-0.9-1-1.5c0.2-0.1,0.3-0.3,0.5-0.4
	C-347.3,1386.3-347.1,1386.7-347,1387.3z"/>
<path fill="#3E3D3D" d="M-200.8,1393.4c-0.5,0.7-1,0.7-1.9,0.3c0.6-0.3,1.1-0.4,1.5-0.6C-200.9,1393.1-200.8,1393.2-200.8,1393.4z"
	/>
<path fill="#3C3A3B" d="M-336.7,1385.8c-0.7-0.2-0.3-1.1-0.8-1.4c0-0.2-0.1-0.5,0.2-0.6c0.3-0.1,0.4,0.1,0.4,0.4
	C-336.8,1384.7-336.8,1385.3-336.7,1385.8z"/>
<path fill="#757575" d="M-317.1,1385.1c-0.3-0.5-0.5-0.9-0.1-1.3h0.3C-316.6,1384.2-316.5,1384.6-317.1,1385.1z"/>
<path fill="#333232" d="M-275.4,1384.2c0,0.4-0.1,0.7-0.4,0.7c-0.3,0-0.4-0.3-0.4-0.5c0-0.3,0-0.6,0.4-0.6
	C-275.6,1383.8-275.5,1384.1-275.4,1384.2z"/>
<path fill="#434242" d="M-333.5,1387.4c-0.1-0.2-0.3-0.3-0.4-0.5c0.2-0.5,0.5-0.9,1-1.1c0.2,0.1,0.3,0.3,0.5,0.4
	C-332.4,1387-332.8,1387.3-333.5,1387.4z"/>
<path fill="#3A3838" d="M-198.6,1388.3c-0.1-0.2-0.3-0.3-0.4-0.5c0.2-0.4,0.3-0.9,0.5-1.3c0.4,0,0.5,0.1,0.4,0.5
	C-198.3,1387.5-198.5,1387.9-198.6,1388.3z"/>
<path fill="#232021" d="M-241.4,1389.1c-0.1,0.1-0.3,0.2-0.4,0.4c-0.6-0.1-1.2-0.3-1.7-0.4c0.3-0.4,0.7-0.2,1.1-0.3
	C-242.1,1388.7-241.7,1388.8-241.4,1389.1z"/>
<path fill="#423F40" d="M-352.4,1387.4c0,1,0,2,0,2.9C-352.8,1389.4-352.8,1388.4-352.4,1387.4z"/>
<path fill="#605E5F" d="M-153.2,1391.6c-0.2,0.1-0.6,0-0.8,0.4c-0.4,0-1-0.2-0.7-0.6C-154.2,1390.7-153.7,1391.3-153.2,1391.6z"/>
<path fill="#3C3A3B" d="M-192.4,1385.8c-0.9-0.3-0.2-1.3-0.8-1.7c0.2-0.5,0.5-0.5,0.6,0C-192.4,1384.6-192.4,1385.2-192.4,1385.8z"
	/>
<path fill="#3F3E3E" d="M-133.9,1392c0.8,0,1.6,0,2.4,0C-132.3,1392.4-133.1,1392.4-133.9,1392z"/>
<path fill="#4C4A4B" d="M-166,1392c0.8,0,1.6,0,2.3,0C-164.4,1392.4-165.2,1392.4-166,1392z"/>
<path fill="#474545" d="M-172.4,1392c0.8,0,1.6,0,2.4,0C-170.8,1392.4-171.6,1392.4-172.4,1392z"/>
<path fill="#4C4A4B" d="M-224.6,1392c0.8,0,1.6,0,2.4,0C-223,1392.4-223.8,1392.4-224.6,1392z"/>
<path fill="#464445" d="M-332.6,1392c0.8,0,1.6,0,2.4,0C-331,1392.4-331.8,1392.4-332.6,1392z"/>
<path fill="#434142" d="M-343.7,1392c0.8,0,1.5,0,2.3,0C-342.2,1392.4-343,1392.4-343.7,1392z"/>
<path fill="#211F20" d="M-283.1,1384.3c0.1-0.2,0.1-0.5,0.4-0.4c0.3,0,0.3,0.3,0.3,0.5c0,0.2,0.1,0.5-0.3,0.5
	C-283.1,1384.8-283.1,1384.5-283.1,1384.3z"/>
<path fill="#343334" d="M-253.8,1384.3c0,0.2,0,0.5-0.3,0.5s-0.3-0.3-0.3-0.5c0-0.2,0-0.5,0.3-0.5
	C-253.9,1383.8-253.9,1384.1-253.8,1384.3z"/>
<path fill="#211F20" d="M-231.4,1384.2c0,0.4-0.2,0.6-0.4,0.6c-0.3-0.1-0.3-0.3-0.2-0.6c0-0.2,0.1-0.5,0.4-0.4
	C-231.5,1383.9-231.4,1384.1-231.4,1384.2z"/>
<path fill="#525050" d="M-178.5,1391.9c-0.1-0.1-0.3-0.3-0.4-0.4c0.4-0.2,0.8-1,1.2-0.2C-177.4,1391.7-178,1391.9-178.5,1391.9z"/>
<path fill="#494849" d="M-296.2,1385.9c0.2,0.3,0.5,0.3,0.8,0.4c-0.3,0.1-0.5,0.3-0.8,0.4c-0.2,0.1-0.6,0.3-0.7-0.1
	C-296.9,1386-296.5,1385.9-296.2,1385.9z"/>
<path fill="#464444" d="M-294,1388c-0.6,0.5-1.3,0.3-1.9,0.3C-295.3,1387.9-294.7,1388-294,1388z"/>
<path fill="#423F40" d="M-348.6,1385.8c-0.7,0-1.4,0-2.1,0C-350,1385.5-349.3,1385.5-348.6,1385.8z"/>
<path fill="#4A4849" d="M-270.1,1385.8c-0.7,0-1.4,0-2,0C-271.5,1385.5-270.8,1385.5-270.1,1385.8z"/>
<path fill="#484546" d="M-198.2,1387.1c-0.1-0.2-0.3-0.3-0.4-0.5c0.1-0.4,0.2-1,0.7-0.7C-197.5,1386.2-197.9,1386.7-198.2,1387.1z"
	/>
<path fill="#4D4B4B" d="M-242,1385.8c-0.7,0-1.4,0-2.1,0C-243.4,1385.4-242.7,1385.5-242,1385.8z"/>
<path fill="#4B494A" d="M-215.8,1385.8c-0.7,0-1.4,0-2.1,0C-217.2,1385.5-216.5,1385.5-215.8,1385.8z"/>
<path fill="#4B4949" d="M-170.1,1385.8c-0.7,0-1.3,0-2,0C-171.4,1385.5-170.7,1385.5-170.1,1385.8z"/>
<path fill="#3C3A3B" d="M-147,1392c0.7,0,1.4,0,2.1,0C-145.6,1392.4-146.3,1392.4-147,1392z"/>
<path fill="#4A4849" d="M-144.9,1385.8c-0.7,0-1.3,0-2,0C-146.2,1385.5-145.6,1385.5-144.9,1385.8z"/>
<path fill="#222021" d="M-200.8,1393.4c-0.1-0.1-0.2-0.2-0.4-0.4c0.1-0.2,0.2-0.5,0.4-0.7c0.1,0.1,0.2,0.2,0.4,0.4
	C-200.4,1393-200.5,1393.2-200.8,1393.4z"/>
<path fill="#F7F7F7" d="M-165,1388.6c-0.6-0.6-1.8,0.5-1.9-0.9c0-1,0.7-1.5,1.7-1.5c1.1,0,2.2,0.3,2.1,1.6
	C-163.2,1389.2-164.5,1387.8-165,1388.6z"/>
<path fill="#FAF9FA" d="M-180.1,1388.6c-0.7-0.6-1.8,0.5-1.9-0.8c-0.1-1.2,0.8-1.5,1.9-1.5c1.1,0,2.1,0.4,1.9,1.6
	C-178.3,1389.2-179.6,1387.8-180.1,1388.6z"/>
<path fill="#FAFAFA" d="M-218.7,1390.8c-0.6-1.4-0.3-2.7,0-4.1c1.5-0.6,3-0.6,3.9,1c0.2,0.8,0.2,1.7,0,2.5
	C-216,1391.8-216.9,1392-218.7,1390.8z"/>
<path fill="#525051" d="M-214.8,1390.2c0-0.8,0-1.7,0-2.5C-214.3,1388.5-214.3,1389.3-214.8,1390.2z"/>
<path fill="#FAFAFA" d="M-234.7,1390.8c-0.9,0.9-2,0.9-3.2,0.5c-1.2-1.6-1.2-3.1,0-4.8C-234.7,1385.8-233.7,1387.2-234.7,1390.8z"/>
<path fill="#F1F1F1" d="M-293.3,1390.8c-0.5,0.3-0.9,0.6-1.4,0.7c-1.6,0.4-2.2-0.3-2.1-2.4c0.6-0.2,1.2-0.4,1.9-0.5
	C-292.8,1388.6-292.8,1388.6-293.3,1390.8z"/>
<path fill="#FBFBFB" d="M-286.4,1386.5c1.1,1.6,1.1,3.1,0,4.7c-1.1,0.3-2.3,0.6-3.1-0.5c-0.8-1.2-0.8-2.6,0-3.7
	C-288.8,1385.9-287.6,1386.2-286.4,1386.5z"/>
<path fill="#F8F8F8" d="M-333.5,1387.4c0.4-0.4,0.7-0.8,1.1-1.2c0.6,0.1,1.3,0,1.9,0.2c0.7,0.3,0.9,0.7,0.9,1.3
	c0,0.9-0.8,0.5-1.2,0.5c-0.7,0.1-1.4,0-2.1,0C-333.8,1388.4-333.5,1387.8-333.5,1387.4z"/>
<path fill="#FBFBFB" d="M-147.8,1386.6c1.1-0.5,2.1-0.3,3.2-0.1c0.3,0.4,0.5,0.7,0.8,1.1c0.2,0.8,0.2,1.7,0,2.5
	c-0.7,1.2-1.7,1.8-3.1,1.2c-1.4-0.6-1.4-1.8-1.3-3C-148.1,1387.8-147.9,1387.2-147.8,1386.6z"/>
<path fill="#3C3A3B" d="M-143.8,1390.1c0-0.8,0-1.7,0-2.5C-143.3,1388.5-143.4,1389.3-143.8,1390.1z"/>
<path fill="#FAFAFA" d="M-348.4,1386.6c0.6,0.3,0.7,1,1,1.5c0,0.5,0,1.1,0,1.6c-0.9,1.8-2.1,2.3-3.5,1.6c-1.1-0.6-1.5-2.8-0.8-4
	C-350.8,1385.9-349.6,1386.3-348.4,1386.6z"/>
<path fill="#F8F8F8" d="M-160.4,1391.2c-0.4-0.8-0.4-1.6,0.3-2.2c1.1-0.3,2.1-0.4,3.2-0.3c0.1,1,0,1.8-0.7,2.5
	C-158.5,1391.6-159.5,1391.7-160.4,1391.2z"/>
<path fill="#FCFCFC" d="M-340.5,1387.4c0,0.4,0.1,0.8,0.1,1.3c0,2.4-0.6,3-3.1,2.9c-1.5-0.9-1.5-2.4-1.1-3.8
	C-344.3,1385.9-342.1,1385.8-340.5,1387.4z"/>
<path fill="#F7F7F7" d="M-225.2,1386.9c1-0.7,2.1-0.8,3.2-0.4c0.8,1.4,0.5,2.1-1.2,1.9c-0.3,0-0.7,0-1.1,0
	C-225.7,1388.6-225.7,1387.9-225.2,1386.9z"/>
<path fill="#F9F9F9" d="M-208,1386.5c0.7-0.1,1.4-0.2,2.1-0.3c1.8,1.2,2,2.9,0.8,5c-1,0.5-1.9,0.4-2.9,0
	C-209.2,1389.7-209,1388.1-208,1386.5z"/>
<path fill="#FBFBFB" d="M-326.7,1387c1-0.9,2.1-0.8,3.2-0.5c1.1,1.6,1.1,3.1,0,4.7C-326.7,1392-327.7,1390.6-326.7,1387z"/>
<path fill="#F9F9F9" d="M-272.4,1386.5c1.2-0.5,2.2-0.2,3.2,0.5c0.6,1.5,0.7,2.9-0.3,4.2c-1.5,0.5-2.9,1-3.7-1.1
	c-0.2-0.8-0.2-1.7,0-2.5C-273.1,1387.1-272.9,1386.7-272.4,1386.5z"/>
<path fill="#403E3E" d="M-273.2,1387.6c0,0.8,0,1.7,0,2.5C-273.7,1389.3-273.7,1388.5-273.2,1387.6z"/>
</svg>
