<?xml version="1.0" encoding="utf-8"?>
<!-- Generator: Adobe Illustrator 17.1.0, SVG Export Plug-In . SVG Version: 6.00 Build 0)  -->
<!DOCTYPE svg PUBLIC "-//W3C//DTD SVG 1.1//EN" "http://www.w3.org/Graphics/SVG/1.1/DTD/svg11.dtd">
<svg version="1.1" id="Layer_1" xmlns="http://www.w3.org/2000/svg" xmlns:xlink="http://www.w3.org/1999/xlink" x="0px" y="0px"
	 width="17.8px" height="12.2px" viewBox="0 0 17.8 12.2" enable-background="new 0 0 17.8 12.2" xml:space="preserve">
<path fill="#404040" d="M8.2,5.8L8,6.2c0,0.2,0,0.4-0.1,0.5v1.5c0,0.2,0,0.4,0.1,0.7c0,0.2,0.1,0.4,0.2,0.6C8.3,9.7,8.4,9.9,8.5,10
	c-0.2,0-0.4,0-0.6-0.1c-0.2,0-0.4-0.1-0.6-0.2L6.8,9.3L6.4,8.9C6,8.4,5.8,7.9,5.6,7.4C5.4,6.8,5.3,6.3,5.3,5.7V4.9
	c0-0.1,0-0.2,0.1-0.2c0-0.2,0-0.4,0.1-0.5l0.3-0.5C6,3.5,6.1,3.3,6.2,3.2s0.2-0.3,0.3-0.5l0.6-0.6l0.8-0.4l0.8-0.3
	C9,1.3,9.3,1.2,9.5,1.2h0.2c0.3,0.1,0.5,0.2,0.7,0.2c0.2,0.1,0.4,0.1,0.5,0.2l0.5,0.3c0,0,0.3,0.4,0.5,0.6v0.8l-0.1,0.3
	c0,0.1-0.1,0.2-0.2,0.2h-0.3c0,0-0.1,0-0.1,0.1h-0.6c-0.4,0.1-0.5,0-0.6,0L9.7,3.6c-0.1,0-0.1-0.1-0.2-0.2V2.9c0-0.1,0-0.2,0.1-0.3
	c0-0.1,0.1-0.2,0.2-0.3C9.9,2.2,9.9,2.1,10,2.1c0,0,0.1-0.1,0.1-0.2V1.8L10,1.5H9.3c-0.2,0-0.4,0-0.5,0.1c-0.2,0-0.3,0.1-0.3,0.3
	C8.4,2,8.3,2.2,8.3,2.3S8.2,2.7,8.1,2.8c0,0.4,0,0.9-0.1,1.3v1.3l0.1-0.1l0.2-0.1l0.1,0.1C8.4,5.4,8.3,5.6,8.2,5.8z M5.6,6L5.6,6
	L5.6,6z M5.9,5.2C6,5.1,5.9,5.1,5.9,5.2z M6.2,4.5L6.2,4.5L6.2,4.5z M6.5,5.4L6.5,5.4L6.5,5.4z M6.4,3.7L6.4,3.7L6.4,3.7z M6.6,6.3
	L6.6,6.3L6.6,6.3z M6.6,5.1L6.6,5.1L6.6,5.1z M6.7,4.4v0.2h0.2L7,4.5c0-0.1,0-0.1-0.1-0.1C6.8,4.3,6.7,4.4,6.7,4.4z M6.7,3.6
	l0.2,0.1L6.7,3.6z M6.8,3.2C6.8,3.3,6.9,3.3,6.8,3.2z M6.9,2.9L6.9,2.9L6.9,2.9z M7,6l0.1-0.2L7,6z M7.1,3.1L7.1,3.1L7.1,3.1z
	 M7.2,3.6H7H7.2z M7.2,6.6L7.2,6.6L7.2,6.6z M7.2,3L7.2,3C7.2,2.9,7.2,3,7.2,3z M7.5,3.2H7.3H7.5L7.5,3.2z M7.7,2.6L7.7,2.6L7.7,2.6
	z M9.2,9.9c0.1,0,0.2-0.1,0.2-0.1c0.1,0,0.1,0,0.1-0.1V9.6c0-0.1,0-0.1,0.1-0.2c0-0.1,0.1-0.2,0.2-0.4V6.3c0-0.2-0.1-0.4-0.1-0.5
	S9.6,5.3,9.4,5.2c-0.1,0-0.1,0-0.2-0.1c-0.1,0-0.1,0-0.1-0.1c0.1-0.1,0.1-0.1,0.2-0.1h0.3c0.3,0,0.7,0.1,1,0.2s0.7,0.3,0.9,0.5
	C11.8,5.8,12,6,12.2,6.3c0.2,0.3,0.3,0.6,0.3,1c0,0.3-0.1,0.6-0.2,0.9C12.2,8.4,12,8.7,11.8,9S11.3,9.5,11,9.7s-0.6,0.3-0.9,0.4
	c-0.1,0-0.2,0-0.3,0.1l-0.3,0.1H8.8c-0.1,0-0.1-0.1-0.1-0.1C8.9,10,9.1,10,9.2,9.9z M10.5,8.7l-0.1-0.1v0.1H10.5z M10.7,2.4l0.2-0.1
	c0,0,0.1-0.1,0.1-0.2L10.7,2.4z M10.8,8.3h-0.1H10.8z M11,2.4l-0.2,0.1L11,2.4v0.2V2.4z M11.2,3.9V3.7V3.9z"/>
</svg>
