<?xml version="1.0" encoding="utf-8"?>
<!-- Generator: Adobe Illustrator 17.1.0, SVG Export Plug-In . SVG Version: 6.00 Build 0)  -->
<!DOCTYPE svg PUBLIC "-//W3C//DTD SVG 1.1//EN" "http://www.w3.org/Graphics/SVG/1.1/DTD/svg11.dtd">
<svg version="1.1" id="Layer_1" xmlns="http://www.w3.org/2000/svg" xmlns:xlink="http://www.w3.org/1999/xlink" x="0px" y="0px"
	 width="17.8px" height="12.2px" viewBox="0 0 17.8 12.2" enable-background="new 0 0 17.8 12.2" xml:space="preserve">
<path fill="#404040" d="M1.9,9.8h0.8c0.2,0,0.3-0.1,0.4-0.1s0.2-0.2,0.2-0.4V3.5c0-0.1-0.1-0.1-0.3-0.2H1.9L1.8,3.1L1.9,3
	c0.5,0,1-0.1,1.4-0.2s0.7-0.3,1-0.5L5,1.9c0.2-0.1,0.3-0.2,0.5-0.2h0.3l0.1,0.1v6.4c0,0.5,0,0.9,0.1,1.3C5.9,9.8,6,9.9,6.2,9.9h0.7
	L7,9.8l0.2,0.1l-0.1,0.3c-0.4-0.1-0.7-0.1-1.1-0.1H1.9L1.8,10C1.8,10,1.9,9.8,1.9,9.8z M3.6,9.5v0.1V9.5z M3.8,4.2H4H3.8z M3.9,3.6
	C3.9,3.6,3.9,3.7,3.9,3.6L3.9,3.6l0.2-0.1L4,3.3L3.9,3.6L3.9,3.6z M3.9,5.1C3.9,5.1,3.8,5.1,3.9,5.1L4.2,5L4.1,4.9H3.9L3.9,5.1
	C4,5,4,5.1,3.9,5.1z M4,6.6L4,6.6l0.2-0.2H4L4,6.6C3.9,6.5,3.9,6.6,4,6.6z M4,9.7c0.1,0.1,0.1,0.1,0.1,0.2c0,0,0.1-0.1,0.1-0.2V9.6
	c0,0,0-0.1-0.1-0.1L3.9,9.6C3.9,9.6,4,9.7,4,9.7z M4,9.1h0.3C4.2,9,4.1,9,4.1,9S4,8.9,4,8.8L3.9,8.9C3.9,9,3.9,9,4,9.1z M4,6.3
	C4,6.3,4.1,6.3,4,6.3L4,6.3z M4.2,4L4.2,4c0.1-0.1,0.1-0.2,0.2-0.2V3.7L4.2,3.6L4,3.9C4,3.9,4.2,4,4.2,4z M4.1,4.5
	c0.1,0.1,0.1,0.1,0.2,0.1c0-0.1,0-0.2,0.1-0.3S4.5,4.1,4.6,4H4.5C4.4,4.2,4.3,4.3,4,4.3C4,4.3,4.1,4.4,4.1,4.5z M4.1,6.2h0.2H4.1z
	 M4.4,5.2L4.4,5.2h0.2V5.1l0.1-0.2V4.8c0,0,0-0.1-0.1-0.1v0.2L4.4,5.2L4.4,5.2L4.2,5.3C4.2,5.3,4.4,5.2,4.4,5.2z M4.2,8.9l0.1-0.1
	C4.2,8.8,4.2,8.8,4.2,8.9z M4.2,3.2L4.2,3.2L4.2,3.2L4.2,3.2C4.3,3.1,4.2,3.2,4.2,3.2z M4.4,7.4L4.4,7.4L4.4,7.4z M4.3,8.7h0.2H4.3z
	 M4.6,6.8C4.6,6.7,4.6,6.7,4.6,6.8l0.2-0.1c0,0,0.1,0,0.1-0.1L4.6,6.8L4.4,6.7l0.1,0.1H4.4H4.6L4.5,6.9C4.5,6.9,4.6,6.8,4.6,6.8z
	 M4.5,3.2c0,0-0.1,0.1-0.1,0.2L4.5,3.2C4.6,3.2,4.6,3.1,4.5,3.2L4.5,3.2z M4.5,6.5l0.2-0.1c0,0-0.1,0-0.1-0.1L4.5,6.2v0.1
	C4.4,6.4,4.4,6.5,4.5,6.5z M4.4,9.9l0.1-0.1C4.5,9.8,4.4,9.8,4.4,9.9z M4.6,6L4.6,6L4.6,6z M4.6,3.9L4.6,3.9L4.6,3.9z M4.5,6.7h0.2
	H4.5z M4.6,9.2C4.6,9.1,4.7,9.1,4.6,9.2z M4.8,9.2H4.6c-0.1,0-0.1,0-0.1,0.1l0.1,0.1C4.6,9.4,4.8,9.2,4.8,9.2z M4.8,7.9L4.8,7.9
	l0.1-0.2c0,0,0-0.1-0.1-0.1L4.7,7.7L4.8,7.9z M4.8,3.7h0.4l0.1,0.1v0.1l0.1-0.2V3.6H5.2V3.5l0.1-0.1c-0.1,0-0.1,0-0.2,0.1
	C4.8,3.5,4.8,3.6,4.8,3.7z M4.9,9.9L4.8,9.8C4.8,9.8,4.8,9.9,4.9,9.9z M4.8,2.6H5H4.8z M5,5.6H4.8v0.1L5,5.6z M4.9,9.5v0.1V9.5
	C5,9.5,5,9.5,5,9.4L4.9,9.5z M5,4.7L5,4.7l0.2-0.1L5,4.7z M5,6.3L5,6.3L5,6.3L5,6.3z M5,5l0.2-0.1L5,5z M5.1,4.2
	C5.1,4.1,5.1,4.1,5.1,4.2C5.1,4.1,5.1,4.1,5.1,4.2C5,4.2,5,4.2,5.1,4.2v0.2V4.2z M5.2,7.1l0.1-0.2L5.2,7.1L5,6.9
	C5,7,5.1,7.1,5.2,7.1z M5.4,9.7L5.4,9.7l0.1-0.1c0,0-0.1,0-0.1-0.1c0,0-0.1,0-0.1-0.1V9.3L5.1,9.5l0.1,0.1L5.1,9.9
	C5.1,9.9,5.4,9.7,5.4,9.7z M5.1,7.5h0.2H5.1z M5.2,3.5h0.2H5.2z M5.3,8.5L5.2,8.6C5.3,8.6,5.3,8.5,5.3,8.5z M11.3,10.2H9.7
	c-0.1,0-0.1-0.1-0.1-0.1c0-0.1,0-0.1,0.1-0.2s0.1-0.1,0.2-0.1c0.2,0,0.3,0,0.5,0.1l0.5,0.1c0.2,0,0.4,0,0.5-0.1s0.2-0.2,0.2-0.3
	c0.1-0.1,0.1-0.3,0.1-0.4v-1c0-0.1,0-0.2-0.1-0.2l-0.1-0.1H8.7c-0.1,0-0.2,0-0.3-0.1c-0.1,0-0.1-0.1-0.1-0.2V7.5l0.1-0.1l0.1-0.1
	L8.8,7c0,0,0.1-0.1,0.1-0.2C9,6.7,9.1,6.6,9.1,6.5l0.2-0.3c0.1-0.1,0.1-0.1,0.2-0.1l1.2-1.5c0,0,0.7-1.1,1.1-1.6
	c0-0.1,0.1-0.2,0.2-0.4L12.3,2c0,0,0.2-0.4,0.3-0.5c0.1-0.2,0.2-0.2,0.2-0.2h1c0.1,0,0.2,0,0.3,0.1s0.1,0.2,0.1,0.3v5.6l0.1,0.2h1.5
	c0,0,0.1,0,0.2,0.1c0.1,0,0.1,0.1,0.1,0.2L16,7.9c-0.1,0-0.3,0-0.4-0.1l-0.4-0.1h-0.8c0,0-0.3,0.3-0.3,0.4c0,0.1-0.1,0.3-0.1,0.5
	v0.6c0,0.2,0.1,0.3,0.2,0.4c0.1,0.1,0.2,0.2,0.4,0.2l0.6,0.1h0.4l0.1,0.2c0,0.1,0,0.1-0.1,0.1C15.6,10.2,11.3,10.2,11.3,10.2z
	 M10.5,7.4h0.7c0.2,0,0.3,0,0.4-0.1c0.1-0.1,0.1-0.2,0.1-0.4v-3c0,0,0-0.1-0.1-0.1c0,0-0.1,0-0.1,0.1l-0.2,0.3
	c-0.1,0.1-0.2,0.2-0.3,0.4L10.7,5c-0.1,0.1-0.2,0.2-0.2,0.3c-0.1,0.1-0.1,0.2-0.2,0.2c0,0-0.1,0.1-0.1,0.2L10,5.9
	C9.9,6,9.8,6.1,9.7,6.3L9.4,6.6c0,0.2-0.1,0.3-0.2,0.3v0.4h0.5l0.1,0.1C10,7.3,10.3,7.3,10.5,7.4z M11.9,9.9c0,0,0.1,0,0.1-0.1
	l0.1-0.1C11.9,9.7,11.9,9.8,11.9,9.9z M12.1,8h0.1c0-0.1,0-0.2,0.1-0.2s0.1-0.1,0.2-0.1l0.1-0.2l0.2,0.1V7.5c0-0.1,0-0.1-0.1-0.1
	s-0.1-0.1-0.1-0.1c0-0.1,0-0.1,0.1-0.2L12.9,7h-0.1c-0.1,0-0.1,0-0.1,0.1s0,0.1-0.1,0.1c0-0.1,0-0.1,0.1-0.2c0.1,0,0.1-0.1,0.1-0.2
	l-0.1,0.1v0.2C12.6,7,12.5,7,12.5,7l-0.1-0.1V7h-0.1L12,7.2l0.2-0.1h0.3v0.1l0.2,0.2h-0.2l0.1,0.1h-0.1V7.3v0.1v0.1v0.1H12l-0.1,0.1
	L12,7.8h0.1C12.1,7.8,12.1,8,12.1,8z M12.1,9.6V9.3h0.2c0,0,0.1,0,0.1-0.1l-0.1-0.1h-0.1L12,9.2l0.1,0.1L12,9.5h0.1V9.6z M12.2,8.7
	v0.1l0.1,0.1c0-0.1,0-0.1,0.1-0.1h0.3l0.2-0.2h-0.1l-0.2-0.1h-0.3V8.4h0.1l-0.1-0.1V8.1h-0.1v0.1H12l0.1,0.1L12,8.5v0.4L12.2,8.7z
	 M12.2,7.5c0,0,0,0.1-0.1,0.1l0.2,0.1L12.2,7.5L12.2,7.5C12.2,7.4,12.2,7.5,12.2,7.5z M12.1,5c0.1,0,0.1,0,0.1-0.1
	C12.1,4.9,12.1,5,12.1,5z M12.1,6.8C12.2,6.8,12.2,6.7,12.1,6.8z M12.1,5.5l0.1-0.2L12.1,5.5z M12.3,6.9h-0.2H12.3z M12.2,7.3
	L12.2,7.3L12.2,7.3z M12.1,7.3h0.1H12.1z M12.3,4.1L12.3,4.1C12.2,4,12.2,4.1,12.3,4.1z M12.6,6.2c0,0.1,0.1,0.1,0.1,0.1h0.1
	L12.6,6.2L12.8,6l-0.1-0.1l0.2-0.1H13c0,0,0.1,0,0.1-0.1v0.2l0.1-0.1V5.6c0,0,0-0.1-0.1-0.2v0.1h-0.3c0,0,0,0.1-0.1,0.2l-0.1,0.1
	h0.2c0,0.1-0.1,0.1-0.2,0.2c-0.1,0-0.1,0.1-0.1,0.2V6L12.6,6.2z M12.4,9.6c0,0.1,0.1,0,0.1,0c0.1-0.1,0.1-0.1,0.1-0.2l-0.1-0.1h-0.2
	v0.1C12.4,9.5,12.4,9.5,12.4,9.6z M12.3,6.8L12.3,6.8L12.3,6.8z M12.4,4.7L12.4,4.7L12.4,4.7z M12.3,3.6l0.1,0.1
	C12.4,3.7,12.4,3.6,12.3,3.6z M12.5,4.2L12.4,4h-0.1L12.5,4.2h-0.1C12.4,4.2,12.5,4.2,12.5,4.2z M12.5,6.6h-0.2v0.1L12.5,6.6z
	 M12.6,9.8h-0.2H12.6z M12.7,6.3h-0.1c0,0.1-0.1,0.1-0.1,0.1l0.1,0.1L12.7,6.3z M12.6,5.4l-0.2,0.2L12.6,5.4z M12.5,2.9
	c0.1,0,0.1,0,0.1-0.1C12.5,2.8,12.5,2.8,12.5,2.9z M12.7,5.2l0.1-0.1V5L12.7,5.2V5h-0.2L12.7,5.2L12.7,5.2
	C12.7,5.1,12.7,5.2,12.7,5.2z M12.8,9.7H13c0,0,0.1,0,0.1-0.1V9.4H13v0.1l-0.1-0.1L13,9.3h-0.1l-0.2-0.1h0.2c0,0,0.1,0,0.1-0.1
	l0.1,0.1h0.1l-0.1-0.1L13,9l-0.1,0.1L12.8,9l-0.2,0.2v0.1c0,0.1,0,0.1-0.1,0.2l-0.1,0.1l0.1,0.2C12.7,9.7,12.7,9.7,12.8,9.7z
	 M12.6,9.1V9V9.1z M12.8,2.7l-0.2-0.1L12.8,2.7z M12.7,8.1L12.8,8L12.7,8.1C12.6,8,12.7,8.1,12.7,8.1z M12.7,2h0.2H12.7z M12.7,4.9
	l0.1-0.1C12.7,4.8,12.7,4.8,12.7,4.9z M12.7,8.3l0.1-0.1L12.7,8.3z M12.7,8.5h0.1c0.1,0,0.1-0.1,0.1-0.1h-0.2
	C12.7,8.4,12.7,8.5,12.7,8.5z M12.8,2.4h0.1H12.8l0.1-0.2h0.2h-0.3V2.4z M12.8,2.5H13H12.8z M12.8,6.5c0-0.1,0.1-0.2,0.2-0.2
	l0.1-0.1H13l-0.1-0.1L13,6l-0.2,0.1C12.8,6.1,12.8,6.5,12.8,6.5z M12.9,6.8l-0.1,0.1C12.9,6.9,12.9,6.8,12.9,6.8z M13.3,8.7
	l-0.1-0.1h0.1h-0.1h-0.1c0,0-0.1,0-0.1,0.1v0.2l0.1-0.1l0.1-0.1C13.2,8.7,13.3,8.7,13.3,8.7z M12.9,3.6h0.2H12.9z M13.1,8l-0.2,0.1
	L13,8.2h0.2l0.1-0.1l-0.2,0.1C13.1,8.2,13.1,8,13.1,8z M12.9,2.1h0.3H12.9z M13.2,9.8V9.7L13,9.9h-0.1L13,10L13.2,9.8z M13,5.1v0.2
	V5.1z M13,6.5L13,6.5L13,6.5z M13.1,6.9c0,0.1,0.1,0,0.1,0H13.1z M13.2,5.6l0.1-0.2H13L13.2,5.6L13.2,5.6
	C13.1,5.6,13.2,5.6,13.2,5.6z M13.1,2.6c0,0,0.1,0,0.1-0.1L13.1,2.6z M13.2,7.9h0.2V7.8L13.2,7.9l0.1-0.3h-0.1v0.1
	c0,0,0,0.1-0.1,0.1H13C13.1,7.8,13.1,7.8,13.2,7.9z M13.3,2.3C13.3,2.2,13.4,2.2,13.3,2.3c0-0.1,0.1-0.1,0.1-0.1h0.1L13.3,2.3
	L13.3,2.3C13.2,2.3,13.3,2.3,13.3,2.3z M13.3,6.8l-0.1-0.1v0.1H13.3z M13.3,8.5V8.3V8.5z M13.4,9.6c0.1,0,0.2-0.1,0.2-0.1h0.1V9.4
	h-0.1l-0.1,0.1c-0.1,0-0.1,0-0.1-0.1V9.2l-0.2,0.4h0.1l0.1,0.2C13.4,9.8,13.4,9.6,13.4,9.6z M13.4,8.9h-0.1H13.4z M13.5,7.3V7.1
	L13.6,7c0,0,0-0.1-0.1-0.1s-0.1,0-0.1-0.1l-0.1,0.1h0.1L13.3,7l-0.1,0.1L13.5,7.3h-0.1C13.4,7.4,13.4,7.4,13.5,7.3z M13.6,5.6
	c-0.1,0.1-0.1,0.1-0.2,0.1s-0.1,0-0.1,0.1h0.2L13.6,5.6z M13.5,5.6l0.1-0.1L13.5,5.6L13.5,5.6L13.5,5.6z M13.6,6.7l-0.1-0.1v0.1
	H13.6z M13.5,1.8h0.1H13.5z M13.7,8.7h-0.1H13.7z M13.7,7.3c-0.1-0.1-0.2-0.1-0.2-0.1L13.7,7.3C13.6,7.4,13.7,7.3,13.7,7.3z
	 M13.7,7.6h-0.1H13.7z M13.8,7h-0.2H13.8l-0.2,0.1L13.8,7C13.7,7.1,13.8,7,13.8,7z M13.7,9.7c0-0.1,0-0.1,0.1-0.1L13.7,9.7
	C13.6,9.7,13.7,9.7,13.7,9.7z M13.8,6.3l-0.1,0.1v0.1L13.8,6.3z"/>
</svg>
