<?xml version="1.0" encoding="utf-8"?>
<!-- Generator: Adobe Illustrator 17.1.0, SVG Export Plug-In . SVG Version: 6.00 Build 0)  -->
<!DOCTYPE svg PUBLIC "-//W3C//DTD SVG 1.1//EN" "http://www.w3.org/Graphics/SVG/1.1/DTD/svg11.dtd">
<svg version="1.1" id="Layer_1" xmlns="http://www.w3.org/2000/svg" xmlns:xlink="http://www.w3.org/1999/xlink" x="0px" y="0px"
	 width="17.8px" height="12.2px" viewBox="0 0 17.8 12.2" enable-background="new 0 0 17.8 12.2" xml:space="preserve">
<path fill="#404040" d="M2,9.8h0.8c0.2,0,0.3-0.1,0.4-0.1s0.2-0.2,0.2-0.4V3.5c0-0.1-0.1-0.1-0.3-0.2H2L1.9,3.1L2,3
	c0.5,0,1-0.1,1.4-0.2s0.7-0.3,1-0.5C4.7,2.2,4.9,2,5.1,1.9s0.3-0.2,0.5-0.2h0.3L6,1.8v6.4c0,0.5,0,0.9,0.1,1.3
	C6,9.8,6.1,9.9,6.3,9.9H7l0.2-0.1l0.2,0.1l-0.1,0.3c-0.4-0.1-0.7-0.1-1.1-0.1H2C2,10.1,2,9.8,2,9.8z M3.7,9.5v0.1V9.5z M3.9,4.2h0.2
	C4.1,4.2,3.9,4.2,3.9,4.2z M4,3.6C4,3.6,4,3.7,4,3.6L4,3.6l0.2-0.1L4.1,3.3L4,3.6L4,3.6z M4.1,5.1C4.1,5.1,4,5.1,4.1,5.1L4.3,5V4.9
	H4.1C4.1,4.9,4.1,5.1,4.1,5.1z M4.1,6.6L4.1,6.6l0.2-0.2H4.2L4.1,6.6z M4.2,9.7c0.1,0.1,0.1,0.1,0.1,0.2c0,0,0.1-0.1,0.1-0.2V9.6
	c0,0,0-0.1-0.1-0.1L4,9.6L4.2,9.7z M4.1,9.1h0.3C4.3,9,4.3,9,4.2,9S4.1,8.9,4.1,8.8C4.1,8.8,4.1,9.1,4.1,9.1z M4.1,6.3
	C4.1,6.3,4.2,6.3,4.1,6.3L4.1,6.3z M4.3,4L4.3,4c0.1-0.1,0.1-0.2,0.2-0.2V3.7L4.3,3.6L4.1,3.9C4.1,3.9,4.3,4,4.3,4z M4.2,4.5
	c0.1,0.1,0.1,0.1,0.2,0.1c0-0.1,0-0.2,0.1-0.3S4.6,4.1,4.7,4H4.6C4.5,4.2,4.4,4.3,4.2,4.3C4.2,4.3,4.2,4.5,4.2,4.5z M4.2,6.2h0.2
	H4.2z M4.6,5.2L4.6,5.2h0.2H4.6l0.2-0.3V4.8c0,0,0-0.1-0.1-0.1v0.2C4.6,5.1,4.6,5.1,4.6,5.2L4.4,5.1L4.3,5.3
	C4.3,5.3,4.6,5.2,4.6,5.2z M4.3,8.9l0.1-0.1C4.4,8.8,4.3,8.8,4.3,8.9z M4.4,3.2v0.2V3.3C4.4,3.3,4.4,3.2,4.4,3.2z M4.6,7.4H4.4H4.6z
	 M4.5,8.7h0.2H4.5z M4.7,6.8C4.7,6.7,4.7,6.7,4.7,6.8l0.2-0.1c0,0,0.1,0,0.1-0.1L4.7,6.8L4.5,6.7l0.1,0.1H4.5H4.7L4.6,6.9
	C4.7,6.9,4.7,6.8,4.7,6.8z M4.6,3.2c0,0-0.1,0.1-0.1,0.2L4.6,3.2C4.7,3.2,4.7,3.1,4.6,3.2C4.7,3.1,4.7,3.2,4.6,3.2z M4.6,6.5
	l0.2-0.1c0,0-0.1,0-0.1-0.1L4.6,6.2C4.6,6.2,4.6,6.5,4.6,6.5z M4.6,9.9l0.1-0.1C4.6,9.8,4.6,9.8,4.6,9.9z M4.8,6H4.6H4.8z M4.7,3.9
	L4.7,3.9L4.7,3.9z M4.7,6.7h0.2H4.7z M5,9.2H4.8c-0.1,0-0.1,0-0.1,0.1l0.1,0.1C4.8,9.4,5,9.2,5,9.2z M5,7.9L5,7.9l0.1-0.2
	c0,0,0-0.1-0.1-0.1L4.8,7.7L5,7.9z M5,3.7h0.4l0.1,0.1v0.1l0.1-0.2V3.6H5.4V3.5l0.1-0.1C5.1,3.4,5,3.4,5,3.5C4.9,3.5,4.9,3.6,5,3.7z
	 M5,9.9L4.9,9.8L5,9.9z M4.9,2.6h0.2H4.9z M5.1,5.6L5.1,5.6L5.1,5.6L5.1,5.6z M5,9.5v0.1V9.5c0.1,0,0.1,0,0.1-0.1L5,9.5z M5.1,4.7
	L5.1,4.7l0.2-0.1L5.1,4.7z M5.1,6.3L5.1,6.3L5.1,6.3L5.1,6.3z M5.1,5l0.2-0.1L5.1,5z M5.3,4.2C5.3,4.1,5.3,4.1,5.3,4.2
	C5.3,4.1,5.2,4.1,5.3,4.2C5.2,4.2,5.2,4.2,5.3,4.2v0.2C5.2,4.3,5.2,4.3,5.3,4.2z M5.3,7.1l0.1-0.2L5.3,7.1L5.2,6.9
	C5.2,7,5.2,7.1,5.3,7.1z M5.5,9.7L5.5,9.7l0.1-0.1c0,0-0.1,0-0.1-0.1c0,0-0.1,0-0.1-0.1V9.3L5.3,9.5l0.1,0.1L5.2,9.9
	C5.2,9.9,5.5,9.7,5.5,9.7z M5.2,7.5h0.2H5.2z M5.3,3.5h0.2H5.3z M5.5,8.5L5.3,8.6C5.4,8.6,5.5,8.5,5.5,8.5z M12.9,1.6
	c0.4,0,0.7,0.1,1,0.3C14,2,14.2,2,14.4,2.2c0.2,0.1,0.3,0.2,0.5,0.4c0.2,0.1,0.3,0.3,0.4,0.4c0.1,0.2,0.2,0.3,0.2,0.5
	c0,0.3-0.1,0.5-0.2,0.7l-0.4,0.5L14.5,5c-0.1,0.1-0.2,0.2-0.2,0.3c0,0.1,0,0.1,0.1,0.2l0.2,0.1c0.4,0.2,0.6,0.5,0.9,0.8
	c0.2,0.4,0.3,0.7,0.3,1.1v0.9C15.5,9,15,9.5,14.4,9.9s-1.3,0.5-2.1,0.5h-0.6l-0.1-0.1l0.1-0.1c0.1,0,0.2,0,0.3,0.1l0.3,0.1
	c0.3,0,0.5,0,0.7-0.1c0.2,0,0.4-0.1,0.6-0.2c0.2-0.1,0.3-0.3,0.4-0.5c0.1-0.2,0.2-0.4,0.3-0.7c-0.1-0.3-0.3-0.5-0.6-0.8
	c-0.3-0.2-0.6-0.5-1-0.7S12,7,11.6,6.9c-0.4-0.1-0.7-0.2-1-0.2h-0.2L9.8,7.5c0,0-0.2,0.5-0.2,0.8c0,0.2,0,0.4,0.1,0.6
	C9.8,9,9.9,9.2,10,9.4c0,0.1,0.1,0.1,0.2,0.2s0.3,0.2,0.4,0.2l0.5,0.3l0.3,0.2c-0.2,0-0.4,0-0.7-0.1S10.2,10,9.9,9.8L9.3,9.3
	C9,9.1,8.9,9,8.8,8.8C8.7,8.7,8.6,8.5,8.6,8.4V7.9c0-0.2,0.1-0.4,0.2-0.5c0-0.1,0.2-0.2,0.3-0.3l0.6-0.3l0.5-0.3
	c0-0.1-0.1-0.2-0.2-0.3c-0.2,0-0.3-0.1-0.4-0.3C9.4,5.8,9.3,5.5,9.2,5.3S9,4.7,9,4.3V3.6c0,0,0.1-0.5,0.2-0.7
	c0.1-0.2,0.3-0.3,0.5-0.5l0.6-0.5L11,1.6c0.2-0.1,0.5-0.1,0.7-0.1C12.2,1.5,12.5,1.5,12.9,1.6z M9.4,4.2v0.2h0.2V4.1
	C9.4,4.1,9.4,4.1,9.4,4.2z M9.8,3.4L9.6,3.5L10,3.3C9.9,3.3,9.9,3.3,9.8,3.4z M10.3,5.5L10.3,5.5l-0.1-0.1
	C10.2,5.4,10.2,5.5,10.3,5.5z M10.7,3.6C10.8,3.8,11,4,11.3,4.1L12,4.4c0.3,0.1,0.5,0.1,0.7,0.2c0.2,0,0.4,0.1,0.5,0.2
	s0.4,0.1,0.6,0.1c0.1,0,0.3-0.1,0.4-0.2c0.1-0.1,0.2-0.3,0.2-0.4c0.1-0.2,0.1-0.3,0.1-0.5V3.4c0-0.3-0.1-0.6-0.3-0.8
	s-0.4-0.4-0.7-0.5C13.3,2,13,1.9,12.7,1.8s-0.6-0.1-0.8-0.1s-0.4,0-0.5,0.1c-0.2,0-0.3,0.1-0.4,0.2c-0.1,0.1-0.2,0.2-0.3,0.4
	s-0.1,0.3-0.1,0.5C10.4,3.2,10.5,3.5,10.7,3.6z M10.9,6.2L11,6.3h0.2v0.1l0.2-0.1l-0.1-0.1h-0.1c-0.1,0-0.3,0-0.4,0.1
	C10.8,6.1,10.8,6.1,10.9,6.2z M11.1,5.6C11.2,5.5,11.1,5.5,11.1,5.6z M11.8,6h-0.2H11.8L11.8,6z M11.9,5.7C12,5.6,12,5.6,12,5.5
	L11.9,5.7z M12,5.9h0.2c0,0,0.1-0.1,0.1-0.2l-0.1-0.1C12.2,5.6,12,5.9,12,5.9z M13.1,7.2h0.1H13.1z M14.6,6.1L14.5,6v0.1H14.6z
	 M14.7,8.5v0.2c0,0,0,0.1-0.1,0.1V9c0,0,0.1,0,0.1-0.1l0.1-0.1c0-0.1,0-0.1,0.1-0.2c0,0-0.1,0-0.1-0.1V8.4
	C14.8,8.4,14.7,8.5,14.7,8.5z M15.3,6.9V6.7l-0.1-0.1c-0.1,0-0.1,0.1-0.1,0.1v0.2l0.1-0.1L15.3,6.9h-0.2H15.3z M15.3,8.4V8.3
	c0-0.1-0.1-0.1-0.1-0.1l-0.1,0.2C15.1,8.4,15.3,8.4,15.3,8.4z M15.3,7.8L15.2,8C15.3,8,15.4,8,15.3,7.8c0.1,0,0.1,0,0.2-0.1
	C15.4,7.7,15.3,7.8,15.3,7.8z"/>
</svg>
