<?xml version="1.0" encoding="utf-8"?>
<!-- Generator: Adobe Illustrator 17.1.0, SVG Export Plug-In . SVG Version: 6.00 Build 0)  -->
<!DOCTYPE svg PUBLIC "-//W3C//DTD SVG 1.1//EN" "http://www.w3.org/Graphics/SVG/1.1/DTD/svg11.dtd">
<svg version="1.1" id="Layer_1" xmlns="http://www.w3.org/2000/svg" xmlns:xlink="http://www.w3.org/1999/xlink" x="0px" y="0px"
	 width="17.8px" height="12.2px" viewBox="0 0 17.8 12.2" enable-background="new 0 0 17.8 12.2" xml:space="preserve">
<path fill="#404040" d="M6.3,9.8h0.8c0.2,0,0.3-0.1,0.4-0.1s0.2-0.2,0.2-0.4V3.5c0-0.1-0.1-0.1-0.3-0.2H6.2V3c0.5,0,1-0.1,1.4-0.2
	c0.4-0.1,0.7-0.3,1-0.5C8.9,2.2,9.1,2,9.3,1.9s0.3-0.2,0.5-0.2h0.3l0.1,0.1v6.4c0,0.5,0,0.9,0.1,1.3c0.1,0.1,0.2,0.2,0.3,0.2h0.7
	l0.2-0.1l0.2,0.1L11.6,10c-0.4-0.1-0.7-0.1-1.1-0.1L6.3,9.8C6.4,9.9,6.3,9.8,6.3,9.8z M8,9.5v0.1V9.5z M8.1,4.2h0.2H8.1z M8.3,3.6
	c0,0,0,0.1,0.1,0.1V3.6l0.1-0.1L8.4,3.3L8.3,3.6C8.2,3.5,8.2,3.6,8.3,3.6z M8.3,5.1c0,0-0.1,0-0.1,0.1L8.6,5L8.5,4.9H8.3
	C8.3,4.9,8.3,5.1,8.3,5.1z M8.3,6.6h0.1l0.1-0.2H8.4L8.3,6.6z M8.4,9.7c0.1,0.1,0.1,0.1,0.1,0.2c0,0,0.1-0.1,0.1-0.2V9.6
	c0,0,0-0.1-0.1-0.1L8.2,9.6C8.3,9.6,8.4,9.7,8.4,9.7z M8.3,9.1h0.3L8.5,9c0,0-0.1-0.1-0.1-0.2L8.3,8.9C8.3,8.9,8.3,9.1,8.3,9.1z
	 M8.3,6.3c0,0,0.1,0,0.1-0.1L8.3,6.3z M8.6,4l0.1-0.1c0,0,0-0.1,0.1-0.1V3.7L8.6,3.6L8.4,3.9C8.4,3.9,8.6,4,8.6,4z M8.5,4.5
	c0.1,0.1,0.1,0.1,0.2,0.1c0-0.1,0-0.2,0.1-0.3s0-0.2,0.1-0.3C8.8,4.2,8.6,4.3,8.4,4.3C8.4,4.3,8.4,4.4,8.5,4.5z M8.4,6.2h0.2H8.4z
	 M8.8,5.2l0.1,0.1L9,5.2L8.9,5.1L9,4.9V4.8c0,0,0-0.1-0.1-0.1v0.2C8.8,5.1,8.8,5.1,8.8,5.2L8.6,5.1v0.2C8.6,5.3,8.8,5.2,8.8,5.2z
	 M8.6,8.9l0.1-0.1C8.6,8.8,8.6,8.8,8.6,8.9z M8.6,3.2v0.2V3.3C8.6,3.3,8.6,3.2,8.6,3.2z M8.8,7.4H8.6H8.8z M8.7,8.7h0.2H8.7z
	 M8.9,6.8c0-0.1,0-0.1,0.1-0.1h0.1c0,0,0.1,0,0.1-0.1s-0.1,0-0.2,0L8.7,6.7L8.9,6.8H8.7H8.9L8.9,6.8C8.9,6.9,8.9,6.8,8.9,6.8z
	 M8.9,3.2c0,0-0.1,0.1-0.1,0.2L8.9,3.2L9,3.1L8.9,3.2z M8.8,6.5C8.9,6.5,8.9,6.6,8.8,6.5L9,6.4c0,0-0.1,0-0.1-0.1L8.8,6.2
	C8.8,6.2,8.8,6.5,8.8,6.5z M8.8,9.9l0.1-0.1C8.8,9.8,8.8,9.8,8.8,9.9z M9,6H8.9H9z M8.9,3.9H9H8.9z M8.9,6.7h0.2H8.9z M9.2,9.2H9
	c0,0-0.1,0-0.1,0.1L9,9.4C9,9.4,9.2,9.2,9.2,9.2z M9.2,7.9l0.1-0.1V7.7c0,0,0-0.1-0.1-0.1L9.1,7.7L9.2,7.9z M9.2,3.7h0.4l0.1,0.1
	v0.1l0.1-0.2V3.6H9.6V3.5l0.1-0.1c-0.1,0-0.1,0-0.2,0.1C9.2,3.5,9.1,3.6,9.2,3.7z M9.3,9.9L9.1,9.8L9.3,9.9z M9.2,2.6h0.2H9.2z
	 M9.3,5.6H9.2v0.1L9.3,5.6z M9.2,9.5v0.1C9.2,9.6,9.3,9.6,9.2,9.5c0.1,0,0.1,0,0.1-0.1L9.2,9.5z M9.4,4.7h0.1l0.1-0.1
	C9.6,4.6,9.4,4.7,9.4,4.7z M9.3,6.3h0.1H9.3L9.3,6.3z M9.3,5l0.2-0.1L9.3,5z M9.5,4.2c0-0.1,0-0.1,0.1-0.1C9.5,4.1,9.5,4.1,9.5,4.2
	c-0.1,0-0.1,0-0.1,0.1l0.1,0.1V4.2z M9.6,7.1l0.1-0.2L9.6,7.1L9.4,6.9C9.4,7,9.5,7.1,9.6,7.1z M9.8,9.7h0.1V9.6c0,0-0.1,0-0.1-0.1
	c0,0-0.1,0-0.1-0.1V9.3L9.5,9.5l0.1,0.1L9.4,9.9C9.4,9.9,9.8,9.7,9.8,9.7z M9.5,7.5h0.2H9.5z M9.5,3.5h0.2H9.5z M9.7,8.5L9.6,8.6
	C9.7,8.6,9.7,8.5,9.7,8.5z"/>
</svg>
