<?xml version="1.0" encoding="utf-8"?>
<!-- Generator: Adobe Illustrator 17.1.0, SVG Export Plug-In . SVG Version: 6.00 Build 0)  -->
<!DOCTYPE svg PUBLIC "-//W3C//DTD SVG 1.1//EN" "http://www.w3.org/Graphics/SVG/1.1/DTD/svg11.dtd">
<svg version="1.1" id="Layer_1" xmlns="http://www.w3.org/2000/svg" xmlns:xlink="http://www.w3.org/1999/xlink" x="0px" y="0px"
	 width="17.8px" height="12.2px" viewBox="0 0 17.8 12.2" enable-background="new 0 0 17.8 12.2" xml:space="preserve">
<path fill="#404040" d="M6.2,5.3C6,5.2,5.9,5.1,5.8,5L5.5,4.7L5.4,4.2c0-0.1,0-0.3,0.1-0.5c0-0.2,0.1-0.4,0.2-0.6
	C5.8,2.9,5.9,2.7,6,2.6c0-0.2,0.1-0.2,0.3-0.2l0.1-0.1l0.1-0.1l0.1-0.1h0.1c0,0.1,0,0.1-0.1,0.2L6.5,2.5L6.4,2.7V3
	c0,0.2,0.1,0.3,0.2,0.4C6.7,3.2,6.8,3.3,7,3.3s0.3,0.1,0.4,0.1c0.1,0.1,0.2,0.1,0.2,0.3v0.7c0,0.2-0.1,0.3-0.2,0.4L7.3,5.1L7,5.3
	c0,0-0.2,0.1-0.4,0.1S6.3,5.3,6.2,5.3z M7.5,8.8L7.1,8.6c0,0-0.2-0.1-0.3-0.2L6.5,8.3c-0.1,0-0.2,0.1-0.3,0.2
	C6.1,8.6,6.1,8.7,6.1,8.9s0,0.2,0.1,0.3c0,0.1,0.1,0.2,0.1,0.2c0.1,0.1,0.1,0.1,0.1,0.2s0.1,0.1,0.1,0.2s0,0.2-0.1,0.3
	s-0.2,0.1-0.2,0.2C5.8,10.2,5.6,10,5.6,9.6c0-0.3,0.1-0.6,0.2-0.9C6,8.3,6.2,8.1,6.4,7.9h0.1c0,0.2,0.1,0.3,0.3,0.3h0.7l0.1,0.1v0.1
	h0.1c0.1,0,0.2,0,0.3-0.1s0.2-0.1,0.4-0.1H10c0,0,0.4,0,0.6,0.1c0.2,0,0.4,0,0.5,0.1s0.2,0,0.3,0.1c0.1,0,0.2,0,0.3-0.1
	C11.8,8.2,11.9,8.1,12,8c0.1-0.1,0.1-0.2,0.2-0.4c0-0.1,0.1-0.2,0.1-0.4V7.1L12.4,7v0.4c-0.1,0.2-0.1,0.5-0.3,0.8l-0.4,0.9
	c0,0-0.4,0.7-0.7,0.9s-0.5,0.3-0.8,0.3c-0.1,0-0.3,0-0.6-0.1S9.2,10,8.9,9.8C8.6,9.7,8.4,9.6,8.2,9.4C8,9.3,7.8,9.2,7.8,9
	C7.7,9,7.6,8.9,7.5,8.8z M6.4,4L6.2,3.8L6,3.9L6.1,4V3.9l0.1,0.2L6.4,4z M6.2,3.5L6.2,3.5L6.2,3.5z M6.3,4.7H6.1H6.3z M6.7,3.8
	L6.7,3.8C6.8,3.9,6.8,3.8,6.7,3.8L6.7,3.8L6.7,3.8z M6.7,4.2v0.2V4.2z M7.1,7.3C7.3,7.2,7.4,7.1,7.4,7l0.7-0.7
	C8.4,6,8.7,5.7,8.9,5.4s0.4-0.6,0.5-1c0.1-0.3,0.2-0.7,0.2-1s0-0.6-0.1-0.7c0-0.2-0.1-0.3-0.2-0.4C9.2,2.1,9.1,2,9,2L8.7,1.8
	L8.4,1.7L8.2,1.6h0.2c0.3,0,0.5,0,0.7,0.1s0.5,0.1,0.7,0.1s0.4,0.1,0.6,0.2c0.2,0.1,0.5,0.2,0.7,0.4l0.6,0.5C11.9,3.1,12,3.3,12,3.4
	c0.1,0.3,0.1,0.6,0.1,0.9c0,0.2,0,0.4-0.1,0.6s0,0.4-0.1,0.6S11.7,5.8,11.5,6L11,6.4l-0.4,0.2L10,6.8L9.3,6.9C9,6.9,8.8,6.9,8.6,7
	C8.4,7,8.2,7,8.1,7.1c-0.2,0-0.3,0.1-0.3,0.1c-0.1,0-0.2,0.1-0.2,0.1L7.4,7.4c0,0-0.2,0.1-0.3,0.2H6.7C6.9,7.5,7,7.4,7.1,7.3z
	 M6.8,4.5L6.8,4.5L7,4.4L6.8,4.5C6.9,4.4,6.8,4.4,6.8,4.5z M6.9,4.7L6.9,4.7L6.9,4.7z M9.1,9.2H9H9.1z M9.3,6.1L9.3,6.1L9.3,6.1z
	 M9.6,9.6l0.1,0.1V9.4L9.6,9.3h0.1c0,0,0.1,0,0.1-0.1L9.6,9.1L9.5,9.2H9.3c0.1,0,0.1,0.1,0.1,0.2v0.2l0.1-0.1L9.6,9.6L9.4,9.7
	L9.6,9.6C9.5,9.7,9.6,9.6,9.6,9.6z M9.3,6.5l0.1-0.1L9.3,6.5z M9.5,6.1L9.4,6v0.1H9.5z M9.6,5.7H9.5H9.6L9.6,5.7z M9.6,5.4H9.5H9.6z
	 M9.7,8.8h0.2H9.6L9.5,8.9C9.6,8.9,9.6,8.9,9.7,8.8z M9.6,5.2H9.5H9.6z M9.6,6.2C9.7,6.2,9.7,6.1,9.6,6.2z M9.7,5.2L9.8,5L9.7,5.2z
	 M9.9,9.7L9.7,9.8L9.9,9.7z M9.8,5.3L9.8,5.3L9.8,5.3z M10,5.5H9.9v0.1L10,5.5z M10.1,9.2c-0.2,0-0.2,0.1-0.2,0.1v0.1
	c0,0,0,0.1-0.1,0.1c0.1,0,0.1,0,0.1-0.1C9.9,9.4,10,9.3,10.1,9.2l0.1,0V9.1h0.2v0.1V9c0-0.1,0.1-0.2,0.1-0.2h-0.1l-0.1,0.1
	C10.2,9,10.2,9,10.1,9l0.1-0.1l-0.1-0.2L10,8.9C10.1,8.9,10.1,9,10.1,9.2z M10,9H9.9L10,9.1V9z M10,5.2L10,5.2
	C9.9,5.2,9.9,5.2,10,5.2z M10,6c0,0,0-0.1-0.1-0.1L10,6L10,6L10,6z M10,8.8V8.7V8.8z M10.1,9.6c-0.1,0-0.1,0-0.1,0.1L10.1,9.6
	C10.2,9.5,10.1,9.5,10.1,9.6z M10.1,3.7c0,0,0,0.1,0.1,0.1l0.1-0.1V3.6h-0.1L10.1,3.7L10.1,3.7L10.1,3.7z M10.4,2.8L10.4,2.8
	l0.1-0.2V2.5h-0.2c0,0,0-0.1,0.1-0.1V2.3c-0.1,0-0.2,0-0.2,0.1s-0.1,0.1-0.1,0.2l0.1-0.1l0.1,0.1l-0.1,0.1L10.4,2.8
	C10.3,2.7,10.4,2.8,10.4,2.8z M10.1,3.5L10.1,3.5L10.1,3.5z M10.4,3h-0.2H10.4C10.3,3.1,10.4,3,10.4,3z M10.2,5.1
	C10.2,5,10.3,5,10.3,5l0.1-0.1C10.4,4.9,10.3,4.9,10.2,5.1C10.2,5,10.2,5.1,10.2,5.1z M10.2,9.7l0.1-0.1L10.2,9.7z M10.2,5.7
	C10.3,5.8,10.3,5.7,10.2,5.7z M10.4,4.1l0.1,0.1V3.8L10.2,4C10.3,4,10.3,4,10.4,4.1z M10.3,9.9h0.3H10.3z M10.4,3.2h-0.1H10.4z
	 M10.3,3.5l0.1-0.1C10.3,3.4,10.3,3.4,10.3,3.5z M10.4,4.4h-0.1v0.1L10.4,4.4z M10.5,4.6l-0.2,0.1l0.1,0.1
	C10.4,4.8,10.5,4.6,10.5,4.6z M10.4,6.3C10.3,6.2,10.4,6.2,10.4,6.3z M10.4,3.6L10.4,3.6L10.4,3.6z M10.5,9.4
	C10.4,9.5,10.5,9.5,10.5,9.4z M10.5,3l0.1-0.1l0.1-0.1h-0.2C10.5,2.8,10.5,3,10.5,3z M10.6,5.7c0,0,0,0.1-0.1,0.1L10.6,5.7
	C10.7,5.7,10.6,5.7,10.6,5.7z M10.6,3.3c0,0,0-0.1,0.1-0.1l0.1-0.1V3C10.8,3,10.6,3.3,10.6,3.3z M10.6,4.1l-0.1,0.1
	C10.6,4.2,10.6,4.2,10.6,4.1c0.1,0,0.1,0,0.1-0.1C10.7,4.1,10.6,4.1,10.6,4.1z M10.8,4.4h-0.2l-0.1,0.1L10.8,4.4z M10.7,4h-0.1H10.7
	z M10.8,5.3L10.8,5.3l-0.2,0.1L10.8,5.3z M10.6,9.2h0.1H10.6L10.7,9c0,0,0-0.1-0.1-0.1h-0.1V9L10.6,9.2z M10.7,4.9L10.7,4.9
	L10.7,4.9z M10.9,5h-0.1l-0.2,0.2L10.9,5z M10.8,2.7h-0.1v0.1C10.7,2.8,10.7,2.7,10.8,2.7z M10.7,3.8V3.6v0.1
	C10.7,3.7,10.7,3.8,10.7,3.8z M10.8,2.8C10.7,2.9,10.8,2.9,10.8,2.8z M10.9,3.7H11H10.9l-0.2,0.1L10.9,3.7z M10.8,3.3L10.8,3.3
	L10.8,3.3z M10.9,3.1l0.2,0.2V3.1H10.9l0.2-0.2C11,2.9,11,3,10.9,3.1C11,3,10.9,3.1,10.9,3.1z M11.2,3.9l-0.1-0.1L11.2,3.9L11.1,4
	L11.2,3.9z M11.3,5.3l-0.2-0.1L11.3,5.3z M11.1,4.3V4V4.3z M11.1,3.1h0.1H11.1z M11.3,4.5h-0.1H11.3z M11.4,4.8h-0.1H11.4L11.4,4.8z
	 M11.4,9V8.9V9z M11.6,3.9L11.6,3.9h-0.2H11.6z M11.6,4.3L11.6,4.3L11.6,4.3z"/>
</svg>
