<?xml version="1.0" encoding="utf-8"?>
<!-- Generator: Adobe Illustrator 17.1.0, SVG Export Plug-In . SVG Version: 6.00 Build 0)  -->
<!DOCTYPE svg PUBLIC "-//W3C//DTD SVG 1.1//EN" "http://www.w3.org/Graphics/SVG/1.1/DTD/svg11.dtd">
<svg version="1.1" id="Layer_1" xmlns="http://www.w3.org/2000/svg" xmlns:xlink="http://www.w3.org/1999/xlink" x="0px" y="0px"
	 width="17.8px" height="12.2px" viewBox="0 0 17.8 12.2" enable-background="new 0 0 17.8 12.2" xml:space="preserve">
<path fill="#404040" d="M2.1,9.8h0.8c0.2,0,0.3-0.1,0.4-0.1s0.2-0.2,0.2-0.4V3.5c0-0.1-0.1-0.1-0.3-0.2H2V3c0.5,0,1-0.1,1.4-0.2
	s0.7-0.3,1-0.5C4.7,2.2,4.9,2,5.1,1.9s0.3-0.2,0.5-0.2h0.3L6,1.8v6.5c0,0.5,0,0.9,0.1,1.3c0.1,0.1,0.2,0.2,0.3,0.2H7l0.2-0.1
	l0.2,0.1l-0.1,0.3C6.9,10,6.6,10,6.2,10H2.1L2,10.1L2.1,9.8z M3.8,9.5v0.1V9.5z M3.9,4.2h0.2H3.9z M4.1,3.6C4.1,3.6,4.1,3.7,4.1,3.6
	L4.1,3.6l0.2-0.1L4.2,3.3L4,3.5C4,3.5,4,3.6,4.1,3.6z M4.1,5.1C4.1,5.1,4,5.1,4.1,5.1L4.4,5L4.3,4.9H4.1C4.1,4.9,4.1,5.1,4.1,5.1z
	 M4.1,6.6L4.1,6.6l0.2-0.2H4.2L4.1,6.6z M4.2,9.7c0.1,0.1,0.1,0.1,0.1,0.2c0,0,0.1-0.1,0.1-0.2V9.6c0,0,0-0.1-0.1-0.1L4,9.6
	C4.1,9.6,4.2,9.7,4.2,9.7z M4.1,9.1h0.3L4.3,9c0,0-0.1-0.1-0.1-0.2L4.1,8.9C4.1,8.9,4.1,9.1,4.1,9.1z M4.1,6.3
	C4.1,6.3,4.2,6.3,4.1,6.3L4.1,6.3z M4.4,4L4.4,4c0.1-0.1,0.1-0.2,0.2-0.2V3.7L4.4,3.6L4.2,3.9C4.2,3.9,4.4,4,4.4,4z M4.3,4.5
	c0.1,0.1,0.1,0.1,0.2,0.1c0-0.1,0-0.2,0.1-0.3s0-0.2,0.1-0.3C4.6,4.2,4.4,4.3,4.2,4.3C4.2,4.3,4.2,4.4,4.3,4.5z M4.2,6.2h0.2H4.2z
	 M4.6,5.2L4.6,5.2h0.2H4.6l0.2-0.3V4.8c0,0,0-0.1-0.1-0.1v0.2C4.6,5.1,4.6,5.1,4.6,5.2L4.4,5.1v0.2C4.4,5.3,4.6,5.2,4.6,5.2z
	 M4.4,8.9l0.1-0.1C4.4,8.8,4.4,8.8,4.4,8.9z M4.4,3.2v0.2V3.3C4.4,3.3,4.4,3.2,4.4,3.2z M4.6,7.4H4.4H4.6z M4.5,8.7h0.2H4.5z
	 M4.7,6.8C4.7,6.7,4.7,6.7,4.7,6.8l0.2-0.1c0,0,0.1,0,0.1-0.1s-0.1,0-0.2,0L4.5,6.7l0.1,0.1H4.5H4.7L4.7,6.8
	C4.7,6.9,4.7,6.8,4.7,6.8z M4.7,3.2c0,0-0.1,0.1-0.1,0.2L4.7,3.2C4.8,3.2,4.8,3.1,4.7,3.2L4.7,3.2z M4.6,6.5
	C4.7,6.5,4.7,6.6,4.6,6.5l0.2-0.1c0,0-0.1,0-0.1-0.1L4.6,6.2C4.6,6.2,4.6,6.5,4.6,6.5z M4.6,9.9l0.1-0.1C4.6,9.8,4.6,9.8,4.6,9.9z
	 M4.8,6L4.8,6L4.8,6z M4.7,3.9L4.7,3.9L4.7,3.9z M4.7,6.7h0.2H4.7z M5,9.2H4.8c0,0-0.1,0-0.1,0.1l0.1,0.1C4.8,9.4,5,9.2,5,9.2z
	 M5,7.9L5,7.9l0.1-0.2L5,7.6L4.9,7.7L5,7.9z M5,3.7h0.4l0.1,0.1v0.1l0.1-0.2V3.6H5.4V3.5l0.1-0.1c-0.1,0-0.1,0-0.2,0.1
	C5,3.5,4.9,3.6,5,3.7z M5.1,9.9L4.9,9.8L5.1,9.9z M5,2.6h0.2H5z M5.1,5.6L5.1,5.6L5.1,5.6L5.1,5.6z M5,9.5v0.1C5,9.6,5.1,9.6,5,9.5
	c0.1,0,0.1,0,0.1-0.1L5,9.5z M5.2,4.7L5.2,4.7l0.2-0.1L5.2,4.7z M5.1,6.3L5.1,6.3L5.1,6.3L5.1,6.3z M5.1,5l0.2-0.1L5.1,5z M5.3,4.2
	C5.3,4.1,5.3,4.1,5.3,4.2C5.3,4.1,5.3,4.1,5.3,4.2C5.2,4.2,5.2,4.2,5.3,4.2v0.2V4.2z M5.4,7.1l0.1-0.2L5.4,7.1L5.2,6.9
	C5.2,7,5.3,7.1,5.4,7.1z M5.6,9.7L5.6,9.7l0.1-0.1c0,0-0.1,0-0.1-0.1c0,0-0.1,0-0.1-0.1V9.3L5.3,9.5l0.1,0.1L5.2,9.9
	C5.2,9.9,5.6,9.7,5.6,9.7z M5.3,7.5h0.2H5.3z M5.3,3.5h0.2H5.3z M5.5,8.5L5.4,8.6C5.5,8.6,5.5,8.5,5.5,8.5z M11.5,5.8l-0.2,0.5
	l-0.1,0.5v1.5c0,0.2,0,0.4,0.1,0.7c0,0.2,0.1,0.4,0.2,0.6c0.1,0.2,0.2,0.4,0.3,0.5c-0.2,0-0.4,0-0.6-0.1l-0.6-0.3
	c-0.2-0.1-0.4-0.3-0.5-0.4L9.7,8.9c-0.4-0.5-0.6-1-0.8-1.5C8.7,6.8,8.6,6.3,8.6,5.7V4.9c0-0.1,0-0.2,0.1-0.2c0-0.2,0-0.4,0.1-0.5
	C9,3.9,9,3.8,9.1,3.6c0.2-0.1,0.3-0.3,0.4-0.4s0.2-0.3,0.3-0.5l0.6-0.6c0.2-0.2,0.5-0.3,0.8-0.5L12,1.3c0.3-0.1,0.6-0.1,0.8-0.1H13
	c0.3,0.1,0.5,0.2,0.7,0.2c0.2,0.1,0.4,0.1,0.5,0.2l0.5,0.3c0,0,0.3,0.4,0.5,0.6v0.8l-0.1,0.3c0,0.1-0.1,0.2-0.2,0.2h-0.3
	c0,0-0.1,0-0.1,0.1h-0.6l-0.4-0.2c0,0-0.4,0-0.5-0.1l-0.2-0.3c0,0-0.1-0.3-0.1-0.4c0-0.1,0-0.2,0.1-0.3c0-0.1,0.1-0.2,0.2-0.3
	c0.1-0.1,0.1-0.2,0.2-0.2l0.2-0.2V1.8l-0.1-0.3c0,0-0.1-0.1-0.2-0.1h-0.6c-0.2,0-0.4,0-0.5,0.1l-0.3,0.3c-0.1,0.1-0.1,0.3-0.2,0.5
	s-0.1,0.3-0.2,0.5c0,0.4,0,0.9-0.1,1.3c0,0.4-0.1,0.8-0.1,1.3l0.1-0.1l0.2-0.1l0.1,0.1C11.6,5.4,11.6,5.6,11.5,5.8z M8.9,6H9H8.9z
	 M9.2,5.2C9.3,5.1,9.2,5.1,9.2,5.2z M9.5,4.5H9.4H9.5z M9.7,5.4H9.6H9.7z M9.7,3.7L9.7,3.7L9.7,3.7z M9.9,6.3L9.7,6.4L9.9,6.3z
	 M9.9,5.1L9.9,5.1L9.9,5.1z M10,4.4v0.2h0.2c0.1,0,0.1-0.1,0.1-0.2s0-0.1-0.1-0.1S10,4.4,10,4.4z M10,3.6l0.2,0.1L10,3.6z M10.1,3.2
	C10.1,3.3,10.2,3.3,10.1,3.2z M10.2,2.9L10.2,2.9L10.2,2.9z M10.3,6l0.1-0.2L10.3,6z M10.3,3.1L10.3,3.1L10.3,3.1z M10.5,3.6h-0.2
	H10.5z M10.5,6.6h-0.1H10.5z M10.5,3l0.1-0.1C10.5,2.9,10.5,3,10.5,3z M10.8,3.2h-0.2H10.8C10.7,3.2,10.8,3.2,10.8,3.2z M11,2.6h0.1
	H11z M12.5,9.9c0.1,0,0.2-0.1,0.2-0.1c0.1,0,0.1,0,0.1-0.1V9.6c0-0.1,0-0.1,0.1-0.2c0-0.1,0.1-0.2,0.2-0.4V6.3
	c0-0.2-0.1-0.4-0.1-0.5s-0.2-0.3-0.3-0.4c-0.1,0-0.1,0-0.2-0.1c-0.1,0-0.1-0.1-0.1-0.1c0.1-0.1,0.1-0.1,0.2-0.1h0.3
	c0.3,0,0.7,0.1,1,0.2s0.7,0.3,0.9,0.5c0.3,0.2,0.5,0.4,0.7,0.7c0.2,0.3,0.3,0.6,0.3,1c0,0.3-0.1,0.6-0.2,0.9c-0.1,0-0.3,0.3-0.6,0.6
	c-0.2,0.3-0.5,0.5-0.8,0.7s-0.6,0.3-0.9,0.4c-0.1,0-0.2,0-0.3,0.1l-0.3,0.1H12c-0.1,0-0.1-0.1-0.1-0.1C12.2,10,12.4,10,12.5,9.9z
	 M13.8,8.7l-0.1-0.1v0.1H13.8z M14,2.4l0.2-0.1l0.1-0.1C14.3,2.2,14,2.4,14,2.4z M14.1,8.3H14H14.1z M14.3,2.4l-0.2,0.1L14.3,2.4
	v0.2V2.4z M14.5,3.9V3.7V3.9z"/>
</svg>
