<?xml version="1.0" encoding="utf-8"?>
<!-- Generator: Adobe Illustrator 17.1.0, SVG Export Plug-In . SVG Version: 6.00 Build 0)  -->
<!DOCTYPE svg PUBLIC "-//W3C//DTD SVG 1.1//EN" "http://www.w3.org/Graphics/SVG/1.1/DTD/svg11.dtd">
<svg version="1.1" id="Layer_1" xmlns="http://www.w3.org/2000/svg" xmlns:xlink="http://www.w3.org/1999/xlink" x="0px" y="0px"
	 width="17.8px" height="12.2px" viewBox="0 0 17.8 12.2" enable-background="new 0 0 17.8 12.2" xml:space="preserve">
<path fill="#404040" d="M2.2,9.8H3c0.2,0,0.3-0.1,0.4-0.1s0.2-0.2,0.2-0.4V3.5c0-0.1-0.1-0.1-0.3-0.2H2.2L2.1,3.1L2.2,3
	c0.5,0,1-0.1,1.4-0.2s0.7-0.3,1-0.5C4.8,2.2,5.1,2,5.2,1.9c0.2-0.1,0.3-0.2,0.5-0.2H6l0.1,0.1v6.4c0,0.5,0,0.9,0.1,1.3
	c0.1,0.1,0.2,0.2,0.3,0.2h0.7l0.2-0.1l0.2,0.1L7.5,10C7.1,9.9,6.8,9.9,6.4,9.9H2.3C2.3,9.9,2.2,9.8,2.2,9.8z M3.9,9.5v0.1V9.5z
	 M4,4.2h0.2C4.2,4.2,4,4.2,4,4.2z M4.2,3.6C4.2,3.6,4.2,3.7,4.2,3.6L4.2,3.6l0.2-0.1L4.3,3.3L4.2,3.6L4.2,3.6z M4.2,5.1
	C4.2,5.1,4.1,5.1,4.2,5.1L4.5,5L4.4,4.9H4.2L4.2,5.1C4.3,5,4.3,5.1,4.2,5.1z M4.2,6.6L4.2,6.6l0.2-0.2H4.3L4.2,6.6z M4.3,9.7
	c0.1,0.1,0.1,0.1,0.1,0.2c0,0,0.1-0.1,0.1-0.2V9.6c0,0,0-0.1-0.1-0.1L4.2,9.6L4.3,9.7z M4.2,9.1h0.3C4.5,9,4.4,9,4.4,9
	S4.3,8.9,4.3,8.8L4.2,8.9C4.2,8.9,4.2,9.1,4.2,9.1z M4.3,6.3C4.3,6.3,4.4,6.3,4.3,6.3L4.3,6.3z M4.5,4L4.5,4
	c0.1-0.1,0.1-0.2,0.2-0.2V3.7L4.5,3.6L4.3,3.9C4.3,3.9,4.5,4,4.5,4z M4.4,4.5c0.1,0.1,0.1,0.1,0.2,0.1c0-0.1,0-0.2,0.1-0.3
	S4.8,4.1,4.8,4C4.7,4.2,4.5,4.3,4.3,4.3C4.3,4.3,4.3,4.4,4.4,4.5z M4.4,6.2h0.2H4.4z M4.7,5.2L4.7,5.2h0.2H4.7l0.2-0.3V4.8
	c0,0,0-0.1-0.1-0.1v0.2C4.8,5.1,4.7,5.1,4.7,5.2L4.7,5.2L4.5,5.3C4.5,5.3,4.7,5.2,4.7,5.2z M4.5,8.9l0.1-0.1
	C4.5,8.8,4.5,8.8,4.5,8.9z M4.5,3.2v0.2V3.3C4.5,3.3,4.5,3.2,4.5,3.2z M4.7,7.4L4.7,7.4L4.7,7.4z M4.6,8.7h0.2H4.6z M4.9,6.8
	C4.9,6.7,4.9,6.7,4.9,6.8l0.2-0.1c0,0,0.1,0,0.1-0.1c-0.1-0.1-0.2,0-0.3,0L4.6,6.7l0.1,0.1H4.6H4.9L4.8,6.9C4.8,6.9,4.9,6.8,4.9,6.8
	z M4.8,3.2c0,0-0.1,0.1-0.1,0.2L4.8,3.2C4.9,3.2,4.9,3.1,4.8,3.2L4.8,3.2z M4.7,6.5C4.8,6.5,4.8,6.6,4.7,6.5L5,6.4
	c0,0-0.1,0-0.1-0.1L4.8,6.2v0.1C4.7,6.4,4.7,6.5,4.7,6.5z M4.7,9.9l0.1-0.1C4.8,9.8,4.7,9.8,4.7,9.9z M4.9,6L4.9,6L4.9,6z M4.8,3.9
	L4.8,3.9L4.8,3.9z M4.8,6.7H5H4.8z M5.1,9.2H4.9c0,0-0.1,0-0.1,0.1L5,9.4C5,9.4,5.1,9.2,5.1,9.2z M5.1,7.9L5.1,7.9l0.1-0.2
	c0,0,0-0.1-0.1-0.1L5,7.7L5.1,7.9z M5.1,3.7h0.4l0.1,0.1v0.1l0.1-0.2V3.6H5.5V3.5l0.1-0.1c-0.1,0-0.1,0-0.2,0.1
	C5.1,3.5,5.1,3.6,5.1,3.7z M5.2,9.9L5.1,9.8C5.1,9.8,5.1,9.9,5.2,9.9z M5.1,2.6h0.2H5.1z M5.3,5.6H5.1v0.1L5.3,5.6z M5.2,9.5v0.1
	V9.5c0.1,0,0.1,0,0.1-0.1L5.2,9.5z M5.3,4.7L5.3,4.7l0.2-0.1L5.3,4.7z M5.2,6.3L5.2,6.3L5.2,6.3L5.2,6.3z M5.2,5l0.2-0.1L5.2,5z
	 M5.4,4.2C5.4,4.1,5.4,4.1,5.4,4.2C5.4,4.1,5.4,4.1,5.4,4.2C5.3,4.2,5.3,4.2,5.4,4.2v0.2V4.2z M5.5,7.1l0.1-0.2L5.5,7.1L5.3,6.9
	C5.3,7,5.4,7.1,5.5,7.1z M5.7,9.7L5.7,9.7l0.1-0.1c0,0-0.1,0-0.1-0.1c0,0-0.1,0-0.1-0.1V9.3L5.4,9.5l0.1,0.1L5.4,9.9
	C5.4,9.9,5.7,9.7,5.7,9.7z M5.4,7.5h0.2H5.4z M5.5,3.5h0.2H5.5z M5.6,8.5L5.5,8.6C5.6,8.6,5.6,8.5,5.6,8.5z M9.6,6.3L9.1,5.8
	C9,5.7,8.9,5.5,8.8,5.3c0-0.2-0.1-0.4-0.1-0.7c0-0.4,0.1-0.7,0.2-1C9,3.3,9.2,3.1,9.4,2.9s0.4-0.4,0.7-0.6S10.7,2,11,1.9
	c0.1-0.1,0.3-0.1,0.3-0.2c0.1-0.1,0.2-0.1,0.4-0.1h0.2c0.1,0,0.2,0,0.2,0.1h-0.3c-0.2,0.2-0.4,0.4-0.5,0.7s-0.1,0.5-0.2,0.8v2.2
	c0,0.2,0,0.3,0.1,0.5c0.1,0.1,0.1,0.3,0.3,0.4s0.3,0.2,0.5,0.3c0,0.1-0.1,0.1-0.1,0.1s-0.1,0.1-0.2,0.1h-0.9
	c-0.1-0.1-0.1-0.1-0.2-0.1h-0.5C9.9,6.5,9.8,6.4,9.6,6.3z M10.7,10.2c-0.3-0.1-0.5-0.2-0.7-0.4S9.6,9.4,9.5,9.2S9.2,8.8,9.2,8.5
	c0-0.2,0-0.3,0.1-0.4l0.3-0.3C9.7,7.7,9.9,7.6,10,7.6s0.3-0.1,0.4-0.1l0.3,0.1c0.1,0,0.2,0,0.3,0.1c0.1,0,0.2,0.1,0.2,0.1L11.4,8
	c0,0.1,0,0.2,0.1,0.3s0.1,0.2,0.1,0.3c0,0.2,0,0.3-0.1,0.4s-0.1,0.2-0.2,0.3c-0.1,0.1-0.2,0.2-0.2,0.3L11,9.7c0,0.1,0,0.2,0.1,0.2
	l0.2,0.2c0.1,0,0.2,0.1,0.2,0.1h0.4l-0.1,0.1h-0.4C11.3,10.3,11,10.2,10.7,10.2z M9.4,4.1H9.3H9.4z M9.7,3.4h0.1H9.7L9.5,3.5
	C9.6,3.5,9.6,3.5,9.7,3.4z M9.6,4.2c0,0.1,0.1,0.1,0.1,0.1L9.6,4.2V4V4.2z M9.8,3.1H9.6v0.1L9.8,3.1z M9.9,3.4L9.7,3.5l0.1,0.1
	C9.8,3.6,9.9,3.4,9.9,3.4z M9.8,8.1L9.9,8V7.9L9.8,8.1z M10,5.7C10,5.6,9.9,5.6,10,5.7z M10.1,6C10.1,5.9,10,5.9,10.1,6z M10.3,4.6
	l-0.2,0.1l0.2,0.1V4.6z M10.1,4.4h0.1H10.1z M10.2,5.3L10.2,5.3L10.2,5.3z M10.4,5.6l0.1-0.1L10.4,5.6z M10.5,5.2v0.2V5.2z
	 M10.5,3.8c0.1,0,0.1-0.1,0.1-0.2L10.5,3.8z M10.5,4.5L10.5,4.5L10.5,4.5z M10.9,3.3h-0.2l-0.1-0.1c0,0.1,0,0.1-0.1,0.2l-0.1,0.1
	h0.1C10.5,3.5,10.9,3.3,10.9,3.3z M10.8,5.2L10.8,5.2L10.8,5.2z M10.9,5.9C11,5.8,10.9,5.8,10.9,5.9z M12.2,10.1l0.1-0.1l0.2-0.1
	c0.1,0,0.1-0.1,0.1-0.1c0-0.1,0-0.3,0.1-0.4c0-0.1,0.1-0.2,0.1-0.4c0-0.1,0.1-0.2,0.1-0.4S13,8.4,13,8.3c0-0.3,0-0.5,0.1-0.8V6.4
	c0-0.1,0-0.1-0.1-0.2c0-0.1,0-0.1-0.1-0.1h-0.2c0-0.1,0-0.2,0.1-0.3c0.1,0.1,0.2,0,0.2-0.1V5c0,0,0-0.5,0.1-0.7V3.6L13,3.4V3.2
	c0-0.2,0-0.4-0.1-0.6s-0.1-0.3-0.1-0.5c-0.1-0.1-0.1-0.2-0.1-0.3s-0.1-0.1-0.1-0.2h0.3l0.2,0.1c0.3,0,0.5,0.1,0.8,0.3
	s0.5,0.4,0.7,0.7l0.6,0.8c0.2,0.3,0.3,0.6,0.3,0.8c0.1,0.2,0.1,0.5,0.1,0.7v0.7c0,0.3,0,0.6-0.1,0.8S15.4,7,15.3,7.2
	c-0.1,0.2-0.2,0.4-0.4,0.6c-0.1,0.2-0.3,0.4-0.5,0.7c0,0-0.1,0.1-0.1,0.2l-0.1,0.2C14.1,9,14.1,9,14,9l-0.2,0.1
	c-0.2,0.2-0.5,0.4-0.8,0.5L12.1,10L12,9.9C12.2,10.2,12.2,10.1,12.2,10.1z M13.5,8.7h-0.2H13.5z M13.3,3.3l0.1-0.1L13.3,3.3z
	 M13.6,7.8l-0.2-0.1L13.6,7.8z M13.5,3.5c-0.1,0-0.1,0-0.2,0.1L13.5,3.5L13.5,3.5z M13.6,3.9l-0.1-0.1L13.6,3.9z M13.5,5.7h-0.1
	H13.5z M14.1,4.7L14,4.6L14.1,4.7l0-0.2V4.3l-0.2-0.1V4.1h-0.2V4h-0.2v0.2l0.2,0.1l0.1-0.2l0.1,0.2h0.2c0,0.1,0,0.2-0.1,0.2h-0.2
	v0.1h0.1c0,0.1,0,0.1-0.1,0.1h-0.2c0,0-0.1,0-0.1,0.1V5l0.3-0.1V4.8c0,0,0-0.1,0.1-0.1H14.1c-0.2,0.1-0.2,0.1-0.3,0.2l-0.2,0.2
	l0.1,0.2V5.2L13.9,5L14,4.9C14,4.9,14.1,4.7,14.1,4.7z M13.5,9.1h0.1C13.6,9.1,13.6,9,13.5,9.1z M13.5,4.5h0.1H13.5z M13.9,3.8h0.3
	h-0.1c0.1,0,0.1-0.1,0.1-0.2V3.4l-0.1,0.1L14,3.3l-0.2,0.1l0.1-0.1l-0.1-0.1h-0.1v0.2h-0.1c0,0.1,0,0.1,0.1,0.1l0.1,0.1H14
	C14,3.6,13.9,3.8,13.9,3.8z M13.6,8L13.6,8L13.6,8z M13.7,8.3C13.6,8.4,13.7,8.4,13.7,8.3z M13.7,7.8c0,0.1,0.1,0.1,0.1,0.1
	C13.8,7.8,13.8,7.8,13.7,7.8c0.1-0.1,0.1-0.2,0-0.2C13.6,7.7,13.7,7.7,13.7,7.8z M13.8,2.8C13.7,2.9,13.8,2.9,13.8,2.8z M13.8,4.4
	L13.8,4.4L13.8,4.4z M13.8,8.9H14H13.8z M14,4v0.3C14,4.3,14,4,14,4z M14.1,7.8h0.1C14.1,7.7,14.1,7.7,14.1,7.8z M14,8.2l0.1-0.1
	C14,8.1,14,8.1,14,8.2z M14.1,8.4v0.1V8.4z M14.2,7c0.1,0.1,0.1,0,0.1,0H14.2z M14.2,8.1l-0.1,0.1h0.1V8.1z M14.2,4.5V4.3V4.5z
	 M14.2,2.9C14.3,3,14.3,2.9,14.2,2.9z M14.3,4.7l0.1-0.1L14.3,4.7z M14.5,5.4c0.1,0,0.2,0,0.2-0.1c0,0,0-0.1,0.1-0.1V5.1
	c0,0,0-0.1,0.1-0.1h0.2V4.9h0.1V5l0.1-0.1V4.4H15V4.3l0.1-0.1L15,4h-0.1V3.9h-0.1c0,0,0,0.1-0.1,0.1c0,0,0,0.1-0.1,0.1l-0.1,0.1v0.1
	c0,0-0.1,0-0.1,0.1l-0.1,0.1l0.1,0.1v0.2l0.1-0.1l0.1,0.2l-0.2-0.1l-0.1,0.1l0.1,0.2h0.1V5.4z M14.6,3.9l-0.1-0.1l-0.1,0.1
	C14.4,3.9,14.6,3.9,14.6,3.9z M14.7,4.1L14.7,4.1L14.7,4.1z M14.8,5.2l0.1-0.1L14.8,5.2z M14.8,7.2L15,7.4L14.8,7.2z M15.1,4.9v0.3
	V4.9z"/>
</svg>
