<?xml version="1.0" encoding="utf-8"?>
<!-- Generator: Adobe Illustrator 17.1.0, SVG Export Plug-In . SVG Version: 6.00 Build 0)  -->
<!DOCTYPE svg PUBLIC "-//W3C//DTD SVG 1.1//EN" "http://www.w3.org/Graphics/SVG/1.1/DTD/svg11.dtd">
<svg version="1.1" id="Layer_1" xmlns="http://www.w3.org/2000/svg" xmlns:xlink="http://www.w3.org/1999/xlink" x="0px" y="0px"
	 width="17.8px" height="12.2px" viewBox="0 0 17.8 12.2" enable-background="new 0 0 17.8 12.2" xml:space="preserve">
<path fill="#404040" d="M6.9,10c-0.2,0-0.3-0.1-0.4-0.2L6,9.2C5.9,9.1,5.8,9,5.7,8.8S5.6,8.6,5.6,8.5V7.9l0.1-0.5
	C5.8,7.3,5.9,7.1,6,7.1S6.4,7,6.7,7H7c0.1,0,0.3,0.1,0.4,0.2l0.3,0.3c0.1,0.1,0.1,0.2,0.1,0.3c0,0.3,0,0.5-0.1,0.7
	C7.6,8.6,7.5,8.8,7.3,8.9L7,9.2C6.9,9.3,6.9,9.4,6.9,9.5s0,0.2,0.1,0.3S7.2,9.9,7.4,10l0.4,0.1h0.3c0.3,0,0.5-0.1,0.7-0.2
	C9,9.7,9.1,9.5,9.2,9.3s0.1-0.5,0.2-0.8V7.8c0-0.4,0-0.7-0.1-0.9C9.2,6.6,9.2,6.4,9.1,6.3C9,6.1,8.8,6,8.7,5.9S8.4,5.8,8.2,5.8
	S7.8,5.7,7.5,5.7S7,5.7,6.8,5.6L6.7,5.5l0.1-0.1h0.8c0.2,0,0.4,0,0.5-0.1l0.5-0.2C8.7,5.1,8.8,5,9,4.9l0.3-0.5c0,0,0.1-0.2,0.1-0.4
	V2.3c0,0,0-0.2-0.1-0.3L9.1,1.8c0,0-0.1-0.1-0.2-0.1L8.7,1.6h0.1c0.3,0,0.6,0.1,1,0.2s0.7,0.2,1,0.4s0.6,0.4,0.8,0.7s0.3,0.6,0.3,1
	c0,0.3-0.1,0.5-0.2,0.6c-0.1,0.2-0.2,0.3-0.4,0.4l-0.5,0.3c-0.2,0.1-0.4,0.1-0.5,0.2C10.1,5.5,10,5.5,9.9,5.5
	c-0.1,0-0.2,0.1-0.2,0.1c0,0.1,0.1,0.1,0.2,0.2L10.3,6l0.4,0.2L11,6.3c0.3,0.2,0.5,0.4,0.8,0.7s0.3,0.6,0.3,1c0,0.4-0.1,0.8-0.3,1
	c-0.2,0.3-0.4,0.5-0.7,0.7C11,9.8,10.7,9.9,10.4,10l-1,0.3c-0.1,0-0.1,0-0.2,0.1h-1c-0.1,0-0.2-0.1-0.4-0.1c-0.1,0-0.2-0.1-0.4-0.1
	H7.3C7.2,10.1,7.1,10,6.9,10z M6.1,2.7c0.1-0.2,0.2-0.4,0.4-0.5C6.7,2,6.8,1.8,7,1.7s0.4-0.2,0.5-0.2h0.1c-0.1,0-0.2,0.1-0.3,0.2
	S7.4,2,7.4,2.1v0.1l0.2,0.2c0,0,0.2,0.2,0.2,0.3L8,3c0.1,0.1,0.1,0.2,0.1,0.2c0,0.1,0,0.3-0.1,0.4C7.9,3.8,7.9,3.9,7.8,4L7.5,4.2
	c0,0-0.3,0.1-0.4,0.1s-0.3,0-0.4-0.1C6.5,4.1,6.4,4.1,6.3,4S6.1,3.8,6,3.6V3.2C6,3.1,6,2.9,6.1,2.7z M6.2,8.3C6,8.3,6,8.4,6,8.4v0.1
	L6.2,8.3c0,0,0.1-0.1,0.2-0.1c0,0,0-0.1-0.1-0.1C6.2,8,6.1,8,6.1,8l0.1-0.2c0,0-0.1,0-0.1,0.1L6,8.1C6,8.2,6,8.2,6.2,8.3
	C6.2,8.2,6.2,8.2,6.2,8.3z M6.2,7.7L6,7.5C6,7.6,6,7.7,6.2,7.7z M6,7.9v0.2C6,8.1,6,7.9,6,7.9z M6.3,8.7l0.2-0.2l0.1,0.1V8.4H6.2
	c-0.1,0-0.1,0-0.1,0.1v0.4C6.1,8.9,6.3,8.7,6.3,8.7z M6.3,9.2V9.1V9.2z M6.3,7.5L6.3,7.5L6.3,7.5L6.3,7.5z M6.6,7.6H6.4H6.6L6.6,7.6
	z M6.6,8c0.1-0.1,0.2-0.1,0.2-0.2h0.1L6.8,7.7v0.1c0-0.1,0-0.2,0.1-0.2C7,7.5,7,7.5,7,7.4c-0.1,0-0.1,0-0.2,0.1H6.5v0.2
	C6.6,7.8,6.6,7.9,6.6,8H6.3v0.1C6.3,8.1,6.6,8,6.6,8z M6.5,9V8.7L6.4,8.8L6.5,9z M6.7,8.5h0.4c0,0,0-0.1-0.1-0.1c0,0-0.1,0-0.1-0.1
	L7,8.2h0.2V8.1L7,8.2C6.9,8.1,6.9,8,7,8c0.1-0.1,0.1-0.1,0.2-0.1L7.1,7.8V7.4v0.3c0,0-0.2,0.3-0.3,0.3H6.6c0,0-0.1,0-0.1,0.1v0.2
	h0.2l0.1-0.1v0.1C6.8,8.4,6.8,8.4,6.7,8.5z M6.7,3.3C6.7,3.4,6.6,3.4,6.7,3.3z M6.8,3.5L6.8,3.5L6.8,3.5z M6.9,2.7L6.9,2.7
	C6.9,2.8,6.9,2.7,6.9,2.7z M6.9,8.7V8.6V8.7z M7,3.3L6.8,3.2L7,3.3z M6.9,7.7V7.5V7.7z M7,3.5L7,3.5L7,3.5z M7,8.7
	c0.1,0,0.1,0,0.1-0.1C7.1,8.6,7,8.6,7,8.7z M7.2,2.7L7.2,2.7v0.1C7.2,2.8,7.2,2.7,7.2,2.7z M7.1,3.3L7.1,3.3L7.1,3.3z M7.4,8.3
	L7.2,8.2v0.1H7.4z M7.3,3.7L7.3,3.7C7.4,3.8,7.4,3.7,7.3,3.7z M9.3,5.3L9.2,5.4L9.3,5.3L9.3,5.3z M9.4,5.1l0.1,0.2L9.4,5.1z
	 M9.7,5.9L9.5,5.8L9.3,5.9H9.7z M9.5,3.9h0.2H9.5z M9.6,5.1v0.2l0.1-0.1L9.6,5.1c0,0,0-0.1,0.1-0.1h0.2c0-0.1,0-0.1-0.1-0.1L9.6,4.8
	v0.1H9.5C9.5,5,9.5,5.1,9.6,5.1z M9.7,9.7H9.5C9.6,9.8,9.6,9.7,9.7,9.7z M9.7,9.5L9.6,9.6L9.7,9.5z M9.7,6.7L9.6,6.6
	C9.6,6.6,9.6,6.7,9.7,6.7z M9.8,4.2L9.7,4.1L9.8,4.2z M9.8,4.5L9.7,4.6L9.8,4.5h0.1H9.8z M9.7,9v0.1V9z M9.8,2.4l0.1-0.1L9.8,2.2
	C9.8,2.2,9.8,2.4,9.8,2.4z M9.7,6.5C9.8,6.5,9.8,6.4,9.7,6.5z M9.8,3.4L9.8,3.4L9.8,3.4z M9.8,8.5V8.4V8.5z M10.1,8.6L9.7,8.5
	l0.1,0.2C9.8,8.7,10.1,8.6,10.1,8.6z M10,8.8L9.7,8.9L9.9,9C9.9,9,10,8.8,10,8.8z M9.9,3.9H9.8H9.9C10,4,9.9,3.9,9.9,3.9z M10,6.8
	H9.8H10C9.9,6.9,10,6.8,10,6.8z M10,7.3L10,7.3C9.9,7.2,9.8,7.2,9.7,7.1v0.1L10,7.3z M10,9.4H9.8v0.1L10,9.4z M10,8.3H9.8l0.1,0.1
	C9.9,8.4,10,8.3,10,8.3z M10,2.7H9.8H10z M9.9,6.5C10,6.5,10,6.4,9.9,6.5z M10.1,2.6l0.1-0.1H9.9C9.9,2.5,10,2.6,10.1,2.6z M10,3.1
	L9.9,3.2L10,3.1z M9.9,4.1L9.9,4.1c0.1,0.1,0.1,0,0.1,0H9.9z M10,4.2L9.9,4.3L10,4.2z M10.1,3.1V2.7L9.9,2.9L10.1,3.1z M10.1,7
	c0,0,0.1,0,0.1,0.1l0.1,0.1h0.1l0.1-0.1c-0.1,0-0.1,0-0.2,0.1c-0.1,0-0.1-0.1-0.1-0.1H9.9C9.9,7.1,10.1,7,10.1,7z M10.1,6.6H10v0.1
	L10.1,6.6z M10,9h0.1V8.9L10,9z M10.2,2.3L10,2.2v0.1H10.2z M10.1,3.7V3.4H10v0.1C10,3.5,10.1,3.6,10.1,3.7z M10,4.7
	C10.1,4.6,10,4.6,10,4.7z M10.2,4.8L10,4.9L10.2,4.8z M10,8.2v0.1l0.3-0.2c0,0,0.1,0,0.1,0.1v0.1l0.1-0.1c0-0.1,0-0.1-0.1-0.2
	l-0.1-0.1c0,0,0,0.1-0.1,0.1L10,8.2L10,8C10,8,10,8.2,10,8.2z M10.1,8.6h0.1V8.5c0,0,0-0.1,0.1-0.1C10.3,8.4,10.1,8.6,10.1,8.6z
	 M10.3,7.5L10.3,7.5l0.1-0.1l-0.1-0.2L10,7.5C10,7.5,10.3,7.5,10.3,7.5z M10,7.9h0.2H10z M10.2,6.4H10H10.2z M10.2,7.7l-0.1-0.1
	C10.1,7.7,10.2,7.7,10.2,7.7z M10.3,9.6h-0.1l-0.1-0.2V9.3H10v0.5C10.2,9.7,10.3,9.7,10.3,9.6z M10.3,3.2c0.1,0.1,0.2,0.1,0.2,0.1
	L10.3,3.2l0.1-0.1C10.4,3.1,10.3,3.1,10.3,3.2l-0.1,0.1l0.1,0.1C10.3,3.4,10.3,3.2,10.3,3.2z M10.2,4l-0.1-0.1V4H10.2z M10.2,8.7
	l-0.1,0.1L10.2,8.7C10.3,8.6,10.2,8.7,10.2,8.7z M10.5,2.9l-0.2-0.1L10.2,3C10.2,3,10.5,2.9,10.5,2.9z M10.3,8.3l0.1,0.2L10.3,8.3z
	 M10.3,7.7c0-0.1,0-0.1-0.1-0.1C10.3,7.6,10.3,7.7,10.3,7.7z M10.4,6.8C10.3,6.9,10.3,6.8,10.4,6.8z M10.4,9.4c0,0,0.1-0.1,0.1-0.2
	L10.6,9H11l-0.2-0.1h-0.3L10.4,9v0.1l-0.2,0.2v0.1C10.2,9.4,10.4,9.4,10.4,9.4z M10.3,9h0.1V8.9L10.3,9z M10.3,8.6h0.1H10.3z
	 M10.3,7.9c0.1,0,0.1-0.1,0.1-0.1L10.3,7.9z M10.5,6.6L10.5,6.6l0.1,0.1L10.5,6.6l0.1-0.2C10.6,6.4,10.5,6.4,10.5,6.6L10.5,6.6
	C10.4,6.5,10.4,6.6,10.5,6.6z M10.5,7.6h-0.1H10.5z M10.6,3.9h-0.1V4L10.6,3.9z M10.6,4.6h-0.2H10.6z M11,8.5V8.4l-0.1-0.1l-0.1-0.1
	V8c0,0,0-0.1,0.1-0.1L11.1,8l0.2-0.2L11,7.5c-0.1,0.1-0.1,0.2-0.3,0.2c0,0.1,0,0.2-0.1,0.2L10.4,8c0.1,0.1,0.1,0.1,0.1,0.2
	c0,0,0.1,0.1,0.1,0.2h-0.1v0.1h0.2l0.1,0.1v0.2C10.8,8.8,11,8.5,11,8.5z M10.6,8.7l-0.1,0.1L10.6,8.7z M10.5,3l0.1-0.1
	C10.6,2.9,10.6,3,10.5,3z M10.7,7.4h-0.1H10.7L10.7,7.4z M10.7,9.2c-0.1,0.1-0.1,0.1-0.1,0.2L10.7,9.2c0.1,0,0.2,0,0.2-0.1
	C10.8,9.1,10.7,9.1,10.7,9.2z M10.7,2.6l-0.1,0.2L10.7,2.6z M10.6,3.8h0.2H10.6z M10.7,4.3l-0.1,0.1C10.7,4.4,10.7,4.4,10.7,4.3
	c0.1,0.1,0.1,0,0.1,0C10.8,4.2,10.7,4.2,10.7,4.3z M10.7,6.9L10.7,6.9l-0.1-0.1L10.7,6.9z M10.8,8.7l-0.1-0.1v0.1l0.1,0.1V8.7z
	 M10.7,9.5h-0.1H10.7z M10.8,3.1L10.8,3.1l-0.1,0.1l0.1,0.1C10.7,3.2,10.7,3.2,10.8,3.1z M10.8,4.1V3.9l-0.2,0.2H10.8z M10.8,7.2
	L10.8,7.2c0,0.1,0.1,0.1,0.2,0V7.1L10.8,7.2V7V7.2L10.8,7.2z M11,2.8c0.1-0.1,0.1-0.1,0.1-0.2C11,2.6,11,2.6,11,2.8h-0.2v0.1L11,2.8
	z M10.8,3.6l0.1,0.1L10.8,3.6C10.9,3.5,10.9,3.5,10.8,3.6l-0.1-0.1C10.8,3.5,10.8,3.6,10.8,3.6z M11,2.9L10.9,3L11,2.9z M11,4.7
	c0-0.1,0-0.1-0.1-0.1L11,4.7z M11,7c0,0,0,0.1,0.1,0.1V7L11,6.8V7z M11.1,4.3c0,0,0.1,0.1,0.2,0.1V4.2l-0.1-0.1V4l0.1,0.1L11.4,4
	c0.1-0.1,0.1-0.1,0.1-0.2h-0.1c0,0-0.1,0-0.1,0.1h-0.1V4L11,3.9v0.3C11.1,4.2,11.1,4.3,11.1,4.3z M11.1,3.2
	C11.2,3.1,11.1,3.1,11.1,3.2C11.1,3.1,11,3.1,11.1,3.2C11,3.1,11,3.2,11.1,3.2z M11.1,3.5L11.1,3.5L11.1,3.5z M11.1,4.5h0.1H11.1
	C11,4.5,11,4.5,11.1,4.5z M11.2,7.3h0.2c0,0,0.1,0,0.1-0.1C11.4,7.2,11.3,7.2,11.2,7.3c0-0.1-0.1-0.1-0.1,0H11.2z M11.2,7.9L11.1,8
	C11.2,8,11.2,8,11.2,7.9z M11.3,8.4C11.3,8.3,11.4,8.3,11.3,8.4l0.1-0.1l0.1-0.1l-0.1,0.1l-0.1-0.1h-0.1l0.2,0.1L11.3,8.4l-0.1,0.1
	C11.2,8.5,11.3,8.4,11.3,8.4z M11.1,9.1L11.2,9l-0.1-0.2V9.1z M11.1,8.6l0.1-0.1L11.1,8.6z M11.3,7.9L11.5,8c0.1,0,0.2,0,0.2-0.1
	h-0.1H11.3l-0.1-0.1C11.2,7.8,11.3,7.8,11.3,7.9z M11.5,7.7l-0.1-0.1l-0.1-0.1v0.1C11.3,7.6,11.5,7.7,11.5,7.7z M11.5,8.6l0.1-0.2
	C11.5,8.4,11.4,8.4,11.5,8.6c-0.1,0-0.1,0-0.1,0.1l0.1,0.1C11.4,8.7,11.4,8.6,11.5,8.6z M11.4,3.1v0.2V3.1z M11.5,3.6l-0.1-0.1
	L11.5,3.6z M11.5,7.3h-0.1H11.5z M11.6,7.4l-0.1,0.1C11.6,7.5,11.6,7.5,11.6,7.4z M11.6,3.6l0.1-0.1L11.6,3.6z M11.9,7.8
	c0-0.1-0.1-0.1-0.2-0.1L11.9,7.8z"/>
</svg>
