<?xml version="1.0" encoding="utf-8"?>
<!-- Generator: Adobe Illustrator 17.1.0, SVG Export Plug-In . SVG Version: 6.00 Build 0)  -->
<!DOCTYPE svg PUBLIC "-//W3C//DTD SVG 1.1//EN" "http://www.w3.org/Graphics/SVG/1.1/DTD/svg11.dtd">
<svg version="1.1" id="Layer_1" xmlns="http://www.w3.org/2000/svg" xmlns:xlink="http://www.w3.org/1999/xlink" x="0px" y="0px"
	 width="17.8px" height="12.2px" viewBox="0 0 17.8 12.2" enable-background="new 0 0 17.8 12.2" xml:space="preserve">
<path fill="#404040" d="M8,10.2H6.4c-0.1,0-0.1-0.1-0.1-0.1c0-0.1,0-0.1,0.1-0.2s0.1-0.1,0.2-0.1c0.2,0,0.3,0,0.5,0.1L7.6,10
	c0.2,0,0.4,0,0.5-0.1s0.2-0.2,0.2-0.3C8.4,9.3,8.4,9.1,8.4,9V8c0-0.1,0-0.2-0.1-0.2s0-0.1-0.1-0.1H5.4c-0.1,0-0.2,0-0.3-0.1
	C5,7.6,5,7.5,5,7.4V7.3l0.1-0.1l0.1-0.1L5.5,7c0,0,0.1-0.1,0.1-0.2l0.2-0.3C5.9,6.4,6,6.3,6,6.2c0.1-0.1,0.1-0.1,0.2-0.1l1.2-1.5
	c0,0,0.7-1.1,1-1.6c0-0.1,0.1-0.2,0.2-0.4L8.9,2c0,0,0.2-0.4,0.3-0.5c0.1-0.2,0.2-0.2,0.2-0.2h1c0.1,0,0.2,0,0.3,0.1
	c0.2,0,0.3,0.1,0.3,0.3v5.6l0.1,0.2h1.5c0,0,0.1,0,0.2,0.1c0.1,0,0.1,0.1,0.1,0.2l-0.1,0.1c-0.1,0-0.3,0-0.4-0.1L12,7.7h-0.8
	l-0.4,0.4c0,0.1-0.1,0.3-0.1,0.5v0.6c0,0.2,0.1,0.3,0.2,0.4c0.1,0.1,0.2,0.2,0.4,0.2l0.6,0.1h0.4l0.1,0.2c0,0.1,0,0.1-0.1,0.1
	C12.3,10.2,8,10.2,8,10.2z M7.2,7.4h0.7c0.2,0,0.3,0,0.4-0.1c0.2,0,0.2-0.2,0.2-0.3V3.9c0,0,0-0.1-0.1-0.1c0,0-0.1,0-0.1,0.1
	C8.2,3.9,8.1,4,8,4.1c0,0.1-0.1,0.2-0.2,0.4C7.7,4.6,7.6,4.7,7.5,4.9C7.4,5,7.3,5.1,7.3,5.2L7.1,5.4c0,0-0.1,0.1-0.1,0.2L6.7,5.9
	C6.6,6,6.5,6.1,6.4,6.3C6.3,6.4,6.2,6.5,6.2,6.6C6.1,6.8,6,6.9,5.9,6.9v0.4h0.5l0.1,0.1C6.7,7.3,7,7.3,7.2,7.4z M8.6,9.9
	c0,0,0.1,0,0.1-0.1l0.1-0.1C8.7,9.7,8.6,9.8,8.6,9.9z M8.8,8h0.1C9,8,9,7.9,9,7.9s0.1-0.1,0.2-0.1l0.1-0.2l0.2,0.1V7.6
	c0-0.1,0-0.1-0.1-0.1S9.3,7.4,9.3,7.4c0-0.1,0-0.1,0.1-0.2L9.6,7H9.5C9.4,6.9,9.4,7,9.4,7c0,0.1,0,0.1-0.1,0.1c0-0.1,0-0.1,0.1-0.2
	c0.1,0,0.1-0.1,0.1-0.2L9.4,6.8V7H9.2L9.1,6.9L9,7L8.7,7.2l0.2-0.1h0.3v0.1l0.2,0.2H9.2l0.1,0.1H9.1V7.3v0.1v0.1v0.1H8.7L8.6,7.7
	l0.1,0.1h0.1V8z M8.8,9.6V9.3H9c0,0,0.1,0,0.1-0.1L9,9.1H8.9L8.7,9.2l0.1,0.1L8.6,9.5h0.1C8.7,9.5,8.8,9.6,8.8,9.6z M8.9,8.7v0.1
	L9,8.9c0-0.1,0-0.1,0.1-0.1h0.3l0.2-0.2H9.5L9.3,8.5H9V8.4h0.1L9,8.3V8.1v0.1v0.1H8.8l0.1,0.1L8.7,8.5v0.3l0.1,0.1
	C8.8,8.9,8.9,8.7,8.9,8.7z M8.9,7.5c0,0,0,0.1-0.1,0.1L9,7.7L8.9,7.5L8.9,7.5C8.9,7.4,8.9,7.5,8.9,7.5z M8.8,5c0.1,0,0.1,0,0.1-0.1
	C8.8,4.9,8.8,5,8.8,5z M8.8,6.8C8.9,6.8,8.9,6.7,8.8,6.8z M8.8,5.5L9,5.4L8.8,5.5z M9,6.9H8.8H9z M8.9,7.3L8.9,7.3L8.9,7.3z
	 M8.8,7.3h0.1H8.8z M9,4.1L9,4.1C8.9,4,8.9,4.1,9,4.1z M9.3,6.2c0,0.1,0.1,0.1,0.1,0.1h0.1L9.3,6.2L9.5,6L9.3,5.9l0.2-0.1h0.1
	c0,0,0.1,0,0.1-0.1v0.2l0.1-0.1V5.6c0,0,0-0.1-0.1-0.2v0.1H9.3c0,0,0,0.1-0.1,0.2c0,0-0.1,0-0.1,0.1h0.2c0,0.1-0.1,0.1-0.2,0.2
	C9,6,9,6,9,6.1L9.2,6C9.2,6,9.3,6.2,9.3,6.2z M9.1,9.6c0,0.1,0.1,0,0.1,0c0.1-0.1,0.1-0.1,0.1-0.2L9.2,9.3H9v0.1
	C9.1,9.5,9.1,9.5,9.1,9.6z M9,6.8L9,6.8L9,6.8z M9.1,4.7L9.1,4.7L9.1,4.7z M9,3.6l0.1,0.1C9.1,3.7,9.1,3.6,9,3.6z M9.2,4.2L9.1,4
	L9,4.1L9.2,4.2H9C9,4.2,9.2,4.2,9.2,4.2z M9.2,6.6H9v0.1L9.2,6.6z M9.3,9.8H9.1H9.3z M9.4,6.3H9.3c0,0.1-0.1,0.1-0.1,0.1l0.1,0.1
	L9.4,6.3z M9.3,5.4L9.1,5.6L9.3,5.4z M9.2,2.9c0.1,0,0.1,0,0.1-0.1C9.2,2.8,9.2,2.8,9.2,2.9z M9.4,5.2l0.1-0.1V5L9.4,5.2V5H9.2
	L9.4,5.2L9.4,5.2C9.4,5.1,9.4,5.2,9.4,5.2z M9.5,9.7h0.2c0,0,0.1,0,0.1-0.1V9.4v0.1L9.6,9.4l0.1-0.1H9.5h0.1h0.1c0,0,0.1,0,0.1-0.1
	l0.1,0.1H10L9.9,9.1L9.7,9v0.1H9.6V9L9.4,9.2v0.1c0,0.1,0,0.1-0.1,0.2L9.2,9.6l0.1,0.2C9.4,9.7,9.5,9.7,9.5,9.7z M9.3,9.1V9V9.1z
	 M9.5,2.7L9.3,2.6L9.5,2.7z M9.4,8.1L9.5,8L9.4,8.1L9.4,8.1z M9.4,2h0.2H9.4z M9.4,4.9l0.1-0.1C9.4,4.8,9.4,4.8,9.4,4.9z M9.4,8.3
	l0.1-0.1L9.4,8.3z M9.4,8.5h0.1c0.1,0,0.1-0.1,0.1-0.1H9.4C9.4,8.4,9.4,8.5,9.4,8.5z M9.5,2.4h0.1H9.5l0.1-0.2h0.2H9.5V2.4z
	 M9.5,2.5h0.2H9.5z M9.6,6.5c0-0.1,0.1-0.2,0.2-0.2l0.1-0.1H9.8L9.6,6.1V6L9.5,6.1v0.1C9.5,6.2,9.6,6.5,9.6,6.5z M9.6,6.8L9.5,6.9
	C9.6,6.9,9.6,6.8,9.6,6.8z M10,8.7L9.9,8.6H10H9.9H9.8c0,0-0.1,0-0.1,0.1v0.2l0.1-0.1l0.1-0.1C9.9,8.7,10,8.7,10,8.7z M9.6,3.6h0.2
	H9.6z M9.8,8L9.6,8.1l0.1,0.2h0.2L10,8.2L9.8,8C9.8,8.1,9.8,8,9.8,8z M9.6,2.1h0.3H9.6z M9.9,9.8V9.7L9.8,9.9H9.7L9.8,10L9.9,9.8z
	 M9.7,5.1v0.2V5.1z M9.7,6.5L9.7,6.5L9.7,6.5z M9.8,6.9c0,0.1,0.1,0,0.1,0H9.8z M9.9,5.6L10,5.4H9.7L9.9,5.6L9.9,5.6
	C9.8,5.6,9.9,5.6,9.9,5.6z M9.8,2.6c0,0,0.1,0,0.1-0.1L9.8,2.6z M9.9,7.9h0.2V7.8L9.9,7.9L10,7.6H9.9v0.1c0,0,0,0.1-0.1,0.1H9.7
	C9.8,7.8,9.8,7.8,9.9,7.9z M10,2.3C10,2.2,10.1,2.2,10,2.3c0-0.1,0.1-0.1,0.1-0.1h0.1L10,2.3L10,2.3C9.9,2.3,10,2.3,10,2.3z M10,6.8
	L9.9,6.7v0.1H10z M10,8.5V8.3V8.5z M10.1,9.6c0.1,0,0.2-0.1,0.2-0.1h0.1V9.4h-0.1l-0.1,0.1c-0.1,0-0.1,0-0.1-0.1V9.2L9.9,9.7H10
	l0.1,0.2C10.1,9.9,10.1,9.6,10.1,9.6z M10.1,8.9H10H10.1z M10.2,7.3V7.1L10.3,7c0,0,0-0.1-0.1-0.1s-0.1,0-0.1-0.1L10,6.9h0.1L10,7
	v0.3L10.2,7.3l-0.1,0C10.1,7.4,10.1,7.4,10.2,7.3z M10.3,5.6c-0.1,0.1-0.1,0.1-0.2,0.1S10,5.7,10,5.8h0.2L10.3,5.6z M10.2,5.6
	l0.1-0.1L10.2,5.6L10.2,5.6L10.2,5.6z M10.3,6.7l-0.1-0.1v0.1H10.3z M10.2,1.8h0.1H10.2z M10.4,8.7h-0.1H10.4z M10.5,7.3
	C10.5,7.2,10.4,7.2,10.5,7.3c-0.1-0.1-0.2-0.1-0.2-0.1L10.5,7.3C10.4,7.4,10.5,7.3,10.5,7.3z M10.4,7.6h-0.1H10.4z M10.5,7h-0.2
	H10.5l-0.2,0.1L10.5,7C10.4,7.1,10.5,7,10.5,7z M10.4,9.7c0-0.1,0-0.1,0.1-0.1L10.4,9.7C10.3,9.7,10.4,9.7,10.4,9.7z M10.5,6.3
	l-0.1,0.1v0.1L10.5,6.3z"/>
</svg>
