<?xml version="1.0" encoding="utf-8"?>
<!-- Generator: Adobe Illustrator 17.1.0, SVG Export Plug-In . SVG Version: 6.00 Build 0)  -->
<!DOCTYPE svg PUBLIC "-//W3C//DTD SVG 1.1//EN" "http://www.w3.org/Graphics/SVG/1.1/DTD/svg11.dtd">
<svg version="1.1" id="Layer_1" xmlns="http://www.w3.org/2000/svg" xmlns:xlink="http://www.w3.org/1999/xlink" x="0px" y="0px"
	 width="17.8px" height="12.2px" viewBox="0 0 17.8 12.2" enable-background="new 0 0 17.8 12.2" xml:space="preserve">
<path fill="#404040" d="M3,9.8h0.8c0.2,0,0.3-0.1,0.4-0.1s0.2-0.2,0.2-0.4V3.5c0-0.1-0.1-0.1-0.3-0.2H3.2L3,3.2L2.9,3.1V3
	c0.5,0,1-0.1,1.4-0.2s0.7-0.3,1-0.5C5.6,2.2,5.8,2,6,1.9s0.3-0.2,0.5-0.2h0.3l0.1,0.1v6.4c0,0.5,0,0.9,0.1,1.3
	c0,0.3,0.1,0.4,0.2,0.4h0.7l0.2-0.1l0.2,0.1l-0.1,0.3c-0.4-0.1-0.7-0.1-1.1-0.1H3L2.9,10C2.9,10,3,9.8,3,9.8z M4.7,9.5v0.1V9.5z
	 M4.8,4.2H5H4.8z M5,3.6C5,3.6,5,3.7,5,3.6L5,3.6l0.2-0.1L5.1,3.3L5,3.6L5,3.6z M5,5.1C5,5.1,4.9,5.1,5,5.1L5.3,5L5.2,4.9H5L5,5.1
	C5.1,5,5.1,5.1,5,5.1z M5,6.6L5,6.6l0.2-0.2H5.1L5,6.6z M5.1,9.7c0.1,0.1,0.1,0.1,0.1,0.2c0,0,0.1-0.1,0.1-0.2V9.6
	c0,0,0-0.1-0.1-0.1L4.9,9.6C5,9.6,5.1,9.7,5.1,9.7z M5,9.1h0.3L5.2,9c0,0-0.1-0.1-0.1-0.2L5,8.9C5,8.9,5,9.1,5,9.1z M5,6.3
	C5,6.3,5.1,6.3,5,6.3L5,6.3z M5.3,4L5.3,4c0.1-0.1,0.1-0.2,0.2-0.2V3.7L5.3,3.6L5.1,3.9C5.1,3.9,5.3,4,5.3,4z M5.2,4.5
	c0.1,0.1,0.1,0.1,0.2,0.1c0-0.1,0-0.2,0.1-0.3s0-0.2,0.1-0.3C5.5,4.2,5.3,4.3,5.1,4.3C5.1,4.3,5.1,4.4,5.2,4.5z M5.1,6.2h0.2H5.1z
	 M5.5,5.2L5.5,5.2h0.2H5.5l0.2-0.3V4.8c0,0,0-0.1-0.1-0.1v0.2C5.5,5.1,5.5,5.1,5.5,5.2L5.3,5.1v0.2C5.3,5.3,5.5,5.2,5.5,5.2z
	 M5.3,8.9l0.1-0.1C5.3,8.8,5.3,8.8,5.3,8.9z M5.3,3.2v0.2V3.3C5.3,3.3,5.3,3.2,5.3,3.2z M5.5,7.4H5.3H5.5z M5.4,8.7h0.2H5.4z
	 M5.7,6.8C5.7,6.7,5.7,6.7,5.7,6.8l0.2-0.1c0,0,0.1,0,0.1-0.1L5.7,6.8H5.4l0.1,0.1L5.4,6.8H5.7L5.6,6.9C5.6,6.9,5.6,6.8,5.7,6.8z
	 M5.6,3.2c0,0-0.1,0.1-0.1,0.2L5.6,3.2C5.7,3.2,5.7,3.1,5.6,3.2L5.6,3.2z M5.5,6.5C5.6,6.5,5.6,6.6,5.5,6.5l0.2-0.1
	c0,0-0.1,0-0.1-0.1L5.5,6.2C5.5,6.2,5.5,6.5,5.5,6.5z M5.5,9.9l0.1-0.1C5.6,9.8,5.5,9.8,5.5,9.9z M5.7,6L5.7,6L5.7,6z M5.6,3.9
	L5.6,3.9L5.6,3.9z M5.6,6.7h0.2H5.6z M5.9,9.2H5.7c0,0-0.1,0-0.1,0.1l0.1,0.1C5.7,9.4,5.9,9.2,5.9,9.2z M5.9,7.9L5.9,7.9L6,7.7
	c0,0,0-0.1-0.1-0.1L5.8,7.7L5.9,7.9z M5.9,3.7h0.4l0.1,0.1v0.1l0.1-0.2V3.6H6.3V3.5l0.1-0.1c-0.1,0-0.1,0-0.2,0.1
	C5.9,3.5,5.8,3.6,5.9,3.7z M6,9.9L5.8,9.8L6,9.9z M5.9,2.6h0.2H5.9z M6,5.6L6,5.6L6,5.6L6,5.6z M5.9,9.5v0.1C5.9,9.6,6,9.6,5.9,9.5
	C6,9.5,6,9.5,6,9.4L5.9,9.5z M6.1,4.7L6.1,4.7l0.2-0.1L6.1,4.7z M6,6.3L6,6.3L6,6.3L6,6.3z M6,5l0.2-0.1L6,5z M6.2,4.2
	C6.2,4.1,6.2,4.1,6.2,4.2C6.2,4.1,6.2,4.1,6.2,4.2C6.1,4.2,6.1,4.2,6.2,4.2v0.2V4.2z M6.3,7.1l0.1-0.2L6.3,7.1L6.1,6.9
	C6.1,7,6.2,7.1,6.3,7.1z M6.5,9.7L6.5,9.7l0.1-0.1c0,0-0.1,0-0.1-0.1c0,0-0.1,0-0.1-0.1V9.3L6.2,9.5l0.1,0.1L6.1,9.9
	C6.1,9.9,6.5,9.7,6.5,9.7z M6.2,7.5h0.2H6.2z M6.2,3.5h0.2H6.2z M6.4,8.5L6.3,8.6C6.4,8.6,6.4,8.5,6.4,8.5z M9.6,9.8h0.8
	c0.2,0,0.3-0.1,0.4-0.1S11,9.4,11,9.2V3.4c0-0.1-0.1-0.1-0.3-0.2l-0.4-0.1H9.5V3c0.5,0,1-0.1,1.4-0.2s0.7-0.3,1-0.5s0.5-0.3,0.7-0.5
	c0.2-0.1,0.3-0.2,0.5-0.2h0.3l0.1,0.1v6.4c0,0.5,0,0.9,0.1,1.3c0.1,0.1,0.2,0.2,0.3,0.2h0.7l0.2-0.1L15,9.6l-0.1,0.3
	c-0.4-0.1-0.7-0.1-1.1-0.1L9.6,9.8l0-0.1C9.6,9.7,9.6,9.8,9.6,9.8z M11.3,9.5v0.1V9.5z M11.4,4.2h0.2H11.4z M11.6,3.6
	c0,0,0,0.1,0.1,0.1V3.6l0.1-0.1l-0.1-0.1L11.6,3.6C11.5,3.5,11.5,3.6,11.6,3.6z M11.6,5.1c0,0-0.1,0-0.1,0.1L11.9,5l-0.1-0.2
	l-0.2,0.1C11.6,4.9,11.6,5.1,11.6,5.1z M11.6,6.6h0.1l0.1-0.2h-0.1L11.6,6.6z M11.7,9.7c0.1,0.1,0.1,0.1,0.1,0.2
	c0,0,0.1-0.1,0.1-0.2V9.6c0,0,0-0.1-0.1-0.1l-0.3,0.2C11.6,9.6,11.7,9.7,11.7,9.7z M11.6,9.1h0.3L11.8,9c0,0-0.1-0.1-0.1-0.2
	l-0.1,0.1C11.6,8.9,11.6,9.1,11.6,9.1z M11.6,6.3c0,0,0.1,0,0.1-0.1L11.6,6.3z M11.9,4L12,3.9c0,0,0-0.1,0.1-0.1V3.7L12,3.6L11.9,4
	C11.8,3.9,11.9,4,11.9,4z M11.8,4.5c0.1,0.1,0.1,0.1,0.2,0.1c0-0.1,0-0.2,0.1-0.3s0.1-0.2,0.2-0.3h-0.1c-0.1,0.2-0.2,0.3-0.5,0.3
	C11.7,4.3,11.7,4.4,11.8,4.5z M11.7,6.2h0.2H11.7z M12.1,5.2l0.1,0.1l0.1-0.1l-0.1-0.1l0.1-0.2V4.8c0,0,0-0.1-0.1-0.1v0.2
	C12.1,5.1,12.1,5.1,12.1,5.2l-0.2-0.1l-0.1,0.2C11.8,5.3,12.1,5.2,12.1,5.2z M11.9,8.9L12,8.8C11.9,8.8,11.9,8.8,11.9,8.9z
	 M11.9,3.2v0.2V3.3C11.9,3.3,11.9,3.2,11.9,3.2z M12.1,7.4H12H12.1z M12,8.7h0.2H12z M12.2,6.8c0-0.1,0-0.1,0.1-0.1h0.1
	c0,0,0.1,0,0.1-0.1L12.2,6.8h-0.3L12,6.9V6.8H12.2L12.2,6.8C12.2,6.9,12.2,6.8,12.2,6.8z M12.2,3.2c0,0-0.1,0.1-0.1,0.2L12.2,3.2
	c0.1,0,0.1-0.1,0.1-0.1C12.2,3.1,12.2,3.2,12.2,3.2z M12.1,6.5C12.2,6.5,12.2,6.6,12.1,6.5l0.2-0.1c0,0-0.1,0-0.1-0.1l-0.1-0.1
	C12.1,6.2,12.1,6.5,12.1,6.5z M12.1,9.9l0.1-0.1C12.1,9.8,12.1,9.8,12.1,9.9z M12.3,6h-0.1H12.3z M12.2,3.9h0.1H12.2z M12.2,6.7h0.2
	H12.2z M12.5,9.2h-0.2c0,0-0.1,0-0.1,0.1l0.1,0.1C12.3,9.4,12.5,9.2,12.5,9.2z M12.5,7.9l0.1-0.1V7.7c0,0,0-0.1-0.1-0.1l-0.1,0.1
	L12.5,7.9z M12.5,3.7h0.4L13,3.8v0.1l0.1-0.2V3.6h-0.2V3.5L13,3.4c-0.1,0-0.1,0-0.2,0.1C12.5,3.5,12.4,3.6,12.5,3.7z M12.6,9.9
	l-0.1-0.1C12.5,9.8,12.5,9.9,12.6,9.9z M12.5,2.6h0.2H12.5z M12.6,5.6h-0.1v0.1L12.6,5.6z M12.5,9.5v0.1C12.5,9.6,12.6,9.6,12.5,9.5
	c0.1,0,0.1,0,0.1-0.1L12.5,9.5z M12.7,4.7h0.1l0.1-0.1C12.9,4.6,12.7,4.7,12.7,4.7z M12.6,6.3h0.1H12.6C12.5,6.2,12.6,6.3,12.6,6.3z
	 M12.6,5l0.2-0.1L12.6,5z M12.8,4.2c0-0.1,0-0.1,0.1-0.1C12.8,4.1,12.8,4.1,12.8,4.2c-0.1,0-0.1,0-0.1,0.1l0.1,0.1V4.2z M12.9,7.1
	L13,6.9L12.9,7.1l-0.2-0.2C12.7,7,12.8,7.1,12.9,7.1z M13.1,9.7h0.1V9.6c0,0-0.1,0-0.1-0.1c0,0-0.1,0-0.1-0.1V9.3l-0.1,0.1L13,9.5
	l-0.1,0.3C12.9,9.8,13.1,9.7,13.1,9.7z M12.8,7.5H13H12.8z M12.8,3.5H13H12.8z M13,8.5l-0.1,0.1C13,8.6,13,8.5,13,8.5z"/>
</svg>
