<?xml version="1.0" encoding="utf-8"?>
<!-- Generator: Adobe Illustrator 17.1.0, SVG Export Plug-In . SVG Version: 6.00 Build 0)  -->
<!DOCTYPE svg PUBLIC "-//W3C//DTD SVG 1.1//EN" "http://www.w3.org/Graphics/SVG/1.1/DTD/svg11.dtd">
<svg version="1.1" id="Layer_1" xmlns="http://www.w3.org/2000/svg" xmlns:xlink="http://www.w3.org/1999/xlink" x="0px" y="0px"
	 width="17.8px" height="12.2px" viewBox="0 0 17.8 12.2" enable-background="new 0 0 17.8 12.2" xml:space="preserve">
<path fill="#404040" d="M2.4,9.8h0.8c0.2,0,0.3-0.1,0.4-0.1s0.2-0.2,0.2-0.4V3.5c0-0.1-0.1-0.1-0.3-0.2L3.1,3.2H2.3V3
	c0.5,0,1-0.1,1.4-0.2s0.7-0.3,1-0.5C5,2.2,5.3,2,5.4,1.9c0.2-0.1,0.3-0.2,0.5-0.2h0.3l0.1,0.1v6.4c0,0.5,0,0.9,0.1,1.3
	c0.1,0.1,0.2,0.2,0.3,0.2h0.7l0.2-0.1l0.2,0.1L7.7,10C7.3,9.9,7,9.9,6.6,9.9L2.4,9.8C2.5,9.9,2.4,9.8,2.4,9.8z M4.1,9.5v0.1V9.5z
	 M4.2,4.2h0.2H4.2z M4.4,3.6C4.4,3.6,4.4,3.7,4.4,3.6L4.4,3.6l0.2-0.1L4.5,3.3L4.4,3.6L4.4,3.6z M4.4,5.1C4.4,5.1,4.3,5.1,4.4,5.1
	L4.7,5L4.6,4.9H4.4L4.4,5.1C4.5,5,4.5,5.1,4.4,5.1z M4.4,6.6L4.4,6.6l0.2-0.2H4.5L4.4,6.6z M4.5,9.7c0.1,0.1,0.1,0.1,0.1,0.2
	c0,0,0.1-0.1,0.1-0.2V9.6c0,0,0-0.1-0.1-0.1L4.3,9.6C4.4,9.6,4.5,9.7,4.5,9.7z M4.4,9.1h0.3L4.6,9c0,0-0.1-0.1-0.1-0.2L4.4,8.9
	C4.4,8.9,4.4,9.1,4.4,9.1z M4.4,6.3C4.4,6.3,4.5,6.3,4.4,6.3L4.4,6.3z M4.7,4L4.7,4c0.1-0.1,0.1-0.2,0.2-0.2V3.7L4.7,3.6L4.5,3.9
	C4.5,3.9,4.7,4,4.7,4z M4.6,4.5c0.1,0.1,0.1,0.1,0.2,0.1c0-0.1,0-0.2,0.1-0.3S5,4.1,5,4C4.9,4.2,4.7,4.3,4.5,4.3
	C4.5,4.3,4.5,4.4,4.6,4.5z M4.6,6.2h0.2H4.6z M4.9,5.2L4.9,5.2h0.2H4.9l0.2-0.3V4.8c0,0,0-0.1-0.1-0.1V5L4.9,5.2L4.9,5.2L4.7,5.3
	C4.7,5.3,4.9,5.2,4.9,5.2z M4.7,8.9l0.1-0.1C4.7,8.8,4.7,8.8,4.7,8.9z M4.7,3.2v0.2V3.3C4.7,3.3,4.7,3.2,4.7,3.2z M4.9,7.4L4.9,7.4
	L4.9,7.4z M4.8,8.7H5H4.8z M5.1,6.8C5.1,6.7,5.1,6.7,5.1,6.8l0.2-0.1c0,0,0.1,0,0.1-0.1L5.1,6.8L4.8,6.7l0.1,0.1H4.8H5.1L5,6.9
	C5,6.9,5,6.8,5.1,6.8z M5,3.2c0,0-0.1,0.1-0.1,0.2L5,3.2C5.1,3.2,5.1,3.1,5,3.2L5,3.2z M4.9,6.5C5,6.5,5,6.6,4.9,6.5l0.2-0.1
	c0,0-0.1,0-0.1-0.1L4.9,6.2C4.9,6.2,4.9,6.5,4.9,6.5z M4.9,9.9L5,9.7L4.9,9.9z M5.1,6L5.1,6L5.1,6z M5,3.9L5,3.9L5,3.9z M5,6.7h0.2
	H5z M5.3,9.2H5.1C5,9.2,5,9.2,5,9.3l0.1,0.1C5.1,9.4,5.3,9.2,5.3,9.2z M5.3,7.9L5.3,7.9l0.1-0.2c0,0,0-0.1-0.1-0.1L5.2,7.7L5.3,7.9z
	 M5.3,3.7h0.4l0.1,0.1v0.1l0.1-0.2V3.6H5.7V3.5l0.1-0.1c-0.1,0-0.1,0-0.2,0.1C5.3,3.5,5.2,3.6,5.3,3.7z M5.4,9.9L5.2,9.8L5.4,9.9z
	 M5.3,2.6h0.2H5.3z M5.5,5.6H5.3v0.1L5.5,5.6z M5.3,9.5v0.1C5.3,9.6,5.4,9.6,5.3,9.5c0.1,0,0.1,0,0.1-0.1L5.3,9.5z M5.5,4.7L5.5,4.7
	l0.2-0.1L5.5,4.7z M5.4,6.3L5.4,6.3L5.4,6.3L5.4,6.3z M5.4,5l0.2-0.1L5.4,5z M5.6,4.2C5.6,4.1,5.6,4.1,5.6,4.2
	C5.6,4.1,5.6,4.1,5.6,4.2C5.5,4.2,5.5,4.2,5.6,4.2v0.2V4.2z M5.7,7.1l0.1-0.2L5.7,7.1L5.5,6.9C5.5,7,5.6,7.1,5.7,7.1z M5.9,9.7
	L5.9,9.7L6,9.6c0,0-0.1,0-0.1-0.1c0,0-0.1,0-0.1-0.1V9.3L5.6,9.5l0.1,0.1L5.5,9.9C5.5,9.9,5.9,9.7,5.9,9.7z M5.6,7.5h0.2H5.6z
	 M5.6,3.5h0.2H5.6z M5.8,8.5L5.7,8.6C5.8,8.6,5.8,8.5,5.8,8.5z M9,7.6l0.1-0.3l0.1-0.2C9.3,7,9.4,7,9.5,7h0.2L10,6.9
	c0.1,0,0.3,0,0.4,0.1l0.3,0.2c0.1,0.1,0.2,0.2,0.2,0.3C11,7.7,11,7.8,11,8s-0.1,0.4-0.2,0.5s-0.2,0.2-0.4,0.3
	C10.3,8.9,10.2,9,10,9.1c0.1,0.1,0,0.1,0,0.2s0,0.2,0.1,0.3s0.2,0.2,0.3,0.2c0.1,0.1,0.2,0.1,0.3,0.1s0.1,0.1,0.1,0.1
	c-0.3,0-0.5-0.1-0.7-0.2c-0.3,0-0.5-0.1-0.6-0.3S9.2,9,9.1,8.8C9,8.5,8.9,8.3,8.9,8.1V7.8C9,7.7,9,7.6,9,7.6z M11.4,10.1H12
	c0.1,0,0.2,0,0.2-0.1c0.1-0.1,0.3-0.2,0.4-0.5c0.1-0.2,0.2-0.4,0.3-0.7L13,8V6.6c0-0.3-0.1-0.5-0.2-0.8s-0.2-0.5-0.3-0.6
	s-0.4-0.3-0.6-0.5H11c-0.1,0-0.1,0-0.2,0.1l-0.1,0.1c-0.2,0.1-0.3,0.2-0.4,0.3L10,5.4c0.1,0.2,0,0.2,0,0.4c0,0.1-0.1,0.3-0.1,0.5
	H9.7L9.6,6.2c0-0.4,0-0.8,0.1-1.2c0.1-0.4,0.1-0.8,0.1-1.2V1.4l0.1-0.2l1.6,0.4c0.5,0.1,1.1,0.1,1.6,0.1h0.4l0.2,0.1h0.2
	c0.1,0,0.3,0,0.4-0.1l0.3-0.1l0.3-0.1l0.2-0.1c0,0.1-0.1,0.2-0.2,0.4s-0.2,0.3-0.4,0.5l-0.4,0.4c-0.2,0.1-0.3,0.2-0.4,0.3h-0.1
	c0,0-0.1,0.1-0.2,0.1H13c0,0.1-0.1,0.1-0.2,0.1s-0.1,0-0.2,0.1c-0.4,0-0.7,0-1.1-0.1s-0.7-0.1-1.1-0.1c-0.1,0-0.3,0-0.3,0.1
	C10,3.3,10,3.4,10,3.5v1.3c0,0.1,0.1,0.1,0.1,0.1C10.3,5.1,10.3,5,10.4,5l0.3-0.1L11,4.8c0.1,0,0.2-0.1,0.2-0.1h1.4
	c0.1,0,0.2,0,0.3,0.1l0.4,0.1l0.4,0.2c0.1-0.1,0.2-0.1,0.2,0c0.2,0.2,0.5,0.3,0.6,0.5L15,6c0,0,0.2,0.3,0.3,0.5s0.1,0.5,0.1,0.8
	c0,0.4-0.1,0.8-0.2,1.2c-0.1,0.3-0.3,0.6-0.6,0.8c-0.2,0.2-0.5,0.4-0.9,0.6s-0.7,0.3-1.1,0.3c-0.1,0-0.2,0-0.2,0.1
	c-0.1,0-0.2,0.1-0.2,0.1h-1L11,10.3C11.2,10.1,11.3,10.1,11.4,10.1z M10.3,2.1c0.1,0,0.1-0.1,0.1-0.1L10.3,2.1
	C10.2,2.2,10.2,2.2,10.3,2.1z M10.3,2.4V2.2V2.4z M10.5,2.2l-0.1,0.1C10.5,2.3,10.5,2.3,10.5,2.2c0.2,0,0.2-0.1,0.2-0.2
	c0,0,0-0.1-0.1-0.1s-0.1,0-0.2-0.1v0.1L10.6,2C10.6,2.1,10.6,2.2,10.5,2.2z M10.5,2.6c0.1,0,0.1,0,0.1-0.1c-0.1-0.1-0.2-0.1-0.2-0.1
	h-0.1h0.1C10.5,2.5,10.6,2.5,10.5,2.6z M10.8,2.5L11,2.6L10.8,2.5z M11,2.3l-0.2-0.1L11,2.3z M10.9,1.9C10.9,1.8,11,1.8,10.9,1.9z
	 M11.3,2.6h-0.1V2.5L11.3,2.6l-0.1-0.1l-0.1,0.1L11,2.7h0.2C11.2,2.7,11.3,2.6,11.3,2.6z M11.2,1.9C11.1,2,11.2,2,11.2,1.9z
	 M11.2,2.2L11.2,2.2L11.2,2.2z M11.3,2v0.2V2z M11.5,2.5L11.5,2.5C11.5,2.6,11.6,2.6,11.5,2.5c0.1,0,0.1,0,0.1-0.1
	C11.6,2.4,11.5,2.4,11.5,2.5z M11.6,2.3C11.5,2.2,11.5,2.3,11.6,2.3z M11.9,2.1h-0.2H11.9z M12,2.3l0.1-0.1L12,2.3l-0.1,0.1L12,2.3
	L12,2.3z M12.2,2.7c0,0-0.1,0.1-0.1,0.2C12.2,2.9,12.2,2.8,12.2,2.7h0.2V2.6L12.2,2.7z M12.5,2.3h-0.2v0.1
	C12.4,2.4,12.4,2.4,12.5,2.3h0.2H12.5z M12.4,2.2h-0.1H12.4z M12.8,2.5L12.8,2.5C12.9,2.6,12.9,2.6,12.8,2.5h0.1H12.8z M13,2.3h0.2
	H13l-0.1-0.1L13,2.3z M13.3,5.4C13.4,5.5,13.4,5.4,13.3,5.4z M13.5,2.5l-0.1-0.2v0.1C13.4,2.4,13.5,2.5,13.5,2.5z M13.4,8.2h0.1
	H13.4z M13.6,5.9V5.7l-0.1,0.2H13.6z M13.8,2.5c0.1,0,0.1-0.1,0.1-0.2c-0.1,0-0.1,0-0.2,0.1c-0.1,0-0.1,0.1-0.1,0.1
	S13.8,2.5,13.8,2.5z M13.9,5.8h-0.2L13.8,6C13.8,6,13.9,5.8,13.9,5.8z M13.8,5.7C13.9,5.7,13.9,5.6,13.8,5.7z M14,5.8L14,5.8L14,5.8
	h-0.1H14z M14.4,6l-0.1-0.1h-0.1C14.2,5.9,14.4,6,14.4,6z M14.3,6.5h-0.1H14.3z M14.3,8.1v0.3V8.1z"/>
</svg>
