<svg xmlns="http://www.w3.org/2000/svg" width="903.5" height="100" viewBox="0 0 903.5 100"><path d="M110.4 20.4v-16.5c0-.7.4-1.3 1.1-1.7.7-.4 1.4-.6 2.1-.6h60.4l2.8 1.9v17.4l-1.4 1.7h-19.7l-.8.7v73.4l-2.3 1.9h-17.2c-.6 0-1.3-.3-1.9-.8-.6-.6-1-1.2-1-1.9v-73.4h-20.1l-2-2.1zm8.1-4.9c.5-.3.7-.7.7-1.2l-2.1 1.7c.5 0 .9-.2 1.4-.5zm.5-5.2c0-.4-.3-.6-.8-.6v.6h.8zm0 1.4v.3l.6.6-.6-.9zm3.4-5.5l.3 1.4-.3-2.3-.4.6.4.3zm.8 9.8l-.4.3.4.4v-.7zm2.3-4.1l-.4.3.4.3.4-.3v-.2l-.4-.1zm2.4 2c.1-.1.2-.1.2-.1s0 .1-.1.2l.3.4.3-.4c-.1-.3-.3-.6-.7-1l-.4.4.4.5zm.1 0l.1-.4c0 .1-.1.2-.1.4zm1.3-3.6l.3-.4-.3-.6-.4.6.4.4zm0 6l.3-.4-.3-.6-.4.6.4.4zm2.7.4v-1.4l-.6 1 .6.4zm.4-7.3h-.4v.4l.4-.4zm.4 2.7v-.4l-.4.4h.4zm1-4.5l.3-.3-.3-.3-.1.3.1.3zm-.1 6.6l.1.3-.1-.3.1-.3-.1.3zm.2 3.2c.3 0 .5-.1.6-.4l.3-.7-1.1 1.1h.2zm1-6.6l.1.2.1-.3v-.3l-.2.4zm.7 1.1l.3.3v-.4h-.1l-.2.1zm.4-2.5c.6 0 .9-.1 1-.3.1-.2.2-.6.2-1-.4.2-.8.6-1.2 1.3zm.3 9.6v-1l-.3.6.3.4zm1.5 62.2l-.1-.3-.3.3h.4zm.1-63.8v-1.1h-.3v1.1h.3zm0 69.1l-.3.4.3.6v-1zm-.2.9c.2 0 .7.1 1.5.2s1.2.3 1.2.5v.1-.8h-2.7zm.9-75.7l.3-.4-.3-.6-.6.6.6.4zm-.5 16.3l.6.4-.6-.4.6-.6-.6.6zm.4 22.9l.3.3.3-.3-.3-.1-.3.1zm.7 40l-.1-.3-.3.3h.4zm.1-77l.6-.4-.6-.4-.3.4.3.4zm0 10.4l.6-.6-.6-.6-.3.6.3.6zm0 69.1l.6-.4-.6-.6-.3.6.3.4zm1.1-57.6c-.5.1-.9.4-1 .9l.6.1 1.9-1.5c-.6.2-1 .4-1.5.5zm-.4 49.7v-.4h-.7v.4h.7zm-.7 6.1c.5 0 .7-.2.7-.6h-.1l-.6.6zm.7-37l.3-.4-.3-.6-.6.6.6.4zm.7-28.3v-.3h-.7v.3h.7zm-.3 54.3v-1l-.3.6.3.4zm0-34.3c.2-.6.3-1 .3-1.4l-.4.8.1.6zm1-36.1c-.2 0-.4 0-.6.1-.2.1-.3.2-.4.4l1 .4v-.9zm-.7 6.5h-.3l.3.7v-.7zm.3 31.4c0-.3-.2-.6-.6-1v1h.6zm.9 17.7c.6.1 1.1.1 1.7.1v-1.4c-.5 0-1 0-1.7.1s-1.1.3-1.5.8c.5.2 1 .3 1.5.4zm-.5 9.6v-.4h-1v.4h1zm0 6.5l-.7-.6v.6h.7zm0-62.9v-.3h-.3c0 .2.1.3.3.3zm-.1-6.4l.3.3.3-.3-.3-.1-.3.1zm0 55.8l.3.3.3-.3-.3-.1-.3.1zm0 9.5l.1.3.4-.4-.3-.1-.2.2zm1.5-21.5v-.8h-1v.8h1zm2.7 3.2l-3.7.8 1.5.7c.6-.7 1.3-1.2 2.2-1.5zm-3.4 30.3l-.3.3h.4v-.1l-.1-.2zm.1-9.9l.4-.4-.4-.4-.3.4.3.4zm0-42.3c.6 0 1-.3 1.4-.8.4-.5.6-1 .6-1.6h-.7l-1.3 2.4zm.6 33.2v-.7h-.6v.7h.6zm-.2 2.3c0-.1.1-.3.2-.5h-.6v1c.2-.2.3-.4.4-.5zm.2 11.9h-.6v1.4c.4-.3.6-.8.6-1.4zm.4-60.4l.3-.6-.3-.6-.3.6.3.6zm0 39.6l.3-.4-.3-.6-.3.6.3.4zm.1 17.4c-.3.1-.4.4-.4.8.8 0 1.2-.4 1.2-1.1-.2.1-.5.2-.8.3zm.3-42.3l-.4.4.4.4v-.8zm-.1-17.1l.3-.3-.1-.3-.3.3.1.3zm.2 9.6l-.1-.3-.3.3h.4zm-.4 13.2l.3.3v-.4h-.1l-.2.1zm.3 7.2l.4-.4-.4-.6-.3.6.3.4zm0 6v-.6l-.3.3.3.3zm0 16l.4-.3-.4-.4-.3.4.3.3zm-.1-19.8l.3.3.4-.6-.3-.1-.4.4zm.4-26.6c.2.9.6 1.4 1.4 1.4l.7-.4c-.4-.5-.7-1.1-.9-1.9-.2-.8-.7-1.2-1.4-1.2-.1.5 0 1.1.2 2.1zm0 6c0-.1.1-.3.2-.5h-.6v1c.3-.2.4-.4.4-.5zm-.3 40.6c.2 0 .3 0 .4-.1.1-.1.2-.2.4-.3h.1l-.9.4zm1 15.2v-1.4h-1v1.4h1zm.1-69.3h.3c-.1-.2-.2-.4-.4-.7-.2-.3-.4-.4-.7-.4 0 .7.2 1.1.8 1.1zm1.2 29.5l-1.4-1.8h-.7l1.8 1.9.3-.1zm-1.3-38.7v-.4l-.4.4h.4zm.9 31.8l-.6-.4-.8 1.4c.6-.3 1.1-.6 1.4-1zm.4 26.5c-.5-.2-.8-.5-.9-.9-.1-.4-.3-.8-.5-1.2l-.4 1.8.8.6 1-.3zm-.8 6.2h-1v1.7l1-1.7zm1.3 9l-.8-.6-1.4.6 1.4 1.8.8-1.8zm-.9-47.6h-1l1 .4v-.4zm-.5 18.5l-.4.7 1 .7-.6-1.4zm.5 7.3v-.3l-.6.3h.6zm.2 3.2l.7-.4-.8.4h.1zm.5-25c-.4.3-.6.6-.6 1.1.5 0 .8-.2 1.1-.6.3-.4.5-.7.7-1-.4.1-.8.2-1.2.5zm-.3 24.6l.3-.4-.3-.6-.3.6.3.4zm0 22.2l.3-.4-.3-.6-.3.6.3.4zm.1-79c.1.4.3.7.3.9v-.7l-.4-1.1c0 .2 0 .5.1.9zm1.3 5.6l-.3-.1-1.1 1 .4.7 1-1.6zm0 33.2v-.4c0-.6-.1-1.1-.4-1.5-.3-.5-.5-.9-.6-1.4l-.4 1c0 .9.5 1.7 1.4 2.3zm-.9 26.4l-.4.6 1.5 1c0-1.1-.4-1.6-1.1-1.6zm.5 7.8l-1 .4.4.4.6-.8zm-.5-42.5l.4-.4-.4-.6-.3.6.3.4zm-.2 22.5l.3-.4-.1-.4-.3.6.1.2zm.2 9.7l.4-.3-.4-.4-.3.4.3.3zm.4-17.9l.3.3.3-.3-.3-.1-.3.1zm.5-34.7v-.3h-.4v.3h.4zm0 40.2l1.1-.8h-1.5v.8h.4zm.2 3.4h-.6v1.4c.4-.3.6-.7.6-1.4zm.6 16.1c.1-.4.3-.8.3-1.2l-1.5.7.4 1.4c.4-.2.6-.5.8-.9zm.2-21.5l-.6-.8-.4.8 1 .6v-.6zm0 28.9l.6-1h-1.5v1h.9zm-.6-63.9l.1.3.4-.3-.3-.1-.2.1zm.6 10.8v-.4h-.6v.4h.6zm.1 39.7l1.2-1.1-.6-.3-1.4 1 .6.4h.2zm-.1 19.7v-.8h-.6v.8h.6zm0-84.4l.3-.4-.3-.6-.4.6.4.4zm-.4 28.7l.4.4-.4-.4.4-.6-.4.6zm.2 28.3l.6.7c.4-.2.8-.5 1.2-.8.5-.4.7-.8.7-1.2-1.1 0-1.9.4-2.5 1.3zm.6 23.3v-.4l-.4.4h.4zm.1-50.9l-.1-.3-.3.3h.4zm-.1 49.5l.3-.4-.3-.4-.3.4.3.4zm0-62.6c.3 0 .4-.2.4-.6v-.1l-.6.6.2.1zm.4-15.3h-.4v.4l.4-.4zm-.1 21.9l-.3.3h.4v-.2l-.1-.1zm1.1 23.3l-.8-.6h-.6v1.2l1.4-.6zm-1-35.2l.4-.4-.4-.6-.3.6.3.4zm.6 19.9l.3-.4-.3-.5-.5-.5-.3.6c.1.3.4.6.8.8zm-.6-23.6l.4.3.6-.3-.4-.1-.6.1zm0 53.1l.3.3.3-.3-.3-.1-.3.1zm.2-29.9c.1-.1.1-.2.1-.2s0-.1.1-.2l-.2.4zm.4 45.6l.3-.4-.3-.4-.4.4.4.4zm.4-8.4h-.4v.7l.4-.7zm0-62.2l.3-.4-.3-.6-.3.6.3.4zm.3 7.7l-.3.3h.4v-.1l-.1-.2zm.1 69.4l-.4-.4v.4h.4zm.5-83v-.6h-.6v.6h.6zm0 6.3h-.6v.6l.6-.6zm-.3 3.1c.1.3.4.4.8.4 0-.3-.1-.6-.2-.8-.1-.3-.4-.4-.8-.4 0 .2.1.5.2.8zm1.2-5.3h-.4v.4l.4-.4zm0-1.9l.4-.4-.4-.4-.3.4.3.4zm.5 10.3l.3-.6-.3-.6-.4.6.4.6zm2.2-12.1l-.7-.6-.1.1v.5h.8zm.2 8.1l-1 .6.4.7c.4-.4.6-.8.6-1.3zm.8-3.5h-.4v.6l.4-.6zm1.8 1.3l-1.4.6 1.4 1.8v-2.4zm0-3.6l.4-.4-.4-.6-.3.6.3.4zm3.3 0l-1.4-1 1.4 1zm-1.2-3l.3-.3-.3-.1v.4zm.8 8.8l-.6-.8v.3l.4.7.2-.2zm1.5-1.1l.3.3v-.4h-.1l-.2.1zm1.1 1.3l.4-.4-.4-.6-.3.6.3.4zm1.5-3.2c0-.3-.1-.5-.2-.7-.1-.2-.3-.4-.3-.7v1.4h.5zm.4 1.8v-.4l-.6.4h.6zm.5-8.7h-.4v.4l.4-.4zm1.7 6.9l-1.7-2.3h-.1l1.7 2.3h.1zm1 2.9l.3-.6-.3-.6-.3.6.3.6zm.4-6.2l.4-.4-.4-.4-.3.4.3.4zm1.5 2.2l-.7-1.8-.8.6 1.4 2.3.1-1.1zm-.9 1.9l.3-.4-.3-.4-.4.4.4.4zm1.4-5.9l.3-.4-.3-.6-.4.6.4.4zm-.3 5.7c0 .5 0 1 .1 1.5.1.6.1 1.1.1 1.5v-3.2h-.1l-.1.2zm2-1.6h-.4l.4 1v-1zm22.5 18.9c2.6-6.1 6.1-11.4 10.6-15.9 4.5-4.6 9.7-8.2 15.7-10.8 6-2.7 12.4-4 19.2-4 6.8 0 13.2 1.3 19.3 3.9 6.1 2.6 11.4 6.2 15.9 10.8 4.6 4.6 8.1 9.9 10.8 15.9 2.6 6.1 3.9 12.5 3.9 19.3s-1.3 13.2-3.9 19.3-6.2 11.4-10.8 15.9c-4.6 4.5-9.9 8.1-15.9 10.7-6.1 2.6-12.5 3.9-19.3 3.9-6.8 0-13.2-1.3-19.2-3.9-6-2.6-11.2-6.2-15.7-10.8-4.5-4.6-8-9.8-10.6-15.8s-3.9-12.4-3.9-19.2 1.4-13.2 3.9-19.3zm.7 25.6l.4-.4-.4-.4-.3.4.3.4zm2.4-4.2c-.2-.9-.7-1.4-1.5-1.4l1.4 1.5.1-.1zm1.3.2l-1.9 4.6 1.4-1.4.5-3.2zm-1.3-4.7v-1h-.4v1h.4zm0 2.3v-.6h-.4v.6h.4zm1.5-4.1h.3c-.1-.5-.3-.7-.6-.8-.3-.1-.7-.1-1.2-.1.4.5.9.9 1.5.9zm.3-8.5c-.4.3-.6.7-.6 1.2.5 0 .9-.2 1.2-.5.4-.3.6-.7.6-1.2-.5 0-.9.2-1.2.5zm.3 16.3c.3 0 .5-.2.6-.5h-1.4v.6c.2-.1.5-.1.8-.1zm-.3 7.8h-.5v.6l.5-.6zm2.3-17c.4-.2.6-.5.6-1l-1.5-1.7v2.1h-1.4l1.2 1c.4-.1.7-.2 1.1-.4zm-2.3 15.2c.8 0 1.2-.4 1.2-1.1-.6 0-1.1.3-1.2 1.1zm.4-11.7c0 .3.2.5.5.6v-1.4h-.6c.1.2.1.5.1.8zm1.9 17.6h-.4l-1.5 1.2c.8 0 1.4-.4 1.9-1.2zm-1.7-26.2l-.1-.4v.4h.1zm-.1 1.8l.1.3.3-.3v-.1l-.4.1zm.6-6c.1.7.3 1.4.6 2 .3.6.6 1.2 1 1.7s.8.7 1.2.7l-.7-1.2v-3l2.1-.7c0-.7-.4-1.2-1.1-1.4-.7-.2-1.4-.3-1.9-.3l-1.4.8c0 .2.1.7.2 1.4zm.8 22.7v-1h-.6v1h.6zm3.7-26.3c.6.1 1.2.3 1.8.5v-.7l-1-1.8-1.1.4.7-1.9-.6-.8c-1.7 0-2.8.8-3.2 2.3h.1c.6-.6 1.1-1.1 1.7-1.4l.1.4-1 2.1.4.7c.9 0 1.6.1 2.1.2zm-.5 18.4l1.8-3.3-1.4.6-1.5-1.4-.3 1.2c-.1.4-.4.6-.9.6l1.9.1v2.2h.4zm-1.8 3.9l-.6.3h1v-.1l-.4-.2zm.8-29.4l-.8.7 1.4.7-.6-1.4zm-.6 39.4c-.1.4-.2.6-.2.8l1-1.1-.1-.3c-.4.1-.6.3-.7.6zm.6-6l.4-.4-.4-.6-.3.6.3.4zm0-4.7l2.3-1.4v-.6c-.7.8-1.5 1.4-2.3 2zm.5 13.8l.3-.4-.3-.4-.4.4.4.4zm-.2 7.3l.3.3v-.7c-.2 0-.3.1-.3.4zm.5-16.7l-.3.3.1.3.3-.3v-.1l-.1-.2zm.6 4.4v-1l-.8 1h.8zm.5-6.5v-.6h-1c.3.4.7.6 1 .6zm-.5-12l.4-.4-.4-.6-.3.6.3.4zm0-6.9l.3-.1-.3-.3h-.1l.1.4zm0 35.2c-.1.5-.2.9-.2 1.4.6 0 1-.2 1.2-.7.1-.5.2-.9.2-1.4-.6 0-1 .2-1.2.7zm1.7-33.3c.9.1 1.6.2 2.3.2 0-.8-.4-1.3-1.3-1.5-.9-.2-1.6-.3-2.3-.3 0 .9.4 1.5 1.3 1.6zm-.8 5l-.4.7 2.1.8-1.7-1.5zm1 33.1h-.1l-1.2 1c.6-.2 1-.5 1.3-1zm-.9-36.5c0 .3.1.5.2.7l-.3-1.8-.3.4c.3.2.4.4.4.7zm-.1 1.1l.3.3.1-.3v-.1l-.4.1zm.5 16.3c-.2.5-.3.9-.4 1.2l2.3-.6-1-1.4c-.4.1-.8.3-.9.8zm0 11.8l-.4-1.4v.4l.4 1zm.5-34.5v-.7h-.6v.7h.6zm-.5 17.4l.4.3.1-.3-.3-.1-.2.1zm.2-32.7l.3-.6-.3.3v.3zm0 41.3l.3.3v-.4h-.1l-.2.1zm1.1-36.7c.6.2 1 .4 1.4.6 0-.6-.2-1.1-.7-1.4-.5-.3-1-.5-1.5-.7v.4c0 .6.3.9.8 1.1zm-.8 3.1l.4-.4-.4-.7v1.1zm.6 2.6c.4.3.9.5 1.4.5l-1.4-2.6-.7.8c.1.5.3 1 .7 1.3zm-.3 36.5l-.3.3.1.2.3-.3v-.1l-.1-.1zm.5-16.8l.4-.4-.4-.4-.1.1-.3-.7-.3.6c.1.1.4.4.7.8zm.6 24v-1h-1v1h1zm-.8-24.5v-.1.1zm0 15.7c0 .2.1.4.3.5l.4 2.3-.4-3.3c-.2.1-.3.3-.3.5zm.6-31.8l.3-.3-.1-.1-.3.3.1.1zm.6 36.4v-.4l-.4.4h.4zm0-35.4l.3-.6-.3-.6-.3.6.3.6zm0 3l.3-.3-.3-.4-.3.4.3.3zm0 31l.3-.4-.3-.6-.3.6.3.4zm0-6.9l.3-.2-.3-.1-.1.1.1.2zm.4-42h.6v-.8c-.4.3-.6.6-.6.8zm1 13.1v-.7h-1v.7h1zm-.4-5.5l.3-.6-.3-.6-.4.6.4.6zm.9-6.4l-.1-.3-.8 1.4.9-1.1zm.2 59.2h-1.1v1.1c.7 0 1.1-.4 1.1-1.1zm-.3-44.6l.3-.3-.3-.4-.1.4.1.3zm1-18h-1l.6.4.4-.4zm-.2 14c.3.3.7.5 1.2.6 0-1.2-.6-1.8-1.7-1.8 0 .5.1.8.5 1.2zm.6-5.6l-.4-1.1-.6 1.4 1-.3zm-1 57.6h.6v-1c-.4.2-.6.5-.6 1zm.6-8.9l-.4-.4v.4h.4zm.9-44.6l.3-.6-.3-.6-.4.7.4.5zm.3 49.8c-.3.5-.4 1-.4 1.5.6 0 1-.3 1.3-.8.3-.5.5-1 .5-1.4-.7 0-1.1.2-1.4.7zm.1-59.6v-.6l-.4.6h.4zm1.1 2.5c-.2.5-.6.8-1 1.1.3.1.7.1 1.2-.1l1.4-.3 1.5.7.6-.3-2.2-1.8c-.8 0-1.3.2-1.5.7zm-.6 48.7l.3-.4-.3-.6-.1.6.1.4zm.9-52.6l.3-.4-.3-.6-.3.6.3.4zm1.7 42c1.3 3.3 3.2 6.2 5.5 8.7 2.3 2.5 5.1 4.5 8.3 5.9 3.2 1.5 6.7 2.2 10.5 2.2 3.7 0 7.1-.7 10.4-2.2 3.3-1.5 6.1-3.4 8.6-5.9 2.4-2.5 4.3-5.4 5.7-8.7 1.4-3.3 2.1-6.8 2.1-10.5 0-3.6-.7-7-2.1-10.2-1.4-3.2-3.4-6-5.9-8.5-2.5-2.4-5.3-4.3-8.6-5.7-3.2-1.4-6.6-2.1-10.2-2.1-3.7 0-7.1.7-10.3 2.1-3.2 1.4-6 3.3-8.3 5.7-2.4 2.4-4.3 5.2-5.7 8.4-1.4 3.2-2.1 6.7-2.1 10.3s.8 7.2 2.1 10.5zm-1.7-44.7l.3-.3-.3-.3-.1.3.1.3zm4.8 9.8l-3.7-.7-.7.7h4.4zm-3.7 60.4v-1l-.6.6.6.4zm-.1-72.6l.3-.4-.1-.6-.3.6.1.4zm.1 3.8l.1.3.1-.3v-.1l-.2.1zm.3 64l-.3-.3v.3h.3zm1.1-61l-1-.8h-.1l.7 1.4.4-.6zm-.4 59.3l.3-.6-.3-.6-.6.6.6.6zm-.4-60.7c.5 0 .9-.3 1.3-1 .4-.6.7-1.2.9-1.7-1.5.6-2.2 1.4-2.2 2.7zm.4 54.8v-1.1l-.3.6.3.5zm.7 2.3v-.7h-.7c.2.3.4.5.7.7zm0-54.2l.3.3.4-.3-.4-.1-.3.1zm.8 3.5c.4-.2.6-.4.6-.7h-.1l-1.2 1.1.7-.4zm-.1 58.4v-1.1h-.7v1.1h.7zm0 2.4l1.4-1h-.7l-1 .7.3.3zm1.8-9l-.4-.4-1.4 1.4 1.8-1zm-1.7-56.5l.3.3v-.4h-.1l-.2.1zm.3 7.8v-1.1l-.3.6.3.5zm1.6-5.6l-.3-1-1.4.4v.3l.3.7 1.4-.4zm-.7 58.1c.2-.3.5-.6.8-1l-1-.3-.7 1.1.3 1.2c.1-.4.3-.8.6-1zm0-66l.3-.4-.3-.6-.6.6.6.4zm-.2 4.3l.3.3v-.4h-.1l-.2.1zm.7 63.4v-.3h-.5v.3h.5zm0 5.3l-.4-1v1h.4zm.9 1.4h-.7l-.7.4c.5 0 1-.2 1.4-.4zm0-62.9l-.7-1.8-.6 1.1 1.3.7zm2.9-5.5c.7-.4 1.4-.6 2.1-.8l-1.1-.6c-.5 0-.9.1-1.4.4-.5.3-.9.4-1.4.4l.3-1.8-.8-1.4-1.5 1 1 1.4-.7 1.4 1.4.6c.7-.1 1.4-.3 2.1-.6zm-2.7 67.1l1.2-.6c.4-.2.7-.5.9-.9h-.7c-1 0-1.4.5-1.4 1.5zm.5-74.5l-.3-.4v.4h.3zm.3 62.9h-.6v2.8l.6-2.8zm1.8 4.7l-1-1.2h-.3c-.5 0-.8.3-.9.8-.1.5-.2.9-.2 1.3l1 1c0-.9.5-1.5 1.4-1.9zm.4 4l-1.4-.7-.4.3c.6.3 1.2.4 1.8.4zm-1.4 4.6l-.4-.4v.4h.4zm.4-74c.4.4.9.6 1.4.6.6 0 1-.2 1.4-.7.4-.5.6-1 .6-1.5l-.6-.6-1.7 1.8-1.8-1c0 .6.2 1.1.7 1.4zm-.4 7.5l.3-.4-.3-.6-.3.6.3.4zm1.7 58.3c-.4.2-.6.5-.6 1 1.1 0 1.7-.5 1.7-1.5l-1.1.5zm.1-68v-.4h-.4v.4h.4zm0 4.6v-.4h-.4v.4h.4zm.6 60h-.4l-.6 1.1 1-1.1zm-.2 11.4l.3.4.3-.3-.3-.1h-.3zm.6-67.3l.3-.4-.3-.4-.3.4.3.4zm1.4 66.7l-.1-.7.6-.7c.5 0 .9.2 1.4.5.5.3.9.5 1.4.5v-1l-1.8-1 1-1.5v-.3c-.6.3-1.4.5-2.3.8-.9.2-1.4.8-1.4 1.7-.2.8.2 1.4 1.2 1.7zm.5-78.1l-.1-.4-1.4 1.4 1.5-1zm-.5 4.5l.3-.4-.3-.4-.3.4.3.4zm.4 76.3h.6l-.4-.3-.2.3zm1.9-76.3h-.4l-1 1 1.4-1zm0 76.7h-1l.4.4.6-.4zm0-72.5v-.4l-.6-.4v.8h.6zm2.2 71.1v-.4h-2.5l.7.8 1.8-.4zm-.3-77.3c-1.1-.2-1.6-.2-1.7 0l3.7.3c-.3-.1-1-.2-2-.3zm1.3 4.8l-1.4-.8-.4.4.4.6 1.4-.2zm-1.4 66.6l-.4-.7.4.7zm.3.8l-.3-.4-.3.6c.1.2.3.5.7.8l.4-.6-.4-.6-.3.7v-.1l.2-.4zm.7-73.8v-1.1l-1 .6 1 .5zm-.6 82.7h-.4v.4l.4-.4zm.6-86.4v-.5h-.6v.6h.6zm0 6.9h-.6l.6.4v-.4zm-.6 69.3c.1-.1.1-.2.1-.3l-.1.3zm2.4.5h1.8l-.4-2.1h-.3l-2.1 2.2 1.5 1.2-.5-1.3zm-1 8.7l.3.1c.1 0 .2 0 .3-.1l-.3-.1-.3.1zm.7-77.4l.3.3v-.4h-.1l-.2.1zm.3 75.6c.6-.3.9-.7 1.1-1.3.2-.6.3-1.2.3-1.7l-1.4-.7.4 1.7-.4 2zm1.5-78.5c0-.7.2-1.4.6-1.9.4-.5.6-1.1.6-1.9l-1-1c-.5.3-.7.7-.8 1.2-.1.6-.1 1.1-.1 1.5v.8l.7 1.3zm.2-6l.4-.4-.4-.6-.3.6.3.4zm0 2.7l-.3-.4.3-.4.4.4-.4.4zm0 82.6l.4-.4-.4-.4-.3.4.3.4zm1.8-6.2c-.7.4-1 .9-1 1.3l3-1.7-.4-.7-1.6 1.1zm-.2-70.9c0-.2 0-.4-.1-.8 0-.3-.2-.5-.5-.6v1.4h.6zm.4 74.9v-.6l-.3.3.3.3zm0-77.3c.1.4.3.6.7.6h.1c-.1-.2-.2-.5-.3-.9-.1-.4-.3-.6-.7-.6 0 .2.1.5.2.9zm1.8 70.4h-1.9l1 1.4.9-1.4zm-.6-72.3c.4-.1.6-.3.6-.6h-1.4v1c.2-.2.5-.3.8-.4zm-.4-3.9l.3-.6-.3-.4-.3.6.3.4zm.2.9c-.1.3-.2.6-.2.9v.1l1.4-1.5h-.4c-.4 0-.7.1-.8.5zm1.5 84.3c.3.3.5.6.6 1 .1.4.3.8.6 1.2.2.4.6.6 1.2.6l1.1-2.5-1.4 1.1c.2-.7.1-1.4-.1-1.9-.3-.6-.8-.8-1.7-.8l-1.5 1.1c.5-.1.9-.1 1.2.2zm2.6-4c.4-.6.8-1.4 1.2-2.2l1.2-2.5c.4-.8.9-1.4 1.4-1.7l-.4-.3c-.6 0-1.2.2-1.7.6-.5.4-1 .9-1.4 1.6-.4.6-.8 1.3-1.1 1.9-.3.6-.6 1.2-.9 1.7l-1.8 1.1 1.8.7c.8.1 1.3-.3 1.7-.9zm-2.4-3.6v-1h-.6c.2.5.4.8.6 1zm0 11v-.6l-.3.3.3.3zm-.1-83.7l.3.3.3-.6-.1-.1-.5.4zm1 3.3l-.4.8 1.8.6-1.4-1.4zm0 71.2l.4-.6-.4-.6-.3.6.3.6zm0-3.9l.3.3.3-.3-.3-.1-.3.1zm2.7-72.2l-2.3-1.5 1.5 1.9.8-.4zm-.8 2.2l.3-.4-.3-.4-.4.4.4.4zm.4 79v-1h-.4v1h.4zm.4-85.5l.4-.4-.4-.4-.3.4.3.4zm0 13l.4-.4-.4-.6-.3.6.3.4zm1.1 70.3c.4.4.9.6 1.3.6v-.7l-1.8-1.4-.6.4c.3.4.6.7 1.1 1.1zm-.1 2.2v-.6l-.1.3.1.3zm.3 2.5l-.3.3h.4v-.1l-.1-.2zm.7-84.3l.3-.4-.3-.4-.4.4.4.4zm-.2 83.6l1.5-1.4h-.1l-1.4 1.4zm1.1-86.2c-.1-.2-.2-.3-.4-.4-.2-.1-.4-.1-.6-.1l.8.8.2-.3zm.4 77.1v-.6h-1c.4.4.8.6 1 .6zm0-75.9l.3-.4-.3-.6-.4.6.4.4zm.4 7.9l.3-.4-.3-.6-.3.6.3.4zm.5-6.9v-1h-.5v1h.5zm-.5 81.7l1.2-1.4 1.9.6c0-.6-.3-1.1-.8-1.4-.5-.3-1-.5-1.6-.5l-.8 1.5v1.2zm1-73l.1.3.3-.3-.1-.1-.3.1zm2.8 72.5c-.3.4-.6.8-1 1-.4.3-.7.5-1 .8-.3.2-.4.6-.4 1 .8 0 1.5-.2 1.9-.6.5-.4.9-.8 1.3-1.2l1.2-1.2c.4-.4 1-.7 1.7-.8l-1.7-1.1 1-1.1-.4-1.4.4-1.4-.1-.3-1.2 1.4.1.7-1 1.1-1-.1.4 1.1c.2 1 0 1.7-.2 2.1zm-2-78l.4-.4-.4-.4-.3.4.3.4zm1.1 71.4c0 .4.2.8.3 1.2l.1-1.1-.6-1.4c.1.4.1.8.2 1.3zm2.2-63.1l.3-.4-.3-.4-.4.4.4.4zm2.8-3.2c0-.5-.3-.8-.8-1.2-.5-.3-.8-.8-.8-1.6h-1l1.4 4.1 1.2-1.3zm-.7-8c0-1-.6-1.5-1.7-1.5.1 1 .6 1.5 1.7 1.5zm-.9 82.7h-.7v1c.3-.4.6-.7.7-1zm-.3-79.8l.3-.1-.3-.3-.1.1.1.3zm4 70.4c.8-.2 1.5-1.1 2.3-2.7l.6.8v.7l1 1.1 1.1-.6c-.6-.5-1.1-1-1.5-1.7-.4-.7-.7-1.4-1-2.1l-.6.1-1.9-.6c0 .4.1.8.2 1.4.1.6.4 1 .9 1.2l-.4.6-1-.3-1 1-.8-.7-1.4 2.1c1.6 0 2.8-.1 3.5-.3zm-1.7-68.3c.2 1 .6 1.5 1 1.6l1.1-1.1c0-1.7-.9-2.6-2.6-2.6.1.4.2 1.1.5 2.1zm-.5 71c.8 0 1.2-.4 1.2-1.2-.8-.1-1.2.4-1.2 1.2zm.9 2.7v-1h-1c.4.6.8.9 1 1zm-.4-77.2l.3-.4-.3-.4-.3.4.3.4zm.4 10.2h-.4l.4.4v-.4zm0-1.9l.4-.4-.4-.4-.3.4.3.4zm.4-8.7h.6v-1.4c-.4.3-.6.7-.6 1.4zm.3 7.4c.1.3.5.4 1 .4 0-.4-.1-.7-.3-1-.2-.3-.5-.5-1-.5 0 .5.1.9.3 1.1zm.6 4.6h.1c0-.4-.3-.6-.8-.6 0 .4.2.6.7.6zm1.1 67.8v-.4h-1.4v.4h1.4zm-.4-78.9l-.6-.6v.6h.6zm0 9.6c.4.1.8.1 1.4.1.4 0 .8-.1 1.2-.2.4-.1.6-.4.6-.9 0-.3-.1-.7-.2-1.4-.1-.6-.3-1.3-.6-1.9-.3-.6-.6-1.1-1-1.6s-.7-.7-1.1-.7c0 .9.1 1.8.4 2.6.3.8.4 1.7.4 2.6h-1.7c0 .9.2 1.3.6 1.4zm0-7.8l.3-.4-.3-.6-.4.6.4.4zm.2 71.7c-.2 1.1-.3 2.2-.3 3.1h.4c0-1 .4-1.8 1.1-2.4.7-.6 1.1-1.4 1.1-2.4-1.3 0-2.1.5-2.3 1.7zm.6-62l.4-.4-.4-.6-.3.6.3.4zm0 53.5l.4-.4-.4-.6-.3.6.3.4zm1-66.9l.3-.1-.3-.3-.1.1.1.3zm0 78.2l1.4-1.1-.3-.8c-.8.4-1.1 1-1.1 1.9zm3.3-1.6c0 .5-.2.8-.5 1-.3.2-.7.5-1.2.7-.5.2-.9.8-1.3 1.6l.7.1 1.7-.6 1.8.4-.7-2.1.7-1.5c-.1-.5-.3-1-.6-1.5-.3-.6-.6-.8-1.1-.8h-.1c.5 1.3.7 2.2.6 2.7zm-2.2-60.7v-1.1l-.6.6.6.5zm4.1-12.2c-.5.3-.9.5-1.2.8l-1.2.6-1.4-1.8-.4.4 1.2 3.7 3-3.7zm1.1 68.9l1.2 2.1c0-.5.1-1 .2-1.6.1-.6.5-.9 1.2-.9l-1-.7 1-2.1-1-1.1 1-1.9-1 .6-1.1-.7 1.1-.7-.4-.3-1.7 2.3-.7-1 1.1-1.5-.1-.3c-.7 0-1.2.3-1.5 1-.3.7-.8 1-1.5 1l-1.8-1-.4.8c0 .8.4 1.4 1.1 1.6.7.2 1.4.3 2.1.3l-.3 2.8.7-.3c.7.2 1.3.6 1.8 1.6zm-4.5-2.5l.6-.3-.6-.4-.3.4.3.3zm.6 4.8h-.7v.4l.7-.4zm2.4-64.3l-1.2-2.9-.4.1-.7 1.8v.1l2.3.9zm-2.1 2.8v-1l-.3 1h.3zm-.1 49.1l.1.3 1.4-.1-1.4-.1h-.1zm.5 7.6v-.3h-.4v.3h.4zm.7-55.3l.1.3.1-.3v-.1l-.2.1zm2.8-7.3l-1.4-1-.7.7 1 .7 1.1-.4zm-1.4 5.5v-.6h-.7v.6h.7zm1.6 51.2c.5.1 1 .2 1.4.4l1.5-.7-1.5-.8.7-1.2h-.7l-2.9 2.2c.5-.1 1 0 1.5.1zm-1.3 10.7l.3-.7-.3-.7-.1.7.1.7zm.3 4.8l-.3-1.2-.1.3.4.9zm.8-64.5h-1.1l.7 1 .4-1zm-.4 47.3l.3-.6-.3-.6-.6.6.6.6zm-.3 8.3c0-.5.2-.8.5-1 .3-.2.7-.3 1.2-.3v1.2h-1.7zm.1-57l.3.3.3-.3-.3-.1-.3.1zm.3-2.9l1.8-1.8c-1.2 0-1.8.6-1.8 1.8zm1.7-5.4l-.4-.8-.7.4.6 1.4.5-1zm-.5 8c.4.1.6.5.6 1.2l1.2-1-1.4-1.8h-.3l-.8.7c.1.6.3.8.7.9zm.2 6.2l.3.3v-.7c-.2 0-.3.2-.3.4zm.5-11.8l.6-.4-.6-.6-.3.6.3.4zm1 16.3l.6-.7-.4-.7-1.1.7.7.7h.2zm1.5 30v-.1l-1.8 1.8c1.2 0 1.8-.6 1.8-1.7zm2.3 5.3c.1-.6.2-1.1.2-1.5.7 0 1.1.3 1.2.8 0 .5.1 1 .1 1.6l1.4-1.2c0-.6-.2-1.1-.6-1.8-.4-.6-.9-1-1.6-1-.2 0-.4.1-.8.2-.3.1-.6.3-.8.3l-.4-.6c-1.6.3-2.3 1.2-2.3 2.8l3.4 1.9c0-.5.1-1 .2-1.5zm-.5 10.3l-1.8-1.8-1 .3c.5 1 1.4 1.5 2.8 1.5zm-2.2-59.6l.3-.4-.3-.6-.4.6.4.4zm.3 54.5c-.4.4-.6.9-.6 1.5l.3.7.8-1 2.5.7-.8-2.1.7-.7-1.1-1.4c-.4-.5-.9-.7-1.7-.7h-.4l1.8 2.1c-.6.3-1 .5-1.5.9zm.1-39.2v-1h-.4v1h.4zm0-13.1l.3-.4-.3-.4-.3.4.3.4zm.1 10.7c0 .3.1.6.2.9l-.3-2.3-.3.6c.2.2.3.5.4.8zm.3-2.4h.6v-.7c-.4.1-.6.3-.6.7zm.1 6.6c0 .3.2.7.5 1l.4-1-1-1.2.1 1.2zm1.3 44.9h-1.4v.6c.7-.1 1.1-.3 1.4-.6zm1.9-47.4l1.4 1.1 1-1.7v-.7h-1l-.1-.7.6-.7 1.9.7c0-.6-.2-1.2-.6-1.7-.4-.5-.6-1.1-.6-1.7 0-.5.2-.9.5-1.2l1-.9-.6-.7-.8 1c-.5-.2-.9-.4-1.3-.6-.4-.2-.8-.5-1-.8-.9.7-1.7 1.6-2.3 2.6-.6 1-.9 2.1-.9 3.3l1.1 2.2-.3.6 1 1.1 1-1.2zm-.5-13.7l-2.1-.6.7 1.1 1.4-.5zm-1.5 31.6c-.3.2-.5.5-.6.9l1.7-1.5h-.3c-.3.2-.6.4-.8.6zm.1-26.5h-.4l.4.4v-.4zm1.5 5.7c-.2-.7-.2-1.4 0-2 .2-.6.5-1.3.8-2l-.1.3 1.5 2.3.1-.1-3.2 2.8-.7-1.1.4-.3 1.2.1zm.4 5.4l-.6-1.1-1.2 1.7 1.8-.6zm-1.5-3.1s0 .1-.1.1c.1-.1.2-.1.3-.1h-.2zm2.6 46c.5-.6.8-1.2.8-1.9 0-.2 0-.4-.1-.7-.1-.3-.2-.5-.3-.7-.2 1-.6 1.7-1.1 2.1-.6.4-1.2.8-1.9 1.4l1.1 1.1c.4-.3 1-.7 1.5-1.3zm-2.4-1.5l.8-.7-1.1.6.3.1zm.4-36.8l-.4-.8v.8h.4zm0 2.3l.3-.4-.3-.6-.3.6.3.4zm.4-20.8l-.4.7 1.4 1.4-1-2.1zm.5 37.4c1 0 1.6-.5 1.7-1.6.1-1.1.2-2 .2-2.7.5 0 .8.1 1.1.4.3.3.5.6.7.8.2.3.4.6.7.8.3.3.6.4 1.1.4v-.4l-2.2-4.7c-.6 0-1.1.1-1.6.3-.5.2-1 .3-1.6.3 0 .6.1 1.2.3 1.8.2.6.3 1.1.3 1.8l-1.6-.5v1.2l.9 2.1zm0 12.4l.3-.3-.3-.4-.4.4.4.3zm.5-51.2l.1.3.3-.3-.1-.1-.3.1zm0 16.7h.4l-.1-.1-.3.1zm.4 2.4v-.6l-.4.6h.4zm.2 9.7c.2.6.3 1.3.3 2.1h.6v-2.6l.8-.1 2.8 1 2.8-1.4-1-1c-.5 0-.8.2-.9.7-.1.5-.4.7-.9.7v-.3l1-1.9c0-.5-.1-.8-.4-1-.3-.2-.6-.4-.8-.6l-.8-.4c-.3-.1-.4-.3-.4-.6 0-.8.2-1.6.6-2.3.4-.7.6-1.4.6-2.3l-2.9 4.6c0 .6.2 1 .5 1.2.3.1.7.3 1.1.3.4.1.8.2 1.1.3.3.1.5.4.5 1-.6 0-1 .1-1.4.2-.4.1-.6.5-.8 1-.3-.5-.6-.9-1-1.2-.4-.3-.9-.6-1.3-.8v1.4c-.3.7-.2 1.4-.1 2zm.7 23.1v-1.1h-.7c.2.5.5.9.7 1.1zm0-31.1v-1l-.4 1h.4zm.4 1h.4l-.4-1-.3.6.3.4zm0-19l.3.3.3-.3-.3-.1-.3.1zm1 13.5v-.7h-1v.7h1zm.4 23.4c-.4.5-.6 1-.8 1.5-.1.6-.2 1.1-.2 1.7l2.5.6-1.5-3.8zm-.5 14.2c-.1.3-.1.6-.1.8h.7v-1.4c-.3 0-.5.3-.6.6zm1.1-41.3v-.4h-1v.4h1zm-.6 5.5v-.4h-.4v.4h.4zm2.4 27.6h-.3l-2.5 1.4 2.8-1.4zm0-31.8l-1-.7-1.4 1 1 .7 1.4-1zm-1-6.6c-.5.2-.7.4-.8.7l.4.3.4-1zm.1 3.5c.3.6.7 1 1.4 1 0-.6-.1-1.1-.3-1.7-.2-.6-.7-.9-1.4-.9-.1.4.1.9.3 1.6zm.9 5.5v-.7h-1v.7h1zm1.4 17l-1-2.8-1 .7v.8l-.4.8 1.5 1.2-1 .6.8 1 1.1-2.3zm-1 6.4v-.4h-1.4v.4h1.4zm0-17.1v-.8l-.8.8h.8zm0 15.8v-1h-.7c0 .5.2.8.7 1zm.5-19.3c-.4-.6-.7-.9-1-1v1h1zm-.5 28.9v-.4l-.4.4h.4zm0-1.4l.4-.4-.4-.6-.3.6.3.4zm.6-2.5c.4.3.9.6 1.3.8 0-.6-.1-1.1-.3-1.8-.2-.6-.7-1-1.4-1l-.1.7c-.1.5.1 1 .5 1.3zm.8-27.1v-.3h-.8v.3h.8zm0 3.8v-.4h-.8v.4h.8zm-.4 8.7l.3-.4-.3-.4-.3.4.3.4zm.2 9c.3 1.1.9 1.7 1.6 1.7l-.8-4.1h-1.3c0 .5.1 1.3.5 2.4zm1.5-14.9l-1.4-1.4v.7l.7 1.2.7-.5zm.2 6.6l-1.2-.7h-.3v1.5l1.5-.8zm-.6-10.3l.3-.4-.3-.4-.3.4.3.4zm.4 6.5l-.4-.4v.4h.4zm-.1 6.2l-.3.3h.4v-.1l-.1-.2zm1.1 5.3v-.6l-.1.3.1.3zm26.5-28.2c2.6-6.1 6.1-11.4 10.6-15.9s9.7-8.1 15.7-10.7c6-2.6 12.4-3.9 19.3-3.9s13.4 1.3 19.4 3.9c6 2.6 11.3 6.2 15.9 10.7s8.1 9.8 10.8 15.8c2.6 6 3.9 12.5 3.9 19.4 0 6.8-1.3 13.2-4 19.2s-6.3 11.2-10.8 15.7c-4.6 4.5-9.8 8.1-15.9 10.7s-12.4 3.9-19.1 3.9c-6.8 0-13.2-1.3-19.2-3.9-6-2.6-11.3-6.2-15.7-10.6s-8-9.7-10.6-15.7-3.9-12.4-3.9-19.2 1-13.4 3.6-19.4zm2.1 15.3l.4-.4-.4-.6-.3.6.3.4zm0 15.6l.4-.4-.4-.4-.3.4.3.4zm.5-5.5c.1-.1.2-.1.2-.1s0 .1-.1.2l.3.4.3-.4c-.1-.3-.3-.6-.7-1l-.4.4.4.5zm.2 0l.1-.4c-.1 0-.1.2-.1.4zm.2-15.2h.4l-.1-.1-.3.1zm0 17.1h.4v-1c-.2.3-.4.6-.4 1zm1.4-11.2v-.8h-.4v.8h.4zm0 6.5v-.4h-.4v.4h.4zm1.7 1.9c0-.4-.2-.6-.7-.8-.5-.1-.8-.3-1.1-.3l1.5 1.5.3-.4zm-.7 7.1v-1.1h-1c0 .7.3 1.1 1 1.1zm0-13.6l.3-.4-.3-.6-.4.6.4.4zm-.2 1.8h1v-1c-.3.2-.6.5-1 1zm.4-21.6l.3-.3-.1-.1-.1.3v.1zm.2 12.9l.1-.3c0-.1 0-.2-.1-.3l-.1.3.1.3zm1 22.5l-.6-.4-.4.4h1zm.4-28.9l-.4-1.4-.6 1 1 .4zm0 23l-.6-.6-.4.1.6.8.4-.3zm-.4-14.3l.3-.4-.3-.4-.4.4.4.4zm.9 23.7c0-.8-.4-1.2-1.1-1.2 0 .8.4 1.2 1.1 1.2zm-.9-30.6l.1.3.3-.3v-.1l-.4.1zm.4 8.8v-.6h-.4v.6h.4zm0-5.1l.3-.4-.3-.6-.3.6.3.4zm.4-15.6l.4-.4-.4-.6-.3.6.3.4zm0 1.4h.6l-.3-.3-.3.3zm.2 15.1c.1.3.4.5.8.5l1-.4c-.6-.6-1.3-1-1.9-1-.1.3-.1.6.1.9zm1.2 6l-.6-.4-.8 1.8 1.4-1.4zm-.9 13.4l.3-.4-.3-.6-.4.6.4.4zm0 15.5l.3-.3-.3-.4-.4.4.4.3zm.4-40.6c.3.1.6.2.8.2l-1-1.4-.3.4c.1.4.3.7.5.8zm0 26.4c.1 0 .1 0 .1-.1s0-.1-.1-.1h-.1c0 .1.1.2.1.2zm1.1-15.9c.4 1 .9 1.7 1.7 2.1 0-1-.2-2-.6-2.9-.4-.9-1-1.7-1.7-2.2l-.4.4c.3.8.7 1.6 1 2.6zm-.6 3.9l.3-.1-.3-.3-.1.1.1.3zm2.3-23.1l-1.1-1-.3.3.4.7-.4.7-1-.7v1.9c1.2-.5 1.9-1.1 2.4-1.9zm-.8 25.1l-.7-1h-.3v1h1zm-.6-29.3l.3-.3-.3-.4-.3.4.3.3zm0 43.5l.3-.4-.3-.6-.3.6.3.4zm0-41.4v-.7l-.1.4.1.3zm1 8.3v-1.9h-1l.4 1.9h.6zm-.6 7.3h.6l-.3-.1-.3.1zm.6 20.3v-1h-.6v1h.6zm0 6.6l.3-.6-.3-.6-.4.6.4.6zm.4-13.1l.3-.4-.3-.4-.3.4.3.4zm.7-12.4h-.7v1c.5-.3.7-.6.7-1zm-.3 30v-.4h-.4v.4h.4zm0-36.9l.4-.4-.4-.6-.3.6.3.4zm-.3 27.3c0 .2.1.3.3.3l.4 2.5-.4-3.2c-.2.1-.3.2-.3.4zm.3-38.4h1v-1.1c-.7 0-1 .4-1 1.1zm0 15.6l.4.3.1-.3-.3-.1-.2.1zm0 18.5v.4l1 1.4c0-.7-.3-1.3-1-1.8zm5.4-31.2c0-.6-.2-1.1-.7-1.5-.5-.5-.9-.8-1.4-1.1l.4-.3 1 .6c0-.7-.2-1.4-.6-2.1-.4-.6-.8-1.2-1.3-1.7 0 .7-.2 1.6-.5 2.5-.3.9-.9 1.5-1.7 1.8l.4.6c.3.1.6.1.9 0l.9-.3c.5 1 1.4 1.5 2.6 1.5zm-4.4 39.5l.3-.4-.3-.6-.3.6.3.4zm.7-14.8h-.7v1c.4-.2.7-.5.7-1zm.2-32.8v-.4l-.6.4h.6zm1.5 18.1c.2-.6.3-1.2.3-1.9l-.6-1-.8.6.3.7c.1.3.2.5.1.7l-1.4 1.5.8.8c.7-.3 1.1-.8 1.3-1.4zm-1.5-2.8l.3 1-.3-1.8-.4.4.4.4zm0 11l.3-.4-.3-.4-.4.4.4.4zm0 9.3l.3-.4-.3-.4-.4.4.4.4zm0 26.9l.3-.4-.3-.6-.4.6.4.4zm.2-33.5l-.1-.3-.3.3h.4zm.3-20.7h-.4v.7l.4-.7zm0 48.7l.3-.4-.3-.6-.3.6.3.4zm.9-43.9v-1h-1v1h1zm-.5 9.6v-.6h-.4v.6h.4zm0 30.5h-.4l.4.3v-.3zm.5-42.5c.1.4.2.7.4 1l-.4-2.1c-.1.4-.1.8 0 1.1zm1.8-11.5c.7.2 1.5.3 2.2.3l.6-.3-1.4-1.1 1.1-1.4 1.7 1.1-1-2.5h-.4l-3.2 2.5h-1.4c.5.8 1.1 1.2 1.8 1.4zm-1.8 60.2l2.2.3c-.2-.2-.2-.4 0-.6l-2.2.3zm1.4-58.4l-.7-.6-.3.3v1l1-.7zm-.5 49.6c-.1.4-.3.8-.5 1.2l1.4-.4-.4-2.1c-.2.5-.3.9-.5 1.3zm0 5v-.7h-.4v.7h.4zm.2-12l.1.3.3-.3-.1-.4h-.1l-.2.4zm.3-48.2l.1.3.3-.3-.1-.1-.3.1zm.4 62h-.4v.3l.4-.3zm1-44.7v-1.9l-1 .3 1 1.6zm-.8-9.8l.3.6-.3-.6.3-.6-.3.6zm.2 43l.4-.6-.4-.6-.3.6.3.6zm0 19.7l.4-.4-.4-.6-.3.6.3.4zm.6-58.7l.1.3.3-.3-.1-.1-.3.1zm.4 46.3l-.4-.4v.4h.4zm.1 2.4c.1-.3.1-.6.1-.8h-.7v1.4c.4 0 .5-.2.6-.6zm-.1-6.6l.3-.1-.3-.1h-.1l.1.2zm1.4-42.1c-1 .4-1.4 1.1-1.4 2.1v.4c.5-.7 1.1-1.4 1.8-1.9.7-.6 1.5-.8 2.3-.8v-.3c-.8-.1-1.7.1-2.7.5zm-1 57.8l.6-.4-.6-.4-.3.4.3.4zm2.2-23.5c1.4 3.2 3.4 6 5.9 8.4 2.5 2.4 5.4 4.3 8.6 5.7 3.3 1.4 6.7 2.1 10.3 2.1 3.7 0 7.1-.7 10.4-2.1 3.3-1.4 6.1-3.3 8.6-5.7s4.4-5.2 5.8-8.4c1.4-3.2 2.1-6.7 2.1-10.3 0-3.7-.7-7.2-2.1-10.5-1.4-3.3-3.3-6.2-5.7-8.7-2.4-2.5-5.2-4.4-8.6-5.9-3.3-1.4-6.8-2.1-10.5-2.1s-7.1.7-10.4 2.2c-3.3 1.5-6.1 3.4-8.6 5.9-2.4 2.5-4.4 5.4-5.8 8.6s-2.1 6.7-2.1 10.4c-.1 3.8.6 7.2 2.1 10.4zm3.2-38l.8.6 1-1-1.1-.4-2.6 1.8-1.1-.7-1.7 2.1.6.7 4.1-3.1zm-2.4 54.2c.7-.4 1-.8 1-1.2l-3 1.4.4.8c.4-.3.9-.7 1.6-1zm-1.7-5.1c.1-.1.2-.1.2-.1s.1 0 .2-.1l-.3-.1h-.1v.3zm3.3-51.5c.3-.6.7-1.1 1.2-1.5l-1-1.2v1.3l-1.1.3-.3-.4c-1.4.5-2.1 1.4-2.1 2.8l1.8-1.7.3.3v1.7c.5-.5.9-1 1.2-1.6zm-2.2 54.1l.6-.3-.6-.4-.3.4.3.3zm0-45.5l.3-.1-.3-.3h-.1l.1.4zm-.2 59h4.8-4.8zm1.5-73v-.4h-.3v.4h.3zm.7 68.9h-1v1c.7-.1 1-.4 1-1zm0-4.2l.3-.4-.3-.6-.6.6.6.4zm-.1.3l.3.4.3-.3-.3-.1h-.3zm2.9-63.9c.5 0 .8-.3 1-.9.2-.6.5-1.3.8-2 .3-.7.6-1.4 1-2 .4-.6.9-.9 1.7-.9l1.5 1-.7 1.2.3.1c.3-.2.6-.4.9-.7.3-.3.5-.6.5-1.1 0-.7-.5-1.2-1.6-1.5-1.1-.3-1.9-.4-2.4-.4s-.8.2-.9.6l-.3 1.2c0 .4-.1.8-.3 1.1-.1.3-.5.5-1 .5-.6 0-1.1-.2-1.4-.6l-1-1.2-.7 2.8.7-.6 1.1.6c0 .8-.5 1.3-1.4 1.5v.2c.6.8 1.4 1.1 2.2 1.1zm-1.5 9l.3.3.3-.3-.4-.1-.2.1zm.2 57.1l.3.3v-.4h-.1l-.2.1zm.3 5.8v-1l-.3.6.3.4zm0-67.4l.1.3.1-.3v-.1l-.2.1zm1 69.2l.3-.4-.3-.4-.6.4.6.4zm-.3-79.2c0 .1.1.1.3.1h.3c.5.1.9.1 1.2.1h1.2l-2.6-.4c-.3.1-.4.1-.4.2zm1.4 7.6c.9-.4 1.5-.8 1.7-1.4l-1.8-.4-1.2 1.2 1.3.6zm-.6 5.7l.3-.3-.1-.3-.4.4.2.2zm1 58.9c.6.3 1.3.4 2.1.4 0-.7-.3-1.3-1-1.6-.7-.3-1.4-.5-2-.5-.1.8.3 1.4.9 1.7zm-.1 5.6l-.7-.8v.8h.7zm.4-3.6v-.6l-.4.6h.4zm.4 4.6l-.4-.4v.4h.4zm.9-75.7c-.6.4-.9.9-.9 1.7.6 0 1.3-.2 1.9-.6.6-.4.9-.9.9-1.7-.7 0-1.3.2-1.9.6zm-.6 72.6l.3.3v-.4h-.1l-.2.1zm1.1-65.3l.4-.3-.4-.4-.3.4.3.3zm0 68.7c0 .5.2.8.5 1.1v-2.3h-.6c.1.3.1.7.1 1.2zm4.2-76.2c-.6 0-1.1.3-1.7.8-.6.5-1 1-1.2 1.4l1 1.1 1.9-3.3zm-2.4 7.1l.3.3.3-.3-.3-.1-.3.1zm.9 63.7h-.8v.6c.4-.3.6-.4.8-.6zm0 2.7l.4-.4-.4-.4-.3.4.3.4zm.9-68.2l.1-.6-.6.3c-.2.1-.3.2-.4.4l.6.3c.2-.1.3-.3.3-.4zm.5 72.5c.5 0 .9-.1 1.4-.4.5-.3 1-.4 1.5-.4 0-.5-.5-.8-1.6-.9-1.1-.1-1.8-.2-2.1-.2l.4 1.8.4.1zm-.4-82.7l.3-.4-.3-.4-.3.4.3.4zm.4 73.9h-.4v.4l.4-.4zm.3-70.8c1.1 0 1.7-.5 1.7-1.5l-.6-1.1c-.7.9-1.1 1.8-1.1 2.6zm1.6 70.8v-1h-.6c.2.5.4.8.6 1zm.8-69.1c.3.8.7 1.2 1.2 1.2.6 0 1.1-.2 1.4-.6.3-.4.5-.8.6-1.2l.4-1.5c.1-.6.3-1 .6-1.4l-.6-1.4c-.2-.5-.5-.9-.8-1.4v1.7h-2.2l1.8 2.1-1.4 2.3-1.7-1.5c.2.4.4 1 .7 1.7zm-.5-5.6c-.1.3-.1.6-.1.8h.7v-1.4c-.3.1-.5.3-.6.6zm-.1 10.3l.3-.3-.3-.1v.4zm1.2 74.5c-.3-.5-.5-.7-.6-.8v.8h.6zm.2-5.3l.3-.3-.3-.1v.4zm.9 4.1c.3.4.7.7 1.2 1.1l.6-.4v-.3c0-.6-.2-1-.7-1.4-.5-.4-1-.6-1.5-.6-.1.8 0 1.3.4 1.6zm.3-74.6v-.4l-.6.4h.6zm0 66.1l.3-.4-.3-.4-.4.4.4.4zm.4 0v.6l1 1.5-1-2.1zm1.4 3.7v-1l-.4.6.4.4zm0-71.2l1.8-.8-.7-.6-1.1 1.2v.2zm1-8.2c.1-.1.2-.1.2-.1s0 .1-.1.2l.3.4.3-.4c-.1-.3-.3-.6-.7-1l-.5.5.5.4zm0 10.3l.3-.6-.3-.6-.5.7.5.5zm0 73.3l.3-.4-.3-.6-.4.6.4.4zm.1-83.6l.1-.4c-.1.1-.1.2-.1.4zm.3 2.3h1v-.5c-.6 0-.9.1-1 .5zm.4 82.2l.4-.4-.4-.6-.3.6.3.4zm.5-6.9v-.6h-.6v.6h.6zm0-69.4l.3-.4-.3-.4-.4.4.4.4zm1.4-4.1v-.3c0-.7-.4-1.1-1.1-1.1.2.4.6.9 1.1 1.4zm0 83.5c-.2-.4-.4-.6-.6-.8v.4l.6.6v-.2zm0-7.2v-.6l-.3.3.3.3zm1.8-74.4v-1l-1.8 1h1.8zm-1-5.5v-.5h-.4v.6h.4zm0 84l.4-.4-.4-.6-.3.6.3.4zm.7-76.1c.4.1.9.1 1.3.1v-1.1h-2c0 .6.3.9.7 1zm-.1 69.6h-.6v.4l.6-.4zm2.3-75l-1.5-1.1-.8.8 1.4 1.4.9-1.1zm-.1 78.2l-1.4-1.4 1 1.9.4-.5zm-1.4 4.7h.6l-.3-.3-.3.3zm1.4-87.3h-.4v.6l.4-.6zm2.5 7c.2-.8.3-1.5.3-1.9l-1.8 2.3c0-.6.2-1.2.5-1.7s.5-1 .5-1.7c0-1.2-.6-1.8-1.9-1.8l1.4 2.1c0 .5-.2.9-.7 1.2-.5.4-.7.8-.7 1.2l1.1 1.4c.6.2 1.1-.2 1.3-1.1zm-1.9 72.4v-1h-.6v1h.6zm-.4 7c.1.3.4.5.9.5 0-1-.4-1.5-1.1-1.5 0 .3.1.7.2 1zm.8-4.2l.3-.4-.3-.6-.3.6.3.4zm.9 2.3l1.4-1.9h-.6l-1 1.4.2.5zm.2-4.4l.3-.3-.3-.1v.4zm1.2-77.3l1.4-2.2-2.2 2.2h.8zm1.8 6.4l-1.4-1-1 1.4 2.4-.4zm-1-5.5l-.4.4.4.6v-1zm0 9.5v.1l.3 1.2-.3-1.5h-.1l.1.2zm1 68.6l-1-.6v.6h1zm-.4-2.9l.1.3.3-.1v-.1h-.4zm3-72.1c.5-.3 1-.5 1.5-.5v-1.7c-.6 0-1 .2-1.4.6-.4.4-.7.8-.9 1.2l-.8-1-1 1 1.4 1.4 1.2-1zm-1.6 77.6c-.5.2-.8.4-1 .6l.4.4c.2-.2.4-.5.6-1zm-.6-82.5l.3.3.3-.3-.3-.3-.3.3zm0 2.8h.6v-1c-.3.3-.5.6-.6 1zm2 4.9h-1v-.4l-1 .4 1 2.1 1-2.1zm-1.7 70.8c.6 0 .9 0 1-.1.1 0 .3-.2.6-.5l-1.6.6zm1.1 6.4v-.8h-.8v.8h.8zm.6-5l.3-.4-.3-.6-.4.6.4.4zm-.2-79.9c.6 0 1-.3 1-1-.7.1-1 .4-1 1zm.6 75.2v-.4l-.4.4h.4zm0 5.5v-.4l-.1.3.1.1zm.4-73.8l.4-.4-.4-.6-.3.6.3.4zm1.4.4v-.4h-.8v.4h.8zm-.5-6.9l.3-.4-.3-.5-.3.6.3.3zm-.1 11.3l1.5-1.9c-1 .3-1.5.9-1.5 1.9zm1.6 69.6c.1.3.4.5.9.5 0-1-.5-1.5-1.4-1.5.2.4.4.7.5 1zm-.4-80.3l.3.4-.3-.4.3-.6-.3.6zm.3 73.8l.3-.4-.3-.6-.3.6.3.4zm1.7-69.9l-.3-1.7 1.7.7-1.4-2.1-1.7 4 .4.6 1.3-1.5zm-.2 73.9l-.6-.7v.3l.4.6.2-.2zm.7-69.5l.1-.3 1.4-3.2-2.3 2.8.8.6v.1zm-.4 70.6l.4-.4-.4-.6-.3.6.3.4zm1 5l.3-.4-.3-.4-.3.4.3.4zm.4-8.7v-.4h-.4v.4h.4zm.7-73.1c.2.3.4.5.7.5l.4-.4c0-.2-.1-.3-.3-.5-.2-.1-.4-.3-.6-.5-.1.1-.2.1-.3-.1-.1-.1-.1-.3-.1-.3l-.4.6c.2.2.4.4.6.7zm0-.3l.1-.6c-.1.1-.1.3-.1.6zm.5 5.4l-.3.3c.1.1.2.1.3.1l.1-.1v-.2l-.1-.1zm-.1-5v-.1.1zm.3 81.2l.4-.4-.4-.6-.3.6.3.4zm0-83.5l.3-.1-.3-.4-.1.1.1.4zm.9 75.7l.3-.4-.3-.4-.3.4.3.4zm0-74.4l.3-.1-.3-.3-.1.1.1.3zm2.5 4.7v-.3c-.5 0-.9-.1-1.3-.4-.4-.3-.9-.4-1.3-.4l.8 1.8 1.8-.7zm-.7-1.4v-1.5l-1.4.6 1.4.9zm-.8 72l-.6-.4v.4h.6zm.8 1h-.4l.4.4v-.4zm.9-64.3c0-.6-.3-1.1-.8-1.4v1.4h.8zm-.2 66.5l.4.3.3-.3-.4-.1-.3.1zm1.2-63c.1 0 .2-.3.2-.6l-1.1.3.4.7c.2-.2.4-.3.5-.4zm.2-4.8v-.3h-.3c0 .2.1.3.3.3zm.7-3.8l-.4-.4v.4h.4zm.7 4.2h-1.1l.4 1 .7-1zm-.4 59l-.3-.3-.1.3h.4zm.2-3.3c.4.2.7.3 1 .3h.6c-.4-.2-.7-.4-1-.7-.3-.3-.6-.4-1.1-.4 0 .3.2.6.5.8zm.2 6.2l-.7-.4v.4h.7zm0 3.7c0-.5-.2-.8-.7-1v1h.7zm.7-63.3v-.3l-.4.3h.4zm0 61.5v-.6l-.4.6h.4zm0-2.7l.3-.3-.3-.3-.1.3.1.3zm.7-63.6c.3.3.6.4 1 .4 0-.4-.2-.6-.6-.8l-1-.3.6.7zm.1 67l-.1-.3-.3.3h.4zm.1-70.9v-.6l-.3.6h.3zm0 10.2l.6-.6-.6-.6-.3.6.3.6zm1.7 4.4c0-.3-.2-.5-.6-.6-.4-.1-.6-.1-.8-.1h-.3v.7h1.7zm-1.2-4l.4-.3-.1-.1-.3.3v.1zm.9-8.4v-.7h-.3v.7h.3zm0 3.5l.6-.6-.6-.6-.3.6.3.6zm0 50h-.3l.3.7v-.7zm-.3 2.1h.3v-.3l-.3.3zm1.7-46.6h-1.4v.7l1.4-.7zm1.1-4.1c-.2-.3-.4-.5-.8-.6-.3-.1-.6-.1-.9-.1l.8 1 .9-.3zm-1.4 56.6v-1.1l-.3.6.3.5zm1 4.6v-.4h-.7v.4h.7zm.4-53.7v-.2h-.4v.3h.4zm1.4 40.5l-.6-.5c-.2-.1-.4-.2-.6-.2h-.3v.7h1.5zm0-37.6c.2.4.5.6 1 .6 0-1.1-.5-1.7-1.4-1.7.1.4.2.8.4 1.1zm.1-12.2c.3.2.6.3.8.4 0-.8-.4-1.2-1.2-1.2 0 .3.1.6.4.8zm-.1 6.3l.3-.6-.3-.6-.3.6.3.6zm0 4.4l.3-.3-.3-.4-.3.4.3.3zm0 45.3l.3-.3-.3-.4-.3.4.3.3zm.5-47.3c0-.6-.2-.9-.6-1v1h.6zm-.5 37.3l.4.3-.3-.3.3-.4-.4.4zm1.4-42.6v-1h-1v1h1zm.4 48.1l-.4-.4-1 1.4c.5-.3 1-.6 1.4-1zm-.9 7.9l.3-.4-.3-.6-.4.6.4.4zm.5 2.2l.3-.4-.3-.4-.3.4.3.4zm.7-50.1c.4.6.9.9 1.6.9.6-.2 1.1-.5 1.6-1s.8-1 .8-1.7c-.5 0-.9.2-1.3.5s-.7.7-.9 1.2c-.6 0-1.1-.3-1.2-.8-.2-.6-.6-.8-1.1-.8-.1.5.1 1.1.5 1.7zm-.2 2l-.1-.3-.3.3h.4zm-.1 13.9l.4-.4-.4-.4-.3.4.3.4zm.5-22.9l-.6-.7v.7h.6zm-.4 51.9c-.1.3-.1.6-.1.8.2 0 .4-.2.6-.5.2-.3.3-.6.4-.8h-.3c-.3.1-.5.2-.6.5zm.4-40l.3-.4-.3-.4-.4.4.4.4zm-.3 24.3c.4 0 .7-.1 1-.4s.5-.6.7-.8h-.6c-.7-.1-1.1.3-1.1 1.2zm1.2-23.8v-.6h-.4v.6h.4zm.2 1.8c-.2 0-.3-.1-.3-.2s-.2-.2-.3-.2v.4h.6zm-.2 3.7l-.4-.6v.6h.4zm-.2 5.3l-.3.3 1.1.3-.7-.3c.1-.2 0-.3-.1-.3zm.2 19.3l-.4-.7v.7h.4zm1.9-39h-.6l-1.4 1.7c.8-.5 1.4-1.1 2-1.7zm-1 16.2h-1v.6c.4-.1.7-.3 1-.6zm-.7-18.2l.3.3v-.4h-.1l-.2.1zm.2 44l.3.3.3-.3-.3-.1-.3.1zm0 5.1l.3.3.3-.1-.3-.3-.3.1zm.5-53.3h-.4v.3l.4-.3zm.4 26.6c.4-.1.6-.3.6-.5l-1.4.8c.2 0 .5-.1.8-.3zm-.4 16.1h-.4v.4l.4-.4zm1.4-30.3h-1l-.4 1.8c.9-.3 1.4-.9 1.4-1.8zm-.6 7.9c-.6.1-.8.5-.8 1.2h3.3l-1-1.4c-.4 0-.9.1-1.5.2zm-.4 21l.1.3.4-.3-.3-.1-.2.1zm1.2 8.7c-.3.3-.7.6-1.2.8h2.3v-1.2c-.4-.1-.8 0-1.1.4zm0-6.5c-.3.1-.5.3-.6.6h.4c.6 0 1-.3 1-1-.2.1-.5.2-.8.4zm.6-16c.4 0 .7-.2 1-.5l-.7-.4-1.4 1c.4-.1.8-.1 1.1-.1zm-.4-23.4v-.7h-.4v.7h.4zm-.1 7.2l.3.1.4-.4-.1-.1-.6.4zm.5 5.6l1.1-1-1.5 1h.4zm-.4 30.4l.6-.7c-.4 0-.6.2-.6.7zm.7-41.3c.1.4.3.7.7.9l.6-.7-1.5-1.4c0 .4.1.7.2 1.2zm3.4 22.6c.4-.2.6-.6.6-1.1 0-.9-.3-1.7-1-2.3-.6-.6-1-1.4-1-2.3l-1.9 1.1 2.9 2.9-1 1.9c.5.1 1 0 1.4-.2zm-2.7-19v-.7l-.4.7h.4zm.5 2.8l-.6-.6v.6h.6zm-.5 27.8l1.4.1-.3-.3.1-.1h.1l-1.3.3zm1 5l-.4-.7-.6.7.6.3.4-.3zm.4 2.8v-1.1h-.7c.2.5.4.9.7 1.1zm0-30.1l-.4-.6v.6h.4zm0-6.9l.4-.4-.4-.6-.3.6.3.4zm.5-2.4l.3-.6-.3-.6-.4.6.4.6zm.4 5.1l1-1.9h-.4l-1.1 1.9h.5zm0 5.6h.3l-.3-1-.3.6.3.4zm.6-2.4h.1l-.7-.4c.1.3.3.4.6.4zm-.2 3.2l.4-.4-.4-.4-.3.4.3.4zm.5 4.1c.3.7.7 1.1 1.4 1.1 0-.6-.1-1.1-.3-1.8-.2-.6-.7-1-1.4-1.1-.2.5 0 1.1.3 1.8zm.9 16.9l.4-.6-.4-.6-.3.6.3.6zm1-19.1l-1-1v.1c0 .6.3.9 1 .9zm0-8.3h-.4l.4.4v-.4zm31.3-33.5h17.9l2.6 2.3v73.1h32.3l2.8 2.2v17l-2.1 1.9h-53.5l-1.8-1.9v-92.6l1.8-2zm1.9 6.9l.3-.4-.3-.4-.4.4.4.4zm.5 67c.3.1.8.2 1.3.2 0-1-.5-1.5-1.4-1.5l-.4.1c0 .7.2 1.1.5 1.2zm-.1-64.2l.3-.4-.3-.4-.3.4.3.4zm-.1 5.6l.3-.3-.1-.3-.2.4v.2zm7.5 3.6l-.3-.4.1-.4c-.5.3-1 .5-1.6.6-.6.1-1.2.2-1.7.3v1.4l1.4-1v.7c1-.5 1.9-.8 2.8-1.1l1.7.7c.6 0 1.1-.1 1.5-.3.5-.2.8-.7 1-1.3l-1.4 1v-1.4h-.7c.5-.5 1-.8 1.7-1.2.6-.3 1-.8 1-1.6l-1.9.4c.4-1.1 1-2.2 1.9-3.2h-1.2c.2-.6.4-1.1.8-1.6.3-.5.5-1.1.5-1.7l-2.6 1.8.7 1.1-1.4.8-.8-1-1.7.6c.5-.2.7-.6.7-1.1 0-.6.2-1 .7-1.2l.4.6c.7 0 1.2-.2 1.5-.7.3-.5.5-.9.6-1.4.1-.5.2-1 .3-1.4.1-.5.4-.7.8-.7l.7-2.2-1.1.4v-.9l-1.8 2.1-3.3 1.8c0-.5.2-.7.7-.7.5 0 .7-.2.7-.7-1.4 0-2.4.5-3.2 1.5v-1.4l-1.8 1.8 1.1.4c-.6.2-1.2.3-1.7.5-.5.1-.8.3-1.2.5-.3.2-.6.5-.8.9-.2.4-.3 1-.3 1.9l.8 1.8 1-.4v.3l-1.4 2.3 1.4 1.2.3-1.2c.1-.4.2-.8.1-1.2l.6-1.1v1.3c.6 0 1.1-.3 1.3-.9.2-.6.6-1 1.2-1.2 0 1.2-.1 2.1-.3 2.8-.2.6-.9 1.2-2.1 1.8l.4 1.1 1.4-1.6-.1-.4.6-.6.1.7 1.4-.3.8.8-.4.6h.1l.6.6-.6.4zm-6-12.4v.4l1.8-1.8-3.2 1.8 1.4-.4zm-1.1 27.5l.7-.4v-1.4l-.8.7.1 1.1zm.2-25.6l.3-.3-.3-.3-.1.3.1.3zm.5 58.5v-.3h-.3l.3.3zm1.8-55.8l-1.8-.4h.8l1 .4zm-1.4 1.3l-.3-.4.3-.4.3.4-.3.4zm.3 22.5l-.3.3c.1.1.2.1.3.1l.1-.1v-.1l-.1-.2zm-.1-30.6l2.6.4c-.2-.1-.3-.3-.3-.5s.1-.4.3-.5l-2.6.6zm.2 57.5l.4-.3-.4-.4-.3.4.3.3zm0 21.8l.4-.4-.4-.6-.3.6.3.4zm.6-62.2v-.7h-.6v.7h.6zm.8 4.8l-1.4-.3v1l1.4-.7zm-.4 29.3l.3-.4-.3-.6-.3.6.3.4zm0 1.8l.3-.4-.3-.6-.3.6.3.4zm0 3.8l.3-.6-.3-.6-.3.6.3.6zm2.5-33.5h-2.5l1.1 2.1 1.4-2.1zm-2.5 17.7c.3 0 .6-.1.8-.2.3-.1.4-.4.4-.8-.5 0-.9.3-1.2 1zm2.6 26.5l.4-.7.4-.7c.1-.2.3-.3.6-.3l.6.7v-1c-.7 0-1.5 0-2.3.1-.8.1-1.4.5-1.8 1.2l-.4-.4v.7l1.8.7c.3.1.5 0 .7-.3zm-2.2 4.5h-.4v.8l.4-.8zm0-59.7l.6-.3-.6-.4-.3.4.3.3zm1.3 40c0-.8-.4-1.2-1.2-1.2-.1.8.3 1.2 1.2 1.2zm0 16.7c-.4 0-.8.2-1.2.7l.7.3.5-1zm-.6 14.9v-.8l-.7.4.7.4zm0-18.4v-1.1l-.6.6.6.5zm0 9.3v-1l-.6.6.6.4zm0-25v-.6l-.3.3.3.3zm.3-43.4l-.3-.4.3-.6.3.6-.3.4zm1.9 14.6c.6-.5.8-1.1.8-1.8-.6 1.2-1.6 1.8-3 1.8v.3h.7l.1.4-.6.3.6.7c.4-.7.9-1.3 1.4-1.7zm-1.9-.7l.3-.6-.3-.6-.3.6.3.6zm0 12.8v-.4h-.3v.4h.3zm0 13.4l.3-.4-.3-.4-.3.4.3.4zm1.1 9.5l-1.4-.7v.3l.3 1.2 1.1-.8zm-1.4 20.6l.3.4-.3-.4.3-.4-.3.4zm.7 2.3h-.7v.4l.7-.4zm.7 5.5h-1.1l.4.4.7-.4zm-.7-53.1l.6-.4-.6-.6-.3.6.3.4zm0 12l.6-.4-.6-.6-.3.6.3.4zm0 2.4l.7.4v-1l-.7-.4-.3.6.3.4zm-.1-7.3l1.1.4-.3-.4.3-.6-1.1.6zm.1 21.5l.3-.6-.3-.8-.1.8.1.6zm1-55.8l-.1 1.2h1.2l-1.4 1-.7-1.9.7-.8.3.5zm-.3 14.8v-.4l-.7.4h.7zm2.1 42.9l-1.8-.1-1 1 2.8-.9zm-2.1-35v-1l-.6.6.6.4zm-.6 18.9c0-.2.1-.4.4-.6l-.4.6zm.6 18v-1.1l-.6.6.6.5zm1.6 11.1l.4-.6-1.8-2.2-.4.6 1.8 2.2zm-1.3-67.5l-.3-.4.3-.6.3.6-.3.4zm0 35.1l.3-.4-.3-.4-.3.4.3.4zm1.3-15.2l-1.5.6 1.2.8.3-1.4zm.5 28.8c0-.5-.1-.9-.4-1.2-.3-.3-.6-.5-1.1-.5l-.3.3c.3.6.9 1 1.8 1.4zm-1.8 27.6l2.1-2.9h-1l-1.1 2.9zm.4-75.5l-.3-.4.3-.4.6.4-.6.4zm2 38.9c-.1-.5-.4-.8-.9-1-.5-.2-.9-.4-1.3-.5l1.5 1.9.7-.4zm-2-42.4c.2-.2.3-.3.5-.3.1 0 .3-.1.5-.2v.6h-1zm.9 7l-1 .3.3-.1-.3-.1h1zm-.2 3.4l-.6-.3c.2-.2.4-.3.6-.4l.1.4-.1.3zm.1-8.5l-.3-.3.4-.3.1.3-.2.3zm.1 5.1l-.3-.6.3-.6.3.6-.3.6zm0 7.3l.3-.6-.3-.5-.3.6.3.5zm.9 31.3l1 .4 1.2-1.4h-3.3v2.3l1.1-1.3zm-1.1 34.2h.3v-.3l-.3.3zm.5-74.6l-.3-.3.4-.8.7.4-.8.7zm.3 29.2h.1l-.3-.3-.4.8c.4.1.6-.1.6-.5zm-.1 18.1v-.3l-.4.3h.4zm1.7 2.8c.7-.2 1.4-.6 2.1-1-1.1-.2-1.7-.8-1.7-1.8h-.1c-.2.6-.5 1.2-1 1.7s-1 .9-1.4 1.4l.4 1.1c.4-.7 1-1.1 1.7-1.4zm-2.2 7l1.8 1-.7-1h-1.1zm.5-49.5l.6-.4-.6-.6-.3.6.3.4zm0 14.9l.6-.4-.6-.6-.3.6.3.4zm0-2.4l.3-.1-.3-.3h-.1l.1.4zm.6-8h-.7v1.1l.7-1.1zm0 23.2l-.7-.4v.4h.7zm0 32.4h-.7v.8c.5.1.7-.2.7-.8zm.6-65.5l-.3.3c-.2-.4-.5-.6-.8-.8l.6-.6c.1.6.3.9.5 1.1zm-.7-7.9l-.1-.3.3-.3.1.3-.3.3zm1.4 10.1l-.6.4c0-.1 0-.2-.1-.3-.1-.1-.2-.1-.3 0l-.3-.6.3-.6c.1.4.4.7 1 1.1zm-.6 18.5l-.7-.4v1.5l.7-1.1zm0 22.1h-.1l-.6 1 .3.4.4-1.4zm-.4 18v-.4h-.3v.4h.3zm2.9 10.1l-1-.8-2.2 1.4 1.4.6 1.8-1.2zm-3-74.6l.1-.6.1.3-.2.3zm.1 9.5l1.4-.7-.3-.3c-.7 0-1.1.4-1.1 1zm0 1.4l.3.3.1-.3-.1-.1-.3.1zm6 8.9c-.7-.4-1.6-.6-2.5-.6-.2 0-.5.1-.9.2s-.7.3-.9.3l-.6-.6.3-.4h-1.4c0 .2 0 .5.1 1 0 .5.1 1 .3 1.4.1.5.3.9.4 1.2.1.4.3.6.6.6v-1.1l1.4-.4.4 1.4-.4 1.2 3.2-4.2zm-5.6-24.5l-.3-.4.3-.6.6.6-.6.4zm2.8 6.1l-2.1.6-.8.7h1.1v-.7h-.3c0-.2 0-.4.1-.6.1-.2 0-.4-.1-.6l2.1.6zm.3 13.1l-1-.8c-.6 0-1.1.3-1.4.9-.3.6-.5 1.1-.7 1.6l.7 1.8 2.4-3.5zm-2.4 16.4h-.7l.7.4v-.4zm1.4 14l-.7-1.2-1.4.6 1.4 1.8.7-1.2zm-1.5 9.4l.4-.3-.3-.7-.7 1h.6zm.1-60l-.5-.4.6-.4.1.4-.2.4zm-.5 1.5l2.6.4c-.2-.1-.3-.3-.3-.5s.1-.4.3-.5l-2.6.6zm.5 9.6l-.6-.3c.2-.2.4-.3.6-.4l.1.4-.1.3zm0 57.3v-1.1l-.6.6.6.5zm1.1-4.9l1-.6-2.3-1.1c-.1 1.1.4 1.7 1.3 1.7zm-.8-57l-.3-.4.3-.6.3.6-.3.4zm1.8 12.1l-1.8-1-.3.6 2.1.4zm-1.8-2.7h.3c1.3 0 1.9-.6 1.9-1.8-1.2 0-1.9.6-2.2 1.8zm.1 61.2c0 .4-.1.7-.1 1h.4v-1.8c-.2.2-.3.5-.3.8zm.3-36.8l.6-.4-.6-.6-.3.6.3.4zm0 33.2h.7l-.4-.3-.3.3zm.6-66.6l-.1-.3.3-.6.1.4-.3.5zm.1 41.1l.1.3.3-.3-.1-.1-.3.1zm.7 16.6l-.7.8.7 1.4v-2.2zm-.3-66l-.3-.4.3-.4.1.4-.1.4zm0 5.6l-.3-.4.3-.4.1.4-.1.4zm.4 18.7c-.5.2-.7.7-.7 1.3h.6l2.5-2.3-1.7-.4c0 .6-.2 1.1-.7 1.4zm.7 29.8l-1.1-1-.3.6 1.4.4zm-.8-41.6l.6-.3-.6-.4-.3.4.3.3zm-.3 15.3l.1-.4-.1-.4.1.4-.1.4zm.3 27.8l-.3.3.3.4v-.7zm0 4.4l-.3-.3v.3h.3zm1.2 11.8l-1.2-1-.3.4c.5.3 1 .5 1.5.6zm-.1 11.8l-1.1-.4v.4h1.1zm-.4-64.9l.7-1c-.5.1-.7.4-.7 1zm0 43.7l.4-1-.4.7v.3zm.5 17.5c-.3-.5-.5-.7-.6-.8v.8h.6zm-.1-77.9v-1l-.3.6.3.4zm0 25.8l-.3-.4.3-.4.1.4-.1.4zm.3-18.8l.6-.6-.6-.6-.3.6.3.6zm0 4.2v-.7l-.3.7h.3zm-.3 35.4l.1.3.2-.3v-.1l-.3.1zm.3-46.6c.5 0 .7-.2.7-.6h-.1l-.6.6zm0 52.9l.4.3.3-.3-.4-.1-.3.1zm0 9.4h.7l-.4-.1-.3.1zm.7 8.7c-.3.1-.5.2-.7.3l1.4-.3v-.1c-.2 0-.5 0-.7.1zm0-70.2l.3-.4-.3-.4-.6.4.6.4zm.7 1.4l.6-.4-.6-.4-.3-.6-.3.6.6.8zm1.1 79h-1.7l1.7 1.4v-1.4zm-1.4-79.4c0-.2 0-.3.1-.3 0 .2 0 .3-.1.3zm1.1 72.7c-.4.5-.6.9-.6 1.4.6 0 1-.3 1.2-.8.3-.6.6-1 1-1.2h-.3c-.5-.1-1 .1-1.3.6zm1.8 5.1c1.1.2 1.8.3 2.1.3l.8-.7-2.1-.7.3-1.5-.8-.8-1.9 2.5c.1.4.6.7 1.6.9zm-1.3-3.1l.4.3.3-.3-.4-.1-.3.1zm2.1 4.2l-.7.6 1.1.4-.4-1zm1.4-5.5l.3-.4-.3-.4-.4.4.4.4zm.5 7.1l.3.3v-.4h-.1l-.2.1zm1.6-1.1c.1.4.3.6.7.6v-1l-1-.6c.1.2.2.5.3 1zm1.6-4.7l.3.3.6-.3-.4-.1-.5.1zm1.7 5.8c.4-.8.6-1.5.6-1.9 0-.8-.5-1.5-1.4-1.9l-.8.8.4 2.2-.4 1.5.4.6c.4 0 .8-.4 1.2-1.3zm1.1-3l-.6-.8v.4l.6.4zm1.3-2.8h-1.4l.7.7.7-.7zm.5 7.1l.3-.4-.3-.6-.3.6.3.4zm1.3-5.1h-1l.6.8.4-.8zm5.1 4.1c-.4-.9-.9-1.6-1.6-2.1-.7-.5-1.4-1-2.1-1.6v.4l2.9 3.4.8-.1zm-1.9-6.9l-.4-.6-.4 1.4.8-.8zm-.4 2.2l.3-.4-.3-.4-.3.4.3.4zm2.3-.8l.3-.4-.3-.6-.4.6.4.4zm1.8-3.7l-1.8.4.4.6 1.4-1zm-.9 5.5l.4-.4-.4-.6-.3.6.3.4zm0 3.3l.4-.4-.4-.6-.3.6.3.4zm2.3-2.2l-1-.7v1.5l1-.8zm-.4-3.9l.3-.4-.3-.6-.4.6.4.4zm.8 2.8l.4-.4-.4-.6-.3.6.3.4zm0 4.7l.4-.4-.4-.6-.3.6.3.4zm.6-5.7l.3-.4-.3-.4-.4.4.4.4zm.4 1.9l.1-.3c0-.1 0-.2-.1-.3l-.1.3.1.3zm1.8-.9h-.4l.4.4v-.4zm.5 1.4l.3-.4-.3-.6-.4.6.4.4zm1.1-4.3l-.7-.8v1.1l.7-.3zm-.2 4.3h-.4l.4.4v-.4zm1.7-1.3c-.3.2-.5.5-.5 1 .5 0 .8-.2 1-.5.2-.3.5-.6.8-.9l-.3-.1c-.3.1-.7.3-1 .5zm.2-4.7l.3-.4-.3-.6-.4.6.4.4zm1.2 6.6c.1.3.3.4.6.4v-1.1h-1c.2.2.3.5.4.7zm1.6-4.8c0-.5-.1-.7-.4-.8s-.6-.1-1-.1v1h1.4zm-.7 5.7c-.2.1-.3.2-.3.4h.1c.2 0 .5-.2.8-.6h-.1c-.2 0-.4.1-.5.2zm.4-3.2l.3.3v-.4h-.1l-.2.1zm2.5 3.6l.3.3.3-.3-.3-.3-.3.3zm51.3-56.2c1.7-2.2 3.6-4.7 5.8-7.5 2.2-2.8 4.4-5.7 6.8-8.8 2.4-3.1 4.6-5.9 6.7-8.4 2.1-2.5 3.8-4.6 5.3-6.3 1.5-1.7 2.4-2.5 2.9-2.5h19c.9 0 1.5.4 1.9 1.2.3.8.5 1.6.5 2.3 0 1.3-.8 3.1-2.3 5.3s-3.5 4.8-5.9 7.6c-2.4 2.8-5 5.7-7.7 8.8-2.8 3.1-5.3 6-7.7 8.7-2.4 2.7-4.4 5.2-5.9 7.4-1.6 2.2-2.3 3.8-2.3 4.8s.9 2.7 2.6 5c1.7 2.3 3.8 4.9 6.4 7.9 2.6 3 5.4 6.2 8.4 9.5 3 3.4 5.8 6.6 8.4 9.8 2.6 3.2 4.7 6 6.4 8.6 1.7 2.6 2.6 4.6 2.6 6.1 0 .7-.2 1.5-.7 2.3-.5.8-1.2 1.2-2.1 1.2h-20.4c-1.6-1.2-3.4-3-5.4-5.4-2-2.4-4.1-5.1-6.2-8.1-2.1-2.9-4.3-6-6.4-9.2-2.2-3.2-4.2-6.1-6-8.8-1.8-2.7-3.5-4.9-5-6.8-1.5-1.8-2.6-2.9-3.3-3.3l-.7.1v39l-2.5 2.3h-18.5l-2.3-2.8v-91l2.3-2.8h18.4l2.5 2.3v35.4l.8.1c.7-.3 1.9-1.7 3.6-4zm-23.6 51.5l.1.3.3-.3v-.1l-.4.1zm.4-78.5l.3.1.3-.6-.1-.1-.5.6zm1 42.9c-.2-.3-.5-.4-1-.4v.4h1zm9.5 43c.5.3 1 .5 1.6.5l1.4-2.2-1.1-1.8c0-.6.2-1.1.7-1.5.5-.5.7-1.1.7-1.9-.6 0-1.1.2-1.5.5-.5.3-1 .5-1.5.5.5-.2 1-.5 1.5-.9.6-.4.8-.9.8-1.4l-1.4-1.8c1.2 0 1.8-.6 1.8-1.8-.6 0-1 .1-1.4.4-.4.3-.7.6-1 1-.3.4-.6.7-.9 1-.3.3-.7.4-1.2.4l-.8-1 .7-1.4-1.2-1.8c-.3.1-.8.3-1.7.7-.8.4-1.7.8-2.6 1.2-.9.4-1.7.8-2.4 1.2-.7.4-1 .8-1 1h2.2l-.3 1.4.4.4.4-.1c-.2.5-.3 1-.3 1.5l-.1 1.7 1.4-.8 1.1.6-1.7 2.1.6.6 1.4-.9c.5-.3.7-.8.7-1.4l-.7-1.8 1.4.4c-.2 1.2-.1 2.2.2 3.1.3.9 1.1 1.5 2.3 2 .5-.2 1 0 1.5.3zm-9.5-14.3l-.4.4 1.1.6-.7-1zm0 2.1l-.4.3h.8v-.1l-.4-.2zm.7 8.9h-1.1v1c.7 0 1.1-.3 1.1-1zm-.7-78.4l1.1-.4-1.1-.6-.3.6.3.4zm3.1-2.8l-.4-.4c-.5.5-1 1.1-1.7 1.8s-1 1.4-1 2.1l1 .7c.8-1.4 1.6-2.8 2.1-4.2zm-2.7 9.6v-.3l-.4.3h.4zm-.4 5.3h1l-.6-.3-.4.3zm.4 21.2c.8 0 1.3-.4 1.4-1.3.1-.9.2-1.6.2-2.1l-2.1 3 .5.4zm0 12.9l-.4.4.4.4v-.8zm0-30l.3-.3-.3-.4-.1.4.1.3zm.5 13.4v-.6h-.6v.6h.6zm.4 37.8c.6.6 1.3 1 2.1 1 .6 0 1-.2 1.4-.5s.6-.8.6-1.3l-1-1.2v1.7h-2.3c0-.6-.1-1.1-.2-1.6s-.2-1-.2-1.6l1.2-1.2c-.5 0-1 .3-1.7 1-.6.7-1 1.3-1 1.7.2.7.5 1.4 1.1 2zm0-15.3l.3-.4-.3-.6-.3.6.3.4zm-.1 8.7l.3 1.9 1-2.6-.3-.1-1 .8zm.6-59.4c-.3.1-.5.4-.5.9h.4c.8 0 1.2-.4 1.2-1.1-.4 0-.8.1-1.1.2zm0 8.2l.7-.3h-1.2v.3h.5zm-.3 16.6l1.5-1.2-.3-.4-1.4 1.4.2.2zm.3-30l.3.3.4-.3-.4-.1-.3.1zm2 7.9l-.8-1-1.2 1.4 2-.4zm-1.4 4.1v-1l-.6.6.6.4zm-.5 32.9c.2.2.4.3.6.4v-.8c-.2 0-.4.2-.6.4zm.5 29.1v-1l-.6.6.6.4zm-.2-25.3l.3.3v-.4h-.2l-.1.1zm1.2-26.7h-.1c0-.4-.2-.6-.6-.6l-.3.4.7.3.3-.1zm-.7 18.7v-.4h-.3v.4h.3zm.4 11.1h-.7v.7c.3-.2.6-.5.7-.7zm-.4 24.9l-.3-.4h.3v.4zm1.1-18.3h-1.1v.3c.6-.1.9-.1 1.1-.3zm-.7-60.6l.7.4v-1l-.7-.4-.3.6.3.4zm-.2 12.4l.3.4-.3-.4.3-.6-.3.6zm.2 37.4l.2-.4-.1-.6-.3.6.2.4zm.4-45c-.3.5-.4 1-.4 1.4.8 0 1.3-.2 1.4-.6.1-.4.2-.9.2-1.7-.5.1-.9.4-1.2.9zm1 22.9l-1-.6h-.4v1.5l1.4-.9zm-1.2-27.7c0-.2.1-.4.4-.6l-.4.6zm.5 8.3v-1l-.6.6.6.4zm0 10.8v-2.1l-.6.6.6 1.5zm1.5 4.7c-.3.6-.8 1-1.4 1.2.6 0 1.3-.2 2-.5s1-.9 1-1.6c-.8 0-1.3.3-1.6.9zm-1.5 46.8v-1.1 1.1zm.3 1l1.1-.4-1.1-.6-.3.6.3.4zm0 14.8v-.6h-.3v.6h.3zm.6-45.7l1.2-.6-.7-.4-1.2 1h.7zm.8 17.4v-1l-1.4 1h1.4zm-1.4 9.8c.1.1.2.1.3.1l.1-.1v-.1l-.4.1zm.4-60.2l.6-.4-.6-.4-.3.4.3.4zm-.3 36.6l.3.4-.3-.4.3-.4-.3.4zm.2-27.5c1 0 1.5-.5 1.5-1.5h-.4l-1.1 1.5zm.1 33.2c-.1.2-.1.4-.1.6l.1.3.3-1.4-.3.5zm.7-13h-.7v.4l.7-.4zm-.7 28.4c.6 0 1-.2 1-.7-.7 0-1 .2-1 .7zm.7 21.8v-.4h-.7v.4h.7zm.7-53.9h-.7l.3.4.4-.4zm-.4 16.1l.3-.4-.3-.6-.3.6.3.4zm0 2.8l.1-.1c0-.2 0-.3-.1-.4l-.1.3.1.2zm.4-50.4l-.4-1v1h.4zm0 42.1l-.4-.6v.6h.4zm0 18.3h-.4v.4l.4-.4zm0 5.7l.6-.6-.6-.6-.3.6.3.6zm0 20.7l.6-.4-.6-.4-.3.4.3.4zm.7-78.8v-1.5h-.7v1.5h.7zm.6 6.4c-.7.8-1.1 1.5-1.3 2.3 1 0 1.8-.3 2.5-1 .6-.6 1-1.5 1-2.5-.8.1-1.5.4-2.2 1.2zm-1.3 15.1l.4.3.3-.3-.4-.1-.3.1zm.7 6.5v-.8h-.7v.8h.7zm.5-35.6h-.6v1c.5-.4.6-.7.6-1zm2 2.4c.2-.6.3-1.1.4-1.6-.5 0-.7.1-.8.3 0 .2-.2.5-.5.8h-.1l-.8-.6-.7.6 1.4 1.4c.5 0 .9-.3 1.1-.9zm-1.6 9.4l.7-.7-.3-1.4-1.4 1 .7 1.1h.3zm-.6 39.5l1.1-.4-1.1-.6-.3.6.3.4zm0 18.9l.3-.4-.3-.4-.3.4.3.4zm.9-11.1c.7.2 1.2.3 1.6.3 0-.6-.2-.9-.7-1-.5-.1-.9-.2-1.4-.2h-.6c0 .4.4.7 1.1.9zm-.9-39.8c.7-.2 1.4-.5 2.1-.8l1.8-1.2-.7-1.7-3.2 3.4v.3zm1.1 5.3h-1.1v.6c.4-.1.8-.3 1.1-.6zm1.3 53.1v1l-2.5-.6c.9 0 1.7-.1 2.5-.4zm-.4-12.8c-.2.2-.3.5-.5.8l-.4.8c-.1.3-.4.5-.8.6.7 0 1.4-.2 1.9-.7.5-.5.8-1.1.8-1.8-.5 0-.8.1-1 .3zm-.7-28.7c-.4.1-.6.4-.6.8h1.7v-1c-.3 0-.7.1-1.1.2zm0 46.6l.4 1.4-.8-.7c.1 0 .3-.3.4-.7zm0-51.3l.3-.4-.3-.6-.3.6.3.4zm0 19.3v-.4l-.3.4h.3zm.7 2.7l-.8-1-.1.1v.8h.9zm-.7 18.1l.3-.4-.3-.4-.3.4.3.4zm0-29.9v-.6l-.1.3.1.3zm1.1-42.6l-.7-1.2-.4 1.2 1.1.6v-.6zm.5 47.5l1-.8-1.5-1.4-1 .7 1.7 1.2-.2.3zm-1.1-4.1l.6-.4-.6-.4-.3.4.3.4zm0 9.3l.6.4.3-.4c-.1-.3-.4-.6-1-1l-.3.6.4.4zm.6-25.4v-.4h-.7v.4h.7zm.7 6l-.8-.6h-.6l1 .6h.4zm-1.3 42l.4.3.3-.3-.4-.1-.3.1zm.6-52.3l.3-.3-.3-.4-.6.4.6.3zm0 27.3l.3-.4-.3-.4-.6.4.6.4zm-.5 2.4l.4-.4c-.3-.1-.4.1-.4.4zm3.3-44.9c-.2-.5-.5-.8-1-1-.5-.2-.8-.5-1.1-.8l-.7 2.8 2.8-1zm-2.3 61.8l-.4-.3v.3h.4zm.4-71.6l-.1-.3-.4.4.5-.1zm.5 51.3c0-.6-.3-.8-1-.8l1 1v-.2zm-.5 7.5l1-.3-1.4-1.1v.3l.3 1.1h.1zm-.2 6.3c0 .2.1.5.1.8v-1.5h-.3c0 .2.1.4.2.7zm.7-51.1h-.7v.7l.7-.7zm0 25.9l.3-.4-.3-.4-.6.4.6.4zm1.4-7.3h-.7l-.7 1.8 1.4-1.8zm-1-19.1c-.1.1-.1.2 0 .3.1.1.2.1.3.1l.6-.3-.6-.4-.3-.7-.3.6.3.4zm0 42.5v-1l-.3.6.3.4zm0-42.5c0-.1 0-.1.1-.1.1.1 0 .1-.1.1zm1.4 12.2h-.3l-1.1 1.4 1.4-1.4zm-1.1 4.5l1.1-.4-1.1-.6-.3.6.3.4zm0-14.9l.4.3.3-.3-.4-.1-.3.1zm.7 7.6v-.7l-.7.7h.7zm.4-6.6v-1l-.3.6.3.4zm.3 35.2l.5-.4-.6-.6-.3.6.4.4zm0 7.7l-.3.7.3.3v-1zm0 25.9l.6-.4-.6-.6-.3.6.3.4zm1.1-5.1v-.4h-.4v.4h.4zm.3-32.2l.6-.4-.6-.6-.3.6.3.4zm1.1-4.2l.6-1-.3-.4-.3.7v.7zm.2-6.5l.3-.1-.3-.3-.1.1.1.3zm3.5 5.6l.4.3.6-.3-.6-.1-.4.1zm1.4-1.8v-.4h-.4v.4h.4zm2.3 2.2l-1 .6 1 .6v-1.2zm1.8 2.9l-1 .4c.4 0 .7-.2 1-.4zm-.4-7.9l.3-.4-.3-.6-.4.6.4.4zm.4 1.8c.1-.1.2-.1.2-.1s0 .1-.1.2l.3.4.4-.4c-.2-.3-.5-.6-.8-1l-.3.4.3.5zm.2-4.4l.3.3.3-.1-.3-.3h-.1l-.2.1zm0 4.4l.1-.4c-.1.1-.1.2-.1.4zm1.1 8.7l.6-1.2-.3-.1-1.1 1.1.8.8v-.6zm-.3-9.5h.8v-.6c-.5 0-.8.2-.8.6zm2.2 7.7l-.4 1 1 .6c-.2-.6-.4-1.2-.6-1.6zm1.4 5.8l-.8-.7-1 1.2.6 1.8 1.2-2.3zm-1.4-15.5l.4-.4-.4-.4-.3.4.3.4zm0 6.5l.4-.4-.4-.6-.3.6.3.4zm.5 6.5l-.6-.6v.6h.6zm2.8-3.7l-1.1-1.9-1.2 1.5.8-.1 1.5.5zm-1.9-13.8c.4-.2.7-.3 1-.5.3-.1.6 0 .9.5l-.4-1.4-1.5 1.2v.2zm.5 1.4h-.6l.6.4v-.4zm0 4.1l.3-.4-.3-.6-.4.6.4.4zm1.8 17.4c.2-.4.3-.7.4-1.1l-1.4.7-.8-.6.8 1.5c.5 0 .8-.2 1-.5zm-.4-6.4l.3-.4-.3-.6-.4.6.4.4zm2.1 3.3c.6-.4 1-.9 1-1.7-.6 0-1.3.2-2.1.5-.7.3-1.1.9-1.1 1.6l.6.8c.4-.4.9-.8 1.6-1.2zm.7 2.5v-.3c-.4.5-.8.8-1.4 1.1-.6.3-.9.7-.9 1.4l.4.7c1.2-.6 1.9-1.6 1.9-2.9zm-2-21.9l.3.3.3-.3-.3-.1-.3.1zm.4 16.1h1v-1c-.3.2-.6.5-1 1zm1-19.8l-.4-1.4-.4.6.8.8zm2.7 31c.7-.1 1-.6 1-1.7-.5 0-.8.2-1.1.6-.3.4-.6.6-1.1.6-.8 0-1.6-.2-2.3-.7v.7l1.5 1.2c.6-.3 1.3-.6 2-.7zm-2.7-15.3l.4-.4-.4-.6-.3.6.3.4zm.3-8.6l.3.3v-.4h-.1l-.2.1zm2-3.1c.7-.1 1.3.1 1.9.6l.1-.1-1-1.7-1.4.1v-.7l-1 .4c.3 1.1.7 1.6 1.4 1.4zm0 16.2l-1.4-.4v-.1l.4 1.1 1-.6zm-1.3 3.4l.1.2.3-.3-.1-.1-.3.2zm.9-13.8h-.6v.8c.2-.1.4-.4.6-.8zm0-14.1l.4-.7-.6.6.2.1zm.4-2.8l.3-.3-.3-.4-.3.4.3.3zm1.8 42.1l1-2.3-2.8 1.2v.1l1.8 1zm-1.3-10.2c-.1.6-.2 1.1-.2 1.5h.7l.4-2.5c-.4 0-.7.4-.9 1zm.5 12.7l1-.4-1-.6-.4.6.4.4zm.2-44.3l.3-.3-.3-.1v.4zm2.6 32.3v-.1c-.3.5-.6.8-1 1.1-.4.3-.8.5-1.3.7l1.3.6 1-2.3zm-2 4l.4-.4-.4-.6-.3.6.3.4zm0-34.1l.3-.1-.3-.3h-.1l.1.4zm.6-1.8l.3-.4-.3-.6-.4.6.4.4zm.4 41.8h-.4l.4.7v-.7zm4.1 8.6c1 .1 1.6.5 1.8 1.2.8-.6 1.5-1.3 1.9-2.2l-1-2.1-1 1.1 1 1.4-1 .6-2.2-.8v-1.5c-.6 0-1.3.1-2.3.3-1 .2-1.5.7-1.5 1.4h1.9v.4c.7 0 1.4.1 2.4.2zm-3.7-46.2h.6v-1c-.4.1-.6.4-.6 1zm.6 9.2l.3-.4-.3-.6-.4.6.4.4zm.4-14.1l.3-.3-.3-.4-.3.4.3.3zm2-7.3c.1-.6.2-1.1.2-1.5-.5 0-.9.2-1.2.5-.4.3-.7.7-1 1l.4.6.6-.1v.7c.5-.3.8-.6 1-1.2zm.3 6.2v-1l-2.3-1.7c0 1.9.8 2.7 2.3 2.7zm-.2 37.6l-1.1-1.2-1 1.4.4 1.4 1.7-1.6zm-2.1 7.4l.1.3.3-.3-.1-.1-.3.1zm.8-49.4h-.4v.7l.4-.7zm.8 46.2h-1.2v1.1l1.2-1.1zm-.8-39.3l.3.1.4-.3-.1-.1h-.1l-.5.3zm.2 45.3l.4-.7-.6.6.2.1zm1.3-3.1l-.6 1 1.7.6c-.1-.8-.5-1.3-1.1-1.6zm0-39.7l.3-.6-.3-.6-.4.6.4.6zm0 2.8l.3-.4-.3-.6-.4.6.4.4zm-.2 46.3l.3.3v-.4h-.1l-.2.1zm.6-59.1c-.4.8-.6 1.4-.6 2h.6l2.3-2.1-.7-1.1c-.6 0-1.2.4-1.6 1.2zm.5 46.3c-.1.6-.3 1.2-.5 1.7h.3c.6 0 1.1-.3 1.4-.9.3-.6.5-1.1.7-1.6l-.7-.1c-.6-.1-1 .2-1.2.9zm.5 6.5v-.3l-.6-.4v.3l.6.4zm.8-55.6h-.4v.3l.4-.3zm2.4 9.6l-.6-1 1.5-1.4v-.3c-.2-.1-.6-.3-1.2-.5s-1.1-.3-1.2-.3h-.8l-.4 1.4h1.8l-.8 2.1.8.4.9-.4zm-1.8 2.1l.3-.3-.3-.4-.4.4.4.3zm-.3 41.9l.3.3v-.4h-.1l-.2.1zm.6-3.5c-.3.3-.4.7-.4 1.2.5 0 .8-.2 1-.6.2-.4.4-.7.5-1.1-.5 0-.9.2-1.1.5zm2.4-55.8l-.6-.6c-.5 0-.9.4-1.3 1.1-.4.7-.7 1.3-.9 1.7l.6 1 2.2-3.2zm-1.3 4.6h-1l.4.4.6-.4zm.4 5.5l-.4-1.4c0 .2-.1.3-.3.2-.2 0-.3-.2-.3-.3l.1-.1-.4.7.8 1.7.5-.8zm7.6 66.7c.1.2.2.4.3.7 0 .3.1.6.2.8.1.3.3.5.6.6l.7-.8-.7-1.8 1.1-1.1h3.7l.4-.8c-.9-.9-1.6-1.8-1.9-2.8v-.4l-.6-.6 1.7-1.2-.8-.6c-.1.4-.3.6-.6.8-.3.1-.6.2-.9.2-.5 0-.9-.1-1.3-.4-.4-.3-.9-.4-1.3-.4 0 1.3-.5 2.2-1.5 2.6v-1.4l3.2-3.3v-.4l-1.1.4c-.7-.7-1.7-1.1-2.8-1.1l.7 2.2-.7.8c-.4-.4-.9-.9-1.5-1.4-.6-.6-1.2-.9-1.8-.9-.2 0-.2.1-.1.3.1.2.1.4-.1.6l-.6-.4.1-.4-.7.3-.1-.3 1.2-1.1-1.1-.8-2.8 4.1c.3.7.6 1.2 1 1.4.4.2.8.4 1.2.4l1.2.3c.4.2.6.6.8 1.4l-1.9.7 1.9 3.4 1.1-3-1.1-4-.3.1.3-.8c1.4 0 2.1.6 2.1 1.9 0 .3-.1.7-.3 1.2.6.2 1 .5 1.4.8.4.4.9.6 1.6.6.5 0 .8-.2 1-.7.2-.5.6-.7 1.2-.7s1 .1 1.2.2.4.5.4 1.2c-.8 0-1.5.3-2.1 1-.6.6-1.2 1-2.1 1l-1.4-1.5c-.5.5-.9.9-1.2 1.3-.4.4-.6.9-.6 1.6l1.7-.6.8.6v-.1c.8.1 1.1.2 1.2.3zm-8.6-69.5l.4-.4-.4-.6-.3.6.3.4zm0 55.1l.4-.6-.4-.6-.3.6.3.6zm0-4.2v.3l1.2-1.4c-.8 0-1.2.4-1.2 1.1zm0 14.2l.3.3.3-.3-.3-.1-.3.1zm1-11.4l.3-.6-.3-.6-.3.6.3.6zm1.8-57.4l-.6-.4-.8 1.7 1.4-1.3zm-1.3 58.2c-.1.2-.1.4-.1.7l1-.6-.4-.7c-.2.2-.4.4-.5.6zm1.6-52.1c.3-.1.5-.3.5-.6l-1.7.7.4.3c.2-.1.5-.2.8-.4zm-.5 49.9l.8-.4-.3-.3-.8.7h.3zm3.5-58.1c.4-.6.9-1.1 1.5-1.4l-.7-.1c-.7 0-1.4.4-2.1 1.1-.6.7-1.1 1.4-1.4 1.9l1.4.3c.5-.7.9-1.2 1.3-1.8zm2.5 4.9c0-.4-.1-.6-.4-.8l-.9-.5c-.3-.1-.6-.3-.9-.5s-.4-.5-.4-1c-.5.2-.9.5-1.4.8-.5.4-.8.8-1 1.2l4.4 1.7.6-.9zm-4.9.9c.1 0 .1 0 .1-.1s0-.1-.1-.1h-.1c0 .1.1.2.1.2zm1.1-8.2h-1.1l.4 1 .7-1zm-.6 13.5l.6-.4-.6-.6-.3.6.3.4zm1.1-3.2c.3-.3.7-.5 1.2-.7l-.3-1-2.1 2.1c.5 0 .9-.1 1.2-.4zm.9 53l-1.4.4-.7-.1.7 1.1 1.4-1.4zm-.7-62.9l.6-.4-.6-.4-.3.4.3.4zm0 8.2l.6-.3-.6-.4-.3.4.3.3zm0 51.5l.6-.4-.6-.6-.3.6.3.4zm1 6.3l-1-.8v.1l.8.8.2-.1zm0-70.6l.3-.4-.3-.6-.3.6.3.4zm1.4 0l-1.4 1.4v.3l.4.7c.7-.6 1-1.4 1-2.4zm-.3 6.5v-1l-.6.6.6.4zm0 2.2h.7v-1c-.5 0-.7.4-.7 1zm1.1-6.9c-.3.2-.4.5-.4.8v.1c.8 0 1.2-.5 1.2-1.5l-.8.6zm.3 3.3l-.7-.6v1l.7-.4zm2.1-6.1h-.1l-.6.6.7-.6zm-.3 1.4v-.8l-.3.4.3.4zm0-2.2l.3.4-.3-.4.3-.6-.3.6zm.3 76.2l.6-.4-.6-.6-.3.6.3.4zm0-70.2l.3-.1-.3-.3-.1.1.1.3zm1.1 1.3v-1l-.3.6.3.4zm.5-2.7c0-.3-.2-.6-.6-1v1h.6zm1.1 80l.8.6.6.6.7-.6-2.3-2.2-1.1.8 1 .7h.3zm-.7-9.4l.3-.4-.3-.4-.6.4.6.4zm.4 11.2v-1l-.3.6.3.4zm1-79.1l.3-.4-.3-.6-.6.6.6.4zm.4-3.7v-.8l-.3.4.3.4zm1-.4l.1.3.3-.3-.1-.1-.3.1zm1.4 79.9l1.4.4.4-.4-1.4-1-1.4.6v.8l1-.4zm31.1-87.8h18.6l1.8 2.3v91.9l-1.8 2.3h-18.6l-1.8-1.9v-92.6l1.8-2zm2.4 68l1.1-.6-1.1-.6-.3.6.3.6zm.4-6.2l.4-.3-.4-.4-.3.4.3.3zm0-10.5l.3.3.3-.3-.3-.3-.3.3zm.5-32.6l.3-.6-.3-.6-.4.6.4.6zm0 69.5l.3-.4-.3-.4-.4.4.4.4zm.5-60.9l.3-.6-.3-.6-.3.6.3.6zm0 27.2v-.4l-.1.1.1.3zm.4-42.1h-.4l.4.6v-.6zm.9 48l-.6-.4-.8.4h1.4zm-.9 4.9l.4-.6-.4-.6-.3.6.3.6zm2-54.6l-1.2-1.4.1-.4-1 .8 1.4 1.4.7-.4zm-1.1 56.6l.3-.3-.3-.4-.3.4.3.3zm1.1-47.4c0-.5-.2-.8-.7-1l-.4.4.4 1 .7-.4zm-.7 12.5l-.4-.6v.6h.4zm.1 15.2c.3.2.7.3 1.2.3 0-.8-.4-1.2-1.2-1.2h-.4c-.1.4.1.7.4.9zm.6 3.7h-1.1v.4l1.1-.4zm-.7-1.3l.6-.4-.6-.6-.3.6.3.4zm0-37l.3-.1-.3-.4-.1.3.1.2zm.7 41.5v-1l-.6.6.6.4zm-.2-14.1l.3.3v-.4h-.1l-.2.1zm1.2 21h-1.2l.6 1.1.6-1.1zm-.7-53.1l1.1-.4-1.1-.4-.3.4.3.4zm1.1 43.9v-.4h-1.1v.4h1.1zm0 6.5c-.2-.6-.5-1-.8-1h-.3v1h1.1zm-.7-39.8l.6-.4-.6-.6-.3.6.3.4zm.5-3.2c.1.1.3.2.5.2 0-.5-.3-.7-1-.7l.5.5zm-.1 58c.2.2.4.3.6.3l-.3-.4h-.1l-.2.1zm.7-42.4c-.2.3-.3.7-.4 1.2.5 0 .9-.1 1.2-.3.3-.2.5-.6.5-1l-.3-.3c-.5-.1-.8.1-1 .4zm.3 11.8v-.6h-.7v.6h.7zm-.5-15.3l.3-.3-.1-.1-.1.3v.1zm.1-14.8h1.1v-1c-.7 0-1.1.4-1.1 1zm.4 22.8l-.4.8 1.4-.6-.3-.8c-.3 0-.5.2-.7.6zm0 24.6h-.4v.7l.4-.7zm-.2 17.4c.1.3.4.5.9.5 0-.5-.4-1-1.1-1.5 0 .3.1.6.2 1zm-.1-53.8l1.7.6-.3-.6.3-.6-1.7.6zm.3 48.6l.6-.6-.6-.6-.3.6.3.6zm0-47.7l.4.3.3-.3-.4-.1-.3.1zm0 61.1h.7l-.4-.3-.3.3zm.7-77.1v-1l-.6.6.6.4zm.7.4v-.4h-.4v.4h.4zm0 5.2h-.4l.4.3v-.3zm-.4 45.5l.1.1.4-.3-.1-.3h-.1l-.3.5zm1.1-53.9l-.7-.6v.6h.7zm0 26.8l-.7 1c.4-.1.7-.4.7-1zm1.4 5.9l-.7-1.8-1.4 1.4 1.2.6.9-.2zm-2.1 16.1l1.4.6v-.6h-1.4zm2.3-37.1l-1.9-.8 1 1.7.9-.9zm-1.3-9.5l.3-.4-.3-.4-.3.4.3.4zm0 4.1h-.3l.3.6v-.6zm0 14.9l.3-.6-.3-.6-.3.6.3.6zm0 25.4l.3-.4-.3-.6-.3.6.3.4zm.4 14c-.2-.3-.4-.5-.7-.7 0 .4.2.7.7.7zm.7-55.1v-1h-1.1c0 .7.3 1 1.1 1zm-.7 34.6h-.4v.4l.4-.4zm2 22.1l-2.2-.3-.3.7.4.7 2.1-1.1zm-2-45.8l1.4.3-.1-.3.1-.4-1.4.4zm.7 54.2v-1.1h-.7c.1.6.4.9.7 1.1zm.2 1.8l-.3-.4v1l.3-.6zm0 10.6c.1-.1.2-.1.2-.1s0 .1-.1.2l.3.4.6-.4c-.3-.2-.6-.6-1-1.1l-.3.6.3.4zm0-75.7h.4c.2 0 .4-.1.8-.3.3-.2.5-.4.5-.7-.7 0-1.2.4-1.7 1zm.4 67.9l.6-.4-.6-.4-.3.4.3.4zm0-36.4l.3-.3-.3-.1-.1.1.1.3zm0 9.2l.3-.3-.3-.3-.1.3.1.3zm1.1 34.9c.8.1 1.3.1 1.4.1l-2.6-.4c0 .1.4.2 1.2.3zm-.4-73.8h-.7v.7l.7-.7zm.6 35.7c0-.7-.4-1.1-1.2-1.1-.1.8.4 1.1 1.2 1.1zm-.2-43v-.4l-.4.4h.4zm0 30.1h-.4l.4.4v-.4zm.3 4.5v-.4h-.7v.4h.7zm-.5 13.1l.3.3v-.4h-.1l-.2.1zm.5-36.3l.6-.3-.6-.4-.3.4.3.3zm.3 33.8c0-.3-.2-.6-.6-1v1h.6zm.4-41.1l.3-.4-.3-.6-.6.6.6.4zm0-5.9v-.6l-.3.3.3.3zm-.1 7.9l.3-.3-.1-.3-.3.3.1.3zm-.2 49.6l.3.3v-.7c-.2 0-.3.1-.3.4zm1-2.2l-.7-1v.7l.4.7.3-.4zm0-38.6l.6-.6-.6-.6-.3.6.3.6zm0 2.1v-.3l-.3.3h.3zm26.2-6.9v-16.2c0-.6.3-1.2 1-1.7.6-.5 1.2-.7 1.8-.7h61.4c.6 0 1.1.3 1.7 1s.9 1.3 1.1 1.7v15.3c-.2.4-.5 1-1 1.8s-.9 1.2-1.4 1.2h-19.3l-.8.6v73.5l-2.9 1.8h-16c-.6 0-1.3-.3-2.2-.9-.9-.6-1.4-1.2-1.4-1.9v-72.9h-20.1l-1.9-2.6zm6.5-6.9l-.6-.4v.8l.6-.4zm.8-3.8l.4-.4-.4-.4-.3.4.3.4zm.6 1.4h-.6v.6l.6-.6zm.7 2.8c-.5 0-.9.2-1.2.6l.6.4.6-1zm-.3-1.8v-.4l-.1.1.1.3zm1.4 1l.3-1h-.3l-.3.6.3.4zm.7 3.8c.4.3.7.5 1.1.7l-1.4-1.8h-.6c.2.5.5.8.9 1.1zm.5-7.8l-.3.3.1.3.3-.3v-.2l-.1-.1zm1.1 2l.3-.4-.3-.4-.4.4.4.4zm.2-3.1c.2.1.4.3.6.5v-1.1h-1c.1.3.2.5.4.6zm.6 7.3l.3-.1-.3-.3-.1.1.1.3zm1 1.9l.3-.4-.3-.6-.3.6.3.4zm.4-3.3l.4-.4-.4-.4-.3.4.3.4zm1-.8l.3-.4-.3-.6-.3.6.3.4zm.9-.6l.3-.4-.3-.4-.4.4.4.4zm.9-1.8v-.4h-.4v.4h.4zm3.7-3.3v-1.4l-1 .6 1 .8zm-.4 5.1l.3-.4-.3-.4-.4.4.4.4zm.4 1.9v-.6h-.4v.6h.4zm.4-2.7v-2l-.6 1.4.6.6zm3.7 3.6v-.8l-1 .8h1zm-.9 3.7h1v-1c-.7 0-1 .3-1 1zm1.6-10.1l.3-.4-.3-.6-.5.6.5.4zm2.8 6.9h-.7l-.3.3.3 1.1.7-1.4zm.4 73.8h-.3l-1.1 1c.6-.3 1-.6 1.4-1zm1.1-79.9l-2.2-.4v1l2.2-.6zm-1.1 46.7l-1.1.4.7.6.4-1zm-.4 6.9l.3-.4-.3-.4-.6.4.6.4zm.4-19.8l-.4-.6v.6h.4zm0 25.3h-.4l.4.6v-.6zm0 24.9v-.8l-.3.4.3.4zm0-72l.3.4-.3-.4.3-.4-.3.4zm.3 66.5l.6-.4-.6-.4-.3.4.3.4zm1.1-63.3l.1-.8-1.2.4.7 1.1.4-.7zm0 33.8l-.4-.4-.7 1 1.1-.6zm-1 17.7l1-1.1-1.1 1.1h.1zm.6-23.2l.3-.4-.3-.6-.6.6.6.4zm1.8 13.8l-2.1-.6.8 1 1.3-.4zm-2 26.2l.3.3.3-.1-.3-.1h-.3zm.6-70.5v-.6h-.4v.6h.4zm-.3 19.9l.6-.4-.1-.3-.6.7h.1zm-.1 28.1l.3.3.4-.3-.4-.1-.3.1zm.4-24.4v-1l-.3.6.3.4zm1.8 41.5l-2.1-.7c0 .5.1.9.4 1.3.3.4.4.9.4 1.3l2.2-.6.3.3v-.6l.7-1.8-1.8.7.3-.4c-.1-.1-.2-.3-.4-.6s-.3-.4-.4-.4l-.3.6.7.9zm-1.5-8.7l.6-.6-.6-.6-.3.6.3.6zm0 7.3l1.5-.4c-.4-.6-1-1-1.8-1.4v.4c0 .4.1.9.3 1.4zm0-78.5l.3-.3-.3-.3-.1.3.1.3zm0 31.9l.3-.6-.3-.6-.1.7.1.5zm1.1 4.6l-.4-.4-.7 1 1.1-.6zm-1.1 10.6h.7v-1c-.5.2-.7.5-.7 1zm.2 14.3c.2 0 .4 0 .6-.1.2-.1.3-.2.3-.4l-1.1.6h.2zm-.2 3.2l.3.1.4-.4-.3-.1-.4.4zm1.1-57.2l.3-.4-.3-.4-.3.4.3.4zm0 8.8l1.1-.4-1.1-.6-.3.6.3.4zm.2 4l-.3.3h.4v-.1l-.1-.2zm.3 7.6h-.6v1c.2-.2.4-.6.6-1zm-.5 14.2l.4.3.6-.3-.6-.1-.4.1zm.9 24l-1-.3v.3h1zm2.9 8l-3.9-.7v.7h3.9zm-3.7 5.5c0-.3 0-.5.1-.6l-.1.6zm0 4v.1l.3.4-.3-.5zm.8-16.7v-.4l-.6 1.4.6-1zm.8 3.3v-.3l-1.4.3h1.4zm-1.3 10.8l.3-.3.3.3-.4.1-.2-.1zm2.3 4.3l1.4.6c.2-.7.6-1.4 1.3-2 .7-.6 1.3-1.1 1.9-1.6 0-.3-.1-.4-.4-.5-.3 0-.6-.1-1-.1s-.7-.1-1-.3c-.3-.1-.4-.4-.4-.8l1.4-1.1-.6-.4v-.1l.6-.4v-.3l-2.2-.8-.3.8.3 1.2-1 1.4.4.4-1.4 1.4 1-.4v1.4l-1.8-1-.4.4.3.7-.3.3h1.2c.2.6.6 1 1 1.2zm-1.9-85.3l.3.3.3-.1-.3-.3-.3.1zm0 1l.3.4.3-.3-.3-.3-.3.2zm.5 61.9c.5 0 .8-.2 1-.6h-.6l-.8.6h.4zm0 13.2v-.3l-.4.3h.4zm0-40l.3-.4-.3-.6-.3.6.3.4zm-.2 43.1l.3.4-.3-.4.3-.6-.3.6zm2.6-67.3c-.3-.5-.7-.7-1.2-.7l-1.1.4v.3l2.8 1.4c-.1-.5-.2-1-.5-1.4zm-1.4 34.9h-.6l.6.4v-.4zm.8 7.8l-.8-.6h-.6v.6h1.4zm-.9 22.2c.1-.3.1-.5.1-.7l-.6 1.1c.2.1.4-.1.5-.4zm.1-36.1l.3-.4-.3-.4-.4.4.4.4zm0 37.5l.3-.4-.3-.6-.4.6.4.4zm2.9-56.3h-3.2l.7.7 2.5-.7zm-2.5 48.7h-.4v1.1l.4-1.1zm-.4 11.8l1.4-.6h.4l-1.8.6zm.1-54.1l.4-.3-.1-.1-.3.3v.1zm3.5-24l-3.2.4.4.6 2.8-1zm-2.2 40.1l-1-2.3.4 2.3h.6zm-.6 6.9h-.4l.4 1v-1zm.2 22l-.6.8h.3c.7 0 1.1-.4 1.1-1.2-.4-.1-.6.1-.8.4zm-.2-7.2l1.1-.4-1.1-.6-.3.6.3.4zm1.1 9.3c.6-.1.8-.4.8-.9l-.1.1-.6-.4.1-.1-1.7 1.5c.5 0 1-.1 1.5-.2zm-1.1 2.1l.4-.3-.4-.4-.3.4.3.3zm0-60.8l.1.3.4-.3-.3-.1-.2.1zm0 19.9l.1.3.4-.3-.3-.1-.2.1zm0 48.5l.6-.6v.6h-.6zm.6-20.7l.3-.6-.3-.6-.4.6.4.6zm0 3.1l.3-.4-.3-.6-.4.6.4.4zm-.2-58.2l.3.4.3-.3-.3-.1h-.3zm2.8 12.9l-2.6.3 3.2-.3c-.2-.2-.4-.2-.6 0zm-1.8 8.7l-.4-.7-.4.7.4.7.4-.7zm-.4 30.1v-.4l-.4.4h.4zm-.4 18.6l.3-.1.6.1h-.9zm.4-17.2l.3-.4-.3-.4-.3.4.3.4zm0 6.2l.3-.6-.3-.6-.3.6.3.6zm.4-34.2l.4-.4-.4-.6-.3.6.3.4zm.6-26.9l-.6-.4v1l.6-.6zm.1 75.7l-.7-.4 1-.4-.3.8zm-.1 3.3l.3-.4-.3-.6-.4.6.4.4zm-.3-83.5l.3.3v-.4h-.1l-.2.1zm1.1 14.7c.1-.2.1-.4.1-.6l-.6.3c-.2.1-.3.2-.4.4l.4.3c.3-.1.4-.3.5-.4zm-.4 25.3l1.1-.4-1.1-.6-.3.6.3.4zm0 26.3l.3-.3-.3-.4-.3.4.3.3zm0 8l.3-.6-.3-.6-.3.6.3.6zm.2-21.2l-.3.3.1.3.3-.3v-.1l-.1-.2zm.2 3.1l.4-.4-.4-.6-.3.6.3.4zm0 16.9l.4-.3-.4-.4-.3.4.3.3zm1-74.6h-1l.6.4.4-.4zm-1 67.8l.6-.7-.6.7zm.5 5.2l.4-.4-1 .4h.6zm.2-49.1l.3.7.3-.4c-.1-.3-.3-.6-.7-1l-.4.4.5.3zm-.3 41.6l.3.3.3-.1-.3-.3-.3.1zm.6-55.8c.5 0 .8-.2 1-.6.2-.4.3-.8.4-1.2l-.3-.1-1.5 1.9h.4zm0 3.7l.3-.4-.3-.6-.3.6.3.4zm-.3 10.5c0-.1 0-.1.1-.1s.1 0 .1-.1c-.2 0-.2.1-.2.2zm.3 15.9l.3-.4-.3-.6-.3.6.3.4zm0 39.7l.3-.4-.3-.6-.3.6.3.4zm0-65.3l.1.3c.3 0 .5-.2.6-.5.1-.3.2-.6.3-.8-.7.1-1 .4-1 1zm.9 17l-1 .7 1 .6v-1.3zm0 16.8h-.6v.4l.6-.4zm0 30.5l.3-.4-.3-.6-.4.6.4.4zm.8-74.7h-.4v.4l.4-.4zm.6-1.4l-.6-.6v.6h.6zm.4 3.6v-.8l-.3.4.3.4zm.4-8.3h-.4v.4l.4-.4zm1.4 6.5l.4-.4-.4-.6-.3.6.3.4zm1.9.9l-1.5-.6.7 1.4.8-.8zm-.8-2.6c.3.2.6.3.8.3v-1h-1.2c0 .3.1.5.4.7zm3.6 7.6l.3-.4-.3-.4-.4.4.4.4zm-.3-6.2l.3.3v-.4h-.1l-.2.1zm.7-1.5l-.4-.6v.6h.4zm1 1.4l.3-.4-.3-.6-.4.6.4.4zm.4 2.2h-.4l.4.6v-.6zm2.7-1.4c-.3.1-.5.4-.5.9.4 0 .7-.1 1-.3.3-.2.5-.5.5-.8v-.2c-.4.1-.7.3-1 .4zm2 2.6l-.1-.3-.8 1c.2-.1.5-.3.9-.7zm3.1-2.6l-1.9.6.6 1.4 1.3-2zm-1.3 4.7l.3-.4-.3-.6-.4.6.4.4zm2.7-.6l.1.3.3-.3-.1-.1-.3.1zm26.2 64.5c.7-1.5 1.5-3 2.4-4.6.9-1.5 1.9-2.9 2.8-4 1-1.2 1.9-1.7 2.7-1.7.6 0 1.7.4 3.1 1.2 1.4.8 3.1 1.7 5 2.7 1.9 1 4 1.9 6.2 2.7 2.3.8 4.6 1.2 7 1.2 2.3 0 4.4-.6 6.3-1.7 1.9-1.1 2.8-3 2.8-5.7 0-2.8-1-5.1-3-7s-4.5-3.7-7.4-5.4c-3-1.7-6.2-3.4-9.7-5.1-3.5-1.7-6.7-3.8-9.7-6.1-3-2.3-5.5-5.2-7.4-8.5-2-3.3-3-7.4-3-12.3 0-4.3.9-8.2 2.7-11.7 1.8-3.4 4.2-6.4 7.2-8.8 3-2.4 6.4-4.2 10.2-5.5 3.8-1.3 7.7-1.9 11.8-1.9 1.2 0 2.8.1 4.8.4s4.2.7 6.5 1.2c2.3.6 4.6 1.2 6.9 2.1 2.3.8 4.4 1.8 6.3 2.9 1.9 1.1 3.4 2.3 4.6 3.7 1.2 1.4 1.8 2.9 1.8 4.4-.5.7-1.1 1.8-2 3.3-.9 1.5-1.8 2.9-2.8 4.4-1 1.5-2.1 2.7-3.2 3.8-1.1 1.1-2.1 1.6-3 1.6-.4 0-1.2-.4-2.5-1.2-1.3-.8-2.9-1.7-4.8-2.8-1.9-1-4-1.9-6.4-2.8-2.4-.8-4.9-1.2-7.4-1.2-2.1 0-3.9.6-5.3 1.7s-2.1 2.8-2.1 5c0 2.3 1 4.3 3.1 6.1 2.1 1.7 4.7 3.4 7.8 5 3.1 1.6 6.5 3.3 10.1 5 3.6 1.7 7 3.9 10.1 6.3 3.1 2.5 5.7 5.5 7.8 9 2.1 3.5 3.1 7.7 3.1 12.7 0 4.4-.9 8.4-2.8 11.9s-4.4 6.6-7.4 9.2-6.6 4.6-10.5 5.9c-3.9 1.4-7.9 2.1-12.1 2.1-5.8 0-11.5-.9-17.2-2.7-5.7-1.8-10.6-4.9-14.8-9.3v-2.5c.1-.4.7-1.5 1.4-3zm3.9-60.8l.7.3.3-.3-.4-.1-.6.1zm.5 8.3l.3-.4-.3-.6-.4.6.4.4zm-.1-5.2c.5 0 .9-.1 1.4-.3.5-.2.8-.5.9-1l-.8.6v-1.1c-1 0-1.5.6-1.5 1.8zm.6 9.8l.3-.3-.3-.4-.3.4.3.3zm.9-2l-.1-1 .8.3.1-.8-1.5-1 .1-.4-.4.7.4 2.8.6-.6zm0 2.4l-1 .7 1 .6v-1.3zm-.1-13.1c.1-.2.1-.4.1-.6l-.6.8c.3.1.4 0 .5-.2zm1.3 12.6c.4.3.6.7.6 1.2l1-.4c-.2-.5-.3-.9-.3-1.3s-.1-.9-.2-1.3l-2.3 1.4c.3-.1.8.1 1.2.4zm-.8-7.8v.3l.6-.8-.1-.3c-.3.3-.5.5-.5.8zm1 10.4l-1-.4v.4h1zm1.4 46.2l-1.4-1-1 1.9 2.4-.9zm-1.9-42.5l.4-.4-.4-.6-.3.6.3.4zm0-12.4v.3l.8-.6c.3-.2.4-.5.4-1-.8 0-1.2.4-1.2 1.3zm.5 5.9l-.4-.6.4-.6.3.6-.3.6zm.8-17.1h-1l1 1.1v-1.1zm.7 3.5c.3-.7.5-1.4.7-2.1-.6.3-1 .7-1.4 1.4-.4.6-.7 1.2-1 1.8h.6v1c.5-.7.8-1.4 1.1-2.1zm-1.1 68.2l-.4-.7-.1.3.6.7v-.3zm.9-50.1c.4.5.6 1 .6 1.7l-.1.7 1-.4 1.4.4c.7-.4 1.5-.8 2.2-1.4.7-.6 1.4-1.1 1.9-1.8l-.6-.7c-.5.6-.9 1.2-1.3 1.9s-1 1.1-1.9 1.1c-.5 0-.8-.2-1.1-.5-.3-.3-.5-.7-.8-1.1-.2-.4-.5-.8-.8-1.1-.3-.3-.7-.5-1.2-.5.1.7.3 1.3.7 1.7zm2.8-15.3l-1-1.4.6-.8c-.1.1-.2 0-.3-.1-.1-.2-.2-.3-.1-.4l-2.5 2.8h.8c-.1.1-.1.3-.1.6s.1.4.2.4l.3-.4-.3-.6h2.4zm1.8-9.4c-.5.2-.9.5-1.2.9l.8-2.3-1-1.5v2.6c-.6 0-1.2.2-1.7.6-.5.4-1 .6-1.7.6l2.2 2.8c.5-.8.8-1.6 1.1-2.3h2.8v-2l-1.3.6zm-4.5 67.1l.1.3.3-.3-.1-.1-.3.1zm.4 6.2l.3-.4-.3-.6-.3.6.3.4zm.7-53.9l.7.3-.4-1.4-1 .6c.2.2.4.4.7.5zm.3 51.6v-.4h-1v.4h1zm0-2.5l1.4-1.4v-.3l-1.9 1 .7.6-.2.1zm1.3 7l-.6-1.1-.8 1.5v-.1l.8 1.1.6-1.4zm-.9-77.1l.3-.4-.3-.4-.3.4.3.4zm.5 8.8l1.8 1.1v-1.1l1.1 1.2-.7 1.5c.5-.4.8-.8 1.2-1.2l.9-1.3c-.5-.1-.8-.4-.9-.9-.1-.5-.2-.9-.2-1.3l.4-.4-.4-1 .7-1.5c-.7 0-1.5.5-2.3 1.6-.8 1.1-1.4 1.8-1.9 2.3h.1l.4.6-.2.4zm.9 9l-.6-.8-.4.3v1.4l1-.9zm-1 7l.3.2.3-.4h-.1l-.5.2zm0 4.9h.6l-.3-.3-.3.3zm.1 44.2c.1.4.4.6.8.6v-1.7h-1c.1.4.1.8.2 1.1zm.4-67.8l.3-.4-.3-.6-.4.6.4.4zm-.2 64.7h3l-.3-.3-2.7.3zm0 8.4l.3.3v-.5h-.1l-.2.2zm1.6-47.8c0-.2 0-.4-.1-.8 0-.3-.2-.5-.5-.6l-.6 1.4h1.2zm-.9-28.6c.1-.1.1-.2.1-.3 0 .1 0 .2-.1.3zm.9 16.5l-1-.4v.3l.4.8.6-.7zm-.9 57.8c.6-.2 1.2-.4 1.7-.6.5-.2 1-.6 1.4-1.2-1.2 0-2.2.6-3.1 1.8zm.4-63.7l.4-.4-.4-.6-.3.6.3.4zm0-5.1v-.8l.6.4-.6.4zm.5 6.5v-.3l-.6.3h.6zm-.1 10h.6v-.7c-.2.1-.4.4-.6.7zm.5-17.9l-.3-.4.3-.4.3.4-.3.4zm-.1 63.3c.1-.1.2-.1.2-.1s.1 0 .2-.1l-.3-.1-.1.3zm.1-56.8l.3.1.3-.3-.3-.3-.3.5zm.5 3.2v-.4l-.4.4h.4zm0 56.9l-.4-1v.3l.4.7zm-.2 5.3c-.2 0-.3.1-.3.3h.8l3.7.1-4.1-.1c.1-.2.1-.3-.1-.3zm1.4-56.7l-.7-.7-.6.7h1.3zm-.7 13.1l.3-.4-.3-.6-.4.6.4.4zm0 39.1l.3-.4-.3-.4-.4.4.4.4zm.4-41.5l1.5-1h-1.9v1h.4zm0-34.6l1.1-.5c.5-.2.7-.5.7-.9l-.6-.1-1.4 1 .2.5zm1.1 1.8l.6-1c-.4 0-.8.1-1.2.2-.4.1-.6.4-.6.9l1.1-.1-.4-.4.4-.4.3.4-.2.4zm1.3 28.7v.4c.7-.5 1.1-1.1 1.1-2 0-.9.2-1.6.7-2.3-1.2.5-2.1 1.1-2.8 2.1h1v.4l-2.3 2.3.7 1 1.6-1.9zm-1.3-23.9c.4.5.8.9 1.3 1.2l1.4-1.4h-1.4l.8-1.4.6.4.6-.8-1.5-1c.8-.2 1.7-.4 2.6-.6.9-.2 1.8-.3 2.7-.3v.4c.3-.2.6-.3 1-.4.4-.1.7-.2 1-.2.3 0 .6-.2.9-.3.3-.2.4-.5.4-1 0-.2-.1-.5-.3-.8l-2.1 1.4-.7-.4c-.6 0-1 .2-1.4.5-.4.3-.9.5-1.4.5l-1.2-1 .7-1.1-1.1-.7c-.3 0-.6.2-1 .7-.4.5-.7 1-1.1 1.7-.4.6-.7 1.3-.9 1.9-.2.6-.3 1-.3 1.3-.3.5-.1 1 .4 1.4zm-.7 18h1v-.7c-.2 0-.5.2-1 .7zm.6 4.9l-.6-.4v1l.6-.6zm.4 43.5h-1v.6c.3-.1.6-.3 1-.6zm-1 7.3h.1c.3 0 .4-.1.4-.4h-.1l-.4.4zm2.4 0l-1.8.6.7 1 1.1-1.6zm-1.4-70.6l.3-.4-.3-.6-.3.6.3.4zm.8 27.3l1-1.4-1.9-1v.7l.9 1.7zm-.4 37.6l1.2-.3-1.2-.4-.3.4.3.3zm1.9-41.8c.6-.4 1-.9 1-1.7l-.6-.7c0 .6-.3.9-.8 1.2-.6.2-1.1.4-1.5.6v1.1c.7.1 1.3-.1 1.9-.5zm-1.3 44.7l.3-.4-.3-.4-.4.4.4.4zm0-77.9v-.6l-.3.3.3.3zm.4 1.8l-.3-.4.3-.6.3.6-.3.4zm3.1 80.3l-1.4-1.4-1.9 2.5 1.5-1.1 1 1.4.8-1.4zm-3.1-84l.3.3.1-.3v-.2l-.4.2zm3.8 80.4l-3.9.8.4.6 3.5-1.4zm-2.9-.6l.3-.4-.3-.4-.4.4.4.4zm-.1 2.2l.3.6.4-.7-.3-.3-.4.4zm5.4-40.9l1.4.6-.7-1.5.7-1.4-.8-1.1c-.2-.4-.5-.7-.9-1l.7-1.2v-.4c-.6.7-1.4 1.3-2.3 1.8-.9.5-1.7 1.1-2.5 1.8l.8.6h1l.6.4.6-1.2c0-.6.2-1 .6-1.1l1.4 1.4c0 .7-.4 1.3-1.2 1.8-.8.5-1.6.8-2.2 1l2.1.6.7-1.1zm-3.1-5.1l-.4-.4-1 .7 1 .7.4-1zm-.8 40.9l.3-1.7-.3 1-.4.4.4.3zm.3-73.9l-.3.3.1.3.3-.3v-.2l-.1-.1zm1.5-1.1l-.1-.1-.8.6.7.4.2-.9zm.7 31.3h-1.7l1 2.3.7-2.3zm.4 49l-1.1-1.4-1 1 1 1.8 1.1-1.4zm-.7-3.8l.6-.4-.6-.4-.3.4.3.4zm0 5.6h.1l.6-.3v-.1h-.1c-.1-.1-.3.1-.6.4zm1 .9h-.3v.4l.3-.4zm0 1.4l.6-.4-.6-.6-.3.6.3.4zm3.2-3.6c.1 1.2.2 2.4.2 3.6.5-.6.9-1.1 1.4-1.6.5-.5 1.1-.9 1.7-1.2l1.5 2.3c.7 0 1.4-.2 1.9-.6.5-.4 1.1-.7 1.7-.8l-.6.8 1.9-.8c-.2-.5-.4-.9-.8-1.2s-.7-.6-1.2-.6v1.2h-.3l-.3-.7 1.7-1.7 1.2.6c0-.6-.1-1.1-.2-1.5-.1-.5-.5-.7-1.2-.8-.7.5-1.4 1-1.9 1.7-.6.7-1.2 1.4-1.8 2l-6.8-6.6-1.7 2.5 1.4 1-.3-.6.6-1 1.4.3c.3 1.3.4 2.5.5 3.7zm-2.1-80l-.4-.4v1l.4-.6zm0 84.6v-1l-.3.6.3.4zm.3-4.2l.7.4.2-.4-.3-.6-.7-.4-.3.6.4.4zm0 2.2l.6-.4-.6-.4-.3.4.3.4zm0-51.1l1.1-1c-.8 0-1.1.3-1.1 1zm.1 48.9c0-.2.1-.4.4-.6l-.4.6zm1 3.6v-.8l-.3.4.3.4zm1.1-43.8h-1.1v1.4c.7-.1 1.1-.5 1.1-1.4zm-.8 43l.6-.4-.6-.6-.3.6.3.4zm.5-86.1l.3.4.3-.3-.3-.1h-.3zm0 36l.3.4.3-.3-.3-.1h-.3zm.6-30.7v-.4h-.4v.4h.4zm.3 36.1c.2.6.6.8 1 .8 0-.6-.1-1.1-.3-1.5-.2-.5-.7-.7-1.3-.7.2.4.4.9.6 1.4zm-.1-2.5h-.3v.6l.3-.6zm2.1-36.4l-.7-1-1 1h1.7zm-.5 79.9c.3.2.5.5.5 1-.5 0-.8-.1-1.2-.3-.3-.2-.5-.5-.5-1 .5 0 .9.1 1.2.3zm3.8-45.7l-1.9.4v-2.2l-2.6.8 2.2 2.8 2.3-1.8zm-4-32.4l.6-.4-.6-.4-.3.4.3.4zm0 83.2v-1h-.3v1h.3zm4.8-44.4l-2.3-1.8-2.5 1.4v.6c.3-.1.7-.2 1.3-.4.6-.2 1-.2 1.3-.1v1.9c.9-.6 1.7-1.1 2.2-1.6zm-3.3 1.3c-.3-.5-.8-.7-1.5-.7l.8 1.2.7-.5zm-1.1 34.9l.3.3v-.4h-.1l-.2.1zm2.1-32.5c-.2-.3-.5-.4-1-.4v.4h1zm1 34.2l-1.4-.4-.6.4 1.4 1.4.6-1.4zm-1.4-40.7l.3-.4-.3-.4-.4.4.4.4zm-.3-35.4c0 .4.1.8.3 1.4.2-.6.5-1.1.8-1.5.4-.5.6-1 .6-1.7v-.6c-1.1.4-1.7 1.2-1.7 2.4zm.7 34.6l.3-.4-.3-.6-.3.6.3.4zm.4-37l.4-.4-.4-.6-.3.6.3.4zm1.4 77.1h-.8l.4.4.4-.4zm-.7-78.7l.3.3v-.5h-.1l-.2.2zm.7 39l.1.3.4-.3-.3-.1-.2.1zm.4-34.2l.3-.4-.1-.4-.3.4.1.4zm1.9 37.9h-1.4v1.8c.7-.5 1.2-1.1 1.4-1.8zm-1.2-2.6l.3.3v-.4h-.1l-.2.1zm1.2 46.5l1-1.4-.6-.6-1.1 1.1.7.9zm.4-39.9c.2.1.4.1.6.1l-.6-1-.4.4c.1.3.3.4.4.5zm0-46.9l.4-.4-.4-.6-.2.6.2.4zm.6 4.6l-.6-.4v.4h.6zm-.6 34.7c.6 0 1-.4 1-1.1-.6 0-1 .4-1 1.1zm1-36.5l-.4-.6v.6h.4zm0 38.7v-.6h-.4v.6h.4zm0 42l.3-.4-.3-.4-.3.4.3.4zm.4-39.8v-.4l-.4.4h.4zm.3 4.2c-.3-.3-.5-.4-.7-.4v.4h.7zm-.3-7.7l.4-.4-.4-.6-.3.6.3.4zm1.5 44l-.6-.7-1 .6 1.4.4.2-.3zm-.9 1.2l.3-.4-.3-.6-.4.6.4.4zm.8-35.2l-1-.6.6 1.1.4-.5zm-.4 29.7v-1h-.6c0 .4.2.7.6 1zm0-80.9l.3-.4-.3-.6-.3.6.3.4zm-.3 38.5l.3.3v-.4h-.1l-.2.1zm3.3 44.9c0 .2.1.3.1.4l.8-1.5c-.5 0-.9-.1-1.4-.3-.5-.2-1-.3-1.4-.3l1.8-1.7-1-1.5-2.1 4.8.4-.1 1.8 1.2.8-.4c-.2-.1-.3-.3-.2-.6 0-.3.1-.4.2-.4 0 .1.1.2.2.4zm-1.2-33.6l-.6-.7.1-.3-1.4.6v.4h1.9zm-.8-43.8h-.6l.6.6v-.6zm0-7.9l.3-.4-.3-.4-.4.4.4.4zm.8 5.1c-.2-.6-.5-1-.8-1.4l-.1.6.8.8h.1zm.5 40.7l-.6-1-.8 1h1.4zm-.9 34.2l-.4-.7v.7h.4zm0 7.7l.3-.4-.3-.4-.3.4.3.4zm.4-45.2l.4-.4-.4-.4-.3.4.3.4zm.5 10.2l.3-.4-.3-.6-.4.6.4.4zm0 36l.3-.4-.3-.6-.4.6.4.4zm.9-42.5l-1 2.8 1 1.9v-4.7zm0-43.3l-.8-.6v.6h.8zm0 74.4h-.8v1l.8-1zm-.9 8.6l2.2.4v-.4h-2.2zm.9-42l.4-.4-.4-.4-.3.4.3.4zm1.3-38.1c-.1.5-.6.7-1.3.7l2.1.6 1.2-.6-1-1.8c-.5.3-.9.7-1 1.1zm-.8 51.5v-.4l-.6.4h.6zm2.8 22.7l-1.2.1c-.5-.1-.9-.4-1.4-.8l-.7.7 1.4 1 1.9-1zm-2.4-33.8l.3-.4-.3-.6-.3.6.3.4zm0 13.8c.1-.1.2-.1.2-.1s0 .1-.1.2l.3.4.4-.4c-.2-.3-.5-.6-.8-1l-.3.4.3.5zm0 13.8l.1.3.3-.3-.1-.1-.3.1zm.4-62.2l.4-.4-.4-.6-.3.6.3.4zm-.2 48.4l.1-.4c-.1.1-.1.2-.1.4zm.8-50.7h-.6v1l.6-1zm-.6 38.3l.7-.3.1-.1h.1l-.9.4zm.8 28.7c-.2.3-.5.6-.8 1l1.9-1-.6-1.1c-.1.4-.3.8-.5 1.1zm.6 2.3v-.3l-1.1-.7h-.3l.6 1h.8zm-.8-10.7l.3-.4-.3-.6-.4.6.4.4zm.4-65.4v-.6l-.4 1.4c.3-.1.4-.3.4-.8zm.5 53.2c0-.4.1-.6.1-.8l-1 .6.4 1c.3-.2.4-.4.5-.8zm1.3 27.5l-1.4-1-.8 1 .4.4 1.8-.4zm-1.8-74.8v-.6l-.3.3.3.3zm0 41.5v-.6l-.3.3.3.3zm0 20.7v-.3h-.3l.3.3zm.3 14.8l.1.1.6-.6h-.1l-.6.5zm.1-27.6l.3.3.3-.3-.3-.1-.3.1zm.6-47.6l.3-.4-.3-.6-.4.6.4.4zm0 50.4l.3-.4-.3-.6-.4.6.4.4zm0 12.9l.3-.6-.3-.6-.4.6.4.6zm.1-70.2l1.7.4-.3-.4.3-.4-1.7.4zm.3 43.3l.3-.4-.3-.4-.3.4.3.4zm0 39.3l.3-.4-.3-.6-.3.6.3.4zm1.7-31.2c-.1-.9-.6-1.5-1.3-2l-.4 1 1.9 3.4c0-.7-.1-1.5-.2-2.4zm-1.7 26.1l.1.3.3-.3-.1-.1-.3.1zm.4-69.2l.4-.4-.4-.6-.3.6.3.4zm0 1.8l.4-.4-.4-.4-.3.4.3.4zm.2-6.3c-.1.5-.2.9-.2 1.3l1.9-1.9-.8-.1c-.5 0-.8.2-.9.7zm.9 39.5l-.6-.4-.6 1c.5 0 .8-.2 1.2-.6zm-.1 14.4l-1 .7 2.3 1.1-1.3-1.8zm-.4-51.7l.3-.4-.3-.4-.4.4.4.4zm0 50.3l.3-.4-.3-.6-.4.6.4.4zm0 18.3l.3 1.1-.3-1.8-.4.4.4.3zm1.3-65.9c-.2-.3-.5-.4-.8-.4h-.6v.4h1.4zm-.9 64.3v-.4l-.4.4h.4zm0 8.7c.1-.1.2-.1.2-.1s0 .1-.1.2l.3.4.4-.4c-.2-.3-.5-.6-.8-1l-.3.4.3.5zm0-75.7l.1.2.3-.3-.1-.1-.3.2zm1.3 68l-.4-.3-1 1.4.4.7 1-1.8zm-.9-6.9l.4-.6-.4-.6-.3.6.3.6zm-.3 14.6l.1-.4c-.1.1-.1.2-.1.4zm2.2-25.8l-.7-1.5c.2 0 .2-.1.1-.3-.1-.2-.2-.2-.4-.1l-1 1 .8 1.4 1.2-.5zm-.5 22.6l-.4-1.4-1 .7 1 1.1.4-.4zm-.5-30.5h-.4v1c.3-.1.4-.4.4-1zm0 23.2v-1.4h-.4v1.4h.4zm0 5.5l.3-.4-.3-.6-.3.6.3.4zm.5-74.3l1-.6h-.4l-1 .6h.4zm3 50.2c.4.4.9.6 1.7.6-.1-.4-.2-.8-.3-1.4-.1-.6-.4-.9-.9-.9l-1.5 1-1.9-1.4-.4.4 2.3 2.3 1-.6zm-2.1-44.7l1.1-2.3h.3l-.4-.4-1.9.8.8 1.9h.1zm-.4 55.3h-.6v.4l.6-.4zm0 4.6v-.4l-.6.4h.6zm-.3-10l.3.3v-.4h-.1l-.2.1zm1.1-49.1l-.8 1 1.4.7-.6-1.7zm.5 66.6c.1-.3.1-.7.1-1.2-.9 0-1.4.4-1.4 1.2l.4.7c.5-.2.8-.4.9-.7zm.5-13.9l-.4-1 .4-1h-1.5l1.4 1.9h.1zm-1.1 5.8l.4.3.3-.4-.3-.1-.4.2zm2.6-11.6l-1.5-.7-1 1 1 .8 1.5-1.1zm-1.1 13.5l-1.4 1.1 1 1 .4-2.1zm-.8-20.7c.6-.6 1.3-1.1 1.9-1.4h-.5c-1 .1-1.4.5-1.4 1.4zm1.9 27.6l1.5-1.5-1.7-1.2c0 .6-.1 1.3-.3 2-.2.7-.7 1-1.5 1v1c.8-.3 1.5-.7 2-1.3zm-1.8-3.8l.3-.3-.3-.1v.4zm4-66.7c-.3-.5-.6-.9-1-1.3s-.9-.6-1.5-.6l-.8.1c.8 1.2 1.9 1.8 3.3 1.8zm-1.9 2.4l-.4-1-1 1h1.4zm-1.1 51.6c.2 1.1.6 1.7 1.1 1.9l.6-1c0-.7-.1-1.4-.4-2-.3-.6-.8-1-1.5-1.2-.1.5 0 1.3.2 2.3zm.7 13.1l.3-.4-.3-.6-.3.6.3.4zm.4-26.5l.4-.4-.4-.4-.3.4.3.4zm.4 21.7l-.4-.4-.3.6.3.6.6.3.3-.4-.5-.7-.3.7v-.1l.3-.6zm-.4 7.5l-.3-.4.3-.6.4.6-.4.4zm1-20.4v-.4l-.4.4h.4zm0 11.5l.3-.3-.3-.4-.3.4.3.3zm0-2.3c.1.3.4.5.9.5 0-.4-.1-.7-.2-1-.1-.3-.4-.5-.9-.5 0 .3.1.7.2 1zm-.2 5.2l.3-.3-.1-.3-.1.3v.3zm.2-2l.3.3.1-.3-.2-.1-.2.1zm1.8 5.1l.9-1.2-.1-.3-2.2 2.1c.6 0 1.1-.2 1.4-.6zm-.9-20.2l.3-.4-.3-.6-.4.6.4.4zm0 5.1v-.6l-.3.3.3.3zm.4-5.1l.1.1.3-.4v-.1l-.1-.1-.3.5zm.5 3.7l.4-.4-.4-.6-.3.6.3.4zm1.2-49.4l-1.2-1.1c0 .7.4 1.1 1.2 1.1zm-.3 56.7l.4-.3-.4-1.1.4-1.4-.6-1-.8 1.5v.6l1 1.7zm1.4-4.6c0-.5-.1-1-.3-1.6-.2-.6-.6-.9-1.2-.9 0 1.1.5 1.9 1.5 2.5zm-.4 4.6l-.6 1.1.6.7v-1.8z" fill="#fff"/></svg>