<?xml version="1.0" encoding="utf-8"?>
<!-- Generator: Adobe Illustrator 17.1.0, SVG Export Plug-In . SVG Version: 6.00 Build 0)  -->
<!DOCTYPE svg PUBLIC "-//W3C//DTD SVG 1.1//EN" "http://www.w3.org/Graphics/SVG/1.1/DTD/svg11.dtd">
<svg version="1.1" id="Layer_1" xmlns="http://www.w3.org/2000/svg" xmlns:xlink="http://www.w3.org/1999/xlink" x="0px" y="0px"
	 width="17.8px" height="12.2px" viewBox="0 0 17.8 12.2" enable-background="new 0 0 17.8 12.2" xml:space="preserve">
<g>
	<path d="M6.3,9.8c0.3,0,0.6,0,0.8,0c0.2,0,0.3-0.1,0.4-0.1s0.2-0.2,0.2-0.4c0-0.2,0-0.4,0-0.8v-5c0-0.1-0.1-0.1-0.3-0.2
		C7.3,3.3,7.2,3.3,7,3.3c-0.2,0-0.3,0-0.5,0s-0.3,0-0.3,0L6.2,3.1L6.2,3c0.5,0,1-0.1,1.4-0.2c0.4-0.1,0.7-0.3,1-0.5
		C8.9,2.2,9.1,2,9.3,1.9c0.2-0.1,0.3-0.2,0.5-0.2l0.3,0l0.1,0.1c0,1.1,0,2.2,0,3.2s0,2.2,0,3.2c0,0.5,0,0.9,0.1,1.3
		c0.1,0.1,0.2,0.2,0.3,0.2s0.3,0,0.4,0h0.3l0.2-0.1l0.2,0.1l-0.1,0.3c-0.4-0.1-0.7-0.1-1.1-0.1c-0.4,0-0.7,0-1.1,0c-0.5,0-1,0-1.5,0
		s-1,0-1.5,0l-0.1-0.1L6.3,9.8z M7.8,9.7L7.8,9.7L7.8,9.7L7.8,9.7z M8,9.5L8,9.5v0.1V9.5z M8,9.7L8,9.7L8,9.7L8,9.7
		C8,9.7,8,9.7,8,9.7z M8.1,7.6L8.1,7.6L8.1,7.6L8.1,7.6z M8.1,9.3L8.1,9.3C8.1,9.3,8.1,9.3,8.1,9.3C8.1,9.3,8.2,9.3,8.1,9.3L8.1,9.3
		L8.1,9.3z M8.1,4.2l0.2,0l0,0L8.1,4.2z M8.2,5.9L8.2,5.9L8.2,5.9L8.2,5.9z M8.2,9.8L8.2,9.8L8.2,9.8L8.2,9.8z M8.2,4.7L8.2,4.7
		L8.2,4.7L8.2,4.7L8.2,4.7z M8.2,6.3L8.2,6.3L8.2,6.3L8.2,6.3z M8.2,8L8.2,8L8.2,8L8.2,8z M8.2,8.9L8.2,8.9L8.2,8.9L8.2,8.9z
		 M8.2,6.8L8.2,6.8L8.2,6.8L8.2,6.8L8.2,6.8z M8.3,3.6c0,0,0,0.1,0.1,0.1c0-0.1,0-0.1,0-0.1s0.1-0.1,0.1-0.1L8.4,3.3L8.2,3.5
		C8.2,3.5,8.2,3.6,8.3,3.6z M8.3,5.1c0,0-0.1,0-0.1,0.1L8.6,5L8.5,4.9l0,0L8.3,4.9L8.3,5.1C8.4,5,8.3,5.1,8.3,5.1z M8.3,6.6
		c0,0,0.1,0,0.1,0l0.1-0.2l-0.1,0L8.3,6.6C8.3,6.5,8.3,6.6,8.3,6.6z M8.4,9.7c0.1,0.1,0.1,0.1,0.1,0.2c0,0,0.1-0.1,0.1-0.2
		c0,0,0-0.1,0-0.1s0-0.1-0.1-0.1L8.2,9.6v0C8.3,9.6,8.4,9.7,8.4,9.7z M8.3,4.6L8.3,4.6L8.3,4.6L8.3,4.6z M8.3,5.7L8.3,5.7L8.3,5.7
		L8.3,5.7z M8.3,8.3L8.3,8.3L8.3,8.3L8.3,8.3z M8.3,9.9L8.3,9.9L8.3,9.9L8.3,9.9z M8.4,6.1L8.4,6.1L8.4,6.1L8.4,6.1z M8.3,9.1
		C8.3,9.1,8.4,9.2,8.3,9.1h0.3C8.5,9,8.5,9,8.5,9S8.4,8.9,8.4,8.8L8.3,8.9v0C8.3,9,8.3,9,8.3,9.1z M8.4,5.4L8.4,5.4L8.4,5.4L8.4,5.4
		z M8.3,6.3c0,0,0.1,0,0.1-0.1L8.3,6.3z M8.4,6.8L8.4,6.8L8.4,6.8L8.4,6.8z M8.6,4c0,0,0.1-0.1,0.1-0.1s0-0.1,0.1-0.1
		c0-0.1,0-0.1,0-0.1L8.6,3.6L8.4,3.9L8.6,4C8.5,4.1,8.5,4,8.6,4z M8.4,4.7L8.4,4.7L8.4,4.7L8.4,4.7L8.4,4.7z M8.5,4.5
		c0.1,0.1,0.1,0.1,0.2,0.1c0-0.1,0-0.2,0.1-0.3S8.8,4.1,8.9,4L8.9,4C8.8,4.2,8.6,4.3,8.4,4.3C8.4,4.3,8.4,4.4,8.5,4.5z M8.4,5.8
		L8.4,5.8L8.4,5.8L8.4,5.8z M8.4,7.5L8.4,7.5L8.4,7.5L8.4,7.5z M8.4,8L8.4,8L8.4,8L8.4,8L8.4,8z M8.4,8.2L8.4,8.2L8.4,8.2L8.4,8.2z
		 M8.4,6.2l0.2,0L8.4,6.2L8.4,6.2L8.4,6.2z M8.4,9.3L8.4,9.3L8.4,9.3L8.4,9.3L8.4,9.3z M8.5,8.6L8.5,8.6L8.5,8.6L8.5,8.6L8.5,8.6z
		 M8.5,8.4L8.5,8.4L8.5,8.4L8.5,8.4L8.5,8.4z M8.6,6.3L8.6,6.3L8.6,6.3L8.6,6.3L8.6,6.3z M8.6,6.7L8.6,6.7L8.6,6.7L8.6,6.7L8.6,6.7z
		 M8.6,8.2L8.6,8.2L8.6,8.2L8.6,8.2L8.6,8.2z M8.6,7.6L8.6,7.6L8.6,7.6L8.6,7.6L8.6,7.6z M8.8,5.2l0.1,0.1L9,5.2L8.9,5.1L9,4.9
		c0,0,0-0.1,0-0.1c0,0,0-0.1-0.1-0.1c0,0.1,0,0.2,0,0.2C8.8,5.1,8.8,5.1,8.8,5.2L8.6,5.1L8.6,5.3L8.8,5.2z M8.6,5.6L8.6,5.6L8.6,5.6
		L8.6,5.6L8.6,5.6z M8.6,8.9l0.1-0.1C8.6,8.8,8.6,8.8,8.6,8.9z M8.6,3.2c0,0,0,0.1,0,0.1L8.6,3.2l0-0.1h0C8.6,3.1,8.6,3.2,8.6,3.2z
		 M8.6,5.4L8.6,5.4L8.6,5.4L8.6,5.4L8.6,5.4z M8.6,5.9L8.6,5.9L8.6,5.9L8.6,5.9L8.6,5.9z M8.6,6.6L8.6,6.6L8.6,6.6L8.6,6.6L8.6,6.6z
		 M8.6,8.1L8.6,8.1L8.6,8.1L8.6,8.1L8.6,8.1z M8.6,8.9L8.6,8.9L8.6,8.9L8.6,8.9L8.6,8.9z M8.6,9.3L8.6,9.3L8.6,9.3L8.6,9.3L8.6,9.3z
		 M8.8,7.4L8.8,7.4H8.6H8.8z M8.6,7.9L8.6,7.9L8.6,7.9L8.6,7.9L8.6,7.9z M8.7,3.8L8.7,3.8L8.7,3.8L8.7,3.8L8.7,3.8z M8.7,4L8.7,4
		L8.7,4L8.7,4L8.7,4z M8.7,4.9L8.7,4.9L8.7,4.9L8.7,4.9L8.7,4.9z M8.7,6L8.7,6L8.7,6L8.7,6L8.7,6z M8.7,8.7l0.2,0c0,0,0,0,0,0
		s0,0,0,0L8.7,8.7z M8.9,6.8c0-0.1,0-0.1,0.1-0.1c0,0,0.1,0,0.1,0c0,0,0.1,0,0.1-0.1C9.2,6.5,9.1,6.6,9,6.6c-0.1,0-0.2,0.1-0.3,0.1
		l0.1,0.1L8.7,6.8L8.9,6.8L8.9,6.9C8.9,6.9,8.9,6.8,8.9,6.8z M8.8,5.7L8.8,5.7L8.8,5.7L8.8,5.7L8.8,5.7z M8.9,3.2
		c0,0-0.1,0.1-0.1,0.2L8.9,3.2C8.9,3.2,9,3.1,9,3.1C9,3.1,8.9,3.2,8.9,3.2z M8.8,6.5C8.9,6.5,8.9,6.6,8.8,6.5l0.2-0.1
		c0,0-0.1,0-0.1-0.1c0,0-0.1-0.1-0.1-0.1l0,0.1C8.8,6.4,8.8,6.5,8.8,6.5z M8.8,8.2L8.8,8.2L8.8,8.2L8.8,8.2L8.8,8.2z M8.8,9.9
		l0.1-0.1l0,0C8.8,9.8,8.8,9.8,8.8,9.9z M8.9,3.1L8.9,3.1L8.9,3.1L8.9,3.1L8.9,3.1z M8.9,3.6L8.9,3.6L8.9,3.6L8.9,3.6L8.9,3.6z
		 M8.8,7.1L8.8,7.1L8.8,7.1L8.8,7.1L8.8,7.1z M8.9,9.1L8.9,9.1L8.9,9.1L8.9,9.1L8.9,9.1z M8.8,8.3L8.8,8.3L8.8,8.3L8.8,8.3L8.8,8.3z
		 M8.9,2.9L8.9,2.9L8.9,2.9L8.9,2.9L8.9,2.9z M9,6L8.9,6C8.9,6,9,6,9,6z M8.9,3.5L8.9,3.5L8.9,3.5L8.9,3.5L8.9,3.5z M8.9,3.9l0.1,0
		L8.9,3.9L8.9,3.9L8.9,3.9z M8.9,4.3L8.9,4.3L8.9,4.3L8.9,4.3L8.9,4.3z M8.9,4.6L8.9,4.6L8.9,4.6L8.9,4.6L8.9,4.6z M8.9,6.7l0.2,0
		c0,0,0,0,0,0c0,0,0,0,0,0L8.9,6.7z M8.9,7.1L8.9,7.1L8.9,7.1L8.9,7.1L8.9,7.1z M8.9,7.8L8.9,7.8L8.9,7.8L8.9,7.8L8.9,7.8z M8.9,8.4
		L8.9,8.4L8.9,8.4L8.9,8.4L8.9,8.4z M8.9,3.6L8.9,3.6L8.9,3.6L8.9,3.6L8.9,3.6z M9,9.2C9,9.1,9,9.1,9,9.2L9,9.2C9,9.2,9,9.2,9,9.2z
		 M9.2,9.2c0,0-0.1,0-0.2,0s-0.1,0-0.1,0.1L9,9.4L9.2,9.2z M9,3.5L9,3.5L9,3.5L9,3.5L9,3.5z M9,4.7L9,4.7L9,4.7L9,4.7L9,4.7z
		 M9.1,6.1L9.1,6.1L9.1,6.1L9.1,6.1L9.1,6.1z M9.1,7L9.1,7L9.1,7L9.1,7L9.1,7z M9.1,7.6L9.1,7.6L9.1,7.6L9.1,7.6L9.1,7.6z M9.1,8.1
		L9.1,8.1L9.1,8.1L9.1,8.1L9.1,8.1z M9.1,8.4L9.1,8.4L9.1,8.4L9.1,8.4L9.1,8.4z M9.1,2.9L9.1,2.9L9.1,2.9z M9.1,3.3L9.1,3.3L9.1,3.3
		L9.1,3.3z M9.1,4.2C9.1,4.2,9.1,4.2,9.1,4.2L9.1,4.2L9.1,4.2z M9.2,7.9l0.1-0.1c0,0,0-0.1,0-0.1s0-0.1-0.1-0.1L9.1,7.7L9.2,7.9
		L9.2,7.9z M9.1,9.6L9.1,9.6L9.1,9.6L9.1,9.6z M9.1,5.9L9.1,5.9L9.1,5.9L9.1,5.9L9.1,5.9z M9.1,6.3L9.1,6.3L9.1,6.3L9.1,6.3L9.1,6.3
		z M9.2,3.7c0,0,0.1,0,0.2,0c0.1,0,0.1,0,0.2,0c0,0,0.1,0.1,0.1,0.1c0,0,0,0,0,0.1c0-0.1,0.1-0.1,0.1-0.2c0,0,0-0.1,0-0.1
		c0,0-0.1,0-0.1,0c0,0-0.1,0-0.1,0c0,0,0,0,0-0.1l0.1-0.1c-0.1,0-0.1,0-0.2,0.1C9.2,3.5,9.1,3.6,9.2,3.7C9.1,3.7,9.2,3.7,9.2,3.7z
		 M9.3,9.9L9.3,9.9L9.1,9.8C9.2,9.8,9.2,9.9,9.3,9.9z M9.2,2.6l0.2,0c0,0,0,0,0,0c0,0,0,0,0,0L9.2,2.6z M9.2,5.2L9.2,5.2L9.2,5.2
		L9.2,5.2L9.2,5.2z M9.2,7.3L9.2,7.3L9.2,7.3L9.2,7.3L9.2,7.3z M9.3,5.6H9.2v0.1L9.3,5.6z M9.2,6.8L9.2,6.8L9.2,6.8L9.2,6.8L9.2,6.8
		z M9.3,8.9L9.3,8.9L9.3,8.9L9.3,8.9z M9.2,9.5c0,0.1,0,0.1,0,0.1C9.2,9.6,9.3,9.6,9.2,9.5c0.1,0,0.1,0,0.1-0.1L9.2,9.5
		C9.3,9.4,9.2,9.5,9.2,9.5z M9.3,3L9.3,3L9.3,3L9.3,3L9.3,3z M9.3,3.3L9.3,3.3L9.3,3.3L9.3,3.3L9.3,3.3z M9.3,4.2L9.3,4.2L9.3,4.2
		L9.3,4.2L9.3,4.2z M9.4,4.7c0,0,0.1,0,0.1,0s0.1-0.1,0.1-0.1L9.4,4.7L9.4,4.7z M9.3,5.8C9.3,5.8,9.3,5.8,9.3,5.8
		C9.3,5.8,9.3,5.8,9.3,5.8L9.3,5.8L9.3,5.8L9.3,5.8z M9.3,6.3c0,0,0.1,0,0.1,0L9.3,6.2L9.3,6.3C9.3,6.2,9.3,6.3,9.3,6.3z M9.3,7.6
		L9.3,7.6L9.3,7.6L9.3,7.6L9.3,7.6z M9.3,8.6L9.3,8.6L9.3,8.6L9.3,8.6L9.3,8.6z M9.3,9.7L9.3,9.7L9.3,9.7L9.3,9.7L9.3,9.7z M9.3,5
		l0.2-0.1l0,0L9.3,5z M9.5,4.2c0-0.1,0-0.1,0.1-0.1C9.5,4.1,9.5,4.1,9.5,4.2c-0.1,0-0.1,0-0.1,0.1l0.1,0.1C9.5,4.3,9.5,4.3,9.5,4.2z
		 M9.3,8.4L9.3,8.4L9.3,8.4L9.3,8.4L9.3,8.4z M9.4,9.2L9.4,9.2L9.4,9.2L9.4,9.2z M9.4,5.2L9.4,5.2L9.4,5.2L9.4,5.2z M9.6,7.1
		l0.1-0.2L9.6,7L9.4,6.9C9.4,7,9.5,7.1,9.6,7.1z M9.8,9.7L9.8,9.7h0.1c0,0,0,0,0-0.1s-0.1,0-0.1-0.1c0,0-0.1,0-0.1-0.1s0-0.1,0-0.1
		h0L9.5,9.5l0.1,0.1L9.4,9.9L9.8,9.7z M9.5,3.3L9.5,3.3L9.5,3.3L9.5,3.3z M9.5,5.1L9.5,5.1L9.5,5.1L9.5,5.1z M9.5,7.5l0.2,0L9.5,7.5
		L9.5,7.5L9.5,7.5z M9.5,8.6L9.5,8.6L9.5,8.6L9.5,8.6z M9.6,2.8L9.6,2.8L9.6,2.8L9.6,2.8z M9.5,3.5l0.2,0l0,0L9.5,3.5z M9.6,6.1
		L9.6,6.1L9.6,6.1L9.6,6.1z M9.6,6.2L9.6,6.2L9.6,6.2L9.6,6.2z M9.6,9.2L9.6,9.2L9.6,9.2L9.6,9.2z M9.6,5.8L9.6,5.8L9.6,5.8L9.6,5.8
		z M9.6,6.5L9.6,6.5L9.6,6.5L9.6,6.5L9.6,6.5z M9.7,8.5L9.6,8.6C9.7,8.6,9.7,8.5,9.7,8.5z M9.6,2.3L9.6,2.3L9.6,2.3L9.6,2.3z
		 M9.6,2.5L9.6,2.5L9.6,2.5L9.6,2.5z M9.6,4.8L9.6,4.8L9.6,4.8L9.6,4.8z M9.6,5.1L9.6,5.1L9.6,5.1L9.6,5.1z M9.6,7.3L9.6,7.3
		L9.6,7.3L9.6,7.3z M9.6,7.4L9.6,7.4L9.6,7.4L9.6,7.4z M9.6,9.1L9.6,9.1L9.6,9.1L9.6,9.1z M9.7,7.5L9.7,7.5L9.7,7.5L9.7,7.5z
		 M9.7,4.1L9.7,4.1L9.7,4.1L9.7,4.1z M9.7,4.2L9.7,4.2L9.7,4.2L9.7,4.2z M9.7,9.3L9.7,9.3L9.7,9.3L9.7,9.3z M9.7,8.7L9.7,8.7
		L9.7,8.7L9.7,8.7L9.7,8.7z M9.9,9.5L9.9,9.5L9.9,9.5L9.9,9.5z"/>
</g>
</svg>
