<?xml version="1.0" encoding="utf-8"?>
<!-- Generator: Adobe Illustrator 17.1.0, SVG Export Plug-In . SVG Version: 6.00 Build 0)  -->
<!DOCTYPE svg PUBLIC "-//W3C//DTD SVG 1.1//EN" "http://www.w3.org/Graphics/SVG/1.1/DTD/svg11.dtd">
<svg version="1.1" id="Layer_1" xmlns="http://www.w3.org/2000/svg" xmlns:xlink="http://www.w3.org/1999/xlink" x="0px" y="0px"
	 width="17.8px" height="12.2px" viewBox="0 0 17.8 12.2" enable-background="new 0 0 17.8 12.2" xml:space="preserve">
<g>
	<path d="M2,9.8c0.3,0,0.6,0,0.8,0c0.2,0,0.3-0.1,0.4-0.1s0.2-0.2,0.2-0.4c0-0.2,0-0.4,0-0.8v-5c0-0.1-0.1-0.1-0.3-0.2
		c-0.1,0-0.3-0.1-0.4-0.1c-0.2,0-0.3,0-0.5,0s-0.3,0-0.3,0L1.9,3.1L2,3c0.5,0,1-0.1,1.4-0.2s0.7-0.3,1-0.5C4.7,2.2,4.9,2,5.1,1.9
		c0.2-0.1,0.3-0.2,0.5-0.2l0.3,0l0.1,0.1c0,1.1,0,2.2,0,3.2s0,2.2,0,3.2c0,0.5,0,0.9,0.1,1.3C6,9.8,6.1,9.9,6.3,9.9s0.3,0,0.4,0H7
		l0.2-0.1l0.2,0.1l-0.1,0.3c-0.4-0.1-0.7-0.1-1.1-0.1c-0.4,0-0.7,0-1.1,0c-0.5,0-1,0-1.5,0s-1,0-1.5,0L2,10.1L2,9.8z M3.6,9.7
		L3.6,9.7L3.6,9.7L3.6,9.7z M3.7,9.5L3.7,9.5v0.1V9.5z M3.7,9.7L3.7,9.7L3.7,9.7L3.7,9.7C3.8,9.7,3.7,9.7,3.7,9.7z M3.8,7.6L3.8,7.6
		L3.8,7.6L3.8,7.6z M3.8,9.3L3.8,9.3C3.9,9.3,3.9,9.3,3.8,9.3C3.9,9.3,3.9,9.3,3.8,9.3L3.8,9.3L3.8,9.3z M3.9,4.2l0.2,0l0,0L3.9,4.2
		z M3.9,5.9L3.9,5.9L3.9,5.9L3.9,5.9z M3.9,9.8L3.9,9.8L3.9,9.8L3.9,9.8z M3.9,4.7L3.9,4.7L3.9,4.7L3.9,4.7L3.9,4.7z M4,6.3L4,6.3
		L4,6.3L4,6.3z M4,8L4,8L4,8L4,8z M4,8.9L4,8.9L4,8.9L4,8.9z M4,6.8L4,6.8L4,6.8L4,6.8L4,6.8z M4,3.6c0,0,0,0.1,0.1,0.1
		c0-0.1,0-0.1,0-0.1s0.1-0.1,0.1-0.1L4.1,3.3L4,3.5C4,3.5,4,3.6,4,3.6z M4.1,5.1c0,0-0.1,0-0.1,0.1L4.3,5L4.3,4.9l0,0L4.1,4.9
		L4.1,5.1C4.1,5,4.1,5.1,4.1,5.1z M4.1,6.6c0,0,0.1,0,0.1,0l0.1-0.2l-0.1,0L4.1,6.6C4,6.5,4,6.6,4.1,6.6z M4.2,9.7
		c0.1,0.1,0.1,0.1,0.1,0.2c0,0,0.1-0.1,0.1-0.2c0,0,0-0.1,0-0.1s0-0.1-0.1-0.1L4,9.6v0C4.1,9.6,4.1,9.7,4.2,9.7z M4.1,4.6L4.1,4.6
		L4.1,4.6L4.1,4.6z M4.1,5.7L4.1,5.7L4.1,5.7L4.1,5.7z M4,8.3L4,8.3L4,8.3L4,8.3z M4.1,9.9L4.1,9.9L4.1,9.9L4.1,9.9z M4.1,6.1
		L4.1,6.1L4.1,6.1L4.1,6.1z M4.1,9.1C4.1,9.1,4.1,9.2,4.1,9.1h0.3C4.3,9,4.2,9,4.2,9S4.1,8.9,4.1,8.8L4.1,8.9v0C4.1,9,4.1,9,4.1,9.1
		z M4.1,5.4L4.1,5.4L4.1,5.4L4.1,5.4z M4.1,6.3c0,0,0.1,0,0.1-0.1L4.1,6.3z M4.1,6.8L4.1,6.8L4.1,6.8L4.1,6.8z M4.3,4
		c0,0,0.1-0.1,0.1-0.1s0-0.1,0.1-0.1c0-0.1,0-0.1,0-0.1L4.3,3.6L4.1,3.9L4.3,4C4.2,4.1,4.3,4,4.3,4z M4.1,4.7L4.1,4.7L4.1,4.7
		L4.1,4.7L4.1,4.7z M4.2,4.5c0.1,0.1,0.1,0.1,0.2,0.1c0-0.1,0-0.2,0.1-0.3S4.6,4.1,4.7,4L4.6,4C4.5,4.2,4.4,4.3,4.1,4.3
		C4.1,4.3,4.2,4.4,4.2,4.5z M4.2,5.8L4.2,5.8L4.2,5.8L4.2,5.8z M4.2,7.5L4.2,7.5L4.2,7.5L4.2,7.5z M4.2,8L4.2,8L4.2,8L4.2,8L4.2,8z
		 M4.2,8.2L4.2,8.2L4.2,8.2L4.2,8.2z M4.2,6.2l0.2,0L4.2,6.2L4.2,6.2L4.2,6.2z M4.2,9.3L4.2,9.3L4.2,9.3L4.2,9.3L4.2,9.3z M4.3,8.6
		L4.3,8.6L4.3,8.6L4.3,8.6L4.3,8.6z M4.3,8.4L4.3,8.4L4.3,8.4L4.3,8.4L4.3,8.4z M4.3,6.3L4.3,6.3L4.3,6.3L4.3,6.3L4.3,6.3z M4.3,6.7
		L4.3,6.7L4.3,6.7L4.3,6.7L4.3,6.7z M4.3,8.2L4.3,8.2L4.3,8.2L4.3,8.2L4.3,8.2z M4.3,7.6L4.3,7.6L4.3,7.6L4.3,7.6L4.3,7.6z M4.6,5.2
		l0.1,0.1l0.1-0.1L4.7,5.1l0.1-0.2c0,0,0-0.1,0-0.1c0,0,0-0.1-0.1-0.1c0,0.1,0,0.2,0,0.2C4.6,5.1,4.5,5.1,4.6,5.2L4.4,5.1L4.3,5.3
		L4.6,5.2z M4.3,5.6L4.3,5.6L4.3,5.6L4.3,5.6L4.3,5.6z M4.3,8.9l0.1-0.1C4.4,8.8,4.3,8.8,4.3,8.9z M4.4,3.2c0,0,0,0.1,0,0.1L4.4,3.2
		l0-0.1h0C4.4,3.1,4.4,3.2,4.4,3.2z M4.4,5.4L4.4,5.4L4.4,5.4L4.4,5.4L4.4,5.4z M4.4,5.9L4.4,5.9L4.4,5.9L4.4,5.9L4.4,5.9z M4.4,6.6
		L4.4,6.6L4.4,6.6L4.4,6.6L4.4,6.6z M4.4,8.1L4.4,8.1L4.4,8.1L4.4,8.1L4.4,8.1z M4.4,8.9L4.4,8.9L4.4,8.9L4.4,8.9L4.4,8.9z M4.4,9.3
		L4.4,9.3L4.4,9.3L4.4,9.3L4.4,9.3z M4.5,7.4L4.5,7.4H4.4H4.5z M4.4,7.9L4.4,7.9L4.4,7.9L4.4,7.9L4.4,7.9z M4.4,3.8L4.4,3.8L4.4,3.8
		L4.4,3.8L4.4,3.8z M4.5,4L4.5,4L4.5,4L4.5,4L4.5,4z M4.5,4.9L4.5,4.9L4.5,4.9L4.5,4.9L4.5,4.9z M4.5,6L4.5,6L4.5,6L4.5,6L4.5,6z
		 M4.4,8.7l0.2,0c0,0,0,0,0,0s0,0,0,0L4.4,8.7z M4.7,6.8c0-0.1,0-0.1,0.1-0.1c0,0,0.1,0,0.1,0c0,0,0.1,0,0.1-0.1
		c-0.1,0-0.2,0.1-0.3,0.1c-0.1,0-0.2,0.1-0.3,0.1l0.1,0.1L4.5,6.8L4.7,6.8L4.6,6.9C4.7,6.9,4.7,6.8,4.7,6.8z M4.5,5.7L4.5,5.7
		L4.5,5.7L4.5,5.7L4.5,5.7z M4.6,3.2c0,0-0.1,0.1-0.1,0.2L4.6,3.2c0.1,0,0.1-0.1,0.1-0.1C4.7,3.1,4.7,3.2,4.6,3.2z M4.6,6.5
		C4.6,6.5,4.6,6.6,4.6,6.5l0.2-0.1c0,0-0.1,0-0.1-0.1c0,0-0.1-0.1-0.1-0.1l0,0.1C4.5,6.4,4.6,6.5,4.6,6.5z M4.5,8.2L4.5,8.2L4.5,8.2
		L4.5,8.2L4.5,8.2z M4.5,9.9l0.1-0.1l0,0C4.6,9.8,4.6,9.8,4.5,9.9z M4.6,3.1L4.6,3.1L4.6,3.1L4.6,3.1L4.6,3.1z M4.6,3.6L4.6,3.6
		L4.6,3.6L4.6,3.6L4.6,3.6z M4.6,7.1L4.6,7.1L4.6,7.1L4.6,7.1L4.6,7.1z M4.6,9.1L4.6,9.1L4.6,9.1L4.6,9.1L4.6,9.1z M4.6,8.3L4.6,8.3
		L4.6,8.3L4.6,8.3L4.6,8.3z M4.6,2.9L4.6,2.9L4.6,2.9L4.6,2.9L4.6,2.9z M4.7,6L4.6,6C4.7,6,4.7,6,4.7,6z M4.7,3.5L4.7,3.5L4.7,3.5
		L4.7,3.5L4.7,3.5z M4.7,3.9l0.1,0L4.7,3.9L4.7,3.9L4.7,3.9z M4.6,4.3L4.6,4.3L4.6,4.3L4.6,4.3L4.6,4.3z M4.7,4.6L4.7,4.6L4.7,4.6
		L4.7,4.6L4.7,4.6z M4.6,6.7l0.2,0c0,0,0,0,0,0c0,0,0,0,0,0L4.6,6.7z M4.6,7.1L4.6,7.1L4.6,7.1L4.6,7.1L4.6,7.1z M4.7,7.8L4.7,7.8
		L4.7,7.8L4.7,7.8L4.7,7.8z M4.7,8.4L4.7,8.4L4.7,8.4L4.7,8.4L4.7,8.4z M4.7,3.6L4.7,3.6L4.7,3.6L4.7,3.6L4.7,3.6z M4.7,9.2
		C4.7,9.1,4.8,9.1,4.7,9.2L4.7,9.2C4.7,9.2,4.7,9.2,4.7,9.2z M4.9,9.2c0,0-0.1,0-0.2,0s-0.1,0-0.1,0.1l0.1,0.1L4.9,9.2z M4.7,3.5
		L4.7,3.5L4.7,3.5L4.7,3.5L4.7,3.5z M4.8,4.7L4.8,4.7L4.8,4.7L4.8,4.7L4.8,4.7z M4.8,6.1L4.8,6.1L4.8,6.1L4.8,6.1L4.8,6.1z M4.8,7
		L4.8,7L4.8,7L4.8,7L4.8,7z M4.8,7.6L4.8,7.6L4.8,7.6L4.8,7.6L4.8,7.6z M4.8,8.1L4.8,8.1L4.8,8.1L4.8,8.1L4.8,8.1z M4.8,8.4L4.8,8.4
		L4.8,8.4L4.8,8.4L4.8,8.4z M4.8,2.9L4.8,2.9L4.8,2.9z M4.9,3.3L4.9,3.3L4.9,3.3L4.9,3.3z M4.8,4.2C4.9,4.2,4.9,4.2,4.8,4.2L4.8,4.2
		L4.8,4.2z M4.9,7.9L5,7.8c0,0,0-0.1,0-0.1s0-0.1-0.1-0.1L4.8,7.7L4.9,7.9L4.9,7.9z M4.9,9.6L4.9,9.6L4.9,9.6L4.9,9.6z M4.9,5.9
		L4.9,5.9L4.9,5.9L4.9,5.9L4.9,5.9z M4.9,6.3L4.9,6.3L4.9,6.3L4.9,6.3L4.9,6.3z M5,3.7c0,0,0.1,0,0.2,0c0.1,0,0.1,0,0.2,0
		c0,0,0.1,0.1,0.1,0.1c0,0,0,0,0,0.1c0-0.1,0.1-0.1,0.1-0.2c0,0,0-0.1,0-0.1c0,0-0.1,0-0.1,0c0,0-0.1,0-0.1,0c0,0,0,0,0-0.1l0.1-0.1
		C5.1,3.4,5,3.4,5,3.5C4.9,3.5,4.9,3.6,5,3.7C4.9,3.7,4.9,3.7,5,3.7z M5,9.9L5,9.9L4.9,9.8C4.9,9.8,5,9.9,5,9.9z M4.9,2.6l0.2,0
		c0,0,0,0,0,0c0,0,0,0,0,0L4.9,2.6z M4.9,5.2L4.9,5.2L4.9,5.2L4.9,5.2L4.9,5.2z M4.9,7.3L4.9,7.3L4.9,7.3L4.9,7.3L4.9,7.3z M5.1,5.6
		H4.9v0.1L5.1,5.6z M4.9,6.8L4.9,6.8L4.9,6.8L4.9,6.8L4.9,6.8z M5,8.9L5,8.9L5,8.9L5,8.9z M5,9.5c0,0.1,0,0.1,0,0.1
		C5,9.6,5,9.6,5,9.5c0.1,0,0.1,0,0.1-0.1L5,9.5C5,9.4,5,9.5,5,9.5z M5,3L5,3L5,3L5,3L5,3z M5,3.3L5,3.3L5,3.3L5,3.3L5,3.3z M5,4.2
		L5,4.2L5,4.2L5,4.2L5,4.2z M5.1,4.7c0,0,0.1,0,0.1,0s0.1-0.1,0.1-0.1L5.1,4.7L5.1,4.7z M5,5.8C5,5.8,5,5.8,5,5.8
		C5.1,5.8,5.1,5.8,5,5.8L5,5.8L5,5.8L5,5.8z M5.1,6.3c0,0,0.1,0,0.1,0L5,6.2L5.1,6.3C5,6.2,5,6.3,5.1,6.3z M5.1,7.6L5.1,7.6L5.1,7.6
		L5.1,7.6L5.1,7.6z M5.1,8.6L5.1,8.6L5.1,8.6L5.1,8.6L5.1,8.6z M5.1,9.7L5.1,9.7L5.1,9.7L5.1,9.7L5.1,9.7z M5.1,5l0.2-0.1l0,0L5.1,5
		z M5.2,4.2c0-0.1,0-0.1,0.1-0.1C5.3,4.1,5.2,4.1,5.2,4.2c-0.1,0-0.1,0-0.1,0.1l0.1,0.1C5.2,4.3,5.2,4.3,5.2,4.2z M5.1,8.4L5.1,8.4
		L5.1,8.4L5.1,8.4L5.1,8.4z M5.2,9.2L5.2,9.2L5.2,9.2L5.2,9.2z M5.2,5.2L5.2,5.2L5.2,5.2L5.2,5.2z M5.3,7.1l0.1-0.2L5.3,7L5.2,6.9
		C5.2,7,5.2,7.1,5.3,7.1z M5.5,9.7L5.5,9.7h0.1c0,0,0,0,0-0.1s-0.1,0-0.1-0.1c0,0-0.1,0-0.1-0.1s0-0.1,0-0.1h0L5.2,9.5l0.1,0.1
		L5.2,9.9L5.5,9.7z M5.2,3.3L5.2,3.3L5.2,3.3L5.2,3.3z M5.2,5.1L5.2,5.1L5.2,5.1L5.2,5.1z M5.2,7.5l0.2,0L5.2,7.5L5.2,7.5L5.2,7.5z
		 M5.2,8.6L5.2,8.6L5.2,8.6L5.2,8.6z M5.3,2.8L5.3,2.8L5.3,2.8L5.3,2.8z M5.3,3.5l0.2,0l0,0L5.3,3.5z M5.3,6.1L5.3,6.1L5.3,6.1
		L5.3,6.1z M5.3,6.2L5.3,6.2L5.3,6.2L5.3,6.2z M5.3,9.2L5.3,9.2L5.3,9.2L5.3,9.2z M5.3,5.8L5.3,5.8L5.3,5.8L5.3,5.8z M5.3,6.5
		L5.3,6.5L5.3,6.5L5.3,6.5L5.3,6.5z M5.5,8.5L5.3,8.6C5.4,8.6,5.5,8.5,5.5,8.5z M5.4,2.3L5.4,2.3L5.4,2.3L5.4,2.3z M5.4,2.5L5.4,2.5
		L5.4,2.5L5.4,2.5z M5.4,4.8L5.4,4.8L5.4,4.8L5.4,4.8z M5.4,5.1L5.4,5.1L5.4,5.1L5.4,5.1z M5.4,7.3L5.4,7.3L5.4,7.3L5.4,7.3z
		 M5.4,7.4L5.4,7.4L5.4,7.4L5.4,7.4z M5.4,9.1L5.4,9.1L5.4,9.1L5.4,9.1z M5.4,7.5L5.4,7.5L5.4,7.5L5.4,7.5z M5.5,4.1L5.5,4.1
		L5.5,4.1L5.5,4.1z M5.5,4.2L5.5,4.2L5.5,4.2L5.5,4.2z M5.5,9.3L5.5,9.3L5.5,9.3L5.5,9.3z M5.5,8.7L5.5,8.7L5.5,8.7L5.5,8.7L5.5,8.7
		z M5.7,9.5L5.7,9.5L5.7,9.5L5.7,9.5z"/>
	<path d="M11.4,10.2c-0.1,0-0.2-0.1-0.3-0.1c-0.1,0-0.2-0.1-0.3-0.2c-0.1-0.1-0.2-0.1-0.2-0.1c-0.4-0.2-0.7-0.5-1-0.8S9.2,8.3,9,8
		C8.8,7.6,8.7,7.2,8.7,6.8C8.6,6.4,8.6,6,8.6,5.6c0-0.2,0-0.5,0.1-0.7c0-0.2,0.1-0.4,0.2-0.6C9,4.1,9.1,3.8,9.3,3.5
		C9.5,3.2,9.8,3,10,2.7c0.2-0.3,0.5-0.5,0.8-0.6c0.3-0.2,0.6-0.3,0.9-0.3v0c-0.1,0.1-0.2,0.1-0.3,0.2c-0.1,0.1-0.1,0.2-0.1,0.3
		c0,0.1-0.1,0.2-0.1,0.4c0,0.1,0,0.2,0,0.4c0,0.5,0,0.9,0,1.3c0,0.4,0,0.9-0.1,1.3c0,0.1,0,0.3,0,0.5c0,0.2,0,0.5,0,0.8
		c0,0.3,0,0.6,0,0.8c0,0.3,0,0.5,0,0.6c0,0.2,0,0.3,0,0.5c0,0.1,0,0.3,0.1,0.4s0.1,0.3,0.2,0.4c0.1,0.1,0.2,0.2,0.3,0.4
		C11.6,10.2,11.5,10.2,11.4,10.2z M9,6.8L9,6.8L9,6.8L9,6.8z M9,5.4L9,5.4L9,5.4L9,5.4z M9,6.3L9,6.3L9,6.3L9,6.3C9,6.3,9,6.3,9,6.3
		z M9.1,5.2L9.1,5.2L9.1,5.2L9.1,5.2L9.1,5.2z M9,5.2C9.1,5.2,9.1,5.2,9,5.2C9.1,5.2,9.1,5.2,9,5.2z M9.1,5.6l0-0.1L9.1,5.6
		C9,5.6,9.1,5.6,9.1,5.6z M9.1,7.1l0.1-0.1L9.1,7.1L9.1,7.1z M9.3,6.5c0.1,0,0.1,0,0.2,0.1l0.1-0.1L9.3,6.4l0-0.1L9.1,6.5
		C9.1,6.5,9.2,6.5,9.3,6.5z M9.1,5L9.1,5L9.1,5L9.1,5L9.1,5z M9.1,6.7L9.1,6.7L9.1,6.7L9.1,6.7L9.1,6.7z M9.1,7.3L9.1,7.3L9.1,7.3
		L9.1,7.3z M9.2,6C9.2,6,9.2,5.9,9.2,6C9.2,5.9,9.2,5.9,9.2,6C9.2,5.9,9.2,6,9.2,6z M9.2,6.7L9.2,6.7L9.2,6.7L9.2,6.7L9.2,6.7z
		 M9.2,5.4L9.2,5.4L9.2,5.4L9.2,5.4L9.2,5.4z M9.3,7.1L9.3,7.1v0.1V7.1z M9.3,5.1L9.3,5.1L9.3,5.1L9.3,5.1L9.3,5.1L9.3,5.1
		C9.2,5,9.2,5,9.3,5.1z M9.3,5.8L9.3,5.8L9.3,5.8L9.3,5.8L9.3,5.8z M9.3,6.7L9.3,6.7L9.3,6.7L9.3,6.7z M9.3,7L9.3,7L9.3,7L9.3,7
		L9.3,7z M9.3,7.4L9.3,7.4L9.3,7.4L9.3,7.4z M9.3,5C9.3,5,9.3,5,9.3,5C9.3,5,9.3,5,9.3,5C9.3,5,9.3,5,9.3,5L9.3,5z M9.3,7.3L9.3,7.3
		L9.3,7.3L9.3,7.3L9.3,7.3z M9.3,7.5L9.3,7.5L9.3,7.5L9.3,7.5L9.3,7.5z M9.3,7.8L9.3,7.8L9.3,7.8C9.3,7.9,9.3,7.9,9.3,7.8L9.3,7.8
		L9.3,7.8L9.3,7.8L9.3,7.8L9.3,7.8z M9.3,4.9L9.3,4.9L9.3,4.9L9.3,4.9L9.3,4.9z M9.3,7.7L9.3,7.7L9.3,7.7L9.3,7.7L9.3,7.7z M9.4,4.6
		L9.4,4.6L9.4,4.6L9.4,4.6z M9.4,5.9L9.4,5.9L9.4,5.9L9.4,5.9L9.4,5.9z M9.4,7.2L9.4,7.2L9.4,7.2L9.4,7.2L9.4,7.2z M9.4,7.4L9.4,7.4
		L9.4,7.4L9.4,7.4z M9.8,8.3c0.1-0.1,0.1-0.1,0.1-0.2L9.9,8l0-0.1c0-0.1,0-0.1,0-0.1c0,0,0,0,0-0.1L9.7,7.8L9.8,8L9.7,7.9L9.5,8
		l0.1-0.2L9.5,7.6l-0.1,0l0.1,0.2L9.4,8h0c0,0,0.1,0.1,0.1,0.1c0,0,0.1,0.1,0.2,0.1c0,0-0.1,0-0.1,0c-0.1,0-0.1,0.1-0.1,0.1l0,0
		l0.1-0.1l0.1,0.1l0,0.1l0,0C9.7,8.4,9.8,8.4,9.8,8.3z M9.4,6.1L9.4,6.1L9.4,6.1C9.4,6.1,9.4,6.1,9.4,6.1z M9.4,6.2L9.4,6.2L9.4,6.2
		L9.4,6.2L9.4,6.2z M9.4,7.2C9.4,7.2,9.4,7.2,9.4,7.2L9.4,7.2C9.5,7.1,9.5,7.2,9.4,7.2z M9.5,8.2C9.4,8.2,9.4,8.2,9.5,8.2L9.5,8.2
		L9.5,8.2L9.5,8.2z M9.6,7.5L9.6,7.5l0.2,0l0.1-0.1l0-0.1l-0.1,0l0,0l0.1-0.2c-0.1,0-0.1,0-0.2,0.1S9.6,7.3,9.6,7.3l0,0L9.4,7.4
		C9.5,7.4,9.6,7.4,9.6,7.5z M9.5,8.2L9.5,8.2L9.5,8.2L9.5,8.2z M9.5,5L9.5,5L9.5,5L9.5,5z M9.5,5.7L9.5,5.7L9.5,5.7L9.5,5.7z
		 M9.7,4.3L9.7,4.3L9.7,4.3l-0.1,0L9.7,4.3z M9.5,5.2L9.5,5.2L9.5,5.2L9.5,5.2C9.5,5.2,9.5,5.2,9.5,5.2z M9.5,7.2L9.5,7.2L9.5,7.2
		L9.5,7.2z M9.6,6.3L9.6,6.3L9.6,6.3L9.6,6.3z M9.6,6.6L9.6,6.6L9.6,6.6C9.6,6.7,9.6,6.6,9.6,6.6z M9.6,8.4L9.6,8.4L9.6,8.4L9.6,8.4
		L9.6,8.4z M9.6,4.1L9.6,4.1L9.6,4.1L9.6,4.1L9.6,4.1L9.6,4.1z M9.7,6.3L9.6,6.2l0,0L9.7,6.3z M9.7,7.2L9.7,7.2L9.7,7.2L9.7,7.2
		L9.7,7.2z M9.7,4L9.7,4L9.7,4L9.7,4z M9.7,4.9L9.7,4.9L9.7,4.9L9.7,4.9z M9.7,6L9.7,6L9.7,6L9.7,6z M9.7,3.6L9.7,3.6L9.7,3.6
		C9.7,3.6,9.7,3.6,9.7,3.6z M9.7,3.7L9.7,3.7L9.7,3.7L9.7,3.7L9.7,3.7z M9.8,4.2C9.8,4.2,9.8,4.1,9.8,4.2C9.8,4.1,9.7,4.1,9.8,4.2
		L9.8,4.2L9.8,4.2L9.8,4.2z M9.8,5L9.7,5.1C9.8,5.1,9.8,5.1,9.8,5c0.1,0,0.1-0.1,0.1-0.1L9.8,5C9.8,4.9,9.8,5,9.8,5z M9.7,6.1
		L9.7,6.1L9.7,6.1L9.7,6.1L9.7,6.1z M9.7,8.6L9.7,8.6L9.7,8.6L9.7,8.6L9.7,8.6z M9.8,6.7L9.8,6.7L9.8,6.7L9.8,6.7z M9.8,4.4L9.8,4.4
		L9.8,4.4L9.8,4.4z M9.8,4.7L9.8,4.7L9.8,4.7L9.8,4.7z M10,7.1L9.9,6.9c0,0-0.1,0-0.1,0c0,0,0,0,0,0.1L10,7.1L10,7.1z M9.8,3.8
		L9.8,3.8L9.8,3.8L9.8,3.8z M9.8,5.9L9.8,5.9L9.8,5.9L9.8,5.9z M9.8,4.8L9.8,4.8L9.8,4.8L9.8,4.8z M10,3.9L9.8,4v0L10,3.9z M9.8,4.2
		c0,0,0,0.1,0,0.1v0C9.9,4.2,9.9,4.2,9.8,4.2C9.9,4.1,9.9,4.1,9.8,4.2z M10,3.7L10,3.7L10,3.7L10,3.7z M10,4.4L10,4.4L10,4.4L10,4.4
		L10,4.4z M9.9,5.3L9.9,5.3L9.9,5.3L9.9,5.3L9.9,5.3z M9.9,8.4L9.9,8.4L9.9,8.4L9.9,8.4L9.9,8.4z M10,3.3L10,3.3L10,3.3L10,3.3z
		 M10,7.5L10,7.5L10,7.5L10,7.5z M10,7.7L10,7.7L10,7.7L10,7.7z M10,6.2L10,6.2L10,6.2L10,6.2z M10,8.6C10,8.6,10,8.6,10,8.6
		C10,8.6,10,8.6,10,8.6L10,8.6z M10,5.8C10,5.9,10,5.9,10,5.8L10,5.8C10,5.8,10,5.8,10,5.8z M10,3.5L10,3.5L10,3.5
		C10,3.5,10,3.6,10,3.5L10,3.5L10,3.5L10,3.5L10,3.5L10,3.5L10,3.5z M10,6.6l0.1-0.1l0,0C10,6.5,10,6.5,10,6.6z M10,7.3l0.3-0.2
		L10.2,7L10,7.3L10,7.3z M10,8.8L10,8.8L10,8.8L10,8.8L10,8.8z M10,4.3L10,4.3L10,4.3C10,4.3,10,4.3,10,4.3z M10,5.5L10,5.5L10,5.5
		L10,5.5z M10.3,5.9L10.3,5.9L10,6.1L10.3,5.9z M10.2,3.8L10.2,3.8l-0.1,0l0,0.1L10.2,3.8z M10.2,4.8l0-0.1L10.2,4.8L10.2,4.8z
		 M10.2,6.7c0,0,0.1,0,0.1,0l-0.1-0.1l-0.2,0.2v0C10.1,6.8,10.2,6.8,10.2,6.7z M10.1,8.7C10.1,8.7,10.1,8.7,10.1,8.7l0.2,0L10.1,8.7
		C10.1,8.8,10.1,8.8,10.1,8.7z M10.1,5.3L10.1,5.3L10.1,5.3L10.1,5.3z M10.1,6.9C10.1,6.9,10.2,6.9,10.1,6.9
		C10.1,6.9,10.1,6.9,10.1,6.9z M10.1,7.8L10.1,7.8L10.1,7.8L10.1,7.8z M10.1,3.6L10.1,3.6L10.1,3.6L10.1,3.6L10.1,3.6z M10.2,4.2
		L10.2,4.2L10.2,4.2L10.2,4.2z M10.3,6.4l0-0.2l0,0l-0.1-0.1L10.3,6.4z M10.2,7.5L10.2,7.5L10.2,7.5L10.2,7.5L10.2,7.5z M10.2,3
		L10.2,3L10.2,3L10.2,3z M10.2,7.7L10.2,7.7L10.2,7.7L10.2,7.7z M10.2,8.5C10.2,8.5,10.2,8.5,10.2,8.5L10.2,8.5
		C10.2,8.5,10.2,8.5,10.2,8.5z M10.3,4.6L10.3,4.6L10.3,4.6L10.3,4.6L10.3,4.6z M10.3,5L10.3,5L10.3,5L10.3,5L10.3,5z M10.3,5.3
		L10.3,5.3L10.3,5.3L10.3,5.3L10.3,5.3z M10.3,5.4L10.3,5.4L10.3,5.4L10.3,5.4L10.3,5.4z M10.3,6.9L10.3,6.9L10.3,6.9L10.3,6.9z
		 M10.3,7.6L10.3,7.6L10.3,7.6L10.3,7.6L10.3,7.6z M10.3,3.6L10.3,3.6L10.3,3.6L10.3,3.6z M10.4,4.1L10.5,4c0,0,0-0.1-0.1-0.1
		s-0.1-0.1-0.1-0.1L10.3,4l0.1,0L10.4,4.1z M10.4,7.4l-0.1,0.1l0,0L10.4,7.4z M10.3,3.4L10.3,3.4L10.3,3.4L10.3,3.4z M10.5,3.6
		l-0.1-0.2l-0.1,0.1L10.5,3.6L10.5,3.6z M10.4,4.2L10.4,4.2L10.4,4.2L10.4,4.2z M10.3,5.8L10.3,5.8L10.3,5.8L10.3,5.8
		C10.3,5.7,10.3,5.7,10.3,5.8z M10.3,3.3L10.3,3.3L10.3,3.3z M10.3,3.9C10.3,3.9,10.4,3.9,10.3,3.9C10.4,3.9,10.4,3.9,10.3,3.9z
		 M10.4,7.1C10.4,7.1,10.4,7.1,10.4,7.1C10.4,7.1,10.4,7.1,10.4,7.1L10.4,7.1L10.4,7.1z M10.4,5.2L10.4,5.2L10.4,5.2L10.4,5.2
		L10.4,5.2z M10.4,7.3c0.1,0,0.1,0,0.1-0.1c0-0.1,0.1-0.1,0.1-0.2l-0.1-0.1c0,0.1,0,0.1,0,0.1c0,0,0,0,0,0.1l0,0
		C10.4,7.2,10.4,7.2,10.4,7.3C10.4,7.2,10.4,7.2,10.4,7.3z M10.4,4.7L10.4,4.7L10.4,4.7L10.4,4.7z M10.4,6.6L10.4,6.6L10.4,6.6
		L10.4,6.6z M10.5,3.1L10.5,3.1L10.5,3.1L10.5,3.1z M10.4,6.8L10.4,6.8L10.4,6.8L10.4,6.8L10.4,6.8z M10.5,3L10.5,3L10.5,3L10.5,3z
		 M10.5,6.2L10.5,6.2L10.5,6.2C10.5,6.1,10.5,6.2,10.5,6.2z M10.5,5.4L10.5,5.4L10.5,5.4L10.5,5.4L10.5,5.4z M10.6,3.2
		C10.6,3.2,10.5,3.2,10.6,3.2L10.6,3.2L10.6,3.2L10.6,3.2z M10.5,3.8L10.5,3.8L10.5,3.8L10.5,3.8C10.5,3.8,10.5,3.8,10.5,3.8z
		 M10.6,6.4L10.6,6.4l-0.1,0L10.6,6.4z M10.6,6.8h-0.1H10.6L10.6,6.8z M10.6,5L10.6,5L10.6,5L10.6,5L10.6,5z M10.6,2.7L10.6,2.7
		L10.6,2.7L10.6,2.7L10.6,2.7z M10.6,3.7C10.6,3.6,10.6,3.6,10.6,3.7L10.6,3.7L10.6,3.7z M10.7,5.8l-0.1,0.1l0,0L10.7,5.8z
		 M10.6,3.3C10.6,3.4,10.6,3.4,10.6,3.3L10.6,3.3L10.6,3.3L10.6,3.3C10.6,3.3,10.6,3.3,10.6,3.3z M10.6,4L10.6,4L10.6,4L10.6,4z
		 M10.7,2.7L10.7,2.7L10.7,2.7L10.7,2.7z M10.7,5.3L10.7,5.3l0-0.1L10.7,5.3L10.7,5.3z M10.7,4.7L10.7,4.7L10.7,4.7L10.7,4.7
		L10.7,4.7z M10.7,6.6L10.7,6.6L10.7,6.6L10.7,6.6z M10.7,7L10.7,7L10.7,7L10.7,7z M10.7,5.3L10.7,5.3C10.7,5.2,10.7,5.3,10.7,5.3z
		 M10.7,3.6L10.7,3.6L10.7,3.6L10.7,3.6z M10.8,3.2L10.8,3.2L10.8,3.2L10.8,3.2z M10.8,7.6L10.8,7.6L10.8,7.6L10.8,7.6z M10.8,5.1
		L10.8,5.1L10.8,5.1C10.8,5.1,10.8,5.1,10.8,5.1z M10.8,9L10.8,9L10.8,9L10.8,9L10.8,9z M12.9,9.8c0-0.1,0.1-0.1,0.1-0.2
		c0-0.1,0.1-0.3,0.1-0.5s0.1-0.5,0.1-0.8c0-0.3,0-0.6,0-1c0-0.3,0-0.7,0-1s0-0.6,0-0.9c0-0.3,0-0.5,0-0.6c0-0.1,0-0.2,0-0.4
		c0-0.2,0-0.3,0-0.6c0-0.2,0-0.4,0-0.6c0-0.2,0-0.4-0.1-0.6c0-0.2-0.1-0.4-0.1-0.5S12.9,2,12.9,2c0,0-0.1,0-0.1,0s-0.1,0-0.1-0.1
		l0.1-0.1c0.4,0.1,0.8,0.2,1.2,0.5c0.4,0.3,0.7,0.7,1,1.1c0.3,0.4,0.5,0.9,0.7,1.3c0.2,0.5,0.2,0.9,0.2,1.3c0,0.1,0,0.2,0,0.4
		c0,0.1,0,0.3,0,0.4c0,0.1,0,0.3-0.1,0.4c0,0.1-0.1,0.2-0.1,0.3c-0.1,0.1-0.2,0.3-0.3,0.4c-0.1,0.2-0.2,0.4-0.4,0.6
		s-0.3,0.4-0.5,0.6c-0.2,0.2-0.3,0.4-0.5,0.5c-0.2,0.2-0.3,0.3-0.5,0.4c-0.2,0.1-0.3,0.1-0.4,0.1l-0.1-0.1
		C12.8,10,12.9,9.9,12.9,9.8z M13.4,9.1C13.4,9.1,13.4,9.1,13.4,9.1L13.4,9.1L13.4,9.1C13.4,9,13.4,9.1,13.4,9.1z M13.5,9.4
		L13.5,9.4L13.5,9.4L13.5,9.4z M13.5,9.5C13.5,9.5,13.5,9.5,13.5,9.5L13.5,9.5L13.5,9.5C13.5,9.5,13.5,9.5,13.5,9.5z M14,3.3
		l-0.3-0.4c0,0,0,0,0,0.1c0,0-0.1,0-0.1,0c0,0-0.1,0-0.1,0.1s0,0.1,0,0.1l0.2,0c0,0,0,0.1-0.1,0.1c0,0-0.1,0.1-0.1,0.1l0.1,0h0.3
		L14,3.3L14,3.3z M13.6,8.2L13.6,8.2L13.6,8.2L13.6,8.2L13.6,8.2z M13.7,2.8C13.8,2.8,13.8,2.8,13.7,2.8L13.7,2.8h-0.2l0,0
		C13.6,2.9,13.7,2.9,13.7,2.8z M13.6,3.8L13.6,3.8L13.6,3.8L13.6,3.8z M13.6,6.7L13.6,6.7L13.6,6.7L13.6,6.7L13.6,6.7z M13.7,2.7
		L13.7,2.7L13.7,2.7L13.7,2.7z M13.7,7.5L13.7,7.5L13.7,7.5L13.7,7.5z M13.7,5.9L13.7,5.9L13.7,5.9L13.7,5.9L13.7,5.9z M13.8,3.3
		L13.8,3.3L13.8,3.3L13.8,3.3z M13.8,5.1L13.8,5.1L13.8,5.1L13.8,5.1z M13.7,7.8C13.7,7.9,13.7,7.9,13.7,7.8L13.7,7.8L13.7,7.8
		C13.7,7.8,13.7,7.8,13.7,7.8z M13.8,5.5L13.8,5.5L13.8,5.5L13.8,5.5L13.8,5.5z M13.8,5.7L13.8,5.7L13.8,5.7L13.8,5.7L13.8,5.7z
		 M13.8,6.5L13.8,6.5L13.8,6.5L13.8,6.5L13.8,6.5z M13.8,7l0.1,0L13.8,7L13.8,7L13.8,7z M13.8,7.7L13.8,7.7L13.8,7.7L13.8,7.7
		L13.8,7.7z M13.8,8L13.8,8L13.8,8L13.8,8L13.8,8z M13.8,4.2L13.8,4.2L13.8,4.2L13.8,4.2z M13.8,4.7L13.8,4.7L13.8,4.7L13.8,4.7
		L13.8,4.7z M13.8,3.5c0,0.1,0.1,0.1,0.1,0.1C13.9,3.6,13.9,3.5,13.8,3.5c0.1-0.1,0-0.2,0-0.2C13.8,3.4,13.8,3.5,13.8,3.5z M14,3.6
		l-0.3-0.1l0,0L14,3.6z M13.8,4.1L13.8,4.1L13.8,4.1L13.8,4.1C13.8,4,13.8,4.1,13.8,4.1z M13.8,8L13.8,8L13.8,8L13.8,8z M13.8,5.5
		L13.8,5.5L13.8,5.5L13.8,5.5L13.8,5.5z M13.8,6.1L13.8,6.1L13.8,6.1L13.8,6.1L13.8,6.1z M13.8,7.4L13.8,7.4L13.8,7.4L13.8,7.4
		L13.8,7.4z M13.8,2.8L13.8,2.8L13.8,2.8L13.8,2.8L13.8,2.8L13.8,2.8z M13.9,3L13.9,3L13.9,3L13.9,3L13.9,3z M13.9,5.1L13.9,5.1
		L13.9,5.1L13.9,5.1L13.9,5.1z M13.9,5.3L13.9,5.3L13.9,5.3L13.9,5.3L13.9,5.3z M13.9,5.4L13.9,5.4L13.9,5.4L13.9,5.4L13.9,5.4z
		 M13.9,3.8L13.9,3.8L13.9,3.8L13.9,3.8z M14.1,4.5L14.1,4.5l-0.2,0.1C14,4.6,14,4.6,14.1,4.5z M13.9,6.4L13.9,6.4L13.9,6.4
		L13.9,6.4z M13.9,6.6c0,0.1,0,0.1,0,0.1v0.1L14,6.5h0C13.9,6.5,13.9,6.6,13.9,6.6z M13.9,6L13.9,6L13.9,6L13.9,6z M13.9,4.9
		l0.1-0.2L13.9,4.9z M14.1,3.1C14.1,3.1,14.1,3.1,14.1,3.1C14,3.1,14,3,14.1,3.1L14,3C14,3.1,14,3.1,14.1,3.1z M14,5.7
		C14,5.7,14,5.7,14,5.7L14,5.7L14,5.7C14,5.7,14,5.7,14,5.7z M14,5.8L14,5.8L14,5.8L14,5.8z M14,7.4L14,7.4L14,7.4L14,7.4z M14,7.4
		L14,7.4L14,7.4L14,7.4L14,7.4z M14,3.6l0.1-0.2l0,0l-0.1,0V3.6z M14.1,3.9l0-0.1L14.1,3.9L14.1,3.9z M14.1,6.2l0-0.1L14.1,6.2
		C14,6.2,14,6.2,14.1,6.2z M14,7.2L14,7.2L14,7.2L14,7.2L14,7.2z M14.2,4.2l-0.2,0l0,0H14.2z M14.1,5L14.1,5l0-0.1
		C14,4.9,14,4.9,14.1,5z M14,5.2l0.1,0L14,5.2C14,5.1,14,5.2,14,5.2z M14.1,8.9L14.1,8.9V9V8.9z M14,3.7L14,3.7L14,3.7L14,3.7z
		 M14.1,5.6L14.1,5.6L14.1,5.6L14.1,5.6z M14,6.3L14,6.3L14,6.3L14,6.3C14,6.3,14,6.3,14,6.3z M14.1,7.8L14.1,7.8L14.1,7.8L14.1,7.8
		z M14.1,9.1L14.1,9.1L14.1,9.1L14.1,9.1z M14.1,3L14.1,3L14.1,3L14.1,3z M14.1,3.2L14.1,3.2L14.1,3.2L14.1,3.2L14.1,3.2z M14.2,3.8
		L14.2,3.8L14.2,3.8L14.2,3.8z M14.1,6.9L14.1,6.9l0.1-0.1L14.1,6.9z M14.1,3.3L14.1,3.3L14.1,3.3L14.1,3.3z M14.3,3.4L14.3,3.4
		l-0.2-0.1l0,0.1l0.1,0.1L14.3,3.4z M14.1,4C14.2,4,14.2,4,14.1,4C14.2,3.9,14.1,3.9,14.1,4z M14.2,5L14.2,5L14.2,5L14.2,5z
		 M14.2,5.3L14.2,5.3L14.2,5.3L14.2,5.3z M14.2,6.3L14.2,6.3L14.2,6.3L14.2,6.3z M14.2,6.6L14.2,6.6L14.2,6.6L14.2,6.6z M14.2,4.4
		c0,0.1-0.1,0.1-0.1,0.2c0,0,0.1,0,0.1,0C14.3,4.6,14.3,4.5,14.2,4.4C14.3,4.5,14.3,4.4,14.2,4.4c0.1,0,0.1,0,0.1,0l0.1,0l0-0.1
		l-0.1,0C14.3,4.3,14.3,4.4,14.2,4.4z M14.2,5.7L14.2,5.7L14.2,5.7L14.2,5.7z M14.2,7L14.2,7L14.2,7L14.2,7z M14.2,7.6L14.2,7.6
		L14.2,7.6L14.2,7.6z M14.3,4.2L14.3,4.2l0-0.1l0-0.1V4.2L14.3,4.2z M14.2,9L14.2,9L14.2,9L14.2,9L14.2,9z M14.2,8L14.2,8L14.2,8
		L14.2,8z M14.3,3.8L14.3,3.8L14.3,3.8C14.2,3.8,14.3,3.8,14.3,3.8z M14.3,5.1C14.2,5.1,14.2,5.2,14.3,5.1
		C14.3,5.2,14.3,5.2,14.3,5.1C14.3,5.1,14.3,5.1,14.3,5.1C14.3,5.1,14.3,5.1,14.3,5.1z M14.3,6.1L14.3,6.1L14.3,6.1L14.3,6.1z
		 M14.3,7.3L14.3,7.3L14.3,7.3L14.3,7.3z M14.4,3.6L14.4,3.6h-0.1H14.4z M14.3,5.4L14.3,5.4L14.3,5.4L14.3,5.4L14.3,5.4z M14.4,7.8
		L14.4,7.8L14.4,7.8L14.4,7.8z M14.3,5.7L14.3,5.7L14.3,5.7L14.3,5.7z M14.3,6.1L14.3,6.1L14.3,6.1L14.3,6.1z M14.3,6.5L14.3,6.5
		L14.3,6.5L14.3,6.5z M14.3,6.6L14.3,6.6L14.3,6.6L14.3,6.6C14.3,6.6,14.3,6.6,14.3,6.6z M14.5,4.7L14.5,4.7L14.5,4.7l-0.1,0h0
		L14.5,4.7z M14.5,5.9C14.5,5.9,14.4,5.9,14.5,5.9c-0.1,0-0.1,0-0.1,0.1L14.5,5.9L14.5,5.9z M14.4,3.8C14.4,3.8,14.4,3.8,14.4,3.8
		C14.4,3.8,14.4,3.8,14.4,3.8C14.5,3.8,14.5,3.8,14.4,3.8C14.5,3.8,14.4,3.8,14.4,3.8z M14.4,3.9L14.4,3.9L14.4,3.9L14.4,3.9z
		 M14.4,4.8L14.4,4.8L14.4,4.8L14.4,4.8L14.4,4.8z M14.4,5.2L14.4,5.2L14.4,5.2L14.4,5.2z M14.4,5.6L14.4,5.6L14.4,5.6L14.4,5.6
		L14.4,5.6z M14.5,6.3L14.5,6.3L14.5,6.3L14.5,6.3z M14.4,7.3L14.4,7.3L14.4,7.3L14.4,7.3z M14.4,8L14.4,8L14.4,8L14.4,8z M14.4,8.4
		L14.4,8.4L14.4,8.4L14.4,8.4z M14.4,3.4C14.4,3.4,14.4,3.4,14.4,3.4l0.1,0.2L14.4,3.4C14.4,3.4,14.4,3.4,14.4,3.4z M14.4,4.9
		L14.4,4.9L14.4,4.9L14.4,4.9z M14.5,4.1L14.5,4.1L14.5,4.1L14.5,4.1z M14.5,4.8L14.5,4.8L14.5,4.8L14.5,4.8L14.5,4.8z M14.5,5.1
		L14.5,5.1L14.5,5.1L14.5,5.1z M14.5,6.3L14.5,6.3L14.5,6.3L14.5,6.3L14.5,6.3l0-0.1L14.5,6.3L14.5,6.3z M14.5,6.5l0-0.1
		C14.5,6.4,14.5,6.5,14.5,6.5z M14.6,3.9L14.5,4C14.5,4,14.6,3.9,14.6,3.9z M14.5,4.1L14.5,4.1L14.5,4.1L14.5,4.1L14.5,4.1z
		 M14.6,7.7L14.6,7.7L14.6,7.7L14.6,7.7z M14.6,5.4L14.6,5.4L14.6,5.4L14.6,5.4z M14.6,7.5L14.6,7.5L14.6,7.5L14.6,7.5z M14.6,3.8
		L14.6,3.8L14.6,3.8C14.6,3.8,14.6,3.8,14.6,3.8z M14.6,4.8L14.6,4.8L14.6,4.8C14.6,4.7,14.6,4.8,14.6,4.8z M14.6,5
		C14.6,4.9,14.6,4.9,14.6,5L14.6,5C14.6,4.9,14.6,5,14.6,5z M14.6,6.3L14.6,6.3L14.6,6.3L14.6,6.3L14.6,6.3z M14.6,4.5
		c0,0-0.1,0.1-0.1,0.1C14.6,4.6,14.7,4.6,14.6,4.5c0.1,0,0.1,0,0.1-0.1C14.7,4.5,14.7,4.5,14.6,4.5z M14.6,5.1L14.6,5.1L14.6,5.1
		L14.6,5.1z M14.6,6.8L14.6,6.8L14.6,6.8L14.6,6.8z M14.7,7.8L14.7,7.8L14.7,7.8L14.7,7.8z M14.6,6.1L14.6,6.1L14.6,6.1L14.6,6.1
		L14.6,6.1z M14.6,7.6L14.6,7.6L14.6,7.6L14.6,7.6L14.6,7.6z M14.6,8.1L14.6,8.1L14.6,8.1L14.6,8.1z M14.6,5.2
		C14.6,5.2,14.7,5.2,14.6,5.2c0.1-0.1,0.1-0.1,0.1-0.1h0C14.7,5.1,14.6,5.2,14.6,5.2z M14.7,4L14.7,4L14.7,4L14.7,4L14.7,4z
		 M14.7,4.9L14.7,4.9L14.7,4.9L14.7,4.9L14.7,4.9z M14.7,6.5L14.7,6.5L14.7,6.5L14.7,6.5L14.7,6.5z M14.7,7.1L14.7,7.1L14.7,7.1
		L14.7,7.1L14.7,7.1z M14.7,7.4L14.7,7.4L14.7,7.4L14.7,7.4L14.7,7.4z M14.7,7.4L14.7,7.4L14.7,7.4L14.7,7.4L14.7,7.4z M14.8,4.1
		L14.8,4.1l-0.1,0v0H14.8z M14.7,8.3L14.7,8.3L14.7,8.3L14.7,8.3L14.7,8.3z M14.7,4.9L14.7,4.9L14.7,4.9L14.7,4.9z M14.7,7.7
		L14.7,7.7L14.7,7.7L14.7,7.7L14.7,7.7z M14.8,3.9L14.8,3.9L14.8,3.9L14.8,3.9L14.8,3.9z M14.8,4.2L14.8,4.2v0.2V4.2z M14.8,5.2
		L14.8,5.2L14.8,5.2L14.8,5.2L14.8,5.2z M14.8,6.1L14.8,6.1C14.9,6.1,14.9,6.1,14.8,6.1C14.9,6,14.8,6.1,14.8,6.1z M14.9,5l0-0.2
		l0,0.1L14.9,5z M15,4.1L15,4.1L15,4.1L15,4.1L15,4.1z M15,5.1L15,5.1L15,5.1L15,5.1L15,5.1z M15,4.3C15,4.3,15,4.3,15,4.3L15,4.3
		C15,4.3,15,4.3,15,4.3L15,4.3z M15,4.7L15,4.7L15,4.7L15,4.7L15,4.7z M15,5.2c0,0,0.1-0.1,0.1-0.1C15,5.1,15,5.1,15,5.2z M15,5.4
		L15,5.4L15,5.4L15,5.4L15,5.4z M15,7.6L15,7.6L15,7.6L15,7.6z M15.1,7.4C15.1,7.3,15.1,7.3,15.1,7.4C15,7.3,15,7.3,15.1,7.4
		L15.1,7.4L15.1,7.4z M15,7.2L15,7.2L15,7.2L15,7.2z M15.1,5.3L15.1,5.3L15.1,5.3L15.1,5.3L15.1,5.3z M15.2,6.8l0-0.1v0L15.2,6.8z
		 M15.2,5.4L15.2,5.4L15.2,5.4L15.2,5.4z M15.2,5.5l0.1-0.1C15.2,5.4,15.2,5.5,15.2,5.5z M15.2,5.9L15.2,5.9L15.2,5.9L15.2,5.9z
		 M15.2,6.3L15.2,6.3L15.2,6.3L15.2,6.3z M15.4,6.5L15.4,6.5L15.4,6.5L15.4,6.5L15.4,6.5z M15.4,6.8L15.4,6.8L15.4,6.8L15.4,6.8
		L15.4,6.8z"/>
</g>
</svg>
