<?xml version="1.0" encoding="utf-8"?>
<!-- Generator: Adobe Illustrator 17.1.0, SVG Export Plug-In . SVG Version: 6.00 Build 0)  -->
<!DOCTYPE svg PUBLIC "-//W3C//DTD SVG 1.1//EN" "http://www.w3.org/Graphics/SVG/1.1/DTD/svg11.dtd">
<svg version="1.1" id="Layer_1" xmlns="http://www.w3.org/2000/svg" xmlns:xlink="http://www.w3.org/1999/xlink" x="0px" y="0px"
	 width="17.8px" height="12.2px" viewBox="0 0 17.8 12.2" enable-background="new 0 0 17.8 12.2" xml:space="preserve">
<g>
	<path d="M3,9.8c0.3,0,0.6,0,0.8,0c0.2,0,0.3-0.1,0.4-0.1s0.2-0.2,0.2-0.4c0-0.2,0-0.4,0-0.8v-5c0-0.1-0.1-0.1-0.3-0.2
		C4,3.3,3.9,3.3,3.7,3.3c-0.2,0-0.3,0-0.5,0S3,3.2,3,3.2L2.9,3.1L2.9,3c0.5,0,1-0.1,1.4-0.2s0.7-0.3,1-0.5C5.6,2.2,5.8,2,6,1.9
		c0.2-0.1,0.3-0.2,0.5-0.2l0.3,0l0.1,0.1c0,1.1,0,2.2,0,3.2s0,2.2,0,3.2c0,0.5,0,0.9,0.1,1.3C7,9.8,7.1,9.9,7.2,9.9s0.3,0,0.4,0h0.3
		l0.2-0.1l0.2,0.1l-0.1,0.3c-0.4-0.1-0.7-0.1-1.1-0.1c-0.4,0-0.7,0-1.1,0c-0.5,0-1,0-1.5,0s-1,0-1.5,0l-0.1-0.1L3,9.8z M4.5,9.7
		L4.5,9.7L4.5,9.7L4.5,9.7z M4.7,9.5L4.7,9.5v0.1V9.5z M4.7,9.7L4.7,9.7L4.7,9.7L4.7,9.7C4.7,9.7,4.7,9.7,4.7,9.7z M4.8,7.6L4.8,7.6
		L4.8,7.6L4.8,7.6z M4.8,9.3L4.8,9.3C4.8,9.3,4.8,9.3,4.8,9.3C4.9,9.3,4.9,9.3,4.8,9.3L4.8,9.3L4.8,9.3z M4.8,4.2l0.2,0l0,0L4.8,4.2
		z M4.9,5.9L4.9,5.9L4.9,5.9L4.9,5.9z M4.9,9.8L4.9,9.8L4.9,9.8L4.9,9.8z M4.9,4.7L4.9,4.7L4.9,4.7L4.9,4.7L4.9,4.7z M4.9,6.3
		L4.9,6.3L4.9,6.3L4.9,6.3z M4.9,8L4.9,8L4.9,8L4.9,8z M4.9,8.9L4.9,8.9L4.9,8.9L4.9,8.9z M4.9,6.8L4.9,6.8L4.9,6.8L4.9,6.8L4.9,6.8
		z M5,3.6c0,0,0,0.1,0.1,0.1c0-0.1,0-0.1,0-0.1s0.1-0.1,0.1-0.1L5.1,3.3L4.9,3.5C4.9,3.5,5,3.6,5,3.6z M5,5.1c0,0-0.1,0-0.1,0.1
		L5.3,5L5.2,4.9l0,0L5,4.9L5,5.1C5.1,5,5.1,5.1,5,5.1z M5,6.6c0,0,0.1,0,0.1,0l0.1-0.2l-0.1,0L5,6.6C5,6.5,5,6.6,5,6.6z M5.1,9.7
		c0.1,0.1,0.1,0.1,0.1,0.2c0,0,0.1-0.1,0.1-0.2c0,0,0-0.1,0-0.1s0-0.1-0.1-0.1L4.9,9.6v0C5,9.6,5.1,9.7,5.1,9.7z M5,4.6L5,4.6L5,4.6
		L5,4.6z M5,5.7L5,5.7L5,5.7L5,5.7z M5,8.3L5,8.3L5,8.3L5,8.3z M5,9.9L5,9.9L5,9.9L5,9.9z M5.1,6.1L5.1,6.1L5.1,6.1L5.1,6.1z M5,9.1
		C5,9.1,5.1,9.2,5,9.1h0.3C5.2,9,5.2,9,5.2,9S5.1,8.9,5.1,8.8L5,8.9v0C5,9,5,9,5,9.1z M5.1,5.4L5.1,5.4L5.1,5.4L5.1,5.4z M5,6.3
		c0,0,0.1,0,0.1-0.1L5,6.3z M5.1,6.8L5.1,6.8L5.1,6.8L5.1,6.8z M5.3,4c0,0,0.1-0.1,0.1-0.1s0-0.1,0.1-0.1c0-0.1,0-0.1,0-0.1L5.3,3.6
		L5.1,3.9L5.3,4C5.2,4.1,5.2,4,5.3,4z M5.1,4.7L5.1,4.7L5.1,4.7L5.1,4.7L5.1,4.7z M5.2,4.5c0.1,0.1,0.1,0.1,0.2,0.1
		c0-0.1,0-0.2,0.1-0.3S5.5,4.1,5.6,4L5.6,4C5.5,4.2,5.3,4.3,5.1,4.3C5.1,4.3,5.1,4.4,5.2,4.5z M5.1,5.8L5.1,5.8L5.1,5.8L5.1,5.8z
		 M5.1,7.5L5.1,7.5L5.1,7.5L5.1,7.5z M5.1,8L5.1,8L5.1,8L5.1,8L5.1,8z M5.1,8.2L5.1,8.2L5.1,8.2L5.1,8.2z M5.1,6.2l0.2,0L5.1,6.2
		L5.1,6.2L5.1,6.2z M5.1,9.3L5.1,9.3L5.1,9.3L5.1,9.3L5.1,9.3z M5.2,8.6L5.2,8.6L5.2,8.6L5.2,8.6L5.2,8.6z M5.2,8.4L5.2,8.4L5.2,8.4
		L5.2,8.4L5.2,8.4z M5.3,6.3L5.3,6.3L5.3,6.3L5.3,6.3L5.3,6.3z M5.3,6.7L5.3,6.7L5.3,6.7L5.3,6.7L5.3,6.7z M5.3,8.2L5.3,8.2L5.3,8.2
		L5.3,8.2L5.3,8.2z M5.3,7.6L5.3,7.6L5.3,7.6L5.3,7.6L5.3,7.6z M5.5,5.2l0.1,0.1l0.1-0.1L5.6,5.1l0.1-0.2c0,0,0-0.1,0-0.1
		c0,0,0-0.1-0.1-0.1c0,0.1,0,0.2,0,0.2C5.5,5.1,5.5,5.1,5.5,5.2L5.3,5.1L5.3,5.3L5.5,5.2z M5.3,5.6L5.3,5.6L5.3,5.6L5.3,5.6L5.3,5.6
		z M5.3,8.9l0.1-0.1C5.3,8.8,5.3,8.8,5.3,8.9z M5.3,3.2c0,0,0,0.1,0,0.1L5.3,3.2l0-0.1h0C5.3,3.1,5.3,3.2,5.3,3.2z M5.3,5.4L5.3,5.4
		L5.3,5.4L5.3,5.4L5.3,5.4z M5.3,5.9L5.3,5.9L5.3,5.9L5.3,5.9L5.3,5.9z M5.3,6.6L5.3,6.6L5.3,6.6L5.3,6.6L5.3,6.6z M5.3,8.1L5.3,8.1
		L5.3,8.1L5.3,8.1L5.3,8.1z M5.3,8.9L5.3,8.9L5.3,8.9L5.3,8.9L5.3,8.9z M5.3,9.3L5.3,9.3L5.3,9.3L5.3,9.3L5.3,9.3z M5.5,7.4L5.5,7.4
		H5.3H5.5z M5.3,7.9L5.3,7.9L5.3,7.9L5.3,7.9L5.3,7.9z M5.4,3.8L5.4,3.8L5.4,3.8L5.4,3.8L5.4,3.8z M5.4,4L5.4,4L5.4,4L5.4,4L5.4,4z
		 M5.4,4.9L5.4,4.9L5.4,4.9L5.4,4.9L5.4,4.9z M5.4,6L5.4,6L5.4,6L5.4,6L5.4,6z M5.4,8.7l0.2,0c0,0,0,0,0,0s0,0,0,0L5.4,8.7z
		 M5.7,6.8c0-0.1,0-0.1,0.1-0.1c0,0,0.1,0,0.1,0c0,0,0.1,0,0.1-0.1c-0.1,0-0.2,0.1-0.3,0.1c-0.1,0-0.2,0.1-0.3,0.1l0.1,0.1L5.4,6.8
		L5.7,6.8L5.6,6.9C5.6,6.9,5.6,6.8,5.7,6.8z M5.5,5.7L5.5,5.7L5.5,5.7L5.5,5.7L5.5,5.7z M5.6,3.2c0,0-0.1,0.1-0.1,0.2L5.6,3.2
		c0.1,0,0.1-0.1,0.1-0.1C5.7,3.1,5.6,3.2,5.6,3.2z M5.5,6.5C5.6,6.5,5.6,6.6,5.5,6.5l0.2-0.1c0,0-0.1,0-0.1-0.1c0,0-0.1-0.1-0.1-0.1
		l0,0.1C5.5,6.4,5.5,6.5,5.5,6.5z M5.5,8.2L5.5,8.2L5.5,8.2L5.5,8.2L5.5,8.2z M5.5,9.9l0.1-0.1l0,0C5.6,9.8,5.5,9.8,5.5,9.9z
		 M5.6,3.1L5.6,3.1L5.6,3.1L5.6,3.1L5.6,3.1z M5.6,3.6L5.6,3.6L5.6,3.6L5.6,3.6L5.6,3.6z M5.5,7.1L5.5,7.1L5.5,7.1L5.5,7.1L5.5,7.1z
		 M5.6,9.1L5.6,9.1L5.6,9.1L5.6,9.1L5.6,9.1z M5.6,8.3L5.6,8.3L5.6,8.3L5.6,8.3L5.6,8.3z M5.6,2.9L5.6,2.9L5.6,2.9L5.6,2.9L5.6,2.9z
		 M5.7,6L5.6,6C5.6,6,5.7,6,5.7,6z M5.6,3.5L5.6,3.5L5.6,3.5L5.6,3.5L5.6,3.5z M5.6,3.9l0.1,0L5.6,3.9L5.6,3.9L5.6,3.9z M5.6,4.3
		L5.6,4.3L5.6,4.3L5.6,4.3L5.6,4.3z M5.6,4.6L5.6,4.6L5.6,4.6L5.6,4.6L5.6,4.6z M5.6,6.7l0.2,0c0,0,0,0,0,0c0,0,0,0,0,0L5.6,6.7z
		 M5.6,7.1L5.6,7.1L5.6,7.1L5.6,7.1L5.6,7.1z M5.6,7.8L5.6,7.8L5.6,7.8L5.6,7.8L5.6,7.8z M5.6,8.4L5.6,8.4L5.6,8.4L5.6,8.4L5.6,8.4z
		 M5.6,3.6L5.6,3.6L5.6,3.6L5.6,3.6L5.6,3.6z M5.7,9.2C5.7,9.1,5.7,9.1,5.7,9.2L5.7,9.2C5.7,9.2,5.7,9.2,5.7,9.2z M5.9,9.2
		c0,0-0.1,0-0.2,0s-0.1,0-0.1,0.1l0.1,0.1L5.9,9.2z M5.7,3.5L5.7,3.5L5.7,3.5L5.7,3.5L5.7,3.5z M5.7,4.7L5.7,4.7L5.7,4.7L5.7,4.7
		L5.7,4.7z M5.8,6.1L5.8,6.1L5.8,6.1L5.8,6.1L5.8,6.1z M5.8,7L5.8,7L5.8,7L5.8,7L5.8,7z M5.8,7.6L5.8,7.6L5.8,7.6L5.8,7.6L5.8,7.6z
		 M5.8,8.1L5.8,8.1L5.8,8.1L5.8,8.1L5.8,8.1z M5.8,8.4L5.8,8.4L5.8,8.4L5.8,8.4L5.8,8.4z M5.8,2.9L5.8,2.9L5.8,2.9z M5.8,3.3
		L5.8,3.3L5.8,3.3L5.8,3.3z M5.8,4.2C5.8,4.2,5.8,4.2,5.8,4.2L5.8,4.2L5.8,4.2z M5.9,7.9L6,7.8c0,0,0-0.1,0-0.1s0-0.1-0.1-0.1
		L5.8,7.7L5.9,7.9L5.9,7.9z M5.8,9.6L5.8,9.6L5.8,9.6L5.8,9.6z M5.8,5.9L5.8,5.9L5.8,5.9L5.8,5.9L5.8,5.9z M5.8,6.3L5.8,6.3L5.8,6.3
		L5.8,6.3L5.8,6.3z M5.9,3.7c0,0,0.1,0,0.2,0c0.1,0,0.1,0,0.2,0c0,0,0.1,0.1,0.1,0.1c0,0,0,0,0,0.1c0-0.1,0.1-0.1,0.1-0.2
		c0,0,0-0.1,0-0.1c0,0-0.1,0-0.1,0c0,0-0.1,0-0.1,0c0,0,0,0,0-0.1l0.1-0.1c-0.1,0-0.1,0-0.2,0.1C5.9,3.5,5.8,3.6,5.9,3.7
		C5.8,3.7,5.9,3.7,5.9,3.7z M6,9.9L6,9.9L5.8,9.8C5.9,9.8,5.9,9.9,6,9.9z M5.9,2.6l0.2,0c0,0,0,0,0,0c0,0,0,0,0,0L5.9,2.6z M5.9,5.2
		L5.9,5.2L5.9,5.2L5.9,5.2L5.9,5.2z M5.9,7.3L5.9,7.3L5.9,7.3L5.9,7.3L5.9,7.3z M6,5.6H5.9v0.1L6,5.6z M5.9,6.8L5.9,6.8L5.9,6.8
		L5.9,6.8L5.9,6.8z M6,8.9L6,8.9L6,8.9L6,8.9z M5.9,9.5c0,0.1,0,0.1,0,0.1C5.9,9.6,6,9.6,5.9,9.5C6,9.5,6,9.5,6,9.4L5.9,9.5
		C6,9.4,6,9.5,5.9,9.5z M6,3L6,3L6,3L6,3L6,3z M6,3.3L6,3.3L6,3.3L6,3.3L6,3.3z M6,4.2L6,4.2L6,4.2L6,4.2L6,4.2z M6.1,4.7
		c0,0,0.1,0,0.1,0s0.1-0.1,0.1-0.1L6.1,4.7L6.1,4.7z M6,5.8C6,5.8,6,5.8,6,5.8C6,5.8,6,5.8,6,5.8L6,5.8L6,5.8L6,5.8z M6,6.3
		c0,0,0.1,0,0.1,0L6,6.2L6,6.3C6,6.2,6,6.3,6,6.3z M6,7.6L6,7.6L6,7.6L6,7.6L6,7.6z M6,8.6L6,8.6L6,8.6L6,8.6L6,8.6z M6,9.7L6,9.7
		L6,9.7L6,9.7L6,9.7z M6,5l0.2-0.1l0,0L6,5z M6.2,4.2c0-0.1,0-0.1,0.1-0.1C6.2,4.1,6.2,4.1,6.2,4.2c-0.1,0-0.1,0-0.1,0.1l0.1,0.1
		C6.2,4.3,6.2,4.3,6.2,4.2z M6,8.4L6,8.4L6,8.4L6,8.4L6,8.4z M6.1,9.2L6.1,9.2L6.1,9.2L6.1,9.2z M6.1,5.2L6.1,5.2L6.1,5.2L6.1,5.2z
		 M6.3,7.1l0.1-0.2L6.3,7L6.1,6.9C6.1,7,6.2,7.1,6.3,7.1z M6.5,9.7L6.5,9.7h0.1c0,0,0,0,0-0.1s-0.1,0-0.1-0.1c0,0-0.1,0-0.1-0.1
		s0-0.1,0-0.1h0L6.2,9.5l0.1,0.1L6.1,9.9L6.5,9.7z M6.2,3.3L6.2,3.3L6.2,3.3L6.2,3.3z M6.2,5.1L6.2,5.1L6.2,5.1L6.2,5.1z M6.2,7.5
		l0.2,0L6.2,7.5L6.2,7.5L6.2,7.5z M6.2,8.6L6.2,8.6L6.2,8.6L6.2,8.6z M6.3,2.8L6.3,2.8L6.3,2.8L6.3,2.8z M6.2,3.5l0.2,0l0,0L6.2,3.5
		z M6.3,6.1L6.3,6.1L6.3,6.1L6.3,6.1z M6.3,6.2L6.3,6.2L6.3,6.2L6.3,6.2z M6.3,9.2L6.3,9.2L6.3,9.2L6.3,9.2z M6.3,5.8L6.3,5.8
		L6.3,5.8L6.3,5.8z M6.3,6.5L6.3,6.5L6.3,6.5L6.3,6.5L6.3,6.5z M6.4,8.5L6.3,8.6C6.4,8.6,6.4,8.5,6.4,8.5z M6.3,2.3L6.3,2.3L6.3,2.3
		L6.3,2.3z M6.3,2.5L6.3,2.5L6.3,2.5L6.3,2.5z M6.3,4.8L6.3,4.8L6.3,4.8L6.3,4.8z M6.3,5.1L6.3,5.1L6.3,5.1L6.3,5.1z M6.3,7.3
		L6.3,7.3L6.3,7.3L6.3,7.3z M6.3,7.4L6.3,7.4L6.3,7.4L6.3,7.4z M6.3,9.1L6.3,9.1L6.3,9.1L6.3,9.1z M6.4,7.5L6.4,7.5L6.4,7.5L6.4,7.5
		z M6.4,4.1L6.4,4.1L6.4,4.1L6.4,4.1z M6.4,4.2L6.4,4.2L6.4,4.2L6.4,4.2z M6.4,9.3L6.4,9.3L6.4,9.3L6.4,9.3z M6.4,8.7L6.4,8.7
		L6.4,8.7L6.4,8.7L6.4,8.7z M6.6,9.5L6.6,9.5L6.6,9.5L6.6,9.5z"/>
	<path d="M9.6,9.8c0.3,0,0.6,0,0.8,0c0.2,0,0.3-0.1,0.4-0.1S11,9.4,11,9.2c0-0.2,0-0.4,0-0.8v-5c0-0.1-0.1-0.1-0.3-0.2
		c-0.1,0-0.3-0.1-0.4-0.1c-0.2,0-0.3,0-0.5,0s-0.3,0-0.3,0L9.5,3.1L9.5,3c0.5,0,1-0.1,1.4-0.2s0.7-0.3,1-0.5
		c0.3-0.2,0.5-0.3,0.7-0.5c0.2-0.1,0.3-0.2,0.5-0.2l0.3,0l0.1,0.1c0,1.1,0,2.2,0,3.2s0,2.2,0,3.2c0,0.5,0,0.9,0.1,1.3
		c0.1,0.1,0.2,0.2,0.3,0.2s0.3,0,0.4,0h0.3l0.2-0.1l0.2,0.1l-0.1,0.3c-0.4-0.1-0.7-0.1-1.1-0.1c-0.4,0-0.7,0-1.1,0c-0.5,0-1,0-1.5,0
		s-1,0-1.5,0l-0.1-0.1L9.6,9.8z M11.1,9.7L11.1,9.7L11.1,9.7L11.1,9.7z M11.3,9.5L11.3,9.5v0.1V9.5z M11.3,9.7L11.3,9.7L11.3,9.7
		L11.3,9.7C11.3,9.7,11.3,9.7,11.3,9.7z M11.4,7.6L11.4,7.6L11.4,7.6L11.4,7.6z M11.4,9.3L11.4,9.3C11.4,9.3,11.4,9.3,11.4,9.3
		C11.4,9.3,11.4,9.3,11.4,9.3L11.4,9.3L11.4,9.3z M11.4,4.2l0.2,0l0,0L11.4,4.2z M11.5,5.9L11.5,5.9L11.5,5.9L11.5,5.9z M11.5,9.8
		L11.5,9.8L11.5,9.8L11.5,9.8z M11.5,4.7L11.5,4.7L11.5,4.7L11.5,4.7L11.5,4.7z M11.5,6.3L11.5,6.3L11.5,6.3L11.5,6.3z M11.5,8
		L11.5,8L11.5,8L11.5,8z M11.5,8.9L11.5,8.9L11.5,8.9L11.5,8.9z M11.5,6.8L11.5,6.8L11.5,6.8L11.5,6.8L11.5,6.8z M11.6,3.6
		c0,0,0,0.1,0.1,0.1c0-0.1,0-0.1,0-0.1s0.1-0.1,0.1-0.1l-0.1-0.1l-0.1,0.2C11.5,3.5,11.5,3.6,11.6,3.6z M11.6,5.1c0,0-0.1,0-0.1,0.1
		L11.9,5l-0.1-0.2l0,0l-0.2,0.1L11.6,5.1C11.7,5,11.6,5.1,11.6,5.1z M11.6,6.6c0,0,0.1,0,0.1,0l0.1-0.2l-0.1,0L11.6,6.6
		C11.6,6.5,11.6,6.6,11.6,6.6z M11.7,9.7c0.1,0.1,0.1,0.1,0.1,0.2c0,0,0.1-0.1,0.1-0.2c0,0,0-0.1,0-0.1s0-0.1-0.1-0.1l-0.3,0.2v0
		C11.6,9.6,11.7,9.7,11.7,9.7z M11.6,4.6L11.6,4.6L11.6,4.6L11.6,4.6z M11.6,5.7L11.6,5.7L11.6,5.7L11.6,5.7z M11.6,8.3L11.6,8.3
		L11.6,8.3L11.6,8.3z M11.6,9.9L11.6,9.9L11.6,9.9L11.6,9.9z M11.7,6.1L11.7,6.1L11.7,6.1L11.7,6.1z M11.6,9.1
		C11.6,9.1,11.6,9.2,11.6,9.1h0.3c0,0-0.1-0.1-0.1-0.1s-0.1-0.1-0.1-0.2l-0.1,0.1v0C11.6,9,11.6,9,11.6,9.1z M11.7,5.4L11.7,5.4
		L11.7,5.4L11.7,5.4z M11.6,6.3c0,0,0.1,0,0.1-0.1L11.6,6.3z M11.7,6.8L11.7,6.8L11.7,6.8L11.7,6.8z M11.9,4c0,0,0.1-0.1,0.1-0.1
		s0-0.1,0.1-0.1c0-0.1,0-0.1,0-0.1l-0.1-0.1l-0.2,0.3L11.9,4C11.8,4.1,11.8,4,11.9,4z M11.7,4.7L11.7,4.7L11.7,4.7L11.7,4.7
		L11.7,4.7z M11.8,4.5c0.1,0.1,0.1,0.1,0.2,0.1c0-0.1,0-0.2,0.1-0.3s0.1-0.2,0.2-0.3L12.2,4c-0.1,0.2-0.2,0.3-0.5,0.3
		C11.7,4.3,11.7,4.4,11.8,4.5z M11.7,5.8L11.7,5.8L11.7,5.8L11.7,5.8z M11.7,7.5L11.7,7.5L11.7,7.5L11.7,7.5z M11.7,8L11.7,8L11.7,8
		L11.7,8L11.7,8z M11.7,8.2L11.7,8.2L11.7,8.2L11.7,8.2z M11.7,6.2l0.2,0L11.7,6.2L11.7,6.2L11.7,6.2z M11.7,9.3L11.7,9.3L11.7,9.3
		L11.7,9.3L11.7,9.3z M11.8,8.6L11.8,8.6L11.8,8.6L11.8,8.6L11.8,8.6z M11.8,8.4L11.8,8.4L11.8,8.4L11.8,8.4L11.8,8.4z M11.9,6.3
		L11.9,6.3L11.9,6.3L11.9,6.3L11.9,6.3z M11.9,6.7L11.9,6.7L11.9,6.7L11.9,6.7L11.9,6.7z M11.9,8.2L11.9,8.2L11.9,8.2L11.9,8.2
		L11.9,8.2z M11.9,7.6L11.9,7.6L11.9,7.6L11.9,7.6L11.9,7.6z M12.1,5.2l0.1,0.1l0.1-0.1l-0.1-0.1l0.1-0.2c0,0,0-0.1,0-0.1
		c0,0,0-0.1-0.1-0.1c0,0.1,0,0.2,0,0.2C12.1,5.1,12.1,5.1,12.1,5.2l-0.2-0.1l-0.1,0.2L12.1,5.2z M11.9,5.6L11.9,5.6L11.9,5.6
		L11.9,5.6L11.9,5.6z M11.9,8.9l0.1-0.1C11.9,8.8,11.9,8.8,11.9,8.9z M11.9,3.2c0,0,0,0.1,0,0.1L11.9,3.2l0-0.1h0
		C11.9,3.1,11.9,3.2,11.9,3.2z M11.9,5.4L11.9,5.4L11.9,5.4L11.9,5.4L11.9,5.4z M11.9,5.9L11.9,5.9L11.9,5.9L11.9,5.9L11.9,5.9z
		 M11.9,6.6L11.9,6.6L11.9,6.6L11.9,6.6L11.9,6.6z M11.9,8.1L11.9,8.1L11.9,8.1L11.9,8.1L11.9,8.1z M11.9,8.9L11.9,8.9L11.9,8.9
		L11.9,8.9L11.9,8.9z M11.9,9.3L11.9,9.3L11.9,9.3L11.9,9.3L11.9,9.3z M12.1,7.4L12.1,7.4h-0.1H12.1z M11.9,7.9L11.9,7.9L11.9,7.9
		L11.9,7.9L11.9,7.9z M12,3.8L12,3.8L12,3.8L12,3.8L12,3.8z M12,4L12,4L12,4L12,4L12,4z M12,4.9L12,4.9L12,4.9L12,4.9L12,4.9z M12,6
		L12,6L12,6L12,6L12,6z M12,8.7l0.2,0c0,0,0,0,0,0s0,0,0,0L12,8.7z M12.2,6.8c0-0.1,0-0.1,0.1-0.1c0,0,0.1,0,0.1,0
		c0,0,0.1,0,0.1-0.1c-0.1,0-0.2,0.1-0.3,0.1c-0.1,0-0.2,0.1-0.3,0.1l0.1,0.1L12,6.8L12.2,6.8l-0.1,0.1C12.2,6.9,12.2,6.8,12.2,6.8z
		 M12.1,5.7L12.1,5.7L12.1,5.7L12.1,5.7L12.1,5.7z M12.2,3.2c0,0-0.1,0.1-0.1,0.2L12.2,3.2c0.1,0,0.1-0.1,0.1-0.1
		C12.2,3.1,12.2,3.2,12.2,3.2z M12.1,6.5C12.2,6.5,12.2,6.6,12.1,6.5l0.2-0.1c0,0-0.1,0-0.1-0.1c0,0-0.1-0.1-0.1-0.1l0,0.1
		C12.1,6.4,12.1,6.5,12.1,6.5z M12.1,8.2L12.1,8.2L12.1,8.2L12.1,8.2L12.1,8.2z M12.1,9.9l0.1-0.1l0,0C12.1,9.8,12.1,9.8,12.1,9.9z
		 M12.2,3.1L12.2,3.1L12.2,3.1L12.2,3.1L12.2,3.1z M12.2,3.6L12.2,3.6L12.2,3.6L12.2,3.6L12.2,3.6z M12.1,7.1L12.1,7.1L12.1,7.1
		L12.1,7.1L12.1,7.1z M12.2,9.1L12.2,9.1L12.2,9.1L12.2,9.1L12.2,9.1z M12.1,8.3L12.1,8.3L12.1,8.3L12.1,8.3L12.1,8.3z M12.2,2.9
		L12.2,2.9L12.2,2.9L12.2,2.9L12.2,2.9z M12.3,6L12.2,6C12.2,6,12.2,6,12.3,6z M12.2,3.5L12.2,3.5L12.2,3.5L12.2,3.5L12.2,3.5z
		 M12.2,3.9l0.1,0L12.2,3.9L12.2,3.9L12.2,3.9z M12.2,4.3L12.2,4.3L12.2,4.3L12.2,4.3L12.2,4.3z M12.2,4.6L12.2,4.6L12.2,4.6
		L12.2,4.6L12.2,4.6z M12.2,6.7l0.2,0c0,0,0,0,0,0c0,0,0,0,0,0L12.2,6.7z M12.2,7.1L12.2,7.1L12.2,7.1L12.2,7.1L12.2,7.1z M12.2,7.8
		L12.2,7.8L12.2,7.8L12.2,7.8L12.2,7.8z M12.2,8.4L12.2,8.4L12.2,8.4L12.2,8.4L12.2,8.4z M12.2,3.6L12.2,3.6L12.2,3.6L12.2,3.6
		L12.2,3.6z M12.3,9.2C12.3,9.1,12.3,9.1,12.3,9.2L12.3,9.2C12.2,9.2,12.3,9.2,12.3,9.2z M12.5,9.2c0,0-0.1,0-0.2,0s-0.1,0-0.1,0.1
		l0.1,0.1L12.5,9.2z M12.3,3.5L12.3,3.5L12.3,3.5L12.3,3.5L12.3,3.5z M12.3,4.7L12.3,4.7L12.3,4.7L12.3,4.7L12.3,4.7z M12.4,6.1
		L12.4,6.1L12.4,6.1L12.4,6.1L12.4,6.1z M12.4,7L12.4,7L12.4,7L12.4,7L12.4,7z M12.4,7.6L12.4,7.6L12.4,7.6L12.4,7.6L12.4,7.6z
		 M12.4,8.1L12.4,8.1L12.4,8.1L12.4,8.1L12.4,8.1z M12.4,8.4L12.4,8.4L12.4,8.4L12.4,8.4L12.4,8.4z M12.4,2.9L12.4,2.9L12.4,2.9z
		 M12.4,3.3L12.4,3.3L12.4,3.3L12.4,3.3z M12.4,4.2C12.4,4.2,12.4,4.2,12.4,4.2L12.4,4.2L12.4,4.2z M12.5,7.9l0.1-0.1
		c0,0,0-0.1,0-0.1s0-0.1-0.1-0.1l-0.1,0.1L12.5,7.9L12.5,7.9z M12.4,9.6L12.4,9.6L12.4,9.6L12.4,9.6z M12.4,5.9L12.4,5.9L12.4,5.9
		L12.4,5.9L12.4,5.9z M12.4,6.3L12.4,6.3L12.4,6.3L12.4,6.3L12.4,6.3z M12.5,3.7c0,0,0.1,0,0.2,0c0.1,0,0.1,0,0.2,0
		c0,0,0.1,0.1,0.1,0.1c0,0,0,0,0,0.1c0-0.1,0.1-0.1,0.1-0.2c0,0,0-0.1,0-0.1c0,0-0.1,0-0.1,0c0,0-0.1,0-0.1,0c0,0,0,0,0-0.1l0.1-0.1
		c-0.1,0-0.1,0-0.2,0.1C12.5,3.5,12.4,3.6,12.5,3.7C12.4,3.7,12.5,3.7,12.5,3.7z M12.6,9.9L12.6,9.9l-0.1-0.1
		C12.5,9.8,12.5,9.9,12.6,9.9z M12.5,2.6l0.2,0c0,0,0,0,0,0c0,0,0,0,0,0L12.5,2.6z M12.5,5.2L12.5,5.2L12.5,5.2L12.5,5.2L12.5,5.2z
		 M12.5,7.3L12.5,7.3L12.5,7.3L12.5,7.3L12.5,7.3z M12.6,5.6h-0.1v0.1L12.6,5.6z M12.5,6.8L12.5,6.8L12.5,6.8L12.5,6.8L12.5,6.8z
		 M12.6,8.9L12.6,8.9L12.6,8.9L12.6,8.9z M12.5,9.5c0,0.1,0,0.1,0,0.1C12.5,9.6,12.6,9.6,12.5,9.5c0.1,0,0.1,0,0.1-0.1L12.5,9.5
		C12.6,9.4,12.5,9.5,12.5,9.5z M12.6,3L12.6,3L12.6,3L12.6,3L12.6,3z M12.6,3.3L12.6,3.3L12.6,3.3L12.6,3.3L12.6,3.3z M12.6,4.2
		L12.6,4.2L12.6,4.2L12.6,4.2L12.6,4.2z M12.7,4.7c0,0,0.1,0,0.1,0s0.1-0.1,0.1-0.1L12.7,4.7L12.7,4.7z M12.6,5.8
		C12.6,5.8,12.6,5.8,12.6,5.8C12.6,5.8,12.6,5.8,12.6,5.8L12.6,5.8L12.6,5.8L12.6,5.8z M12.6,6.3c0,0,0.1,0,0.1,0l-0.2-0.1L12.6,6.3
		C12.6,6.2,12.6,6.3,12.6,6.3z M12.6,7.6L12.6,7.6L12.6,7.6L12.6,7.6L12.6,7.6z M12.6,8.6L12.6,8.6L12.6,8.6L12.6,8.6L12.6,8.6z
		 M12.6,9.7L12.6,9.7L12.6,9.7L12.6,9.7L12.6,9.7z M12.6,5l0.2-0.1l0,0L12.6,5z M12.8,4.2c0-0.1,0-0.1,0.1-0.1
		C12.8,4.1,12.8,4.1,12.8,4.2c-0.1,0-0.1,0-0.1,0.1l0.1,0.1C12.8,4.3,12.8,4.3,12.8,4.2z M12.6,8.4L12.6,8.4L12.6,8.4L12.6,8.4
		L12.6,8.4z M12.7,9.2L12.7,9.2L12.7,9.2L12.7,9.2z M12.7,5.2L12.7,5.2L12.7,5.2L12.7,5.2z M12.9,7.1L13,6.9L12.9,7l-0.2-0.1
		C12.7,7,12.8,7.1,12.9,7.1z M13.1,9.7L13.1,9.7h0.1c0,0,0,0,0-0.1s-0.1,0-0.1-0.1c0,0-0.1,0-0.1-0.1s0-0.1,0-0.1h0l-0.1,0.1
		l0.1,0.1l-0.1,0.3L13.1,9.7z M12.8,3.3L12.8,3.3L12.8,3.3L12.8,3.3z M12.8,5.1L12.8,5.1L12.8,5.1L12.8,5.1z M12.8,7.5l0.2,0
		L12.8,7.5L12.8,7.5L12.8,7.5z M12.8,8.6L12.8,8.6L12.8,8.6L12.8,8.6z M12.9,2.8L12.9,2.8L12.9,2.8L12.9,2.8z M12.8,3.5l0.2,0l0,0
		L12.8,3.5z M12.9,6.1L12.9,6.1L12.9,6.1L12.9,6.1z M12.9,6.2L12.9,6.2L12.9,6.2L12.9,6.2z M12.9,9.2L12.9,9.2L12.9,9.2L12.9,9.2z
		 M12.9,5.8L12.9,5.8L12.9,5.8L12.9,5.8z M12.8,6.5L12.8,6.5L12.8,6.5L12.8,6.5L12.8,6.5z M13,8.5l-0.1,0.1C13,8.6,13,8.5,13,8.5z
		 M12.9,2.3L12.9,2.3L12.9,2.3L12.9,2.3z M12.9,2.5L12.9,2.5L12.9,2.5L12.9,2.5z M12.9,4.8L12.9,4.8L12.9,4.8L12.9,4.8z M12.9,5.1
		L12.9,5.1L12.9,5.1L12.9,5.1z M12.9,7.3L12.9,7.3L12.9,7.3L12.9,7.3z M12.9,7.4L12.9,7.4L12.9,7.4L12.9,7.4z M12.9,9.1L12.9,9.1
		L12.9,9.1L12.9,9.1z M12.9,7.5L12.9,7.5L12.9,7.5L12.9,7.5z M13,4.1L13,4.1L13,4.1L13,4.1z M13,4.2L13,4.2L13,4.2L13,4.2z M13,9.3
		L13,9.3L13,9.3L13,9.3z M13,8.7L13,8.7L13,8.7L13,8.7L13,8.7z M13.2,9.5L13.2,9.5L13.2,9.5L13.2,9.5z"/>
</g>
</svg>
