<?xml version="1.0" encoding="utf-8"?>
<!-- Generator: Adobe Illustrator 17.1.0, SVG Export Plug-In . SVG Version: 6.00 Build 0)  -->
<!DOCTYPE svg PUBLIC "-//W3C//DTD SVG 1.1//EN" "http://www.w3.org/Graphics/SVG/1.1/DTD/svg11.dtd">
<svg version="1.1" id="Layer_1" xmlns="http://www.w3.org/2000/svg" xmlns:xlink="http://www.w3.org/1999/xlink" x="0px" y="0px"
	 width="17.8px" height="12.2px" viewBox="0 0 17.8 12.2" enable-background="new 0 0 17.8 12.2" xml:space="preserve">
<g>
	<path d="M2.2,9.8c0.3,0,0.6,0,0.8,0c0.2,0,0.3-0.1,0.4-0.1s0.2-0.2,0.2-0.4c0-0.2,0-0.4,0-0.8v-5c0-0.1-0.1-0.1-0.3-0.2
		C3.3,3.3,3.1,3.3,3,3.3c-0.2,0-0.3,0-0.5,0s-0.3,0-0.3,0L2.1,3.1L2.1,3c0.5,0,1-0.1,1.4-0.2s0.7-0.3,1-0.5C4.8,2.2,5.1,2,5.2,1.9
		c0.2-0.1,0.3-0.2,0.5-0.2l0.3,0l0.1,0.1c0,1.1,0,2.2,0,3.2s0,2.2,0,3.2c0,0.5,0,0.9,0.1,1.3c0.1,0.1,0.2,0.2,0.3,0.2s0.3,0,0.4,0
		h0.3l0.2-0.1l0.2,0.1l-0.1,0.3c-0.4-0.1-0.7-0.1-1.1-0.1c-0.4,0-0.7,0-1.1,0c-0.5,0-1,0-1.5,0s-1,0-1.5,0l-0.1-0.1L2.2,9.8z
		 M3.7,9.7L3.7,9.7L3.7,9.7L3.7,9.7z M3.9,9.5L3.9,9.5v0.1V9.5z M3.9,9.7L3.9,9.7L3.9,9.7L3.9,9.7C3.9,9.7,3.9,9.7,3.9,9.7z M4,7.6
		L4,7.6L4,7.6L4,7.6z M4,9.3L4,9.3C4,9.3,4,9.3,4,9.3C4.1,9.3,4.1,9.3,4,9.3L4,9.3L4,9.3z M4,4.2l0.2,0l0,0L4,4.2z M4.1,5.9L4.1,5.9
		L4.1,5.9L4.1,5.9z M4.1,9.8L4.1,9.8L4.1,9.8L4.1,9.8z M4.1,4.7L4.1,4.7L4.1,4.7L4.1,4.7L4.1,4.7z M4.1,6.3L4.1,6.3L4.1,6.3L4.1,6.3
		z M4.1,8L4.1,8L4.1,8L4.1,8z M4.1,8.9L4.1,8.9L4.1,8.9L4.1,8.9z M4.1,6.8L4.1,6.8L4.1,6.8L4.1,6.8L4.1,6.8z M4.2,3.6
		c0,0,0,0.1,0.1,0.1c0-0.1,0-0.1,0-0.1s0.1-0.1,0.1-0.1L4.3,3.3L4.1,3.5C4.1,3.5,4.2,3.6,4.2,3.6z M4.2,5.1c0,0-0.1,0-0.1,0.1L4.5,5
		L4.4,4.9l0,0L4.2,4.9L4.2,5.1C4.3,5,4.3,5.1,4.2,5.1z M4.2,6.6c0,0,0.1,0,0.1,0l0.1-0.2l-0.1,0L4.2,6.6C4.2,6.5,4.2,6.6,4.2,6.6z
		 M4.3,9.7c0.1,0.1,0.1,0.1,0.1,0.2c0,0,0.1-0.1,0.1-0.2c0,0,0-0.1,0-0.1s0-0.1-0.1-0.1L4.1,9.6v0C4.2,9.6,4.3,9.7,4.3,9.7z
		 M4.2,4.6L4.2,4.6L4.2,4.6L4.2,4.6z M4.2,5.7L4.2,5.7L4.2,5.7L4.2,5.7z M4.2,8.3L4.2,8.3L4.2,8.3L4.2,8.3z M4.2,9.9L4.2,9.9
		L4.2,9.9L4.2,9.9z M4.3,6.1L4.3,6.1L4.3,6.1L4.3,6.1z M4.2,9.1C4.2,9.1,4.3,9.2,4.2,9.1h0.3C4.4,9,4.4,9,4.4,9S4.3,8.9,4.3,8.8
		L4.2,8.9v0C4.2,9,4.2,9,4.2,9.1z M4.3,5.4L4.3,5.4L4.3,5.4L4.3,5.4z M4.2,6.3c0,0,0.1,0,0.1-0.1L4.2,6.3z M4.3,6.8L4.3,6.8L4.3,6.8
		L4.3,6.8z M4.5,4c0,0,0.1-0.1,0.1-0.1s0-0.1,0.1-0.1c0-0.1,0-0.1,0-0.1L4.5,3.6L4.3,3.9L4.5,4C4.4,4.1,4.4,4,4.5,4z M4.3,4.7
		L4.3,4.7L4.3,4.7L4.3,4.7L4.3,4.7z M4.4,4.5c0.1,0.1,0.1,0.1,0.2,0.1c0-0.1,0-0.2,0.1-0.3S4.8,4.1,4.8,4L4.8,4
		C4.7,4.2,4.5,4.3,4.3,4.3C4.3,4.3,4.3,4.4,4.4,4.5z M4.4,5.8L4.4,5.8L4.4,5.8L4.4,5.8z M4.4,7.5L4.4,7.5L4.4,7.5L4.4,7.5z M4.4,8
		L4.4,8L4.4,8L4.4,8L4.4,8z M4.4,8.2L4.4,8.2L4.4,8.2L4.4,8.2z M4.4,6.2l0.2,0L4.4,6.2L4.4,6.2L4.4,6.2z M4.4,9.3L4.4,9.3L4.4,9.3
		L4.4,9.3L4.4,9.3z M4.4,8.6L4.4,8.6L4.4,8.6L4.4,8.6L4.4,8.6z M4.4,8.4L4.4,8.4L4.4,8.4L4.4,8.4L4.4,8.4z M4.5,6.3L4.5,6.3L4.5,6.3
		L4.5,6.3L4.5,6.3z M4.5,6.7L4.5,6.7L4.5,6.7L4.5,6.7L4.5,6.7z M4.5,8.2L4.5,8.2L4.5,8.2L4.5,8.2L4.5,8.2z M4.5,7.6L4.5,7.6L4.5,7.6
		L4.5,7.6L4.5,7.6z M4.7,5.2l0.1,0.1l0.1-0.1L4.8,5.1l0.1-0.2c0,0,0-0.1,0-0.1c0,0,0-0.1-0.1-0.1c0,0.1,0,0.2,0,0.2
		C4.8,5.1,4.7,5.1,4.7,5.2L4.6,5.1L4.5,5.3L4.7,5.2z M4.5,5.6L4.5,5.6L4.5,5.6L4.5,5.6L4.5,5.6z M4.5,8.9l0.1-0.1
		C4.5,8.8,4.5,8.8,4.5,8.9z M4.5,3.2c0,0,0,0.1,0,0.1L4.5,3.2l0-0.1h0C4.5,3.1,4.5,3.2,4.5,3.2z M4.6,5.4L4.6,5.4L4.6,5.4L4.6,5.4
		L4.6,5.4z M4.6,5.9L4.6,5.9L4.6,5.9L4.6,5.9L4.6,5.9z M4.6,6.6L4.6,6.6L4.6,6.6L4.6,6.6L4.6,6.6z M4.6,8.1L4.6,8.1L4.6,8.1L4.6,8.1
		L4.6,8.1z M4.5,8.9L4.5,8.9L4.5,8.9L4.5,8.9L4.5,8.9z M4.6,9.3L4.6,9.3L4.6,9.3L4.6,9.3L4.6,9.3z M4.7,7.4L4.7,7.4H4.6H4.7z
		 M4.6,7.9L4.6,7.9L4.6,7.9L4.6,7.9L4.6,7.9z M4.6,3.8L4.6,3.8L4.6,3.8L4.6,3.8L4.6,3.8z M4.6,4L4.6,4L4.6,4L4.6,4L4.6,4z M4.6,4.9
		L4.6,4.9L4.6,4.9L4.6,4.9L4.6,4.9z M4.6,6L4.6,6L4.6,6L4.6,6L4.6,6z M4.6,8.7l0.2,0c0,0,0,0,0,0s0,0,0,0L4.6,8.7z M4.9,6.8
		c0-0.1,0-0.1,0.1-0.1c0,0,0.1,0,0.1,0c0,0,0.1,0,0.1-0.1C5.1,6.5,5,6.6,4.9,6.6c-0.1,0-0.2,0.1-0.3,0.1l0.1,0.1L4.6,6.8L4.9,6.8
		L4.8,6.9C4.8,6.9,4.9,6.8,4.9,6.8z M4.7,5.7L4.7,5.7L4.7,5.7L4.7,5.7L4.7,5.7z M4.8,3.2c0,0-0.1,0.1-0.1,0.2L4.8,3.2
		c0.1,0,0.1-0.1,0.1-0.1C4.9,3.1,4.8,3.2,4.8,3.2z M4.7,6.5C4.8,6.5,4.8,6.6,4.7,6.5L5,6.4c0,0-0.1,0-0.1-0.1c0,0-0.1-0.1-0.1-0.1
		l0,0.1C4.7,6.4,4.7,6.5,4.7,6.5z M4.7,8.2L4.7,8.2L4.7,8.2L4.7,8.2L4.7,8.2z M4.7,9.9l0.1-0.1l0,0C4.8,9.8,4.7,9.8,4.7,9.9z
		 M4.8,3.1L4.8,3.1L4.8,3.1L4.8,3.1L4.8,3.1z M4.8,3.6L4.8,3.6L4.8,3.6L4.8,3.6L4.8,3.6z M4.7,7.1L4.7,7.1L4.7,7.1L4.7,7.1L4.7,7.1z
		 M4.8,9.1L4.8,9.1L4.8,9.1L4.8,9.1L4.8,9.1z M4.8,8.3L4.8,8.3L4.8,8.3L4.8,8.3L4.8,8.3z M4.8,2.9L4.8,2.9L4.8,2.9L4.8,2.9L4.8,2.9z
		 M4.9,6L4.8,6C4.8,6,4.9,6,4.9,6z M4.8,3.5L4.8,3.5L4.8,3.5L4.8,3.5L4.8,3.5z M4.8,3.9l0.1,0L4.8,3.9L4.8,3.9L4.8,3.9z M4.8,4.3
		L4.8,4.3L4.8,4.3L4.8,4.3L4.8,4.3z M4.8,4.6L4.8,4.6L4.8,4.6L4.8,4.6L4.8,4.6z M4.8,6.7l0.2,0c0,0,0,0,0,0c0,0,0,0,0,0L4.8,6.7z
		 M4.8,7.1L4.8,7.1L4.8,7.1L4.8,7.1L4.8,7.1z M4.8,7.8L4.8,7.8L4.8,7.8L4.8,7.8L4.8,7.8z M4.8,8.4L4.8,8.4L4.8,8.4L4.8,8.4L4.8,8.4z
		 M4.8,3.6L4.8,3.6L4.8,3.6L4.8,3.6L4.8,3.6z M4.9,9.2C4.9,9.1,4.9,9.1,4.9,9.2L4.9,9.2C4.9,9.2,4.9,9.2,4.9,9.2z M5.1,9.2
		c0,0-0.1,0-0.2,0s-0.1,0-0.1,0.1L5,9.4L5.1,9.2z M4.9,3.5L4.9,3.5L4.9,3.5L4.9,3.5L4.9,3.5z M5,4.7L5,4.7L5,4.7L5,4.7L5,4.7z
		 M5,6.1L5,6.1L5,6.1L5,6.1L5,6.1z M5,7L5,7L5,7L5,7L5,7z M5,7.6L5,7.6L5,7.6L5,7.6L5,7.6z M5,8.1L5,8.1L5,8.1L5,8.1L5,8.1z M5,8.4
		L5,8.4L5,8.4L5,8.4L5,8.4z M5,2.9L5,2.9L5,2.9z M5,3.3L5,3.3L5,3.3L5,3.3z M5,4.2C5,4.2,5,4.2,5,4.2L5,4.2L5,4.2z M5.1,7.9l0.1-0.1
		c0,0,0-0.1,0-0.1s0-0.1-0.1-0.1L5,7.7L5.1,7.9L5.1,7.9z M5,9.6L5,9.6L5,9.6L5,9.6z M5,5.9L5,5.9L5,5.9L5,5.9L5,5.9z M5,6.3L5,6.3
		L5,6.3L5,6.3L5,6.3z M5.1,3.7c0,0,0.1,0,0.2,0c0.1,0,0.1,0,0.2,0c0,0,0.1,0.1,0.1,0.1c0,0,0,0,0,0.1c0-0.1,0.1-0.1,0.1-0.2
		c0,0,0-0.1,0-0.1c0,0-0.1,0-0.1,0c0,0-0.1,0-0.1,0c0,0,0,0,0-0.1l0.1-0.1c-0.1,0-0.1,0-0.2,0.1C5.1,3.5,5,3.6,5.1,3.7
		C5,3.7,5.1,3.7,5.1,3.7z M5.2,9.9L5.2,9.9L5,9.8C5.1,9.8,5.1,9.9,5.2,9.9z M5.1,2.6l0.2,0c0,0,0,0,0,0c0,0,0,0,0,0L5.1,2.6z
		 M5.1,5.2L5.1,5.2L5.1,5.2L5.1,5.2L5.1,5.2z M5.1,7.3L5.1,7.3L5.1,7.3L5.1,7.3L5.1,7.3z M5.3,5.6H5.1v0.1L5.3,5.6z M5.1,6.8
		L5.1,6.8L5.1,6.8L5.1,6.8L5.1,6.8z M5.2,8.9L5.2,8.9L5.2,8.9L5.2,8.9z M5.1,9.5c0,0.1,0,0.1,0,0.1C5.1,9.6,5.2,9.6,5.1,9.5
		c0.1,0,0.1,0,0.1-0.1L5.1,9.5C5.2,9.4,5.2,9.5,5.1,9.5z M5.2,3L5.2,3L5.2,3L5.2,3L5.2,3z M5.2,3.3L5.2,3.3L5.2,3.3L5.2,3.3L5.2,3.3
		z M5.2,4.2L5.2,4.2L5.2,4.2L5.2,4.2L5.2,4.2z M5.3,4.7c0,0,0.1,0,0.1,0s0.1-0.1,0.1-0.1L5.3,4.7L5.3,4.7z M5.2,5.8
		C5.2,5.8,5.2,5.8,5.2,5.8C5.2,5.8,5.2,5.8,5.2,5.8L5.2,5.8L5.2,5.8L5.2,5.8z M5.2,6.3c0,0,0.1,0,0.1,0L5.2,6.2L5.2,6.3
		C5.2,6.2,5.2,6.3,5.2,6.3z M5.3,7.6L5.3,7.6L5.3,7.6L5.3,7.6L5.3,7.6z M5.3,8.6L5.3,8.6L5.3,8.6L5.3,8.6L5.3,8.6z M5.3,9.7L5.3,9.7
		L5.3,9.7L5.3,9.7L5.3,9.7z M5.2,5l0.2-0.1l0,0L5.2,5z M5.4,4.2c0-0.1,0-0.1,0.1-0.1C5.4,4.1,5.4,4.1,5.4,4.2c-0.1,0-0.1,0-0.1,0.1
		l0.1,0.1C5.4,4.3,5.4,4.3,5.4,4.2z M5.3,8.4L5.3,8.4L5.3,8.4L5.3,8.4L5.3,8.4z M5.3,9.2L5.3,9.2L5.3,9.2L5.3,9.2z M5.3,5.2L5.3,5.2
		L5.3,5.2L5.3,5.2z M5.5,7.1l0.1-0.2L5.5,7L5.3,6.9C5.3,7,5.4,7.1,5.5,7.1z M5.7,9.7L5.7,9.7h0.1c0,0,0,0,0-0.1s-0.1,0-0.1-0.1
		c0,0-0.1,0-0.1-0.1s0-0.1,0-0.1h0L5.4,9.5l0.1,0.1L5.3,9.9L5.7,9.7z M5.4,3.3L5.4,3.3L5.4,3.3L5.4,3.3z M5.4,5.1L5.4,5.1L5.4,5.1
		L5.4,5.1z M5.4,7.5l0.2,0L5.4,7.5L5.4,7.5L5.4,7.5z M5.4,8.6L5.4,8.6L5.4,8.6L5.4,8.6z M5.5,2.8L5.5,2.8L5.5,2.8L5.5,2.8z M5.4,3.5
		l0.2,0l0,0L5.4,3.5z M5.5,6.1L5.5,6.1L5.5,6.1L5.5,6.1z M5.5,6.2L5.5,6.2L5.5,6.2L5.5,6.2z M5.5,9.2L5.5,9.2L5.5,9.2L5.5,9.2z
		 M5.5,5.8L5.5,5.8L5.5,5.8L5.5,5.8z M5.5,6.5L5.5,6.5L5.5,6.5L5.5,6.5L5.5,6.5z M5.6,8.5L5.5,8.6C5.6,8.6,5.6,8.5,5.6,8.5z
		 M5.5,2.3L5.5,2.3L5.5,2.3L5.5,2.3z M5.5,2.5L5.5,2.5L5.5,2.5L5.5,2.5z M5.6,4.8L5.6,4.8L5.6,4.8L5.6,4.8z M5.6,5.1L5.6,5.1
		L5.6,5.1L5.6,5.1z M5.6,7.3L5.6,7.3L5.6,7.3L5.6,7.3z M5.5,7.4L5.5,7.4L5.5,7.4L5.5,7.4z M5.6,9.1L5.6,9.1L5.6,9.1L5.6,9.1z
		 M5.6,7.5L5.6,7.5L5.6,7.5L5.6,7.5z M5.6,4.1L5.6,4.1L5.6,4.1L5.6,4.1z M5.6,4.2L5.6,4.2L5.6,4.2L5.6,4.2z M5.6,9.3L5.6,9.3
		L5.6,9.3L5.6,9.3z M5.6,8.7L5.6,8.7L5.6,8.7L5.6,8.7L5.6,8.7z M5.8,9.5L5.8,9.5L5.8,9.5L5.8,9.5z"/>
	<path d="M9.5,5.3C9.3,5.2,9.2,5.1,9.1,5C9,4.9,8.9,4.8,8.8,4.7C8.7,4.5,8.7,4.4,8.7,4.2c0-0.1,0-0.3,0.1-0.5c0-0.2,0.1-0.4,0.2-0.6
		C9,2.9,9.1,2.8,9.2,2.6c0.1-0.2,0.2-0.2,0.4-0.2c0,0,0.1-0.1,0.1-0.1l0.1-0.1c0,0,0.1-0.1,0.1-0.1c0,0,0.1,0,0.1,0
		c0,0.1,0,0.1-0.1,0.2c0,0.1-0.1,0.1-0.1,0.2c0,0.1-0.1,0.1-0.1,0.2c0,0.1,0,0.2,0,0.3c0,0.2,0.1,0.3,0.2,0.4
		c0.1,0.1,0.3,0.1,0.4,0.2c0.2,0,0.3,0.1,0.4,0.1c0.1,0.1,0.2,0.1,0.2,0.3v0.7c-0.1,0.1-0.1,0.2-0.2,0.3c-0.1,0.1-0.1,0.2-0.2,0.3
		c-0.1,0.1-0.2,0.2-0.3,0.2S10,5.4,9.9,5.4S9.6,5.3,9.5,5.3z M10.8,8.8c-0.1-0.1-0.2-0.2-0.3-0.2s-0.2-0.1-0.4-0.2
		c-0.1,0-0.2-0.1-0.3-0.1c-0.1,0-0.2,0.1-0.3,0.2C9.4,8.6,9.4,8.7,9.4,8.9s0,0.2,0.1,0.3c0,0.1,0.1,0.2,0.1,0.2
		c0.1,0.1,0.1,0.1,0.1,0.2s0.1,0.1,0.1,0.2c0,0.1,0,0.2-0.1,0.3c-0.1,0.1-0.2,0.1-0.2,0.2c-0.4-0.1-0.6-0.3-0.6-0.7
		c0-0.3,0.1-0.6,0.2-0.9c0.2-0.3,0.4-0.5,0.6-0.7h0.1c0,0.2,0.1,0.3,0.3,0.3c0.1,0,0.2,0,0.3,0s0.2,0,0.3,0c0.1,0,0.1,0,0.1,0
		c0,0,0,0,0.1,0.1l0,0.1c0,0,0,0,0.1,0c0.1,0,0.2,0,0.3-0.1c0.1-0.1,0.2-0.1,0.4-0.1c0.1,0,0.2,0,0.3,0c0.2,0,0.3,0,0.6,0
		s0.4,0,0.7,0s0.4,0,0.6,0.1c0.2,0,0.4,0,0.5,0.1s0.2,0,0.3,0.1c0.1,0,0.2,0,0.3-0.1c0.1-0.1,0.2-0.2,0.3-0.3
		c0.1-0.1,0.1-0.2,0.2-0.4c0-0.1,0.1-0.2,0.1-0.4l0-0.1l0.1-0.1c0,0.1,0,0.2,0,0.2s0,0.2,0,0.2c-0.1,0.2-0.1,0.5-0.3,0.8
		c-0.1,0.3-0.3,0.6-0.4,0.9s-0.4,0.5-0.6,0.7s-0.5,0.3-0.8,0.3c-0.1,0-0.3,0-0.6-0.1s-0.5-0.2-0.8-0.3c-0.3-0.1-0.5-0.3-0.7-0.4
		C11.3,9.3,11.1,9.2,11,9C11,9,10.9,8.9,10.8,8.8z M9.2,3.8L9.2,3.8L9.2,3.8L9.2,3.8L9.2,3.8z M9.2,4.2L9.2,4.2L9.2,4.2L9.2,4.2z
		 M9.2,3.9L9.2,3.9L9.2,3.9L9.2,3.9L9.2,3.9z M9.3,4.2L9.3,4.2L9.3,4.2L9.3,4.2L9.3,4.2z M9.3,4.4L9.3,4.4L9.3,4.4L9.3,4.4L9.3,4.4z
		 M9.3,3.7L9.3,3.7L9.3,3.7L9.3,3.7L9.3,3.7z M9.7,4L9.5,3.8L9.3,3.9L9.4,4l0-0.1l0.1,0.2L9.7,4z M9.4,4.2C9.4,4.2,9.4,4.2,9.4,4.2
		C9.4,4.2,9.4,4.3,9.4,4.2L9.4,4.2L9.4,4.2C9.4,4.2,9.4,4.2,9.4,4.2C9.4,4.2,9.4,4.2,9.4,4.2L9.4,4.2L9.4,4.2L9.4,4.2z M9.5,3.5
		L9.5,3.5H9.4H9.5L9.5,3.5z M9.4,4.2L9.4,4.2C9.4,4.2,9.4,4.2,9.4,4.2z M9.6,4.7C9.5,4.7,9.5,4.7,9.6,4.7C9.5,4.7,9.5,4.7,9.4,4.7
		L9.6,4.7L9.6,4.7z M9.5,3.8L9.5,3.8L9.5,3.8z M9.6,4.5L9.6,4.5L9.6,4.5L9.6,4.5z M9.6,4.6L9.6,4.6L9.6,4.6L9.6,4.6z M9.6,4.8
		L9.6,4.8L9.6,4.8L9.6,4.8z M9.6,4.3L9.6,4.3L9.6,4.3L9.6,4.3L9.6,4.3z M9.8,4.6C9.8,4.5,9.8,4.5,9.8,4.6L9.8,4.6L9.8,4.6
		C9.7,4.6,9.8,4.6,9.8,4.6z M9.9,4.6L9.9,4.6L9.9,4.6L9.9,4.6L9.9,4.6z M9.9,4.9L9.9,4.9L9.9,4.9L9.9,4.9z M10,4.4L10,4.4L10,4.4
		L10,4.4L10,4.4z M10,4.6L10,4.6L10,4.6L10,4.6L10,4.6z M10,3.8c0,0,0.1,0.1,0.1,0.1C10.1,3.9,10.1,3.8,10,3.8c0-0.1,0-0.1,0-0.1
		C10,3.8,10,3.8,10,3.8z M10,4.2l0,0.2l0,0L10,4.2z M10.1,4.8L10.1,4.8L10.1,4.8L10.1,4.8z M10.4,7.3c0.1-0.1,0.2-0.2,0.3-0.3
		c0.2-0.2,0.5-0.5,0.7-0.7C11.7,6,12,5.7,12.2,5.4c0.2-0.3,0.4-0.6,0.5-1c0.1-0.3,0.2-0.7,0.2-1c0-0.3,0-0.6-0.1-0.7
		c-0.1-0.2-0.1-0.4-0.2-0.5C12.5,2.1,12.4,2,12.3,2c-0.1-0.1-0.2-0.1-0.3-0.2c-0.1,0-0.2-0.1-0.3-0.1c-0.1,0-0.1-0.1-0.2-0.1
		c0,0,0,0,0.1,0c0,0,0.1,0,0.1,0c0.3,0,0.5,0,0.7,0.1c0.2,0.1,0.5,0.1,0.7,0.1c0.2,0,0.4,0.1,0.6,0.2c0.2,0.1,0.5,0.2,0.7,0.4
		c0.2,0.2,0.4,0.3,0.6,0.5c0.2,0.2,0.3,0.4,0.3,0.5c0.1,0.3,0.1,0.6,0.1,0.9c0,0.2,0,0.4-0.1,0.6s-0.2,0.4-0.3,0.5
		C15,5.7,14.9,5.8,14.7,6c-0.2,0.1-0.3,0.3-0.5,0.4c-0.1,0.1-0.3,0.1-0.4,0.2c-0.2,0.1-0.4,0.1-0.6,0.2c-0.2,0-0.5,0.1-0.7,0.1
		c-0.2,0-0.4,0.1-0.6,0.1c-0.2,0-0.4,0.1-0.5,0.1c-0.2,0-0.3,0.1-0.3,0.1c-0.1,0-0.2,0.1-0.2,0.1c-0.1,0-0.1,0.1-0.2,0.1
		s-0.1,0.1-0.2,0.1c-0.1,0-0.2,0-0.3,0l-0.1,0C10.2,7.5,10.3,7.4,10.4,7.3z M10.1,4.5c0,0,0.1,0,0.1,0s0.1,0,0.1-0.1h-0.1
		C10.2,4.4,10.1,4.4,10.1,4.5z M10.2,4L10.2,4L10.2,4L10.2,4L10.2,4z M10.2,4.7L10.2,4.7l0-0.1C10.2,4.6,10.2,4.7,10.2,4.7z
		 M10.3,4.2L10.3,4.2L10.3,4.2L10.3,4.2L10.3,4.2z M10.4,4.2L10.4,4.2L10.4,4.2L10.4,4.2z M12.2,6.2L12.2,6.2L12.2,6.2L12.2,6.2z
		 M12.4,9.2l-0.2,0l0,0H12.4z M12.4,6.3L12.4,6.3L12.4,6.3L12.4,6.3z M12.4,9.4L12.4,9.4L12.4,9.4L12.4,9.4z M12.5,6.1L12.5,6.1
		L12.5,6.1L12.5,6.1z M12.5,6L12.5,6L12.5,6L12.5,6L12.5,6z M12.5,9.1L12.5,9.1L12.5,9.1L12.5,9.1z M12.6,5.8L12.6,5.8L12.6,5.8
		L12.6,5.8z M12.5,6L12.5,6L12.5,6L12.5,6L12.5,6z M12.5,8.7L12.5,8.7L12.5,8.7L12.5,8.7L12.5,8.7z M12.6,6.1L12.6,6.1v0.1V6.1z
		 M12.8,9.6L13,9.7c0-0.1,0-0.1,0-0.2c0,0,0-0.1,0-0.1s-0.1-0.1-0.1-0.1c0,0,0,0,0.1,0c0,0,0.1,0,0.1-0.1l-0.1-0.1l-0.1,0.1
		c0,0-0.1,0-0.1,0c0,0-0.1,0-0.1,0c0.1,0,0.1,0.1,0.1,0.2s0,0.1,0,0.2l0.1-0.1V9.6l-0.1,0.1l0.1,0L12.8,9.6z M12.6,6.5
		C12.6,6.5,12.6,6.5,12.6,6.5l0.1-0.1L12.6,6.5L12.6,6.5z M12.8,6.1L12.7,6l0,0.1H12.8z M12.7,5.9L12.7,5.9L12.7,5.9L12.7,5.9
		L12.7,5.9z M12.7,5.2L12.7,5.2L12.7,5.2L12.7,5.2z M12.7,9L12.7,9L12.7,9L12.7,9z M12.7,5.6C12.7,5.6,12.7,5.6,12.7,5.6L12.7,5.6
		L12.7,5.6L12.7,5.6z M12.8,5.2L12.8,5.2L12.8,5.2L12.8,5.2z M12.9,5.7h-0.1l0.1,0.1L12.9,5.7z M12.9,5.4l-0.1,0L12.9,5.4L12.9,5.4z
		 M13,8.8c0.1,0,0.1,0,0.2,0h-0.3l-0.1,0.1C12.9,8.9,12.9,8.9,13,8.8z M12.9,5.2L12.9,5.2h-0.1H12.9z M12.9,5.9L12.9,5.9L12.9,5.9
		L12.9,5.9L12.9,5.9z M12.9,9.8L12.9,9.8L12.9,9.8L12.9,9.8z M12.9,6L12.9,6L12.9,6L12.9,6L12.9,6z M12.9,6.2L12.9,6.2
		C13,6.2,13,6.1,12.9,6.2C12.9,6.1,12.9,6.1,12.9,6.2z M13,6.4L13,6.4L13,6.4L13,6.4z M13,5.2L13,5.2L13,5.2L13,5.2L13.1,5l0,0
		L13,5.2L13,5.2L13,5.2z M13.1,6L13.1,6L13.1,6L13.1,6z M13,9L13,9L13,9L13,9L13,9z M13.1,9.7L13.1,9.7L13,9.8L13.1,9.7z M13.1,9.3
		L13.1,9.3L13.1,9.3L13.1,9.3L13.1,9.3z M13.1,4.8L13.1,4.8L13.1,4.8L13.1,4.8z M13.1,5.3V5.2h0L13.1,5.3L13.1,5.3z M13.1,5.1
		L13.1,5.1L13.1,5.1L13.1,5.1z M13.1,8.9L13.1,8.9L13.1,8.9L13.1,8.9C13.1,8.8,13.1,8.8,13.1,8.9z M13.1,6.1L13.1,6.1L13.1,6.1
		L13.1,6.1L13.1,6.1z M13.2,5.9C13.2,5.8,13.2,5.8,13.2,5.9C13.2,5.8,13.2,5.8,13.2,5.9L13.2,5.9L13.2,5.9L13.2,5.9z M13.3,5.5
		l-0.1,0v0.1L13.3,5.5z M13.4,9.2C13.3,9.2,13.3,9.2,13.4,9.2c-0.1,0.1-0.1,0.1-0.1,0.2s0,0.1,0,0.1c0,0,0,0.1-0.1,0.1
		c0.1,0,0.1,0,0.1-0.1c0,0,0.1-0.1,0.1-0.2c0,0,0.1,0,0.1,0c0,0,0.1,0,0.1,0c0,0,0-0.1,0-0.1c0,0,0,0,0.1,0h0.1l0,0.1l0,0
		c0-0.1,0-0.1,0-0.2c0-0.1,0.1-0.2,0.1-0.2l-0.1,0c0,0-0.1,0.1-0.1,0.1c-0.1,0.1-0.1,0.1-0.2,0.1l0.1-0.1l-0.1-0.2l-0.1,0.1
		C13.4,8.9,13.4,9,13.4,9.2C13.4,9.2,13.4,9.2,13.4,9.2z M13.3,9L13.3,9h-0.2l0.1,0.1L13.3,9z M13.2,8.6L13.2,8.6L13.2,8.6L13.2,8.6
		z M13.2,4.3L13.2,4.3L13.2,4.3L13.2,4.3L13.2,4.3L13.2,4.3L13.2,4.3z M13.3,2.7L13.3,2.7L13.3,2.7L13.3,2.7L13.3,2.7z M13.3,5.2
		V5.1h0C13.2,5.2,13.2,5.2,13.3,5.2z M13.3,6c0,0,0-0.1-0.1-0.1L13.3,6l0,0.1C13.3,6.1,13.3,6,13.3,6z M13.2,4.3L13.2,4.3L13.2,4.3
		L13.2,4.3z M13.3,4.7L13.3,4.7L13.3,4.7L13.3,4.7z M13.3,8.8L13.3,8.8l0-0.1L13.3,8.8L13.3,8.8L13.3,8.8L13.3,8.8z M13.3,5L13.3,5
		L13.3,5L13.3,5z M13.4,4L13.4,4L13.4,4L13.4,4z M13.4,9.6c-0.1,0-0.1,0.1-0.1,0.1l0.2-0.2C13.5,9.5,13.4,9.5,13.4,9.6z M13.3,3.4
		L13.3,3.4L13.3,3.4L13.3,3.4L13.3,3.4L13.3,3.4z M13.3,6.3L13.3,6.3L13.3,6.3L13.3,6.3z M13.3,2.4C13.3,2.4,13.3,2.4,13.3,2.4
		L13.3,2.4L13.3,2.4L13.3,2.4z M13.3,5.6L13.3,5.6L13.3,5.6L13.3,5.6L13.3,5.6z M13.4,2.9L13.4,2.9L13.4,2.9L13.4,2.9L13.4,2.9z
		 M13.4,3.7c0,0,0,0.1,0.1,0.1l0.1-0.1l0,0l0,0l0,0l0-0.1c0,0-0.1,0-0.1,0C13.5,3.6,13.5,3.6,13.4,3.7l0-0.1L13.4,3.7
		C13.4,3.7,13.4,3.7,13.4,3.7z M13.3,5L13.3,5L13.3,5L13.3,5L13.3,5z M13.3,5.3L13.3,5.3L13.3,5.3L13.3,5.3L13.3,5.3z M13.7,2.8
		l0-0.1c0,0,0.1-0.1,0.1-0.1c0,0,0,0,0-0.1l-0.2,0l0,0c0,0,0-0.1,0.1-0.1c0,0,0,0,0-0.1c-0.1,0-0.2,0-0.2,0.1s-0.1,0.1-0.1,0.2
		l0.1-0.1l0.1,0.1l-0.1,0.1l0.1,0L13.7,2.8z M13.4,3.2L13.4,3.2L13.4,3.2L13.4,3.2z M13.4,5.8L13.4,5.8L13.4,5.8
		C13.4,5.8,13.4,5.8,13.4,5.8z M13.4,5.1L13.4,5.1L13.4,5.1L13.4,5.1z M13.4,6L13.4,6L13.4,6L13.4,6z M13.4,2.7L13.4,2.7L13.4,2.7
		L13.4,2.7L13.4,2.7z M13.4,3.5L13.4,3.5L13.4,3.5L13.4,3.5L13.4,3.5l0-0.1L13.4,3.5L13.4,3.5z M13.5,4.5
		C13.5,4.5,13.5,4.5,13.5,4.5C13.5,4.5,13.5,4.5,13.5,4.5C13.5,4.4,13.5,4.4,13.5,4.5L13.5,4.5C13.4,4.5,13.4,4.5,13.5,4.5z
		 M13.5,2.9L13.5,2.9L13.5,2.9L13.5,2.9z M13.4,4.7L13.4,4.7L13.4,4.7L13.4,4.7L13.4,4.7z M13.5,9.9L13.5,9.9L13.5,9.9L13.5,9.9
		L13.5,9.9z M13.5,3.3L13.5,3.3L13.5,3.3L13.5,3.3L13.5,3.3L13.5,3.3z M13.5,5.9L13.5,5.9L13.5,5.9L13.5,5.9z M13.7,3l-0.2,0
		l0.1,0.1L13.7,3z M13.5,5.1c0-0.1,0.1-0.1,0.1-0.1s0.1-0.1,0.1-0.1c0,0-0.1,0-0.2,0.1C13.5,4.9,13.5,4.9,13.5,5.1L13.5,5.1
		L13.5,5.1z M13.5,5.2L13.5,5.2L13.5,5.2L13.5,5.2z M13.6,8.7L13.6,8.7L13.6,8.7C13.5,8.7,13.5,8.7,13.6,8.7z M13.5,9.7l0.1-0.1
		L13.5,9.7C13.5,9.7,13.5,9.7,13.5,9.7z M13.5,3L13.5,3L13.5,3L13.5,3L13.5,3z M13.5,3.5L13.5,3.5L13.5,3.5L13.5,3.5L13.5,3.5z
		 M13.5,5.7C13.5,5.7,13.5,5.7,13.5,5.7L13.5,5.7C13.6,5.8,13.6,5.7,13.5,5.7L13.5,5.7z M13.7,4.1c0,0,0.1,0.1,0.1,0.1
		c0-0.1,0-0.1,0-0.2c0-0.1,0-0.1,0-0.2L13.5,4C13.6,4,13.6,4,13.7,4.1z M13.6,3.7L13.6,3.7L13.6,3.7z M13.6,5.5L13.6,5.5L13.6,5.5
		L13.6,5.5L13.6,5.5z M13.6,9.9l0.3,0L13.6,9.9L13.6,9.9L13.6,9.9z M13.7,3.2h-0.1H13.7L13.7,3.2z M13.6,3.5c0,0,0.1-0.1,0.1-0.1
		C13.6,3.4,13.6,3.4,13.6,3.5z M13.7,4.4h-0.1v0.1L13.7,4.4z M13.8,4.6L13.8,4.6l-0.2,0.1l0.1,0.1L13.8,4.6z M13.7,6.3L13.7,6.3
		L13.7,6.3C13.6,6.2,13.7,6.2,13.7,6.3z M13.7,4.2L13.7,4.2L13.7,4.2L13.7,4.2z M13.7,5.5L13.7,5.5L13.7,5.5L13.7,5.5L13.7,5.5z
		 M13.7,3.6L13.7,3.6l0-0.1L13.7,3.6L13.7,3.6z M13.7,6L13.7,6L13.7,6L13.7,6z M13.7,2.7L13.7,2.7L13.7,2.7L13.7,2.7L13.7,2.7z
		 M13.7,5.4L13.7,5.4L13.7,5.4L13.7,5.4L13.7,5.4z M13.7,6L13.7,6L13.7,6L13.7,6L13.7,6z M13.8,9.4L13.8,9.4L13.8,9.4
		C13.7,9.5,13.8,9.5,13.8,9.4z M13.8,3L13.8,3l0.1-0.1l0,0l0.1-0.1l-0.1,0l-0.1,0l0,0.1L13.8,3z M13.8,4.5L13.8,4.5L13.8,4.5
		L13.8,4.5L13.8,4.5z M13.9,5.7c0,0,0,0.1-0.1,0.1L14,5.8L13.9,5.7C13.9,5.7,13.9,5.7,13.9,5.7z M13.9,3.3c0,0,0-0.1,0.1-0.1
		c0,0,0.1-0.1,0.1-0.1c0,0,0-0.1,0-0.1l0,0L13.9,3.3L13.9,3.3L13.9,3.3z M13.9,3.8L13.9,3.8C13.8,3.8,13.8,3.8,13.9,3.8z M13.9,4.1
		c0,0-0.1,0.1-0.1,0.1C13.8,4.2,13.9,4.2,13.9,4.1c0.1,0,0.1,0,0.1-0.1C14,4.1,13.9,4.1,13.9,4.1z M14.1,4.4L14.1,4.4l-0.2,0
		l-0.1,0.1L14.1,4.4L14.1,4.4z M13.9,2.5L13.9,2.5L13.9,2.5L13.9,2.5z M14,4L14,4h-0.1H14L14,4z M13.9,4.9L13.9,4.9L13.9,4.9
		L13.9,4.9L13.9,4.9z M14.1,5.3C14.1,5.3,14.1,5.2,14.1,5.3l0-0.1l-0.2,0.2L14.1,5.3C14,5.4,14,5.4,14.1,5.3z M13.9,9.2
		c0,0,0.1,0,0.1,0L13.9,9.2L14,9.1C14,9,14,9,14,9c0,0-0.1,0-0.1,0v0.1C13.9,9.2,13.9,9.2,13.9,9.2z M13.9,9.9L13.9,9.9L13.9,9.9
		L13.9,9.9L13.9,9.9z M13.9,2.9L13.9,2.9L13.9,2.9L13.9,2.9z M13.9,9.6L13.9,9.6L13.9,9.6L13.9,9.6L13.9,9.6L13.9,9.6z M14,2.5
		L14,2.5L14,2.5L14,2.5z M14,4.6L14,4.6L14,4.6L14,4.6L14,4.6z M14,4.9L14,4.9V5V4.9z M14.2,5l-0.1,0l-0.2,0.2v0L14.2,5z M14.1,2.7
		L14.1,2.7l-0.1,0v0.1C14,2.8,14,2.7,14.1,2.7z M14,3.8l0-0.2v0.1L14,3.8z M14,6L14,6L14,6L14,6z M14,2.6L14,2.6L14,2.6L14,2.6
		L14,2.6z M14,2.8C14,2.9,14,2.9,14,2.8C14,2.9,14.1,2.9,14,2.8C14.1,2.9,14.1,2.9,14,2.8C14.1,2.8,14.1,2.8,14,2.8z M14,3.3L14,3.3
		L14,3.3L14,3.3L14,3.3z M14,4.7L14,4.7L14,4.7L14,4.7L14,4.7z M14.2,3.7L14.2,3.7h0.1H14.2l-0.2,0.1l0,0L14.2,3.7z M14.1,4.3
		L14.1,4.3L14.1,4.3L14.1,4.3L14.1,4.3z M14.1,9.7C14.1,9.7,14.1,9.7,14.1,9.7L14.1,9.7L14.1,9.7L14.1,9.7z M14.1,3.3
		c0-0.1,0-0.1,0-0.1L14.1,3.3L14.1,3.3z M14.1,3.9L14.1,3.9L14.1,3.9L14.1,3.9z M14.1,4.2L14.1,4.2L14.1,4.2L14.1,4.2z M14.2,3.1
		C14.2,3.1,14.2,3.1,14.2,3.1L14.2,3.1L14.2,3.1L14.2,3.1l0.2,0.2V3.2c0,0,0-0.1,0-0.1l0-0.1l0.1-0.1c0,0-0.1,0-0.1,0.1
		S14.2,3.1,14.2,3.1L14.2,3.1C14.2,3.1,14.2,3.1,14.2,3.1z M14.2,3.5L14.2,3.5L14.2,3.5L14.2,3.5z M14.2,4.3L14.2,4.3L14.2,4.3
		L14.2,4.3z M14.2,2.9L14.2,2.9L14.2,2.9L14.2,2.9z M14.2,5.4C14.2,5.4,14.2,5.4,14.2,5.4C14.2,5.3,14.2,5.3,14.2,5.4L14.2,5.4
		C14.2,5.3,14.2,5.3,14.2,5.4z M14.2,5.7L14.2,5.7L14.2,5.7L14.2,5.7L14.2,5.7z M14.2,3.4C14.2,3.4,14.2,3.4,14.2,3.4
		C14.2,3.4,14.2,3.4,14.2,3.4L14.2,3.4L14.2,3.4C14.3,3.4,14.3,3.4,14.2,3.4C14.2,3.3,14.2,3.3,14.2,3.4L14.2,3.4L14.2,3.4L14.2,3.4
		z M14.2,4.5L14.2,4.5L14.2,4.5L14.2,4.5L14.2,4.5z M14.2,5.6L14.2,5.6L14.2,5.6L14.2,5.6L14.2,5.6z M14.3,4.5L14.3,4.5L14.3,4.5
		L14.3,4.5z M14.3,4.8L14.3,4.8L14.3,4.8L14.3,4.8L14.3,4.8z M14.3,3.3L14.3,3.3C14.3,3.4,14.3,3.4,14.3,3.3z M14.3,5.1L14.3,5.1
		L14.3,5.1L14.3,5.1z M14.3,5L14.3,5L14.3,5L14.3,5z M14.3,3.6L14.3,3.6L14.3,3.6L14.3,3.6z M14.3,5.5L14.3,5.5L14.3,5.5L14.3,5.5z
		 M14.5,3.9l-0.1-0.1L14.5,3.9L14.3,4L14.5,3.9z M14.6,5.3l-0.2-0.1L14.6,5.3L14.6,5.3z M14.4,4.3l0-0.3L14.4,4.3L14.4,4.3L14.4,4.3
		z M14.4,3.1C14.4,3.1,14.4,3.1,14.4,3.1l0.1,0L14.4,3.1C14.5,3.1,14.4,3.1,14.4,3.1z M14.5,3.3L14.5,3.3L14.5,3.3L14.5,3.3z
		 M14.4,3.4L14.4,3.4L14.4,3.4L14.4,3.4L14.4,3.4z M14.4,3.6C14.5,3.6,14.5,3.6,14.4,3.6L14.4,3.6L14.4,3.6L14.4,3.6z M14.4,5.5
		L14.4,5.5C14.4,5.5,14.4,5.5,14.4,5.5L14.4,5.5L14.4,5.5z M14.5,3.2L14.5,3.2L14.5,3.2L14.5,3.2z M14.5,4.4L14.5,4.4L14.5,4.4
		L14.5,4.4z M14.6,4.5L14.6,4.5l-0.1,0L14.6,4.5L14.6,4.5z M14.5,4.7L14.5,4.7L14.5,4.7L14.5,4.7z M14.5,9.5L14.5,9.5L14.5,9.5
		L14.5,9.5z M14.5,3.4L14.5,3.4L14.5,3.4L14.5,3.4z M14.5,4.2L14.5,4.2L14.5,4.2L14.5,4.2z M14.6,4.3C14.6,4.3,14.6,4.3,14.6,4.3
		C14.6,4.3,14.6,4.3,14.6,4.3L14.6,4.3L14.6,4.3C14.6,4.3,14.6,4.3,14.6,4.3C14.6,4.3,14.6,4.3,14.6,4.3L14.6,4.3L14.6,4.3L14.6,4.3
		z M14.6,5L14.6,5L14.6,5L14.6,5L14.6,5z M14.6,5.5L14.6,5.5L14.6,5.5L14.6,5.5L14.6,5.5z M14.6,3.5L14.6,3.5L14.6,3.5L14.6,3.5z
		 M14.6,4.3C14.6,4.3,14.6,4.3,14.6,4.3C14.6,4.3,14.6,4.3,14.6,4.3z M14.6,3.2L14.6,3.2L14.6,3.2L14.6,3.2L14.6,3.2z M14.7,4.8
		L14.7,4.8L14.7,4.8L14.7,4.8l-0.1,0l0.1,0.1V4.8z M14.6,5.5L14.6,5.5L14.6,5.5L14.6,5.5C14.6,5.5,14.6,5.5,14.6,5.5z M14.7,4.1
		L14.7,4.1L14.7,4.1L14.7,4.1z M14.7,3.2L14.7,3.2L14.7,3.2L14.7,3.2z M14.7,3.8L14.7,3.8L14.7,3.8L14.7,3.8z M14.8,5
		C14.8,5,14.9,5,14.8,5L14.8,5L14.8,5C14.8,5.1,14.8,5.1,14.8,5z M14.7,9l0-0.1C14.7,8.9,14.7,9,14.7,9z M14.9,3.9
		c0-0.1,0-0.1,0-0.1l-0.2,0.1L14.9,3.9C14.8,4,14.9,4,14.9,3.9z M14.9,3.6L14.9,3.6L14.9,3.6L14.9,3.6z M14.9,4.3
		C14.9,4.3,14.9,4.3,14.9,4.3l0-0.1L14.9,4.3C14.9,4.3,14.9,4.3,14.9,4.3z M14.9,4.5L14.9,4.5L14.9,4.5L14.9,4.5z M15,3.7L15,3.7
		L15,3.7L15,3.7L15,3.7z M15.1,4.7L15.1,4.7L15.1,4.7L15.1,4.7z"/>
</g>
</svg>
