<?xml version="1.0" encoding="utf-8"?>
<!-- Generator: Adobe Illustrator 17.1.0, SVG Export Plug-In . SVG Version: 6.00 Build 0)  -->
<!DOCTYPE svg PUBLIC "-//W3C//DTD SVG 1.1//EN" "http://www.w3.org/Graphics/SVG/1.1/DTD/svg11.dtd">
<svg version="1.1" id="Layer_1" xmlns="http://www.w3.org/2000/svg" xmlns:xlink="http://www.w3.org/1999/xlink" x="0px" y="0px"
	 width="17.8px" height="12.2px" viewBox="0 0 17.8 12.2" enable-background="new 0 0 17.8 12.2" xml:space="preserve">
<g>
	<path d="M2.3,9.8c0.3,0,0.6,0,0.8,0c0.2,0,0.3-0.1,0.4-0.1s0.2-0.2,0.2-0.4c0-0.2,0-0.4,0-0.8v-5c0-0.1-0.1-0.1-0.3-0.2
		c-0.1,0-0.3-0.1-0.4-0.1c-0.2,0-0.3,0-0.5,0s-0.3,0-0.3,0L2.2,3.1L2.3,3c0.5,0,1-0.1,1.4-0.2s0.7-0.3,1-0.5C5,2.2,5.2,2,5.4,1.9
		c0.2-0.1,0.3-0.2,0.5-0.2l0.3,0l0.1,0.1c0,1.1,0,2.2,0,3.2s0,2.2,0,3.2c0,0.5,0,0.9,0.1,1.3c0.1,0.1,0.2,0.2,0.3,0.2s0.3,0,0.4,0
		h0.3l0.2-0.1l0.2,0.1l-0.1,0.3c-0.4-0.1-0.7-0.1-1.1-0.1c-0.4,0-0.7,0-1.1,0c-0.5,0-1,0-1.5,0s-1,0-1.5,0l-0.1-0.1L2.3,9.8z
		 M3.9,9.7L3.9,9.7L3.9,9.7L3.9,9.7z M4,9.5L4,9.5v0.1V9.5z M4,9.7L4,9.7L4,9.7L4,9.7C4.1,9.7,4,9.7,4,9.7z M4.1,7.6L4.1,7.6
		L4.1,7.6L4.1,7.6z M4.1,9.3L4.1,9.3C4.2,9.3,4.2,9.3,4.1,9.3C4.2,9.3,4.2,9.3,4.1,9.3L4.1,9.3L4.1,9.3z M4.2,4.2l0.2,0l0,0L4.2,4.2
		z M4.2,5.9L4.2,5.9L4.2,5.9L4.2,5.9z M4.2,9.8L4.2,9.8L4.2,9.8L4.2,9.8z M4.2,4.7L4.2,4.7L4.2,4.7L4.2,4.7L4.2,4.7z M4.3,6.3
		L4.3,6.3L4.3,6.3L4.3,6.3z M4.3,8L4.3,8L4.3,8L4.3,8z M4.3,8.9L4.3,8.9L4.3,8.9L4.3,8.9z M4.3,6.8L4.3,6.8L4.3,6.8L4.3,6.8L4.3,6.8
		z M4.3,3.6c0,0,0,0.1,0.1,0.1c0-0.1,0-0.1,0-0.1s0.1-0.1,0.1-0.1L4.4,3.3L4.3,3.5C4.3,3.5,4.3,3.6,4.3,3.6z M4.4,5.1
		c0,0-0.1,0-0.1,0.1L4.6,5L4.6,4.9l0,0L4.4,4.9L4.4,5.1C4.4,5,4.4,5.1,4.4,5.1z M4.4,6.6c0,0,0.1,0,0.1,0l0.1-0.2l-0.1,0L4.4,6.6
		C4.3,6.5,4.3,6.6,4.4,6.6z M4.5,9.7c0.1,0.1,0.1,0.1,0.1,0.2c0,0,0.1-0.1,0.1-0.2c0,0,0-0.1,0-0.1s0-0.1-0.1-0.1L4.3,9.6v0
		C4.4,9.6,4.4,9.7,4.5,9.7z M4.4,4.6L4.4,4.6L4.4,4.6L4.4,4.6z M4.4,5.7L4.4,5.7L4.4,5.7L4.4,5.7z M4.3,8.3L4.3,8.3L4.3,8.3L4.3,8.3
		z M4.4,9.9L4.4,9.9L4.4,9.9L4.4,9.9z M4.4,6.1L4.4,6.1L4.4,6.1L4.4,6.1z M4.4,9.1C4.4,9.1,4.4,9.2,4.4,9.1h0.3C4.6,9,4.5,9,4.5,9
		S4.4,8.9,4.4,8.8L4.4,8.9v0C4.4,9,4.4,9,4.4,9.1z M4.4,5.4L4.4,5.4L4.4,5.4L4.4,5.4z M4.4,6.3c0,0,0.1,0,0.1-0.1L4.4,6.3z M4.4,6.8
		L4.4,6.8L4.4,6.8L4.4,6.8z M4.6,4c0,0,0.1-0.1,0.1-0.1s0-0.1,0.1-0.1c0-0.1,0-0.1,0-0.1L4.6,3.6L4.4,3.9L4.6,4C4.5,4.1,4.6,4,4.6,4
		z M4.4,4.7L4.4,4.7L4.4,4.7L4.4,4.7L4.4,4.7z M4.5,4.5c0.1,0.1,0.1,0.1,0.2,0.1c0-0.1,0-0.2,0.1-0.3S4.9,4.1,5,4L4.9,4
		C4.8,4.2,4.7,4.3,4.4,4.3C4.4,4.3,4.5,4.4,4.5,4.5z M4.5,5.8L4.5,5.8L4.5,5.8L4.5,5.8z M4.5,7.5L4.5,7.5L4.5,7.5L4.5,7.5z M4.5,8
		L4.5,8L4.5,8L4.5,8L4.5,8z M4.5,8.2L4.5,8.2L4.5,8.2L4.5,8.2z M4.5,6.2l0.2,0L4.5,6.2L4.5,6.2L4.5,6.2z M4.5,9.3L4.5,9.3L4.5,9.3
		L4.5,9.3L4.5,9.3z M4.6,8.6L4.6,8.6L4.6,8.6L4.6,8.6L4.6,8.6z M4.6,8.4L4.6,8.4L4.6,8.4L4.6,8.4L4.6,8.4z M4.6,6.3L4.6,6.3L4.6,6.3
		L4.6,6.3L4.6,6.3z M4.6,6.7L4.6,6.7L4.6,6.7L4.6,6.7L4.6,6.7z M4.6,8.2L4.6,8.2L4.6,8.2L4.6,8.2L4.6,8.2z M4.6,7.6L4.6,7.6L4.6,7.6
		L4.6,7.6L4.6,7.6z M4.9,5.2L5,5.3L5,5.2L5,5.1L5,4.9c0,0,0-0.1,0-0.1c0,0,0-0.1-0.1-0.1c0,0.1,0,0.2,0,0.2C4.9,5.1,4.8,5.1,4.9,5.2
		L4.7,5.1L4.6,5.3L4.9,5.2z M4.6,5.6L4.6,5.6L4.6,5.6L4.6,5.6L4.6,5.6z M4.6,8.9l0.1-0.1C4.7,8.8,4.6,8.8,4.6,8.9z M4.7,3.2
		c0,0,0,0.1,0,0.1L4.7,3.2l0-0.1h0C4.7,3.1,4.7,3.2,4.7,3.2z M4.7,5.4L4.7,5.4L4.7,5.4L4.7,5.4L4.7,5.4z M4.7,5.9L4.7,5.9L4.7,5.9
		L4.7,5.9L4.7,5.9z M4.7,6.6L4.7,6.6L4.7,6.6L4.7,6.6L4.7,6.6z M4.7,8.1L4.7,8.1L4.7,8.1L4.7,8.1L4.7,8.1z M4.7,8.9L4.7,8.9L4.7,8.9
		L4.7,8.9L4.7,8.9z M4.7,9.3L4.7,9.3L4.7,9.3L4.7,9.3L4.7,9.3z M4.8,7.4L4.8,7.4H4.7H4.8z M4.7,7.9L4.7,7.9L4.7,7.9L4.7,7.9L4.7,7.9
		z M4.7,3.8L4.7,3.8L4.7,3.8L4.7,3.8L4.7,3.8z M4.8,4L4.8,4L4.8,4L4.8,4L4.8,4z M4.8,4.9L4.8,4.9L4.8,4.9L4.8,4.9L4.8,4.9z M4.8,6
		L4.8,6L4.8,6L4.8,6L4.8,6z M4.7,8.7l0.2,0c0,0,0,0,0,0s0,0,0,0L4.7,8.7z M5,6.8c0-0.1,0-0.1,0.1-0.1c0,0,0.1,0,0.1,0
		c0,0,0.1,0,0.1-0.1C5.2,6.5,5.1,6.6,5,6.6S4.9,6.7,4.8,6.7l0.1,0.1L4.8,6.8L5,6.8L4.9,6.9C5,6.9,5,6.8,5,6.8z M4.8,5.7L4.8,5.7
		L4.8,5.7L4.8,5.7L4.8,5.7z M4.9,3.2c0,0-0.1,0.1-0.1,0.2L4.9,3.2C5,3.2,5,3.1,5,3.1C5,3.1,5,3.2,4.9,3.2z M4.9,6.5
		C4.9,6.5,4.9,6.6,4.9,6.5l0.2-0.1c0,0-0.1,0-0.1-0.1c0,0-0.1-0.1-0.1-0.1l0,0.1C4.8,6.4,4.9,6.5,4.9,6.5z M4.8,8.2L4.8,8.2L4.8,8.2
		L4.8,8.2L4.8,8.2z M4.8,9.9L5,9.7l0,0C4.9,9.8,4.9,9.8,4.8,9.9z M4.9,3.1L4.9,3.1L4.9,3.1L4.9,3.1L4.9,3.1z M4.9,3.6L4.9,3.6
		L4.9,3.6L4.9,3.6L4.9,3.6z M4.9,7.1L4.9,7.1L4.9,7.1L4.9,7.1L4.9,7.1z M4.9,9.1L4.9,9.1L4.9,9.1L4.9,9.1L4.9,9.1z M4.9,8.3L4.9,8.3
		L4.9,8.3L4.9,8.3L4.9,8.3z M4.9,2.9L4.9,2.9L4.9,2.9L4.9,2.9L4.9,2.9z M5,6L4.9,6C5,6,5,6,5,6z M5,3.5L5,3.5L5,3.5L5,3.5L5,3.5z
		 M5,3.9l0.1,0L5,3.9L5,3.9L5,3.9z M4.9,4.3L4.9,4.3L4.9,4.3L4.9,4.3L4.9,4.3z M5,4.6L5,4.6L5,4.6L5,4.6L5,4.6z M4.9,6.7l0.2,0
		c0,0,0,0,0,0c0,0,0,0,0,0L4.9,6.7z M4.9,7.1L4.9,7.1L4.9,7.1L4.9,7.1L4.9,7.1z M5,7.8L5,7.8L5,7.8L5,7.8L5,7.8z M5,8.4L5,8.4L5,8.4
		L5,8.4L5,8.4z M5,3.6L5,3.6L5,3.6L5,3.6L5,3.6z M5,9.2C5,9.1,5.1,9.1,5,9.2L5,9.2C5,9.2,5,9.2,5,9.2z M5.2,9.2c0,0-0.1,0-0.2,0
		C5,9.3,5,9.3,5,9.4l0.1,0.1L5.2,9.2z M5,3.5L5,3.5L5,3.5L5,3.5L5,3.5z M5.1,4.7L5.1,4.7L5.1,4.7L5.1,4.7L5.1,4.7z M5.1,6.1L5.1,6.1
		L5.1,6.1L5.1,6.1L5.1,6.1z M5.1,7L5.1,7L5.1,7L5.1,7L5.1,7z M5.1,7.6L5.1,7.6L5.1,7.6L5.1,7.6L5.1,7.6z M5.1,8.1L5.1,8.1L5.1,8.1
		L5.1,8.1L5.1,8.1z M5.1,8.4L5.1,8.4L5.1,8.4L5.1,8.4L5.1,8.4z M5.1,2.9L5.1,2.9L5.1,2.9z M5.2,3.3L5.2,3.3L5.2,3.3L5.2,3.3z
		 M5.1,4.2C5.2,4.2,5.2,4.2,5.1,4.2L5.1,4.2L5.1,4.2z M5.2,7.9l0.1-0.1c0,0,0-0.1,0-0.1s0-0.1-0.1-0.1L5.1,7.7L5.2,7.9L5.2,7.9z
		 M5.2,9.6L5.2,9.6L5.2,9.6L5.2,9.6z M5.2,5.9L5.2,5.9L5.2,5.9L5.2,5.9L5.2,5.9z M5.2,6.3L5.2,6.3L5.2,6.3L5.2,6.3L5.2,6.3z
		 M5.3,3.7c0,0,0.1,0,0.2,0c0.1,0,0.1,0,0.2,0c0,0,0.1,0.1,0.1,0.1c0,0,0,0,0,0.1c0-0.1,0.1-0.1,0.1-0.2c0,0,0-0.1,0-0.1
		c0,0-0.1,0-0.1,0c0,0-0.1,0-0.1,0c0,0,0,0,0-0.1l0.1-0.1c-0.1,0-0.1,0-0.2,0.1C5.2,3.5,5.2,3.6,5.3,3.7C5.2,3.7,5.2,3.7,5.3,3.7z
		 M5.3,9.9L5.3,9.9L5.2,9.8C5.2,9.8,5.3,9.9,5.3,9.9z M5.2,2.6l0.2,0c0,0,0,0,0,0c0,0,0,0,0,0L5.2,2.6z M5.2,5.2L5.2,5.2L5.2,5.2
		L5.2,5.2L5.2,5.2z M5.2,7.3L5.2,7.3L5.2,7.3L5.2,7.3L5.2,7.3z M5.4,5.6H5.2v0.1L5.4,5.6z M5.2,6.8L5.2,6.8L5.2,6.8L5.2,6.8L5.2,6.8
		z M5.3,8.9L5.3,8.9L5.3,8.9L5.3,8.9z M5.3,9.5c0,0.1,0,0.1,0,0.1C5.3,9.6,5.3,9.6,5.3,9.5c0.1,0,0.1,0,0.1-0.1L5.3,9.5
		C5.3,9.4,5.3,9.5,5.3,9.5z M5.3,3L5.3,3L5.3,3L5.3,3L5.3,3z M5.3,3.3L5.3,3.3L5.3,3.3L5.3,3.3L5.3,3.3z M5.3,4.2L5.3,4.2L5.3,4.2
		L5.3,4.2L5.3,4.2z M5.4,4.7c0,0,0.1,0,0.1,0c0,0,0.1-0.1,0.1-0.1L5.4,4.7L5.4,4.7z M5.3,5.8C5.3,5.8,5.3,5.8,5.3,5.8
		C5.4,5.8,5.4,5.8,5.3,5.8L5.3,5.8L5.3,5.8L5.3,5.8z M5.4,6.3c0,0,0.1,0,0.1,0L5.3,6.2L5.4,6.3C5.3,6.2,5.3,6.3,5.4,6.3z M5.4,7.6
		L5.4,7.6L5.4,7.6L5.4,7.6L5.4,7.6z M5.4,8.6L5.4,8.6L5.4,8.6L5.4,8.6L5.4,8.6z M5.4,9.7L5.4,9.7L5.4,9.7L5.4,9.7L5.4,9.7z M5.4,5
		l0.2-0.1l0,0L5.4,5z M5.5,4.2c0-0.1,0-0.1,0.1-0.1C5.6,4.1,5.5,4.1,5.5,4.2c-0.1,0-0.1,0-0.1,0.1l0.1,0.1C5.5,4.3,5.5,4.3,5.5,4.2z
		 M5.4,8.4L5.4,8.4L5.4,8.4L5.4,8.4L5.4,8.4z M5.5,9.2L5.5,9.2L5.5,9.2L5.5,9.2z M5.5,5.2L5.5,5.2L5.5,5.2L5.5,5.2z M5.6,7.1
		l0.1-0.2L5.6,7L5.5,6.9C5.5,7,5.5,7.1,5.6,7.1z M5.8,9.7L5.8,9.7H6c0,0,0,0,0-0.1s-0.1,0-0.1-0.1c0,0-0.1,0-0.1-0.1s0-0.1,0-0.1h0
		L5.5,9.5l0.1,0.1L5.5,9.9L5.8,9.7z M5.5,3.3L5.5,3.3L5.5,3.3L5.5,3.3z M5.5,5.1L5.5,5.1L5.5,5.1L5.5,5.1z M5.5,7.5l0.2,0L5.5,7.5
		L5.5,7.5L5.5,7.5z M5.5,8.6L5.5,8.6L5.5,8.6L5.5,8.6z M5.6,2.8L5.6,2.8L5.6,2.8L5.6,2.8z M5.6,3.5l0.2,0l0,0L5.6,3.5z M5.6,6.1
		L5.6,6.1L5.6,6.1L5.6,6.1z M5.6,6.2L5.6,6.2L5.6,6.2L5.6,6.2z M5.6,9.2L5.6,9.2L5.6,9.2L5.6,9.2z M5.6,5.8L5.6,5.8L5.6,5.8L5.6,5.8
		z M5.6,6.5L5.6,6.5L5.6,6.5L5.6,6.5L5.6,6.5z M5.8,8.5L5.6,8.6C5.7,8.6,5.8,8.5,5.8,8.5z M5.7,2.3L5.7,2.3L5.7,2.3L5.7,2.3z
		 M5.7,2.5L5.7,2.5L5.7,2.5L5.7,2.5z M5.7,4.8L5.7,4.8L5.7,4.8L5.7,4.8z M5.7,5.1L5.7,5.1L5.7,5.1L5.7,5.1z M5.7,7.3L5.7,7.3
		L5.7,7.3L5.7,7.3z M5.7,7.4L5.7,7.4L5.7,7.4L5.7,7.4z M5.7,9.1L5.7,9.1L5.7,9.1L5.7,9.1z M5.7,7.5L5.7,7.5L5.7,7.5L5.7,7.5z
		 M5.8,4.1L5.8,4.1L5.8,4.1L5.8,4.1z M5.8,4.2L5.8,4.2L5.8,4.2L5.8,4.2z M5.8,9.3L5.8,9.3L5.8,9.3L5.8,9.3z M5.8,8.7L5.8,8.7
		L5.8,8.7L5.8,8.7L5.8,8.7z M6,9.5L6,9.5L6,9.5L6,9.5z"/>
	<path d="M10.2,10c-0.2,0-0.3-0.1-0.4-0.2L9.2,9.2C9.1,9.1,9.1,9,9,8.8S8.9,8.6,8.8,8.5c0-0.2,0-0.4,0-0.6C8.9,7.7,9,7.6,9,7.4
		c0.1-0.1,0.2-0.3,0.3-0.3S9.7,7,10,7c0.1,0,0.2,0,0.4,0.1c0.1,0,0.3,0.1,0.4,0.2c0.1,0.1,0.2,0.2,0.3,0.3c0.1,0.1,0.1,0.2,0.1,0.3
		c0,0.3,0,0.5-0.1,0.7c-0.1,0.2-0.2,0.3-0.3,0.5c-0.1,0.1-0.2,0.2-0.3,0.3c-0.1,0.1-0.1,0.2-0.1,0.3c0,0.1,0,0.2,0.1,0.3
		c0.1,0.1,0.2,0.1,0.3,0.2c0.1,0,0.3,0.1,0.4,0.1c0.1,0,0.3,0,0.3,0c0.3,0,0.5-0.1,0.7-0.2c0.2-0.2,0.3-0.4,0.4-0.6s0.1-0.5,0.2-0.8
		s0-0.5,0-0.7c0-0.4,0-0.7-0.1-0.9c-0.1-0.2-0.1-0.4-0.2-0.6C12.2,6.1,12.1,6,12,5.9s-0.3-0.1-0.5-0.1c-0.2,0-0.4-0.1-0.6-0.1
		S10.3,5.7,10,5.6L10,5.5l0.1-0.1c0.1,0,0.2,0,0.4,0c0.1,0,0.2,0,0.4,0c0.2,0,0.4,0,0.5-0.1s0.3-0.1,0.5-0.2
		c0.1-0.1,0.2-0.3,0.4-0.3c0.1-0.2,0.2-0.3,0.3-0.5s0.1-0.2,0.1-0.4c0-0.1,0-0.3,0-0.4c0-0.1,0-0.3,0-0.6c0-0.1,0-0.2,0-0.3
		c0-0.1,0-0.2,0-0.4s0-0.2-0.1-0.3s-0.1-0.2-0.2-0.3c-0.1-0.1-0.1-0.1-0.2-0.1c-0.1,0-0.1-0.1-0.2-0.1l0.1,0c0.3,0,0.6,0.1,1,0.2
		c0.4,0.1,0.7,0.2,1,0.4c0.3,0.2,0.6,0.4,0.8,0.7c0.2,0.3,0.3,0.6,0.3,1c0,0.3-0.1,0.5-0.2,0.6c-0.1,0.2-0.2,0.3-0.4,0.4
		c-0.2,0.1-0.3,0.2-0.5,0.3c-0.2,0.1-0.4,0.1-0.5,0.2c-0.2,0.1-0.3,0.1-0.4,0.1c-0.1,0-0.2,0.1-0.2,0.1c0,0.1,0.1,0.1,0.2,0.2
		s0.2,0.1,0.4,0.2C13.8,6,14,6.1,14.1,6.1c0.1,0,0.2,0.1,0.3,0.1c0.3,0.2,0.5,0.4,0.8,0.7s0.3,0.6,0.3,1c0,0.4-0.1,0.8-0.3,1
		c-0.2,0.3-0.4,0.5-0.7,0.7C14.3,9.8,14,9.9,13.6,10c-0.3,0.1-0.7,0.2-1,0.3c-0.1,0-0.1,0-0.2,0.1c-0.1,0-0.1,0-0.2,0h-0.8
		c-0.1,0-0.2-0.1-0.4-0.1c-0.1,0-0.2-0.1-0.4-0.1l-0.1,0C10.5,10.1,10.4,10,10.2,10z M9.2,8.3L9.2,8.3L9.2,8.3L9.2,8.3z M9.2,7.9
		L9.2,7.9L9.2,7.9L9.2,7.9L9.2,7.9z M9.4,2.7c0.1-0.2,0.2-0.4,0.4-0.5C10,2,10.1,1.8,10.3,1.7c0.2-0.1,0.4-0.2,0.5-0.2
		c0,0,0.1,0,0.1,0v0c-0.1,0-0.2,0.1-0.3,0.2S10.7,2,10.7,2.1l0,0.1c0,0,0.1,0.1,0.2,0.2s0.2,0.2,0.2,0.3c0.1,0.1,0.1,0.2,0.2,0.3
		c0.1,0.1,0.1,0.2,0.1,0.2c0,0.1,0,0.3-0.1,0.4c-0.1,0.1-0.1,0.2-0.2,0.3c-0.1,0.1-0.2,0.2-0.3,0.2s-0.3,0.1-0.4,0.1
		c-0.1,0-0.3,0-0.4-0.1C9.8,4.1,9.7,4.1,9.6,4S9.4,3.8,9.3,3.6S9.2,3.4,9.2,3.2C9.2,3.1,9.3,2.9,9.4,2.7z M9.5,8.3
		C9.4,8.3,9.4,8.3,9.5,8.3c-0.1,0-0.1,0-0.2,0c0,0,0,0.1,0,0.1C9.3,8.5,9.4,8.4,9.5,8.3c0,0,0.1-0.1,0.2-0.1c0,0,0-0.1-0.1-0.1
		C9.5,8,9.4,8,9.4,8l0.1-0.2c0,0-0.1,0-0.1,0.1C9.4,8,9.3,8,9.3,8.1c0,0.1,0,0.1,0.1,0.1C9.5,8.2,9.5,8.2,9.5,8.3
		C9.5,8.3,9.5,8.3,9.5,8.3z M9.4,7.7L9.3,7.5C9.3,7.6,9.3,7.7,9.4,7.7z M9.3,7.9c0,0,0,0.1,0,0.1l0-0.2C9.3,7.8,9.3,7.8,9.3,7.9z
		 M9.3,8.2L9.3,8.2L9.3,8.2L9.3,8.2L9.3,8.2z M9.6,8.7L9.6,8.7l0.2-0.2l0.1,0.1l0-0.1l0-0.1H9.5c-0.1,0-0.1,0-0.1,0.1
		c0,0.1,0,0.1,0,0.2l0,0.2L9.6,8.7z M9.5,9C9.5,9,9.6,9,9.5,9C9.5,8.9,9.5,8.9,9.5,9z M9.5,7.6L9.5,7.6L9.5,7.6L9.5,7.6z M9.6,9.2
		C9.6,9.2,9.6,9.3,9.6,9.2l0-0.1L9.6,9.2C9.6,9.2,9.6,9.2,9.6,9.2z M9.6,7.5c0,0,0.1,0.1,0.1,0.1v0L9.6,7.4H9.6
		C9.6,7.4,9.6,7.5,9.6,7.5z M9.9,7.6c-0.1,0-0.1,0-0.1,0s-0.1,0-0.1,0l0.1,0.1C9.8,7.8,9.8,7.7,9.9,7.6z M9.6,3.2L9.6,3.2L9.6,3.2
		L9.6,3.2z M9.9,8C10,7.9,10,7.9,10.1,7.8l0.1,0l-0.1-0.2l0,0.1l0,0c0-0.1,0-0.2,0.1-0.2c0.1-0.1,0.1-0.1,0.1-0.2
		c-0.1,0-0.1,0-0.2,0.1S9.9,7.5,9.8,7.5c0,0,0,0.1,0,0.1c0,0.1,0,0.1,0,0.1C9.9,7.8,9.9,7.9,9.9,8C9.8,8,9.7,8,9.6,8v0.1
		C9.7,8.1,9.8,8,9.9,8z M9.7,8.3L9.7,8.3L9.7,8.3L9.7,8.3z M9.7,8.7L9.7,8.7L9.7,8.7L9.7,8.7L9.7,8.7z M9.7,9.1L9.7,9.1L9.7,9.1
		L9.7,9.1L9.7,9.1z M9.8,9V8.7L9.7,8.8L9.8,9z M9.8,3.5C9.8,3.5,9.7,3.4,9.8,3.5L9.8,3.5L9.8,3.5z M10,8.5c0.1,0,0.1,0,0.2,0
		c0.1,0,0.1,0,0.2,0c0,0,0-0.1-0.1-0.1c0,0-0.1,0-0.1-0.1c0,0,0,0,0.1-0.1c0,0,0.1,0,0.1,0c0,0,0.1,0,0.1,0c0,0,0,0,0-0.1v0
		l-0.2,0.1l0,0c0-0.1,0-0.1,0.1-0.2c0.1-0.1,0.1-0.1,0.2-0.1l-0.1-0.1l0,0l0,0l0,0l-0.2-0.3l0,0c0,0.1,0,0.2,0,0.3S10.2,8,10.1,8
		l0,0c0,0,0,0-0.1,0c0,0-0.1,0-0.1,0s-0.1,0-0.1,0.1S9.8,8.2,9.8,8.3c0.1,0,0.1,0,0.2,0s0.1-0.1,0.1-0.1l0,0.1
		C10.1,8.4,10,8.4,10,8.5z M9.8,8.9L9.8,8.9L9.8,8.9L9.8,8.9z M9.9,3.2C9.9,3.1,9.9,3.1,9.9,3.2L9.9,3.2L9.9,3.2z M9.9,2.9
		C9.9,2.9,10,2.9,9.9,2.9L9.9,2.9L9.9,2.9C9.9,2.9,9.9,2.9,9.9,2.9z M10,3.3C10,3.4,9.9,3.4,10,3.3L10,3.3L10,3.3
		C10,3.3,10,3.3,10,3.3z M10,3.5L10,3.5l-0.1,0v0H10z M10,8.4L10,8.4L10,8.4L10,8.4z M9.9,8.8L9.9,8.8L9.9,8.8L9.9,8.8L9.9,8.8z
		 M10,9.2L10,9.2L10,9.2L10,9.2L10,9.2z M10.1,3.7L10.1,3.7L10.1,3.7L10.1,3.7z M10,8.3C10,8.3,10,8.3,10,8.3C10,8.3,10,8.3,10,8.3
		L10,8.3L10,8.3z M10,2.9L10,2.9L10,2.9L10,2.9z M10.2,2.7l-0.1,0.1C10.2,2.8,10.2,2.7,10.2,2.7z M10.2,8.7l0-0.1L10.2,8.7L10.2,8.7
		L10.2,8.7z M10.2,2.4L10.2,2.4L10.2,2.4L10.2,2.4z M10.3,3.3L10.3,3.3l-0.1-0.1L10.3,3.3L10.3,3.3z M10.2,7.7l0-0.2L10.2,7.7
		L10.2,7.7z M10.2,3.5L10.2,3.5L10.2,3.5L10.2,3.5L10.2,3.5z M10.3,8.8L10.3,8.8L10.3,8.8L10.3,8.8L10.3,8.8z M10.3,2.5L10.3,2.5
		L10.3,2.5L10.3,2.5z M10.3,3.5l0.1-0.1l0,0L10.3,3.5L10.3,3.5z M10.3,2.9C10.3,2.9,10.3,2.9,10.3,2.9C10.3,2.9,10.3,2.9,10.3,2.9
		L10.3,2.9L10.3,2.9C10.3,2.9,10.3,2.9,10.3,2.9C10.3,2.8,10.3,2.8,10.3,2.9L10.3,2.9L10.3,2.9L10.3,2.9z M10.3,2.8L10.3,2.8
		C10.3,2.9,10.3,2.9,10.3,2.8z M10.3,2.8L10.3,2.8L10.3,2.8L10.3,2.8z M10.3,8.7L10.3,8.7c0.1,0,0.1,0,0.1-0.1l0,0
		C10.4,8.6,10.3,8.6,10.3,8.7z M10.4,3.6L10.4,3.6L10.4,3.6L10.4,3.6L10.4,3.6L10.4,3.6L10.4,3.6L10.4,3.6z M10.5,2.7l-0.2-0.1
		l0.1,0.2L10.5,2.7z M10.4,3.3l0.1-0.1v0L10.4,3.3L10.4,3.3z M10.4,8.4C10.4,8.4,10.4,8.4,10.4,8.4L10.4,8.4L10.4,8.4
		C10.4,8.4,10.4,8.4,10.4,8.4z M10.5,2.9L10.5,2.9L10.5,2.9L10.5,2.9L10.5,2.9z M10.4,3.7L10.4,3.7L10.4,3.7L10.4,3.7L10.4,3.7z
		 M10.7,8.3l-0.1-0.1l0,0.1L10.7,8.3L10.7,8.3z M10.6,2.8L10.6,2.8L10.6,2.8L10.6,2.8L10.6,2.8z M10.6,3.7c0,0,0,0.1,0,0.1
		C10.7,3.8,10.7,3.7,10.6,3.7C10.7,3.6,10.6,3.7,10.6,3.7z M10.6,3.3L10.6,3.3L10.6,3.3L10.6,3.3z M10.7,3.1L10.7,3.1L10.7,3.1
		L10.7,3.1L10.7,3.1z M10.7,3.5L10.7,3.5L10.7,3.5L10.7,3.5L10.7,3.5z M10.7,7.9L10.7,7.9L10.7,7.9L10.7,7.9L10.7,7.9z M10.8,3.6
		L10.8,3.6L10.8,3.6L10.8,3.6L10.8,3.6z M10.9,3.2L10.9,3.2L10.9,3.2L10.9,3.2z M11,3.5L11,3.5L11,3.5L11,3.5z M12.2,5.6
		C12.2,5.5,12.2,5.5,12.2,5.6L12.2,5.6L12.2,5.6z M12.4,5.8C12.4,5.8,12.4,5.8,12.4,5.8L12.4,5.8L12.4,5.8z M12.4,5.2L12.4,5.2
		L12.4,5.2C12.4,5.2,12.4,5.2,12.4,5.2z M12.6,5.3l-0.1,0.1l0.1,0V5.3z M12.6,5.1L12.6,5.1L12.6,5.1L12.6,5.1z M12.6,5.6L12.6,5.6
		C12.6,5.5,12.6,5.5,12.6,5.6C12.6,5.5,12.5,5.5,12.6,5.6C12.5,5.6,12.6,5.6,12.6,5.6z M12.7,5.1L12.7,5.1l0.1,0.2L12.7,5.1z
		 M13,5.9c-0.1,0-0.1-0.1-0.2-0.1l-0.2,0.1v0L13,5.9L13,5.9z M12.7,6.3L12.7,6.3L12.7,6.3L12.7,6.3L12.7,6.3z M12.7,4.9L12.7,4.9
		L12.7,4.9L12.7,4.9z M12.7,5.4L12.7,5.4L12.7,5.4C12.7,5.5,12.7,5.4,12.7,5.4z M12.7,5.7L12.7,5.7L12.7,5.7L12.7,5.7z M12.7,6.2
		L12.7,6.2L12.7,6.2L12.7,6.2L12.7,6.2z M12.7,6.1L12.7,6.1L12.7,6.1L12.7,6.1z M12.7,9.5L12.7,9.5L12.7,9.5L12.7,9.5L12.7,9.5z
		 M12.8,5.4L12.8,5.4L12.8,5.4L12.8,5.4L12.8,5.4z M12.8,5.6L12.8,5.6L12.8,5.6C12.8,5.5,12.8,5.6,12.8,5.6z M12.8,3.9l0.2,0l0,0
		L12.8,3.9z M12.8,9.1L12.8,9.1L12.8,9.1L12.8,9.1z M12.8,4.6L12.8,4.6L12.8,4.6L12.8,4.6L12.8,4.6z M12.8,4.7L12.8,4.7L12.8,4.7
		L12.8,4.7L12.8,4.7z M12.9,5.1c0,0.1,0,0.1,0,0.2L13,5.1L12.9,5.1L12.9,5.1C12.9,5.1,12.9,5,13,5s0.1,0,0.2,0c0-0.1,0-0.1-0.1-0.1
		c-0.1,0-0.1-0.1-0.2-0.1l0,0.1l-0.2,0.1C12.8,5,12.8,5.1,12.9,5.1z M13,9.7l-0.1,0.1v0C12.9,9.8,12.9,9.7,13,9.7z M12.9,6.3
		L12.9,6.3L12.9,6.3L12.9,6.3z M12.9,8.9L12.9,8.9L12.9,8.9L12.9,8.9z M12.9,6.6L12.9,6.6L12.9,6.6L12.9,6.6z M12.9,6.1L12.9,6.1
		L12.9,6.1L12.9,6.1z M13,7L13,7L13,7L13,7L13,7z M12.9,8.5L12.9,8.5L12.9,8.5L12.9,8.5L12.9,8.5z M12.9,9.4L12.9,9.4L12.9,9.4
		L12.9,9.4L12.9,9.4z M13,9.5L13,9.5L13,9.5l-0.1,0.1L13,9.5z M12.9,5.5C12.9,5.5,12.9,5.5,12.9,5.5L12.9,5.5L12.9,5.5L12.9,5.5z
		 M13,6.2C12.9,6.2,12.9,6.2,13,6.2L13,6.2L13,6.2C13,6.2,13,6.2,13,6.2z M13,6.7l-0.1-0.1C12.9,6.6,12.9,6.7,13,6.7z M13.1,4.2
		C13.1,4.2,13,4.1,13.1,4.2L13,4.1L13.1,4.2L13.1,4.2z M13,4.3L13,4.3L13,4.3L13,4.3z M13,8.3L13,8.3L13,8.3L13,8.3z M13.1,4.5
		C13.1,4.5,13,4.5,13.1,4.5C13,4.6,13,4.6,13.1,4.5C13,4.6,13,4.6,13,4.6C13,4.6,13,4.6,13.1,4.5c0.1,0,0.1,0,0.1,0L13.1,4.5
		C13.1,4.5,13.1,4.5,13.1,4.5z M13,7L13,7L13,7C13,7.1,13,7,13,7z M13,7.9L13,7.9L13,7.9L13,7.9z M13,9L13,9l0,0.1L13,9z M13,9.3
		L13,9.3L13,9.3L13,9.3z M13.1,2.4l0.1-0.1l-0.1-0.1L13.1,2.4L13.1,2.4z M13,6.5C13,6.5,13,6.5,13,6.5L13,6.5
		C13.1,6.5,13.1,6.4,13,6.5C13,6.4,13,6.4,13,6.5L13,6.5C13,6.4,13,6.4,13,6.5z M13.1,3.1C13.1,3.1,13,3.2,13.1,3.1L13.1,3.1
		L13.1,3.1C13.1,3.1,13.1,3.1,13.1,3.1z M13.1,3.4L13.1,3.4v0.1V3.4z M13.1,8.5V8.4V8.5L13.1,8.5L13.1,8.5z M13.4,8.6L13,8.5
		l0.1,0.2L13.4,8.6z M13.3,8.8L13.3,8.8L13,8.9L13.2,9L13.3,8.8z M13.1,6.2L13.1,6.2L13.1,6.2L13.1,6.2L13.1,6.2z M13,7.7L13,7.7
		L13,7.7L13,7.7L13,7.7z M13.1,2.1L13.1,2.1L13.1,2.1L13.1,2.1L13.1,2.1z M13.2,3.9l-0.1,0.1L13.3,4L13.2,3.9z M13.3,6.8l-0.1,0
		l-0.1,0.1l0.1,0.1L13.3,6.8z M13.3,7.3V7.2c-0.1,0-0.2,0-0.3-0.1v0.1L13.3,7.3z M13.1,7.8L13.1,7.8L13.1,7.8
		C13.1,7.9,13.1,7.8,13.1,7.8z M13.3,9.4L13.3,9.4l-0.2,0l0,0.1L13.3,9.4z M13.1,3L13.1,3L13.1,3L13.1,3z M13.3,8.3L13.3,8.3l-0.2,0
		l0.1,0.1L13.3,8.3z M13.3,2.7C13.3,2.7,13.3,2.7,13.3,2.7c-0.1-0.1-0.1-0.1-0.2-0.1h0C13.2,2.7,13.2,2.7,13.3,2.7z M13.2,6.5
		C13.2,6.5,13.3,6.4,13.2,6.5C13.2,6.4,13.2,6.4,13.2,6.5C13.2,6.5,13.2,6.5,13.2,6.5L13.2,6.5L13.2,6.5z M13.4,2.6l0.1-0.1l-0.3,0
		C13.2,2.5,13.3,2.6,13.4,2.6z M13.3,3.1l-0.1,0.1l0,0L13.3,3.1z M13.2,3.6L13.2,3.6L13.2,3.6C13.2,3.7,13.2,3.7,13.2,3.6z
		 M13.2,6.3L13.2,6.3L13.2,6.3L13.2,6.3z M13.2,8.2L13.2,8.2L13.2,8.2L13.2,8.2z M13.2,9.2L13.2,9.2L13.2,9.2L13.2,9.2z M13.2,9.6
		L13.2,9.6L13.2,9.6L13.2,9.6z M13.2,4.1c0,0,0,0.1,0,0.1c0.1,0,0.1-0.1,0.2-0.2C13.3,4.1,13.3,4.1,13.2,4.1z M13.3,4.2l-0.1,0.1
		l0,0L13.3,4.2z M13.2,8L13.2,8L13.2,8L13.2,8L13.2,8z M13.2,9.8L13.2,9.8L13.2,9.8L13.2,9.8L13.2,9.8z M13.4,3.1c0-0.1,0-0.1,0-0.2
		c0-0.1,0-0.1,0-0.2l-0.3,0.1L13.4,3.1L13.4,3.1z M13.3,4.6L13.3,4.6L13.3,4.6L13.3,4.6z M13.4,7c0,0,0.1,0,0.1,0.1
		c0,0,0.1,0.1,0.1,0.1c0,0,0.1,0,0.1,0c0,0,0.1-0.1,0.1-0.1c-0.1,0-0.1,0-0.2,0.1c-0.1,0-0.1-0.1-0.1-0.1l-0.3,0.3l0,0L13.4,7z
		 M13.3,7.6L13.3,7.6L13.3,7.6L13.3,7.6z M13.3,3.9L13.3,3.9L13.3,3.9L13.3,3.9L13.3,3.9z M13.3,5.1C13.3,5.1,13.3,5.1,13.3,5.1
		L13.3,5.1L13.3,5.1C13.3,5.1,13.3,5.1,13.3,5.1z M13.4,6.6h-0.1v0.1L13.4,6.6z M13.3,9L13.3,9L13.4,9l0-0.1h0L13.3,9z M13.5,2.3
		L13.5,2.3l-0.2-0.1l-0.1,0.1l0,0L13.5,2.3z M13.4,3.7L13.4,3.7L13.4,3.7c0-0.1,0-0.1,0-0.1c0,0,0-0.1,0-0.1c0,0,0,0,0,0
		c0,0,0,0,0-0.1l-0.1,0l-0.1,0.1C13.3,3.5,13.4,3.6,13.4,3.7z M13.3,4.7L13.3,4.7C13.4,4.6,13.3,4.6,13.3,4.7
		C13.3,4.6,13.3,4.6,13.3,4.7z M13.5,4.8l-0.2,0.1l0,0L13.5,4.8z M13.3,8.2c0,0,0,0.1,0,0.1l0.3-0.2c0,0,0.1,0,0.1,0.1
		c0,0,0,0.1,0,0.1l0.1-0.1c0-0.1,0-0.1-0.1-0.2c0,0-0.1-0.1-0.1-0.1c0,0,0,0.1-0.1,0.1c0,0-0.1,0.1-0.1,0.1L13.3,8
		C13.3,8.1,13.3,8.1,13.3,8.2z M13.4,8.6c0.1,0,0.1,0,0.1,0c0,0,0-0.1,0-0.1c0,0,0-0.1,0.1-0.1L13.4,8.6C13.3,8.5,13.3,8.6,13.4,8.6
		z M13.4,5.1L13.4,5.1L13.4,5.1L13.4,5.1L13.4,5.1z M13.6,7.5L13.6,7.5l0-0.1h0.1l-0.1-0.2l-0.3,0.3l0.1,0L13.6,7.5z M13.3,7.9
		L13.3,7.9h0.2C13.4,7.9,13.4,7.9,13.3,7.9z M13.5,6.4L13.5,6.4h-0.2H13.5L13.5,6.4z M13.5,7.7C13.5,7.7,13.5,7.7,13.5,7.7
		c-0.1-0.1-0.1-0.1-0.1-0.1l0,0C13.4,7.7,13.4,7.7,13.5,7.7z M13.6,9.6L13.6,9.6l-0.1,0l-0.1-0.2l0-0.1l-0.1,0v0.5
		C13.5,9.7,13.6,9.7,13.6,9.6z M13.6,3.2C13.6,3.2,13.6,3.2,13.6,3.2c0.1,0.1,0.2,0.1,0.2,0.1l0,0c0,0,0,0-0.1,0c0,0,0,0,0-0.1
		c0,0,0,0,0-0.1C13.7,3.1,13.6,3.1,13.6,3.2l-0.1,0.1l0.1,0.1L13.6,3.2z M13.5,4C13.5,4,13.5,3.9,13.5,4c-0.1-0.1-0.1-0.1-0.1-0.1V4
		H13.5z M13.5,8.7c0,0-0.1,0.1-0.1,0.1l0.2-0.2C13.6,8.6,13.6,8.6,13.5,8.7z M13.8,2.9l-0.2-0.1l-0.1,0.2l0,0L13.8,2.9z M13.6,4.7
		L13.6,4.7L13.6,4.7L13.6,4.7z M13.6,8.3L13.6,8.3l0.1,0.2L13.6,8.3z M13.6,9.2L13.6,9.2L13.6,9.2C13.5,9.2,13.6,9.2,13.6,9.2z
		 M13.5,3.8L13.5,3.8L13.5,3.8L13.5,3.8C13.5,3.7,13.5,3.8,13.5,3.8z M13.6,7.7c0-0.1,0-0.1-0.1-0.1C13.6,7.6,13.6,7.7,13.6,7.7z
		 M13.6,2.4L13.6,2.4L13.6,2.4L13.6,2.4z M13.6,2.5C13.6,2.6,13.6,2.6,13.6,2.5L13.6,2.5L13.6,2.5C13.7,2.5,13.6,2.5,13.6,2.5z
		 M13.6,3.6L13.6,3.6L13.6,3.6L13.6,3.6L13.6,3.6z M13.6,4.5L13.6,4.5L13.6,4.5L13.6,4.5L13.6,4.5z M13.7,6.8L13.7,6.8L13.7,6.8
		C13.6,6.9,13.6,6.8,13.7,6.8z M13.7,9.4c0,0,0.1-0.1,0.1-0.2c0-0.1,0.1-0.1,0.1-0.2C14,9,14.1,9,14.1,9L14.3,9l-0.2-0.1l-0.2,0
		l-0.1,0l0,0l-0.1,0.1l0,0.1l-0.2,0.2l0,0.1C13.6,9.4,13.7,9.4,13.7,9.4z M13.6,9L13.7,9l0-0.1L13.6,9L13.6,9z M13.6,4.4L13.6,4.4
		L13.6,4.4L13.6,4.4z M13.6,8.6l0.1,0l0,0L13.6,8.6z M13.6,3.8L13.6,3.8L13.6,3.8L13.6,3.8L13.6,3.8z M13.6,4.1L13.6,4.1L13.6,4.1
		C13.7,4,13.6,4,13.6,4.1z M13.7,6.3L13.7,6.3L13.7,6.3L13.7,6.3L13.7,6.3z M13.6,7.9C13.7,7.9,13.7,7.9,13.6,7.9
		c0.1,0,0.1-0.1,0.1-0.1L13.6,7.9C13.7,7.8,13.6,7.8,13.6,7.9z M13.8,3.4L13.8,3.4L13.8,3.4L13.8,3.4z M13.8,6.6c0,0,0,0.1,0,0.1
		l0.1,0l-0.1-0.2l0.1-0.1l0,0c0,0-0.1,0-0.1,0.1c0,0,0,0.1,0,0.1C13.7,6.5,13.7,6.6,13.8,6.6z M13.8,7.6L13.8,7.6h-0.1H13.8z
		 M13.8,9.7L13.8,9.7L13.8,9.7L13.8,9.7L13.8,9.7z M13.8,2.7L13.8,2.7L13.8,2.7L13.8,2.7L13.8,2.7z M13.9,3.9h-0.1l0,0.1L13.9,3.9z
		 M13.9,4.6L13.9,4.6l-0.2,0l0,0L13.9,4.6z M14.3,8.5c0,0,0-0.1,0-0.1c0,0-0.1-0.1-0.1-0.1S14.1,8.2,14,8.2c0,0,0-0.1,0-0.1
		c0,0,0-0.1,0-0.1c0,0,0-0.1,0.1-0.1l0.2,0.1l0.2-0.2l-0.1-0.2c-0.1,0.1-0.1,0.2-0.3,0.2c0,0.1,0,0.2-0.1,0.2
		c-0.1,0-0.1,0.1-0.2,0.1c0.1,0.1,0.1,0.1,0.1,0.2c0,0,0.1,0.1,0.1,0.2c-0.1,0-0.1,0-0.1,0s0,0.1,0,0.1c0,0,0.1,0,0.1,0
		c0,0,0.1,0,0.1,0l0.1,0.1l0,0.2L14.3,8.5z M13.9,8.7L13.9,8.7l-0.1,0.1L13.9,8.7z M13.8,4.3L13.8,4.3L13.8,4.3L13.8,4.3L13.8,4.3z
		 M13.8,7.2C13.8,7.2,13.8,7.2,13.8,7.2L13.8,7.2L13.8,7.2C13.8,7.2,13.8,7.2,13.8,7.2z M13.8,9.5L13.8,9.5L13.8,9.5L13.8,9.5
		C13.8,9.4,13.8,9.4,13.8,9.5z M13.8,2.4L13.8,2.4L13.8,2.4L13.8,2.4z M13.8,3L13.8,3L14,2.9v0C13.9,2.9,13.9,3,13.8,3z M13.9,3.4
		L13.9,3.4L13.9,3.4L13.9,3.4L13.9,3.4z M14,7.4L14,7.4L14,7.4l-0.1,0l0,0L14,7.6L14,7.4z M13.9,7.1L13.9,7.1L13.9,7.1L13.9,7.1z
		 M14,9.2c-0.1,0.1-0.1,0.1-0.1,0.2C13.9,9.3,14,9.3,14,9.2c0.1,0,0.2,0,0.2-0.1C14.1,9.1,14,9.1,14,9.2z M14,2.6l-0.1,0.2l0,0
		L14,2.6z M13.9,3.8C13.9,3.8,13.9,3.8,13.9,3.8L13.9,3.8l0.2,0L13.9,3.8C13.9,3.8,13.9,3.8,13.9,3.8z M14,4.3c0,0-0.1,0.1-0.1,0.1
		C14,4.4,14,4.4,14,4.3c0.1,0.1,0.1,0,0.1,0C14.1,4.2,14,4.2,14,4.3z M14,6.5L14,6.5L14,6.5L14,6.5z M14,6.9V6.8h-0.1L14,6.9L14,6.9
		z M14.1,8.7L14,8.6l0,0.1L14,8.8L14.1,8.7z M14,9.5l-0.1,0v0C13.9,9.5,14,9.5,14,9.5z M14.1,3.1c0,0,0-0.1,0-0.1h0L14,3.2L14,3.3
		C14,3.2,14,3.2,14.1,3.1z M14.1,4.1c0-0.1,0-0.1,0-0.1c0,0,0,0,0-0.1L14,4.1H14.1z M14,7.2c0,0,0,0.1,0,0.1c0,0,0.1,0,0.2-0.1
		c0.1,0,0.1-0.1,0.1-0.1c0,0,0-0.1,0-0.1c0,0,0,0-0.1,0c0,0,0,0-0.1,0s0,0,0-0.1l0,0c0,0,0,0.1,0,0.1C14.1,7.1,14.1,7.2,14,7.2
		C14.1,7.2,14.1,7.2,14,7.2z M14.1,2.4L14.1,2.4L14.1,2.4L14.1,2.4z M14.1,3.3L14.1,3.3L14.1,3.3L14.1,3.3z M14.1,4.6
		C14.1,4.6,14.1,4.6,14.1,4.6C14.1,4.6,14.1,4.6,14.1,4.6C14.1,4.6,14.1,4.6,14.1,4.6z M14.1,6.6L14.1,6.6L14.1,6.6L14.1,6.6z
		 M14.3,2.8c0.1-0.1,0.1-0.1,0.1-0.2C14.3,2.6,14.3,2.6,14.3,2.8c-0.1,0-0.1,0-0.2,0l0,0.1C14.2,2.9,14.2,2.8,14.3,2.8z M14.1,3.6
		c0,0,0.1,0.1,0.1,0.1C14.2,3.7,14.2,3.7,14.1,3.6C14.2,3.6,14.2,3.6,14.1,3.6c0.1-0.1,0.1-0.1,0-0.1s0,0-0.1,0
		C14.1,3.5,14.1,3.6,14.1,3.6z M14.2,8.2L14.2,8.2L14.2,8.2L14.2,8.2z M14.2,4.2L14.2,4.2L14.2,4.2L14.2,4.2z M14.3,2.9L14.3,2.9
		L14.2,3L14.3,2.9z M14.2,3.9L14.2,3.9L14.2,3.9L14.2,3.9L14.2,3.9z M14.3,4.7c0-0.1,0-0.1-0.1-0.1L14.3,4.7L14.3,4.7z M14.3,6.7
		L14.3,6.7L14.3,6.7L14.3,6.7z M14.3,7.4L14.3,7.4L14.3,7.4L14.3,7.4L14.3,7.4z M14.2,8.8L14.2,8.8L14.2,8.8L14.2,8.8L14.2,8.8z
		 M14.2,8.2L14.2,8.2L14.2,8.2L14.2,8.2L14.2,8.2z M14.3,7c0,0,0,0.1,0.1,0.1L14.4,7l-0.2-0.2C14.3,6.9,14.3,6.9,14.3,7z M14.4,8.7
		L14.4,8.7L14.4,8.7L14.4,8.7z M14.4,4.3c0,0,0.1,0.1,0.2,0.1l0-0.1l0-0.1l-0.1-0.1l0,0L14.5,4l0.1,0.1c0,0,0.1-0.1,0.1-0.1
		c0.1-0.1,0.1-0.1,0.1-0.2c0,0-0.1,0-0.1,0c0,0-0.1,0-0.1,0.1l-0.1,0v0.1l0,0l-0.2-0.1l-0.1,0.3C14.3,4.2,14.4,4.3,14.4,4.3z
		 M14.3,9.2C14.3,9.1,14.3,9.1,14.3,9.2L14.3,9.2L14.3,9.2z M14.4,3.2L14.4,3.2C14.5,3.1,14.4,3.1,14.4,3.2
		C14.4,3.1,14.3,3.1,14.4,3.2C14.3,3.1,14.3,3.2,14.4,3.2z M14.4,3.5C14.4,3.5,14.4,3.5,14.4,3.5l0-0.1L14.4,3.5
		C14.3,3.4,14.3,3.4,14.4,3.5z M14.4,4.5c0,0,0.1,0,0.1,0v0l-0.2-0.1C14.3,4.5,14.3,4.5,14.4,4.5z M14.4,7.3c0,0,0.1,0,0.1,0
		c0,0,0.1,0,0.1,0c0,0,0.1,0,0.1-0.1C14.7,7.2,14.6,7.2,14.4,7.3c0-0.1-0.1-0.1-0.1,0L14.4,7.3C14.4,7.3,14.4,7.3,14.4,7.3z
		 M14.4,3.7L14.4,3.7L14.4,3.7L14.4,3.7z M14.4,9.4L14.4,9.4L14.4,9.4L14.4,9.4L14.4,9.4z M14.5,7.9L14.5,7.9L14.4,8
		C14.4,8,14.5,8,14.5,7.9z M14.6,8.4C14.6,8.3,14.7,8.3,14.6,8.4l0.1-0.1l0.1-0.1l0,0l-0.1,0.1l-0.1-0.1l-0.1,0l0.2,0.1L14.6,8.4
		l-0.1,0.1C14.6,8.4,14.6,8.4,14.6,8.4z M14.4,8.4L14.4,8.4L14.4,8.4L14.4,8.4L14.4,8.4z M14.4,9.1L14.5,9l-0.1-0.2L14.4,9.1
		L14.4,9.1z M14.4,8.6l0.1-0.1L14.4,8.6L14.4,8.6z M14.4,7.6L14.4,7.6L14.4,7.6L14.4,7.6z M14.5,9.3L14.5,9.3L14.5,9.3L14.5,9.3
		L14.5,9.3z M14.5,8.8L14.5,8.8L14.5,8.8C14.5,8.7,14.5,8.7,14.5,8.8z M14.5,3L14.5,3L14.5,3L14.5,3L14.5,3z M14.5,7.1L14.5,7.1
		L14.5,7.1L14.5,7.1L14.5,7.1z M14.6,7.9C14.7,7.9,14.7,8,14.8,8c0.1,0,0.2,0,0.2-0.1l-0.1,0l-0.2,0.1l-0.2-0.2h0
		C14.5,7.8,14.6,7.8,14.6,7.9z M14.6,2.9L14.6,2.9L14.6,2.9L14.6,2.9L14.6,2.9z M14.6,3.4L14.6,3.4L14.6,3.4L14.6,3.4z M14.6,3.7
		L14.6,3.7L14.6,3.7C14.6,3.8,14.6,3.8,14.6,3.7z M14.8,7.7c0,0-0.1-0.1-0.1-0.1c0,0-0.1-0.1-0.1-0.1v0.1L14.8,7.7L14.8,7.7z
		 M14.6,9.1L14.6,9.1L14.6,9.1L14.6,9.1L14.6,9.1z M14.6,4.5L14.6,4.5L14.6,4.5L14.6,4.5L14.6,4.5z M14.6,8.8L14.6,8.8L14.6,8.8
		L14.6,8.8z M14.7,4.2L14.7,4.2L14.7,4.2L14.7,4.2z M14.7,7.1L14.7,7.1L14.7,7.1L14.7,7.1z M14.8,8.6c0-0.1,0.1-0.1,0.1-0.2
		C14.8,8.4,14.7,8.4,14.8,8.6c-0.1,0-0.1,0-0.1,0.1l0.1,0.1C14.7,8.7,14.7,8.6,14.8,8.6z M14.7,3.1L14.7,3.1v0.2V3.1z M14.8,3.6
		l-0.1-0.1v0L14.8,3.6L14.8,3.6z M14.7,3.3L14.7,3.3L14.7,3.3L14.7,3.3L14.7,3.3z M14.7,3.4L14.7,3.4L14.7,3.4L14.7,3.4L14.7,3.4z
		 M14.8,4.3C14.8,4.3,14.7,4.2,14.8,4.3L14.8,4.3L14.8,4.3z M14.7,7L14.7,7L14.7,7L14.7,7L14.7,7z M14.8,7.3L14.8,7.3l-0.1,0
		L14.8,7.3L14.8,7.3z M14.8,9L14.8,9L14.8,9L14.8,9L14.8,9z M14.9,7.4L14.9,7.4l-0.1,0.1C14.9,7.5,14.9,7.5,14.9,7.4z M14.9,3.6
		L15,3.4L14.9,3.6z M14.9,8.3L14.9,8.3L14.9,8.3L14.9,8.3z M14.9,8.4L14.9,8.4L14.9,8.4L14.9,8.4L14.9,8.4L14.9,8.4L14.9,8.4
		L14.9,8.4z M15,7.7L15,7.7L15,7.7L15,7.7z M15,8.3L15,8.3L15,8.3L15,8.3L15,8.3z M15,8.5C15,8.5,15,8.5,15,8.5L15,8.5L15,8.5
		L15,8.5z M15,8L15,8L15,8L15,8z M15.2,7.8c0-0.1-0.1-0.1-0.2-0.1L15.2,7.8L15.2,7.8z M15.2,8.3L15.2,8.3L15.2,8.3L15.2,8.3z"/>
</g>
</svg>
