<?xml version="1.0" encoding="utf-8"?>
<!-- Generator: Adobe Illustrator 17.1.0, SVG Export Plug-In . SVG Version: 6.00 Build 0)  -->
<!DOCTYPE svg PUBLIC "-//W3C//DTD SVG 1.1//EN" "http://www.w3.org/Graphics/SVG/1.1/DTD/svg11.dtd">
<svg version="1.1" id="Layer_1" xmlns="http://www.w3.org/2000/svg" xmlns:xlink="http://www.w3.org/1999/xlink" x="0px" y="0px"
	 width="17.8px" height="12.2px" viewBox="0 0 17.8 12.2" enable-background="new 0 0 17.8 12.2" xml:space="preserve">
<g>
	<path d="M1.9,9.8c0.3,0,0.6,0,0.8,0c0.2,0,0.3-0.1,0.4-0.1s0.2-0.2,0.2-0.4c0-0.2,0-0.4,0-0.8v-5c0-0.1-0.1-0.1-0.3-0.2
		C3,3.3,2.8,3.3,2.7,3.3c-0.2,0-0.3,0-0.5,0s-0.3,0-0.3,0L1.8,3.1L1.9,3c0.5,0,1-0.1,1.4-0.2s0.7-0.3,1-0.5C4.5,2.2,4.8,2,5,1.9
		c0.2-0.1,0.3-0.2,0.5-0.2l0.3,0l0.1,0.1c0,1.1,0,2.2,0,3.2s0,2.2,0,3.2c0,0.5,0,0.9,0.1,1.3C5.9,9.8,6,9.9,6.2,9.9s0.3,0,0.4,0h0.3
		L7,9.8l0.2,0.1l-0.1,0.3c-0.4-0.1-0.7-0.1-1.1-0.1c-0.4,0-0.7,0-1.1,0c-0.5,0-1,0-1.5,0s-1,0-1.5,0l-0.1-0.1L1.9,9.8z M3.5,9.7
		L3.5,9.7L3.5,9.7L3.5,9.7z M3.6,9.5L3.6,9.5v0.1V9.5z M3.6,9.7L3.6,9.7L3.6,9.7L3.6,9.7C3.6,9.7,3.6,9.7,3.6,9.7z M3.7,7.6L3.7,7.6
		L3.7,7.6L3.7,7.6z M3.7,9.3L3.7,9.3C3.8,9.3,3.8,9.3,3.7,9.3C3.8,9.3,3.8,9.3,3.7,9.3L3.7,9.3L3.7,9.3z M3.8,4.2l0.2,0l0,0L3.8,4.2
		z M3.8,5.9L3.8,5.9L3.8,5.9L3.8,5.9z M3.8,9.8L3.8,9.8L3.8,9.8L3.8,9.8z M3.8,4.7L3.8,4.7L3.8,4.7L3.8,4.7L3.8,4.7z M3.9,6.3
		L3.9,6.3L3.9,6.3L3.9,6.3z M3.9,8L3.9,8L3.9,8L3.9,8z M3.9,8.9L3.9,8.9L3.9,8.9L3.9,8.9z M3.9,6.8L3.9,6.8L3.9,6.8L3.9,6.8L3.9,6.8
		z M3.9,3.6c0,0,0,0.1,0.1,0.1c0-0.1,0-0.1,0-0.1s0.1-0.1,0.1-0.1L4,3.3L3.9,3.5C3.9,3.5,3.9,3.6,3.9,3.6z M3.9,5.1
		c0,0-0.1,0-0.1,0.1L4.2,5L4.1,4.9l0,0L3.9,4.9L3.9,5.1C4,5,4,5.1,3.9,5.1z M4,6.6c0,0,0.1,0,0.1,0l0.1-0.2L4,6.4L4,6.6
		C3.9,6.5,3.9,6.6,4,6.6z M4,9.7c0.1,0.1,0.1,0.1,0.1,0.2c0,0,0.1-0.1,0.1-0.2c0,0,0-0.1,0-0.1s0-0.1-0.1-0.1L3.9,9.6v0
		C3.9,9.6,4,9.7,4,9.7z M3.9,4.6L3.9,4.6L3.9,4.6L3.9,4.6z M3.9,5.7L3.9,5.7L3.9,5.7L3.9,5.7z M3.9,8.3L3.9,8.3L3.9,8.3L3.9,8.3z
		 M3.9,9.9L3.9,9.9L3.9,9.9L3.9,9.9z M4,6.1L4,6.1L4,6.1L4,6.1z M4,9.1C4,9.1,4,9.2,4,9.1h0.3C4.2,9,4.1,9,4.1,9S4,8.9,4,8.8
		L3.9,8.9v0C3.9,9,3.9,9,4,9.1z M4,5.4L4,5.4L4,5.4L4,5.4z M4,6.3c0,0,0.1,0,0.1-0.1L4,6.3z M4,6.8L4,6.8L4,6.8L4,6.8z M4.2,4
		c0,0,0.1-0.1,0.1-0.1s0-0.1,0.1-0.1c0-0.1,0-0.1,0-0.1L4.2,3.6L4,3.9L4.2,4C4.1,4.1,4.2,4,4.2,4z M4,4.7L4,4.7L4,4.7L4,4.7L4,4.7z
		 M4.1,4.5c0.1,0.1,0.1,0.1,0.2,0.1c0-0.1,0-0.2,0.1-0.3S4.5,4.1,4.6,4L4.5,4C4.4,4.2,4.3,4.3,4,4.3C4,4.3,4.1,4.4,4.1,4.5z
		 M4.1,5.8L4.1,5.8L4.1,5.8L4.1,5.8z M4.1,7.5L4.1,7.5L4.1,7.5L4.1,7.5z M4.1,8L4.1,8L4.1,8L4.1,8L4.1,8z M4.1,8.2L4.1,8.2L4.1,8.2
		L4.1,8.2z M4.1,6.2l0.2,0L4.1,6.2L4.1,6.2L4.1,6.2z M4.1,9.3L4.1,9.3L4.1,9.3L4.1,9.3L4.1,9.3z M4.1,8.6L4.1,8.6L4.1,8.6L4.1,8.6
		L4.1,8.6z M4.1,8.4L4.1,8.4L4.1,8.4L4.1,8.4L4.1,8.4z M4.2,6.3L4.2,6.3L4.2,6.3L4.2,6.3L4.2,6.3z M4.2,6.7L4.2,6.7L4.2,6.7L4.2,6.7
		L4.2,6.7z M4.2,8.2L4.2,8.2L4.2,8.2L4.2,8.2L4.2,8.2z M4.2,7.6L4.2,7.6L4.2,7.6L4.2,7.6L4.2,7.6z M4.4,5.2l0.1,0.1l0.1-0.1L4.6,5.1
		l0.1-0.2c0,0,0-0.1,0-0.1c0,0,0-0.1-0.1-0.1c0,0.1,0,0.2,0,0.2C4.5,5.1,4.4,5.1,4.4,5.2L4.3,5.1L4.2,5.3L4.4,5.2z M4.2,5.6L4.2,5.6
		L4.2,5.6L4.2,5.6L4.2,5.6z M4.2,8.9l0.1-0.1C4.2,8.8,4.2,8.8,4.2,8.9z M4.2,3.2c0,0,0,0.1,0,0.1L4.2,3.2l0-0.1h0
		C4.3,3.1,4.2,3.2,4.2,3.2z M4.3,5.4L4.3,5.4L4.3,5.4L4.3,5.4L4.3,5.4z M4.3,5.9L4.3,5.9L4.3,5.9L4.3,5.9L4.3,5.9z M4.3,6.6L4.3,6.6
		L4.3,6.6L4.3,6.6L4.3,6.6z M4.3,8.1L4.3,8.1L4.3,8.1L4.3,8.1L4.3,8.1z M4.3,8.9L4.3,8.9L4.3,8.9L4.3,8.9L4.3,8.9z M4.3,9.3L4.3,9.3
		L4.3,9.3L4.3,9.3L4.3,9.3z M4.4,7.4L4.4,7.4H4.3H4.4z M4.3,7.9L4.3,7.9L4.3,7.9L4.3,7.9L4.3,7.9z M4.3,3.8L4.3,3.8L4.3,3.8L4.3,3.8
		L4.3,3.8z M4.4,4L4.4,4L4.4,4L4.4,4L4.4,4z M4.4,4.9L4.4,4.9L4.4,4.9L4.4,4.9L4.4,4.9z M4.4,6L4.4,6L4.4,6L4.4,6L4.4,6z M4.3,8.7
		l0.2,0c0,0,0,0,0,0s0,0,0,0L4.3,8.7z M4.6,6.8c0-0.1,0-0.1,0.1-0.1c0,0,0.1,0,0.1,0c0,0,0.1,0,0.1-0.1c-0.1,0-0.2,0.1-0.3,0.1
		S4.4,6.7,4.4,6.7l0.1,0.1L4.4,6.8L4.6,6.8L4.5,6.9C4.5,6.9,4.6,6.8,4.6,6.8z M4.4,5.7L4.4,5.7L4.4,5.7L4.4,5.7L4.4,5.7z M4.5,3.2
		c0,0-0.1,0.1-0.1,0.2L4.5,3.2c0.1,0,0.1-0.1,0.1-0.1C4.6,3.1,4.5,3.2,4.5,3.2z M4.5,6.5C4.5,6.5,4.5,6.6,4.5,6.5l0.2-0.1
		c0,0-0.1,0-0.1-0.1c0,0-0.1-0.1-0.1-0.1l0,0.1C4.4,6.4,4.4,6.5,4.5,6.5z M4.4,8.2L4.4,8.2L4.4,8.2L4.4,8.2L4.4,8.2z M4.4,9.9
		l0.1-0.1l0,0C4.5,9.8,4.4,9.8,4.4,9.9z M4.5,3.1L4.5,3.1L4.5,3.1L4.5,3.1L4.5,3.1z M4.5,3.6L4.5,3.6L4.5,3.6L4.5,3.6L4.5,3.6z
		 M4.5,7.1L4.5,7.1L4.5,7.1L4.5,7.1L4.5,7.1z M4.5,9.1L4.5,9.1L4.5,9.1L4.5,9.1L4.5,9.1z M4.5,8.3L4.5,8.3L4.5,8.3L4.5,8.3L4.5,8.3z
		 M4.5,2.9L4.5,2.9L4.5,2.9L4.5,2.9L4.5,2.9z M4.6,6L4.5,6C4.5,6,4.6,6,4.6,6z M4.6,3.5L4.6,3.5L4.6,3.5L4.6,3.5L4.6,3.5z M4.6,3.9
		l0.1,0L4.6,3.9L4.6,3.9L4.6,3.9z M4.5,4.3L4.5,4.3L4.5,4.3L4.5,4.3L4.5,4.3z M4.6,4.6L4.6,4.6L4.6,4.6L4.6,4.6L4.6,4.6z M4.5,6.7
		l0.2,0c0,0,0,0,0,0c0,0,0,0,0,0L4.5,6.7z M4.5,7.1L4.5,7.1L4.5,7.1L4.5,7.1L4.5,7.1z M4.6,7.8L4.6,7.8L4.6,7.8L4.6,7.8L4.6,7.8z
		 M4.6,8.4L4.6,8.4L4.6,8.4L4.6,8.4L4.6,8.4z M4.6,3.6L4.6,3.6L4.6,3.6L4.6,3.6L4.6,3.6z M4.6,9.2C4.6,9.1,4.7,9.1,4.6,9.2L4.6,9.2
		C4.6,9.2,4.6,9.2,4.6,9.2z M4.8,9.2c0,0-0.1,0-0.2,0c-0.1,0-0.1,0-0.1,0.1l0.1,0.1L4.8,9.2z M4.6,3.5L4.6,3.5L4.6,3.5L4.6,3.5
		L4.6,3.5z M4.7,4.7L4.7,4.7L4.7,4.7L4.7,4.7L4.7,4.7z M4.7,6.1L4.7,6.1L4.7,6.1L4.7,6.1L4.7,6.1z M4.7,7L4.7,7L4.7,7L4.7,7L4.7,7z
		 M4.7,7.6L4.7,7.6L4.7,7.6L4.7,7.6L4.7,7.6z M4.7,8.1L4.7,8.1L4.7,8.1L4.7,8.1L4.7,8.1z M4.7,8.4L4.7,8.4L4.7,8.4L4.7,8.4L4.7,8.4z
		 M4.7,2.9L4.7,2.9L4.7,2.9z M4.8,3.3L4.8,3.3L4.8,3.3L4.8,3.3z M4.7,4.2C4.7,4.2,4.8,4.2,4.7,4.2L4.7,4.2L4.7,4.2z M4.8,7.9
		l0.1-0.1c0,0,0-0.1,0-0.1s0-0.1-0.1-0.1L4.7,7.7L4.8,7.9L4.8,7.9z M4.8,9.6L4.8,9.6L4.8,9.6L4.8,9.6z M4.8,5.9L4.8,5.9L4.8,5.9
		L4.8,5.9L4.8,5.9z M4.8,6.3L4.8,6.3L4.8,6.3L4.8,6.3L4.8,6.3z M4.8,3.7c0,0,0.1,0,0.2,0c0.1,0,0.1,0,0.2,0c0,0,0.1,0.1,0.1,0.1
		c0,0,0,0,0,0.1c0-0.1,0.1-0.1,0.1-0.2c0,0,0-0.1,0-0.1c0,0-0.1,0-0.1,0c0,0-0.1,0-0.1,0c0,0,0,0,0-0.1l0.1-0.1
		c-0.1,0-0.1,0-0.2,0.1C4.8,3.5,4.8,3.6,4.8,3.7C4.8,3.7,4.8,3.7,4.8,3.7z M4.9,9.9L4.9,9.9L4.8,9.8C4.8,9.8,4.8,9.9,4.9,9.9z
		 M4.8,2.6l0.2,0c0,0,0,0,0,0c0,0,0,0,0,0L4.8,2.6z M4.8,5.2L4.8,5.2L4.8,5.2L4.8,5.2L4.8,5.2z M4.8,7.3L4.8,7.3L4.8,7.3L4.8,7.3
		L4.8,7.3z M5,5.6H4.8v0.1L5,5.6z M4.8,6.8L4.8,6.8L4.8,6.8L4.8,6.8L4.8,6.8z M4.9,8.9L4.9,8.9L4.9,8.9L4.9,8.9z M4.9,9.5
		c0,0.1,0,0.1,0,0.1C4.9,9.6,4.9,9.6,4.9,9.5c0.1,0,0.1,0,0.1-0.1L4.9,9.5C4.9,9.4,4.9,9.5,4.9,9.5z M4.9,3L4.9,3L4.9,3L4.9,3L4.9,3
		z M4.9,3.3L4.9,3.3L4.9,3.3L4.9,3.3L4.9,3.3z M4.9,4.2L4.9,4.2L4.9,4.2L4.9,4.2L4.9,4.2z M5,4.7c0,0,0.1,0,0.1,0
		c0,0,0.1-0.1,0.1-0.1L5,4.7L5,4.7z M4.9,5.8C4.9,5.8,4.9,5.8,4.9,5.8C4.9,5.8,4.9,5.8,4.9,5.8L4.9,5.8L4.9,5.8L4.9,5.8z M5,6.3
		c0,0,0.1,0,0.1,0L4.9,6.2L5,6.3C4.9,6.2,4.9,6.3,5,6.3z M5,7.6L5,7.6L5,7.6L5,7.6L5,7.6z M5,8.6L5,8.6L5,8.6L5,8.6L5,8.6z M5,9.7
		L5,9.7L5,9.7L5,9.7L5,9.7z M5,5l0.2-0.1l0,0L5,5z M5.1,4.2c0-0.1,0-0.1,0.1-0.1C5.1,4.1,5.1,4.1,5.1,4.2C5,4.2,5,4.2,5,4.3l0.1,0.1
		C5.1,4.3,5.1,4.3,5.1,4.2z M5,8.4L5,8.4L5,8.4L5,8.4L5,8.4z M5.1,9.2L5.1,9.2L5.1,9.2L5.1,9.2z M5.1,5.2L5.1,5.2L5.1,5.2L5.1,5.2z
		 M5.2,7.1l0.1-0.2L5.2,7L5,6.9C5,7,5.1,7.1,5.2,7.1z M5.4,9.7L5.4,9.7h0.1c0,0,0,0,0-0.1s-0.1,0-0.1-0.1c0,0-0.1,0-0.1-0.1
		s0-0.1,0-0.1h0L5.1,9.5l0.1,0.1L5.1,9.9L5.4,9.7z M5.1,3.3L5.1,3.3L5.1,3.3L5.1,3.3z M5.1,5.1L5.1,5.1L5.1,5.1L5.1,5.1z M5.1,7.5
		l0.2,0L5.1,7.5L5.1,7.5L5.1,7.5z M5.1,8.6L5.1,8.6L5.1,8.6L5.1,8.6z M5.2,2.8L5.2,2.8L5.2,2.8L5.2,2.8z M5.2,3.5l0.2,0l0,0L5.2,3.5
		z M5.2,6.1L5.2,6.1L5.2,6.1L5.2,6.1z M5.2,6.2L5.2,6.2L5.2,6.2L5.2,6.2z M5.2,9.2L5.2,9.2L5.2,9.2L5.2,9.2z M5.2,5.8L5.2,5.8
		L5.2,5.8L5.2,5.8z M5.2,6.5L5.2,6.5L5.2,6.5L5.2,6.5L5.2,6.5z M5.3,8.5L5.2,8.6C5.3,8.6,5.3,8.5,5.3,8.5z M5.2,2.3L5.2,2.3L5.2,2.3
		L5.2,2.3z M5.2,2.5L5.2,2.5L5.2,2.5L5.2,2.5z M5.3,4.8L5.3,4.8L5.3,4.8L5.3,4.8z M5.3,5.1L5.3,5.1L5.3,5.1L5.3,5.1z M5.3,7.3
		L5.3,7.3L5.3,7.3L5.3,7.3z M5.2,7.4L5.2,7.4L5.2,7.4L5.2,7.4z M5.3,9.1L5.3,9.1L5.3,9.1L5.3,9.1z M5.3,7.5L5.3,7.5L5.3,7.5L5.3,7.5
		z M5.3,4.1L5.3,4.1L5.3,4.1L5.3,4.1z M5.3,4.2L5.3,4.2L5.3,4.2L5.3,4.2z M5.3,9.3L5.3,9.3L5.3,9.3L5.3,9.3z M5.3,8.7L5.3,8.7
		L5.3,8.7L5.3,8.7L5.3,8.7z M5.6,9.5L5.6,9.5L5.6,9.5L5.6,9.5z"/>
	<path d="M11.3,10.2c-0.5,0-1,0-1.5,0c0,0-0.1,0-0.1,0c-0.1,0-0.1-0.1-0.1-0.1c0-0.1,0-0.1,0.1-0.2c0.1-0.1,0.1-0.1,0.2-0.1
		c0.2,0,0.3,0,0.5,0.1c0.2,0,0.3,0.1,0.5,0.1c0.2,0,0.4,0,0.5-0.1s0.2-0.2,0.2-0.3c0.1-0.1,0.1-0.3,0.1-0.4c0-0.2,0-0.3,0-0.5
		c0,0,0-0.1,0-0.2c0-0.1,0-0.2,0-0.3c0-0.1,0-0.2-0.1-0.2s-0.1-0.1-0.1-0.1h-0.8h-0.3c-0.1,0-0.3,0-0.4,0s-0.3,0-0.4,0
		c-0.1,0-0.2,0-0.3,0c-0.1,0-0.1,0-0.3,0s-0.2,0-0.3,0c-0.1,0-0.2,0-0.3-0.1c-0.1,0-0.1-0.1-0.1-0.2c0,0,0-0.1,0-0.1
		c0,0,0.1-0.1,0.1-0.1c0,0,0.1-0.1,0.1-0.1C8.8,7,8.8,7,8.8,7c0,0,0.1-0.1,0.1-0.2C9,6.7,9.1,6.6,9.1,6.5c0.1-0.1,0.1-0.2,0.2-0.3
		c0.1-0.1,0.1-0.1,0.2-0.1c0.4-0.5,0.8-1,1.2-1.5s0.7-1.1,1.1-1.6c0-0.1,0.1-0.2,0.2-0.4s0.2-0.4,0.3-0.6s0.2-0.4,0.3-0.5
		c0.1-0.2,0.2-0.2,0.2-0.2h0.9l0.1,0c0.1,0,0.2,0,0.3,0.1c0.1,0.1,0.1,0.2,0.1,0.3c0,0.2,0,0.4,0,0.5c0,0.2,0,0.4,0,0.5
		c0,0.8,0,1.6,0,2.3c0,0.8,0,1.6,0,2.3l0.1,0.2h1c0.1,0,0.1,0,0.2,0s0.2,0,0.3,0s0.1,0,0.2,0.1c0.1,0,0.1,0.1,0.1,0.2l-0.1,0.1
		c-0.1,0-0.3,0-0.4-0.1c-0.1,0-0.3-0.1-0.4-0.1c-0.2,0-0.3,0-0.5,0c-0.1,0-0.2,0-0.3,0S14.1,8,14.1,8.1c0,0.1-0.1,0.3-0.1,0.5
		c0,0.3,0,0.5,0,0.6c0,0.2,0.1,0.3,0.2,0.4c0.1,0.1,0.2,0.2,0.4,0.2c0.2,0,0.4,0.1,0.6,0.1c0.1,0,0.1,0,0.2,0c0.1,0,0.1,0,0.2,0
		l0.1,0.2c0,0.1,0,0.1-0.1,0.1c-0.1,0-0.1,0-0.2,0h-2.6C12.4,10.2,11.9,10.2,11.3,10.2z M10.5,7.4c0.2,0,0.5,0,0.7,0
		c0.2,0,0.3,0,0.4-0.1c0.1-0.1,0.1-0.2,0.1-0.4c0-0.4,0-0.8,0-1.1c0-0.4,0-0.8,0-1.1V4.5c0-0.1,0-0.2,0-0.3c0-0.1,0-0.2,0-0.3
		s0-0.1-0.1-0.1c0,0-0.1,0-0.1,0.1c-0.1,0.1-0.1,0.2-0.2,0.3c-0.1,0.1-0.2,0.2-0.3,0.4c-0.1,0.1-0.2,0.3-0.3,0.4
		c-0.1,0.1-0.2,0.2-0.2,0.3c-0.1,0.1-0.1,0.2-0.2,0.2c0,0-0.1,0.1-0.1,0.2S10.1,5.8,10,5.9C9.9,6,9.8,6.1,9.7,6.3
		C9.6,6.4,9.5,6.5,9.4,6.6C9.4,6.8,9.3,6.9,9.2,6.9C9.2,7,9.2,7.1,9.2,7.1c0,0,0,0,0,0.1c0,0,0,0.1,0,0.1h0.5l0.1,0.1
		C10,7.3,10.3,7.3,10.5,7.4z M11.9,9.9c0,0,0.1,0,0.1-0.1c0,0,0.1-0.1,0.1-0.1l0,0C11.9,9.7,11.9,9.8,11.9,9.9z M12.1,8
		c0,0,0.1,0,0.1,0c0-0.1,0-0.2,0.1-0.2s0.1-0.1,0.2-0.1l0.1-0.2l0.2,0.1l0-0.1c0-0.1,0-0.1-0.1-0.1c-0.1,0-0.1-0.1-0.1-0.1
		c0-0.1,0-0.1,0.1-0.2S12.9,7,12.9,7l-0.1,0c-0.1,0-0.1,0-0.1,0.1c0,0.1,0,0.1-0.1,0.1l0,0c0-0.1,0-0.1,0.1-0.2
		c0.1,0,0.1-0.1,0.1-0.2l-0.1,0.1l0,0c0,0.1,0,0.1,0,0.2C12.6,7,12.5,7,12.5,7l-0.1-0.1l0,0.1l-0.1,0L12,7.2l0.2-0.1h0.1
		c0,0,0,0,0.1,0c0,0,0.1,0,0.1,0l0,0.1l0.2,0.2l-0.1,0l0,0l-0.1,0l0.1,0.1l0,0h-0.1l0-0.1l0-0.1c0,0,0,0.1,0,0.1c0,0,0,0.1,0,0.1
		c0,0,0,0.1,0,0.1c0,0-0.1,0-0.1,0L12,7.6l-0.1,0.1L12,7.8l0.1,0C12.1,7.8,12.1,7.9,12.1,8C12.1,8,12.1,8.1,12.1,8z M12,7.5L12,7.5
		L12,7.5L12,7.5z M12,7.9C12,7.9,11.9,7.9,12,7.9L12,7.9L12,7.9z M12.1,9.6L12.1,9.6l0-0.2c0,0,0-0.1,0-0.1s0.1,0,0.1,0l0.1,0
		c0,0,0.1,0,0.1-0.1l-0.1-0.1l-0.1,0l0,0L12,9.2l0.1,0.1l-0.1,0.2h0.1L12.1,9.6L12.1,9.6z M12,7.6L12,7.6L12,7.6L12,7.6L12,7.6z
		 M12.2,8.7l0,0.1l0.1,0.1c0-0.1,0-0.1,0.1-0.1s0.1,0,0.2,0l0.1,0l0.2-0.2l-0.1,0l-0.2-0.1c0,0,0,0,0,0c0,0,0,0,0,0c0,0-0.1,0-0.1,0
		v0h-0.2V8.4h0.1l-0.1-0.1l0-0.2l-0.1,0l0,0.1l-0.1,0l-0.1,0l0,0l0.1,0.1L12,8.5l0,0.1L12,8.8L12,8.9L12.2,8.7z M12.1,3.2L12.1,3.2
		L12.1,3.2L12.1,3.2z M12.1,3.5L12.1,3.5L12.1,3.5L12.1,3.5z M12.1,7.3L12.1,7.3L12.1,7.3L12.1,7.3z M12.1,5.3L12.1,5.3L12.1,5.3
		L12.1,5.3z M12.2,7.5c0,0,0,0.1-0.1,0.1l0.2,0.1L12.2,7.5L12.2,7.5l0.1-0.1C12.2,7.4,12.2,7.5,12.2,7.5z M12.1,5
		c0.1,0,0.1,0,0.1-0.1C12.1,4.9,12.1,5,12.1,5z M12.2,6.5L12.2,6.5L12.2,6.5C12.2,6.6,12.2,6.5,12.2,6.5z M12.1,6.8L12.1,6.8
		C12.1,6.8,12.2,6.8,12.1,6.8C12.2,6.8,12.2,6.7,12.1,6.8L12.1,6.8C12.1,6.7,12.1,6.7,12.1,6.8z M12.1,5.5l0.1-0.2L12.1,5.5z
		 M12.3,6.9l-0.2,0l0,0H12.3z M12.2,7.3L12.2,7.3L12.2,7.3l0,0.1L12.2,7.3z M12.2,8.2L12.2,8.2L12.2,8.2L12.2,8.2z M12.2,3.9
		L12.2,3.9L12.2,3.9L12.2,3.9z M12.2,6.6L12.2,6.6L12.2,6.6L12.2,6.6z M12.1,7.3l0.1,0l0,0L12.1,7.3z M12.2,9.4L12.2,9.4L12.2,9.4
		L12.2,9.4z M12.2,9.7L12.2,9.7L12.2,9.7L12.2,9.7z M12.2,4.4L12.2,4.4L12.2,4.4C12.2,4.4,12.2,4.4,12.2,4.4z M12.2,6L12.2,6L12.2,6
		L12.2,6z M12.2,9.8L12.2,9.8L12.2,9.8L12.2,9.8z M12.2,5.2L12.2,5.2L12.2,5.2L12.2,5.2z M12.3,4.1V4h0C12.2,4,12.2,4.1,12.3,4.1z
		 M12.3,3.3L12.3,3.3L12.3,3.3L12.3,3.3L12.3,3.3z M12.3,5.9L12.3,5.9L12.3,5.9L12.3,5.9L12.3,5.9z M12.3,6.3L12.3,6.3L12.3,6.3
		L12.3,6.3L12.3,6.3z M12.3,7.3L12.3,7.3L12.3,7.3L12.3,7.3L12.3,7.3z M12.3,9.6L12.3,9.6L12.3,9.6L12.3,9.6L12.3,9.6z M12.3,9.7
		L12.3,9.7L12.3,9.7L12.3,9.7z M12.6,6.2c0,0.1,0.1,0.1,0.1,0.1l0.1,0L12.6,6.2l0.2-0.2l0,0l-0.1-0.1l0.2-0.1l0,0l0.1,0
		c0,0,0.1,0,0.1-0.1l0,0.1l0,0.1l0.1-0.1c0,0,0-0.1,0-0.2s0-0.1-0.1-0.2v0.1l-0.1,0l0,0h-0.2c0,0,0,0.1-0.1,0.2
		c-0.1,0.1-0.1,0.1-0.1,0.1h0.2c0,0.1-0.1,0.1-0.2,0.2c-0.1,0-0.1,0.1-0.1,0.2L12.5,6v0C12.5,6.1,12.6,6.1,12.6,6.2z M12.3,5.9
		L12.3,5.9L12.3,5.9L12.3,5.9z M12.4,9.6C12.4,9.7,12.4,9.7,12.4,9.6c0,0.1,0.1,0,0.1,0c0.1-0.1,0.1-0.1,0.1-0.2l-0.1-0.1l-0.1,0
		l-0.1,0c0,0,0,0.1,0,0.1c0,0,0,0,0,0c0,0,0,0,0,0C12.4,9.5,12.4,9.5,12.4,9.6C12.4,9.6,12.4,9.6,12.4,9.6z M12.3,6.8V6.7V6.8
		L12.3,6.8z M12.4,4.7C12.4,4.7,12.4,4.7,12.4,4.7l0-0.1h0L12.4,4.7C12.3,4.8,12.3,4.8,12.4,4.7z M12.3,6.8
		C12.3,6.9,12.3,6.9,12.3,6.8C12.4,6.9,12.4,6.9,12.3,6.8C12.4,6.8,12.4,6.8,12.3,6.8z M12.3,8L12.3,8L12.3,8L12.3,8L12.3,8z
		 M12.3,2.7L12.3,2.7L12.3,2.7L12.3,2.7z M12.3,3L12.3,3L12.3,3L12.3,3L12.3,3z M12.4,6.2L12.4,6.2L12.4,6.2L12.4,6.2z M12.3,8.1
		L12.3,8.1L12.3,8.1L12.3,8.1L12.3,8.1z M12.3,9L12.3,9L12.3,9L12.3,9L12.3,9z M12.3,9.3L12.3,9.3L12.3,9.3L12.3,9.3L12.3,9.3z
		 M12.4,3.5C12.4,3.5,12.5,3.5,12.4,3.5L12.4,3.5L12.4,3.5C12.4,3.5,12.4,3.5,12.4,3.5z M12.3,3.6L12.3,3.6l0.1,0.1
		C12.4,3.7,12.4,3.6,12.3,3.6z M12.5,4.2L12.4,4l-0.1,0L12.5,4.2l-0.1,0L12.5,4.2L12.5,4.2z M12.4,4.4L12.4,4.4L12.4,4.4
		C12.4,4.5,12.4,4.4,12.4,4.4z M12.5,6.6l-0.2,0l0,0.1L12.5,6.6z M12.6,9.8l-0.2,0l0,0H12.6z M12.4,2.4L12.4,2.4L12.4,2.4L12.4,2.4z
		 M12.4,5.9L12.4,5.9L12.4,5.9L12.4,5.9z M12.4,5C12.4,5,12.4,5,12.4,5C12.4,5,12.4,5,12.4,5L12.4,5z M12.7,6.3L12.7,6.3
		c-0.1,0-0.1,0-0.1,0c0,0.1-0.1,0.1-0.1,0.1l0.1,0.1L12.7,6.3z M12.6,5.4L12.6,5.4l-0.2,0.2L12.6,5.4z M12.4,7.9L12.4,7.9L12.4,7.9
		L12.4,7.9L12.4,7.9z M12.5,9L12.5,9L12.5,9L12.5,9z M12.5,5.2L12.5,5.2L12.5,5.2L12.5,5.2z M12.5,2.9C12.5,2.9,12.5,2.9,12.5,2.9
		C12.5,3,12.5,2.9,12.5,2.9c0.1,0,0.1,0,0.1-0.1h0C12.5,2.8,12.5,2.8,12.5,2.9z M12.5,3.9C12.5,3.9,12.5,3.9,12.5,3.9
		C12.5,3.8,12.5,3.8,12.5,3.9z M12.5,4.3C12.5,4.3,12.5,4.3,12.5,4.3L12.5,4.3L12.5,4.3L12.5,4.3z M12.7,5.2L12.7,5.2l0.1-0.1l0-0.1
		l-0.1,0.1l0-0.1L12.5,5l0.1,0.1l0,0h0.1L12.7,5.2L12.7,5.2z M12.5,6.6L12.5,6.6L12.5,6.6L12.5,6.6L12.5,6.6z M12.5,4.5L12.5,4.5
		L12.5,4.5C12.5,4.6,12.5,4.6,12.5,4.5z M12.5,8.4L12.5,8.4L12.5,8.4L12.5,8.4L12.5,8.4z M12.5,3.3L12.5,3.3L12.5,3.3L12.5,3.3z
		 M12.5,9.3L12.5,9.3L12.5,9.3L12.5,9.3z M12.5,9.2L12.5,9.2L12.5,9.2L12.5,9.2z M12.5,4L12.5,4L12.5,4L12.5,4L12.5,4z M12.5,9.7
		C12.5,9.7,12.5,9.7,12.5,9.7C12.5,9.7,12.5,9.7,12.5,9.7L12.5,9.7C12.5,9.7,12.5,9.7,12.5,9.7z M12.5,9.9L12.5,9.9L12.5,9.9
		L12.5,9.9L12.5,9.9z M12.5,8.3L12.5,8.3L12.5,8.3L12.5,8.3z M12.6,8.2L12.6,8.2L12.6,8.2L12.6,8.2z M12.6,9.2L12.6,9.2L12.6,9.2
		L12.6,9.2z M12.6,3L12.6,3L12.6,3L12.6,3L12.6,3z M12.7,6.6L12.7,6.6L12.7,6.6L12.7,6.6z M12.6,7.7L12.6,7.7L12.6,7.7L12.6,7.7
		L12.6,7.7z M12.6,7.9L12.6,7.9L12.6,7.9L12.6,7.9L12.6,7.9L12.6,7.9L12.6,7.9L12.6,7.9z M12.6,8.3L12.6,8.3L12.6,8.3L12.6,8.3z
		 M12.8,9.7c0,0,0.1,0,0.1,0l0.1,0c0,0,0.1,0,0.1-0.1s0-0.1,0-0.2h-0.1l0,0.1l-0.1-0.1l0.1-0.1l-0.1,0l-0.2-0.1l0.1,0
		c0,0,0.1,0,0.1,0c0,0,0.1,0,0.1-0.1l0.1,0.1l0.1,0l-0.1-0.1l0,0L13,9L13,9l-0.1,0.1L12.8,9l-0.2,0.2l0,0.1c0,0.1,0,0.1-0.1,0.2
		c0,0-0.1,0.1-0.1,0.1l0.1,0.2C12.7,9.7,12.7,9.7,12.8,9.7z M12.6,9.1l0-0.1C12.6,9.1,12.6,9.1,12.6,9.1z M12.6,9.3L12.6,9.3
		L12.6,9.3L12.6,9.3z M12.6,2.5L12.6,2.5L12.6,2.5C12.6,2.5,12.6,2.5,12.6,2.5z M12.8,2.7l-0.2-0.1v0L12.8,2.7L12.8,2.7z M12.7,4.2
		L12.7,4.2L12.7,4.2L12.7,4.2z M12.7,8.1L12.8,8l-0.2,0L12.7,8.1L12.7,8.1z M12.7,2l0.2,0l0,0L12.7,2z M12.7,3.3
		C12.7,3.3,12.8,3.3,12.7,3.3L12.7,3.3L12.7,3.3C12.7,3.4,12.7,3.4,12.7,3.3z M12.7,3.7L12.7,3.7L12.7,3.7L12.7,3.7z M12.7,4.9
		C12.7,4.9,12.7,4.9,12.7,4.9c0.1-0.1,0.1-0.1,0.1-0.1C12.7,4.8,12.7,4.8,12.7,4.9z M12.7,5L12.7,5L12.7,5L12.7,5L12.7,5z M12.7,6.5
		L12.7,6.5L12.7,6.5z M12.7,8.3L12.7,8.3L12.7,8.3L12.7,8.3L12.7,8.3z M12.7,8.3L12.7,8.3l0.1-0.1L12.7,8.3z M12.7,8.5
		c0,0,0.1,0,0.1,0c0.1,0,0.1-0.1,0.1-0.1h-0.2C12.7,8.4,12.7,8.4,12.7,8.5z M12.7,4.6C12.8,4.6,12.8,4.6,12.7,4.6L12.7,4.6
		C12.7,4.6,12.7,4.6,12.7,4.6z M12.7,8.6L12.7,8.6L12.7,8.6L12.7,8.6L12.7,8.6z M12.7,6.6L12.7,6.6L12.7,6.6L12.7,6.6z M12.8,5.3
		C12.8,5.3,12.8,5.3,12.8,5.3C12.8,5.3,12.8,5.3,12.8,5.3L12.8,5.3L12.8,5.3L12.8,5.3z M12.8,6.5L12.8,6.5L12.8,6.5L12.8,6.5z
		 M12.8,6L12.8,6L12.8,6L12.8,6L12.8,6z M12.9,7.8L12.9,7.8L12.9,7.8L12.9,7.8z M12.8,8.9C12.8,8.9,12.8,8.9,12.8,8.9L12.8,8.9
		L12.8,8.9L12.8,8.9z M12.8,2.4C12.8,2.5,12.8,2.5,12.8,2.4l0.1,0L12.8,2.4l0.1-0.2h0.2l-0.3,0L12.8,2.4C12.8,2.4,12.8,2.4,12.8,2.4
		z M12.8,2.5l0.2,0l0,0L12.8,2.5z M12.8,5.2L12.8,5.2L12.8,5.2L12.8,5.2z M12.8,5.8L12.8,5.8L12.8,5.8L12.8,5.8z M12.8,7.3L12.8,7.3
		L12.8,7.3L12.8,7.3z M12.8,8.5L12.8,8.5L12.8,8.5L12.8,8.5z M12.8,3.5L12.8,3.5L12.8,3.5L12.8,3.5z M12.8,5L12.8,5L12.8,5L12.8,5z
		 M12.8,6.5c0-0.1,0.1-0.2,0.2-0.2s0.1-0.1,0.1-0.1l-0.1,0l-0.1-0.1L13,6l-0.2,0.1h0v0l0,0.1L12.8,6.5L12.8,6.5z M12.9,6.8L12.9,6.8
		l-0.1,0.1C12.9,6.9,12.9,6.8,12.9,6.8z M12.9,3.1L12.9,3.1L12.9,3.1L12.9,3.1C12.9,3.1,12.9,3.1,12.9,3.1z M12.9,6.7L12.9,6.7
		L12.9,6.7L12.9,6.7L12.9,6.7z M12.9,5.2L12.9,5.2L12.9,5.2L12.9,5.2z M13.3,8.7L13.3,8.7l-0.1-0.1h0.1v0c0,0-0.1,0-0.1,0
		c-0.1,0-0.1,0-0.1,0s-0.1,0-0.1,0.1c0,0,0,0.1,0,0.1l0,0.1c0,0,0.1-0.1,0.1-0.1c0,0,0.1-0.1,0.1-0.1l0,0l0,0l0,0v0l0,0h0L13.3,8.7z
		 M12.9,9L12.9,9L12.9,9L12.9,9z M12.9,6L12.9,6L12.9,6L12.9,6z M12.9,7.2L12.9,7.2L12.9,7.2L12.9,7.2z M12.9,8.5L12.9,8.5L12.9,8.5
		L12.9,8.5z M12.9,3.6l0.2,0h0v0H12.9z M12.9,7.4L12.9,7.4L12.9,7.4L12.9,7.4z M13.1,8C13.1,8,13.1,8,13.1,8L13.1,8l-0.2,0.1L13,8.2
		c0.1,0,0.1,0,0.2,0c0,0,0.1-0.1,0.1-0.1l-0.2,0.1L13.1,8L13.1,8C13.1,8,13.1,8,13.1,8C13.1,8.1,13.1,8.1,13.1,8L13.1,8L13.1,8z
		 M12.9,2.1l0.3,0l0,0L12.9,2.1z M12.9,6.4L12.9,6.4L12.9,6.4L12.9,6.4L12.9,6.4z M12.9,7.1L12.9,7.1L12.9,7.1L12.9,7.1z M12.9,7.3
		L12.9,7.3L12.9,7.3L12.9,7.3L12.9,7.3z M12.9,8.3L12.9,8.3L12.9,8.3L12.9,8.3L12.9,8.3z M13,2L13,2L13,2z M13,7.7L13,7.7L13,7.7
		L13,7.7L13,7.7z M13,7.8L13,7.8L13,7.8L13,7.8L13,7.8z M12.9,8.6L12.9,8.6C13,8.6,13,8.6,12.9,8.6L12.9,8.6
		C13,8.6,12.9,8.6,12.9,8.6z M13.2,9.8c0-0.1,0-0.1,0-0.1l-0.2,0.2l-0.1,0l0,0l0.1,0.1C13.1,9.9,13.1,9.9,13.2,9.8z M13,3L13,3L13,3
		L13,3L13,3z M13,5.1L13,5.1l0,0.2L13,5.1z M13,7.4L13,7.4L13,7.4L13,7.4C13,7.4,13,7.4,13,7.4z M13,3.2L13,3.2L13,3.2L13,3.2z
		 M13,6.1L13,6.1L13,6.1L13,6.1z M13,6.5L13,6.5L13,6.5L13,6.5L13,6.5l0-0.1L13,6.5L13,6.5z M13.1,6.6L13.1,6.6L13.1,6.6L13.1,6.6z
		 M13,7.6L13,7.6L13,7.6L13,7.6L13,7.6z M13.1,3.3L13.1,3.3L13.1,3.3L13.1,3.3z M13.1,8.3L13.1,8.3L13.1,8.3L13.1,8.3z M13.1,7.1
		L13.1,7.1L13.1,7.1L13.1,7.1z M13.1,1.9L13.1,1.9L13.1,1.9L13.1,1.9L13.1,1.9z M13.1,5.4L13.1,5.4L13.1,5.4L13.1,5.4L13.1,5.4z
		 M13.1,6.9C13.1,6.9,13.1,7,13.1,6.9c0,0.1,0.1,0,0.1,0L13.1,6.9C13.2,6.9,13.1,6.9,13.1,6.9z M13.1,7.7L13.1,7.7L13.1,7.7
		L13.1,7.7L13.1,7.7z M13.1,8L13.1,8C13.1,8,13.1,8,13.1,8z M13.1,8.5L13.1,8.5C13.1,8.5,13.1,8.5,13.1,8.5L13.1,8.5
		C13.1,8.4,13.1,8.4,13.1,8.5z M13.1,3.2L13.1,3.2L13.1,3.2L13.1,3.2z M13.2,5.6L13.2,5.6l0.1-0.2l-0.2,0l-0.1,0l0.1,0.1l0,0.1
		L13.2,5.6L13.2,5.6z M13.1,6.5L13.1,6.5L13.1,6.5L13.1,6.5z M13.1,2.6c0,0,0.1,0,0.1-0.1L13.1,2.6z M13.1,6.4L13.1,6.4L13.1,6.4
		L13.1,6.4z M13.1,6.9L13.1,6.9L13.1,6.9L13.1,6.9z M13.1,7.3L13.1,7.3L13.1,7.3L13.1,7.3z M13.2,7.9L13.2,7.9L13.2,7.9
		c0.2,0,0.2,0,0.2,0c0,0,0-0.1,0-0.1h-0.1l0-0.1c0,0,0-0.1,0-0.1s-0.1,0-0.1,0c0,0.1,0,0.1,0,0.1c0,0,0,0.1-0.1,0.1c0,0,0,0-0.1,0
		C13.1,7.8,13.1,7.8,13.2,7.9L13.2,7.9L13.2,7.9z M13.1,5.3L13.1,5.3L13.1,5.3L13.1,5.3z M13.1,2.8L13.1,2.8L13.1,2.8z M13.2,3.4
		C13.2,3.4,13.2,3.4,13.2,3.4L13.2,3.4L13.2,3.4z M13.2,7.6L13.2,7.6L13.2,7.6L13.2,7.6z M13.2,5.2L13.2,5.2L13.2,5.2L13.2,5.2z
		 M13.2,5.8L13.2,5.8L13.2,5.8L13.2,5.8z M13.2,5.9L13.2,5.9L13.2,5.9L13.2,5.9z M13.2,6.3L13.2,6.3L13.2,6.3L13.2,6.3z M13.2,7.1
		L13.2,7.1L13.2,7.1L13.2,7.1z M13.3,2.3C13.3,2.2,13.4,2.2,13.3,2.3c0-0.1,0.1-0.1,0.1-0.1c0,0,0,0,0.1,0l0,0L13.3,2.3l-0.1,0
		L13.3,2.3C13.3,2.3,13.3,2.3,13.3,2.3z M13.2,5.3L13.2,5.3L13.2,5.3L13.2,5.3L13.2,5.3z M13.2,6.7L13.2,6.7L13.2,6.7L13.2,6.7
		L13.2,6.7z M13.3,6.8l-0.1-0.1v0.1H13.3z M13.2,8L13.2,8L13.2,8L13.2,8L13.2,8z M13.3,8.5L13.3,8.5C13.3,8.5,13.3,8.5,13.3,8.5
		C13.3,8.5,13.3,8.5,13.3,8.5l0-0.2L13.3,8.5L13.3,8.5z M13.4,9.6L13.4,9.6C13.4,9.6,13.5,9.6,13.4,9.6c0.1,0,0.2-0.1,0.2-0.1
		s0.1,0,0.1,0c0,0,0,0,0-0.1l-0.1,0l-0.1,0.1c-0.1,0-0.1,0-0.1-0.1c0-0.1,0-0.1,0-0.2l-0.2,0.4v0l0.1,0l0.1,0.2V9.6z M13.4,8.9
		l-0.1,0l0,0L13.4,8.9z M13.3,3L13.3,3L13.3,3L13.3,3z M13.3,6.1L13.3,6.1L13.3,6.1L13.3,6.1z M13.3,5.8L13.3,5.8L13.3,5.8L13.3,5.8
		z M13.3,6.6L13.3,6.6L13.3,6.6L13.3,6.6z M13.3,7.1L13.3,7.1L13.3,7.1L13.3,7.1z M13.3,1.9L13.3,1.9L13.3,1.9L13.3,1.9L13.3,1.9z
		 M13.3,6.2L13.3,6.2L13.3,6.2L13.3,6.2L13.3,6.2z M13.3,6.3L13.3,6.3L13.3,6.3L13.3,6.3z M13.3,5L13.3,5L13.3,5L13.3,5L13.3,5z
		 M13.5,7.3C13.5,7.3,13.5,7.3,13.5,7.3l0-0.2L13.6,7c0,0,0-0.1-0.1-0.1c-0.1,0-0.1,0-0.1-0.1l-0.1,0.1l0.1,0c0,0-0.1,0.1-0.1,0.1
		s-0.1,0.1-0.1,0.1L13.5,7.3l-0.1,0C13.4,7.4,13.4,7.4,13.5,7.3z M13.3,5.3L13.3,5.3L13.3,5.3L13.3,5.3z M13.3,6.7L13.3,6.7
		L13.3,6.7L13.3,6.7z M13.6,5.6L13.6,5.6L13.6,5.6L13.6,5.6c-0.1,0.1-0.1,0.1-0.2,0.1s-0.1,0-0.1,0.1h0.2v0L13.6,5.6z M13.4,1.9
		C13.4,1.9,13.4,1.8,13.4,1.9L13.4,1.9L13.4,1.9C13.3,1.9,13.4,1.9,13.4,1.9z M13.4,5.6L13.4,5.6L13.4,5.6L13.4,5.6L13.4,5.6z
		 M13.3,6.2L13.3,6.2L13.3,6.2L13.3,6.2L13.3,6.2z M13.3,6.4L13.3,6.4L13.3,6.4L13.3,6.4L13.3,6.4z M13.4,6.9L13.4,6.9L13.4,6.9
		L13.4,6.9L13.4,6.9z M13.4,8L13.4,8L13.4,8L13.4,8L13.4,8z M13.4,8.1L13.4,8.1L13.4,8.1L13.4,8.1z M13.4,6.1
		C13.3,6.1,13.3,6.1,13.4,6.1L13.4,6.1L13.4,6.1L13.4,6.1z M13.4,8.6L13.4,8.6L13.4,8.6C13.4,8.6,13.4,8.6,13.4,8.6L13.4,8.6
		L13.4,8.6z M13.4,7.5L13.4,7.5L13.4,7.5L13.4,7.5z M13.4,8.5C13.4,8.5,13.4,8.5,13.4,8.5L13.4,8.5L13.4,8.5
		C13.4,8.5,13.4,8.5,13.4,8.5z M13.4,8.6C13.4,8.6,13.4,8.6,13.4,8.6C13.4,8.6,13.4,8.6,13.4,8.6z M13.5,5.6l0.1-0.1l0,0L13.5,5.6
		l0-0.1L13.5,5.6L13.5,5.6L13.5,5.6z M13.6,6.7L13.6,6.7l-0.1-0.1v0.1L13.6,6.7z M13.5,2.6L13.5,2.6L13.5,2.6L13.5,2.6z M13.5,6.3
		L13.5,6.3L13.5,6.3L13.5,6.3z M13.5,7.6L13.5,7.6L13.5,7.6L13.5,7.6z M13.5,8.3L13.5,8.3L13.5,8.3L13.5,8.3z M13.5,9.7L13.5,9.7
		L13.5,9.7L13.5,9.7z M13.5,2.2L13.5,2.2L13.5,2.2L13.5,2.2z M13.5,6.5L13.5,6.5L13.5,6.5L13.5,6.5L13.5,6.5z M13.5,6.9L13.5,6.9
		L13.5,6.9L13.5,6.9L13.5,6.9z M13.5,2.4L13.5,2.4L13.5,2.4L13.5,2.4z M13.6,3.2L13.6,3.2C13.5,3.2,13.5,3.2,13.6,3.2z M13.5,6.3
		C13.5,6.4,13.5,6.4,13.5,6.3L13.5,6.3L13.5,6.3C13.5,6.3,13.5,6.3,13.5,6.3z M13.5,7.5L13.5,7.5L13.5,7.5L13.5,7.5z M13.6,7.8
		L13.6,7.8L13.6,7.8L13.6,7.8L13.6,7.8z M13.5,9L13.5,9L13.5,9L13.5,9z M13.5,9L13.5,9L13.5,9L13.5,9z M13.5,8.7L13.5,8.7L13.5,8.7
		L13.5,8.7z M13.5,9.8L13.5,9.8L13.5,9.8L13.5,9.8z M13.6,1.8L13.6,1.8L13.6,1.8L13.6,1.8L13.6,1.8z M13.5,1.8c0,0,0.1,0,0.1,0
		L13.5,1.8z M13.6,2.2L13.6,2.2L13.6,2.2L13.6,2.2z M13.6,7.7L13.6,7.7L13.6,7.7L13.6,7.7z M13.5,8L13.5,8L13.5,8
		C13.6,8,13.5,8,13.5,8z M13.7,8.7l-0.1,0L13.7,8.7L13.7,8.7z M13.6,9.8L13.6,9.8L13.6,9.8L13.6,9.8L13.6,9.8z M13.7,2.7L13.7,2.7
		L13.7,2.7L13.7,2.7L13.7,2.7z M13.6,6.5L13.6,6.5L13.6,6.5C13.6,6.5,13.6,6.5,13.6,6.5z M13.7,7.3C13.7,7.2,13.7,7.2,13.7,7.3
		c-0.1-0.1-0.2-0.1-0.2-0.1h0l0.1,0.2L13.7,7.3z M13.7,7.6L13.7,7.6l-0.1,0L13.7,7.6z M13.7,9.1L13.7,9.1L13.7,9.1L13.7,9.1z
		 M13.6,2.9L13.6,2.9L13.6,2.9L13.6,2.9L13.6,2.9z M13.6,6.5L13.6,6.5L13.6,6.5C13.6,6.6,13.6,6.6,13.6,6.5L13.6,6.5L13.6,6.5
		L13.6,6.5L13.6,6.5L13.6,6.5z M13.6,8.1L13.6,8.1L13.6,8.1L13.6,8.1L13.6,8.1z M13.6,9.2L13.6,9.2L13.6,9.2L13.6,9.2L13.6,9.2z
		 M13.8,7L13.8,7l-0.2,0l0.1,0.1l-0.1,0l0.1,0L13.8,7z M13.7,6.8L13.7,6.8L13.7,6.8L13.7,6.8z M13.7,7.5L13.7,7.5L13.7,7.5L13.7,7.5
		z M13.7,7.7L13.7,7.7L13.7,7.7L13.7,7.7z M13.7,9.7c0-0.1,0-0.1,0.1-0.1l-0.2,0.1L13.7,9.7C13.7,9.7,13.7,9.7,13.7,9.7z M13.7,2
		L13.7,2L13.7,2L13.7,2z M13.7,8.8C13.7,8.8,13.7,8.8,13.7,8.8C13.7,8.8,13.7,8.8,13.7,8.8L13.7,8.8L13.7,8.8z M13.7,5.6L13.7,5.6
		L13.7,5.6L13.7,5.6L13.7,5.6z M13.7,5.7L13.7,5.7L13.7,5.7L13.7,5.7z M13.7,6.3L13.7,6.3L13.7,6.3L13.7,6.3L13.7,6.3z M13.7,6.7
		L13.7,6.7L13.7,6.7L13.7,6.7L13.7,6.7L13.7,6.7L13.7,6.7L13.7,6.7L13.7,6.7z M13.7,7.8L13.7,7.8L13.7,7.8L13.7,7.8z M13.7,8.6
		L13.7,8.6L13.7,8.6L13.7,8.6L13.7,8.6z M13.8,6.3L13.8,6.3l-0.1,0.1l0,0.1L13.8,6.3z M13.7,6.6L13.7,6.6L13.7,6.6L13.7,6.6z
		 M13.7,6.8L13.7,6.8L13.7,6.8L13.7,6.8z M13.7,5.8C13.7,5.8,13.7,5.8,13.7,5.8L13.7,5.8C13.7,5.8,13.7,5.8,13.7,5.8z M13.7,8
		C13.7,8,13.7,8,13.7,8C13.7,8,13.7,8,13.7,8z M13.7,8.9L13.7,8.9L13.7,8.9L13.7,8.9z M13.7,9.9L13.7,9.9L13.7,9.9L13.7,9.9
		L13.7,9.9z M13.8,3.4L13.8,3.4L13.8,3.4L13.8,3.4z M13.8,6.6L13.8,6.6L13.8,6.6L13.8,6.6z M13.8,1.9L13.8,1.9
		C13.8,1.8,13.8,1.8,13.8,1.9L13.8,1.9L13.8,1.9z M13.8,3L13.8,3L13.8,3L13.8,3L13.8,3z M13.8,3.4L13.8,3.4L13.8,3.4L13.8,3.4
		L13.8,3.4z M13.8,3.6L13.8,3.6L13.8,3.6L13.8,3.6z"/>
</g>
</svg>
