<?xml version="1.0" encoding="utf-8"?>
<!-- Generator: Adobe Illustrator 17.1.0, SVG Export Plug-In . SVG Version: 6.00 Build 0)  -->
<!DOCTYPE svg PUBLIC "-//W3C//DTD SVG 1.1//EN" "http://www.w3.org/Graphics/SVG/1.1/DTD/svg11.dtd">
<svg version="1.1" id="Layer_1" xmlns="http://www.w3.org/2000/svg" xmlns:xlink="http://www.w3.org/1999/xlink" x="0px" y="0px"
	 width="17.8px" height="12.2px" viewBox="0 0 17.8 12.2" enable-background="new 0 0 17.8 12.2" xml:space="preserve">
<g>
	<path d="M2.4,9.8c0.3,0,0.6,0,0.8,0c0.2,0,0.3-0.1,0.4-0.1s0.2-0.2,0.2-0.4c0-0.2,0-0.4,0-0.8v-5c0-0.1-0.1-0.1-0.3-0.2
		c-0.1,0-0.3-0.1-0.4-0.1c-0.2,0-0.3,0-0.5,0s-0.3,0-0.3,0L2.3,3.1L2.3,3c0.5,0,1-0.1,1.4-0.2s0.7-0.3,1-0.5C5,2.2,5.3,2,5.4,1.9
		c0.2-0.1,0.3-0.2,0.5-0.2l0.3,0l0.1,0.1c0,1.1,0,2.2,0,3.2s0,2.2,0,3.2c0,0.5,0,0.9,0.1,1.3c0.1,0.1,0.2,0.2,0.3,0.2s0.3,0,0.4,0
		h0.3l0.2-0.1l0.2,0.1l-0.1,0.3c-0.4-0.1-0.7-0.1-1.1-0.1c-0.4,0-0.7,0-1.1,0c-0.5,0-1,0-1.5,0s-1,0-1.5,0l-0.1-0.1L2.4,9.8z
		 M3.9,9.7L3.9,9.7L3.9,9.7L3.9,9.7z M4.1,9.5L4.1,9.5v0.1V9.5z M4.1,9.7L4.1,9.7L4.1,9.7L4.1,9.7C4.1,9.7,4.1,9.7,4.1,9.7z
		 M4.2,7.6L4.2,7.6L4.2,7.6L4.2,7.6z M4.2,9.3L4.2,9.3C4.2,9.3,4.2,9.3,4.2,9.3C4.3,9.3,4.3,9.3,4.2,9.3L4.2,9.3L4.2,9.3z M4.2,4.2
		l0.2,0l0,0L4.2,4.2z M4.3,5.9L4.3,5.9L4.3,5.9L4.3,5.9z M4.3,9.8L4.3,9.8L4.3,9.8L4.3,9.8z M4.3,4.7L4.3,4.7L4.3,4.7L4.3,4.7
		L4.3,4.7z M4.3,6.3L4.3,6.3L4.3,6.3L4.3,6.3z M4.3,8L4.3,8L4.3,8L4.3,8z M4.3,8.9L4.3,8.9L4.3,8.9L4.3,8.9z M4.3,6.8L4.3,6.8
		L4.3,6.8L4.3,6.8L4.3,6.8z M4.4,3.6c0,0,0,0.1,0.1,0.1c0-0.1,0-0.1,0-0.1s0.1-0.1,0.1-0.1L4.5,3.3L4.3,3.5C4.3,3.5,4.4,3.6,4.4,3.6
		z M4.4,5.1c0,0-0.1,0-0.1,0.1L4.7,5L4.6,4.9l0,0L4.4,4.9L4.4,5.1C4.5,5,4.5,5.1,4.4,5.1z M4.4,6.6c0,0,0.1,0,0.1,0l0.1-0.2l-0.1,0
		L4.4,6.6C4.4,6.5,4.4,6.6,4.4,6.6z M4.5,9.7c0.1,0.1,0.1,0.1,0.1,0.2c0,0,0.1-0.1,0.1-0.2c0,0,0-0.1,0-0.1s0-0.1-0.1-0.1L4.3,9.6v0
		C4.4,9.6,4.5,9.7,4.5,9.7z M4.4,4.6L4.4,4.6L4.4,4.6L4.4,4.6z M4.4,5.7L4.4,5.7L4.4,5.7L4.4,5.7z M4.4,8.3L4.4,8.3L4.4,8.3L4.4,8.3
		z M4.4,9.9L4.4,9.9L4.4,9.9L4.4,9.9z M4.5,6.1L4.5,6.1L4.5,6.1L4.5,6.1z M4.4,9.1C4.4,9.1,4.5,9.2,4.4,9.1h0.3C4.6,9,4.6,9,4.6,9
		S4.5,8.9,4.5,8.8L4.4,8.9v0C4.4,9,4.4,9,4.4,9.1z M4.5,5.4L4.5,5.4L4.5,5.4L4.5,5.4z M4.4,6.3c0,0,0.1,0,0.1-0.1L4.4,6.3z M4.5,6.8
		L4.5,6.8L4.5,6.8L4.5,6.8z M4.7,4c0,0,0.1-0.1,0.1-0.1s0-0.1,0.1-0.1c0-0.1,0-0.1,0-0.1L4.7,3.6L4.5,3.9L4.7,4C4.6,4.1,4.6,4,4.7,4
		z M4.5,4.7L4.5,4.7L4.5,4.7L4.5,4.7L4.5,4.7z M4.6,4.5c0.1,0.1,0.1,0.1,0.2,0.1c0-0.1,0-0.2,0.1-0.3S5,4.1,5,4L5,4
		C4.9,4.2,4.7,4.3,4.5,4.3C4.5,4.3,4.5,4.4,4.6,4.5z M4.6,5.8L4.6,5.8L4.6,5.8L4.6,5.8z M4.6,7.5L4.6,7.5L4.6,7.5L4.6,7.5z M4.6,8
		L4.6,8L4.6,8L4.6,8L4.6,8z M4.6,8.2L4.6,8.2L4.6,8.2L4.6,8.2z M4.6,6.2l0.2,0L4.6,6.2L4.6,6.2L4.6,6.2z M4.6,9.3L4.6,9.3L4.6,9.3
		L4.6,9.3L4.6,9.3z M4.6,8.6L4.6,8.6L4.6,8.6L4.6,8.6L4.6,8.6z M4.6,8.4L4.6,8.4L4.6,8.4L4.6,8.4L4.6,8.4z M4.7,6.3L4.7,6.3L4.7,6.3
		L4.7,6.3L4.7,6.3z M4.7,6.7L4.7,6.7L4.7,6.7L4.7,6.7L4.7,6.7z M4.7,8.2L4.7,8.2L4.7,8.2L4.7,8.2L4.7,8.2z M4.7,7.6L4.7,7.6L4.7,7.6
		L4.7,7.6L4.7,7.6z M4.9,5.2L5,5.3l0.1-0.1L5,5.1l0.1-0.2c0,0,0-0.1,0-0.1c0,0,0-0.1-0.1-0.1C5,4.8,5,4.9,5,5C5,5.1,4.9,5.1,4.9,5.2
		L4.8,5.1L4.7,5.3L4.9,5.2z M4.7,5.6L4.7,5.6L4.7,5.6L4.7,5.6L4.7,5.6z M4.7,8.9l0.1-0.1C4.7,8.8,4.7,8.8,4.7,8.9z M4.7,3.2
		c0,0,0,0.1,0,0.1L4.7,3.2l0-0.1h0C4.7,3.1,4.7,3.2,4.7,3.2z M4.8,5.4L4.8,5.4L4.8,5.4L4.8,5.4L4.8,5.4z M4.8,5.9L4.8,5.9L4.8,5.9
		L4.8,5.9L4.8,5.9z M4.8,6.6L4.8,6.6L4.8,6.6L4.8,6.6L4.8,6.6z M4.8,8.1L4.8,8.1L4.8,8.1L4.8,8.1L4.8,8.1z M4.7,8.9L4.7,8.9L4.7,8.9
		L4.7,8.9L4.7,8.9z M4.8,9.3L4.8,9.3L4.8,9.3L4.8,9.3L4.8,9.3z M4.9,7.4L4.9,7.4H4.8H4.9z M4.8,7.9L4.8,7.9L4.8,7.9L4.8,7.9L4.8,7.9
		z M4.8,3.8L4.8,3.8L4.8,3.8L4.8,3.8L4.8,3.8z M4.8,4L4.8,4L4.8,4L4.8,4L4.8,4z M4.8,4.9L4.8,4.9L4.8,4.9L4.8,4.9L4.8,4.9z M4.8,6
		L4.8,6L4.8,6L4.8,6L4.8,6z M4.8,8.7l0.2,0c0,0,0,0,0,0s0,0,0,0L4.8,8.7z M5.1,6.8c0-0.1,0-0.1,0.1-0.1c0,0,0.1,0,0.1,0
		c0,0,0.1,0,0.1-0.1c-0.1,0-0.2,0.1-0.3,0.1S4.9,6.7,4.8,6.7l0.1,0.1L4.8,6.8L5.1,6.8L5,6.9C5,6.9,5,6.8,5.1,6.8z M4.9,5.7L4.9,5.7
		L4.9,5.7L4.9,5.7L4.9,5.7z M5,3.2c0,0-0.1,0.1-0.1,0.2L5,3.2c0.1,0,0.1-0.1,0.1-0.1C5.1,3.1,5,3.2,5,3.2z M4.9,6.5
		C5,6.5,5,6.6,4.9,6.5l0.2-0.1c0,0-0.1,0-0.1-0.1c0,0-0.1-0.1-0.1-0.1l0,0.1C4.9,6.4,4.9,6.5,4.9,6.5z M4.9,8.2L4.9,8.2L4.9,8.2
		L4.9,8.2L4.9,8.2z M4.9,9.9L5,9.7l0,0C5,9.8,4.9,9.8,4.9,9.9z M5,3.1L5,3.1L5,3.1L5,3.1L5,3.1z M5,3.6L5,3.6L5,3.6L5,3.6L5,3.6z
		 M4.9,7.1L4.9,7.1L4.9,7.1L4.9,7.1L4.9,7.1z M5,9.1L5,9.1L5,9.1L5,9.1L5,9.1z M5,8.3L5,8.3L5,8.3L5,8.3L5,8.3z M5,2.9L5,2.9L5,2.9
		L5,2.9L5,2.9z M5.1,6L5,6C5,6,5.1,6,5.1,6z M5,3.5L5,3.5L5,3.5L5,3.5L5,3.5z M5,3.9l0.1,0L5,3.9L5,3.9L5,3.9z M5,4.3L5,4.3L5,4.3
		L5,4.3L5,4.3z M5,4.6L5,4.6L5,4.6L5,4.6L5,4.6z M5,6.7l0.2,0c0,0,0,0,0,0c0,0,0,0,0,0L5,6.7z M5,7.1L5,7.1L5,7.1L5,7.1L5,7.1z
		 M5,7.8L5,7.8L5,7.8L5,7.8L5,7.8z M5,8.4L5,8.4L5,8.4L5,8.4L5,8.4z M5,3.6L5,3.6L5,3.6L5,3.6L5,3.6z M5.1,9.2
		C5.1,9.1,5.1,9.1,5.1,9.2L5.1,9.2C5.1,9.2,5.1,9.2,5.1,9.2z M5.3,9.2c0,0-0.1,0-0.2,0c-0.1,0-0.1,0-0.1,0.1l0.1,0.1L5.3,9.2z
		 M5.1,3.5L5.1,3.5L5.1,3.5L5.1,3.5L5.1,3.5z M5.2,4.7L5.2,4.7L5.2,4.7L5.2,4.7L5.2,4.7z M5.2,6.1L5.2,6.1L5.2,6.1L5.2,6.1L5.2,6.1z
		 M5.2,7L5.2,7L5.2,7L5.2,7L5.2,7z M5.2,7.6L5.2,7.6L5.2,7.6L5.2,7.6L5.2,7.6z M5.2,8.1L5.2,8.1L5.2,8.1L5.2,8.1L5.2,8.1z M5.2,8.4
		L5.2,8.4L5.2,8.4L5.2,8.4L5.2,8.4z M5.2,2.9L5.2,2.9L5.2,2.9z M5.2,3.3L5.2,3.3L5.2,3.3L5.2,3.3z M5.2,4.2C5.2,4.2,5.2,4.2,5.2,4.2
		L5.2,4.2L5.2,4.2z M5.3,7.9l0.1-0.1c0,0,0-0.1,0-0.1s0-0.1-0.1-0.1L5.2,7.7L5.3,7.9L5.3,7.9z M5.2,9.6L5.2,9.6L5.2,9.6L5.2,9.6z
		 M5.2,5.9L5.2,5.9L5.2,5.9L5.2,5.9L5.2,5.9z M5.2,6.3L5.2,6.3L5.2,6.3L5.2,6.3L5.2,6.3z M5.3,3.7c0,0,0.1,0,0.2,0
		c0.1,0,0.1,0,0.2,0c0,0,0.1,0.1,0.1,0.1c0,0,0,0,0,0.1c0-0.1,0.1-0.1,0.1-0.2c0,0,0-0.1,0-0.1c0,0-0.1,0-0.1,0c0,0-0.1,0-0.1,0
		c0,0,0,0,0-0.1l0.1-0.1c-0.1,0-0.1,0-0.2,0.1C5.3,3.5,5.2,3.6,5.3,3.7C5.2,3.7,5.3,3.7,5.3,3.7z M5.4,9.9L5.4,9.9L5.2,9.8
		C5.3,9.8,5.3,9.9,5.4,9.9z M5.3,2.6l0.2,0c0,0,0,0,0,0c0,0,0,0,0,0L5.3,2.6z M5.3,5.2L5.3,5.2L5.3,5.2L5.3,5.2L5.3,5.2z M5.3,7.3
		L5.3,7.3L5.3,7.3L5.3,7.3L5.3,7.3z M5.5,5.6H5.3v0.1L5.5,5.6z M5.3,6.8L5.3,6.8L5.3,6.8L5.3,6.8L5.3,6.8z M5.4,8.9L5.4,8.9L5.4,8.9
		L5.4,8.9z M5.3,9.5c0,0.1,0,0.1,0,0.1C5.3,9.6,5.4,9.6,5.3,9.5c0.1,0,0.1,0,0.1-0.1L5.3,9.5C5.4,9.4,5.4,9.5,5.3,9.5z M5.4,3L5.4,3
		L5.4,3L5.4,3L5.4,3z M5.4,3.3L5.4,3.3L5.4,3.3L5.4,3.3L5.4,3.3z M5.4,4.2L5.4,4.2L5.4,4.2L5.4,4.2L5.4,4.2z M5.5,4.7
		c0,0,0.1,0,0.1,0c0,0,0.1-0.1,0.1-0.1L5.5,4.7L5.5,4.7z M5.4,5.8C5.4,5.8,5.4,5.8,5.4,5.8C5.4,5.8,5.4,5.8,5.4,5.8L5.4,5.8L5.4,5.8
		L5.4,5.8z M5.4,6.3c0,0,0.1,0,0.1,0L5.4,6.2L5.4,6.3C5.4,6.2,5.4,6.3,5.4,6.3z M5.5,7.6L5.5,7.6L5.5,7.6L5.5,7.6L5.5,7.6z M5.5,8.6
		L5.5,8.6L5.5,8.6L5.5,8.6L5.5,8.6z M5.5,9.7L5.5,9.7L5.5,9.7L5.5,9.7L5.5,9.7z M5.4,5l0.2-0.1l0,0L5.4,5z M5.6,4.2
		c0-0.1,0-0.1,0.1-0.1C5.6,4.1,5.6,4.1,5.6,4.2c-0.1,0-0.1,0-0.1,0.1l0.1,0.1C5.6,4.3,5.6,4.3,5.6,4.2z M5.5,8.4L5.5,8.4L5.5,8.4
		L5.5,8.4L5.5,8.4z M5.5,9.2L5.5,9.2L5.5,9.2L5.5,9.2z M5.5,5.2L5.5,5.2L5.5,5.2L5.5,5.2z M5.7,7.1l0.1-0.2L5.7,7L5.5,6.9
		C5.5,7,5.6,7.1,5.7,7.1z M5.9,9.7L5.9,9.7H6c0,0,0,0,0-0.1s-0.1,0-0.1-0.1c0,0-0.1,0-0.1-0.1s0-0.1,0-0.1h0L5.6,9.5l0.1,0.1
		L5.5,9.9L5.9,9.7z M5.6,3.3L5.6,3.3L5.6,3.3L5.6,3.3z M5.6,5.1L5.6,5.1L5.6,5.1L5.6,5.1z M5.6,7.5l0.2,0L5.6,7.5L5.6,7.5L5.6,7.5z
		 M5.6,8.6L5.6,8.6L5.6,8.6L5.6,8.6z M5.7,2.8L5.7,2.8L5.7,2.8L5.7,2.8z M5.6,3.5l0.2,0l0,0L5.6,3.5z M5.7,6.1L5.7,6.1L5.7,6.1
		L5.7,6.1z M5.7,6.2L5.7,6.2L5.7,6.2L5.7,6.2z M5.7,9.2L5.7,9.2L5.7,9.2L5.7,9.2z M5.7,5.8L5.7,5.8L5.7,5.8L5.7,5.8z M5.7,6.5
		L5.7,6.5L5.7,6.5L5.7,6.5L5.7,6.5z M5.8,8.5L5.7,8.6C5.8,8.6,5.8,8.5,5.8,8.5z M5.7,2.3L5.7,2.3L5.7,2.3L5.7,2.3z M5.7,2.5L5.7,2.5
		L5.7,2.5L5.7,2.5z M5.7,4.8L5.7,4.8L5.7,4.8L5.7,4.8z M5.7,5.1L5.7,5.1L5.7,5.1L5.7,5.1z M5.7,7.3L5.7,7.3L5.7,7.3L5.7,7.3z
		 M5.7,7.4L5.7,7.4L5.7,7.4L5.7,7.4z M5.7,9.1L5.7,9.1L5.7,9.1L5.7,9.1z M5.8,7.5L5.8,7.5L5.8,7.5L5.8,7.5z M5.8,4.1L5.8,4.1
		L5.8,4.1L5.8,4.1z M5.8,4.2L5.8,4.2L5.8,4.2L5.8,4.2z M5.8,9.3L5.8,9.3L5.8,9.3L5.8,9.3z M5.8,8.7L5.8,8.7L5.8,8.7L5.8,8.7L5.8,8.7
		z M6,9.5L6,9.5L6,9.5L6,9.5z"/>
	<path d="M9,7.6c0-0.1,0.1-0.2,0.1-0.3c0-0.1,0.1-0.1,0.1-0.2C9.3,7,9.4,7,9.5,7l0.2,0C9.8,7,9.9,6.9,10,6.9c0.1,0,0.3,0,0.4,0.1
		c0.1,0.1,0.2,0.1,0.3,0.2c0.1,0.1,0.2,0.2,0.2,0.3C11,7.7,11,7.8,11,8c0,0.2-0.1,0.4-0.2,0.5s-0.2,0.2-0.4,0.3
		c-0.1,0.1-0.2,0.2-0.4,0.3C10.1,9.2,10,9.2,10,9.3c0,0.1,0,0.2,0.1,0.3c0.1,0.1,0.2,0.2,0.3,0.2c0.1,0.1,0.2,0.1,0.3,0.1
		c0.1,0,0.1,0.1,0.1,0.1l0,0c-0.3,0-0.5-0.1-0.7-0.2C9.8,9.8,9.6,9.7,9.5,9.5S9.2,9,9.1,8.8C9,8.5,8.9,8.3,8.9,8.1V7.8
		C9,7.7,9,7.6,9,7.6z M9.4,8.6C9.4,8.6,9.4,8.6,9.4,8.6L9.4,8.6L9.4,8.6z M9.5,8L9.5,8L9.5,8L9.5,8L9.5,8z M9.6,8.3L9.6,8.3L9.6,8.3
		L9.6,8.3z M9.6,8L9.6,8L9.6,8L9.6,8z M11.4,10.1c0.1,0,0.2,0,0.3,0s0.2,0,0.3,0c0.1,0,0.2,0,0.2-0.1c0.1-0.1,0.3-0.2,0.4-0.5
		c0.1-0.2,0.2-0.4,0.3-0.7C12.9,8.5,13,8.3,13,8c0-0.3,0-0.5,0-0.6c0-0.2,0-0.5,0-0.8c0-0.3-0.1-0.5-0.2-0.8s-0.2-0.5-0.3-0.6
		s-0.4-0.3-0.6-0.5H11c-0.1,0-0.1,0-0.2,0.1c0,0-0.1,0.1-0.1,0.1c-0.2,0.1-0.3,0.2-0.4,0.3c-0.1,0.1-0.2,0.1-0.3,0.2
		C10.1,5.6,10,5.6,10,5.8c0,0.1-0.1,0.3-0.1,0.5L9.7,6.3L9.6,6.2c0-0.4,0-0.8,0.1-1.2c0.1-0.4,0.1-0.8,0.1-1.2V2c0-0.1,0-0.1,0-0.2
		c0-0.1,0-0.1,0-0.2s0-0.1,0-0.2c0-0.1,0.1-0.1,0.1-0.2c0.5,0.1,1.1,0.3,1.6,0.4c0.5,0.1,1.1,0.1,1.6,0.1h0.2c0.1,0,0.1,0,0.2,0
		c0.1,0,0.1,0.1,0.2,0.1c0.1,0,0.1,0,0.2,0c0.1,0,0.3,0,0.4-0.1c0.1,0,0.2-0.1,0.3-0.1c0.1,0,0.2-0.1,0.3-0.1s0.2-0.1,0.2-0.1
		c0,0.1-0.1,0.2-0.2,0.4c-0.1,0.2-0.2,0.3-0.4,0.5s-0.3,0.3-0.4,0.4c-0.2,0.1-0.3,0.2-0.4,0.3C13.8,3,13.7,3,13.6,3
		s-0.1,0.1-0.2,0.1H13c0,0.1-0.1,0.1-0.2,0.1c-0.1,0-0.1,0-0.2,0.1c-0.4,0-0.7,0-1.1-0.1s-0.7-0.1-1.1-0.1c-0.1,0-0.3,0-0.3,0.1
		c-0.1,0.1-0.1,0.2-0.1,0.3c0,0.1,0,0.2,0,0.2c0,0.1,0,0.2,0,0.2c0,0.2,0,0.3,0,0.4c0,0.1,0,0.3,0,0.4c0,0,0,0.1,0,0.1
		c0,0.1,0.1,0.1,0.1,0.1C10.3,5.1,10.3,5,10.4,5c0.1,0,0.2-0.1,0.3-0.1l0.3-0.1c0.1,0,0.2-0.1,0.2-0.1h1.4c0.1,0,0.2,0,0.3,0.1
		c0.1,0,0.3,0.1,0.4,0.1c0.1,0.1,0.3,0.1,0.4,0.2C13.8,5,13.9,5,13.9,5.1c0.2,0.2,0.5,0.3,0.6,0.5c0.2,0.1,0.3,0.3,0.5,0.4
		s0.2,0.3,0.3,0.5c0.1,0.2,0.1,0.5,0.1,0.8c0,0.4-0.1,0.8-0.2,1.2c-0.1,0.3-0.3,0.6-0.6,0.8c-0.2,0.2-0.5,0.4-0.9,0.6
		s-0.7,0.3-1.1,0.3c-0.1,0-0.2,0-0.2,0.1c-0.1,0-0.2,0.1-0.2,0.1c-0.2,0-0.3,0-0.5,0c-0.1,0-0.3,0-0.5,0l-0.2-0.1
		C11.2,10.1,11.3,10.1,11.4,10.1z M9.8,8.1L9.8,8.1L9.8,8.1L9.8,8.1L9.8,8.1z M9.9,8.2L9.9,8.2L9.9,8.2L9.9,8.2L9.9,8.2z M10,7.4
		L10,7.4L10,7.4L10,7.4L10,7.4z M10.2,8C10.2,7.9,10.2,7.9,10.2,8L10.2,8L10.2,8L10.2,8z M10.3,2.1c0.1,0,0.1-0.1,0.1-0.1l-0.2,0.1
		C10.2,2.2,10.2,2.2,10.3,2.1z M10.3,2.4L10.3,2.4V2.2V2.4L10.3,2.4L10.3,2.4z M10.3,8.3L10.3,8.3L10.3,8.3L10.3,8.3z M10.3,7.6
		L10.3,7.6L10.3,7.6L10.3,7.6z M10.4,8L10.4,8L10.4,8L10.4,8L10.4,8z M10.4,1.8L10.4,1.8L10.4,1.8L10.4,1.8z M10.5,2.2
		c0,0-0.1,0.1-0.1,0.1c0.1,0,0.1,0,0.2-0.1c0.1,0,0.1-0.1,0.1-0.2c0,0,0-0.1-0.1-0.1c-0.1,0-0.1,0-0.2-0.1l0,0.1l0.2,0.1
		C10.6,2.1,10.6,2.2,10.5,2.2z M10.5,2.6C10.5,2.6,10.5,2.7,10.5,2.6C10.6,2.7,10.6,2.7,10.5,2.6c0.1,0,0.1,0,0.1-0.1
		c-0.1-0.1-0.2-0.1-0.2-0.1c0,0-0.1,0-0.1,0c0,0,0.1,0,0.1,0C10.5,2.5,10.6,2.5,10.5,2.6C10.6,2.6,10.6,2.6,10.5,2.6z M10.4,7.8
		L10.4,7.8L10.4,7.8L10.4,7.8z M10.7,1.9L10.7,1.9L10.7,1.9L10.7,1.9L10.7,1.9z M10.8,2.8C10.8,2.8,10.8,2.7,10.8,2.8L10.8,2.8
		L10.8,2.8C10.7,2.8,10.8,2.8,10.8,2.8z M10.8,2.4L10.8,2.4L10.8,2.4L10.8,2.4z M10.8,2.5L10.8,2.5L11,2.6L10.8,2.5z M11,2.3
		l-0.2-0.1h0L11,2.3L11,2.3z M10.9,2.1L10.9,2.1L10.9,2.1L10.9,2.1L10.9,2.1z M10.9,1.9C10.9,1.8,11,1.8,10.9,1.9L10.9,1.9L10.9,1.9
		C10.9,1.9,10.9,1.9,10.9,1.9z M11,2.8L11,2.8L11,2.8C10.9,2.8,11,2.8,11,2.8z M11,2.1L11,2.1L11,2.1L11,2.1z M11.3,2.6L11.3,2.6
		l-0.1,0l0-0.1l0.1,0l-0.1,0c0,0-0.1,0.1-0.1,0.1c0,0-0.1,0.1-0.1,0.1l0.2,0L11.3,2.6z M11.2,1.9L11.2,1.9L11.2,1.9
		C11.1,2,11.2,2,11.2,1.9z M11.2,2.2L11.2,2.2l0,0.1L11.2,2.2z M11.3,2L11.3,2v0.2V2z M11.3,2L11.3,2L11.3,2L11.3,2L11.3,2z M11.3,3
		L11.3,3L11.3,3L11.3,3L11.3,3z M11.4,2.2C11.4,2.2,11.4,2.2,11.4,2.2L11.4,2.2L11.4,2.2C11.4,2.2,11.4,2.2,11.4,2.2z M11.4,2.7
		L11.4,2.7L11.4,2.7L11.4,2.7L11.4,2.7z M11.5,2.1L11.5,2.1L11.5,2.1L11.5,2.1z M11.5,2.5c0,0,0,0.1,0,0.1
		C11.5,2.6,11.6,2.6,11.5,2.5c0.1,0,0.1,0,0.1-0.1C11.6,2.4,11.5,2.4,11.5,2.5z M11.6,2.1L11.6,2.1L11.6,2.1L11.6,2.1z M11.6,1.9
		L11.6,1.9L11.6,1.9L11.6,1.9z M11.6,2.3C11.6,2.2,11.6,2.2,11.6,2.3C11.5,2.2,11.5,2.3,11.6,2.3z M11.6,2.7L11.6,2.7L11.6,2.7
		L11.6,2.7L11.6,2.7z M11.6,2C11.6,2,11.6,2,11.6,2L11.6,2C11.6,2,11.6,2,11.6,2z M11.9,2.1h-0.2H11.9L11.9,2.1z M11.7,2.8L11.7,2.8
		L11.7,2.8C11.8,2.8,11.7,2.8,11.7,2.8z M11.8,2.4L11.8,2.4L11.8,2.4L11.8,2.4z M11.8,3L11.8,3L11.8,3L11.8,3z M11.9,2.7L11.9,2.7
		L11.9,2.7L11.9,2.7z M12,2.3c0,0,0.1-0.1,0.1-0.1L12,2.3l-0.1,0.1l0.1,0C12,2.4,12,2.3,12,2.3z M11.9,2.8L11.9,2.8L11.9,2.8
		L11.9,2.8L11.9,2.8z M12.2,2.7c0,0-0.1,0.1-0.1,0.2C12.2,2.9,12.2,2.8,12.2,2.7c0,0,0.1,0,0.1,0l0.1,0l0-0.1
		C12.3,2.6,12.3,2.7,12.2,2.7z M12.5,2.3c0,0-0.1,0-0.1,0s-0.1,0-0.1,0c0,0,0,0,0,0.1C12.4,2.4,12.4,2.4,12.5,2.3c0,0,0.1,0,0.2,0
		L12.5,2.3C12.6,2.3,12.6,2.3,12.5,2.3z M12.4,2.2L12.4,2.2h-0.1H12.4L12.4,2.2z M12.4,2.9C12.4,2.9,12.4,3,12.4,2.9
		C12.4,3,12.4,2.9,12.4,2.9L12.4,2.9C12.4,2.9,12.4,2.9,12.4,2.9z M12.5,2.6L12.5,2.6L12.5,2.6C12.5,2.6,12.5,2.6,12.5,2.6z
		 M12.8,2.5c0,0,0,0.1,0,0.1C12.9,2.6,12.9,2.6,12.8,2.5c0,0,0.1,0,0.1,0L12.8,2.5C12.9,2.4,12.9,2.4,12.8,2.5z M13,2.3
		c0,0,0.1,0,0.2,0C13.2,2.3,13.1,2.3,13,2.3C13,2.2,13,2.2,13,2.3l-0.1-0.1C12.9,2.2,13,2.3,13,2.3z M13,2.4L13,2.4L13,2.4L13,2.4z
		 M13.1,2.8C13.1,2.8,13.2,2.8,13.1,2.8C13.2,2.8,13.2,2.8,13.1,2.8C13.1,2.7,13.1,2.7,13.1,2.8C13.1,2.7,13.1,2.8,13.1,2.8z
		 M13.2,2.7L13.2,2.7L13.2,2.7L13.2,2.7z M13.3,5.4L13.3,5.4L13.3,5.4L13.3,5.4L13.3,5.4z M13.3,5.4C13.3,5.4,13.3,5.5,13.3,5.4
		C13.3,5.5,13.3,5.5,13.3,5.4C13.4,5.5,13.4,5.4,13.3,5.4L13.3,5.4C13.4,5.4,13.4,5.4,13.3,5.4z M13.3,6.1L13.3,6.1L13.3,6.1
		L13.3,6.1L13.3,6.1z M13.4,6.5L13.4,6.5L13.4,6.5L13.4,6.5L13.4,6.5z M13.5,2.5l-0.1-0.2v0.1L13.5,2.5L13.5,2.5z M13.4,6.8
		C13.4,6.7,13.4,6.7,13.4,6.8C13.4,6.7,13.4,6.7,13.4,6.8L13.4,6.8L13.4,6.8z M13.4,2.7L13.4,2.7L13.4,2.7L13.4,2.7z M13.4,8.2
		l0.1,0l0,0l0,0L13.4,8.2z M13.4,6L13.4,6L13.4,6L13.4,6z M13.5,8.9L13.5,8.9L13.5,8.9L13.5,8.9L13.5,8.9z M13.5,6.4L13.5,6.4
		L13.5,6.4C13.5,6.3,13.5,6.3,13.5,6.4z M13.5,2.3L13.5,2.3L13.5,2.3L13.5,2.3L13.5,2.3z M13.6,5.9V5.7l-0.1,0.2H13.6z M13.5,7.1
		L13.5,7.1C13.5,7.1,13.5,7.1,13.5,7.1C13.5,7,13.5,7,13.5,7.1z M13.8,2.5c0.1,0,0.1-0.1,0.1-0.2c-0.1,0-0.1,0-0.2,0.1
		c-0.1,0-0.1,0.1-0.1,0.1l0,0C13.7,2.5,13.7,2.5,13.8,2.5z M13.6,8.7L13.6,8.7L13.6,8.7L13.6,8.7L13.6,8.7z M13.6,6.5L13.6,6.5
		L13.6,6.5L13.6,6.5z M13.6,6L13.6,6L13.6,6L13.6,6L13.6,6z M13.6,7.9L13.6,7.9L13.6,7.9L13.6,7.9L13.6,7.9z M13.6,2.7L13.6,2.7
		L13.6,2.7L13.6,2.7z M13.7,7.2L13.7,7.2L13.7,7.2L13.7,7.2z M13.8,6.4L13.8,6.4L13.8,6.4L13.8,6.4L13.8,6.4z M13.7,6.6L13.7,6.6
		L13.7,6.6L13.7,6.6z M13.8,2.1L13.8,2.1L13.8,2.1C13.8,2.2,13.8,2.2,13.8,2.1z M13.9,5.8l-0.2,0L13.8,6L13.9,5.8z M13.8,5.6
		C13.8,5.6,13.8,5.6,13.8,5.6C13.8,5.5,13.8,5.5,13.8,5.6L13.8,5.6L13.8,5.6z M13.9,2.6L13.9,2.6L13.9,2.6L13.9,2.6L13.9,2.6z
		 M13.8,5.7C13.9,5.7,13.9,5.6,13.8,5.7C13.8,5.6,13.8,5.6,13.8,5.7z M14,5.8l0-0.1L14,5.8l-0.1,0L14,5.8z M14,2.3
		C14,2.3,14,2.3,14,2.3L14,2.3L14,2.3C14,2.3,14,2.3,14,2.3z M14,6C14,6,14,6.1,14,6L14,6L14,6C14,6,14,6,14,6z M14.4,6
		c0,0-0.1-0.1-0.1-0.1c-0.1,0-0.1,0-0.1,0v0L14.4,6z M14.2,8.6L14.2,8.6L14.2,8.6L14.2,8.6z M14.3,6.5L14.3,6.5l-0.1,0v0H14.3z
		 M14.3,8.1C14.3,8.1,14.3,8.1,14.3,8.1l0,0.3L14.3,8.1C14.3,8,14.3,8,14.3,8.1z M14.3,8.4L14.3,8.4L14.3,8.4L14.3,8.4z M14.4,6.2
		L14.4,6.2L14.4,6.2L14.4,6.2L14.4,6.2z M14.5,7.8L14.5,7.8L14.5,7.8L14.5,7.8L14.5,7.8z M14.5,6.4L14.5,6.4L14.5,6.4L14.5,6.4z
		 M14.5,7.7L14.5,7.7L14.5,7.7L14.5,7.7L14.5,7.7z M14.6,8.5L14.6,8.5L14.6,8.5L14.6,8.5L14.6,8.5z M14.6,6.3L14.6,6.3L14.6,6.3
		L14.6,6.3L14.6,6.3z M14.7,8L14.7,8L14.7,8L14.7,8z M14.6,6L14.6,6L14.6,6L14.6,6z M14.6,8.2L14.6,8.2L14.6,8.2L14.6,8.2z
		 M14.7,6.5L14.7,6.5L14.7,6.5L14.7,6.5L14.7,6.5z M14.7,7.5L14.7,7.5L14.7,7.5L14.7,7.5L14.7,7.5z M14.8,6.6L14.8,6.6L14.8,6.6
		L14.8,6.6L14.8,6.6z M14.8,7.2L14.8,7.2L14.8,7.2L14.8,7.2z M14.8,7.4L14.8,7.4L14.8,7.4L14.8,7.4L14.8,7.4z M14.8,8.4L14.8,8.4
		L14.8,8.4L14.8,8.4L14.8,8.4z M14.9,7.7L14.9,7.7L14.9,7.7L14.9,7.7z M15,7.4L15,7.4L15,7.4L15,7.4z"/>
</g>
</svg>
