<?xml version="1.0" encoding="utf-8"?>
<!-- Generator: Adobe Illustrator 17.1.0, SVG Export Plug-In . SVG Version: 6.00 Build 0)  -->
<!DOCTYPE svg PUBLIC "-//W3C//DTD SVG 1.1//EN" "http://www.w3.org/Graphics/SVG/1.1/DTD/svg11.dtd">
<svg version="1.1" id="Layer_1" xmlns="http://www.w3.org/2000/svg" xmlns:xlink="http://www.w3.org/1999/xlink" x="0px" y="0px"
	 width="17.8px" height="12.2px" viewBox="0 0 17.8 12.2" enable-background="new 0 0 17.8 12.2" xml:space="preserve">
<g>
	<path d="M2.1,9.8c0.3,0,0.6,0,0.8,0c0.2,0,0.3-0.1,0.4-0.1s0.2-0.2,0.2-0.4c0-0.2,0-0.4,0-0.8v-5c0-0.1-0.1-0.1-0.3-0.2
		C3.1,3.3,3,3.3,2.8,3.3c-0.2,0-0.3,0-0.5,0s-0.3,0-0.3,0L2,3.1L2,3c0.5,0,1-0.1,1.4-0.2s0.7-0.3,1-0.5C4.7,2.2,4.9,2,5.1,1.9
		c0.2-0.1,0.3-0.2,0.5-0.2l0.3,0L6,1.8C6,2.9,6,4,6,5.1s0,2.2,0,3.2c0,0.5,0,0.9,0.1,1.3c0.1,0.1,0.2,0.2,0.3,0.2s0.3,0,0.4,0H7
		l0.2-0.1l0.2,0.1l-0.1,0.3c-0.4-0.1-0.7-0.1-1.1-0.1c-0.4,0-0.7,0-1.1,0c-0.5,0-1,0-1.5,0s-1,0-1.5,0L2,10.1L2.1,9.8z M3.6,9.7
		L3.6,9.7L3.6,9.7L3.6,9.7z M3.8,9.5L3.8,9.5v0.1V9.5z M3.8,9.7L3.8,9.7L3.8,9.7L3.8,9.7C3.8,9.7,3.8,9.7,3.8,9.7z M3.9,7.6L3.9,7.6
		L3.9,7.6L3.9,7.6z M3.9,9.3L3.9,9.3C3.9,9.3,3.9,9.3,3.9,9.3C3.9,9.3,4,9.3,3.9,9.3L3.9,9.3L3.9,9.3z M3.9,4.2l0.2,0l0,0L3.9,4.2z
		 M4,5.9L4,5.9L4,5.9L4,5.9z M4,9.8L4,9.8L4,9.8L4,9.8z M4,4.7L4,4.7L4,4.7L4,4.7L4,4.7z M4,6.3L4,6.3L4,6.3L4,6.3z M4,8L4,8L4,8
		L4,8z M4,8.9L4,8.9L4,8.9L4,8.9z M4,6.8L4,6.8L4,6.8L4,6.8L4,6.8z M4.1,3.6c0,0,0,0.1,0.1,0.1c0-0.1,0-0.1,0-0.1s0.1-0.1,0.1-0.1
		L4.2,3.3L4,3.5C4,3.5,4,3.6,4.1,3.6z M4.1,5.1c0,0-0.1,0-0.1,0.1L4.4,5L4.3,4.9l0,0L4.1,4.9L4.1,5.1C4.2,5,4.1,5.1,4.1,5.1z
		 M4.1,6.6c0,0,0.1,0,0.1,0l0.1-0.2l-0.1,0L4.1,6.6C4.1,6.5,4.1,6.6,4.1,6.6z M4.2,9.7c0.1,0.1,0.1,0.1,0.1,0.2c0,0,0.1-0.1,0.1-0.2
		c0,0,0-0.1,0-0.1s0-0.1-0.1-0.1L4,9.6v0C4.1,9.6,4.2,9.7,4.2,9.7z M4.1,4.6L4.1,4.6L4.1,4.6L4.1,4.6z M4.1,5.7L4.1,5.7L4.1,5.7
		L4.1,5.7z M4.1,8.3L4.1,8.3L4.1,8.3L4.1,8.3z M4.1,9.9L4.1,9.9L4.1,9.9L4.1,9.9z M4.2,6.1L4.2,6.1L4.2,6.1L4.2,6.1z M4.1,9.1
		C4.1,9.1,4.2,9.2,4.1,9.1h0.3C4.3,9,4.3,9,4.3,9S4.2,8.9,4.2,8.8L4.1,8.9v0C4.1,9,4.1,9,4.1,9.1z M4.2,5.4L4.2,5.4L4.2,5.4L4.2,5.4
		z M4.1,6.3c0,0,0.1,0,0.1-0.1L4.1,6.3z M4.2,6.8L4.2,6.8L4.2,6.8L4.2,6.8z M4.4,4c0,0,0.1-0.1,0.1-0.1s0-0.1,0.1-0.1
		c0-0.1,0-0.1,0-0.1L4.4,3.6L4.2,3.9L4.4,4C4.3,4.1,4.3,4,4.4,4z M4.2,4.7L4.2,4.7L4.2,4.7L4.2,4.7L4.2,4.7z M4.3,4.5
		c0.1,0.1,0.1,0.1,0.2,0.1c0-0.1,0-0.2,0.1-0.3S4.6,4.1,4.7,4L4.7,4C4.6,4.2,4.4,4.3,4.2,4.3C4.2,4.3,4.2,4.4,4.3,4.5z M4.2,5.8
		L4.2,5.8L4.2,5.8L4.2,5.8z M4.2,7.5L4.2,7.5L4.2,7.5L4.2,7.5z M4.2,8L4.2,8L4.2,8L4.2,8L4.2,8z M4.2,8.2L4.2,8.2L4.2,8.2L4.2,8.2z
		 M4.2,6.2l0.2,0L4.2,6.2L4.2,6.2L4.2,6.2z M4.2,9.3L4.2,9.3L4.2,9.3L4.2,9.3L4.2,9.3z M4.3,8.6L4.3,8.6L4.3,8.6L4.3,8.6L4.3,8.6z
		 M4.3,8.4L4.3,8.4L4.3,8.4L4.3,8.4L4.3,8.4z M4.4,6.3L4.4,6.3L4.4,6.3L4.4,6.3L4.4,6.3z M4.4,6.7L4.4,6.7L4.4,6.7L4.4,6.7L4.4,6.7z
		 M4.4,8.2L4.4,8.2L4.4,8.2L4.4,8.2L4.4,8.2z M4.4,7.6L4.4,7.6L4.4,7.6L4.4,7.6L4.4,7.6z M4.6,5.2l0.1,0.1l0.1-0.1L4.7,5.1l0.1-0.2
		c0,0,0-0.1,0-0.1c0,0,0-0.1-0.1-0.1c0,0.1,0,0.2,0,0.2C4.6,5.1,4.6,5.1,4.6,5.2L4.4,5.1L4.4,5.3L4.6,5.2z M4.4,5.6L4.4,5.6L4.4,5.6
		L4.4,5.6L4.4,5.6z M4.4,8.9l0.1-0.1C4.4,8.8,4.4,8.8,4.4,8.9z M4.4,3.2c0,0,0,0.1,0,0.1L4.4,3.2l0-0.1h0C4.4,3.1,4.4,3.2,4.4,3.2z
		 M4.4,5.4L4.4,5.4L4.4,5.4L4.4,5.4L4.4,5.4z M4.4,5.9L4.4,5.9L4.4,5.9L4.4,5.9L4.4,5.9z M4.4,6.6L4.4,6.6L4.4,6.6L4.4,6.6L4.4,6.6z
		 M4.4,8.1L4.4,8.1L4.4,8.1L4.4,8.1L4.4,8.1z M4.4,8.9L4.4,8.9L4.4,8.9L4.4,8.9L4.4,8.9z M4.4,9.3L4.4,9.3L4.4,9.3L4.4,9.3L4.4,9.3z
		 M4.6,7.4L4.6,7.4H4.4H4.6z M4.4,7.9L4.4,7.9L4.4,7.9L4.4,7.9L4.4,7.9z M4.5,3.8L4.5,3.8L4.5,3.8L4.5,3.8L4.5,3.8z M4.5,4L4.5,4
		L4.5,4L4.5,4L4.5,4z M4.5,4.9L4.5,4.9L4.5,4.9L4.5,4.9L4.5,4.9z M4.5,6L4.5,6L4.5,6L4.5,6L4.5,6z M4.5,8.7l0.2,0c0,0,0,0,0,0
		s0,0,0,0L4.5,8.7z M4.7,6.8c0-0.1,0-0.1,0.1-0.1c0,0,0.1,0,0.1,0c0,0,0.1,0,0.1-0.1C5,6.5,4.9,6.6,4.8,6.6c-0.1,0-0.2,0.1-0.3,0.1
		l0.1,0.1L4.5,6.8L4.7,6.8L4.7,6.9C4.7,6.9,4.7,6.8,4.7,6.8z M4.6,5.7L4.6,5.7L4.6,5.7L4.6,5.7L4.6,5.7z M4.7,3.2
		c0,0-0.1,0.1-0.1,0.2L4.7,3.2c0.1,0,0.1-0.1,0.1-0.1C4.8,3.1,4.7,3.2,4.7,3.2z M4.6,6.5C4.7,6.5,4.7,6.6,4.6,6.5l0.2-0.1
		c0,0-0.1,0-0.1-0.1c0,0-0.1-0.1-0.1-0.1l0,0.1C4.6,6.4,4.6,6.5,4.6,6.5z M4.6,8.2L4.6,8.2L4.6,8.2L4.6,8.2L4.6,8.2z M4.6,9.9
		l0.1-0.1l0,0C4.6,9.8,4.6,9.8,4.6,9.9z M4.7,3.1L4.7,3.1L4.7,3.1L4.7,3.1L4.7,3.1z M4.7,3.6L4.7,3.6L4.7,3.6L4.7,3.6L4.7,3.6z
		 M4.6,7.1L4.6,7.1L4.6,7.1L4.6,7.1L4.6,7.1z M4.7,9.1L4.7,9.1L4.7,9.1L4.7,9.1L4.7,9.1z M4.6,8.3L4.6,8.3L4.6,8.3L4.6,8.3L4.6,8.3z
		 M4.7,2.9L4.7,2.9L4.7,2.9L4.7,2.9L4.7,2.9z M4.8,6L4.7,6C4.7,6,4.8,6,4.8,6z M4.7,3.5L4.7,3.5L4.7,3.5L4.7,3.5L4.7,3.5z M4.7,3.9
		l0.1,0L4.7,3.9L4.7,3.9L4.7,3.9z M4.7,4.3L4.7,4.3L4.7,4.3L4.7,4.3L4.7,4.3z M4.7,4.6L4.7,4.6L4.7,4.6L4.7,4.6L4.7,4.6z M4.7,6.7
		l0.2,0c0,0,0,0,0,0c0,0,0,0,0,0L4.7,6.7z M4.7,7.1L4.7,7.1L4.7,7.1L4.7,7.1L4.7,7.1z M4.7,7.8L4.7,7.8L4.7,7.8L4.7,7.8L4.7,7.8z
		 M4.7,8.4L4.7,8.4L4.7,8.4L4.7,8.4L4.7,8.4z M4.7,3.6L4.7,3.6L4.7,3.6L4.7,3.6L4.7,3.6z M4.8,9.2C4.8,9.1,4.8,9.1,4.8,9.2L4.8,9.2
		C4.8,9.2,4.8,9.2,4.8,9.2z M5,9.2c0,0-0.1,0-0.2,0s-0.1,0-0.1,0.1l0.1,0.1L5,9.2z M4.8,3.5L4.8,3.5L4.8,3.5L4.8,3.5L4.8,3.5z
		 M4.8,4.7L4.8,4.7L4.8,4.7L4.8,4.7L4.8,4.7z M4.9,6.1L4.9,6.1L4.9,6.1L4.9,6.1L4.9,6.1z M4.9,7L4.9,7L4.9,7L4.9,7L4.9,7z M4.9,7.6
		L4.9,7.6L4.9,7.6L4.9,7.6L4.9,7.6z M4.9,8.1L4.9,8.1L4.9,8.1L4.9,8.1L4.9,8.1z M4.9,8.4L4.9,8.4L4.9,8.4L4.9,8.4L4.9,8.4z M4.9,2.9
		L4.9,2.9L4.9,2.9z M4.9,3.3L4.9,3.3L4.9,3.3L4.9,3.3z M4.9,4.2C4.9,4.2,4.9,4.2,4.9,4.2L4.9,4.2L4.9,4.2z M5,7.9l0.1-0.1
		c0,0,0-0.1,0-0.1S5,7.6,5,7.6L4.9,7.7L5,7.9L5,7.9z M4.9,9.6L4.9,9.6L4.9,9.6L4.9,9.6z M4.9,5.9L4.9,5.9L4.9,5.9L4.9,5.9L4.9,5.9z
		 M4.9,6.3L4.9,6.3L4.9,6.3L4.9,6.3L4.9,6.3z M5,3.7c0,0,0.1,0,0.2,0c0.1,0,0.1,0,0.2,0c0,0,0.1,0.1,0.1,0.1c0,0,0,0,0,0.1
		c0-0.1,0.1-0.1,0.1-0.2c0,0,0-0.1,0-0.1c0,0-0.1,0-0.1,0c0,0-0.1,0-0.1,0c0,0,0,0,0-0.1l0.1-0.1c-0.1,0-0.1,0-0.2,0.1
		C5,3.5,4.9,3.6,5,3.7C4.9,3.7,5,3.7,5,3.7z M5.1,9.9L5.1,9.9L4.9,9.8C5,9.8,5,9.9,5.1,9.9z M5,2.6l0.2,0c0,0,0,0,0,0c0,0,0,0,0,0
		L5,2.6z M5,5.2L5,5.2L5,5.2L5,5.2L5,5.2z M5,7.3L5,7.3L5,7.3L5,7.3L5,7.3z M5.1,5.6H5v0.1L5.1,5.6z M5,6.8L5,6.8L5,6.8L5,6.8L5,6.8
		z M5.1,8.9L5.1,8.9L5.1,8.9L5.1,8.9z M5,9.5c0,0.1,0,0.1,0,0.1C5,9.6,5.1,9.6,5,9.5c0.1,0,0.1,0,0.1-0.1L5,9.5C5.1,9.4,5,9.5,5,9.5
		z M5.1,3L5.1,3L5.1,3L5.1,3L5.1,3z M5.1,3.3L5.1,3.3L5.1,3.3L5.1,3.3L5.1,3.3z M5.1,4.2L5.1,4.2L5.1,4.2L5.1,4.2L5.1,4.2z M5.2,4.7
		c0,0,0.1,0,0.1,0s0.1-0.1,0.1-0.1L5.2,4.7L5.2,4.7z M5.1,5.8C5.1,5.8,5.1,5.8,5.1,5.8C5.1,5.8,5.1,5.8,5.1,5.8L5.1,5.8L5.1,5.8
		L5.1,5.8z M5.1,6.3c0,0,0.1,0,0.1,0L5.1,6.2L5.1,6.3C5.1,6.2,5.1,6.3,5.1,6.3z M5.1,7.6L5.1,7.6L5.1,7.6L5.1,7.6L5.1,7.6z M5.1,8.6
		L5.1,8.6L5.1,8.6L5.1,8.6L5.1,8.6z M5.1,9.7L5.1,9.7L5.1,9.7L5.1,9.7L5.1,9.7z M5.1,5l0.2-0.1l0,0L5.1,5z M5.3,4.2
		c0-0.1,0-0.1,0.1-0.1C5.3,4.1,5.3,4.1,5.3,4.2c-0.1,0-0.1,0-0.1,0.1l0.1,0.1C5.3,4.3,5.3,4.3,5.3,4.2z M5.1,8.4L5.1,8.4L5.1,8.4
		L5.1,8.4L5.1,8.4z M5.2,9.2L5.2,9.2L5.2,9.2L5.2,9.2z M5.2,5.2L5.2,5.2L5.2,5.2L5.2,5.2z M5.4,7.1l0.1-0.2L5.4,7L5.2,6.9
		C5.2,7,5.3,7.1,5.4,7.1z M5.6,9.7L5.6,9.7h0.1c0,0,0,0,0-0.1s-0.1,0-0.1-0.1c0,0-0.1,0-0.1-0.1s0-0.1,0-0.1h0L5.3,9.5l0.1,0.1
		L5.2,9.9L5.6,9.7z M5.3,3.3L5.3,3.3L5.3,3.3L5.3,3.3z M5.3,5.1L5.3,5.1L5.3,5.1L5.3,5.1z M5.3,7.5l0.2,0L5.3,7.5L5.3,7.5L5.3,7.5z
		 M5.3,8.6L5.3,8.6L5.3,8.6L5.3,8.6z M5.4,2.8L5.4,2.8L5.4,2.8L5.4,2.8z M5.3,3.5l0.2,0l0,0L5.3,3.5z M5.4,6.1L5.4,6.1L5.4,6.1
		L5.4,6.1z M5.4,6.2L5.4,6.2L5.4,6.2L5.4,6.2z M5.4,9.2L5.4,9.2L5.4,9.2L5.4,9.2z M5.4,5.8L5.4,5.8L5.4,5.8L5.4,5.8z M5.4,6.5
		L5.4,6.5L5.4,6.5L5.4,6.5L5.4,6.5z M5.5,8.5L5.4,8.6C5.5,8.6,5.5,8.5,5.5,8.5z M5.4,2.3L5.4,2.3L5.4,2.3L5.4,2.3z M5.4,2.5L5.4,2.5
		L5.4,2.5L5.4,2.5z M5.4,4.8L5.4,4.8L5.4,4.8L5.4,4.8z M5.4,5.1L5.4,5.1L5.4,5.1L5.4,5.1z M5.4,7.3L5.4,7.3L5.4,7.3L5.4,7.3z
		 M5.4,7.4L5.4,7.4L5.4,7.4L5.4,7.4z M5.4,9.1L5.4,9.1L5.4,9.1L5.4,9.1z M5.5,7.5L5.5,7.5L5.5,7.5L5.5,7.5z M5.5,4.1L5.5,4.1
		L5.5,4.1L5.5,4.1z M5.5,4.2L5.5,4.2L5.5,4.2L5.5,4.2z M5.5,9.3L5.5,9.3L5.5,9.3L5.5,9.3z M5.5,8.7L5.5,8.7L5.5,8.7L5.5,8.7L5.5,8.7
		z M5.7,9.5L5.7,9.5L5.7,9.5L5.7,9.5z"/>
	<path d="M11.5,5.8c-0.1,0.2-0.1,0.3-0.2,0.5c0,0.2-0.1,0.3-0.1,0.5s0,0.4,0,0.6c0,0.1,0,0.2,0,0.3c0,0.2,0,0.4,0,0.6
		c0,0.2,0,0.4,0.1,0.7c0,0.2,0.1,0.4,0.2,0.6c0.1,0.2,0.2,0.4,0.3,0.5c-0.2,0-0.4,0-0.6-0.1c-0.2-0.1-0.4-0.2-0.6-0.3
		c-0.2-0.1-0.4-0.3-0.5-0.4C9.9,9.1,9.8,9,9.7,8.9C9.3,8.4,9.1,7.9,8.9,7.4C8.7,6.8,8.6,6.3,8.6,5.7V5.5c0-0.1,0-0.2,0-0.3
		c0-0.1,0-0.2,0-0.3c0-0.1,0-0.2,0.1-0.2c0-0.2,0-0.4,0.1-0.5C9,3.9,9,3.8,9.1,3.6c0.2-0.1,0.3-0.3,0.4-0.4s0.2-0.3,0.3-0.5
		c0.2-0.2,0.4-0.4,0.6-0.6c0.2-0.2,0.5-0.3,0.8-0.5c0.3-0.1,0.5-0.2,0.8-0.3c0.3-0.1,0.6-0.1,0.8-0.1c0,0,0,0,0.1,0
		c0.1,0,0.1,0,0.1,0c0.3,0.1,0.5,0.2,0.7,0.2c0.2,0.1,0.4,0.1,0.5,0.2c0.2,0.1,0.3,0.2,0.5,0.3s0.3,0.4,0.5,0.6V3c0,0.1,0,0.2,0,0.3
		c0,0.1-0.1,0.2-0.1,0.3c0,0.1-0.1,0.2-0.2,0.2c0,0-0.1,0-0.1,0s-0.1,0-0.1,0c0,0-0.1,0-0.1,0c0,0-0.1,0-0.1,0.1c-0.1,0-0.2,0-0.3,0
		c-0.1,0-0.2,0-0.3,0c-0.1-0.1-0.3-0.1-0.4-0.2S13.1,3.7,13,3.6c-0.1-0.1-0.1-0.2-0.2-0.3s-0.1-0.3-0.1-0.4c0-0.1,0-0.2,0.1-0.3
		c0-0.1,0.1-0.2,0.2-0.3c0.1-0.1,0.1-0.2,0.2-0.2c0.1-0.1,0.1-0.1,0.2-0.2l0-0.1c0-0.1-0.1-0.2-0.1-0.3s-0.1-0.1-0.2-0.1
		s-0.1,0-0.2,0h-0.3l-0.1,0c-0.2,0-0.4,0-0.5,0.1c-0.1,0.1-0.2,0.2-0.3,0.3c-0.1,0.1-0.1,0.3-0.2,0.5s-0.1,0.3-0.2,0.5
		c0,0.4,0,0.9-0.1,1.3c0,0.4-0.1,0.8-0.1,1.3c0,0,0.1-0.1,0.1-0.1c0.1,0,0.1-0.1,0.2-0.1l0.1,0.1C11.6,5.4,11.6,5.6,11.5,5.8z
		 M8.9,6L8.9,6h0.1H8.9L8.9,6z M9,5.6L9,5.6L9,5.6L9,5.6z M9.1,6.4C9.1,6.4,9.1,6.3,9.1,6.4C9.1,6.4,9.1,6.4,9.1,6.4z M9.1,4.8
		L9.1,4.8L9.1,4.8L9.1,4.8z M9.2,6.7L9.2,6.7L9.2,6.7L9.2,6.7z M9.2,5.2L9.2,5.2L9.2,5.2C9.3,5.1,9.2,5.1,9.2,5.2z M9.3,5.7L9.3,5.7
		L9.3,5.7L9.3,5.7z M9.3,6.4L9.3,6.4C9.3,6.4,9.3,6.4,9.3,6.4z M9.3,6.2L9.3,6.2L9.3,6.2L9.3,6.2L9.3,6.2z M9.4,4.7L9.4,4.7L9.4,4.7
		L9.4,4.7L9.4,4.7z M9.4,6L9.4,6L9.4,6L9.4,6L9.4,6z M9.5,4.5L9.5,4.5c-0.1,0-0.1,0-0.1,0L9.5,4.5L9.5,4.5z M9.4,5.4L9.4,5.4
		L9.4,5.4L9.4,5.4z M9.4,5.6L9.4,5.6L9.4,5.6L9.4,5.6L9.4,5.6z M9.5,3.8L9.5,3.8L9.5,3.8L9.5,3.8z M9.5,4.3L9.5,4.3L9.5,4.3L9.5,4.3
		L9.5,4.3z M9.6,4L9.6,4L9.6,4L9.6,4z M9.6,4.8L9.6,4.8L9.6,4.8L9.6,4.8z M9.7,5.4L9.7,5.4l-0.1,0l0,0h0v0H9.7z M9.7,5.2L9.7,5.2
		L9.7,5.2L9.7,5.2L9.7,5.2z M9.7,4.5L9.7,4.5L9.7,4.5L9.7,4.5z M9.7,5.6L9.7,5.6L9.7,5.6L9.7,5.6z M9.7,3.7V3.6l0,0L9.7,3.7z
		 M9.7,4.2L9.7,4.2L9.7,4.2L9.7,4.2z M9.8,4.9L9.8,4.9L9.8,4.9L9.8,4.9z M9.7,7L9.7,7L9.7,7L9.7,7z M9.9,6.3L9.9,6.3L9.7,6.4
		L9.9,6.3z M9.8,7.2L9.8,7.2L9.8,7.2L9.8,7.2C9.8,7.1,9.8,7.1,9.8,7.2z M9.8,5.9L9.8,5.9L9.8,5.9C9.9,5.9,9.9,5.9,9.8,5.9z M9.9,5.1
		V5h0L9.9,5.1L9.9,5.1z M9.9,3.9L9.9,3.9L9.9,3.9L9.9,3.9z M9.9,7.7L9.9,7.7L9.9,7.7L9.9,7.7z M10,3.5L10,3.5L10,3.5L10,3.5z
		 M10,5.2L10,5.2L10,5.2L10,5.2L10,5.2z M10,4.4c0,0.1,0,0.1,0,0.2v0c0.1,0,0.1,0,0.2,0c0.1,0,0.1-0.1,0.1-0.2c0-0.1,0-0.1-0.1-0.1
		C10.1,4.3,10,4.4,10,4.4z M10.1,5.6L10.1,5.6L10.1,5.6L10.1,5.6z M10,3.6l0.2,0.1h0L10,3.6L10,3.6z M10.1,6.8L10.1,6.8L10.1,6.8
		L10.1,6.8z M10.1,8.3L10.1,8.3L10.1,8.3L10.1,8.3z M10.1,4L10.1,4L10.1,4L10.1,4L10.1,4z M10.1,5.9L10.1,5.9L10.1,5.9L10.1,5.9z
		 M10.1,3.2C10.1,3.2,10.1,3.2,10.1,3.2C10.1,3.3,10.2,3.3,10.1,3.2C10.2,3.2,10.2,3.2,10.1,3.2C10.2,3.2,10.2,3.2,10.1,3.2z
		 M10.2,2.9L10.2,2.9l0,0.1L10.2,2.9z M10.2,7.4L10.2,7.4L10.2,7.4L10.2,7.4L10.2,7.4z M10.2,6.3L10.2,6.3L10.2,6.3L10.2,6.3z
		 M10.2,6.8L10.2,6.8L10.2,6.8L10.2,6.8z M10.2,7.7L10.2,7.7L10.2,7.7L10.2,7.7z M10.3,3.9L10.3,3.9L10.3,3.9
		C10.3,3.9,10.3,3.9,10.3,3.9z M10.3,6L10.3,6l0.1-0.2h0L10.3,6z M10.3,3.1l0-0.1L10.3,3.1L10.3,3.1z M10.4,3.4L10.4,3.4L10.4,3.4
		C10.4,3.5,10.4,3.4,10.4,3.4z M10.5,3.6c0,0-0.1,0-0.2,0l0,0L10.5,3.6z M10.4,5.4L10.4,5.4L10.4,5.4L10.4,5.4z M10.4,6.4L10.4,6.4
		L10.4,6.4C10.3,6.4,10.4,6.4,10.4,6.4z M10.4,3.8C10.4,3.8,10.4,3.8,10.4,3.8L10.4,3.8L10.4,3.8z M10.5,6.6L10.5,6.6l-0.1,0
		L10.5,6.6z M10.5,3L10.5,3l0.1-0.1C10.5,2.9,10.5,3,10.5,3z M10.5,5.1L10.5,5.1L10.5,5.1L10.5,5.1z M10.5,8.5
		C10.5,8.5,10.6,8.5,10.5,8.5L10.5,8.5L10.5,8.5C10.5,8.5,10.5,8.5,10.5,8.5z M10.6,2.8L10.6,2.8L10.6,2.8L10.6,2.8z M10.8,3.2
		c-0.1,0-0.2,0-0.2,0l0.1,0L10.8,3.2z M10.6,6.4L10.6,6.4L10.6,6.4L10.6,6.4L10.6,6.4z M10.6,4L10.6,4L10.6,4L10.6,4z M10.7,2.5
		L10.7,2.5L10.7,2.5L10.7,2.5L10.7,2.5z M10.7,3.5L10.7,3.5L10.7,3.5L10.7,3.5L10.7,3.5z M10.7,6.2L10.7,6.2L10.7,6.2L10.7,6.2z
		 M10.7,7.3L10.7,7.3L10.7,7.3L10.7,7.3z M10.6,7.7L10.6,7.7C10.7,7.7,10.7,7.7,10.6,7.7L10.6,7.7L10.6,7.7z M10.7,5.3L10.7,5.3
		L10.7,5.3L10.7,5.3L10.7,5.3z M10.7,6L10.7,6L10.7,6L10.7,6L10.7,6z M10.7,2.9L10.7,2.9L10.7,2.9L10.7,2.9L10.7,2.9z M10.7,3.6
		L10.7,3.6L10.7,3.6L10.7,3.6z M10.7,5.8L10.7,5.8L10.7,5.8L10.7,5.8L10.7,5.8z M10.8,2.6C10.8,2.6,10.8,2.6,10.8,2.6L10.8,2.6
		L10.8,2.6L10.8,2.6C10.9,2.6,10.8,2.6,10.8,2.6z M10.8,3.5L10.8,3.5L10.8,3.5L10.8,3.5z M10.8,3.7L10.8,3.7L10.8,3.7L10.8,3.7
		L10.8,3.7z M10.8,6.3L10.8,6.3L10.8,6.3L10.8,6.3z M10.8,4.9L10.8,4.9L10.8,4.9L10.8,4.9z M10.8,5.6L10.8,5.6L10.8,5.6L10.8,5.6z
		 M10.8,2.9L10.8,2.9L10.8,2.9L10.8,2.9L10.8,2.9z M10.9,2.5L10.9,2.5L10.9,2.5L10.9,2.5z M10.9,3.3L10.9,3.3L10.9,3.3L10.9,3.3z
		 M11,3.1L11,3.1L11,3.1L11,3.1z M11,2.3C11,2.3,11.1,2.3,11,2.3L11,2.3L11,2.3C11,2.2,11,2.2,11,2.3z M11,2.6L11,2.6l0.1,0L11,2.6
		L11,2.6z M11,3L11,3L11,3L11,3L11,3z M12.5,9.9c0.1,0,0.2-0.1,0.2-0.1c0.1,0,0.1,0,0.1-0.1c0,0,0-0.1,0-0.1c0-0.1,0-0.1,0.1-0.2
		c0-0.1,0.1-0.2,0.2-0.4c0-0.2,0-0.4,0-0.5s0-0.4,0-0.5c0-0.1,0-0.2,0-0.3s0-0.2,0-0.3c0-0.2,0-0.3,0-0.5c0-0.2,0-0.4,0-0.6
		c0-0.2-0.1-0.4-0.1-0.5s-0.2-0.3-0.3-0.4c-0.1,0-0.1,0-0.2-0.1c-0.1,0-0.1-0.1-0.1-0.1c0.1-0.1,0.1-0.1,0.2-0.1c0.1,0,0.2,0,0.3,0
		c0.3,0,0.7,0.1,1,0.2s0.7,0.3,0.9,0.5c0.3,0.2,0.5,0.4,0.7,0.7c0.2,0.3,0.3,0.6,0.3,1c0,0.3-0.1,0.6-0.2,0.9
		C15.5,8.4,15.3,8.7,15,9c-0.2,0.3-0.5,0.5-0.8,0.7c-0.3,0.2-0.6,0.3-0.9,0.4c-0.1,0-0.2,0-0.3,0.1c-0.1,0-0.2,0.1-0.3,0.1h-0.5
		c-0.1,0-0.1,0-0.2,0c-0.1,0-0.1-0.1-0.1-0.1C12.2,10,12.4,10,12.5,9.9z M13.3,2.8L13.3,2.8L13.3,2.8L13.3,2.8z M13.5,2.8L13.5,2.8
		L13.5,2.8L13.5,2.8L13.5,2.8z M13.5,5.7L13.5,5.7L13.5,5.7L13.5,5.7z M13.5,2.6L13.5,2.6L13.5,2.6L13.5,2.6z M13.5,3L13.5,3L13.5,3
		L13.5,3z M13.5,6.1L13.5,6.1L13.5,6.1L13.5,6.1z M13.7,2.8L13.7,2.8L13.7,2.8L13.7,2.8z M13.7,2.1L13.7,2.1L13.7,2.1L13.7,2.1
		L13.7,2.1z M13.8,8.7L13.8,8.7l-0.1-0.1v0.1H13.8z M13.8,2.5L13.8,2.5L13.8,2.5L13.8,2.5z M13.8,3.3L13.8,3.3L13.8,3.3L13.8,3.3z
		 M13.9,3.5L13.9,3.5L13.9,3.5L13.9,3.5z M13.9,3.1L13.9,3.1L13.9,3.1L13.9,3.1L13.9,3.1z M13.9,2.1C13.9,2.1,13.9,2.1,13.9,2.1
		C14,2.1,14,2.1,13.9,2.1C14,2,13.9,2.1,13.9,2.1z M13.9,5.5L13.9,5.5L13.9,5.5L13.9,5.5z M14,2.4c0.1,0,0.1-0.1,0.2-0.1
		s0.1-0.1,0.1-0.1h0L14,2.4L14,2.4z M14.1,8.3L14.1,8.3H14H14.1z M14.1,2.9C14.1,2.9,14.1,2.9,14.1,2.9C14.1,2.9,14.1,2.9,14.1,2.9
		L14.1,2.9L14.1,2.9z M14.1,9.1L14.1,9.1L14.1,9.1L14.1,9.1L14.1,9.1z M14.3,2.4L14.3,2.4l-0.2,0.1l0,0L14.3,2.4l0,0.2L14.3,2.4z
		 M14.1,2.7C14.1,2.7,14.1,2.7,14.1,2.7L14.1,2.7C14.2,2.7,14.1,2.7,14.1,2.7C14.1,2.7,14.1,2.7,14.1,2.7z M14.4,3.3
		C14.4,3.2,14.4,3.2,14.4,3.3L14.4,3.3L14.4,3.3L14.4,3.3z M14.5,3.9V3.7l0,0L14.5,3.9z M14.6,3.2L14.6,3.2L14.6,3.2L14.6,3.2z
		 M14.6,3.3L14.6,3.3L14.6,3.3L14.6,3.3C14.6,3.2,14.6,3.2,14.6,3.3z"/>
</g>
</svg>
