<?xml version="1.0" encoding="utf-8"?>
<!-- Generator: Adobe Illustrator 17.1.0, SVG Export Plug-In . SVG Version: 6.00 Build 0)  -->
<!DOCTYPE svg PUBLIC "-//W3C//DTD SVG 1.1//EN" "http://www.w3.org/Graphics/SVG/1.1/DTD/svg11.dtd">
<svg version="1.1" id="Layer_1" xmlns="http://www.w3.org/2000/svg" xmlns:xlink="http://www.w3.org/1999/xlink" x="0px" y="0px"
	 width="17.8px" height="12.2px" viewBox="0 0 17.8 12.2" enable-background="new 0 0 17.8 12.2" xml:space="preserve">
<g>
	<path d="M2.5,9.8c0.3,0,0.6,0,0.8,0c0.2,0,0.3-0.1,0.4-0.1s0.2-0.2,0.2-0.4c0-0.2,0-0.4,0-0.8v-5c0-0.1-0.1-0.1-0.3-0.2
		c-0.1,0-0.3-0.1-0.4-0.1c-0.2,0-0.3,0-0.5,0s-0.3,0-0.3,0L2.3,3.1L2.4,3c0.5,0,1-0.1,1.4-0.2s0.7-0.3,1-0.5C5.1,2.2,5.3,2,5.5,1.9
		C5.7,1.7,5.8,1.7,6,1.7l0.3,0l0.1,0.1c0,1.1,0,2.2,0,3.2s0,2.2,0,3.2c0,0.5,0,0.9,0.1,1.3c0.1,0.1,0.2,0.2,0.3,0.2s0.3,0,0.4,0h0.3
		l0.2-0.1l0.2,0.1l-0.1,0.3c-0.4-0.1-0.7-0.1-1.1-0.1c-0.4,0-0.7,0-1.1,0c-0.5,0-1,0-1.5,0s-1,0-1.5,0l-0.1-0.1L2.5,9.8z M4,9.7
		L4,9.7L4,9.7L4,9.7z M4.1,9.5L4.1,9.5v0.1V9.5z M4.2,9.7L4.2,9.7L4.2,9.7L4.2,9.7C4.2,9.7,4.2,9.7,4.2,9.7z M4.3,7.6L4.3,7.6
		L4.3,7.6L4.3,7.6z M4.3,9.3L4.3,9.3C4.3,9.3,4.3,9.3,4.3,9.3C4.3,9.3,4.3,9.3,4.3,9.3L4.3,9.3L4.3,9.3z M4.3,4.2l0.2,0l0,0L4.3,4.2
		z M4.3,5.9L4.3,5.9L4.3,5.9L4.3,5.9z M4.3,9.8L4.3,9.8L4.3,9.8L4.3,9.8z M4.3,4.7L4.3,4.7L4.3,4.7L4.3,4.7L4.3,4.7z M4.4,6.3
		L4.4,6.3L4.4,6.3L4.4,6.3z M4.4,8L4.4,8L4.4,8L4.4,8z M4.4,8.9L4.4,8.9L4.4,8.9L4.4,8.9z M4.4,6.8L4.4,6.8L4.4,6.8L4.4,6.8L4.4,6.8
		z M4.4,3.6c0,0,0,0.1,0.1,0.1c0-0.1,0-0.1,0-0.1s0.1-0.1,0.1-0.1L4.5,3.3L4.4,3.5C4.4,3.5,4.4,3.6,4.4,3.6z M4.5,5.1
		c0,0-0.1,0-0.1,0.1L4.8,5L4.7,4.9l0,0L4.5,4.9L4.5,5.1C4.5,5,4.5,5.1,4.5,5.1z M4.5,6.6c0,0,0.1,0,0.1,0l0.1-0.2l-0.1,0L4.5,6.6
		C4.4,6.5,4.5,6.6,4.5,6.6z M4.6,9.7c0.1,0.1,0.1,0.1,0.1,0.2c0,0,0.1-0.1,0.1-0.2c0,0,0-0.1,0-0.1s0-0.1-0.1-0.1L4.4,9.6v0
		C4.5,9.6,4.5,9.7,4.6,9.7z M4.5,4.6L4.5,4.6L4.5,4.6L4.5,4.6z M4.5,5.7L4.5,5.7L4.5,5.7L4.5,5.7z M4.4,8.3L4.4,8.3L4.4,8.3L4.4,8.3
		z M4.5,9.9L4.5,9.9L4.5,9.9L4.5,9.9z M4.5,6.1L4.5,6.1L4.5,6.1L4.5,6.1z M4.5,9.1C4.5,9.1,4.5,9.2,4.5,9.1h0.3C4.7,9,4.7,9,4.6,9
		S4.6,8.9,4.5,8.8L4.5,8.9v0C4.5,9,4.5,9,4.5,9.1z M4.5,5.4L4.5,5.4L4.5,5.4L4.5,5.4z M4.5,6.3c0,0,0.1,0,0.1-0.1L4.5,6.3z M4.5,6.8
		L4.5,6.8L4.5,6.8L4.5,6.8z M4.7,4c0,0,0.1-0.1,0.1-0.1s0-0.1,0.1-0.1c0-0.1,0-0.1,0-0.1L4.8,3.6L4.5,3.9L4.7,4C4.7,4.1,4.7,4,4.7,4
		z M4.5,4.7L4.5,4.7L4.5,4.7L4.5,4.7L4.5,4.7z M4.7,4.5c0.1,0.1,0.1,0.1,0.2,0.1c0-0.1,0-0.2,0.1-0.3S5,4.1,5.1,4L5,4
		C5,4.2,4.8,4.3,4.6,4.3C4.6,4.3,4.6,4.4,4.7,4.5z M4.6,5.8L4.6,5.8L4.6,5.8L4.6,5.8z M4.6,7.5L4.6,7.5L4.6,7.5L4.6,7.5z M4.6,8
		L4.6,8L4.6,8L4.6,8L4.6,8z M4.6,8.2L4.6,8.2L4.6,8.2L4.6,8.2z M4.6,6.2l0.2,0L4.6,6.2L4.6,6.2L4.6,6.2z M4.6,9.3L4.6,9.3L4.6,9.3
		L4.6,9.3L4.6,9.3z M4.7,8.6L4.7,8.6L4.7,8.6L4.7,8.6L4.7,8.6z M4.7,8.4L4.7,8.4L4.7,8.4L4.7,8.4L4.7,8.4z M4.8,6.3L4.8,6.3L4.8,6.3
		L4.8,6.3L4.8,6.3z M4.8,6.7L4.8,6.7L4.8,6.7L4.8,6.7L4.8,6.7z M4.8,8.2L4.8,8.2L4.8,8.2L4.8,8.2L4.8,8.2z M4.7,7.6L4.7,7.6L4.7,7.6
		L4.7,7.6L4.7,7.6z M5,5.2l0.1,0.1l0.1-0.1L5.1,5.1l0.1-0.2c0,0,0-0.1,0-0.1c0,0,0-0.1-0.1-0.1C5,4.8,5,4.9,5,5C5,5.1,5,5.1,5,5.2
		L4.8,5.1L4.8,5.3L5,5.2z M4.8,5.6L4.8,5.6L4.8,5.6L4.8,5.6L4.8,5.6z M4.8,8.9l0.1-0.1C4.8,8.8,4.8,8.8,4.8,8.9z M4.8,3.2
		c0,0,0,0.1,0,0.1L4.8,3.2l0-0.1h0C4.8,3.1,4.8,3.2,4.8,3.2z M4.8,5.4L4.8,5.4L4.8,5.4L4.8,5.4L4.8,5.4z M4.8,5.9L4.8,5.9L4.8,5.9
		L4.8,5.9L4.8,5.9z M4.8,6.6L4.8,6.6L4.8,6.6L4.8,6.6L4.8,6.6z M4.8,8.1L4.8,8.1L4.8,8.1L4.8,8.1L4.8,8.1z M4.8,8.9L4.8,8.9L4.8,8.9
		L4.8,8.9L4.8,8.9z M4.8,9.3L4.8,9.3L4.8,9.3L4.8,9.3L4.8,9.3z M5,7.4L5,7.4H4.8H5z M4.8,7.9L4.8,7.9L4.8,7.9L4.8,7.9L4.8,7.9z
		 M4.9,3.8L4.9,3.8L4.9,3.8L4.9,3.8L4.9,3.8z M4.9,4L4.9,4L4.9,4L4.9,4L4.9,4z M4.9,4.9L4.9,4.9L4.9,4.9L4.9,4.9L4.9,4.9z M4.9,6
		L4.9,6L4.9,6L4.9,6L4.9,6z M4.9,8.7l0.2,0c0,0,0,0,0,0s0,0,0,0L4.9,8.7z M5.1,6.8c0-0.1,0-0.1,0.1-0.1c0,0,0.1,0,0.1,0
		c0,0,0.1,0,0.1-0.1c-0.1,0-0.2,0.1-0.3,0.1S5,6.7,4.9,6.7L5,6.8L4.9,6.8L5.1,6.8L5,6.9C5.1,6.9,5.1,6.8,5.1,6.8z M5,5.7L5,5.7
		L5,5.7L5,5.7L5,5.7z M5,3.2C5,3.2,5,3.3,5,3.3L5,3.2c0.1,0,0.1-0.1,0.1-0.1C5.1,3.1,5.1,3.2,5,3.2z M5,6.5C5,6.5,5.1,6.6,5,6.5
		l0.2-0.1c0,0-0.1,0-0.1-0.1c0,0-0.1-0.1-0.1-0.1l0,0.1C5,6.4,5,6.5,5,6.5z M5,8.2L5,8.2L5,8.2L5,8.2L5,8.2z M5,9.9l0.1-0.1l0,0
		C5,9.8,5,9.8,5,9.9z M5,3.1L5,3.1L5,3.1L5,3.1L5,3.1z M5,3.6L5,3.6L5,3.6L5,3.6L5,3.6z M5,7.1L5,7.1L5,7.1L5,7.1L5,7.1z M5,9.1
		L5,9.1L5,9.1L5,9.1L5,9.1z M5,8.3L5,8.3L5,8.3L5,8.3L5,8.3z M5,2.9L5,2.9L5,2.9L5,2.9L5,2.9z M5.2,6L5,6C5.1,6,5.1,6,5.2,6z
		 M5.1,3.5L5.1,3.5L5.1,3.5L5.1,3.5L5.1,3.5z M5.1,3.9l0.1,0L5.1,3.9L5.1,3.9L5.1,3.9z M5.1,4.3L5.1,4.3L5.1,4.3L5.1,4.3L5.1,4.3z
		 M5.1,4.6L5.1,4.6L5.1,4.6L5.1,4.6L5.1,4.6z M5.1,6.7l0.2,0c0,0,0,0,0,0c0,0,0,0,0,0L5.1,6.7z M5.1,7.1L5.1,7.1L5.1,7.1L5.1,7.1
		L5.1,7.1z M5.1,7.8L5.1,7.8L5.1,7.8L5.1,7.8L5.1,7.8z M5.1,8.4L5.1,8.4L5.1,8.4L5.1,8.4L5.1,8.4z M5.1,3.6L5.1,3.6L5.1,3.6L5.1,3.6
		L5.1,3.6z M5.2,9.2C5.2,9.1,5.2,9.1,5.2,9.2L5.2,9.2C5.1,9.2,5.2,9.2,5.2,9.2z M5.4,9.2c0,0-0.1,0-0.2,0c-0.1,0-0.1,0-0.1,0.1
		l0.1,0.1L5.4,9.2z M5.2,3.5L5.2,3.5L5.2,3.5L5.2,3.5L5.2,3.5z M5.2,4.7L5.2,4.7L5.2,4.7L5.2,4.7L5.2,4.7z M5.2,6.1L5.2,6.1L5.2,6.1
		L5.2,6.1L5.2,6.1z M5.2,7L5.2,7L5.2,7L5.2,7L5.2,7z M5.2,7.6L5.2,7.6L5.2,7.6L5.2,7.6L5.2,7.6z M5.2,8.1L5.2,8.1L5.2,8.1L5.2,8.1
		L5.2,8.1z M5.2,8.4L5.2,8.4L5.2,8.4L5.2,8.4L5.2,8.4z M5.2,2.9L5.2,2.9L5.2,2.9z M5.3,3.3L5.3,3.3L5.3,3.3L5.3,3.3z M5.2,4.2
		C5.3,4.2,5.3,4.2,5.2,4.2L5.2,4.2L5.2,4.2z M5.4,7.9l0.1-0.1c0,0,0-0.1,0-0.1s0-0.1-0.1-0.1L5.2,7.7L5.4,7.9L5.4,7.9z M5.3,9.6
		L5.3,9.6L5.3,9.6L5.3,9.6z M5.3,5.9L5.3,5.9L5.3,5.9L5.3,5.9L5.3,5.9z M5.3,6.3L5.3,6.3L5.3,6.3L5.3,6.3L5.3,6.3z M5.4,3.7
		c0,0,0.1,0,0.2,0c0.1,0,0.1,0,0.2,0c0,0,0.1,0.1,0.1,0.1c0,0,0,0,0,0.1c0-0.1,0.1-0.1,0.1-0.2c0,0,0-0.1,0-0.1c0,0-0.1,0-0.1,0
		c0,0-0.1,0-0.1,0c0,0,0,0,0-0.1l0.1-0.1c-0.1,0-0.1,0-0.2,0.1C5.3,3.5,5.3,3.6,5.4,3.7C5.3,3.7,5.3,3.7,5.4,3.7z M5.4,9.9L5.4,9.9
		L5.3,9.8C5.3,9.8,5.4,9.9,5.4,9.9z M5.3,2.6l0.2,0c0,0,0,0,0,0c0,0,0,0,0,0L5.3,2.6z M5.4,5.2L5.4,5.2L5.4,5.2L5.4,5.2L5.4,5.2z
		 M5.4,7.3L5.4,7.3L5.4,7.3L5.4,7.3L5.4,7.3z M5.5,5.6H5.4v0.1L5.5,5.6z M5.4,6.8L5.4,6.8L5.4,6.8L5.4,6.8L5.4,6.8z M5.4,8.9
		L5.4,8.9L5.4,8.9L5.4,8.9z M5.4,9.5c0,0.1,0,0.1,0,0.1C5.4,9.6,5.4,9.6,5.4,9.5c0.1,0,0.1,0,0.1-0.1L5.4,9.5
		C5.5,9.4,5.4,9.5,5.4,9.5z M5.4,3L5.4,3L5.4,3L5.4,3L5.4,3z M5.4,3.3L5.4,3.3L5.4,3.3L5.4,3.3L5.4,3.3z M5.4,4.2L5.4,4.2L5.4,4.2
		L5.4,4.2L5.4,4.2z M5.5,4.7c0,0,0.1,0,0.1,0c0,0,0.1-0.1,0.1-0.1L5.5,4.7L5.5,4.7z M5.4,5.8C5.5,5.8,5.5,5.8,5.4,5.8
		C5.5,5.8,5.5,5.8,5.4,5.8L5.4,5.8L5.4,5.8L5.4,5.8z M5.5,6.3c0,0,0.1,0,0.1,0L5.4,6.2L5.5,6.3C5.4,6.2,5.5,6.3,5.5,6.3z M5.5,7.6
		L5.5,7.6L5.5,7.6L5.5,7.6L5.5,7.6z M5.5,8.6L5.5,8.6L5.5,8.6L5.5,8.6L5.5,8.6z M5.5,9.7L5.5,9.7L5.5,9.7L5.5,9.7L5.5,9.7z M5.5,5
		l0.2-0.1l0,0L5.5,5z M5.7,4.2c0-0.1,0-0.1,0.1-0.1C5.7,4.1,5.6,4.1,5.7,4.2c-0.1,0-0.1,0-0.1,0.1l0.1,0.1C5.6,4.3,5.7,4.3,5.7,4.2z
		 M5.5,8.4L5.5,8.4L5.5,8.4L5.5,8.4L5.5,8.4z M5.6,9.2L5.6,9.2L5.6,9.2L5.6,9.2z M5.6,5.2L5.6,5.2L5.6,5.2L5.6,5.2z M5.7,7.1
		l0.1-0.2L5.7,7L5.6,6.9C5.6,7,5.6,7.1,5.7,7.1z M5.9,9.7L5.9,9.7h0.1c0,0,0,0,0-0.1S6,9.6,6,9.6c0,0-0.1,0-0.1-0.1s0-0.1,0-0.1h0
		L5.7,9.5l0.1,0.1L5.6,9.9L5.9,9.7z M5.7,3.3L5.7,3.3L5.7,3.3L5.7,3.3z M5.6,5.1L5.6,5.1L5.6,5.1L5.6,5.1z M5.7,7.5l0.2,0L5.7,7.5
		L5.7,7.5L5.7,7.5z M5.7,8.6L5.7,8.6L5.7,8.6L5.7,8.6z M5.7,2.8L5.7,2.8L5.7,2.8L5.7,2.8z M5.7,3.5l0.2,0l0,0L5.7,3.5z M5.7,6.1
		L5.7,6.1L5.7,6.1L5.7,6.1z M5.7,6.2L5.7,6.2L5.7,6.2L5.7,6.2z M5.7,9.2L5.7,9.2L5.7,9.2L5.7,9.2z M5.8,5.8L5.8,5.8L5.8,5.8L5.8,5.8
		z M5.7,6.5L5.7,6.5L5.7,6.5L5.7,6.5L5.7,6.5z M5.9,8.5L5.7,8.6C5.8,8.6,5.9,8.5,5.9,8.5z M5.8,2.3L5.8,2.3L5.8,2.3L5.8,2.3z
		 M5.8,2.5L5.8,2.5L5.8,2.5L5.8,2.5z M5.8,4.8L5.8,4.8L5.8,4.8L5.8,4.8z M5.8,5.1L5.8,5.1L5.8,5.1L5.8,5.1z M5.8,7.3L5.8,7.3
		L5.8,7.3L5.8,7.3z M5.8,7.4L5.8,7.4L5.8,7.4L5.8,7.4z M5.8,9.1L5.8,9.1L5.8,9.1L5.8,9.1z M5.8,7.5L5.8,7.5L5.8,7.5L5.8,7.5z
		 M5.9,4.1L5.9,4.1L5.9,4.1L5.9,4.1z M5.9,4.2L5.9,4.2L5.9,4.2L5.9,4.2z M5.9,9.3L5.9,9.3L5.9,9.3L5.9,9.3z M5.9,8.7L5.9,8.7
		L5.9,8.7L5.9,8.7L5.9,8.7z M6.1,9.5L6.1,9.5L6.1,9.5L6.1,9.5z"/>
	<path d="M10.4,7.7c0.2-0.3,0.4-0.6,0.6-0.8s0.5-0.5,0.8-0.8c0.3-0.2,0.6-0.5,0.9-0.7c0.3-0.2,0.6-0.5,0.9-0.7
		c0.3-0.2,0.5-0.5,0.7-0.8l-0.1-0.1c-0.2,0-0.3,0-0.5,0s-0.3,0-0.5,0c0,0-0.1,0-0.2,0.1c-0.1,0-0.1,0-0.2,0c-0.1,0-0.1,0-0.2,0
		c-0.1,0-0.1,0-0.2,0c-0.1,0-0.2,0-0.3-0.1c-0.1,0-0.2-0.1-0.3-0.1c-0.3,0-0.5,0-0.8-0.1c-0.3-0.1-0.5-0.1-0.8-0.1
		c-0.1,0-0.2,0-0.3,0.1c-0.1,0-0.2,0.1-0.3,0.2S9.5,4,9.4,4.1C9.3,4.2,9.3,4.3,9.3,4.4c0,0,0,0.1,0,0.3c0,0.1,0,0.2,0,0.4
		c0,0.1,0,0.2-0.1,0.3c0,0.1-0.1,0.1-0.2,0.1c0,0-0.1,0-0.1-0.1c0-0.1,0-0.2,0-0.2C9,5.1,9,5,9,4.9V4.7C9,4.5,9,4.2,9,4
		c0-0.2,0-0.5,0-0.7V2.1C9,2,9,2,9,1.9s0-0.1,0-0.2c0-0.1,0-0.1,0-0.2s0.1-0.1,0.1-0.1l0.1,0.1c0,0.1,0,0.2,0,0.3c0,0.1,0,0.3,0,0.4
		c0,0.1,0,0.3,0,0.4s0.1,0.2,0.2,0.2s0.2-0.1,0.2-0.2c0.1-0.1,0.2-0.3,0.3-0.4c0.1-0.2,0.3-0.3,0.6-0.4c0.2-0.1,0.6-0.2,1-0.2
		c0.3,0,0.6,0,0.8,0.1C12.7,1.8,12.9,1.9,13,2c0.1,0.1,0.3,0.3,0.4,0.4c0.1,0.2,0.2,0.3,0.3,0.4C13.8,3,14,3.1,14.1,3.2
		c0.1,0.1,0.3,0.1,0.5,0.1c0.1,0,0.2,0,0.2-0.1s0.1-0.2,0.1-0.3c0-0.2,0-0.3-0.1-0.4c-0.1-0.1-0.1-0.2-0.3-0.4c0,0,0-0.1,0-0.1
		c0-0.1,0-0.1,0-0.2c0,0,0-0.1,0.1-0.1c0,0,0.1-0.1,0.1-0.1c0.1,0,0.2,0,0.3,0.1c0.1,0,0.1,0.1,0.1,0.1c0,0.1,0.1,0.1,0.1,0.2
		c0,0.1,0.1,0.1,0.1,0.2v0.5c-0.1,0.2-0.1,0.3-0.2,0.5c-0.1,0.2-0.1,0.3-0.2,0.4c-0.1,0.1-0.1,0.2-0.2,0.3c-0.1,0.1-0.2,0.2-0.3,0.2
		c-0.4,0.5-0.7,1.1-0.9,1.7c-0.2,0.6-0.3,1.3-0.3,1.9c0,0.3,0,0.6,0,0.9s-0.1,0.6-0.2,0.8s-0.3,0.4-0.5,0.6
		c-0.2,0.1-0.5,0.2-0.9,0.2c-0.2,0-0.4-0.1-0.6-0.2c-0.2-0.1-0.3-0.2-0.5-0.4c-0.1-0.2-0.2-0.3-0.3-0.6c-0.1-0.2-0.1-0.4-0.1-0.6
		C10.2,8.3,10.3,8,10.4,7.7z M10,3.2l0.1-0.1L10,3.2L10,3.2z M10.4,2.7L10.4,2.7C10.5,2.6,10.4,2.7,10.4,2.7z M10.5,3.2L10.5,3.2
		L10.5,3.2L10.5,3.2z M10.6,2.4L10.6,2.4L10.6,2.4L10.6,2.4z M10.7,9L10.7,9L10.7,9L10.7,9z M10.7,2.2L10.7,2.2L10.7,2.2L10.7,2.2z
		 M10.9,3.2L10.9,3.2l-0.2,0l0,0L10.9,3.2L10.9,3.2z M10.9,8.8L10.9,8.8l-0.2,0.1L10.9,8.8z M10.8,8.1L10.8,8.1L10.8,8.1L10.8,8.1
		L10.8,8.1z M10.8,9.2L10.8,9.2L10.8,9.2L10.8,9.2L10.8,9.2z M10.9,7.6L10.9,7.6L10.9,7.6L10.9,7.6L10.9,7.6z M11,8.6
		c0-0.1,0-0.1-0.1-0.1C10.9,8.5,10.9,8.6,11,8.6z M10.9,2.3L10.9,2.3L10.9,2.3L10.9,2.3z M11,2.5L11,2.5L11,2.5
		C11,2.6,11,2.6,11,2.5z M10.9,8L10.9,8L10.9,8L10.9,8L10.9,8z M10.9,8.3L10.9,8.3L10.9,8.3L10.9,8.3L10.9,8.3z M11.2,9.2L11.2,9.2
		C11.1,9,11,8.9,10.9,8.9c0,0,0,0.1,0.1,0.1S11,9,11,9.1l0,0.1l0.1,0.1L11,9.3l0,0L11.2,9.2z M11,9.6L11,9.6l0.1-0.1
		C11,9.5,11,9.5,11,9.6z M11,8.1L11,8.1L11,8.1L11,8.1z M11,7.9L11,7.9L11,7.9C11,7.8,11,7.9,11,7.9z M11.1,7.5L11.1,7.5L11.1,7.5
		C11.1,7.4,11.1,7.5,11.1,7.5z M11.1,2.4L11.1,2.4L11.1,2.4L11.1,2.4z M11.1,8.9L11.1,8.9L11.1,8.9L11.1,8.9L11.1,8.9z M11.2,8.3
		C11.2,8.2,11.2,8.2,11.2,8.3c0-0.1,0-0.1,0-0.1L11.2,8.3L11.2,8.3z M11.1,8.6L11.1,8.6L11.1,8.6L11.1,8.6L11.1,8.6z M11.3,7.7
		l-0.1-0.1l-0.1,0L11.3,7.7L11.3,7.7z M11.2,2.4l0.3,0L11.2,2.4L11.2,2.4L11.2,2.4z M11.3,3.1L11.3,3.1L11.3,3.1L11.3,3.1z
		 M11.2,7.4C11.3,7.4,11.3,7.3,11.2,7.4C11.2,7.3,11.2,7.3,11.2,7.4z M11.3,7.9L11.3,7.9L11.3,7.9C11.2,7.9,11.2,7.9,11.3,7.9z
		 M11.2,8.3C11.2,8.3,11.2,8.4,11.2,8.3C11.2,8.4,11.3,8.4,11.2,8.3C11.3,8.3,11.3,8.3,11.2,8.3L11.2,8.3z M11.3,8.7
		C11.3,8.7,11.3,8.7,11.3,8.7C11.3,8.6,11.3,8.6,11.3,8.7L11.3,8.7L11.3,8.7z M11.3,9.1C11.3,9.1,11.3,9.1,11.3,9.1
		C11.3,9.1,11.3,9.1,11.3,9.1C11.3,9.1,11.3,9.1,11.3,9.1z M11.3,9.7L11.3,9.7L11.3,9.7L11.3,9.7z M11.4,2.2
		C11.4,2.2,11.4,2.1,11.4,2.2L11.4,2.2L11.4,2.2z M11.3,7.3L11.3,7.3L11.3,7.3L11.3,7.3L11.3,7.3z M11.6,9.2l-0.1-0.2h-0.1
		c0,0,0,0.1,0,0.1s0,0,0.1,0c0,0,0,0,0.1,0.1c0,0,0,0.1,0,0.3l0,0L11.6,9.2z M11.4,9.4L11.4,9.4L11.4,9.4L11.4,9.4L11.4,9.4z
		 M11.4,3.3L11.4,3.3L11.4,3.3L11.4,3.3z M11.4,7.6C11.4,7.6,11.4,7.5,11.4,7.6c0.1-0.1,0.1-0.1,0.2-0.1l-0.1,0
		C11.4,7.4,11.4,7.5,11.4,7.6z M11.5,8.4C11.5,8.4,11.5,8.4,11.5,8.4C11.4,8.4,11.4,8.4,11.5,8.4l-0.1,0L11.5,8.4L11.5,8.4z
		 M11.5,7.9C11.5,7.8,11.4,7.8,11.5,7.9L11.5,7.9L11.5,7.9z M11.6,8.3c0,0,0.1,0.1,0.1,0.1L11.6,8.3l0.2-0.2v0c0,0-0.1,0-0.2,0
		s-0.1,0.1-0.1,0.1C11.5,8.2,11.5,8.2,11.6,8.3z M11.5,8.9L11.5,8.9L11.5,8.9L11.5,8.9L11.5,8.9z M11.5,7.9L11.5,7.9L11.5,7.9
		L11.5,7.9L11.5,7.9z M11.5,9.6L11.5,9.6L11.5,9.6L11.5,9.6L11.5,9.6z M11.6,7.3L11.6,7.3L11.6,7.3L11.6,7.3L11.6,7.3z M11.6,8.6
		L11.6,8.6L11.6,8.6L11.6,8.6z M11.6,2.9L11.6,2.9L11.6,2.9L11.6,2.9z M11.6,7.1C11.6,7.1,11.6,7,11.6,7.1L11.6,7.1L11.6,7.1
		C11.6,7.1,11.6,7.1,11.6,7.1z M11.7,8.6L11.7,8.6l0,0.2L11.7,8.6z M11.8,8.9l-0.1-0.1l-0.1,0L11.8,8.9L11.8,8.9z M11.7,9.3
		L11.7,9.3l-0.1,0.1C11.7,9.4,11.7,9.4,11.7,9.3z M11.7,7.3c0,0-0.1,0.1-0.1,0.1c0-0.1,0.1-0.2,0.2-0.2h0
		C11.8,7.2,11.7,7.3,11.7,7.3z M11.6,7.6C11.6,7.6,11.6,7.6,11.6,7.6L11.6,7.6L11.6,7.6z M11.7,9.7L11.7,9.7L11.7,9.7L11.7,9.7
		L11.7,9.7z M11.8,2.5L11.8,2.5h-0.1H11.8z M11.7,2.8L11.7,2.8C11.7,2.8,11.7,2.8,11.7,2.8z M11.7,6.8L11.7,6.8L11.7,6.8L11.7,6.8
		L11.7,6.8z M12,8.5C12,8.5,12,8.5,12,8.5C12,8.5,12,8.5,12,8.5l-0.2-0.1l-0.1,0L12,8.5L12,8.5z M11.7,3.4L11.7,3.4L11.7,3.4
		L11.7,3.4L11.7,3.4z M11.7,7.5L11.7,7.5L11.7,7.5L11.7,7.5L11.7,7.5z M11.8,8C11.8,8,11.8,8,11.8,8c0.1-0.1,0.1-0.1,0.1-0.1h0
		C11.8,7.9,11.8,7.9,11.8,8z M11.8,2.7L11.8,2.7L11.8,2.7L11.8,2.7L11.8,2.7z M11.8,7.4C11.8,7.4,11.8,7.4,11.8,7.4
		C11.8,7.4,11.8,7.4,11.8,7.4L11.8,7.4L11.8,7.4L11.8,7.4z M11.9,8.6L11.9,8.6L11.9,8.6L11.9,8.6z M11.9,7.1V7V7.1L11.9,7.1z
		 M11.9,8.3l0-0.1L11.9,8.3L11.9,8.3z M11.9,9.8L11.9,9.8L11.9,9.8L11.9,9.8z M11.9,6.8C11.9,6.8,11.9,6.9,11.9,6.8
		c0.2,0.1,0.2,0,0.3,0s0.1-0.1,0.2-0.2c-0.1,0-0.2,0-0.2,0.1C12.1,6.8,12.1,6.8,11.9,6.8C12,6.8,12,6.8,11.9,6.8c0-0.1,0-0.1,0-0.1
		C11.9,6.7,11.9,6.8,11.9,6.8z M11.9,7.5L11.9,7.5L11.9,7.5L11.9,7.5z M12,2.3L12,2.3L12,2.3L12,2.3z M12.2,3.3h-0.3l0,0.1L12.2,3.3
		z M11.9,2.6L11.9,2.6C11.9,2.5,11.9,2.6,11.9,2.6z M11.9,3L11.9,3L11.9,3L11.9,3z M11.9,9.3L11.9,9.3C11.9,9.2,11.9,9.2,11.9,9.3
		L11.9,9.3L11.9,9.3z M11.9,9.6L11.9,9.6L11.9,9.6L11.9,9.6L11.9,9.6z M11.9,9.9L11.9,9.9L11.9,9.9L11.9,9.9z M12.1,9.5L12.1,9.5
		L12,9.4C12,9.5,12,9.5,12.1,9.5z M12,8.3L12,8.3L12,8.3L12,8.3z M12,7.1L12,7.1L12,7.1L12,7.1z M12,8.1L12,8.1L12,8.1L12,8.1
		L12,8.1z M12,8.8L12,8.8L12,8.8L12,8.8z M12,9.7L12,9.7L12,9.7L12,9.7L12,9.7z M12,8.6L12,8.6L12,8.6L12,8.6L12,8.6z M12.1,8.2
		C12,8.2,12,8.2,12.1,8.2C12.1,8.2,12.1,8.2,12.1,8.2C12.1,8.2,12.1,8.1,12.1,8.2L12.1,8.2C12.1,8.1,12.1,8.1,12.1,8.2z M12.2,8
		L12.2,8h0.2l0,0l-0.3-0.1l0,0L12.2,8L12.2,8z M12.2,9.2L12.2,9.2L12.2,9.2L12.2,9.2z M12.1,8.3L12.1,8.3L12.1,8.3L12.1,8.3z
		 M12.2,8.7L12.2,8.7L12.2,8.7L12.2,8.7z M12.2,2.1L12.2,2.1L12.2,2.1L12.2,2.1L12.2,2.1z M12.2,2.9h0.2v0L12.2,2.9z M12.2,7.2
		L12.2,7.2L12.2,7.2L12.2,7.2z M12.2,8.1L12.2,8.1L12.2,8.1L12.2,8.1L12.2,8.1z M12.2,6.5L12.2,6.5L12.2,6.5L12.2,6.5z M12.2,2.7
		L12.2,2.7L12.2,2.7C12.2,2.6,12.2,2.7,12.2,2.7z M12.2,3.1C12.2,3.1,12.2,3,12.2,3.1L12.2,3.1L12.2,3.1C12.2,3.1,12.2,3.1,12.2,3.1
		z M12.2,3.3L12.2,3.3L12.2,3.3L12.2,3.3L12.2,3.3z M12.2,8.9L12.2,8.9L12.2,8.9L12.2,8.9L12.2,8.9z M12.3,9.4L12.3,9.4L12.3,9.4
		L12.3,9.4L12.3,9.4z M12.2,6.6L12.2,6.6L12.2,6.6L12.2,6.6L12.2,6.6z M12.3,7.1C12.3,7,12.3,7,12.3,7.1C12.3,7,12.3,7.1,12.3,7.1z
		 M12.3,7.4L12.3,7.4L12.3,7.4L12.3,7.4L12.3,7.4z M12.3,7.7C12.3,7.7,12.3,7.7,12.3,7.7L12.3,7.7C12.3,7.7,12.3,7.7,12.3,7.7z
		 M12.4,8.6l-0.1,0.1l0.1,0.1L12.4,8.6z M12.5,2.5c0-0.1,0.1-0.1,0.1-0.1l-0.1-0.1l-0.2,0.2l0.1,0.1C12.4,2.6,12.5,2.6,12.5,2.5z
		 M12.4,9.7L12.4,9.7L12.4,9.7L12.4,9.7z M12.4,3.4l0-0.1L12.4,3.4L12.4,3.4z M12.4,6.4L12.4,6.4L12.4,6.4L12.4,6.4L12.4,6.4z
		 M12.4,7.1L12.4,7.1L12.4,7.1L12.4,7.1L12.4,7.1z M12.4,8.2L12.4,8.2L12.4,8.2L12.4,8.2L12.4,8.2z M12.4,9L12.4,9L12.4,9L12.4,9
		L12.4,9z M12.4,9.2L12.4,9.2L12.4,9.2L12.4,9.2L12.4,9.2z M12.5,9.3L12.5,9.3l-0.2,0.1C12.5,9.4,12.5,9.3,12.5,9.3z M12.5,6.1
		C12.5,6.2,12.5,6.2,12.5,6.1C12.5,6.2,12.5,6.1,12.5,6.1C12.5,6.1,12.5,6.1,12.5,6.1C12.4,6.1,12.4,6.1,12.5,6.1z M12.5,6.5
		c0,0,0,0.1-0.1,0.1C12.5,6.6,12.5,6.5,12.5,6.5C12.6,6.5,12.6,6.4,12.5,6.5C12.6,6.4,12.5,6.4,12.5,6.5z M12.5,6.8L12.5,6.8
		L12.5,6.8L12.5,6.8z M12.5,7.4L12.5,7.4L12.5,7.4C12.4,7.3,12.5,7.4,12.5,7.4z M12.5,9.1C12.5,9,12.5,9,12.5,9.1L12.5,9.1L12.5,9.1
		C12.5,9.1,12.5,9.1,12.5,9.1z M12.7,9.6l-0.1-0.1l-0.1,0.1H12.7z M12.6,8L12.6,8L12.6,8L12.6,8L12.6,8z M12.6,2.9L12.6,2.9L12.7,3
		L12.6,2.9z M12.6,3.5l0.2,0v0H12.6z M12.7,7.2L12.7,7.2L12.7,7.2L12.7,7.2z M12.6,7.5C12.6,7.5,12.6,7.5,12.6,7.5L12.6,7.5
		L12.6,7.5z M12.6,8.9L12.6,8.9L12.6,8.9C12.6,8.9,12.6,8.9,12.6,8.9z M12.7,8.1c-0.1,0.1-0.1,0.1-0.1,0.2h0L12.9,8
		C12.8,8,12.8,8,12.7,8.1z M12.7,8.6C12.7,8.6,12.6,8.6,12.7,8.6C12.7,8.6,12.7,8.6,12.7,8.6C12.7,8.6,12.8,8.5,12.7,8.6
		C12.7,8.5,12.7,8.5,12.7,8.6z M12.6,9.1L12.6,9.1L12.6,9.1C12.6,9.2,12.7,9.2,12.6,9.1C12.7,9.1,12.7,9.1,12.6,9.1
		C12.7,9.1,12.6,9.1,12.6,9.1z M12.7,3.2L12.7,3.2L12.7,3.2L12.7,3.2L12.7,3.2z M12.7,6.9L12.7,6.9L12.7,6.9L12.7,6.9L12.7,6.9z
		 M12.8,6.5L12.8,6.5l-0.1,0.1l0,0.1L12.8,6.5z M12.7,2.2L12.7,2.2L12.7,2.2L12.7,2.2z M12.7,9.4L12.7,9.4L12.7,9.4L12.7,9.4z
		 M12.7,6.2L12.7,6.2L12.7,6.2L12.7,6.2z M12.7,7.2L12.7,7.2L12.7,7.2L12.7,7.2z M12.8,6L12.8,6L12.8,6L12.8,6z M12.9,7.4h-0.2H12.9
		z M12.8,2.9L12.8,2.9L12.8,2.9L12.8,2.9z M12.8,8.7L12.8,8.7L12.8,8.7L12.8,8.7z M12.8,3.2L12.8,3.2L12.8,3.2L12.8,3.2z M12.8,7
		L12.8,7L12.8,7L12.8,7L12.8,7z M12.9,7.3L12.9,7.3L12.9,7.3L12.9,7.3L12.9,7.3z M12.9,6.3L12.9,6.3L12.9,6.3L12.9,6.3z M12.9,3.4
		L12.9,3.4L13,3.5L12.9,3.4z M13,6.2L13,6.2l-0.1,0L13,6.2z M13,3L13,3L13,3L13,3z M13,3.3L13,3.3L13,3.3L13,3.3L13,3.3z M13,2.9
		L13,2.9L13,2.9L13,2.9C13,2.9,13,2.9,13,2.9z M13.2,3.1C13.2,3.1,13.2,3,13.2,3.1L13.2,3.1L13.2,3.1C13.1,3.1,13.1,3.1,13.2,3.1z
		 M13.2,3.4L13.2,3.4L13.2,3.4L13.2,3.4L13.2,3.4z"/>
</g>
</svg>
