<?xml version="1.0" encoding="utf-8"?>
<!-- Generator: Adobe Illustrator 17.1.0, SVG Export Plug-In . SVG Version: 6.00 Build 0)  -->
<!DOCTYPE svg PUBLIC "-//W3C//DTD SVG 1.1//EN" "http://www.w3.org/Graphics/SVG/1.1/DTD/svg11.dtd">
<svg version="1.1" id="Layer_1" xmlns="http://www.w3.org/2000/svg" xmlns:xlink="http://www.w3.org/1999/xlink" x="0px" y="0px"
	 width="17.8px" height="12.2px" viewBox="0 0 17.8 12.2" enable-background="new 0 0 17.8 12.2" xml:space="preserve">
<g>
	<path d="M2,9.8c0.3,0,0.6,0,0.8,0c0.2,0,0.3-0.1,0.4-0.1s0.2-0.2,0.2-0.4c0-0.2,0-0.4,0-0.8v-5c0-0.1-0.1-0.1-0.3-0.2
		C3.1,3.3,3,3.3,2.8,3.3c-0.2,0-0.3,0-0.5,0s-0.3,0-0.3,0L1.9,3.1L2,3c0.5,0,1-0.1,1.4-0.2s0.7-0.3,1-0.5C4.7,2.2,4.9,2,5.1,1.9
		c0.2-0.1,0.3-0.2,0.5-0.2l0.3,0L6,1.8c0,1.1,0,2.2,0,3.2s0,2.2,0,3.2c0,0.5,0,0.9,0.1,1.3C6,9.8,6.1,9.9,6.3,9.9s0.3,0,0.4,0H7
		l0.2-0.1l0.2,0.1l-0.1,0.3c-0.4-0.1-0.7-0.1-1.1-0.1c-0.4,0-0.7,0-1.1,0c-0.5,0-1,0-1.5,0s-1,0-1.5,0L2,10.1L2,9.8z M3.6,9.7
		L3.6,9.7L3.6,9.7L3.6,9.7z M3.7,9.5L3.7,9.5v0.1V9.5z M3.8,9.7L3.8,9.7L3.8,9.7L3.8,9.7C3.8,9.7,3.8,9.7,3.8,9.7z M3.9,7.6L3.9,7.6
		L3.9,7.6L3.9,7.6z M3.9,9.3L3.9,9.3C3.9,9.3,3.9,9.3,3.9,9.3C3.9,9.3,3.9,9.3,3.9,9.3L3.9,9.3L3.9,9.3z M3.9,4.2l0.2,0l0,0L3.9,4.2
		z M3.9,5.9L3.9,5.9L3.9,5.9L3.9,5.9z M3.9,9.8L3.9,9.8L3.9,9.8L3.9,9.8z M3.9,4.7L3.9,4.7L3.9,4.7L3.9,4.7L3.9,4.7z M4,6.3L4,6.3
		L4,6.3L4,6.3z M4,8L4,8L4,8L4,8z M4,8.9L4,8.9L4,8.9L4,8.9z M4,6.8L4,6.8L4,6.8L4,6.8L4,6.8z M4,3.6c0,0,0,0.1,0.1,0.1
		c0-0.1,0-0.1,0-0.1s0.1-0.1,0.1-0.1L4.1,3.3L4,3.5C4,3.5,4,3.6,4,3.6z M4.1,5.1c0,0-0.1,0-0.1,0.1L4.3,5L4.3,4.9l0,0L4.1,4.9
		L4.1,5.1C4.1,5,4.1,5.1,4.1,5.1z M4.1,6.6c0,0,0.1,0,0.1,0l0.1-0.2l-0.1,0L4.1,6.6C4,6.5,4.1,6.6,4.1,6.6z M4.2,9.7
		c0.1,0.1,0.1,0.1,0.1,0.2c0,0,0.1-0.1,0.1-0.2c0,0,0-0.1,0-0.1s0-0.1-0.1-0.1L4,9.6v0C4.1,9.6,4.1,9.7,4.2,9.7z M4.1,4.6L4.1,4.6
		L4.1,4.6L4.1,4.6z M4.1,5.7L4.1,5.7L4.1,5.7L4.1,5.7z M4,8.3L4,8.3L4,8.3L4,8.3z M4.1,9.9L4.1,9.9L4.1,9.9L4.1,9.9z M4.1,6.1
		L4.1,6.1L4.1,6.1L4.1,6.1z M4.1,9.1C4.1,9.1,4.1,9.2,4.1,9.1h0.3C4.3,9,4.3,9,4.2,9S4.1,8.9,4.1,8.8L4.1,8.9v0C4.1,9,4.1,9,4.1,9.1
		z M4.1,5.4L4.1,5.4L4.1,5.4L4.1,5.4z M4.1,6.3c0,0,0.1,0,0.1-0.1L4.1,6.3z M4.1,6.8L4.1,6.8L4.1,6.8L4.1,6.8z M4.3,4
		c0,0,0.1-0.1,0.1-0.1s0-0.1,0.1-0.1c0-0.1,0-0.1,0-0.1L4.3,3.6L4.1,3.9L4.3,4C4.3,4.1,4.3,4,4.3,4z M4.1,4.7L4.1,4.7L4.1,4.7
		L4.1,4.7L4.1,4.7z M4.2,4.5c0.1,0.1,0.1,0.1,0.2,0.1c0-0.1,0-0.2,0.1-0.3S4.6,4.1,4.7,4L4.6,4C4.5,4.2,4.4,4.3,4.2,4.3
		C4.2,4.3,4.2,4.4,4.2,4.5z M4.2,5.8L4.2,5.8L4.2,5.8L4.2,5.8z M4.2,7.5L4.2,7.5L4.2,7.5L4.2,7.5z M4.2,8L4.2,8L4.2,8L4.2,8L4.2,8z
		 M4.2,8.2L4.2,8.2L4.2,8.2L4.2,8.2z M4.2,6.2l0.2,0L4.2,6.2L4.2,6.2L4.2,6.2z M4.2,9.3L4.2,9.3L4.2,9.3L4.2,9.3L4.2,9.3z M4.3,8.6
		L4.3,8.6L4.3,8.6L4.3,8.6L4.3,8.6z M4.3,8.4L4.3,8.4L4.3,8.4L4.3,8.4L4.3,8.4z M4.3,6.3L4.3,6.3L4.3,6.3L4.3,6.3L4.3,6.3z M4.3,6.7
		L4.3,6.7L4.3,6.7L4.3,6.7L4.3,6.7z M4.3,8.2L4.3,8.2L4.3,8.2L4.3,8.2L4.3,8.2z M4.3,7.6L4.3,7.6L4.3,7.6L4.3,7.6L4.3,7.6z M4.6,5.2
		l0.1,0.1l0.1-0.1L4.7,5.1l0.1-0.2c0,0,0-0.1,0-0.1c0,0,0-0.1-0.1-0.1c0,0.1,0,0.2,0,0.2C4.6,5.1,4.6,5.1,4.6,5.2L4.4,5.1L4.3,5.3
		L4.6,5.2z M4.3,5.6L4.3,5.6L4.3,5.6L4.3,5.6L4.3,5.6z M4.3,8.9l0.1-0.1C4.4,8.8,4.3,8.8,4.3,8.9z M4.4,3.2c0,0,0,0.1,0,0.1L4.4,3.2
		l0-0.1h0C4.4,3.1,4.4,3.2,4.4,3.2z M4.4,5.4L4.4,5.4L4.4,5.4L4.4,5.4L4.4,5.4z M4.4,5.9L4.4,5.9L4.4,5.9L4.4,5.9L4.4,5.9z M4.4,6.6
		L4.4,6.6L4.4,6.6L4.4,6.6L4.4,6.6z M4.4,8.1L4.4,8.1L4.4,8.1L4.4,8.1L4.4,8.1z M4.4,8.9L4.4,8.9L4.4,8.9L4.4,8.9L4.4,8.9z M4.4,9.3
		L4.4,9.3L4.4,9.3L4.4,9.3L4.4,9.3z M4.6,7.4L4.6,7.4H4.4H4.6z M4.4,7.9L4.4,7.9L4.4,7.9L4.4,7.9L4.4,7.9z M4.5,3.8L4.5,3.8L4.5,3.8
		L4.5,3.8L4.5,3.8z M4.5,4L4.5,4L4.5,4L4.5,4L4.5,4z M4.5,4.9L4.5,4.9L4.5,4.9L4.5,4.9L4.5,4.9z M4.5,6L4.5,6L4.5,6L4.5,6L4.5,6z
		 M4.5,8.7l0.2,0c0,0,0,0,0,0s0,0,0,0L4.5,8.7z M4.7,6.8c0-0.1,0-0.1,0.1-0.1c0,0,0.1,0,0.1,0c0,0,0.1,0,0.1-0.1
		c-0.1,0-0.2,0.1-0.3,0.1S4.6,6.7,4.5,6.7l0.1,0.1L4.5,6.8L4.7,6.8L4.6,6.9C4.7,6.9,4.7,6.8,4.7,6.8z M4.6,5.7L4.6,5.7L4.6,5.7
		L4.6,5.7L4.6,5.7z M4.6,3.2c0,0-0.1,0.1-0.1,0.2L4.6,3.2c0.1,0,0.1-0.1,0.1-0.1C4.7,3.1,4.7,3.2,4.6,3.2z M4.6,6.5
		C4.6,6.5,4.7,6.6,4.6,6.5l0.2-0.1c0,0-0.1,0-0.1-0.1c0,0-0.1-0.1-0.1-0.1l0,0.1C4.6,6.4,4.6,6.5,4.6,6.5z M4.6,8.2L4.6,8.2L4.6,8.2
		L4.6,8.2L4.6,8.2z M4.6,9.9l0.1-0.1l0,0C4.6,9.8,4.6,9.8,4.6,9.9z M4.6,3.1L4.6,3.1L4.6,3.1L4.6,3.1L4.6,3.1z M4.6,3.6L4.6,3.6
		L4.6,3.6L4.6,3.6L4.6,3.6z M4.6,7.1L4.6,7.1L4.6,7.1L4.6,7.1L4.6,7.1z M4.6,9.1L4.6,9.1L4.6,9.1L4.6,9.1L4.6,9.1z M4.6,8.3L4.6,8.3
		L4.6,8.3L4.6,8.3L4.6,8.3z M4.6,2.9L4.6,2.9L4.6,2.9L4.6,2.9L4.6,2.9z M4.8,6L4.6,6C4.7,6,4.7,6,4.8,6z M4.7,3.5L4.7,3.5L4.7,3.5
		L4.7,3.5L4.7,3.5z M4.7,3.9l0.1,0L4.7,3.9L4.7,3.9L4.7,3.9z M4.7,4.3L4.7,4.3L4.7,4.3L4.7,4.3L4.7,4.3z M4.7,4.6L4.7,4.6L4.7,4.6
		L4.7,4.6L4.7,4.6z M4.7,6.7l0.2,0c0,0,0,0,0,0c0,0,0,0,0,0L4.7,6.7z M4.7,7.1L4.7,7.1L4.7,7.1L4.7,7.1L4.7,7.1z M4.7,7.8L4.7,7.8
		L4.7,7.8L4.7,7.8L4.7,7.8z M4.7,8.4L4.7,8.4L4.7,8.4L4.7,8.4L4.7,8.4z M4.7,3.6L4.7,3.6L4.7,3.6L4.7,3.6L4.7,3.6z M4.7,9.2
		C4.8,9.1,4.8,9.1,4.7,9.2L4.7,9.2C4.7,9.2,4.7,9.2,4.7,9.2z M5,9.2c0,0-0.1,0-0.2,0c-0.1,0-0.1,0-0.1,0.1l0.1,0.1L5,9.2z M4.8,3.5
		L4.8,3.5L4.8,3.5L4.8,3.5L4.8,3.5z M4.8,4.7L4.8,4.7L4.8,4.7L4.8,4.7L4.8,4.7z M4.8,6.1L4.8,6.1L4.8,6.1L4.8,6.1L4.8,6.1z M4.8,7
		L4.8,7L4.8,7L4.8,7L4.8,7z M4.8,7.6L4.8,7.6L4.8,7.6L4.8,7.6L4.8,7.6z M4.8,8.1L4.8,8.1L4.8,8.1L4.8,8.1L4.8,8.1z M4.8,8.4L4.8,8.4
		L4.8,8.4L4.8,8.4L4.8,8.4z M4.8,2.9L4.8,2.9L4.8,2.9z M4.9,3.3L4.9,3.3L4.9,3.3L4.9,3.3z M4.8,4.2C4.9,4.2,4.9,4.2,4.8,4.2L4.8,4.2
		L4.8,4.2z M5,7.9l0.1-0.1c0,0,0-0.1,0-0.1s0-0.1-0.1-0.1L4.8,7.7L5,7.9L5,7.9z M4.9,9.6L4.9,9.6L4.9,9.6L4.9,9.6z M4.9,5.9L4.9,5.9
		L4.9,5.9L4.9,5.9L4.9,5.9z M4.9,6.3L4.9,6.3L4.9,6.3L4.9,6.3L4.9,6.3z M5,3.7c0,0,0.1,0,0.2,0c0.1,0,0.1,0,0.2,0
		c0,0,0.1,0.1,0.1,0.1c0,0,0,0,0,0.1c0-0.1,0.1-0.1,0.1-0.2c0,0,0-0.1,0-0.1c0,0-0.1,0-0.1,0c0,0-0.1,0-0.1,0c0,0,0,0,0-0.1l0.1-0.1
		C5.1,3.4,5,3.4,5,3.5C4.9,3.5,4.9,3.6,5,3.7C4.9,3.7,4.9,3.7,5,3.7z M5,9.9L5,9.9L4.9,9.8C4.9,9.8,5,9.9,5,9.9z M4.9,2.6l0.2,0
		c0,0,0,0,0,0c0,0,0,0,0,0L4.9,2.6z M5,5.2L5,5.2L5,5.2L5,5.2L5,5.2z M5,7.3L5,7.3L5,7.3L5,7.3L5,7.3z M5.1,5.6H5v0.1L5.1,5.6z
		 M5,6.8L5,6.8L5,6.8L5,6.8L5,6.8z M5,8.9L5,8.9L5,8.9L5,8.9z M5,9.5c0,0.1,0,0.1,0,0.1C5,9.6,5,9.6,5,9.5c0.1,0,0.1,0,0.1-0.1
		L5,9.5C5,9.4,5,9.5,5,9.5z M5,3L5,3L5,3L5,3L5,3z M5,3.3L5,3.3L5,3.3L5,3.3L5,3.3z M5,4.2L5,4.2L5,4.2L5,4.2L5,4.2z M5.1,4.7
		c0,0,0.1,0,0.1,0c0,0,0.1-0.1,0.1-0.1L5.1,4.7L5.1,4.7z M5,5.8C5,5.8,5,5.8,5,5.8C5.1,5.8,5.1,5.8,5,5.8L5,5.8L5,5.8L5,5.8z
		 M5.1,6.3c0,0,0.1,0,0.1,0L5,6.2L5.1,6.3C5,6.2,5,6.3,5.1,6.3z M5.1,7.6L5.1,7.6L5.1,7.6L5.1,7.6L5.1,7.6z M5.1,8.6L5.1,8.6
		L5.1,8.6L5.1,8.6L5.1,8.6z M5.1,9.7L5.1,9.7L5.1,9.7L5.1,9.7L5.1,9.7z M5.1,5l0.2-0.1l0,0L5.1,5z M5.3,4.2c0-0.1,0-0.1,0.1-0.1
		C5.3,4.1,5.2,4.1,5.3,4.2c-0.1,0-0.1,0-0.1,0.1l0.1,0.1C5.2,4.3,5.2,4.3,5.3,4.2z M5.1,8.4L5.1,8.4L5.1,8.4L5.1,8.4L5.1,8.4z
		 M5.2,9.2L5.2,9.2L5.2,9.2L5.2,9.2z M5.2,5.2L5.2,5.2L5.2,5.2L5.2,5.2z M5.3,7.1l0.1-0.2L5.3,7L5.2,6.9C5.2,7,5.2,7.1,5.3,7.1z
		 M5.5,9.7L5.5,9.7h0.1c0,0,0,0,0-0.1s-0.1,0-0.1-0.1c0,0-0.1,0-0.1-0.1s0-0.1,0-0.1h0L5.3,9.5l0.1,0.1L5.2,9.9L5.5,9.7z M5.3,3.3
		L5.3,3.3L5.3,3.3L5.3,3.3z M5.2,5.1L5.2,5.1L5.2,5.1L5.2,5.1z M5.2,7.5l0.2,0L5.2,7.5L5.2,7.5L5.2,7.5z M5.3,8.6L5.3,8.6L5.3,8.6
		L5.3,8.6z M5.3,2.8L5.3,2.8L5.3,2.8L5.3,2.8z M5.3,3.5l0.2,0l0,0L5.3,3.5z M5.3,6.1L5.3,6.1L5.3,6.1L5.3,6.1z M5.3,6.2L5.3,6.2
		L5.3,6.2L5.3,6.2z M5.3,9.2L5.3,9.2L5.3,9.2L5.3,9.2z M5.3,5.8L5.3,5.8L5.3,5.8L5.3,5.8z M5.3,6.5L5.3,6.5L5.3,6.5L5.3,6.5L5.3,6.5
		z M5.5,8.5L5.3,8.6C5.4,8.6,5.5,8.5,5.5,8.5z M5.4,2.3L5.4,2.3L5.4,2.3L5.4,2.3z M5.4,2.5L5.4,2.5L5.4,2.5L5.4,2.5z M5.4,4.8
		L5.4,4.8L5.4,4.8L5.4,4.8z M5.4,5.1L5.4,5.1L5.4,5.1L5.4,5.1z M5.4,7.3L5.4,7.3L5.4,7.3L5.4,7.3z M5.4,7.4L5.4,7.4L5.4,7.4L5.4,7.4
		z M5.4,9.1L5.4,9.1L5.4,9.1L5.4,9.1z M5.4,7.5L5.4,7.5L5.4,7.5L5.4,7.5z M5.5,4.1L5.5,4.1L5.5,4.1L5.5,4.1z M5.5,4.2L5.5,4.2
		L5.5,4.2L5.5,4.2z M5.5,9.3L5.5,9.3L5.5,9.3L5.5,9.3z M5.5,8.7L5.5,8.7L5.5,8.7L5.5,8.7L5.5,8.7z M5.7,9.5L5.7,9.5L5.7,9.5L5.7,9.5
		z"/>
	<path d="M12.9,1.6c0.4,0,0.7,0.1,1,0.3c0.1,0.1,0.3,0.1,0.5,0.3c0.2,0.1,0.3,0.2,0.5,0.4c0.2,0.1,0.3,0.3,0.4,0.4
		c0.1,0.2,0.2,0.3,0.2,0.5c0,0.3-0.1,0.5-0.2,0.7c-0.1,0.2-0.3,0.3-0.4,0.5c-0.1,0.1-0.3,0.2-0.4,0.3c-0.1,0.1-0.2,0.2-0.2,0.3
		c0,0.1,0,0.1,0.1,0.2c0.1,0,0.1,0.1,0.2,0.1c0.4,0.2,0.6,0.5,0.9,0.8c0.2,0.4,0.3,0.7,0.3,1.1c0,0.1,0,0.2,0,0.3c0,0.1,0,0.2,0,0.3
		l0,0.3C15.5,9,15,9.5,14.4,9.9s-1.3,0.5-2.1,0.5c0,0-0.1,0-0.2,0c-0.1,0-0.1,0-0.2,0s-0.2,0-0.2,0s-0.1-0.1-0.1-0.1l0.1-0.1
		c0.1,0,0.2,0,0.3,0.1c0.1,0,0.2,0.1,0.3,0.1c0.3,0,0.5,0,0.7-0.1c0.2,0,0.4-0.1,0.6-0.2c0.2-0.1,0.3-0.3,0.4-0.5
		c0.1-0.2,0.2-0.4,0.3-0.7c-0.1-0.3-0.3-0.5-0.6-0.8c-0.3-0.2-0.6-0.5-1-0.7S12,7,11.6,6.9c-0.4-0.1-0.7-0.2-1-0.2c0,0-0.1,0-0.1,0
		c0,0-0.1,0-0.1,0C10.2,7,10,7.2,9.8,7.5S9.6,8,9.6,8.3c0,0.2,0,0.4,0.1,0.6C9.8,9,9.9,9.2,10,9.4c0,0.1,0.1,0.1,0.2,0.2
		s0.3,0.2,0.4,0.2c0.2,0.1,0.3,0.2,0.5,0.3s0.3,0.2,0.3,0.2c-0.2,0-0.4,0-0.7-0.1c-0.3-0.1-0.5-0.2-0.8-0.4C9.7,9.6,9.5,9.5,9.3,9.3
		C9,9.1,8.9,9,8.8,8.8C8.7,8.7,8.6,8.5,8.6,8.4c0-0.2,0-0.3,0-0.5c0-0.2,0.1-0.4,0.2-0.5C8.8,7.3,9,7.2,9.1,7.1
		C9.3,7,9.5,6.9,9.7,6.8c0.2-0.1,0.3-0.2,0.5-0.3l0,0c0-0.1-0.1-0.2-0.2-0.3C9.8,6.2,9.7,6.1,9.6,5.9C9.4,5.8,9.3,5.5,9.2,5.3
		S9,4.7,9,4.3c0-0.2,0-0.4,0-0.7s0.1-0.5,0.2-0.7c0.1-0.2,0.3-0.3,0.5-0.5c0.2-0.2,0.4-0.3,0.6-0.5c0.2-0.1,0.5-0.2,0.7-0.3
		c0.2-0.1,0.5-0.1,0.7-0.1C12.2,1.5,12.5,1.5,12.9,1.6z M9,7.9L9,7.9L9,7.9L9,7.9L9,7.9z M9.1,7.9L9.1,7.9L9.1,7.9L9.1,7.9L9.1,7.9z
		 M9.2,8.9L9.2,8.9L9.2,8.9L9.2,8.9L9.2,8.9z M9.3,9L9.3,9L9.3,9L9.3,9L9.3,9z M9.4,4.2c0,0.1,0,0.1,0,0.2h0.2V4.1
		C9.4,4.1,9.4,4.1,9.4,4.2z M9.8,3.4c-0.1,0-0.1,0.1-0.2,0.1h0L10,3.3v0C9.9,3.3,9.9,3.3,9.8,3.4z M9.7,3.1L9.7,3.1L9.7,3.1L9.7,3.1
		L9.7,3.1z M9.7,5.2L9.7,5.2L9.7,5.2L9.7,5.2L9.7,5.2z M9.8,5.1L9.8,5.1L9.8,5.1L9.8,5.1L9.8,5.1z M9.8,3.6C9.8,3.6,9.8,3.6,9.8,3.6
		L9.8,3.6C9.8,3.5,9.8,3.5,9.8,3.6z M9.8,5.2L9.8,5.2L9.8,5.2L9.8,5.2L9.8,5.2z M9.9,3.1L9.9,3.1L9.9,3.1L9.9,3.1L9.9,3.1z M9.9,5.3
		L9.9,5.3L9.9,5.3L9.9,5.3L9.9,5.3z M10,5.4L10,5.4L10,5.4L10,5.4z M10,5.6L10,5.6L10,5.6L10,5.6z M10,3L10,3L10,3L10,3z M10,3.7
		L10,3.7L10,3.7L10,3.7z M10.1,4.3L10.1,4.3L10.1,4.3L10.1,4.3z M10.1,5L10.1,5L10.1,5L10.1,5z M10.1,5.4L10.1,5.4L10.1,5.4
		L10.1,5.4z M10.1,5.6L10.1,5.6L10.1,5.6L10.1,5.6z M10.2,5.7L10.2,5.7L10.2,5.7L10.2,5.7z M10.3,5.5V5.4h-0.1
		C10.2,5.4,10.2,5.5,10.3,5.5z M10.2,4.2L10.2,4.2C10.3,4.2,10.3,4.2,10.2,4.2C10.3,4.2,10.3,4.2,10.2,4.2L10.2,4.2L10.2,4.2z
		 M10.3,5.2L10.3,5.2L10.3,5.2L10.3,5.2L10.3,5.2z M10.3,5.9L10.3,5.9L10.3,5.9L10.3,5.9z M10.4,5.1L10.4,5.1L10.4,5.1L10.4,5.1z
		 M10.4,6.1L10.4,6.1L10.4,6.1L10.4,6.1L10.4,6.1z M10.7,3.6C10.8,3.8,11,4,11.3,4.1c0.2,0.1,0.5,0.2,0.7,0.3
		c0.3,0.1,0.5,0.1,0.7,0.2c0.2,0,0.4,0.1,0.5,0.2s0.4,0.1,0.6,0.1c0.1,0,0.3-0.1,0.4-0.2c0.1-0.1,0.2-0.3,0.2-0.4
		c0.1-0.2,0.1-0.3,0.1-0.5c0-0.2,0-0.3,0-0.4c0-0.3-0.1-0.6-0.3-0.8c-0.2-0.2-0.4-0.4-0.7-0.5C13.3,2,13,1.9,12.7,1.8
		s-0.6-0.1-0.8-0.1c-0.2,0-0.4,0-0.5,0.1c-0.2,0-0.3,0.1-0.4,0.2c-0.1,0.1-0.2,0.2-0.3,0.4s-0.1,0.3-0.1,0.5
		C10.4,3.2,10.5,3.5,10.7,3.6z M10.5,4.9L10.5,4.9L10.5,4.9L10.5,4.9z M10.5,5.1L10.5,5.1L10.5,5.1L10.5,5.1z M10.6,4.6L10.6,4.6
		L10.6,4.6L10.6,4.6z M10.6,6.1L10.6,6.1L10.6,6.1L10.6,6.1z M10.6,4.3L10.6,4.3L10.6,4.3L10.6,4.3z M10.6,5.2L10.6,5.2L10.6,5.2
		L10.6,5.2L10.6,5.2z M10.6,5.6L10.6,5.6L10.6,5.6L10.6,5.6z M10.7,5.9C10.8,5.9,10.8,5.9,10.7,5.9C10.8,5.9,10.8,5.9,10.7,5.9
		L10.7,5.9L10.7,5.9z M10.8,5.8L10.8,5.8L10.8,5.8L10.8,5.8L10.8,5.8z M10.9,6.2c0,0,0.1,0.1,0.1,0.1c0,0,0.1,0,0.1,0l0.1,0v0.1
		l0.2-0.1c0,0-0.1-0.1-0.1-0.1c0,0-0.1,0-0.1,0c-0.1,0-0.3,0-0.4,0.1C10.8,6.1,10.8,6.1,10.9,6.2z M10.9,5.2L10.9,5.2L10.9,5.2
		L10.9,5.2L10.9,5.2z M10.9,5.4L10.9,5.4L10.9,5.4L10.9,5.4L10.9,5.4z M11,5.8L11,5.8L11,5.8L11,5.8L11,5.8z M11,6.1L11,6.1L11,6.1
		L11,6.1z M11.1,5L11.1,5L11.1,5L11.1,5L11.1,5z M11.1,5.5L11.1,5.5L11.1,5.5L11.1,5.5L11.1,5.5z M11.1,5.6L11.1,5.6L11.1,5.6
		L11.1,5.6C11.2,5.5,11.1,5.5,11.1,5.6z M11.2,5.4L11.2,5.4L11.2,5.4L11.2,5.4L11.2,5.4z M11.3,4.8L11.3,4.8L11.3,4.8L11.3,4.8
		L11.3,4.8z M11.3,4.9L11.3,4.9L11.3,4.9L11.3,4.9L11.3,4.9z M11.5,5.6L11.5,5.6L11.5,5.6L11.5,5.6L11.5,5.6z M11.5,6.2L11.5,6.2
		L11.5,6.2L11.5,6.2L11.5,6.2z M11.5,5.2L11.5,5.2L11.5,5.2L11.5,5.2L11.5,5.2z M11.5,5.7L11.5,5.7L11.5,5.7L11.5,5.7L11.5,5.7z
		 M11.8,6h-0.2l0.2,0.1L11.8,6z M11.6,5.4L11.6,5.4L11.6,5.4L11.6,5.4L11.6,5.4z M11.7,5.9L11.7,5.9L11.7,5.9L11.7,5.9z M11.8,5.5
		L11.8,5.5L11.8,5.5L11.8,5.5L11.8,5.5z M11.9,4.8L11.9,4.8L11.9,4.8L11.9,4.8z M11.9,5.7C12,5.7,12,5.7,11.9,5.7
		c0.1-0.1,0.1-0.1,0.1-0.2v0L11.9,5.7L11.9,5.7z M12,5.4L12,5.4L12,5.4L12,5.4z M12,5.9L12,5.9c0.1,0,0.2,0,0.2,0
		c0,0,0.1-0.1,0.1-0.2l-0.1-0.1h0L12,5.9z M12.1,6.3L12.1,6.3L12.1,6.3L12.1,6.3z M12.1,5.4L12.1,5.4L12.1,5.4L12.1,5.4z M12.2,6.8
		L12.2,6.8L12.2,6.8L12.2,6.8z M12.3,5.5L12.3,5.5L12.3,5.5L12.3,5.5z M12.3,5.9L12.3,5.9L12.3,5.9L12.3,5.9z M12.3,6.6L12.3,6.6
		L12.3,6.6L12.3,6.6C12.3,6.6,12.3,6.6,12.3,6.6z M12.4,6.3L12.4,6.3L12.4,6.3L12.4,6.3z M12.5,5.2L12.5,5.2L12.5,5.2L12.5,5.2
		L12.5,5.2z M12.5,6.5L12.5,6.5L12.5,6.5L12.5,6.5z M12.5,6.9L12.5,6.9L12.5,6.9L12.5,6.9z M12.5,5.3L12.5,5.3L12.5,5.3L12.5,5.3
		L12.5,5.3z M12.5,5.6L12.5,5.6L12.5,5.6L12.5,5.6L12.5,5.6z M12.7,6.5L12.7,6.5L12.7,6.5L12.7,6.5L12.7,6.5z M12.8,5.4L12.8,5.4
		L12.8,5.4L12.8,5.4L12.8,5.4z M12.9,5.7L12.9,5.7L12.9,5.7L12.9,5.7L12.9,5.7z M13,5.4L13,5.4L13,5.4L13,5.4L13,5.4z M13,5.6
		L13,5.6L13,5.6L13,5.6L13,5.6z M13.1,7.2l0.1,0L13.1,7.2L13.1,7.2L13.1,7.2z M13.2,5.3L13.2,5.3L13.2,5.3L13.2,5.3L13.2,5.3z
		 M13.5,5.8L13.5,5.8L13.5,5.8L13.5,5.8z M13.6,5.3L13.6,5.3L13.6,5.3L13.6,5.3z M13.8,6.5L13.8,6.5L13.8,6.5L13.8,6.5z M13.9,6.1
		L13.9,6.1L13.9,6.1L13.9,6.1z M13.9,5.7L13.9,5.7L13.9,5.7L13.9,5.7z M13.9,6.5L13.9,6.5L13.9,6.5L13.9,6.5z M14.1,6.1L14.1,6.1
		L14.1,6.1L14.1,6.1z M14.1,6.4L14.1,6.4L14.1,6.4L14.1,6.4L14.1,6.4z M14.1,7L14.1,7L14.1,7L14.1,7z M14.1,6.2L14.1,6.2L14.1,6.2
		L14.1,6.2z M14.1,7.7L14.1,7.7L14.1,7.7L14.1,7.7L14.1,7.7z M14.2,7.8L14.2,7.8L14.2,7.8L14.2,7.8z M14.4,6L14.4,6L14.4,6L14.4,6
		L14.4,6z M14.4,6.3L14.4,6.3L14.4,6.3L14.4,6.3L14.4,6.3z M14.5,6.5L14.5,6.5L14.5,6.5L14.5,6.5L14.5,6.5z M14.6,6.1L14.5,6v0.1
		H14.6z M14.6,8.5L14.6,8.5L14.6,8.5L14.6,8.5L14.6,8.5z M14.7,9.2L14.7,9.2L14.7,9.2L14.7,9.2z M14.7,8.5c0,0,0,0.1,0,0.1
		c0,0,0,0.1,0,0.1c0,0,0,0.1-0.1,0.1l0,0.2c0,0,0.1,0,0.1-0.1c0,0,0.1-0.1,0.1-0.1l0,0c0-0.1,0-0.1,0.1-0.2c0,0-0.1,0-0.1-0.1
		c0,0,0-0.1,0-0.1l0,0L14.7,8.5C14.7,8.4,14.7,8.4,14.7,8.5z M14.8,9.1L14.8,9.1L14.8,9.1L14.8,9.1L14.8,9.1z M14.9,6.9L14.9,6.9
		L14.9,6.9L14.9,6.9L14.9,6.9z M15,6.3L15,6.3L15,6.3L15,6.3L15,6.3z M15,6.5L15,6.5L15,6.5L15,6.5L15,6.5z M15,9.1L15,9.1L15,9.1
		L15,9.1L15,9.1z M15.3,6.9c0-0.1,0-0.1,0-0.2s-0.1-0.1-0.1-0.1c-0.1,0-0.1,0.1-0.1,0.1c0,0,0,0.1,0,0.2l0.1-0.1L15.3,6.9h-0.2H15.3
		z M15.1,9L15.1,9L15.1,9L15.1,9L15.1,9z M15.3,8.4c0,0,0-0.1,0-0.1c0-0.1-0.1-0.1-0.1-0.1l-0.1,0.2H15.3L15.3,8.4z M15.2,8.7
		L15.2,8.7L15.2,8.7L15.2,8.7L15.2,8.7z M15.3,7.8c0,0.1-0.1,0.1-0.1,0.2c0.1,0,0.2,0,0.2-0.1c0-0.1,0-0.1,0.1-0.2h0
		C15.4,7.7,15.3,7.8,15.3,7.8z M15.4,8.3L15.4,8.3L15.4,8.3L15.4,8.3z M15.5,8.1L15.5,8.1L15.5,8.1L15.5,8.1z"/>
</g>
</svg>
