<?xml version="1.0" encoding="utf-8"?>
<!-- Generator: Adobe Illustrator 17.1.0, SVG Export Plug-In . SVG Version: 6.00 Build 0)  -->
<!DOCTYPE svg PUBLIC "-//W3C//DTD SVG 1.1//EN" "http://www.w3.org/Graphics/SVG/1.1/DTD/svg11.dtd">
<svg version="1.1" id="Layer_1" xmlns="http://www.w3.org/2000/svg" xmlns:xlink="http://www.w3.org/1999/xlink" x="0px" y="0px"
	 width="17.8px" height="12.2px" viewBox="0 0 17.8 12.2" enable-background="new 0 0 17.8 12.2" xml:space="preserve">
<g>
	<path d="M6.2,5.3C6,5.2,5.9,5.1,5.8,5C5.7,4.9,5.6,4.8,5.5,4.7C5.5,4.5,5.4,4.4,5.4,4.2c0-0.1,0-0.3,0.1-0.5c0-0.2,0.1-0.4,0.2-0.6
		c0.1-0.2,0.2-0.4,0.3-0.5C6,2.4,6.1,2.4,6.3,2.4c0,0,0.1-0.1,0.1-0.1l0.1-0.1c0,0,0.1-0.1,0.1-0.1c0,0,0.1,0,0.1,0
		c0,0.1,0,0.1-0.1,0.2c0,0.1-0.1,0.1-0.1,0.2c0,0.1-0.1,0.1-0.1,0.2c0,0.1,0,0.2,0,0.3c0,0.2,0.1,0.3,0.2,0.4C6.7,3.2,6.8,3.3,7,3.3
		c0.2,0,0.3,0.1,0.4,0.1c0.1,0.1,0.2,0.1,0.2,0.3v0.7C7.6,4.6,7.5,4.7,7.4,4.8C7.4,4.9,7.3,5,7.3,5.1C7.2,5.2,7.1,5.2,7,5.3
		S6.8,5.4,6.6,5.4S6.3,5.3,6.2,5.3z M7.5,8.8C7.4,8.7,7.2,8.7,7.1,8.6S6.9,8.5,6.8,8.4c-0.1,0-0.2-0.1-0.3-0.1
		c-0.1,0-0.2,0.1-0.3,0.2C6.1,8.6,6.1,8.7,6.1,8.9s0,0.2,0.1,0.3c0,0.1,0.1,0.2,0.1,0.2c0.1,0.1,0.1,0.1,0.1,0.2s0.1,0.1,0.1,0.2
		c0,0.1,0,0.2-0.1,0.3c-0.1,0.1-0.2,0.1-0.2,0.2c-0.4-0.1-0.6-0.3-0.6-0.7c0-0.3,0.1-0.6,0.2-0.9C6,8.3,6.2,8.1,6.4,7.9h0.1
		c0,0.2,0.1,0.3,0.3,0.3c0.1,0,0.2,0,0.3,0s0.2,0,0.3,0c0.1,0,0.1,0,0.1,0c0,0,0,0,0.1,0.1l0,0.1c0,0,0,0,0.1,0c0.1,0,0.2,0,0.3-0.1
		c0.1-0.1,0.2-0.1,0.4-0.1c0.1,0,0.2,0,0.3,0c0.2,0,0.3,0,0.6,0s0.4,0,0.7,0s0.4,0,0.6,0.1c0.2,0,0.4,0,0.5,0.1s0.2,0,0.3,0.1
		c0.1,0,0.2,0,0.3-0.1C11.8,8.2,11.9,8.1,12,8c0.1-0.1,0.1-0.2,0.2-0.4c0-0.1,0.1-0.2,0.1-0.4l0-0.1l0.1-0.1c0,0.1,0,0.2,0,0.2
		s0,0.2,0,0.2c-0.1,0.2-0.1,0.5-0.3,0.8c-0.1,0.3-0.3,0.6-0.4,0.9S11.3,9.8,11,10s-0.5,0.3-0.8,0.3c-0.1,0-0.3,0-0.6-0.1
		S9.2,10,8.9,9.8C8.6,9.7,8.4,9.6,8.2,9.4C8,9.3,7.8,9.2,7.8,9C7.7,9,7.6,8.9,7.5,8.8z M5.9,3.8L5.9,3.8L5.9,3.8L5.9,3.8L5.9,3.8z
		 M5.9,4.2L5.9,4.2L5.9,4.2L5.9,4.2z M5.9,3.9L5.9,3.9L5.9,3.9L5.9,3.9L5.9,3.9z M6,4.2L6,4.2L6,4.2L6,4.2L6,4.2z M6,4.4L6,4.4
		L6,4.4L6,4.4L6,4.4z M6,3.7L6,3.7L6,3.7L6,3.7L6,3.7z M6.4,4L6.2,3.8L6,3.9L6.1,4l0-0.1l0.1,0.2L6.4,4z M6.1,4.2
		C6.1,4.2,6.1,4.2,6.1,4.2C6.1,4.2,6.1,4.3,6.1,4.2L6.1,4.2L6.1,4.2C6.1,4.2,6.1,4.2,6.1,4.2C6.1,4.2,6.1,4.2,6.1,4.2L6.1,4.2
		L6.1,4.2L6.1,4.2z M6.2,3.5L6.2,3.5H6.1H6.2L6.2,3.5z M6.1,4.2L6.1,4.2C6.1,4.2,6.1,4.2,6.1,4.2z M6.3,4.7C6.2,4.7,6.2,4.7,6.3,4.7
		C6.2,4.7,6.2,4.7,6.1,4.7L6.3,4.7L6.3,4.7z M6.2,3.8L6.2,3.8L6.2,3.8z M6.3,4.5L6.3,4.5L6.3,4.5L6.3,4.5z M6.4,4.6L6.4,4.6L6.4,4.6
		L6.4,4.6z M6.3,4.8L6.3,4.8L6.3,4.8L6.3,4.8z M6.4,4.3L6.4,4.3L6.4,4.3L6.4,4.3L6.4,4.3z M6.5,4.6C6.5,4.5,6.5,4.5,6.5,4.6L6.5,4.6
		L6.5,4.6C6.5,4.6,6.5,4.6,6.5,4.6z M6.6,4.6L6.6,4.6L6.6,4.6L6.6,4.6L6.6,4.6z M6.6,4.9L6.6,4.9L6.6,4.9L6.6,4.9z M6.7,4.4L6.7,4.4
		L6.7,4.4L6.7,4.4L6.7,4.4z M6.7,4.6L6.7,4.6L6.7,4.6L6.7,4.6L6.7,4.6z M6.7,3.8c0,0,0.1,0.1,0.1,0.1C6.8,3.9,6.8,3.8,6.7,3.8
		c0-0.1,0-0.1,0-0.1C6.7,3.8,6.7,3.8,6.7,3.8z M6.7,4.2l0,0.2l0,0L6.7,4.2z M6.8,4.8L6.8,4.8L6.8,4.8L6.8,4.8z M7.1,7.3
		C7.3,7.2,7.4,7.1,7.4,7c0.2-0.2,0.5-0.5,0.7-0.7C8.4,6,8.7,5.7,8.9,5.4c0.2-0.3,0.4-0.6,0.5-1c0.1-0.3,0.2-0.7,0.2-1
		c0-0.3,0-0.6-0.1-0.7C9.5,2.5,9.4,2.4,9.3,2.3C9.2,2.1,9.1,2,9,2C8.9,1.9,8.8,1.9,8.7,1.8c-0.1,0-0.2-0.1-0.3-0.1
		c-0.1,0-0.1-0.1-0.2-0.1c0,0,0,0,0.1,0c0,0,0.1,0,0.1,0c0.3,0,0.5,0,0.7,0.1c0.2,0.1,0.5,0.1,0.7,0.1c0.2,0,0.4,0.1,0.6,0.2
		c0.2,0.1,0.5,0.2,0.7,0.4c0.2,0.2,0.4,0.3,0.6,0.5c0.2,0.2,0.3,0.4,0.3,0.5c0.1,0.3,0.1,0.6,0.1,0.9c0,0.2,0,0.4-0.1,0.6
		S12,5.3,11.9,5.5c-0.1,0.2-0.2,0.3-0.4,0.5c-0.2,0.1-0.3,0.3-0.5,0.4c-0.1,0.1-0.3,0.1-0.4,0.2c-0.2,0.1-0.4,0.1-0.6,0.2
		c-0.2,0-0.5,0.1-0.7,0.1C9,6.9,8.8,6.9,8.6,7C8.4,7,8.2,7,8.1,7.1c-0.2,0-0.3,0.1-0.3,0.1c-0.1,0-0.2,0.1-0.2,0.1
		c-0.1,0-0.1,0.1-0.2,0.1S7.2,7.5,7.1,7.6c-0.1,0-0.2,0-0.3,0l-0.1,0C6.9,7.5,7,7.4,7.1,7.3z M6.8,4.5c0,0,0.1,0,0.1,0S7,4.4,7,4.4
		H6.9C6.9,4.4,6.8,4.4,6.8,4.5z M6.9,4L6.9,4L6.9,4L6.9,4L6.9,4z M6.9,4.7L6.9,4.7l0-0.1C6.9,4.6,6.9,4.7,6.9,4.7z M7,4.2L7,4.2
		L7,4.2L7,4.2L7,4.2z M7.1,4.2L7.1,4.2L7.1,4.2L7.1,4.2z M9,6.2L9,6.2L9,6.2L9,6.2z M9.1,9.2L9,9.2l0,0H9.1z M9.1,6.3L9.1,6.3
		L9.1,6.3L9.1,6.3z M9.1,9.4L9.1,9.4L9.1,9.4L9.1,9.4z M9.2,6.1L9.2,6.1L9.2,6.1L9.2,6.1z M9.2,6L9.2,6L9.2,6L9.2,6L9.2,6z M9.2,9.1
		L9.2,9.1L9.2,9.1L9.2,9.1z M9.3,5.8L9.3,5.8L9.3,5.8L9.3,5.8z M9.3,6L9.3,6L9.3,6L9.3,6L9.3,6z M9.3,8.7L9.3,8.7L9.3,8.7L9.3,8.7
		L9.3,8.7z M9.3,6.1L9.3,6.1v0.1V6.1z M9.6,9.6l0.1,0.1c0-0.1,0-0.1,0-0.2c0,0,0-0.1,0-0.1S9.6,9.3,9.6,9.3c0,0,0,0,0.1,0
		c0,0,0.1,0,0.1-0.1L9.6,9.1L9.5,9.2c0,0-0.1,0-0.1,0c0,0-0.1,0-0.1,0c0.1,0,0.1,0.1,0.1,0.2s0,0.1,0,0.2l0.1-0.1V9.6L9.4,9.7l0.1,0
		L9.6,9.6z M9.3,6.5C9.3,6.5,9.3,6.5,9.3,6.5l0.1-0.1L9.3,6.5L9.3,6.5z M9.5,6.1L9.4,6l0,0.1H9.5z M9.4,5.9L9.4,5.9L9.4,5.9L9.4,5.9
		L9.4,5.9z M9.4,5.2L9.4,5.2L9.4,5.2L9.4,5.2z M9.4,9L9.4,9L9.4,9L9.4,9z M9.4,5.6C9.4,5.6,9.4,5.6,9.4,5.6L9.4,5.6L9.4,5.6L9.4,5.6
		z M9.5,5.2L9.5,5.2L9.5,5.2L9.5,5.2z M9.6,5.7H9.5l0.1,0.1L9.6,5.7z M9.6,5.4l-0.1,0L9.6,5.4L9.6,5.4z M9.7,8.8c0.1,0,0.1,0,0.2,0
		H9.6L9.5,8.9C9.6,8.9,9.6,8.9,9.7,8.8z M9.6,5.2L9.6,5.2H9.5H9.6z M9.6,5.9L9.6,5.9L9.6,5.9L9.6,5.9L9.6,5.9z M9.6,9.8L9.6,9.8
		L9.6,9.8L9.6,9.8z M9.6,6L9.6,6L9.6,6L9.6,6L9.6,6z M9.6,6.2L9.6,6.2C9.7,6.2,9.7,6.1,9.6,6.2C9.7,6.1,9.6,6.1,9.6,6.2z M9.7,6.4
		L9.7,6.4L9.7,6.4L9.7,6.4z M9.7,5.2L9.7,5.2L9.7,5.2L9.7,5.2L9.8,5l0,0L9.7,5.2L9.7,5.2L9.7,5.2z M9.8,6L9.8,6L9.8,6L9.8,6z M9.7,9
		L9.7,9L9.7,9L9.7,9L9.7,9z M9.9,9.7L9.9,9.7L9.7,9.8L9.9,9.7z M9.8,9.3L9.8,9.3L9.8,9.3L9.8,9.3L9.8,9.3z M9.8,4.8L9.8,4.8L9.8,4.8
		L9.8,4.8z M9.8,5.3V5.2h0L9.8,5.3L9.8,5.3z M9.8,5.1L9.8,5.1L9.8,5.1L9.8,5.1z M9.8,8.9L9.8,8.9L9.8,8.9L9.8,8.9
		C9.8,8.8,9.8,8.8,9.8,8.9z M9.9,6.1L9.9,6.1L9.9,6.1L9.9,6.1L9.9,6.1z M9.9,5.9C9.9,5.8,9.9,5.8,9.9,5.9C9.9,5.8,9.9,5.8,9.9,5.9
		L9.9,5.9L9.9,5.9L9.9,5.9z M10,5.5l-0.1,0v0.1L10,5.5z M10.1,9.2C10,9.2,10,9.2,10.1,9.2C9.9,9.2,9.9,9.3,9.9,9.3s0,0.1,0,0.1
		c0,0,0,0.1-0.1,0.1c0.1,0,0.1,0,0.1-0.1c0,0,0.1-0.1,0.1-0.2c0,0,0.1,0,0.1,0c0,0,0.1,0,0.1,0c0,0,0-0.1,0-0.1c0,0,0,0,0.1,0h0.1
		l0,0.1l0,0c0-0.1,0-0.1,0-0.2c0-0.1,0.1-0.2,0.1-0.2l-0.1,0c0,0-0.1,0.1-0.1,0.1c-0.1,0.1-0.1,0.1-0.2,0.1l0.1-0.1l-0.1-0.2L10,8.9
		C10.1,8.9,10.1,9,10.1,9.2C10.1,9.2,10.1,9.2,10.1,9.2z M10,9L10,9H9.9l0.1,0.1L10,9z M9.9,8.6L9.9,8.6L9.9,8.6L9.9,8.6z M9.9,4.3
		L9.9,4.3L9.9,4.3L9.9,4.3L9.9,4.3L9.9,4.3L9.9,4.3z M10,2.7L10,2.7L10,2.7L10,2.7L10,2.7z M10,5.2V5.1h0C9.9,5.2,9.9,5.2,10,5.2z
		 M10,6c0,0,0-0.1-0.1-0.1L10,6l0,0.1C10,6.1,10,6,10,6z M9.9,4.3L9.9,4.3L9.9,4.3L9.9,4.3z M10,4.7L10,4.7L10,4.7L10,4.7z M10,8.8
		L10,8.8l0-0.1L10,8.8L10,8.8L10,8.8L10,8.8z M10,5L10,5L10,5L10,5z M10.1,4L10.1,4L10.1,4L10.1,4z M10.1,9.6C10,9.6,10,9.6,10,9.7
		l0.2-0.2C10.2,9.5,10.1,9.5,10.1,9.6z M10,3.4L10,3.4L10,3.4L10,3.4L10,3.4L10,3.4z M10,6.3L10,6.3L10,6.3L10,6.3z M10,2.4
		C10,2.4,10,2.4,10,2.4L10,2.4L10,2.4L10,2.4z M10,5.6L10,5.6L10,5.6L10,5.6L10,5.6z M10.1,2.9L10.1,2.9L10.1,2.9L10.1,2.9L10.1,2.9
		z M10.1,3.7c0,0,0,0.1,0.1,0.1l0.1-0.1l0,0l0,0l0,0l0-0.1c0,0-0.1,0-0.1,0C10.2,3.6,10.2,3.6,10.1,3.7l0-0.1L10.1,3.7
		C10.1,3.7,10.1,3.7,10.1,3.7z M10,5L10,5L10,5L10,5L10,5z M10,5.3L10,5.3L10,5.3L10,5.3L10,5.3z M10.4,2.8l0-0.1
		c0,0,0.1-0.1,0.1-0.1c0,0,0,0,0-0.1l-0.2,0l0,0c0,0,0-0.1,0.1-0.1c0,0,0,0,0-0.1c-0.1,0-0.2,0-0.2,0.1s-0.1,0.1-0.1,0.2l0.1-0.1
		l0.1,0.1l-0.1,0.1l0.1,0L10.4,2.8z M10.1,3.2L10.1,3.2L10.1,3.2L10.1,3.2z M10.1,5.8L10.1,5.8L10.1,5.8C10.1,5.8,10.1,5.8,10.1,5.8
		z M10.1,5.1L10.1,5.1L10.1,5.1L10.1,5.1z M10.1,6L10.1,6L10.1,6L10.1,6z M10.1,2.7L10.1,2.7L10.1,2.7L10.1,2.7L10.1,2.7z M10.1,3.5
		L10.1,3.5L10.1,3.5L10.1,3.5L10.1,3.5l0-0.1L10.1,3.5L10.1,3.5z M10.2,4.5C10.2,4.5,10.2,4.5,10.2,4.5C10.2,4.5,10.2,4.5,10.2,4.5
		C10.2,4.4,10.2,4.4,10.2,4.5L10.2,4.5C10.1,4.5,10.1,4.5,10.2,4.5z M10.2,2.9L10.2,2.9L10.2,2.9L10.2,2.9z M10.1,4.7L10.1,4.7
		L10.1,4.7L10.1,4.7L10.1,4.7z M10.2,9.9L10.2,9.9L10.2,9.9L10.2,9.9L10.2,9.9z M10.2,3.3L10.2,3.3L10.2,3.3L10.2,3.3L10.2,3.3
		L10.2,3.3z M10.2,5.9L10.2,5.9L10.2,5.9L10.2,5.9z M10.4,3l-0.2,0l0.1,0.1L10.4,3z M10.2,5.1c0-0.1,0.1-0.1,0.1-0.1
		s0.1-0.1,0.1-0.1c0,0-0.1,0-0.2,0.1C10.2,4.9,10.2,4.9,10.2,5.1L10.2,5.1L10.2,5.1z M10.2,5.2L10.2,5.2L10.2,5.2L10.2,5.2z
		 M10.3,8.7L10.3,8.7L10.3,8.7C10.2,8.7,10.2,8.7,10.3,8.7z M10.2,9.7l0.1-0.1L10.2,9.7C10.2,9.7,10.2,9.7,10.2,9.7z M10.2,3L10.2,3
		L10.2,3L10.2,3L10.2,3z M10.2,3.5L10.2,3.5L10.2,3.5L10.2,3.5L10.2,3.5z M10.2,5.7C10.2,5.7,10.2,5.7,10.2,5.7L10.2,5.7
		C10.3,5.8,10.3,5.7,10.2,5.7L10.2,5.7z M10.4,4.1c0,0,0.1,0.1,0.1,0.1c0-0.1,0-0.1,0-0.2c0-0.1,0-0.1,0-0.2L10.2,4
		C10.3,4,10.3,4,10.4,4.1z M10.3,3.7L10.3,3.7L10.3,3.7z M10.3,5.5L10.3,5.5L10.3,5.5L10.3,5.5L10.3,5.5z M10.3,9.9l0.3,0L10.3,9.9
		L10.3,9.9L10.3,9.9z M10.4,3.2h-0.1H10.4L10.4,3.2z M10.3,3.5c0,0,0.1-0.1,0.1-0.1C10.3,3.4,10.3,3.4,10.3,3.5z M10.4,4.4h-0.1v0.1
		L10.4,4.4z M10.5,4.6L10.5,4.6l-0.2,0.1l0.1,0.1L10.5,4.6z M10.4,6.3L10.4,6.3L10.4,6.3C10.3,6.2,10.4,6.2,10.4,6.3z M10.4,4.2
		L10.4,4.2L10.4,4.2L10.4,4.2z M10.4,5.5L10.4,5.5L10.4,5.5L10.4,5.5L10.4,5.5z M10.4,3.6L10.4,3.6l0-0.1L10.4,3.6L10.4,3.6z
		 M10.4,6L10.4,6L10.4,6L10.4,6z M10.4,2.7L10.4,2.7L10.4,2.7L10.4,2.7L10.4,2.7z M10.5,5.4L10.5,5.4L10.5,5.4L10.5,5.4L10.5,5.4z
		 M10.5,6L10.5,6L10.5,6L10.5,6L10.5,6z M10.5,9.4L10.5,9.4L10.5,9.4C10.4,9.5,10.5,9.5,10.5,9.4z M10.5,3L10.5,3l0.1-0.1l0,0
		l0.1-0.1l-0.1,0l-0.1,0l0,0.1L10.5,3z M10.5,4.5L10.5,4.5L10.5,4.5L10.5,4.5L10.5,4.5z M10.6,5.7c0,0,0,0.1-0.1,0.1l0.2-0.1
		L10.6,5.7C10.6,5.7,10.6,5.7,10.6,5.7z M10.6,3.3c0,0,0-0.1,0.1-0.1c0,0,0.1-0.1,0.1-0.1c0,0,0-0.1,0-0.1l0,0L10.6,3.3L10.6,3.3
		L10.6,3.3z M10.6,3.8L10.6,3.8C10.5,3.8,10.5,3.8,10.6,3.8z M10.6,4.1c0,0-0.1,0.1-0.1,0.1C10.6,4.2,10.6,4.2,10.6,4.1
		c0.1,0,0.1,0,0.1-0.1C10.7,4.1,10.6,4.1,10.6,4.1z M10.8,4.4L10.8,4.4l-0.2,0l-0.1,0.1L10.8,4.4L10.8,4.4z M10.6,2.5L10.6,2.5
		L10.6,2.5L10.6,2.5z M10.7,4L10.7,4h-0.1H10.7L10.7,4z M10.6,4.9L10.6,4.9L10.6,4.9L10.6,4.9L10.6,4.9z M10.8,5.3
		C10.8,5.3,10.8,5.2,10.8,5.3l0-0.1l-0.2,0.2L10.8,5.3C10.7,5.4,10.7,5.4,10.8,5.3z M10.6,9.2c0,0,0.1,0,0.1,0L10.6,9.2l0.1-0.2
		c0,0,0-0.1-0.1-0.1c0,0-0.1,0-0.1,0v0.1C10.6,9.2,10.6,9.2,10.6,9.2z M10.6,9.9L10.6,9.9L10.6,9.9L10.6,9.9L10.6,9.9z M10.6,2.9
		L10.6,2.9L10.6,2.9L10.6,2.9z M10.6,9.6L10.6,9.6L10.6,9.6L10.6,9.6L10.6,9.6L10.6,9.6z M10.7,2.5L10.7,2.5L10.7,2.5L10.7,2.5z
		 M10.7,4.6L10.7,4.6L10.7,4.6L10.7,4.6L10.7,4.6z M10.7,4.9L10.7,4.9V5V4.9z M10.9,5l-0.1,0l-0.2,0.2v0L10.9,5z M10.8,2.7L10.8,2.7
		l-0.1,0v0.1C10.7,2.8,10.7,2.7,10.8,2.7z M10.7,3.8l0-0.2v0.1L10.7,3.8z M10.7,6L10.7,6L10.7,6L10.7,6z M10.7,2.6L10.7,2.6
		L10.7,2.6L10.7,2.6L10.7,2.6z M10.8,2.8C10.7,2.9,10.7,2.9,10.8,2.8C10.7,2.9,10.8,2.9,10.8,2.8C10.8,2.9,10.8,2.9,10.8,2.8
		C10.8,2.8,10.8,2.8,10.8,2.8z M10.7,3.3L10.7,3.3L10.7,3.3L10.7,3.3L10.7,3.3z M10.7,4.7L10.7,4.7L10.7,4.7L10.7,4.7L10.7,4.7z
		 M10.9,3.7L10.9,3.7h0.1H10.9l-0.2,0.1l0,0L10.9,3.7z M10.8,4.3L10.8,4.3L10.8,4.3L10.8,4.3L10.8,4.3z M10.8,9.7
		C10.8,9.7,10.8,9.7,10.8,9.7L10.8,9.7L10.8,9.7L10.8,9.7z M10.8,3.3c0-0.1,0-0.1,0-0.1L10.8,3.3L10.8,3.3z M10.8,3.9L10.8,3.9
		L10.8,3.9L10.8,3.9z M10.8,4.2L10.8,4.2L10.8,4.2L10.8,4.2z M10.9,3.1C10.9,3.1,10.9,3.1,10.9,3.1L10.9,3.1L10.9,3.1L10.9,3.1
		l0.2,0.2V3.2c0,0,0-0.1,0-0.1L11,3l0.1-0.1C11,2.9,11,3,11,3S10.9,3.1,10.9,3.1L10.9,3.1C10.9,3.1,10.9,3.1,10.9,3.1z M10.9,3.5
		L10.9,3.5L10.9,3.5L10.9,3.5z M10.9,4.3L10.9,4.3L10.9,4.3L10.9,4.3z M10.9,2.9L10.9,2.9L10.9,2.9L10.9,2.9z M10.9,5.4
		C10.9,5.4,10.9,5.4,10.9,5.4C10.9,5.3,10.9,5.3,10.9,5.4L10.9,5.4C10.9,5.3,10.9,5.3,10.9,5.4z M10.9,5.7L10.9,5.7L10.9,5.7
		L10.9,5.7L10.9,5.7z M10.9,3.4C10.9,3.4,10.9,3.4,10.9,3.4C11,3.4,11,3.4,10.9,3.4L10.9,3.4L10.9,3.4C11,3.4,11,3.4,10.9,3.4
		C11,3.3,11,3.3,10.9,3.4L10.9,3.4L10.9,3.4L10.9,3.4z M10.9,4.5L10.9,4.5L10.9,4.5L10.9,4.5L10.9,4.5z M10.9,5.6L10.9,5.6L10.9,5.6
		L10.9,5.6L10.9,5.6z M11,4.5L11,4.5L11,4.5L11,4.5z M11,4.8L11,4.8L11,4.8L11,4.8L11,4.8z M11,3.3L11,3.3C11,3.4,11,3.4,11,3.3z
		 M11,5.1L11,5.1L11,5.1L11,5.1z M11.1,5L11.1,5L11.1,5L11.1,5z M11.1,3.6L11.1,3.6L11.1,3.6L11.1,3.6z M11.1,5.5L11.1,5.5L11.1,5.5
		L11.1,5.5z M11.2,3.9l-0.1-0.1L11.2,3.9L11.1,4L11.2,3.9z M11.3,5.3l-0.2-0.1L11.3,5.3L11.3,5.3z M11.1,4.3l0-0.3L11.1,4.3
		L11.1,4.3L11.1,4.3z M11.1,3.1C11.1,3.1,11.1,3.1,11.1,3.1l0.1,0L11.1,3.1C11.2,3.1,11.2,3.1,11.1,3.1z M11.2,3.3L11.2,3.3
		L11.2,3.3L11.2,3.3z M11.1,3.4L11.1,3.4L11.1,3.4L11.1,3.4L11.1,3.4z M11.1,3.6C11.2,3.6,11.2,3.6,11.1,3.6L11.1,3.6L11.1,3.6
		L11.1,3.6z M11.1,5.5L11.1,5.5C11.1,5.5,11.2,5.5,11.1,5.5L11.1,5.5L11.1,5.5z M11.2,3.2L11.2,3.2L11.2,3.2L11.2,3.2z M11.2,4.4
		L11.2,4.4L11.2,4.4L11.2,4.4z M11.3,4.5L11.3,4.5l-0.1,0L11.3,4.5L11.3,4.5z M11.2,4.7L11.2,4.7L11.2,4.7L11.2,4.7z M11.2,9.5
		L11.2,9.5L11.2,9.5L11.2,9.5z M11.2,3.4L11.2,3.4L11.2,3.4L11.2,3.4z M11.2,4.2L11.2,4.2L11.2,4.2L11.2,4.2z M11.3,4.3
		C11.3,4.3,11.3,4.3,11.3,4.3C11.3,4.3,11.3,4.3,11.3,4.3L11.3,4.3L11.3,4.3C11.3,4.3,11.3,4.3,11.3,4.3C11.3,4.3,11.3,4.3,11.3,4.3
		L11.3,4.3L11.3,4.3L11.3,4.3z M11.3,5L11.3,5L11.3,5L11.3,5L11.3,5z M11.3,5.5L11.3,5.5L11.3,5.5L11.3,5.5L11.3,5.5z M11.3,3.5
		L11.3,3.5L11.3,3.5L11.3,3.5z M11.3,4.3C11.3,4.3,11.3,4.3,11.3,4.3C11.3,4.3,11.3,4.3,11.3,4.3z M11.3,3.2L11.3,3.2L11.3,3.2
		L11.3,3.2L11.3,3.2z M11.4,4.8L11.4,4.8L11.4,4.8L11.4,4.8l-0.1,0l0.1,0.1V4.8z M11.3,5.5L11.3,5.5L11.3,5.5L11.3,5.5
		C11.3,5.5,11.3,5.5,11.3,5.5z M11.4,4.1L11.4,4.1L11.4,4.1L11.4,4.1z M11.4,3.2L11.4,3.2L11.4,3.2L11.4,3.2z M11.4,3.8L11.4,3.8
		L11.4,3.8L11.4,3.8z M11.5,5C11.5,5,11.6,5,11.5,5L11.5,5L11.5,5C11.5,5.1,11.5,5.1,11.5,5z M11.4,9l0-0.1C11.4,8.9,11.4,9,11.4,9z
		 M11.6,3.9c0-0.1,0-0.1,0-0.1l-0.2,0.1L11.6,3.9C11.5,4,11.6,4,11.6,3.9z M11.6,3.6L11.6,3.6L11.6,3.6L11.6,3.6z M11.6,4.3
		C11.6,4.3,11.6,4.3,11.6,4.3l0-0.1L11.6,4.3C11.6,4.3,11.6,4.3,11.6,4.3z M11.6,4.5L11.6,4.5L11.6,4.5L11.6,4.5z M11.7,3.7
		L11.7,3.7L11.7,3.7L11.7,3.7L11.7,3.7z M11.8,4.7L11.8,4.7L11.8,4.7L11.8,4.7z"/>
</g>
</svg>
