<?xml version="1.0" encoding="utf-8"?>
<!-- Generator: Adobe Illustrator 17.1.0, SVG Export Plug-In . SVG Version: 6.00 Build 0)  -->
<!DOCTYPE svg PUBLIC "-//W3C//DTD SVG 1.1//EN" "http://www.w3.org/Graphics/SVG/1.1/DTD/svg11.dtd">
<svg version="1.1" id="Layer_1" xmlns="http://www.w3.org/2000/svg" xmlns:xlink="http://www.w3.org/1999/xlink" x="0px" y="0px"
	 width="17.8px" height="12.2px" viewBox="0 0 17.8 12.2" enable-background="new 0 0 17.8 12.2" xml:space="preserve">
<g>
	<path d="M6.9,10c-0.2,0-0.3-0.1-0.4-0.2L6,9.2C5.9,9.1,5.8,9,5.7,8.8S5.6,8.6,5.6,8.5c0-0.2,0-0.4,0-0.6c0-0.2,0.1-0.3,0.1-0.5
		c0.1-0.1,0.2-0.3,0.3-0.3S6.4,7,6.7,7C6.8,7,6.9,7,7,7c0.1,0,0.3,0.1,0.4,0.2c0.1,0.1,0.2,0.2,0.3,0.3c0.1,0.1,0.1,0.2,0.1,0.3
		c0,0.3,0,0.5-0.1,0.7C7.6,8.6,7.5,8.8,7.3,8.9C7.2,9,7.1,9.1,7,9.2C6.9,9.3,6.9,9.4,6.9,9.5c0,0.1,0,0.2,0.1,0.3
		C7.1,9.9,7.2,9.9,7.4,10c0.1,0,0.3,0.1,0.4,0.1c0.1,0,0.3,0,0.3,0c0.3,0,0.5-0.1,0.7-0.2C9,9.7,9.1,9.5,9.2,9.3s0.1-0.5,0.2-0.8
		s0-0.5,0-0.7c0-0.4,0-0.7-0.1-0.9C9.2,6.6,9.2,6.4,9.1,6.3C9,6.1,8.8,6,8.7,5.9S8.4,5.8,8.2,5.8C8,5.8,7.8,5.7,7.5,5.7
		S7,5.7,6.8,5.6L6.7,5.5l0.1-0.1c0.1,0,0.2,0,0.4,0c0.1,0,0.2,0,0.4,0c0.2,0,0.4,0,0.5-0.1c0.2-0.1,0.3-0.1,0.5-0.2
		C8.7,5.1,8.8,5,9,4.9c0.1-0.2,0.2-0.3,0.3-0.5s0.1-0.2,0.1-0.4c0-0.1,0-0.3,0-0.4c0-0.1,0-0.3,0-0.6c0-0.1,0-0.2,0-0.3
		c0-0.1,0-0.2,0-0.4s0-0.2-0.1-0.3S9.2,1.9,9.1,1.8C9.1,1.8,9,1.7,8.9,1.7c-0.1,0-0.1-0.1-0.2-0.1l0.1,0c0.3,0,0.6,0.1,1,0.2
		c0.4,0.1,0.7,0.2,1,0.4c0.3,0.2,0.6,0.4,0.8,0.7c0.2,0.3,0.3,0.6,0.3,1c0,0.3-0.1,0.5-0.2,0.6c-0.1,0.2-0.2,0.3-0.4,0.4
		c-0.2,0.1-0.3,0.2-0.5,0.3c-0.2,0.1-0.4,0.1-0.5,0.2c-0.2,0.1-0.3,0.1-0.4,0.1c-0.1,0-0.2,0.1-0.2,0.1c0,0.1,0.1,0.1,0.2,0.2
		s0.2,0.1,0.4,0.2c0.1,0.1,0.3,0.1,0.4,0.2c0.1,0,0.2,0.1,0.3,0.1c0.3,0.2,0.5,0.4,0.8,0.7s0.3,0.6,0.3,1c0,0.4-0.1,0.8-0.3,1
		c-0.2,0.3-0.4,0.5-0.7,0.7C11,9.8,10.7,9.9,10.4,10c-0.3,0.1-0.7,0.2-1,0.3c-0.1,0-0.1,0-0.2,0.1c-0.1,0-0.1,0-0.2,0H8.2
		c-0.1,0-0.2-0.1-0.4-0.1c-0.1,0-0.2-0.1-0.4-0.1l-0.1,0C7.2,10.1,7.1,10,6.9,10z M5.9,8.3L5.9,8.3L5.9,8.3L5.9,8.3z M5.9,7.9
		L5.9,7.9L5.9,7.9L5.9,7.9L5.9,7.9z M6.1,2.7c0.1-0.2,0.2-0.4,0.4-0.5C6.7,2,6.8,1.8,7,1.7c0.2-0.1,0.4-0.2,0.5-0.2c0,0,0.1,0,0.1,0
		v0c-0.1,0-0.2,0.1-0.3,0.2S7.4,2,7.4,2.1l0,0.1c0,0,0.1,0.1,0.2,0.2s0.2,0.2,0.2,0.3C7.9,2.8,7.9,2.9,8,3c0.1,0.1,0.1,0.2,0.1,0.2
		c0,0.1,0,0.3-0.1,0.4C7.9,3.8,7.9,3.9,7.8,4C7.7,4.1,7.6,4.1,7.5,4.2S7.2,4.3,7.1,4.3c-0.1,0-0.3,0-0.4-0.1C6.5,4.1,6.4,4.1,6.3,4
		S6.1,3.8,6,3.6S6,3.4,6,3.2C6,3.1,6,2.9,6.1,2.7z M6.2,8.3C6.1,8.3,6.1,8.3,6.2,8.3C6,8.3,6,8.4,6,8.4c0,0,0,0.1,0,0.1
		C6,8.5,6.1,8.4,6.2,8.3c0,0,0.1-0.1,0.2-0.1c0,0,0-0.1-0.1-0.1C6.2,8,6.1,8,6.1,8l0.1-0.2c0,0-0.1,0-0.1,0.1C6.1,8,6,8,6,8.1
		c0,0.1,0,0.1,0.1,0.1C6.2,8.2,6.2,8.2,6.2,8.3C6.2,8.3,6.2,8.3,6.2,8.3z M6.2,7.7L6,7.5C6,7.6,6,7.7,6.2,7.7z M6,7.9
		c0,0,0,0.1,0,0.1l0-0.2C6,7.8,6,7.8,6,7.9z M6,8.2L6,8.2L6,8.2L6,8.2L6,8.2z M6.3,8.7L6.3,8.7l0.2-0.2l0.1,0.1l0-0.1l0-0.1H6.2
		c-0.1,0-0.1,0-0.1,0.1c0,0.1,0,0.1,0,0.2l0,0.2L6.3,8.7z M6.2,9C6.2,9,6.3,9,6.2,9C6.2,8.9,6.2,8.9,6.2,9z M6.2,7.6L6.2,7.6
		L6.2,7.6L6.2,7.6z M6.3,9.2C6.3,9.2,6.3,9.3,6.3,9.2l0-0.1L6.3,9.2C6.3,9.2,6.3,9.2,6.3,9.2z M6.3,7.5c0,0,0.1,0.1,0.1,0.1v0
		L6.3,7.4H6.3C6.3,7.4,6.3,7.5,6.3,7.5z M6.6,7.6c-0.1,0-0.1,0-0.1,0s-0.1,0-0.1,0l0.1,0.1C6.5,7.8,6.5,7.7,6.6,7.6z M6.3,3.2
		L6.3,3.2L6.3,3.2L6.3,3.2z M6.6,8c0.1-0.1,0.2-0.1,0.2-0.2l0.1,0L6.8,7.7l0,0.1l0,0c0-0.1,0-0.2,0.1-0.2c0.1-0.1,0.1-0.1,0.1-0.2
		c-0.1,0-0.1,0-0.2,0.1S6.6,7.5,6.5,7.5c0,0,0,0.1,0,0.1c0,0.1,0,0.1,0,0.1C6.6,7.8,6.6,7.9,6.6,8C6.5,8,6.4,8,6.3,8v0.1
		C6.4,8.1,6.5,8,6.6,8z M6.4,8.3L6.4,8.3L6.4,8.3L6.4,8.3z M6.4,8.7L6.4,8.7L6.4,8.7L6.4,8.7L6.4,8.7z M6.4,9.1L6.4,9.1L6.4,9.1
		L6.4,9.1L6.4,9.1z M6.5,9V8.7L6.4,8.8L6.5,9z M6.5,3.5C6.5,3.5,6.5,3.4,6.5,3.5L6.5,3.5L6.5,3.5z M6.7,8.5c0.1,0,0.1,0,0.2,0
		c0.1,0,0.1,0,0.2,0c0,0,0-0.1-0.1-0.1c0,0-0.1,0-0.1-0.1c0,0,0,0,0.1-0.1c0,0,0.1,0,0.1,0c0,0,0.1,0,0.1,0c0,0,0,0,0-0.1v0L7,8.2
		l0,0C6.9,8.1,6.9,8,7,8c0.1-0.1,0.1-0.1,0.2-0.1L7.1,7.8l0,0l0,0l0,0L7.1,7.4l0,0c0,0.1,0,0.2,0,0.3S6.9,8,6.8,8l0,0c0,0,0,0-0.1,0
		c0,0-0.1,0-0.1,0s-0.1,0-0.1,0.1S6.5,8.2,6.5,8.3c0.1,0,0.1,0,0.2,0s0.1-0.1,0.1-0.1l0,0.1C6.8,8.4,6.8,8.4,6.7,8.5z M6.5,8.9
		L6.5,8.9L6.5,8.9L6.5,8.9z M6.6,3.2C6.6,3.1,6.6,3.1,6.6,3.2L6.6,3.2L6.6,3.2z M6.6,2.9C6.6,2.9,6.7,2.9,6.6,2.9L6.6,2.9L6.6,2.9
		C6.6,2.9,6.6,2.9,6.6,2.9z M6.7,3.3C6.7,3.4,6.6,3.4,6.7,3.3L6.7,3.3L6.7,3.3C6.8,3.3,6.7,3.3,6.7,3.3z M6.8,3.5L6.8,3.5l-0.1,0v0
		H6.8z M6.7,8.4L6.7,8.4L6.7,8.4L6.7,8.4z M6.6,8.8L6.6,8.8L6.6,8.8L6.6,8.8L6.6,8.8z M6.7,9.2L6.7,9.2L6.7,9.2L6.7,9.2L6.7,9.2z
		 M6.8,3.7L6.8,3.7L6.8,3.7L6.8,3.7z M6.7,8.3C6.7,8.3,6.7,8.3,6.7,8.3C6.7,8.3,6.7,8.3,6.7,8.3L6.7,8.3L6.7,8.3z M6.8,2.9L6.8,2.9
		L6.8,2.9L6.8,2.9z M6.9,2.7L6.8,2.8C6.9,2.8,6.9,2.7,6.9,2.7z M6.9,8.7l0-0.1L6.9,8.7L6.9,8.7L6.9,8.7z M6.9,2.4L6.9,2.4L6.9,2.4
		L6.9,2.4z M7,3.3L7,3.3L6.8,3.2L7,3.3L7,3.3z M6.9,7.7l0-0.2L6.9,7.7L6.9,7.7z M6.9,3.5L6.9,3.5L6.9,3.5L6.9,3.5L6.9,3.5z M7,8.8
		L7,8.8L7,8.8L7,8.8L7,8.8z M7,2.5L7,2.5L7,2.5L7,2.5z M7,3.5l0.1-0.1l0,0L7,3.5L7,3.5z M7,2.9C7,2.9,7,2.9,7,2.9C7,2.9,7,2.9,7,2.9
		L7,2.9L7,2.9C7,2.9,7,2.9,7,2.9C7,2.8,7,2.8,7,2.9L7,2.9L7,2.9L7,2.9z M7,2.8L7,2.8C7,2.9,7,2.9,7,2.8z M7,2.8L7,2.8L7,2.8L7,2.8z
		 M7,8.7L7,8.7c0.1,0,0.1,0,0.1-0.1l0,0C7.1,8.6,7,8.6,7,8.7z M7.1,3.6L7.1,3.6L7.1,3.6L7.1,3.6L7.1,3.6L7.1,3.6L7.1,3.6L7.1,3.6z
		 M7.2,2.7L7.1,2.6l0.1,0.2L7.2,2.7z M7.1,3.3l0.1-0.1v0L7.1,3.3L7.1,3.3z M7.1,8.4C7.1,8.4,7.1,8.4,7.1,8.4L7.1,8.4L7.1,8.4
		C7.1,8.4,7.1,8.4,7.1,8.4z M7.2,2.9L7.2,2.9L7.2,2.9L7.2,2.9L7.2,2.9z M7.1,3.7L7.1,3.7L7.1,3.7L7.1,3.7L7.1,3.7z M7.4,8.3L7.2,8.2
		l0,0.1L7.4,8.3L7.4,8.3z M7.3,2.8L7.3,2.8L7.3,2.8L7.3,2.8L7.3,2.8z M7.3,3.7c0,0,0,0.1,0,0.1C7.4,3.8,7.4,3.7,7.3,3.7
		C7.4,3.6,7.3,3.7,7.3,3.7z M7.4,3.3L7.4,3.3L7.4,3.3L7.4,3.3z M7.4,3.1L7.4,3.1L7.4,3.1L7.4,3.1L7.4,3.1z M7.4,3.5L7.4,3.5L7.4,3.5
		L7.4,3.5L7.4,3.5z M7.4,7.9L7.4,7.9L7.4,7.9L7.4,7.9L7.4,7.9z M7.5,3.6L7.5,3.6L7.5,3.6L7.5,3.6L7.5,3.6z M7.6,3.2L7.6,3.2L7.6,3.2
		L7.6,3.2z M7.7,3.5L7.7,3.5L7.7,3.5L7.7,3.5z M8.9,5.6C8.9,5.5,8.9,5.5,8.9,5.6L8.9,5.6L8.9,5.6z M9.1,5.8C9.1,5.8,9.1,5.8,9.1,5.8
		L9.1,5.8L9.1,5.8z M9.1,5.2L9.1,5.2L9.1,5.2C9.1,5.2,9.1,5.2,9.1,5.2z M9.3,5.3L9.2,5.4l0.1,0V5.3z M9.3,5.1L9.3,5.1L9.3,5.1
		L9.3,5.1z M9.3,5.6L9.3,5.6C9.3,5.5,9.3,5.5,9.3,5.6C9.3,5.5,9.3,5.5,9.3,5.6C9.2,5.6,9.3,5.6,9.3,5.6z M9.4,5.1L9.4,5.1l0.1,0.2
		L9.4,5.1z M9.7,5.9c-0.1,0-0.1-0.1-0.2-0.1L9.3,5.9v0L9.7,5.9L9.7,5.9z M9.4,6.3L9.4,6.3L9.4,6.3L9.4,6.3L9.4,6.3z M9.4,4.9
		L9.4,4.9L9.4,4.9L9.4,4.9z M9.4,5.4L9.4,5.4L9.4,5.4C9.4,5.5,9.4,5.4,9.4,5.4z M9.4,5.7L9.4,5.7L9.4,5.7L9.4,5.7z M9.4,6.2L9.4,6.2
		L9.4,6.2L9.4,6.2L9.4,6.2z M9.4,6.1L9.4,6.1L9.4,6.1L9.4,6.1z M9.4,9.5L9.4,9.5L9.4,9.5L9.4,9.5L9.4,9.5z M9.5,5.4L9.5,5.4L9.5,5.4
		L9.5,5.4L9.5,5.4z M9.5,5.6L9.5,5.6L9.5,5.6C9.5,5.5,9.5,5.6,9.5,5.6z M9.5,3.9l0.2,0l0,0L9.5,3.9z M9.5,9.1L9.5,9.1L9.5,9.1
		L9.5,9.1z M9.5,4.6L9.5,4.6L9.5,4.6L9.5,4.6L9.5,4.6z M9.5,4.7L9.5,4.7L9.5,4.7L9.5,4.7L9.5,4.7z M9.6,5.1c0,0.1,0,0.1,0,0.2
		l0.1-0.1L9.6,5.1L9.6,5.1C9.6,5.1,9.6,5,9.7,5s0.1,0,0.2,0c0-0.1,0-0.1-0.1-0.1c-0.1,0-0.1-0.1-0.2-0.1l0,0.1L9.5,4.9
		C9.5,5,9.5,5.1,9.6,5.1z M9.7,9.7L9.5,9.7v0C9.6,9.8,9.6,9.7,9.7,9.7z M9.6,6.3L9.6,6.3L9.6,6.3L9.6,6.3z M9.6,8.9L9.6,8.9L9.6,8.9
		L9.6,8.9z M9.6,6.6L9.6,6.6L9.6,6.6L9.6,6.6z M9.6,6.1L9.6,6.1L9.6,6.1L9.6,6.1z M9.7,7L9.7,7L9.7,7L9.7,7L9.7,7z M9.6,8.5L9.6,8.5
		L9.6,8.5L9.6,8.5L9.6,8.5z M9.6,9.4L9.6,9.4L9.6,9.4L9.6,9.4L9.6,9.4z M9.7,9.5L9.7,9.5L9.7,9.5L9.6,9.6L9.7,9.5z M9.6,5.5
		C9.6,5.5,9.6,5.5,9.6,5.5L9.6,5.5L9.6,5.5L9.6,5.5z M9.7,6.2C9.6,6.2,9.6,6.2,9.7,6.2L9.7,6.2L9.7,6.2C9.7,6.2,9.7,6.2,9.7,6.2z
		 M9.7,6.7L9.6,6.6C9.6,6.6,9.6,6.7,9.7,6.7z M9.8,4.2C9.8,4.2,9.8,4.1,9.8,4.2L9.7,4.1L9.8,4.2L9.8,4.2z M9.7,4.3L9.7,4.3L9.7,4.3
		L9.7,4.3z M9.7,8.3L9.7,8.3L9.7,8.3L9.7,8.3z M9.8,4.5C9.8,4.5,9.7,4.5,9.8,4.5C9.7,4.6,9.7,4.6,9.8,4.5C9.7,4.6,9.7,4.6,9.7,4.6
		C9.7,4.6,9.7,4.6,9.8,4.5c0.1,0,0.1,0,0.1,0L9.8,4.5C9.8,4.5,9.8,4.5,9.8,4.5z M9.7,7L9.7,7L9.7,7C9.7,7.1,9.7,7,9.7,7z M9.7,7.9
		L9.7,7.9L9.7,7.9L9.7,7.9z M9.7,9L9.7,9l0,0.1L9.7,9z M9.7,9.3L9.7,9.3L9.7,9.3L9.7,9.3z M9.8,2.4l0.1-0.1L9.8,2.2L9.8,2.4L9.8,2.4
		z M9.7,6.5C9.7,6.5,9.7,6.5,9.7,6.5L9.7,6.5C9.8,6.5,9.8,6.4,9.7,6.5C9.7,6.4,9.7,6.4,9.7,6.5L9.7,6.5C9.7,6.4,9.7,6.4,9.7,6.5z
		 M9.8,3.1C9.8,3.1,9.7,3.2,9.8,3.1L9.8,3.1L9.8,3.1C9.8,3.1,9.8,3.1,9.8,3.1z M9.8,3.4L9.8,3.4v0.1V3.4z M9.8,8.5V8.4V8.5L9.8,8.5
		L9.8,8.5z M10.1,8.6L9.7,8.5l0.1,0.2L10.1,8.6z M10,8.8L10,8.8L9.7,8.9L9.9,9L10,8.8z M9.8,6.2L9.8,6.2L9.8,6.2L9.8,6.2L9.8,6.2z
		 M9.8,7.7L9.8,7.7L9.8,7.7L9.8,7.7L9.8,7.7z M9.8,2.1L9.8,2.1L9.8,2.1L9.8,2.1L9.8,2.1z M9.9,3.9L9.8,3.9L10,4L9.9,3.9z M10,6.8
		l-0.1,0L9.8,6.8l0.1,0.1L10,6.8z M10,7.3V7.2c-0.1,0-0.2,0-0.3-0.1v0.1L10,7.3z M9.8,7.8L9.8,7.8L9.8,7.8C9.8,7.9,9.8,7.8,9.8,7.8z
		 M10,9.4L10,9.4l-0.2,0l0,0.1L10,9.4z M9.8,3L9.8,3L9.8,3L9.8,3z M10,8.3L10,8.3l-0.2,0l0.1,0.1L10,8.3z M10,2.7
		C10,2.7,10,2.7,10,2.7C9.9,2.7,9.9,2.7,9.8,2.7h0C9.9,2.7,9.9,2.7,10,2.7z M9.9,6.5C10,6.5,10,6.4,9.9,6.5C9.9,6.4,9.9,6.4,9.9,6.5
		C9.9,6.5,9.9,6.5,9.9,6.5L9.9,6.5L9.9,6.5z M10.1,2.6l0.1-0.1l-0.3,0C9.9,2.5,10,2.6,10.1,2.6z M10,3.1L9.9,3.2l0,0L10,3.1z
		 M9.9,3.6L9.9,3.6L9.9,3.6C9.9,3.7,9.9,3.7,9.9,3.6z M9.9,6.3L9.9,6.3L9.9,6.3L9.9,6.3z M9.9,8.2L9.9,8.2L9.9,8.2L9.9,8.2z
		 M9.9,9.2L9.9,9.2L9.9,9.2L9.9,9.2z M9.9,9.6L9.9,9.6L9.9,9.6L9.9,9.6z M9.9,4.1c0,0,0,0.1,0,0.1C10,4.2,10,4.1,10,4.1
		C10,4.1,10,4.1,9.9,4.1z M10,4.2L9.9,4.3l0,0L10,4.2z M9.9,8L9.9,8L9.9,8L9.9,8L9.9,8z M9.9,9.8L9.9,9.8L9.9,9.8L9.9,9.8L9.9,9.8z
		 M10.1,3.1c0-0.1,0-0.1,0-0.2c0-0.1,0-0.1,0-0.2L9.9,2.9L10.1,3.1L10.1,3.1z M10,4.6L10,4.6L10,4.6L10,4.6z M10.1,7
		c0,0,0.1,0,0.1,0.1c0,0,0.1,0.1,0.1,0.1c0,0,0.1,0,0.1,0c0,0,0.1-0.1,0.1-0.1c-0.1,0-0.1,0-0.2,0.1c-0.1,0-0.1-0.1-0.1-0.1L9.9,7.1
		l0,0L10.1,7z M10,7.6L10,7.6L10,7.6L10,7.6z M10,3.9L10,3.9L10,3.9L10,3.9L10,3.9z M10,5.1C10,5.1,10,5.1,10,5.1L10,5.1L10,5.1
		C10,5.1,10,5.1,10,5.1z M10.1,6.6H10v0.1L10.1,6.6z M10,9L10,9L10.1,9l0-0.1h0L10,9z M10.2,2.3L10.2,2.3l-0.2-0.1L10,2.3l0,0
		L10.2,2.3z M10.1,3.7L10.1,3.7L10.1,3.7c0-0.1,0-0.1,0-0.1c0,0,0-0.1,0-0.1c0,0,0,0,0,0c0,0,0,0,0-0.1l-0.1,0L10,3.5
		C10,3.5,10.1,3.6,10.1,3.7z M10,4.7L10,4.7C10.1,4.6,10,4.6,10,4.7C10,4.6,10,4.6,10,4.7z M10.2,4.8L10,4.9l0,0L10.2,4.8z M10,8.2
		c0,0,0,0.1,0,0.1l0.3-0.2c0,0,0.1,0,0.1,0.1c0,0,0,0.1,0,0.1l0.1-0.1c0-0.1,0-0.1-0.1-0.2c0,0-0.1-0.1-0.1-0.1c0,0,0,0.1-0.1,0.1
		c0,0-0.1,0.1-0.1,0.1L10,8C10,8.1,10,8.1,10,8.2z M10.1,8.6c0.1,0,0.1,0,0.1,0c0,0,0-0.1,0-0.1c0,0,0-0.1,0.1-0.1L10.1,8.6
		C10,8.5,10,8.6,10.1,8.6z M10.1,5.1L10.1,5.1L10.1,5.1L10.1,5.1L10.1,5.1z M10.3,7.5L10.3,7.5l0-0.1h0.1l-0.1-0.2L10,7.5l0.1,0
		L10.3,7.5z M10,7.9L10,7.9h0.2C10.2,7.9,10.1,7.9,10,7.9z M10.2,6.4L10.2,6.4h-0.2H10.2L10.2,6.4z M10.2,7.7
		C10.2,7.7,10.2,7.7,10.2,7.7c-0.1-0.1-0.1-0.1-0.1-0.1l0,0C10.1,7.7,10.2,7.7,10.2,7.7z M10.3,9.6L10.3,9.6l-0.1,0l-0.1-0.2l0-0.1
		l-0.1,0v0.5C10.2,9.7,10.3,9.7,10.3,9.6z M10.3,3.2C10.3,3.2,10.3,3.2,10.3,3.2c0.1,0.1,0.2,0.1,0.2,0.1l0,0c0,0,0,0-0.1,0
		c0,0,0,0,0-0.1c0,0,0,0,0-0.1C10.4,3.1,10.3,3.1,10.3,3.2l-0.1,0.1l0.1,0.1L10.3,3.2z M10.2,4C10.2,4,10.2,3.9,10.2,4
		c-0.1-0.1-0.1-0.1-0.1-0.1V4H10.2z M10.2,8.7c0,0-0.1,0.1-0.1,0.1l0.2-0.2C10.3,8.6,10.3,8.6,10.2,8.7z M10.5,2.9l-0.2-0.1
		l-0.1,0.2l0,0L10.5,2.9z M10.3,4.7L10.3,4.7L10.3,4.7L10.3,4.7z M10.3,8.3L10.3,8.3l0.1,0.2L10.3,8.3z M10.3,9.2L10.3,9.2L10.3,9.2
		C10.2,9.2,10.3,9.2,10.3,9.2z M10.2,3.8L10.2,3.8L10.2,3.8L10.2,3.8C10.2,3.7,10.2,3.8,10.2,3.8z M10.3,7.7c0-0.1,0-0.1-0.1-0.1
		C10.3,7.6,10.3,7.7,10.3,7.7z M10.3,2.4L10.3,2.4L10.3,2.4L10.3,2.4z M10.3,2.5C10.3,2.6,10.3,2.6,10.3,2.5L10.3,2.5L10.3,2.5
		C10.4,2.5,10.3,2.5,10.3,2.5z M10.3,3.6L10.3,3.6L10.3,3.6L10.3,3.6L10.3,3.6z M10.3,4.5L10.3,4.5L10.3,4.5L10.3,4.5L10.3,4.5z
		 M10.4,6.8L10.4,6.8L10.4,6.8C10.3,6.9,10.3,6.8,10.4,6.8z M10.4,9.4c0,0,0.1-0.1,0.1-0.2c0-0.1,0.1-0.1,0.1-0.2
		C10.7,9,10.8,9,10.8,9L11,9l-0.2-0.1l-0.2,0l-0.1,0l0,0l-0.1,0.1l0,0.1l-0.2,0.2l0,0.1C10.4,9.4,10.4,9.4,10.4,9.4z M10.3,9L10.4,9
		l0-0.1L10.3,9L10.3,9z M10.3,4.4L10.3,4.4L10.3,4.4L10.3,4.4z M10.3,8.6l0.1,0l0,0L10.3,8.6z M10.3,3.8L10.3,3.8L10.3,3.8L10.3,3.8
		L10.3,3.8z M10.3,4.1L10.3,4.1L10.3,4.1C10.4,4,10.4,4,10.3,4.1z M10.4,6.3L10.4,6.3L10.4,6.3L10.4,6.3L10.4,6.3z M10.3,7.9
		C10.4,7.9,10.4,7.9,10.3,7.9c0.1,0,0.1-0.1,0.1-0.1L10.3,7.9C10.4,7.8,10.3,7.8,10.3,7.9z M10.5,3.4L10.5,3.4L10.5,3.4L10.5,3.4z
		 M10.5,6.6c0,0,0,0.1,0,0.1l0.1,0l-0.1-0.2l0.1-0.1l0,0c0,0-0.1,0-0.1,0.1c0,0,0,0.1,0,0.1C10.4,6.5,10.4,6.6,10.5,6.6z M10.5,7.6
		L10.5,7.6h-0.1H10.5z M10.5,9.7L10.5,9.7L10.5,9.7L10.5,9.7L10.5,9.7z M10.5,2.7L10.5,2.7L10.5,2.7L10.5,2.7L10.5,2.7z M10.6,3.9
		h-0.1l0,0.1L10.6,3.9z M10.6,4.6L10.6,4.6l-0.2,0l0,0L10.6,4.6z M11,8.5c0,0,0-0.1,0-0.1c0,0-0.1-0.1-0.1-0.1s-0.1-0.1-0.1-0.1
		c0,0,0-0.1,0-0.1c0,0,0-0.1,0-0.1c0,0,0-0.1,0.1-0.1l0.2,0.1l0.2-0.2L11,7.5c-0.1,0.1-0.1,0.2-0.3,0.2c0,0.1,0,0.2-0.1,0.2
		c-0.1,0-0.1,0.1-0.2,0.1c0.1,0.1,0.1,0.1,0.1,0.2c0,0,0.1,0.1,0.1,0.2c-0.1,0-0.1,0-0.1,0s0,0.1,0,0.1c0,0,0.1,0,0.1,0
		c0,0,0.1,0,0.1,0l0.1,0.1l0,0.2L11,8.5z M10.6,8.7L10.6,8.7l-0.1,0.1L10.6,8.7z M10.5,4.3L10.5,4.3L10.5,4.3L10.5,4.3L10.5,4.3z
		 M10.5,7.2C10.5,7.2,10.5,7.2,10.5,7.2L10.5,7.2L10.5,7.2C10.5,7.2,10.5,7.2,10.5,7.2z M10.5,9.5L10.5,9.5L10.5,9.5L10.5,9.5
		C10.5,9.4,10.5,9.4,10.5,9.5z M10.5,2.4L10.5,2.4L10.5,2.4L10.5,2.4z M10.5,3L10.5,3l0.1-0.1v0C10.6,2.9,10.6,3,10.5,3z M10.6,3.4
		L10.6,3.4L10.6,3.4L10.6,3.4L10.6,3.4z M10.7,7.4L10.7,7.4L10.7,7.4l-0.1,0l0,0l0.1,0.1L10.7,7.4z M10.6,7.1L10.6,7.1L10.6,7.1
		L10.6,7.1z M10.7,9.2c-0.1,0.1-0.1,0.1-0.1,0.2C10.6,9.3,10.7,9.3,10.7,9.2c0.1,0,0.2,0,0.2-0.1C10.8,9.1,10.7,9.1,10.7,9.2z
		 M10.7,2.6l-0.1,0.2l0,0L10.7,2.6z M10.6,3.8C10.6,3.8,10.6,3.8,10.6,3.8L10.6,3.8l0.2,0L10.6,3.8C10.7,3.8,10.6,3.8,10.6,3.8z
		 M10.7,4.3c0,0-0.1,0.1-0.1,0.1C10.7,4.4,10.7,4.4,10.7,4.3c0.1,0.1,0.1,0,0.1,0C10.8,4.2,10.7,4.2,10.7,4.3z M10.7,6.5L10.7,6.5
		L10.7,6.5L10.7,6.5z M10.7,6.9V6.8h-0.1L10.7,6.9L10.7,6.9z M10.8,8.7l-0.1-0.1l0,0.1l0.1,0.1L10.8,8.7z M10.7,9.5l-0.1,0v0
		C10.6,9.5,10.7,9.5,10.7,9.5z M10.8,3.1c0,0,0-0.1,0-0.1h0l-0.1,0.2l0.1,0.1C10.7,3.2,10.7,3.2,10.8,3.1z M10.8,4.1
		c0-0.1,0-0.1,0-0.1c0,0,0,0,0-0.1l-0.2,0.2H10.8z M10.8,7.2c0,0,0,0.1,0,0.1c0,0,0.1,0,0.2-0.1C11,7.3,11,7.2,11,7.2
		c0,0,0-0.1,0-0.1c0,0,0,0-0.1,0c0,0,0,0-0.1,0s0,0,0-0.1l0,0c0,0,0,0.1,0,0.1C10.8,7.1,10.8,7.2,10.8,7.2
		C10.8,7.2,10.8,7.2,10.8,7.2z M10.8,2.4L10.8,2.4L10.8,2.4L10.8,2.4z M10.8,3.3L10.8,3.3L10.8,3.3L10.8,3.3z M10.8,4.6
		C10.8,4.6,10.8,4.6,10.8,4.6C10.8,4.6,10.8,4.6,10.8,4.6C10.8,4.6,10.8,4.6,10.8,4.6z M10.8,6.6L10.8,6.6L10.8,6.6L10.8,6.6z
		 M11,2.8c0.1-0.1,0.1-0.1,0.1-0.2C11,2.6,11,2.6,11,2.8c-0.1,0-0.1,0-0.2,0l0,0.1C10.9,2.9,10.9,2.8,11,2.8z M10.8,3.6
		c0,0,0.1,0.1,0.1,0.1C11,3.7,10.9,3.7,10.8,3.6C10.9,3.6,10.9,3.6,10.8,3.6c0.1-0.1,0.1-0.1,0-0.1s0,0-0.1,0
		C10.8,3.5,10.8,3.6,10.8,3.6z M10.9,8.2L10.9,8.2L10.9,8.2L10.9,8.2z M10.9,4.2L10.9,4.2L10.9,4.2L10.9,4.2z M11,2.9L11,2.9L10.9,3
		L11,2.9z M10.9,3.9L10.9,3.9L10.9,3.9L10.9,3.9L10.9,3.9z M11,4.7c0-0.1,0-0.1-0.1-0.1L11,4.7L11,4.7z M11,6.7L11,6.7L11,6.7
		L11,6.7z M11,7.4L11,7.4L11,7.4L11,7.4L11,7.4z M10.9,8.8L10.9,8.8L10.9,8.8L10.9,8.8L10.9,8.8z M10.9,8.2L10.9,8.2L10.9,8.2
		L10.9,8.2L10.9,8.2z M11,7c0,0,0,0.1,0.1,0.1L11.1,7L11,6.8C11,6.9,11,6.9,11,7z M11.1,8.7L11.1,8.7L11.1,8.7L11.1,8.7z M11.1,4.3
		c0,0,0.1,0.1,0.2,0.1l0-0.1l0-0.1l-0.1-0.1l0,0L11.2,4l0.1,0.1c0,0,0.1-0.1,0.1-0.1c0.1-0.1,0.1-0.1,0.1-0.2c0,0-0.1,0-0.1,0
		c0,0-0.1,0-0.1,0.1l-0.1,0v0.1l0,0l-0.2-0.1L11,4.2C11.1,4.2,11.1,4.3,11.1,4.3z M11,9.2C11,9.1,11,9.1,11,9.2L11,9.2L11,9.2z
		 M11.1,3.2L11.1,3.2C11.2,3.1,11.1,3.1,11.1,3.2C11.1,3.1,11,3.1,11.1,3.2C11,3.1,11,3.2,11.1,3.2z M11.1,3.5
		C11.1,3.5,11.1,3.5,11.1,3.5l0-0.1L11.1,3.5C11,3.4,11,3.4,11.1,3.5z M11.1,4.5c0,0,0.1,0,0.1,0v0L11,4.4C11,4.5,11,4.5,11.1,4.5z
		 M11.2,7.3c0,0,0.1,0,0.1,0c0,0,0.1,0,0.1,0c0,0,0.1,0,0.1-0.1C11.4,7.2,11.3,7.2,11.2,7.3c0-0.1-0.1-0.1-0.1,0L11.2,7.3
		C11.1,7.3,11.1,7.3,11.2,7.3z M11.1,3.7L11.1,3.7L11.1,3.7L11.1,3.7z M11.1,9.4L11.1,9.4L11.1,9.4L11.1,9.4L11.1,9.4z M11.2,7.9
		L11.2,7.9L11.1,8C11.2,8,11.2,8,11.2,7.9z M11.3,8.4C11.3,8.3,11.4,8.3,11.3,8.4l0.1-0.1l0.1-0.1l0,0l-0.1,0.1l-0.1-0.1l-0.1,0
		l0.2,0.1L11.3,8.4l-0.1,0.1C11.3,8.4,11.3,8.4,11.3,8.4z M11.1,8.4L11.1,8.4L11.1,8.4L11.1,8.4L11.1,8.4z M11.1,9.1L11.2,9
		l-0.1-0.2L11.1,9.1L11.1,9.1z M11.1,8.6l0.1-0.1L11.1,8.6L11.1,8.6z M11.1,7.6L11.1,7.6L11.1,7.6L11.1,7.6z M11.2,9.3L11.2,9.3
		L11.2,9.3L11.2,9.3L11.2,9.3z M11.2,8.8L11.2,8.8L11.2,8.8C11.2,8.7,11.2,8.7,11.2,8.8z M11.2,3L11.2,3L11.2,3L11.2,3L11.2,3z
		 M11.2,7.1L11.2,7.1L11.2,7.1L11.2,7.1L11.2,7.1z M11.3,7.9C11.4,7.9,11.4,8,11.5,8c0.1,0,0.2,0,0.2-0.1l-0.1,0l-0.2,0.1l-0.2-0.2
		h0C11.2,7.8,11.3,7.8,11.3,7.9z M11.3,2.9L11.3,2.9L11.3,2.9L11.3,2.9L11.3,2.9z M11.3,3.4L11.3,3.4L11.3,3.4L11.3,3.4z M11.3,3.7
		L11.3,3.7L11.3,3.7C11.3,3.8,11.3,3.8,11.3,3.7z M11.5,7.7c0,0-0.1-0.1-0.1-0.1c0,0-0.1-0.1-0.1-0.1v0.1L11.5,7.7L11.5,7.7z
		 M11.3,9.1L11.3,9.1L11.3,9.1L11.3,9.1L11.3,9.1z M11.3,4.5L11.3,4.5L11.3,4.5L11.3,4.5L11.3,4.5z M11.3,8.8L11.3,8.8L11.3,8.8
		L11.3,8.8z M11.4,4.2L11.4,4.2L11.4,4.2L11.4,4.2z M11.4,7.1L11.4,7.1L11.4,7.1L11.4,7.1z M11.5,8.6c0-0.1,0.1-0.1,0.1-0.2
		C11.5,8.4,11.4,8.4,11.5,8.6c-0.1,0-0.1,0-0.1,0.1l0.1,0.1C11.4,8.7,11.4,8.6,11.5,8.6z M11.4,3.1L11.4,3.1v0.2V3.1z M11.5,3.6
		l-0.1-0.1v0L11.5,3.6L11.5,3.6z M11.4,3.3L11.4,3.3L11.4,3.3L11.4,3.3L11.4,3.3z M11.4,3.4L11.4,3.4L11.4,3.4L11.4,3.4L11.4,3.4z
		 M11.5,4.3C11.5,4.3,11.5,4.2,11.5,4.3L11.5,4.3L11.5,4.3z M11.4,7L11.4,7L11.4,7L11.4,7L11.4,7z M11.5,7.3L11.5,7.3l-0.1,0
		L11.5,7.3L11.5,7.3z M11.5,9L11.5,9L11.5,9L11.5,9L11.5,9z M11.6,7.4L11.6,7.4l-0.1,0.1C11.6,7.5,11.6,7.5,11.6,7.4z M11.6,3.6
		l0.1-0.1L11.6,3.6z M11.6,8.3L11.6,8.3L11.6,8.3L11.6,8.3z M11.6,8.4L11.6,8.4L11.6,8.4L11.6,8.4L11.6,8.4L11.6,8.4L11.6,8.4
		L11.6,8.4z M11.7,7.7L11.7,7.7L11.7,7.7L11.7,7.7z M11.7,8.3L11.7,8.3L11.7,8.3L11.7,8.3L11.7,8.3z M11.7,8.5
		C11.7,8.5,11.7,8.5,11.7,8.5L11.7,8.5L11.7,8.5L11.7,8.5z M11.7,8L11.7,8L11.7,8L11.7,8z M11.9,7.8c0-0.1-0.1-0.1-0.2-0.1L11.9,7.8
		L11.9,7.8z M11.9,8.3L11.9,8.3L11.9,8.3L11.9,8.3z"/>
</g>
</svg>
