<?xml version="1.0" encoding="utf-8"?>
<!-- Generator: Adobe Illustrator 17.1.0, SVG Export Plug-In . SVG Version: 6.00 Build 0)  -->
<!DOCTYPE svg PUBLIC "-//W3C//DTD SVG 1.1//EN" "http://www.w3.org/Graphics/SVG/1.1/DTD/svg11.dtd">
<svg version="1.1" id="Layer_1" xmlns="http://www.w3.org/2000/svg" xmlns:xlink="http://www.w3.org/1999/xlink" x="0px" y="0px"
	 width="17.8px" height="12.2px" viewBox="0 0 17.8 12.2" enable-background="new 0 0 17.8 12.2" xml:space="preserve">
<g>
	<path d="M8,10.2c-0.5,0-1,0-1.5,0c0,0-0.1,0-0.1,0c-0.1,0-0.1-0.1-0.1-0.1c0-0.1,0-0.1,0.1-0.2c0.1-0.1,0.1-0.1,0.2-0.1
		c0.2,0,0.3,0,0.5,0.1c0.2,0,0.3,0.1,0.5,0.1c0.2,0,0.4,0,0.5-0.1s0.2-0.2,0.2-0.3C8.4,9.3,8.4,9.1,8.4,9c0-0.2,0-0.3,0-0.5
		c0,0,0-0.1,0-0.2c0-0.1,0-0.2,0-0.3c0-0.1,0-0.2-0.1-0.2S8.3,7.7,8.2,7.7H7.4H7.1c-0.1,0-0.3,0-0.4,0s-0.3,0-0.4,0
		c-0.1,0-0.2,0-0.3,0c-0.1,0-0.1,0-0.3,0s-0.2,0-0.3,0c-0.1,0-0.2,0-0.3-0.1c-0.1,0-0.1-0.1-0.1-0.2c0,0,0-0.1,0-0.1
		c0,0,0.1-0.1,0.1-0.1c0,0,0.1-0.1,0.1-0.1C5.5,7,5.5,7,5.5,7c0,0,0.1-0.1,0.1-0.2c0.1-0.1,0.1-0.2,0.2-0.3C5.9,6.4,6,6.3,6,6.2
		c0.1-0.1,0.1-0.1,0.2-0.1c0.4-0.5,0.8-1,1.2-1.5S8.1,3.5,8.4,3c0-0.1,0.1-0.2,0.2-0.4s0.2-0.4,0.3-0.6s0.2-0.4,0.3-0.5
		c0.1-0.2,0.2-0.2,0.2-0.2h0.9l0.1,0c0.1,0,0.2,0,0.3,0.1C10.9,1.4,11,1.5,11,1.7c0,0.2,0,0.4,0,0.5c0,0.2,0,0.4,0,0.5
		c0,0.8,0,1.6,0,2.3c0,0.8,0,1.6,0,2.3l0.1,0.2h1c0.1,0,0.1,0,0.2,0s0.2,0,0.3,0s0.1,0,0.2,0.1c0.1,0,0.1,0.1,0.1,0.2l-0.1,0.1
		c-0.1,0-0.3,0-0.4-0.1c-0.1,0-0.3-0.1-0.4-0.1c-0.2,0-0.3,0-0.5,0c-0.1,0-0.2,0-0.3,0S10.9,8,10.8,8.1c0,0.1-0.1,0.3-0.1,0.5
		c0,0.3,0,0.5,0,0.6c0,0.2,0.1,0.3,0.2,0.4c0.1,0.1,0.2,0.2,0.4,0.2c0.2,0,0.4,0.1,0.6,0.1c0.1,0,0.1,0,0.2,0c0.1,0,0.1,0,0.2,0
		l0.1,0.2c0,0.1,0,0.1-0.1,0.1c-0.1,0-0.1,0-0.2,0H9.6C9.1,10.2,8.6,10.2,8,10.2z M7.2,7.4c0.2,0,0.5,0,0.7,0c0.2,0,0.3,0,0.4-0.1
		C8.5,7.3,8.5,7.1,8.5,7c0-0.4,0-0.8,0-1.1c0-0.4,0-0.8,0-1.1V4.5c0-0.1,0-0.2,0-0.3c0-0.1,0-0.2,0-0.3s0-0.1-0.1-0.1
		c0,0-0.1,0-0.1,0.1C8.2,3.9,8.1,4,8,4.1C8,4.2,7.9,4.3,7.8,4.5C7.7,4.6,7.6,4.7,7.5,4.9C7.4,5,7.3,5.1,7.3,5.2
		C7.2,5.3,7.1,5.4,7.1,5.4c0,0-0.1,0.1-0.1,0.2S6.8,5.8,6.7,5.9C6.6,6,6.5,6.1,6.4,6.3C6.3,6.4,6.2,6.5,6.2,6.6
		C6.1,6.8,6,6.9,5.9,6.9C5.9,7,5.9,7.1,5.9,7.1c0,0,0,0,0,0.1c0,0,0,0.1,0,0.1h0.5l0.1,0.1C6.7,7.3,7,7.3,7.2,7.4z M8.6,9.9
		c0,0,0.1,0,0.1-0.1c0,0,0.1-0.1,0.1-0.1l0,0C8.7,9.7,8.6,9.8,8.6,9.9z M8.8,8c0,0,0.1,0,0.1,0C9,8,9,7.9,9,7.9s0.1-0.1,0.2-0.1
		l0.1-0.2l0.2,0.1l0-0.1c0-0.1,0-0.1-0.1-0.1c-0.1,0-0.1-0.1-0.1-0.1c0-0.1,0-0.1,0.1-0.2S9.6,7,9.6,7l-0.1,0C9.4,6.9,9.4,7,9.4,7
		c0,0.1,0,0.1-0.1,0.1l0,0c0-0.1,0-0.1,0.1-0.2c0.1,0,0.1-0.1,0.1-0.2L9.4,6.8l0,0c0,0.1,0,0.1,0,0.2C9.3,7,9.2,7,9.2,7L9.1,6.9L9,7
		L9,7L8.7,7.2l0.2-0.1H9c0,0,0,0,0.1,0c0,0,0.1,0,0.1,0l0,0.1l0.2,0.2l-0.1,0l0,0l-0.1,0l0.1,0.1l0,0H9.1l0-0.1l0-0.1
		c0,0,0,0.1,0,0.1c0,0,0,0.1,0,0.1c0,0,0,0.1,0,0.1c0,0-0.1,0-0.1,0L8.7,7.6L8.6,7.7l0.1,0.1l0.1,0C8.8,7.8,8.8,7.9,8.8,8
		C8.8,8,8.8,8.1,8.8,8z M8.7,7.5L8.7,7.5L8.7,7.5L8.7,7.5z M8.7,7.9C8.7,7.9,8.6,7.9,8.7,7.9L8.7,7.9L8.7,7.9z M8.8,9.6L8.8,9.6
		l0-0.2c0,0,0-0.1,0-0.1s0.1,0,0.1,0l0.1,0c0,0,0.1,0,0.1-0.1L9,9.1l-0.1,0l0,0L8.7,9.2l0.1,0.1L8.6,9.5h0.1L8.8,9.6L8.8,9.6z
		 M8.7,7.6L8.7,7.6L8.7,7.6L8.7,7.6L8.7,7.6z M8.9,8.7l0,0.1L9,8.9c0-0.1,0-0.1,0.1-0.1s0.1,0,0.2,0l0.1,0l0.2-0.2l-0.1,0L9.3,8.5
		c0,0,0,0,0,0c0,0,0,0,0,0c0,0-0.1,0-0.1,0v0H9V8.4h0.1L9,8.3l0-0.2L9,8.2l0,0.1l-0.1,0l-0.1,0l0,0l0.1,0.1L8.7,8.5l0,0.1L8.7,8.8
		l0.1,0.1L8.9,8.7z M8.8,3.2L8.8,3.2L8.8,3.2L8.8,3.2z M8.8,3.5L8.8,3.5L8.8,3.5L8.8,3.5z M8.8,7.3L8.8,7.3L8.8,7.3L8.8,7.3z
		 M8.8,5.3L8.8,5.3L8.8,5.3L8.8,5.3z M8.9,7.5c0,0,0,0.1-0.1,0.1L9,7.7L8.9,7.5L8.9,7.5L9,7.4C8.9,7.4,8.9,7.5,8.9,7.5z M8.8,5
		c0.1,0,0.1,0,0.1-0.1C8.8,4.9,8.8,5,8.8,5z M8.9,6.5L8.9,6.5L8.9,6.5C8.9,6.6,8.9,6.5,8.9,6.5z M8.8,6.8L8.8,6.8
		C8.9,6.8,8.9,6.8,8.8,6.8C8.9,6.8,8.9,6.7,8.8,6.8L8.8,6.8C8.8,6.7,8.8,6.7,8.8,6.8z M8.8,5.5L9,5.4L8.8,5.5z M9,6.9l-0.2,0l0,0H9z
		 M8.9,7.3L8.9,7.3L8.9,7.3l0,0.1L8.9,7.3z M8.9,8.2L8.9,8.2L8.9,8.2L8.9,8.2z M8.9,3.9L8.9,3.9L8.9,3.9L8.9,3.9z M8.9,6.6L8.9,6.6
		L8.9,6.6L8.9,6.6z M8.8,7.3l0.1,0l0,0L8.8,7.3z M8.9,9.4L8.9,9.4L8.9,9.4L8.9,9.4z M8.9,9.7L8.9,9.7L8.9,9.7L8.9,9.7z M8.9,4.4
		L8.9,4.4L8.9,4.4C8.9,4.4,8.9,4.4,8.9,4.4z M8.9,6L8.9,6L8.9,6L8.9,6z M8.9,9.8L8.9,9.8L8.9,9.8L8.9,9.8z M9,5.2L9,5.2L9,5.2L9,5.2
		z M9,4.1V4h0C8.9,4,8.9,4.1,9,4.1z M9,3.3L9,3.3L9,3.3L9,3.3L9,3.3z M9,5.9L9,5.9L9,5.9L9,5.9L9,5.9z M9,6.3L9,6.3L9,6.3L9,6.3
		L9,6.3z M9,7.3L9,7.3L9,7.3L9,7.3L9,7.3z M9,9.6L9,9.6L9,9.6L9,9.6L9,9.6z M9,9.7L9,9.7L9,9.7L9,9.7z M9.3,6.2
		c0,0.1,0.1,0.1,0.1,0.1l0.1,0L9.3,6.2l0.2-0.2l0,0L9.3,5.9l0.2-0.1l0,0l0.1,0c0,0,0.1,0,0.1-0.1l0,0.1l0,0.1l0.1-0.1
		c0,0,0-0.1,0-0.2s0-0.1-0.1-0.2v0.1l-0.1,0l0,0H9.3c0,0,0,0.1-0.1,0.2C9.2,5.7,9.1,5.7,9.1,5.8h0.2c0,0.1-0.1,0.1-0.2,0.2
		C9,6,9,6,9,6.1L9.2,6v0C9.2,6.1,9.3,6.1,9.3,6.2z M9,5.9L9,5.9L9,5.9L9,5.9z M9.1,9.6C9.1,9.7,9.1,9.7,9.1,9.6c0,0.1,0.1,0,0.1,0
		c0.1-0.1,0.1-0.1,0.1-0.2L9.2,9.3l-0.1,0L9,9.3c0,0,0,0.1,0,0.1c0,0,0,0,0,0c0,0,0,0,0,0C9.1,9.5,9.1,9.5,9.1,9.6
		C9.1,9.6,9.1,9.6,9.1,9.6z M9,6.8V6.7V6.8L9,6.8z M9.1,4.7C9.1,4.7,9.1,4.7,9.1,4.7l0-0.1h0L9.1,4.7C9,4.8,9.1,4.8,9.1,4.7z M9,6.8
		C9,6.9,9,6.9,9,6.8C9.1,6.9,9.1,6.9,9,6.8C9.1,6.8,9.1,6.8,9,6.8z M9,8L9,8L9,8L9,8L9,8z M9,2.7L9,2.7L9,2.7L9,2.7z M9,3L9,3L9,3
		L9,3L9,3z M9.1,6.2L9.1,6.2L9.1,6.2L9.1,6.2z M9,8.1L9,8.1L9,8.1L9,8.1L9,8.1z M9,9L9,9L9,9L9,9L9,9z M9,9.3L9,9.3L9,9.3L9,9.3
		L9,9.3z M9.1,3.5C9.1,3.5,9.2,3.5,9.1,3.5L9.1,3.5L9.1,3.5C9.1,3.5,9.1,3.5,9.1,3.5z M9,3.6L9,3.6l0.1,0.1C9.1,3.7,9.1,3.6,9,3.6z
		 M9.2,4.2L9.1,4L9,4.1L9.2,4.2L9,4.2L9.2,4.2L9.2,4.2z M9.1,4.4L9.1,4.4L9.1,4.4C9.1,4.5,9.1,4.4,9.1,4.4z M9.2,6.6L9,6.6l0,0.1
		L9.2,6.6z M9.3,9.8l-0.2,0l0,0H9.3z M9.1,2.4L9.1,2.4L9.1,2.4L9.1,2.4z M9.1,5.9L9.1,5.9L9.1,5.9L9.1,5.9z M9.1,5
		C9.1,5,9.1,5,9.1,5C9.1,5,9.1,5,9.1,5L9.1,5z M9.4,6.3L9.4,6.3c-0.1,0-0.1,0-0.1,0c0,0.1-0.1,0.1-0.1,0.1l0.1,0.1L9.4,6.3z
		 M9.3,5.4L9.3,5.4L9.1,5.6L9.3,5.4z M9.1,7.9L9.1,7.9L9.1,7.9L9.1,7.9L9.1,7.9z M9.2,9L9.2,9L9.2,9L9.2,9z M9.2,5.2L9.2,5.2
		L9.2,5.2L9.2,5.2z M9.2,2.9C9.2,2.9,9.2,2.9,9.2,2.9C9.2,3,9.2,2.9,9.2,2.9c0.1,0,0.1,0,0.1-0.1h0C9.2,2.8,9.2,2.8,9.2,2.9z
		 M9.2,3.9C9.2,3.9,9.2,3.9,9.2,3.9C9.2,3.8,9.2,3.8,9.2,3.9z M9.2,4.3C9.2,4.3,9.2,4.3,9.2,4.3L9.2,4.3L9.2,4.3L9.2,4.3z M9.4,5.2
		L9.4,5.2l0.1-0.1l0-0.1L9.4,5.1l0-0.1L9.2,5l0.1,0.1l0,0h0.1L9.4,5.2L9.4,5.2z M9.2,6.6L9.2,6.6L9.2,6.6L9.2,6.6L9.2,6.6z M9.2,4.5
		L9.2,4.5L9.2,4.5C9.2,4.6,9.2,4.6,9.2,4.5z M9.2,8.4L9.2,8.4L9.2,8.4L9.2,8.4L9.2,8.4z M9.2,3.3L9.2,3.3L9.2,3.3L9.2,3.3z M9.2,9.3
		L9.2,9.3L9.2,9.3L9.2,9.3z M9.2,9.2L9.2,9.2L9.2,9.2L9.2,9.2z M9.3,4L9.3,4L9.3,4L9.3,4L9.3,4z M9.2,9.7C9.2,9.7,9.2,9.7,9.2,9.7
		C9.2,9.7,9.3,9.7,9.2,9.7L9.2,9.7C9.2,9.7,9.2,9.7,9.2,9.7z M9.3,9.9L9.3,9.9L9.3,9.9L9.3,9.9L9.3,9.9z M9.3,8.3L9.3,8.3L9.3,8.3
		L9.3,8.3z M9.3,8.2L9.3,8.2L9.3,8.2L9.3,8.2z M9.3,9.2L9.3,9.2L9.3,9.2L9.3,9.2z M9.3,3L9.3,3L9.3,3L9.3,3L9.3,3z M9.4,6.6L9.4,6.6
		L9.4,6.6L9.4,6.6z M9.3,7.7L9.3,7.7L9.3,7.7L9.3,7.7L9.3,7.7z M9.3,7.9L9.3,7.9L9.3,7.9L9.3,7.9L9.3,7.9L9.3,7.9L9.3,7.9L9.3,7.9z
		 M9.3,8.3L9.3,8.3L9.3,8.3L9.3,8.3z M9.5,9.7c0,0,0.1,0,0.1,0l0.1,0c0,0,0.1,0,0.1-0.1s0-0.1,0-0.2H9.8l0,0.1L9.6,9.4l0.1-0.1
		l-0.1,0L9.5,9.3l0.1,0c0,0,0.1,0,0.1,0c0,0,0.1,0,0.1-0.1l0.1,0.1l0.1,0L9.9,9.1l0,0L9.7,9l0,0.1L9.6,9.1L9.6,9L9.4,9.2l0,0.1
		c0,0.1,0,0.1-0.1,0.2c0,0-0.1,0.1-0.1,0.1l0.1,0.2C9.4,9.7,9.5,9.7,9.5,9.7z M9.3,9.1l0-0.1C9.3,9.1,9.3,9.1,9.3,9.1z M9.3,9.3
		L9.3,9.3L9.3,9.3L9.3,9.3z M9.3,2.5L9.3,2.5L9.3,2.5C9.3,2.5,9.3,2.5,9.3,2.5z M9.5,2.7L9.3,2.6v0L9.5,2.7L9.5,2.7z M9.4,4.2
		L9.4,4.2L9.4,4.2L9.4,4.2z M9.4,8.1L9.5,8L9.4,8L9.4,8.1L9.4,8.1z M9.4,2l0.2,0l0,0L9.4,2z M9.4,3.3C9.4,3.3,9.5,3.3,9.4,3.3
		L9.4,3.3L9.4,3.3C9.4,3.4,9.4,3.4,9.4,3.3z M9.4,3.7L9.4,3.7L9.4,3.7L9.4,3.7z M9.4,4.9C9.4,4.9,9.4,4.9,9.4,4.9
		c0.1-0.1,0.1-0.1,0.1-0.1C9.4,4.8,9.4,4.8,9.4,4.9z M9.4,5L9.4,5L9.4,5L9.4,5L9.4,5z M9.4,6.5L9.4,6.5L9.4,6.5z M9.4,8.3L9.4,8.3
		L9.4,8.3L9.4,8.3L9.4,8.3z M9.4,8.3L9.4,8.3l0.1-0.1L9.4,8.3z M9.4,8.5c0,0,0.1,0,0.1,0c0.1,0,0.1-0.1,0.1-0.1H9.4
		C9.4,8.4,9.4,8.4,9.4,8.5z M9.4,4.6C9.5,4.6,9.5,4.6,9.4,4.6L9.4,4.6C9.4,4.6,9.4,4.6,9.4,4.6z M9.4,8.6L9.4,8.6L9.4,8.6L9.4,8.6
		L9.4,8.6z M9.4,6.6L9.4,6.6L9.4,6.6L9.4,6.6z M9.5,5.3C9.5,5.3,9.5,5.3,9.5,5.3C9.5,5.3,9.5,5.3,9.5,5.3L9.5,5.3L9.5,5.3L9.5,5.3z
		 M9.5,6.5L9.5,6.5L9.5,6.5L9.5,6.5z M9.5,6L9.5,6L9.5,6L9.5,6L9.5,6z M9.6,7.8L9.6,7.8L9.6,7.8L9.6,7.8z M9.5,8.9
		C9.5,8.9,9.5,8.9,9.5,8.9L9.5,8.9L9.5,8.9L9.5,8.9z M9.5,2.4C9.5,2.5,9.5,2.5,9.5,2.4l0.1,0L9.5,2.4l0.1-0.2h0.2l-0.3,0L9.5,2.4
		C9.5,2.4,9.5,2.4,9.5,2.4z M9.5,2.5l0.2,0l0,0L9.5,2.5z M9.6,5.2L9.6,5.2L9.6,5.2L9.6,5.2z M9.6,5.8L9.6,5.8L9.6,5.8L9.6,5.8z
		 M9.6,7.3L9.6,7.3L9.6,7.3L9.6,7.3z M9.5,8.5L9.5,8.5L9.5,8.5L9.5,8.5z M9.5,3.5L9.5,3.5L9.5,3.5L9.5,3.5z M9.6,5L9.6,5L9.6,5
		L9.6,5z M9.6,6.5c0-0.1,0.1-0.2,0.2-0.2s0.1-0.1,0.1-0.1l-0.1,0L9.6,6.1l0-0.1L9.5,6.1h0v0l0,0.1L9.6,6.5L9.6,6.5z M9.6,6.8
		L9.6,6.8L9.5,6.9C9.6,6.9,9.6,6.8,9.6,6.8z M9.6,3.1L9.6,3.1L9.6,3.1L9.6,3.1C9.6,3.1,9.6,3.1,9.6,3.1z M9.6,6.7L9.6,6.7L9.6,6.7
		L9.6,6.7L9.6,6.7z M9.6,5.2L9.6,5.2L9.6,5.2L9.6,5.2z M10,8.7L10,8.7L9.9,8.6H10v0c0,0-0.1,0-0.1,0c-0.1,0-0.1,0-0.1,0
		s-0.1,0-0.1,0.1c0,0,0,0.1,0,0.1l0,0.1c0,0,0.1-0.1,0.1-0.1c0,0,0.1-0.1,0.1-0.1l0,0l0,0l0,0v0l0,0h0L10,8.7z M9.6,9L9.6,9L9.6,9
		L9.6,9z M9.6,6L9.6,6L9.6,6L9.6,6z M9.6,7.2L9.6,7.2L9.6,7.2L9.6,7.2z M9.6,8.5L9.6,8.5L9.6,8.5L9.6,8.5z M9.6,3.6l0.2,0h0v0H9.6z
		 M9.6,7.4L9.6,7.4L9.6,7.4L9.6,7.4z M9.8,8C9.8,8,9.8,8,9.8,8L9.8,8L9.6,8.1l0.1,0.2c0.1,0,0.1,0,0.2,0c0,0,0.1-0.1,0.1-0.1
		L9.8,8.1L9.8,8L9.8,8C9.8,8,9.8,8,9.8,8C9.8,8.1,9.8,8.1,9.8,8L9.8,8L9.8,8z M9.6,2.1l0.3,0l0,0L9.6,2.1z M9.6,6.4L9.6,6.4L9.6,6.4
		L9.6,6.4L9.6,6.4z M9.6,7.1L9.6,7.1L9.6,7.1L9.6,7.1z M9.6,7.3L9.6,7.3L9.6,7.3L9.6,7.3L9.6,7.3z M9.6,8.3L9.6,8.3L9.6,8.3L9.6,8.3
		L9.6,8.3z M9.7,2L9.7,2L9.7,2z M9.7,7.7L9.7,7.7L9.7,7.7L9.7,7.7L9.7,7.7z M9.7,7.8L9.7,7.8L9.7,7.8L9.7,7.8L9.7,7.8z M9.6,8.6
		L9.6,8.6C9.7,8.6,9.7,8.6,9.6,8.6L9.6,8.6C9.7,8.6,9.6,8.6,9.6,8.6z M9.9,9.8c0-0.1,0-0.1,0-0.1L9.8,9.9l-0.1,0l0,0l0.1,0.1
		C9.8,9.9,9.9,9.9,9.9,9.8z M9.7,3L9.7,3L9.7,3L9.7,3L9.7,3z M9.7,5.1L9.7,5.1l0,0.2L9.7,5.1z M9.7,7.4L9.7,7.4L9.7,7.4L9.7,7.4
		C9.7,7.4,9.7,7.4,9.7,7.4z M9.7,3.2L9.7,3.2L9.7,3.2L9.7,3.2z M9.7,6.1L9.7,6.1L9.7,6.1L9.7,6.1z M9.7,6.5L9.7,6.5L9.7,6.5L9.7,6.5
		L9.7,6.5l0-0.1L9.7,6.5L9.7,6.5z M9.8,6.6L9.8,6.6L9.8,6.6L9.8,6.6z M9.7,7.6L9.7,7.6L9.7,7.6L9.7,7.6L9.7,7.6z M9.8,3.3L9.8,3.3
		L9.8,3.3L9.8,3.3z M9.8,8.3L9.8,8.3L9.8,8.3L9.8,8.3z M9.8,7.1L9.8,7.1L9.8,7.1L9.8,7.1z M9.8,1.9L9.8,1.9L9.8,1.9L9.8,1.9L9.8,1.9
		z M9.8,5.4L9.8,5.4L9.8,5.4L9.8,5.4L9.8,5.4z M9.8,6.9C9.8,6.9,9.8,7,9.8,6.9c0,0.1,0.1,0,0.1,0L9.8,6.9C9.9,6.9,9.9,6.9,9.8,6.9z
		 M9.8,7.7L9.8,7.7L9.8,7.7L9.8,7.7L9.8,7.7z M9.8,8L9.8,8C9.8,8,9.8,8,9.8,8z M9.8,8.5L9.8,8.5C9.8,8.5,9.9,8.5,9.8,8.5L9.8,8.5
		C9.8,8.4,9.8,8.4,9.8,8.5z M9.8,3.2L9.8,3.2L9.8,3.2L9.8,3.2z M9.9,5.6L9.9,5.6l0.1-0.2l-0.2,0l-0.1,0l0.1,0.1l0,0.1L9.9,5.6
		L9.9,5.6z M9.8,6.5L9.8,6.5L9.8,6.5L9.8,6.5z M9.8,2.6c0,0,0.1,0,0.1-0.1L9.8,2.6z M9.8,6.4L9.8,6.4L9.8,6.4L9.8,6.4z M9.8,6.9
		L9.8,6.9L9.8,6.9L9.8,6.9z M9.8,7.3L9.8,7.3L9.8,7.3L9.8,7.3z M9.9,7.9L9.9,7.9L9.9,7.9c0.2,0,0.2,0,0.2,0c0,0,0-0.1,0-0.1h-0.1
		l0-0.1c0,0,0-0.1,0-0.1s-0.1,0-0.1,0c0,0.1,0,0.1,0,0.1c0,0,0,0.1-0.1,0.1c0,0,0,0-0.1,0C9.8,7.8,9.8,7.8,9.9,7.9L9.9,7.9L9.9,7.9z
		 M9.8,5.3L9.8,5.3L9.8,5.3L9.8,5.3z M9.9,2.8L9.9,2.8L9.9,2.8z M9.9,3.4C9.9,3.4,9.9,3.4,9.9,3.4L9.9,3.4L9.9,3.4z M9.9,7.6
		L9.9,7.6L9.9,7.6L9.9,7.6z M9.9,5.2L9.9,5.2L9.9,5.2L9.9,5.2z M9.9,5.8L9.9,5.8L9.9,5.8L9.9,5.8z M9.9,5.9L9.9,5.9L9.9,5.9L9.9,5.9
		z M9.9,6.3L9.9,6.3L9.9,6.3L9.9,6.3z M9.9,7.1L9.9,7.1L9.9,7.1L9.9,7.1z M10,2.3C10,2.2,10.1,2.2,10,2.3c0-0.1,0.1-0.1,0.1-0.1
		c0,0,0,0,0.1,0l0,0L10,2.3l-0.1,0L10,2.3C10,2.3,10,2.3,10,2.3z M9.9,5.3L9.9,5.3L9.9,5.3L9.9,5.3L9.9,5.3z M9.9,6.7L9.9,6.7
		L9.9,6.7L9.9,6.7L9.9,6.7z M10,6.8L9.9,6.7v0.1H10z M9.9,8L9.9,8L9.9,8L9.9,8L9.9,8z M10,8.5L10,8.5C10,8.5,10,8.5,10,8.5
		C10,8.5,10,8.5,10,8.5l0-0.2L10,8.5L10,8.5z M10.1,9.6L10.1,9.6C10.1,9.6,10.2,9.6,10.1,9.6c0.1,0,0.2-0.1,0.2-0.1s0.1,0,0.1,0
		c0,0,0,0,0-0.1l-0.1,0l-0.1,0.1c-0.1,0-0.1,0-0.1-0.1c0-0.1,0-0.1,0-0.2L9.9,9.7v0l0.1,0l0.1,0.2V9.6z M10.1,8.9l-0.1,0l0,0
		L10.1,8.9z M10,3L10,3L10,3L10,3z M10,6.1L10,6.1L10,6.1L10,6.1z M10,5.8L10,5.8L10,5.8L10,5.8z M10,6.6L10,6.6L10,6.6L10,6.6z
		 M10,7.1L10,7.1L10,7.1L10,7.1z M10,1.9L10,1.9L10,1.9L10,1.9L10,1.9z M10,6.2L10,6.2L10,6.2L10,6.2L10,6.2z M10,6.3L10,6.3L10,6.3
		L10,6.3z M10,5L10,5L10,5L10,5L10,5z M10.2,7.3C10.2,7.3,10.2,7.3,10.2,7.3l0-0.2L10.3,7c0,0,0-0.1-0.1-0.1c-0.1,0-0.1,0-0.1-0.1
		L10,6.9l0.1,0c0,0-0.1,0.1-0.1,0.1S10,7.2,10,7.3L10.2,7.3l-0.1,0C10.1,7.4,10.1,7.4,10.2,7.3z M10,5.3L10,5.3L10,5.3L10,5.3z
		 M10,6.7L10,6.7L10,6.7L10,6.7z M10.3,5.6L10.3,5.6L10.3,5.6L10.3,5.6c-0.1,0.1-0.1,0.1-0.2,0.1S10,5.7,10,5.8h0.2v0L10.3,5.6z
		 M10.1,1.9C10.1,1.9,10.1,1.8,10.1,1.9L10.1,1.9L10.1,1.9C10,1.9,10.1,1.9,10.1,1.9z M10.1,5.6L10.1,5.6L10.1,5.6L10.1,5.6
		L10.1,5.6z M10,6.2L10,6.2L10,6.2L10,6.2L10,6.2z M10,6.4L10,6.4L10,6.4L10,6.4L10,6.4z M10.1,6.9L10.1,6.9L10.1,6.9L10.1,6.9
		L10.1,6.9z M10.1,8L10.1,8L10.1,8L10.1,8L10.1,8z M10.1,8.1L10.1,8.1L10.1,8.1L10.1,8.1z M10.1,6.1C10.1,6.1,10,6.1,10.1,6.1
		L10.1,6.1L10.1,6.1L10.1,6.1z M10.1,8.6L10.1,8.6L10.1,8.6C10.1,8.6,10.1,8.6,10.1,8.6L10.1,8.6L10.1,8.6z M10.1,7.5L10.1,7.5
		L10.1,7.5L10.1,7.5z M10.1,8.5C10.1,8.5,10.2,8.5,10.1,8.5L10.1,8.5L10.1,8.5C10.1,8.5,10.1,8.5,10.1,8.5z M10.1,8.6
		C10.1,8.6,10.1,8.6,10.1,8.6C10.1,8.6,10.1,8.6,10.1,8.6z M10.2,5.6l0.1-0.1l0,0L10.2,5.6l0-0.1L10.2,5.6L10.2,5.6L10.2,5.6z
		 M10.3,6.7L10.3,6.7l-0.1-0.1v0.1L10.3,6.7z M10.2,2.6L10.2,2.6L10.2,2.6L10.2,2.6z M10.2,6.3L10.2,6.3L10.2,6.3L10.2,6.3z
		 M10.2,7.6L10.2,7.6L10.2,7.6L10.2,7.6z M10.2,8.3L10.2,8.3L10.2,8.3L10.2,8.3z M10.2,9.7L10.2,9.7L10.2,9.7L10.2,9.7z M10.2,2.2
		L10.2,2.2L10.2,2.2L10.2,2.2z M10.2,6.5L10.2,6.5L10.2,6.5L10.2,6.5L10.2,6.5z M10.2,6.9L10.2,6.9L10.2,6.9L10.2,6.9L10.2,6.9z
		 M10.2,2.4L10.2,2.4L10.2,2.4L10.2,2.4z M10.3,3.2L10.3,3.2C10.2,3.2,10.2,3.2,10.3,3.2z M10.2,6.3C10.2,6.4,10.2,6.4,10.2,6.3
		L10.2,6.3L10.2,6.3C10.2,6.3,10.2,6.3,10.2,6.3z M10.2,7.5L10.2,7.5L10.2,7.5L10.2,7.5z M10.3,7.8L10.3,7.8L10.3,7.8L10.3,7.8
		L10.3,7.8z M10.2,9L10.2,9L10.2,9L10.2,9z M10.2,9L10.2,9L10.2,9L10.2,9z M10.2,8.7L10.2,8.7L10.2,8.7L10.2,8.7z M10.2,9.8
		L10.2,9.8L10.2,9.8L10.2,9.8z M10.3,1.8L10.3,1.8L10.3,1.8L10.3,1.8L10.3,1.8z M10.2,1.8c0,0,0.1,0,0.1,0L10.2,1.8z M10.3,2.2
		L10.3,2.2L10.3,2.2L10.3,2.2z M10.3,7.7L10.3,7.7L10.3,7.7L10.3,7.7z M10.2,8L10.2,8L10.2,8C10.3,8,10.2,8,10.2,8z M10.4,8.7
		l-0.1,0L10.4,8.7L10.4,8.7z M10.3,9.8L10.3,9.8L10.3,9.8L10.3,9.8L10.3,9.8z M10.4,2.7L10.4,2.7L10.4,2.7L10.4,2.7L10.4,2.7z
		 M10.3,6.5L10.3,6.5L10.3,6.5C10.3,6.5,10.3,6.5,10.3,6.5z M10.5,7.3C10.5,7.2,10.4,7.2,10.5,7.3c-0.1-0.1-0.2-0.1-0.2-0.1h0
		l0.1,0.2L10.5,7.3z M10.4,7.6L10.4,7.6l-0.1,0L10.4,7.6z M10.4,9.1L10.4,9.1L10.4,9.1L10.4,9.1z M10.3,2.9L10.3,2.9L10.3,2.9
		L10.3,2.9L10.3,2.9z M10.3,6.5L10.3,6.5L10.3,6.5C10.3,6.6,10.3,6.6,10.3,6.5L10.3,6.5L10.3,6.5L10.3,6.5L10.3,6.5L10.3,6.5z
		 M10.3,8.1L10.3,8.1L10.3,8.1L10.3,8.1L10.3,8.1z M10.3,9.2L10.3,9.2L10.3,9.2L10.3,9.2L10.3,9.2z M10.5,7L10.5,7l-0.2,0l0.1,0.1
		l-0.1,0l0.1,0L10.5,7z M10.4,6.8L10.4,6.8L10.4,6.8L10.4,6.8z M10.4,7.5L10.4,7.5L10.4,7.5L10.4,7.5z M10.4,7.7L10.4,7.7L10.4,7.7
		L10.4,7.7z M10.4,9.7c0-0.1,0-0.1,0.1-0.1l-0.2,0.1L10.4,9.7C10.4,9.7,10.4,9.7,10.4,9.7z M10.4,2L10.4,2L10.4,2L10.4,2z M10.4,8.8
		C10.4,8.8,10.4,8.8,10.4,8.8C10.4,8.8,10.4,8.8,10.4,8.8L10.4,8.8L10.4,8.8z M10.4,5.6L10.4,5.6L10.4,5.6L10.4,5.6L10.4,5.6z
		 M10.4,5.7L10.4,5.7L10.4,5.7L10.4,5.7z M10.4,6.3L10.4,6.3L10.4,6.3L10.4,6.3L10.4,6.3z M10.4,6.7L10.4,6.7L10.4,6.7L10.4,6.7
		L10.4,6.7L10.4,6.7L10.4,6.7L10.4,6.7L10.4,6.7z M10.4,7.8L10.4,7.8L10.4,7.8L10.4,7.8z M10.4,8.6L10.4,8.6L10.4,8.6L10.4,8.6
		L10.4,8.6z M10.5,6.3L10.5,6.3l-0.1,0.1l0,0.1L10.5,6.3z M10.4,6.6L10.4,6.6L10.4,6.6L10.4,6.6z M10.4,6.8L10.4,6.8L10.4,6.8
		L10.4,6.8z M10.4,5.8C10.4,5.8,10.4,5.8,10.4,5.8L10.4,5.8C10.4,5.8,10.4,5.8,10.4,5.8z M10.4,8C10.4,8,10.4,8,10.4,8
		C10.4,8,10.4,8,10.4,8z M10.4,8.9L10.4,8.9L10.4,8.9L10.4,8.9z M10.5,9.9L10.5,9.9L10.5,9.9L10.5,9.9L10.5,9.9z M10.5,3.4L10.5,3.4
		L10.5,3.4L10.5,3.4z M10.5,6.6L10.5,6.6L10.5,6.6L10.5,6.6z M10.5,1.9L10.5,1.9C10.5,1.8,10.5,1.8,10.5,1.9L10.5,1.9L10.5,1.9z
		 M10.5,3L10.5,3L10.5,3L10.5,3L10.5,3z M10.5,3.4L10.5,3.4L10.5,3.4L10.5,3.4L10.5,3.4z M10.5,3.6L10.5,3.6L10.5,3.6L10.5,3.6z"/>
</g>
</svg>
