<?xml version="1.0" encoding="utf-8"?>
<!-- Generator: Adobe Illustrator 17.1.0, SVG Export Plug-In . SVG Version: 6.00 Build 0)  -->
<!DOCTYPE svg PUBLIC "-//W3C//DTD SVG 1.1//EN" "http://www.w3.org/Graphics/SVG/1.1/DTD/svg11.dtd">
<svg version="1.1" id="Layer_1" xmlns="http://www.w3.org/2000/svg" xmlns:xlink="http://www.w3.org/1999/xlink" x="0px" y="0px"
	 width="17.8px" height="12.2px" viewBox="0 0 17.8 12.2" enable-background="new 0 0 17.8 12.2" xml:space="preserve">
<g>
	<path d="M5.7,7.6c0-0.1,0.1-0.2,0.1-0.3c0-0.1,0.1-0.1,0.1-0.2C6,7,6.1,7,6.2,7l0.2,0C6.5,7,6.6,6.9,6.7,6.9C6.9,6.9,7,7,7.1,7
		c0.1,0.1,0.2,0.1,0.3,0.2c0.1,0.1,0.2,0.2,0.2,0.3C7.7,7.7,7.7,7.8,7.7,8c0,0.2-0.1,0.4-0.2,0.5S7.4,8.7,7.2,8.8
		C7.1,8.9,7,9,6.9,9.1C6.8,9.2,6.7,9.2,6.7,9.3c0,0.1,0,0.2,0.1,0.3C6.9,9.7,7,9.8,7.1,9.8C7.2,9.9,7.3,9.9,7.4,10
		c0.1,0,0.1,0.1,0.1,0.1l0,0c-0.3,0-0.5-0.1-0.7-0.2C6.5,9.8,6.3,9.7,6.2,9.5S5.9,9,5.8,8.8C5.7,8.5,5.6,8.3,5.6,8.1V7.8
		C5.7,7.7,5.7,7.6,5.7,7.6z M6.1,8.6C6.1,8.6,6.1,8.6,6.1,8.6L6.1,8.6L6.1,8.6z M6.2,8L6.2,8L6.2,8L6.2,8L6.2,8z M6.3,8.3L6.3,8.3
		L6.3,8.3L6.3,8.3z M6.3,8L6.3,8L6.3,8L6.3,8z M8.1,10.1c0.1,0,0.2,0,0.3,0s0.2,0,0.3,0c0.1,0,0.2,0,0.2-0.1
		c0.1-0.1,0.3-0.2,0.4-0.5c0.1-0.2,0.2-0.4,0.3-0.7C9.6,8.5,9.7,8.3,9.7,8c0-0.3,0-0.5,0-0.6c0-0.2,0-0.5,0-0.8
		c0-0.3-0.1-0.5-0.2-0.8S9.3,5.5,9.2,5.3S8.8,4.9,8.6,4.8H7.7c-0.1,0-0.1,0-0.2,0.1c0,0-0.1,0.1-0.1,0.1C7.3,5.1,7.2,5.2,7.1,5.3
		C7,5.3,6.9,5.4,6.8,5.5C6.8,5.6,6.7,5.6,6.7,5.8c0,0.1-0.1,0.3-0.1,0.5L6.4,6.3L6.3,6.2c0-0.4,0-0.8,0.1-1.2
		c0.1-0.4,0.1-0.8,0.1-1.2V2c0-0.1,0-0.1,0-0.2c0-0.1,0-0.1,0-0.2s0-0.1,0-0.2c0-0.1,0.1-0.1,0.1-0.2c0.5,0.1,1.1,0.3,1.6,0.4
		c0.5,0.1,1.1,0.1,1.6,0.1H10c0.1,0,0.1,0,0.2,0c0.1,0,0.1,0.1,0.2,0.1c0.1,0,0.1,0,0.2,0c0.1,0,0.3,0,0.4-0.1
		c0.1,0,0.2-0.1,0.3-0.1c0.1,0,0.2-0.1,0.3-0.1s0.2-0.1,0.2-0.1c0,0.1-0.1,0.2-0.2,0.4c-0.1,0.2-0.2,0.3-0.4,0.5s-0.3,0.3-0.4,0.4
		c-0.2,0.1-0.3,0.2-0.4,0.3C10.5,3,10.4,3,10.3,3s-0.1,0.1-0.2,0.1H9.7c0,0.1-0.1,0.1-0.2,0.1c-0.1,0-0.1,0-0.2,0.1
		c-0.4,0-0.7,0-1.1-0.1C7.9,3.1,7.6,3.1,7.2,3.1c-0.1,0-0.3,0-0.3,0.1C6.8,3.3,6.8,3.4,6.8,3.6c0,0.1,0,0.2,0,0.2c0,0.1,0,0.2,0,0.2
		c0,0.2,0,0.3,0,0.4c0,0.1,0,0.3,0,0.4c0,0,0,0.1,0,0.1c0,0.1,0.1,0.1,0.1,0.1C7,5.1,7,5,7.1,5c0.1,0,0.2-0.1,0.3-0.1l0.3-0.1
		c0.1,0,0.2-0.1,0.2-0.1h1.4c0.1,0,0.2,0,0.3,0.1c0.1,0,0.3,0.1,0.4,0.1c0.1,0.1,0.3,0.1,0.4,0.2C10.5,5,10.6,5,10.7,5.1
		c0.2,0.2,0.5,0.3,0.6,0.5c0.2,0.1,0.3,0.3,0.5,0.4s0.2,0.3,0.3,0.5c0.1,0.2,0.1,0.5,0.1,0.8c0,0.4-0.1,0.8-0.2,1.2
		c-0.1,0.3-0.3,0.6-0.6,0.8c-0.2,0.2-0.5,0.4-0.9,0.6s-0.7,0.3-1.1,0.3c-0.1,0-0.2,0-0.2,0.1c-0.1,0-0.2,0.1-0.2,0.1
		c-0.2,0-0.3,0-0.5,0c-0.1,0-0.3,0-0.5,0l-0.2-0.1C7.9,10.1,8,10.1,8.1,10.1z M6.5,8.1L6.5,8.1L6.5,8.1L6.5,8.1L6.5,8.1z M6.6,8.2
		L6.6,8.2L6.6,8.2L6.6,8.2L6.6,8.2z M6.7,7.4L6.7,7.4L6.7,7.4L6.7,7.4L6.7,7.4z M6.9,8C6.9,7.9,6.9,7.9,6.9,8L6.9,8L6.9,8L6.9,8z
		 M7,2.1C7,2.1,7.1,2.1,7.1,2L6.8,2.2C6.9,2.2,6.9,2.2,7,2.1z M7,2.4L7,2.4V2.2V2.4L7,2.4L7,2.4z M7,8.3L7,8.3L7,8.3L7,8.3z M7,7.6
		L7,7.6L7,7.6L7,7.6z M7.1,8L7.1,8L7.1,8L7.1,8L7.1,8z M7.1,1.8L7.1,1.8L7.1,1.8L7.1,1.8z M7.2,2.2c0,0-0.1,0.1-0.1,0.1
		c0.1,0,0.1,0,0.2-0.1c0.1,0,0.1-0.1,0.1-0.2c0,0,0-0.1-0.1-0.1c-0.1,0-0.1,0-0.2-0.1l0,0.1l0.2,0.1C7.3,2.1,7.3,2.2,7.2,2.2z
		 M7.3,2.6C7.2,2.6,7.2,2.7,7.3,2.6C7.3,2.7,7.3,2.7,7.3,2.6c0.1,0,0.1,0,0.1-0.1C7.3,2.5,7.2,2.4,7.2,2.4c0,0-0.1,0-0.1,0
		c0,0,0.1,0,0.1,0C7.2,2.5,7.3,2.5,7.3,2.6C7.3,2.6,7.3,2.6,7.3,2.6z M7.1,7.8L7.1,7.8L7.1,7.8L7.1,7.8z M7.4,1.9L7.4,1.9L7.4,1.9
		L7.4,1.9L7.4,1.9z M7.5,2.8C7.5,2.8,7.5,2.7,7.5,2.8L7.5,2.8L7.5,2.8C7.4,2.8,7.5,2.8,7.5,2.8z M7.5,2.4L7.5,2.4L7.5,2.4L7.5,2.4z
		 M7.5,2.5L7.5,2.5l0.1,0.1L7.5,2.5z M7.7,2.3L7.6,2.2h0L7.7,2.3L7.7,2.3z M7.6,2.1L7.6,2.1L7.6,2.1L7.6,2.1L7.6,2.1z M7.6,1.9
		C7.6,1.8,7.7,1.8,7.6,1.9L7.6,1.9L7.6,1.9C7.6,1.9,7.6,1.9,7.6,1.9z M7.7,2.8L7.7,2.8L7.7,2.8C7.6,2.8,7.7,2.8,7.7,2.8z M7.7,2.1
		L7.7,2.1L7.7,2.1L7.7,2.1z M8,2.6L8,2.6l-0.1,0l0-0.1l0.1,0l-0.1,0c0,0-0.1,0.1-0.1,0.1c0,0-0.1,0.1-0.1,0.1l0.2,0L8,2.6z M7.9,1.9
		L7.9,1.9L7.9,1.9C7.8,2,7.9,2,7.9,1.9z M7.9,2.2L7.9,2.2l0,0.1L7.9,2.2z M8,2L8,2v0.2V2z M8,2L8,2L8,2L8,2L8,2z M8,3L8,3L8,3L8,3
		L8,3z M8.1,2.2C8.1,2.2,8.1,2.2,8.1,2.2L8.1,2.2L8.1,2.2C8.1,2.2,8.1,2.2,8.1,2.2z M8.1,2.7L8.1,2.7L8.1,2.7L8.1,2.7L8.1,2.7z
		 M8.2,2.1L8.2,2.1L8.2,2.1L8.2,2.1z M8.2,2.5c0,0,0,0.1,0,0.1C8.2,2.6,8.3,2.6,8.2,2.5c0.1,0,0.1,0,0.1-0.1
		C8.3,2.4,8.2,2.4,8.2,2.5z M8.3,2.1L8.3,2.1L8.3,2.1L8.3,2.1z M8.3,1.9L8.3,1.9L8.3,1.9L8.3,1.9z M8.3,2.3C8.3,2.2,8.3,2.2,8.3,2.3
		C8.2,2.2,8.3,2.3,8.3,2.3z M8.3,2.7L8.3,2.7L8.3,2.7L8.3,2.7L8.3,2.7z M8.3,2C8.3,2,8.3,2,8.3,2L8.3,2C8.3,2,8.3,2,8.3,2z M8.6,2.1
		H8.4H8.6L8.6,2.1z M8.4,2.8L8.4,2.8L8.4,2.8C8.5,2.8,8.4,2.8,8.4,2.8z M8.5,2.4L8.5,2.4L8.5,2.4L8.5,2.4z M8.6,3L8.6,3L8.6,3L8.6,3
		z M8.6,2.7L8.6,2.7L8.6,2.7L8.6,2.7z M8.7,2.3c0,0,0.1-0.1,0.1-0.1L8.7,2.3L8.6,2.4l0.1,0C8.7,2.4,8.7,2.3,8.7,2.3z M8.6,2.8
		L8.6,2.8L8.6,2.8L8.6,2.8L8.6,2.8z M8.9,2.7c0,0-0.1,0.1-0.1,0.2C8.9,2.9,8.9,2.8,8.9,2.7c0,0,0.1,0,0.1,0l0.1,0l0-0.1
		C9,2.6,9,2.7,8.9,2.7z M9.2,2.3c0,0-0.1,0-0.1,0s-0.1,0-0.1,0c0,0,0,0,0,0.1C9.1,2.4,9.1,2.4,9.2,2.3c0,0,0.1,0,0.2,0L9.2,2.3
		C9.3,2.3,9.3,2.3,9.2,2.3z M9.2,2.2L9.2,2.2H9H9.2L9.2,2.2z M9.1,2.9C9.1,2.9,9.1,3,9.1,2.9C9.1,3,9.1,2.9,9.1,2.9L9.1,2.9
		C9.1,2.9,9.1,2.9,9.1,2.9z M9.2,2.6L9.2,2.6L9.2,2.6C9.2,2.6,9.2,2.6,9.2,2.6z M9.5,2.5c0,0,0,0.1,0,0.1C9.6,2.6,9.6,2.6,9.5,2.5
		c0,0,0.1,0,0.1,0L9.5,2.5C9.6,2.4,9.6,2.4,9.5,2.5z M9.7,2.3c0,0,0.1,0,0.2,0C9.9,2.3,9.8,2.3,9.7,2.3C9.7,2.2,9.7,2.2,9.7,2.3
		L9.6,2.2C9.6,2.2,9.7,2.3,9.7,2.3z M9.7,2.4L9.7,2.4L9.7,2.4L9.7,2.4z M9.8,2.8C9.8,2.8,9.9,2.8,9.8,2.8C9.9,2.8,9.9,2.8,9.8,2.8
		C9.8,2.7,9.8,2.7,9.8,2.8C9.8,2.7,9.8,2.8,9.8,2.8z M9.9,2.7L9.9,2.7L9.9,2.7L9.9,2.7z M10,5.4L10,5.4L10,5.4L10,5.4L10,5.4z
		 M10,5.4C10,5.4,10,5.5,10,5.4C10,5.5,10,5.5,10,5.4C10.1,5.5,10.1,5.4,10,5.4L10,5.4C10.1,5.4,10.1,5.4,10,5.4z M10,6.1L10,6.1
		L10,6.1L10,6.1L10,6.1z M10.1,6.5L10.1,6.5L10.1,6.5L10.1,6.5L10.1,6.5z M10.2,2.5l-0.1-0.2v0.1L10.2,2.5L10.2,2.5z M10.1,6.8
		C10.1,6.7,10.1,6.7,10.1,6.8C10.1,6.7,10.1,6.7,10.1,6.8L10.1,6.8L10.1,6.8z M10.1,2.7L10.1,2.7L10.1,2.7L10.1,2.7z M10.1,8.2
		l0.1,0l0,0l0,0L10.1,8.2z M10.1,6L10.1,6L10.1,6L10.1,6z M10.2,8.9L10.2,8.9L10.2,8.9L10.2,8.9L10.2,8.9z M10.2,6.4L10.2,6.4
		L10.2,6.4C10.2,6.3,10.2,6.3,10.2,6.4z M10.3,2.3L10.3,2.3L10.3,2.3L10.3,2.3L10.3,2.3z M10.3,5.9V5.7l-0.1,0.2H10.3z M10.2,7.1
		L10.2,7.1C10.2,7.1,10.2,7.1,10.2,7.1C10.2,7,10.2,7,10.2,7.1z M10.5,2.5c0.1,0,0.1-0.1,0.1-0.2c-0.1,0-0.1,0-0.2,0.1
		c-0.1,0-0.1,0.1-0.1,0.1l0,0C10.4,2.5,10.4,2.5,10.5,2.5z M10.3,8.7L10.3,8.7L10.3,8.7L10.3,8.7L10.3,8.7z M10.3,6.5L10.3,6.5
		L10.3,6.5L10.3,6.5z M10.3,6L10.3,6L10.3,6L10.3,6L10.3,6z M10.3,7.9L10.3,7.9L10.3,7.9L10.3,7.9L10.3,7.9z M10.3,2.7L10.3,2.7
		L10.3,2.7L10.3,2.7z M10.4,7.2L10.4,7.2L10.4,7.2L10.4,7.2z M10.5,6.4L10.5,6.4L10.5,6.4L10.5,6.4L10.5,6.4z M10.4,6.6L10.4,6.6
		L10.4,6.6L10.4,6.6z M10.5,2.1L10.5,2.1L10.5,2.1C10.5,2.2,10.5,2.2,10.5,2.1z M10.6,5.8l-0.2,0L10.5,6L10.6,5.8z M10.5,5.6
		C10.5,5.6,10.5,5.6,10.5,5.6C10.5,5.5,10.5,5.5,10.5,5.6L10.5,5.6L10.5,5.6z M10.6,2.6L10.6,2.6L10.6,2.6L10.6,2.6L10.6,2.6z
		 M10.5,5.7C10.6,5.7,10.6,5.6,10.5,5.7C10.6,5.6,10.5,5.6,10.5,5.7z M10.7,5.8l0-0.1L10.7,5.8l-0.1,0L10.7,5.8z M10.7,2.3
		C10.7,2.3,10.7,2.3,10.7,2.3L10.7,2.3L10.7,2.3C10.7,2.3,10.7,2.3,10.7,2.3z M10.7,6C10.7,6,10.7,6.1,10.7,6L10.7,6L10.7,6
		C10.7,6,10.7,6,10.7,6z M11.1,6c0,0-0.1-0.1-0.1-0.1c-0.1,0-0.1,0-0.1,0v0L11.1,6z M10.9,8.6L10.9,8.6L10.9,8.6L10.9,8.6z M11,6.5
		L11,6.5l-0.1,0v0H11z M11,8.1C11,8.1,11,8.1,11,8.1l0,0.3L11,8.1C11,8,11,8,11,8.1z M11,8.4L11,8.4L11,8.4L11,8.4z M11.1,6.2
		L11.1,6.2L11.1,6.2L11.1,6.2L11.1,6.2z M11.2,7.8L11.2,7.8L11.2,7.8L11.2,7.8L11.2,7.8z M11.2,6.4L11.2,6.4L11.2,6.4L11.2,6.4z
		 M11.2,7.7L11.2,7.7L11.2,7.7L11.2,7.7L11.2,7.7z M11.3,8.5L11.3,8.5L11.3,8.5L11.3,8.5L11.3,8.5z M11.3,6.3L11.3,6.3L11.3,6.3
		L11.3,6.3L11.3,6.3z M11.4,8L11.4,8L11.4,8L11.4,8z M11.3,6L11.3,6L11.3,6L11.3,6z M11.3,8.2L11.3,8.2L11.3,8.2L11.3,8.2z
		 M11.4,6.5L11.4,6.5L11.4,6.5L11.4,6.5L11.4,6.5z M11.4,7.5L11.4,7.5L11.4,7.5L11.4,7.5L11.4,7.5z M11.5,6.6L11.5,6.6L11.5,6.6
		L11.5,6.6L11.5,6.6z M11.5,7.2L11.5,7.2L11.5,7.2L11.5,7.2z M11.5,7.4L11.5,7.4L11.5,7.4L11.5,7.4L11.5,7.4z M11.5,8.4L11.5,8.4
		L11.5,8.4L11.5,8.4L11.5,8.4z M11.6,7.7L11.6,7.7L11.6,7.7L11.6,7.7z M11.7,7.4L11.7,7.4L11.7,7.4L11.7,7.4z"/>
</g>
</svg>
