<?xml version="1.0" encoding="utf-8"?>
<!-- Generator: Adobe Illustrator 17.1.0, SVG Export Plug-In . SVG Version: 6.00 Build 0)  -->
<!DOCTYPE svg PUBLIC "-//W3C//DTD SVG 1.1//EN" "http://www.w3.org/Graphics/SVG/1.1/DTD/svg11.dtd">
<svg version="1.1" id="Layer_1" xmlns="http://www.w3.org/2000/svg" xmlns:xlink="http://www.w3.org/1999/xlink" x="0px" y="0px"
	 width="17.8px" height="12.2px" viewBox="0 0 17.8 12.2" enable-background="new 0 0 17.8 12.2" xml:space="preserve">
<g>
	<path d="M8.2,5.8C8.1,5.9,8.1,6.1,8,6.2C8,6.4,8,6.6,7.9,6.7s0,0.4,0,0.6c0,0.1,0,0.2,0,0.3c0,0.2,0,0.4,0,0.6c0,0.2,0,0.4,0.1,0.7
		c0,0.2,0.1,0.4,0.2,0.6c0.1,0.2,0.2,0.4,0.3,0.5c-0.2,0-0.4,0-0.6-0.1C7.7,9.9,7.5,9.8,7.3,9.7C7.1,9.6,7,9.4,6.8,9.3
		C6.6,9.1,6.5,9,6.4,8.9C6,8.4,5.8,7.9,5.6,7.4C5.4,6.8,5.3,6.3,5.3,5.7V5.5c0-0.1,0-0.2,0-0.3c0-0.1,0-0.2,0-0.3
		c0-0.1,0-0.2,0.1-0.2c0-0.2,0-0.4,0.1-0.5c0.1-0.2,0.2-0.3,0.3-0.5C6,3.5,6.1,3.3,6.2,3.2s0.2-0.3,0.3-0.5c0.2-0.2,0.4-0.4,0.6-0.6
		C7.4,2,7.6,1.8,7.9,1.7c0.3-0.1,0.5-0.2,0.8-0.3C9,1.3,9.3,1.2,9.5,1.2c0,0,0,0,0.1,0c0.1,0,0.1,0,0.1,0c0.3,0.1,0.5,0.2,0.7,0.2
		c0.2,0.1,0.4,0.1,0.5,0.2c0.2,0.1,0.3,0.2,0.5,0.3s0.3,0.4,0.5,0.6V3c0,0.1,0,0.2,0,0.3c0,0.1-0.1,0.2-0.1,0.3
		c0,0.1-0.1,0.2-0.2,0.2c0,0-0.1,0-0.1,0s-0.1,0-0.1,0c0,0-0.1,0-0.1,0c0,0-0.1,0-0.1,0.1c-0.1,0-0.2,0-0.3,0c-0.1,0-0.2,0-0.3,0
		C10.2,4,10.1,3.9,10,3.9S9.8,3.7,9.7,3.6C9.6,3.6,9.6,3.5,9.5,3.4S9.5,3.1,9.5,2.9c0-0.1,0-0.2,0.1-0.3c0-0.1,0.1-0.2,0.2-0.3
		c0.1-0.1,0.1-0.2,0.2-0.2C10,2.1,10.1,2,10.1,1.9l0-0.1c0-0.1-0.1-0.2-0.1-0.3S9.9,1.5,9.9,1.5s-0.1,0-0.2,0H9.4l-0.1,0
		c-0.2,0-0.4,0-0.5,0.1C8.6,1.6,8.5,1.7,8.5,1.9C8.4,2,8.3,2.2,8.3,2.3S8.2,2.7,8.1,2.8c0,0.4,0,0.9-0.1,1.3C8,4.5,8,4.9,8,5.4
		c0,0,0.1-0.1,0.1-0.1c0.1,0,0.1-0.1,0.2-0.1l0.1,0.1C8.4,5.4,8.3,5.6,8.2,5.8z M5.6,6L5.6,6h0.1H5.6L5.6,6z M5.7,5.6L5.7,5.6
		L5.7,5.6L5.7,5.6z M5.9,6.4C5.9,6.4,5.8,6.3,5.9,6.4C5.8,6.4,5.8,6.4,5.9,6.4z M5.9,4.8L5.9,4.8L5.9,4.8L5.9,4.8z M5.9,6.7L5.9,6.7
		L5.9,6.7L5.9,6.7z M5.9,5.2L5.9,5.2L5.9,5.2C6,5.1,5.9,5.1,5.9,5.2z M6,5.7L6,5.7L6,5.7L6,5.7z M6,6.4L6,6.4C6,6.4,6,6.4,6,6.4z
		 M6,6.2L6,6.2L6,6.2L6,6.2L6,6.2z M6.1,4.7L6.1,4.7L6.1,4.7L6.1,4.7L6.1,4.7z M6.1,6L6.1,6L6.1,6L6.1,6L6.1,6z M6.2,4.5L6.2,4.5
		c-0.1,0-0.1,0-0.1,0L6.2,4.5L6.2,4.5z M6.1,5.4L6.1,5.4L6.1,5.4L6.1,5.4z M6.1,5.6L6.1,5.6L6.1,5.6L6.1,5.6L6.1,5.6z M6.2,3.8
		L6.2,3.8L6.2,3.8L6.2,3.8z M6.2,4.3L6.2,4.3L6.2,4.3L6.2,4.3L6.2,4.3z M6.3,4L6.3,4L6.3,4L6.3,4z M6.3,4.8L6.3,4.8L6.3,4.8L6.3,4.8
		z M6.5,5.4L6.5,5.4l-0.1,0l0,0h0v0H6.5z M6.4,5.2L6.4,5.2L6.4,5.2L6.4,5.2L6.4,5.2z M6.4,4.5L6.4,4.5L6.4,4.5L6.4,4.5z M6.4,5.6
		L6.4,5.6L6.4,5.6L6.4,5.6z M6.4,3.7V3.6l0,0L6.4,3.7z M6.4,4.2L6.4,4.2L6.4,4.2L6.4,4.2z M6.5,4.9L6.5,4.9L6.5,4.9L6.5,4.9z M6.4,7
		L6.4,7L6.4,7L6.4,7z M6.6,6.3L6.6,6.3L6.5,6.4L6.6,6.3z M6.5,7.2L6.5,7.2L6.5,7.2L6.5,7.2C6.5,7.1,6.5,7.1,6.5,7.2z M6.5,5.9
		L6.5,5.9L6.5,5.9C6.6,5.9,6.6,5.9,6.5,5.9z M6.6,5.1V5h0L6.6,5.1L6.6,5.1z M6.6,3.9L6.6,3.9L6.6,3.9L6.6,3.9z M6.6,7.7L6.6,7.7
		L6.6,7.7L6.6,7.7z M6.7,3.5L6.7,3.5L6.7,3.5L6.7,3.5z M6.7,5.2L6.7,5.2L6.7,5.2L6.7,5.2L6.7,5.2z M6.7,4.4c0,0.1,0,0.1,0,0.2v0
		c0.1,0,0.1,0,0.2,0C6.9,4.6,7,4.5,7,4.5c0-0.1,0-0.1-0.1-0.1C6.8,4.3,6.7,4.4,6.7,4.4z M6.8,5.6L6.8,5.6L6.8,5.6L6.8,5.6z M6.7,3.6
		l0.2,0.1h0L6.7,3.6L6.7,3.6z M6.8,6.8L6.8,6.8L6.8,6.8L6.8,6.8z M6.8,8.3L6.8,8.3L6.8,8.3L6.8,8.3z M6.8,4L6.8,4L6.8,4L6.8,4L6.8,4
		z M6.8,5.9L6.8,5.9L6.8,5.9L6.8,5.9z M6.8,3.2C6.8,3.2,6.8,3.2,6.8,3.2C6.8,3.3,6.9,3.3,6.8,3.2C6.9,3.2,6.9,3.2,6.8,3.2
		C6.9,3.2,6.9,3.2,6.8,3.2z M6.9,2.9L6.9,2.9L7,3L6.9,2.9z M6.9,7.4L6.9,7.4L6.9,7.4L6.9,7.4L6.9,7.4z M6.9,6.3L6.9,6.3L6.9,6.3
		L6.9,6.3z M6.9,6.8L6.9,6.8L6.9,6.8L6.9,6.8z M6.9,7.7L6.9,7.7L6.9,7.7L6.9,7.7z M7.1,3.9L7.1,3.9L7.1,3.9C7,3.9,7,3.9,7.1,3.9z
		 M7,6L7,6l0.1-0.2h0L7,6z M7.1,3.1L7,3L7.1,3.1L7.1,3.1z M7.1,3.4L7.1,3.4L7.1,3.4C7.1,3.5,7.1,3.4,7.1,3.4z M7.2,3.6
		c0,0-0.1,0-0.2,0l0,0L7.2,3.6z M7.1,5.4L7.1,5.4L7.1,5.4L7.1,5.4z M7.1,6.4L7.1,6.4L7.1,6.4C7.1,6.4,7.1,6.4,7.1,6.4z M7.1,3.8
		C7.1,3.8,7.1,3.8,7.1,3.8L7.1,3.8L7.1,3.8z M7.2,6.6L7.2,6.6l-0.1,0L7.2,6.6z M7.2,3L7.2,3l0.1-0.1C7.2,2.9,7.2,3,7.2,3z M7.2,5.1
		L7.2,5.1L7.2,5.1L7.2,5.1z M7.2,8.5C7.2,8.5,7.3,8.5,7.2,8.5L7.2,8.5L7.2,8.5C7.2,8.5,7.2,8.5,7.2,8.5z M7.3,2.8L7.3,2.8L7.3,2.8
		L7.3,2.8z M7.5,3.2c-0.1,0-0.2,0-0.2,0l0.1,0L7.5,3.2z M7.3,6.4L7.3,6.4L7.3,6.4L7.3,6.4L7.3,6.4z M7.3,4L7.3,4L7.3,4L7.3,4z
		 M7.4,2.5L7.4,2.5L7.4,2.5L7.4,2.5L7.4,2.5z M7.4,3.5L7.4,3.5L7.4,3.5L7.4,3.5L7.4,3.5z M7.4,6.2L7.4,6.2L7.4,6.2L7.4,6.2z
		 M7.4,7.3L7.4,7.3L7.4,7.3L7.4,7.3z M7.3,7.7L7.3,7.7C7.4,7.7,7.4,7.7,7.3,7.7L7.3,7.7L7.3,7.7z M7.4,5.3L7.4,5.3L7.4,5.3L7.4,5.3
		L7.4,5.3z M7.4,6L7.4,6L7.4,6L7.4,6L7.4,6z M7.4,2.9L7.4,2.9L7.4,2.9L7.4,2.9L7.4,2.9z M7.4,3.6L7.4,3.6L7.4,3.6L7.4,3.6z M7.4,5.8
		L7.4,5.8L7.4,5.8L7.4,5.8L7.4,5.8z M7.5,2.6C7.5,2.6,7.5,2.6,7.5,2.6L7.5,2.6L7.5,2.6L7.5,2.6C7.6,2.6,7.6,2.6,7.5,2.6z M7.5,3.5
		L7.5,3.5L7.5,3.5L7.5,3.5z M7.5,3.7L7.5,3.7L7.5,3.7L7.5,3.7L7.5,3.7z M7.5,6.3L7.5,6.3L7.5,6.3L7.5,6.3z M7.5,4.9L7.5,4.9L7.5,4.9
		L7.5,4.9z M7.5,5.6L7.5,5.6L7.5,5.6L7.5,5.6z M7.5,2.9L7.5,2.9L7.5,2.9L7.5,2.9L7.5,2.9z M7.6,2.5L7.6,2.5L7.6,2.5L7.6,2.5z
		 M7.6,3.3L7.6,3.3L7.6,3.3L7.6,3.3z M7.7,3.1L7.7,3.1L7.7,3.1L7.7,3.1z M7.7,2.3C7.8,2.3,7.8,2.3,7.7,2.3L7.7,2.3L7.7,2.3
		C7.7,2.2,7.7,2.2,7.7,2.3z M7.7,2.6L7.7,2.6l0.1,0L7.7,2.6L7.7,2.6z M7.7,3L7.7,3L7.7,3L7.7,3L7.7,3z M9.2,9.9
		c0.1,0,0.2-0.1,0.2-0.1c0.1,0,0.1,0,0.1-0.1c0,0,0-0.1,0-0.1c0-0.1,0-0.1,0.1-0.2c0-0.1,0.1-0.2,0.2-0.4c0-0.2,0-0.4,0-0.5
		s0-0.4,0-0.5c0-0.1,0-0.2,0-0.3s0-0.2,0-0.3c0-0.2,0-0.3,0-0.5c0-0.2,0-0.4,0-0.6c0-0.2-0.1-0.4-0.1-0.5S9.6,5.3,9.4,5.2
		c-0.1,0-0.1,0-0.2-0.1C9.1,5.1,9.1,5.1,9.1,5c0.1-0.1,0.1-0.1,0.2-0.1c0.1,0,0.2,0,0.3,0c0.3,0,0.7,0.1,1,0.2s0.7,0.3,0.9,0.5
		c0.3,0.2,0.5,0.4,0.7,0.7c0.2,0.3,0.3,0.6,0.3,1c0,0.3-0.1,0.6-0.2,0.9C12.2,8.4,12,8.7,11.8,9c-0.2,0.3-0.5,0.5-0.8,0.7
		c-0.3,0.2-0.6,0.3-0.9,0.4c-0.1,0-0.2,0-0.3,0.1c-0.1,0-0.2,0.1-0.3,0.1H9c-0.1,0-0.1,0-0.2,0c-0.1,0-0.1-0.1-0.1-0.1
		C8.9,10,9.1,10,9.2,9.9z M10,2.8L10,2.8L10,2.8L10,2.8z M10.2,2.8L10.2,2.8L10.2,2.8L10.2,2.8L10.2,2.8z M10.2,5.7L10.2,5.7
		L10.2,5.7L10.2,5.7z M10.2,2.6L10.2,2.6L10.2,2.6L10.2,2.6z M10.2,3L10.2,3L10.2,3L10.2,3z M10.2,6.1L10.2,6.1L10.2,6.1L10.2,6.1z
		 M10.4,2.8L10.4,2.8L10.4,2.8L10.4,2.8z M10.4,2.1L10.4,2.1L10.4,2.1L10.4,2.1L10.4,2.1z M10.5,8.7L10.5,8.7l-0.1-0.1v0.1H10.5z
		 M10.5,2.5L10.5,2.5L10.5,2.5L10.5,2.5z M10.5,3.3L10.5,3.3L10.5,3.3L10.5,3.3z M10.6,3.5L10.6,3.5L10.6,3.5L10.6,3.5z M10.6,3.1
		L10.6,3.1L10.6,3.1L10.6,3.1L10.6,3.1z M10.6,2.1C10.6,2.1,10.6,2.1,10.6,2.1C10.7,2.1,10.7,2.1,10.6,2.1C10.7,2,10.6,2.1,10.6,2.1
		z M10.7,5.5L10.7,5.5L10.7,5.5L10.7,5.5z M10.7,2.4c0.1,0,0.1-0.1,0.2-0.1S11,2.2,11,2.1h0L10.7,2.4L10.7,2.4z M10.8,8.3L10.8,8.3
		h-0.1H10.8z M10.9,2.9C10.8,2.9,10.8,2.9,10.9,2.9C10.8,2.9,10.8,2.9,10.9,2.9L10.9,2.9L10.9,2.9z M10.8,9.1L10.8,9.1L10.8,9.1
		L10.8,9.1L10.8,9.1z M11,2.4L11,2.4l-0.2,0.1l0,0L11,2.4l0,0.2L11,2.4z M10.8,2.7C10.8,2.7,10.9,2.7,10.8,2.7L10.8,2.7
		C10.9,2.7,10.9,2.7,10.8,2.7C10.8,2.7,10.8,2.7,10.8,2.7z M11.1,3.3C11.2,3.2,11.2,3.2,11.1,3.3L11.1,3.3L11.1,3.3L11.1,3.3z
		 M11.2,3.9V3.7l0,0L11.2,3.9z M11.3,3.2L11.3,3.2L11.3,3.2L11.3,3.2z M11.3,3.3L11.3,3.3L11.3,3.3L11.3,3.3
		C11.3,3.2,11.3,3.2,11.3,3.3z"/>
</g>
</svg>
