<?xml version="1.0" encoding="utf-8"?>
<!-- Generator: Adobe Illustrator 17.1.0, SVG Export Plug-In . SVG Version: 6.00 Build 0)  -->
<!DOCTYPE svg PUBLIC "-//W3C//DTD SVG 1.1//EN" "http://www.w3.org/Graphics/SVG/1.1/DTD/svg11.dtd">
<svg version="1.1" id="Layer_1" xmlns="http://www.w3.org/2000/svg" xmlns:xlink="http://www.w3.org/1999/xlink" x="0px" y="0px"
	 width="17.8px" height="12.2px" viewBox="0 0 17.8 12.2" enable-background="new 0 0 17.8 12.2" xml:space="preserve">
<g>
	<path d="M7.1,7.7c0.2-0.3,0.4-0.6,0.6-0.8s0.5-0.5,0.8-0.8c0.3-0.2,0.6-0.5,0.9-0.7c0.3-0.2,0.6-0.5,0.9-0.7
		c0.3-0.2,0.5-0.5,0.7-0.8L11,3.8c-0.2,0-0.3,0-0.5,0s-0.3,0-0.5,0c0,0-0.1,0-0.2,0.1c-0.1,0-0.1,0-0.2,0c-0.1,0-0.1,0-0.2,0
		c-0.1,0-0.1,0-0.2,0c-0.1,0-0.2,0-0.3-0.1c-0.1,0-0.2-0.1-0.3-0.1c-0.3,0-0.5,0-0.8-0.1C7.6,3.6,7.3,3.6,7,3.6
		c-0.1,0-0.2,0-0.3,0.1c-0.1,0-0.2,0.1-0.3,0.2S6.2,4,6.1,4.1C6,4.2,6,4.3,6,4.4c0,0,0,0.1,0,0.3C6,4.8,6,4.9,6,5C6,5.1,6,5.3,6,5.4
		c0,0.1-0.1,0.1-0.2,0.1c0,0-0.1,0-0.1-0.1c0-0.1,0-0.2,0-0.2c0-0.1,0-0.2,0-0.3V4.7c0-0.3,0-0.5,0-0.7c0-0.2,0-0.5,0-0.7V2.1
		c0,0,0-0.1,0-0.2s0-0.1,0-0.2c0-0.1,0-0.1,0-0.2s0.1-0.1,0.1-0.1l0.1,0.1c0,0.1,0,0.2,0,0.3C6,2,6,2.1,6,2.3c0,0.1,0,0.3,0,0.4
		s0.1,0.2,0.2,0.2s0.2-0.1,0.2-0.2c0.1-0.1,0.2-0.3,0.3-0.4C6.9,2,7.1,1.9,7.3,1.7c0.2-0.1,0.6-0.2,1-0.2c0.3,0,0.6,0,0.8,0.1
		C9.4,1.8,9.6,1.9,9.7,2c0.1,0.1,0.3,0.3,0.4,0.4c0.1,0.2,0.2,0.3,0.3,0.4c0.1,0.1,0.2,0.2,0.4,0.3c0.1,0.1,0.3,0.1,0.5,0.1
		c0.1,0,0.2,0,0.2-0.1s0.1-0.2,0.1-0.3c0-0.2,0-0.3-0.1-0.4c-0.1-0.1-0.1-0.2-0.3-0.4c0,0,0-0.1,0-0.1c0-0.1,0-0.1,0-0.2
		c0,0,0-0.1,0.1-0.1c0,0,0.1-0.1,0.1-0.1c0.1,0,0.2,0,0.3,0.1c0.1,0,0.1,0.1,0.1,0.1C11.9,1.9,12,2,12,2.1c0,0.1,0.1,0.1,0.1,0.2
		v0.5C12,2.9,12,3.1,11.9,3.2c-0.1,0.2-0.1,0.3-0.2,0.4c-0.1,0.1-0.1,0.2-0.2,0.3c-0.1,0.1-0.2,0.2-0.3,0.2
		c-0.4,0.5-0.7,1.1-0.9,1.7C10.1,6.5,10,7.2,10,7.8c0,0.3,0,0.6,0,0.9S9.9,9.3,9.8,9.5S9.5,10,9.3,10.1c-0.2,0.1-0.5,0.2-0.9,0.2
		c-0.2,0-0.4-0.1-0.6-0.2c-0.2-0.1-0.3-0.2-0.5-0.4C7.2,9.6,7.1,9.4,7,9.2C6.9,9,6.9,8.8,6.9,8.6C6.9,8.3,7,8,7.1,7.7z M6.7,3.2
		l0.1-0.1L6.7,3.2L6.7,3.2z M7.2,2.7L7.2,2.7C7.2,2.6,7.2,2.7,7.2,2.7z M7.2,3.2L7.2,3.2L7.2,3.2L7.2,3.2z M7.3,2.4L7.3,2.4L7.3,2.4
		L7.3,2.4z M7.4,9L7.4,9L7.4,9L7.4,9z M7.4,2.2L7.4,2.2L7.4,2.2L7.4,2.2z M7.6,3.2L7.6,3.2l-0.2,0l0,0L7.6,3.2L7.6,3.2z M7.6,8.8
		L7.6,8.8L7.5,8.9L7.6,8.8z M7.5,8.1L7.5,8.1L7.5,8.1L7.5,8.1L7.5,8.1z M7.5,9.2L7.5,9.2L7.5,9.2L7.5,9.2L7.5,9.2z M7.6,7.6L7.6,7.6
		L7.6,7.6L7.6,7.6L7.6,7.6z M7.7,8.6c0-0.1,0-0.1-0.1-0.1C7.6,8.5,7.6,8.6,7.7,8.6z M7.6,2.3L7.6,2.3L7.6,2.3L7.6,2.3z M7.7,2.5
		L7.7,2.5L7.7,2.5C7.7,2.6,7.7,2.6,7.7,2.5z M7.6,8L7.6,8L7.6,8L7.6,8L7.6,8z M7.6,8.3L7.6,8.3L7.6,8.3L7.6,8.3L7.6,8.3z M7.9,9.2
		L7.9,9.2C7.8,9,7.7,8.9,7.6,8.9c0,0,0,0.1,0.1,0.1s0.1,0,0.1,0.1l0,0.1l0.1,0.1L7.7,9.3l0,0L7.9,9.2z M7.7,9.6L7.7,9.6l0.1-0.1
		C7.7,9.5,7.7,9.5,7.7,9.6z M7.7,8.1L7.7,8.1L7.7,8.1L7.7,8.1z M7.7,7.9L7.7,7.9L7.7,7.9C7.7,7.8,7.7,7.9,7.7,7.9z M7.8,7.5L7.8,7.5
		L7.8,7.5C7.8,7.4,7.8,7.5,7.8,7.5z M7.8,2.4L7.8,2.4L7.8,2.4L7.8,2.4z M7.8,8.9L7.8,8.9L7.8,8.9L7.8,8.9L7.8,8.9z M7.9,8.3
		C7.9,8.2,7.9,8.2,7.9,8.3c0-0.1,0-0.1,0-0.1L7.9,8.3L7.9,8.3z M7.8,8.6L7.8,8.6L7.8,8.6L7.8,8.6L7.8,8.6z M8,7.7L7.9,7.6l-0.1,0
		L8,7.7L8,7.7z M7.9,2.4l0.3,0L7.9,2.4L7.9,2.4L7.9,2.4z M8,3.1L8,3.1L8,3.1L8,3.1z M7.9,7.4C8,7.4,8,7.3,7.9,7.4
		C7.9,7.3,7.9,7.3,7.9,7.4z M8,7.9L8,7.9L8,7.9C7.9,7.9,7.9,7.9,8,7.9z M7.9,8.3C7.9,8.3,7.9,8.4,7.9,8.3C7.9,8.4,8,8.4,7.9,8.3
		C8,8.3,8,8.3,7.9,8.3L7.9,8.3z M8,8.7C8,8.7,8,8.7,8,8.7C8,8.6,8,8.6,8,8.7L8,8.7L8,8.7z M8,9.1C8,9.1,8,9.1,8,9.1
		C8,9.1,8.1,9.1,8,9.1C8,9.1,8,9.1,8,9.1z M8,9.7L8,9.7L8,9.7L8,9.7z M8.1,2.2C8.1,2.2,8.1,2.1,8.1,2.2L8.1,2.2L8.1,2.2z M8.1,7.3
		L8.1,7.3L8.1,7.3L8.1,7.3L8.1,7.3z M8.3,9.2L8.2,8.9H8.1c0,0,0,0.1,0,0.1s0,0,0.1,0c0,0,0,0,0.1,0.1c0,0,0,0.1,0,0.3l0,0L8.3,9.2z
		 M8.1,9.4L8.1,9.4L8.1,9.4L8.1,9.4L8.1,9.4z M8.1,3.3L8.1,3.3L8.1,3.3L8.1,3.3z M8.1,7.6C8.1,7.6,8.2,7.5,8.1,7.6
		c0.1-0.1,0.1-0.1,0.2-0.1l-0.1,0C8.1,7.4,8.1,7.5,8.1,7.6z M8.2,8.4C8.2,8.4,8.2,8.4,8.2,8.4C8.2,8.4,8.1,8.4,8.2,8.4l-0.1,0
		L8.2,8.4L8.2,8.4z M8.2,7.9C8.2,7.8,8.1,7.8,8.2,7.9L8.2,7.9L8.2,7.9z M8.3,8.3c0,0,0.1,0.1,0.1,0.1L8.3,8.3l0.2-0.2v0
		c0,0-0.1,0-0.2,0S8.1,8.2,8.1,8.2C8.2,8.2,8.2,8.2,8.3,8.3z M8.2,8.9L8.2,8.9L8.2,8.9L8.2,8.9L8.2,8.9z M8.2,7.9L8.2,7.9L8.2,7.9
		L8.2,7.9L8.2,7.9z M8.2,9.6L8.2,9.6L8.2,9.6L8.2,9.6L8.2,9.6z M8.3,7.3L8.3,7.3L8.3,7.3L8.3,7.3L8.3,7.3z M8.3,8.6L8.3,8.6L8.3,8.6
		L8.3,8.6z M8.3,2.9L8.3,2.9L8.3,2.9L8.3,2.9z M8.3,7.1C8.3,7.1,8.3,7,8.3,7.1L8.3,7.1L8.3,7.1C8.3,7.1,8.3,7.1,8.3,7.1z M8.4,8.6
		L8.4,8.6l0,0.2L8.4,8.6z M8.5,8.9L8.4,8.8l-0.1,0L8.5,8.9L8.5,8.9z M8.4,9.3L8.4,9.3L8.3,9.4C8.4,9.4,8.4,9.4,8.4,9.3z M8.4,7.3
		c0,0-0.1,0.1-0.1,0.1c0-0.1,0.1-0.2,0.2-0.2h0C8.5,7.2,8.4,7.3,8.4,7.3z M8.3,7.6C8.3,7.6,8.3,7.6,8.3,7.6L8.3,7.6L8.3,7.6z
		 M8.4,9.7L8.4,9.7L8.4,9.7L8.4,9.7L8.4,9.7z M8.5,2.5L8.5,2.5H8.4H8.5z M8.4,2.8L8.4,2.8C8.4,2.8,8.4,2.8,8.4,2.8z M8.4,6.8
		L8.4,6.8L8.4,6.8L8.4,6.8L8.4,6.8z M8.7,8.5C8.7,8.5,8.7,8.5,8.7,8.5C8.7,8.5,8.7,8.5,8.7,8.5L8.5,8.4l-0.1,0L8.7,8.5L8.7,8.5z
		 M8.4,3.4L8.4,3.4L8.4,3.4L8.4,3.4L8.4,3.4z M8.4,7.5L8.4,7.5L8.4,7.5L8.4,7.5L8.4,7.5z M8.5,8C8.5,8,8.5,8,8.5,8
		c0.1-0.1,0.1-0.1,0.1-0.1h0C8.5,7.9,8.5,7.9,8.5,8z M8.5,2.7L8.5,2.7L8.5,2.7L8.5,2.7L8.5,2.7z M8.5,7.4C8.5,7.4,8.5,7.4,8.5,7.4
		C8.5,7.4,8.5,7.4,8.5,7.4L8.5,7.4L8.5,7.4L8.5,7.4z M8.6,8.6L8.6,8.6L8.6,8.6L8.6,8.6z M8.6,7.1V7V7.1L8.6,7.1z M8.6,8.3l0-0.1
		L8.6,8.3L8.6,8.3z M8.6,9.8L8.6,9.8L8.6,9.8L8.6,9.8z M8.6,6.8C8.6,6.8,8.7,6.9,8.6,6.8c0.2,0.1,0.2,0,0.3,0s0.1-0.1,0.2-0.2
		C9,6.6,9,6.7,8.9,6.7C8.8,6.8,8.8,6.8,8.6,6.8C8.7,6.8,8.7,6.8,8.6,6.8c0-0.1,0-0.1,0-0.1C8.6,6.7,8.6,6.8,8.6,6.8z M8.6,7.5
		L8.6,7.5L8.6,7.5L8.6,7.5z M8.7,2.3L8.7,2.3L8.7,2.3L8.7,2.3z M8.9,3.3H8.6l0,0.1L8.9,3.3z M8.6,2.6L8.6,2.6
		C8.7,2.5,8.6,2.6,8.6,2.6z M8.6,3L8.6,3L8.6,3L8.6,3z M8.6,9.3L8.6,9.3C8.7,9.2,8.7,9.2,8.6,9.3L8.6,9.3L8.6,9.3z M8.6,9.6L8.6,9.6
		L8.6,9.6L8.6,9.6L8.6,9.6z M8.6,9.9L8.6,9.9L8.6,9.9L8.6,9.9z M8.8,9.5L8.8,9.5L8.7,9.4C8.7,9.5,8.7,9.5,8.8,9.5z M8.7,8.3L8.7,8.3
		L8.7,8.3L8.7,8.3z M8.7,7.1L8.7,7.1L8.7,7.1L8.7,7.1z M8.7,8.1L8.7,8.1L8.7,8.1L8.7,8.1L8.7,8.1z M8.7,8.8L8.7,8.8L8.7,8.8L8.7,8.8
		z M8.7,9.7L8.7,9.7L8.7,9.7L8.7,9.7L8.7,9.7z M8.7,8.6L8.7,8.6L8.7,8.6L8.7,8.6L8.7,8.6z M8.8,8.2C8.7,8.2,8.7,8.2,8.8,8.2
		C8.8,8.2,8.8,8.2,8.8,8.2C8.8,8.2,8.8,8.1,8.8,8.2L8.8,8.2C8.8,8.1,8.8,8.1,8.8,8.2z M8.9,8L8.9,8h0.2l0,0L8.8,7.9l0,0L8.9,8L8.9,8
		z M8.9,9.2L8.9,9.2L8.9,9.2L8.9,9.2z M8.8,8.3L8.8,8.3L8.8,8.3L8.8,8.3z M8.9,8.7L8.9,8.7L8.9,8.7L8.9,8.7z M8.9,2.1L8.9,2.1
		L8.9,2.1L8.9,2.1L8.9,2.1z M8.9,2.9H9v0L8.9,2.9z M8.9,7.2L8.9,7.2L8.9,7.2L8.9,7.2z M8.9,8.1L8.9,8.1L8.9,8.1L8.9,8.1L8.9,8.1z
		 M8.9,6.5L8.9,6.5L8.9,6.5L8.9,6.5z M8.9,2.7L8.9,2.7L8.9,2.7C8.9,2.6,8.9,2.7,8.9,2.7z M8.9,3.1C8.9,3.1,8.9,3,8.9,3.1L8.9,3.1
		L8.9,3.1C8.9,3.1,8.9,3.1,8.9,3.1z M8.9,3.3L8.9,3.3L8.9,3.3L8.9,3.3L8.9,3.3z M8.9,8.9L8.9,8.9L8.9,8.9L8.9,8.9L8.9,8.9z M9,9.4
		L9,9.4L9,9.4L9,9.4L9,9.4z M8.9,6.6L8.9,6.6L8.9,6.6L8.9,6.6L8.9,6.6z M9,7.1C9,7,9,7,9,7.1C9,7,9,7.1,9,7.1z M9,7.4L9,7.4L9,7.4
		L9,7.4L9,7.4z M9,7.7C9,7.7,9,7.7,9,7.7L9,7.7C9,7.7,9,7.7,9,7.7z M9.1,8.6L9,8.6L9,8.7L9.1,8.6z M9.2,2.5c0-0.1,0.1-0.1,0.1-0.1
		L9.2,2.3L9,2.5l0.1,0.1C9.1,2.6,9.2,2.6,9.2,2.5z M9.1,9.7L9.1,9.7L9.1,9.7L9.1,9.7z M9.1,3.4l0-0.1L9.1,3.4L9.1,3.4z M9.1,6.4
		L9.1,6.4L9.1,6.4L9.1,6.4L9.1,6.4z M9.1,7.1L9.1,7.1L9.1,7.1L9.1,7.1L9.1,7.1z M9.1,8.2L9.1,8.2L9.1,8.2L9.1,8.2L9.1,8.2z M9.1,9
		L9.1,9L9.1,9L9.1,9L9.1,9z M9.1,9.2L9.1,9.2L9.1,9.2L9.1,9.2L9.1,9.2z M9.2,9.3L9.2,9.3L9.1,9.4C9.2,9.4,9.2,9.3,9.2,9.3z M9.2,6.1
		C9.2,6.2,9.2,6.2,9.2,6.1C9.2,6.2,9.2,6.1,9.2,6.1C9.2,6.1,9.2,6.1,9.2,6.1C9.1,6.1,9.1,6.1,9.2,6.1z M9.2,6.5c0,0,0,0.1-0.1,0.1
		C9.2,6.6,9.2,6.5,9.2,6.5C9.3,6.5,9.3,6.4,9.2,6.5C9.3,6.4,9.2,6.4,9.2,6.5z M9.2,6.8L9.2,6.8L9.2,6.8L9.2,6.8z M9.2,7.4L9.2,7.4
		L9.2,7.4C9.1,7.3,9.2,7.4,9.2,7.4z M9.2,9.1C9.2,9,9.2,9,9.2,9.1L9.2,9.1L9.2,9.1C9.2,9.1,9.2,9.1,9.2,9.1z M9.4,9.6L9.3,9.5
		L9.2,9.6H9.4z M9.3,8L9.3,8L9.3,8L9.3,8L9.3,8z M9.3,2.9L9.3,2.9L9.4,3L9.3,2.9z M9.3,3.5l0.2,0v0H9.3z M9.4,7.2L9.4,7.2L9.4,7.2
		L9.4,7.2z M9.3,7.5C9.3,7.5,9.3,7.5,9.3,7.5L9.3,7.5L9.3,7.5z M9.3,8.9L9.3,8.9L9.3,8.9C9.3,8.9,9.3,8.9,9.3,8.9z M9.4,8.1
		C9.4,8.1,9.3,8.2,9.3,8.3h0L9.6,8C9.6,8,9.5,8,9.4,8.1z M9.4,8.6C9.4,8.6,9.4,8.6,9.4,8.6C9.4,8.6,9.4,8.6,9.4,8.6
		C9.4,8.6,9.5,8.5,9.4,8.6C9.4,8.5,9.4,8.5,9.4,8.6z M9.3,9.1L9.3,9.1L9.3,9.1C9.4,9.2,9.4,9.2,9.3,9.1C9.4,9.1,9.4,9.1,9.3,9.1
		C9.4,9.1,9.3,9.1,9.3,9.1z M9.4,3.2L9.4,3.2L9.4,3.2L9.4,3.2L9.4,3.2z M9.4,6.9L9.4,6.9L9.4,6.9L9.4,6.9L9.4,6.9z M9.5,6.5L9.5,6.5
		L9.4,6.6l0,0.1L9.5,6.5z M9.4,2.2L9.4,2.2L9.4,2.2L9.4,2.2z M9.4,9.4L9.4,9.4L9.4,9.4L9.4,9.4z M9.4,6.2L9.4,6.2L9.4,6.2L9.4,6.2z
		 M9.4,7.2L9.4,7.2L9.4,7.2L9.4,7.2z M9.5,6L9.5,6L9.5,6L9.5,6z M9.6,7.4H9.4H9.6z M9.5,2.9L9.5,2.9L9.5,2.9L9.5,2.9z M9.5,8.7
		L9.5,8.7L9.5,8.7L9.5,8.7z M9.5,3.2L9.5,3.2L9.5,3.2L9.5,3.2z M9.5,7L9.5,7L9.5,7L9.5,7L9.5,7z M9.6,7.3L9.6,7.3L9.6,7.3L9.6,7.3
		L9.6,7.3z M9.6,6.3L9.6,6.3L9.6,6.3L9.6,6.3z M9.6,3.4L9.6,3.4l0.1,0.1L9.6,3.4z M9.7,6.2L9.7,6.2l-0.1,0L9.7,6.2z M9.7,3L9.7,3
		L9.7,3L9.7,3z M9.7,3.3L9.7,3.3L9.7,3.3L9.7,3.3L9.7,3.3z M9.7,2.9L9.7,2.9L9.7,2.9L9.7,2.9C9.8,2.9,9.7,2.9,9.7,2.9z M9.9,3.1
		C9.9,3.1,9.9,3,9.9,3.1L9.9,3.1L9.9,3.1C9.8,3.1,9.8,3.1,9.9,3.1z M9.9,3.4L9.9,3.4L9.9,3.4L9.9,3.4L9.9,3.4z"/>
</g>
</svg>
