<?xml version="1.0" encoding="utf-8"?>
<!-- Generator: Adobe Illustrator 17.1.0, SVG Export Plug-In . SVG Version: 6.00 Build 0)  -->
<!DOCTYPE svg PUBLIC "-//W3C//DTD SVG 1.1//EN" "http://www.w3.org/Graphics/SVG/1.1/DTD/svg11.dtd">
<svg version="1.1" id="Layer_1" xmlns="http://www.w3.org/2000/svg" xmlns:xlink="http://www.w3.org/1999/xlink" x="0px" y="0px"
	 width="17.8px" height="12.2px" viewBox="0 0 17.8 12.2" enable-background="new 0 0 17.8 12.2" xml:space="preserve">
<g>
	<path d="M9.6,1.6c0.4,0,0.7,0.1,1,0.3c0.1,0.1,0.3,0.1,0.5,0.3c0.2,0.1,0.3,0.2,0.5,0.4c0.2,0.1,0.3,0.3,0.4,0.4
		c0.1,0.2,0.2,0.3,0.2,0.5c0,0.3-0.1,0.5-0.2,0.7c-0.1,0.2-0.3,0.3-0.4,0.5c-0.1,0.1-0.3,0.2-0.4,0.3C11.1,4.9,11,5,11,5.1
		c0,0.1,0,0.1,0.1,0.2c0.1,0,0.1,0.1,0.2,0.1c0.4,0.2,0.6,0.5,0.9,0.8c0.2,0.4,0.3,0.7,0.3,1.1c0,0.1,0,0.2,0,0.3c0,0.1,0,0.2,0,0.3
		l0,0.3c-0.3,0.7-0.7,1.3-1.3,1.6s-1.3,0.5-2.1,0.5c0,0-0.1,0-0.2,0c-0.1,0-0.1,0-0.2,0s-0.2,0-0.2,0s-0.1-0.1-0.1-0.1l0.1-0.1
		c0.1,0,0.2,0,0.3,0.1c0.1,0,0.2,0.1,0.3,0.1c0.3,0,0.5,0,0.7-0.1c0.2,0,0.4-0.1,0.6-0.2c0.2-0.1,0.3-0.3,0.4-0.5
		c0.1-0.2,0.2-0.4,0.3-0.7C11,8.5,10.8,8.3,10.5,8c-0.3-0.2-0.6-0.5-1-0.7S8.7,7,8.3,6.9c-0.4-0.1-0.7-0.2-1-0.2c0,0-0.1,0-0.1,0
		c0,0-0.1,0-0.1,0C6.9,7,6.7,7.2,6.6,7.5S6.3,8,6.3,8.3c0,0.2,0,0.4,0.1,0.6C6.5,9,6.6,9.2,6.7,9.4c0,0.1,0.1,0.1,0.2,0.2
		s0.3,0.2,0.4,0.2c0.2,0.1,0.3,0.2,0.5,0.3s0.3,0.2,0.3,0.2c-0.2,0-0.4,0-0.7-0.1c-0.3-0.1-0.5-0.2-0.8-0.4C6.4,9.6,6.2,9.5,6,9.3
		C5.7,9.1,5.6,9,5.5,8.8C5.4,8.7,5.3,8.5,5.3,8.4c0-0.2,0-0.3,0-0.5c0-0.2,0.1-0.4,0.2-0.5c0.1-0.1,0.3-0.2,0.4-0.3
		C6,7,6.2,6.9,6.4,6.8c0.2-0.1,0.3-0.2,0.5-0.3l0,0c0-0.1-0.1-0.2-0.2-0.3C6.5,6.2,6.4,6.1,6.3,5.9C6.1,5.8,6,5.5,5.9,5.3
		s-0.2-0.6-0.2-1c0-0.2,0-0.4,0-0.7s0.1-0.5,0.2-0.7c0.1-0.2,0.3-0.3,0.5-0.5C6.6,2.2,6.9,2.1,7.1,2c0.2-0.1,0.5-0.2,0.7-0.3
		C8,1.6,8.3,1.5,8.5,1.5C8.9,1.5,9.2,1.5,9.6,1.6z M5.7,7.9L5.7,7.9L5.7,7.9L5.7,7.9L5.7,7.9z M5.8,7.9L5.8,7.9L5.8,7.9L5.8,7.9
		L5.8,7.9z M5.9,8.9L5.9,8.9L5.9,8.9L5.9,8.9L5.9,8.9z M6,9L6,9L6,9L6,9L6,9z M6.1,4.2c0,0.1,0,0.1,0,0.2h0.2V4.1
		C6.1,4.1,6.1,4.1,6.1,4.2z M6.5,3.4c-0.1,0-0.1,0.1-0.2,0.1h0l0.4-0.2v0C6.7,3.3,6.6,3.3,6.5,3.4z M6.4,3.1L6.4,3.1L6.4,3.1
		L6.4,3.1L6.4,3.1z M6.4,5.2L6.4,5.2L6.4,5.2L6.4,5.2L6.4,5.2z M6.5,5.1L6.5,5.1L6.5,5.1L6.5,5.1L6.5,5.1z M6.5,3.6
		C6.5,3.6,6.5,3.6,6.5,3.6L6.5,3.6C6.5,3.5,6.5,3.5,6.5,3.6z M6.5,5.2L6.5,5.2L6.5,5.2L6.5,5.2L6.5,5.2z M6.6,3.1L6.6,3.1L6.6,3.1
		L6.6,3.1L6.6,3.1z M6.6,5.3L6.6,5.3L6.6,5.3L6.6,5.3L6.6,5.3z M6.7,5.4L6.7,5.4L6.7,5.4L6.7,5.4z M6.7,5.6L6.7,5.6L6.7,5.6L6.7,5.6
		z M6.7,3L6.7,3L6.7,3L6.7,3z M6.7,3.7L6.7,3.7L6.7,3.7L6.7,3.7z M6.8,4.3L6.8,4.3L6.8,4.3L6.8,4.3z M6.8,5L6.8,5L6.8,5L6.8,5z
		 M6.8,5.4L6.8,5.4L6.8,5.4L6.8,5.4z M6.8,5.6L6.8,5.6L6.8,5.6L6.8,5.6z M6.9,5.7L6.9,5.7L6.9,5.7L6.9,5.7z M7,5.5V5.4H6.9
		C6.9,5.4,7,5.5,7,5.5z M6.9,4.2L6.9,4.2C7,4.2,7,4.2,6.9,4.2C7,4.2,7,4.2,6.9,4.2L6.9,4.2L6.9,4.2z M7,5.2L7,5.2L7,5.2L7,5.2L7,5.2
		z M7,5.9L7,5.9L7,5.9L7,5.9z M7.1,5.1L7.1,5.1L7.1,5.1L7.1,5.1z M7.1,6.1L7.1,6.1L7.1,6.1L7.1,6.1L7.1,6.1z M7.4,3.6
		C7.5,3.8,7.7,4,8,4.1c0.2,0.1,0.5,0.2,0.7,0.3C9,4.4,9.2,4.5,9.5,4.5c0.2,0,0.4,0.1,0.5,0.2s0.4,0.1,0.6,0.1c0.1,0,0.3-0.1,0.4-0.2
		c0.1-0.1,0.2-0.3,0.2-0.4c0.1-0.2,0.1-0.3,0.1-0.5c0-0.2,0-0.3,0-0.4c0-0.3-0.1-0.6-0.3-0.8c-0.2-0.2-0.4-0.4-0.7-0.5
		C10,2,9.7,1.9,9.4,1.8S8.8,1.8,8.6,1.8c-0.2,0-0.4,0-0.5,0.1C7.9,1.9,7.7,1.9,7.6,2C7.5,2.1,7.3,2.2,7.3,2.4S7.1,2.7,7.1,2.9
		C7.1,3.2,7.2,3.5,7.4,3.6z M7.2,4.9L7.2,4.9L7.2,4.9L7.2,4.9z M7.2,5.1L7.2,5.1L7.2,5.1L7.2,5.1z M7.3,4.6L7.3,4.6L7.3,4.6L7.3,4.6
		z M7.3,6.1L7.3,6.1L7.3,6.1L7.3,6.1z M7.4,4.3L7.4,4.3L7.4,4.3L7.4,4.3z M7.3,5.2L7.3,5.2L7.3,5.2L7.3,5.2L7.3,5.2z M7.4,5.6
		L7.4,5.6L7.4,5.6L7.4,5.6z M7.4,5.9C7.5,5.9,7.5,5.9,7.4,5.9C7.5,5.9,7.5,5.9,7.4,5.9L7.4,5.9L7.4,5.9z M7.5,5.8L7.5,5.8L7.5,5.8
		L7.5,5.8L7.5,5.8z M7.6,6.2c0,0,0.1,0.1,0.1,0.1c0,0,0.1,0,0.1,0l0.1,0v0.1l0.2-0.1C8.1,6,8,6,8,6c0,0-0.1,0-0.1,0
		C7.7,5.9,7.6,6,7.5,6C7.5,6.1,7.5,6.1,7.6,6.2z M7.6,5.2L7.6,5.2L7.6,5.2L7.6,5.2L7.6,5.2z M7.6,5.4L7.6,5.4L7.6,5.4L7.6,5.4
		L7.6,5.4z M7.7,5.8L7.7,5.8L7.7,5.8L7.7,5.8L7.7,5.8z M7.7,6.1L7.7,6.1L7.7,6.1L7.7,6.1z M7.8,5L7.8,5L7.8,5L7.8,5L7.8,5z M7.8,5.5
		L7.8,5.5L7.8,5.5L7.8,5.5L7.8,5.5z M7.8,5.6L7.8,5.6L7.8,5.6L7.8,5.6C7.9,5.5,7.8,5.5,7.8,5.6z M7.9,5.4L7.9,5.4L7.9,5.4L7.9,5.4
		L7.9,5.4z M8,4.8L8,4.8L8,4.8L8,4.8L8,4.8z M8,4.9L8,4.9L8,4.9L8,4.9L8,4.9z M8.2,5.6L8.2,5.6L8.2,5.6L8.2,5.6L8.2,5.6z M8.2,6.2
		L8.2,6.2L8.2,6.2L8.2,6.2L8.2,6.2z M8.2,5.2L8.2,5.2L8.2,5.2L8.2,5.2L8.2,5.2z M8.3,5.7L8.3,5.7L8.3,5.7L8.3,5.7L8.3,5.7z M8.5,6
		H8.3l0.2,0.1L8.5,6z M8.3,5.4L8.3,5.4L8.3,5.4L8.3,5.4L8.3,5.4z M8.4,5.9L8.4,5.9L8.4,5.9L8.4,5.9z M8.5,5.5L8.5,5.5L8.5,5.5
		L8.5,5.5L8.5,5.5z M8.6,4.8L8.6,4.8L8.6,4.8L8.6,4.8z M8.6,5.7C8.7,5.7,8.7,5.7,8.6,5.7c0.1-0.1,0.1-0.1,0.1-0.2v0L8.6,5.7L8.6,5.7
		z M8.7,5.4L8.7,5.4L8.7,5.4L8.7,5.4z M8.7,5.9L8.7,5.9c0.1,0,0.2,0,0.2,0C9,5.8,9,5.7,9,5.7L8.9,5.6h0L8.7,5.9z M8.8,6.3L8.8,6.3
		L8.8,6.3L8.8,6.3z M8.8,5.4L8.8,5.4L8.8,5.4L8.8,5.4z M8.9,6.8L8.9,6.8L8.9,6.8L8.9,6.8z M9,5.5L9,5.5L9,5.5L9,5.5z M9,5.9L9,5.9
		L9,5.9L9,5.9z M9,6.6L9,6.6L9,6.6L9,6.6C9,6.6,9,6.6,9,6.6z M9.1,6.3L9.1,6.3L9.1,6.3L9.1,6.3z M9.2,5.2L9.2,5.2L9.2,5.2L9.2,5.2
		L9.2,5.2z M9.2,6.5L9.2,6.5L9.2,6.5L9.2,6.5z M9.2,6.9L9.2,6.9L9.2,6.9L9.2,6.9z M9.2,5.3L9.2,5.3L9.2,5.3L9.2,5.3L9.2,5.3z
		 M9.2,5.6L9.2,5.6L9.2,5.6L9.2,5.6L9.2,5.6z M9.4,6.5L9.4,6.5L9.4,6.5L9.4,6.5L9.4,6.5z M9.5,5.4L9.5,5.4L9.5,5.4L9.5,5.4L9.5,5.4z
		 M9.6,5.7L9.6,5.7L9.6,5.7L9.6,5.7L9.6,5.7z M9.7,5.4L9.7,5.4L9.7,5.4L9.7,5.4L9.7,5.4z M9.7,5.6L9.7,5.6L9.7,5.6L9.7,5.6L9.7,5.6z
		 M9.8,7.2l0.1,0L9.8,7.2L9.8,7.2L9.8,7.2z M9.9,5.3L9.9,5.3L9.9,5.3L9.9,5.3L9.9,5.3z M10.2,5.8L10.2,5.8L10.2,5.8L10.2,5.8z
		 M10.3,5.3L10.3,5.3L10.3,5.3L10.3,5.3z M10.5,6.5L10.5,6.5L10.5,6.5L10.5,6.5z M10.6,6.1L10.6,6.1L10.6,6.1L10.6,6.1z M10.7,5.7
		L10.7,5.7L10.7,5.7L10.7,5.7z M10.7,6.5L10.7,6.5L10.7,6.5L10.7,6.5z M10.8,6.1L10.8,6.1L10.8,6.1L10.8,6.1z M10.8,6.4L10.8,6.4
		L10.8,6.4L10.8,6.4L10.8,6.4z M10.8,7L10.8,7L10.8,7L10.8,7z M10.9,6.2L10.9,6.2L10.9,6.2L10.9,6.2z M10.8,7.7L10.8,7.7L10.8,7.7
		L10.8,7.7L10.8,7.7z M10.9,7.8L10.9,7.8L10.9,7.8L10.9,7.8z M11.1,6L11.1,6L11.1,6L11.1,6L11.1,6z M11.1,6.3L11.1,6.3L11.1,6.3
		L11.1,6.3L11.1,6.3z M11.2,6.5L11.2,6.5L11.2,6.5L11.2,6.5L11.2,6.5z M11.3,6.1L11.2,6v0.1H11.3z M11.3,8.5L11.3,8.5L11.3,8.5
		L11.3,8.5L11.3,8.5z M11.4,9.2L11.4,9.2L11.4,9.2L11.4,9.2z M11.4,8.5c0,0,0,0.1,0,0.1c0,0,0,0.1,0,0.1c0,0,0,0.1-0.1,0.1l0,0.2
		c0,0,0.1,0,0.1-0.1c0,0,0.1-0.1,0.1-0.1l0,0c0-0.1,0-0.1,0.1-0.2c0,0-0.1,0-0.1-0.1c0,0,0-0.1,0-0.1l0,0L11.4,8.5
		C11.4,8.4,11.4,8.4,11.4,8.5z M11.6,9.1L11.6,9.1L11.6,9.1L11.6,9.1L11.6,9.1z M11.6,6.9L11.6,6.9L11.6,6.9L11.6,6.9L11.6,6.9z
		 M11.7,6.3L11.7,6.3L11.7,6.3L11.7,6.3L11.7,6.3z M11.7,6.5L11.7,6.5L11.7,6.5L11.7,6.5L11.7,6.5z M11.7,9.1L11.7,9.1L11.7,9.1
		L11.7,9.1L11.7,9.1z M12.1,6.9c0-0.1,0-0.1,0-0.2S12,6.6,11.9,6.6c-0.1,0-0.1,0.1-0.1,0.1c0,0,0,0.1,0,0.2l0.1-0.1L12.1,6.9h-0.2
		H12.1z M11.8,9L11.8,9L11.8,9L11.8,9L11.8,9z M12.1,8.4c0,0,0-0.1,0-0.1c0-0.1-0.1-0.1-0.1-0.1l-0.1,0.2H12.1L12.1,8.4z M11.9,8.7
		L11.9,8.7L11.9,8.7L11.9,8.7L11.9,8.7z M12,7.8C12,7.9,11.9,8,11.9,8c0.1,0,0.2,0,0.2-0.1c0-0.1,0-0.1,0.1-0.2h0
		C12.1,7.7,12,7.8,12,7.8z M12.1,8.3L12.1,8.3L12.1,8.3L12.1,8.3z M12.2,8.1L12.2,8.1L12.2,8.1L12.2,8.1z"/>
</g>
</svg>
