<?xml version="1.0" encoding="utf-8"?>
<!-- Generator: Adobe Illustrator 17.1.0, SVG Export Plug-In . SVG Version: 6.00 Build 0)  -->
<!DOCTYPE svg PUBLIC "-//W3C//DTD SVG 1.1//EN" "http://www.w3.org/Graphics/SVG/1.1/DTD/svg11.dtd">
<svg version="1.1" id="Layer_1" xmlns="http://www.w3.org/2000/svg" xmlns:xlink="http://www.w3.org/1999/xlink" x="0px" y="0px"
	 width="17.8px" height="12.2px" viewBox="0 0 17.8 12.2" enable-background="new 0 0 17.8 12.2" xml:space="preserve">
<g>
	<path d="M6.3,6.3C6.1,6.1,6,6,5.8,5.8C5.7,5.7,5.6,5.5,5.5,5.3C5.5,5.1,5.4,4.9,5.4,4.6c0-0.4,0.1-0.7,0.2-1
		c0.1-0.3,0.3-0.6,0.5-0.8c0.2-0.2,0.4-0.4,0.7-0.6s0.6-0.3,0.9-0.4C7.8,1.8,8,1.7,8,1.7c0.1-0.1,0.2-0.1,0.4-0.1c0.1,0,0.1,0,0.2,0
		c0.1,0,0.2,0,0.2,0.1H8.5C8.3,1.9,8.1,2.1,8,2.4C8,2.6,7.9,2.9,7.9,3.2c0,0.3,0,0.6,0,0.9c0,0.3,0,0.6,0,0.8c0,0.2,0,0.4,0,0.5
		c0,0.2,0,0.3,0.1,0.5C8.1,6,8.2,6.2,8.3,6.3s0.3,0.2,0.5,0.3c0,0.1-0.1,0.1-0.1,0.1S8.5,6.8,8.5,6.8H7.5C7.5,6.7,7.4,6.6,7.3,6.6
		c-0.1,0-0.2,0-0.3,0H6.8C6.6,6.5,6.5,6.4,6.3,6.3z M5.9,4.6C5.9,4.6,5.9,4.6,5.9,4.6C5.9,4.6,5.9,4.6,5.9,4.6L5.9,4.6L5.9,4.6z
		 M7.5,10.2C7.2,10.1,7,9.9,6.7,9.8C6.5,9.6,6.3,9.4,6.2,9.2S5.9,8.8,5.9,8.5c0-0.2,0-0.3,0.1-0.4C6.1,8,6.2,7.9,6.3,7.8
		c0.1-0.1,0.2-0.1,0.4-0.2S7,7.5,7.1,7.5c0.1,0,0.2,0.1,0.3,0.1c0.1,0,0.2,0,0.3,0.1c0.1,0,0.2,0.1,0.2,0.1s0.1,0.1,0.2,0.2
		c0,0.1,0,0.2,0.1,0.3c0.1,0.1,0.1,0.2,0.1,0.3c0,0.2,0,0.3-0.1,0.4S8.1,9.2,8,9.3C7.9,9.4,7.8,9.5,7.8,9.6S7.7,9.7,7.7,9.7
		c0,0.1,0,0.2,0.1,0.2c0.1,0.1,0.1,0.1,0.2,0.2c0.1,0,0.2,0.1,0.2,0.1c0.1,0,0.2,0,0.2,0c0,0,0.1,0,0.1,0l0.1,0l-0.1,0.1l-0.4,0
		C8,10.3,7.7,10.2,7.5,10.2z M6.1,4.1L6.1,4.1H6H6.1L6.1,4.1z M6.1,4.5L6.1,4.5L6.1,4.5L6.1,4.5L6.1,4.5z M6.2,3.9L6.2,3.9L6.2,3.9
		L6.2,3.9z M6.2,3.6L6.2,3.6L6.2,3.6L6.2,3.6z M6.4,3.4c0,0,0.1,0,0.1,0L6.4,3.3L6.2,3.5C6.3,3.5,6.3,3.5,6.4,3.4z M6.3,4.2
		c0,0.1,0.1,0.1,0.1,0.1l0,0L6.3,4.2c0-0.1,0-0.2,0-0.2C6.3,4,6.3,4.1,6.3,4.2z M6.3,8.9L6.3,8.9L6.3,8.9L6.3,8.9L6.3,8.9z M6.5,3.1
		L6.5,3.1l-0.2,0l0,0.1L6.5,3.1z M6.4,3.7C6.4,3.7,6.4,3.7,6.4,3.7C6.4,3.6,6.4,3.6,6.4,3.7C6.3,3.7,6.3,3.7,6.4,3.7z M6.3,5.4
		L6.3,5.4L6.3,5.4L6.3,5.4L6.3,5.4z M6.4,5.2L6.4,5.2L6.4,5.2L6.4,5.2z M6.4,5.7L6.4,5.7L6.4,5.7L6.4,5.7L6.4,5.7z M6.6,3.4L6.4,3.5
		l0.1,0.1L6.6,3.4z M6.5,2.9L6.5,2.9L6.5,2.9C6.5,2.9,6.5,2.9,6.5,2.9z M6.5,5.4L6.5,5.4L6.5,5.4L6.5,5.4z M6.5,8.1L6.6,8l0-0.1
		L6.5,8.1L6.5,8.1z M6.6,4.8L6.6,4.8L6.6,4.8L6.6,4.8z M6.6,3.9L6.6,3.9L6.6,3.9L6.6,3.9L6.6,3.9z M6.6,4.3L6.6,4.3L6.6,4.3L6.6,4.3
		L6.6,4.3z M6.7,5.7C6.7,5.6,6.7,5.6,6.7,5.7L6.7,5.7L6.7,5.7z M6.7,5.3L6.7,5.3L6.7,5.3L6.7,5.3L6.7,5.3z M6.7,5.7L6.7,5.7L6.7,5.7
		L6.7,5.7L6.7,5.7z M6.8,6C6.8,5.9,6.7,5.9,6.8,6L6.8,6L6.8,6z M6.8,3.8L6.8,3.8L6.8,3.8L6.8,3.8z M7,4.6L6.8,4.7L7,4.8V4.6z
		 M6.8,4.4l0.1,0L6.8,4.4L6.8,4.4L6.8,4.4z M6.9,5.8L6.9,5.8L6.9,5.8L6.9,5.8L6.9,5.8z M6.8,6L6.8,6L6.8,6L6.8,6L6.8,6z M6.9,4
		L6.9,4L6.9,4L6.9,4L6.9,4z M6.9,5.3L6.9,5.3l0-0.1C6.9,5.2,6.9,5.2,6.9,5.3z M6.9,5.6L6.9,5.6L6.9,5.6L6.9,5.6z M7,5.9L7,5.9L7,5.9
		C7,5.9,7,5.9,7,5.9z M7,6.1L7,6.1L7,6.1L7,6.1L7,6.1z M7.1,3.9L7.1,3.9L7.1,3.9L7.1,3.9C7.1,3.9,7.1,3.9,7.1,3.9z M7,4.4L7,4.4
		L7,4.4L7,4.4L7,4.4z M7.1,2.5L7.1,2.5L7.1,2.5C7.1,2.4,7.1,2.4,7.1,2.5z M7.1,5.6l0.1-0.1L7.1,5.6C7.1,5.5,7.1,5.5,7.1,5.6z
		 M7.2,5.2L7.2,5.2v0.2V5.2z M7.2,3.8c0.1,0,0.1-0.1,0.1-0.2h0L7.2,3.8L7.2,3.8z M7.2,4.5L7.2,4.5l0,0.1L7.2,4.5z M7.6,3.3L7.6,3.3
		l-0.2,0L7.4,3.2c0,0.1,0,0.1-0.1,0.2S7.2,3.5,7.2,3.5l0.1,0L7.6,3.3z M7.2,6L7.2,6L7.2,6L7.2,6z M7.2,5.1C7.2,5.1,7.2,5.1,7.2,5.1
		L7.2,5.1L7.2,5.1C7.2,5,7.2,5,7.2,5.1z M7.3,5.5L7.3,5.5L7.3,5.5C7.3,5.5,7.3,5.5,7.3,5.5z M7.3,6.2C7.3,6.2,7.3,6.2,7.3,6.2
		L7.3,6.2L7.3,6.2L7.3,6.2z M7.3,6L7.3,6L7.3,6L7.3,6z M7.4,6.3L7.4,6.3L7.4,6.3L7.4,6.3L7.4,6.3z M7.4,5.8C7.4,5.8,7.4,5.8,7.4,5.8
		L7.4,5.8C7.4,5.8,7.4,5.8,7.4,5.8z M7.4,3.9L7.4,3.9L7.4,3.9L7.4,3.9z M7.5,5.2C7.5,5.2,7.5,5.2,7.5,5.2V5.1V5.2
		C7.4,5.2,7.5,5.2,7.5,5.2z M7.5,4.2L7.5,4.2L7.5,4.2L7.5,4.2L7.5,4.2z M7.6,5.7L7.6,5.7L7.6,5.7L7.6,5.7z M7.6,5.4L7.6,5.4L7.6,5.4
		L7.6,5.4L7.6,5.4z M7.6,4.5L7.6,4.5L7.6,4.5L7.6,4.5z M7.6,5.9C7.6,5.9,7.6,5.9,7.6,5.9L7.6,5.9L7.6,5.9C7.7,5.8,7.6,5.8,7.6,5.9z
		 M7.7,6.2L7.7,6.2L7.7,6.2L7.7,6.2z M7.8,6.2L7.8,6.2L7.8,6.2L7.8,6.2z M8.9,10.1C9,10,9,10,9.1,9.9c0.1,0,0.1-0.1,0.2-0.1
		c0.1,0,0.1-0.1,0.1-0.1c0-0.1,0-0.3,0.1-0.4c0-0.1,0.1-0.2,0.1-0.4c0-0.1,0.1-0.2,0.1-0.4s0.1-0.2,0.1-0.4c0-0.3,0-0.5,0.1-0.8
		s0-0.5,0-0.8c0,0,0-0.1,0-0.1c0-0.1,0-0.1,0-0.2c0-0.1,0-0.1-0.1-0.2c0-0.1,0-0.1-0.1-0.1c0,0,0,0-0.1,0c0,0-0.1,0-0.1,0
		c0-0.1,0-0.2,0.1-0.3c0.1-0.1,0.1-0.2,0.1-0.2c0-0.2,0.1-0.4,0.1-0.7s0-0.5,0.1-0.7V3.6c0-0.1-0.1-0.1-0.1-0.2c0-0.1,0-0.1,0-0.2
		c0-0.2,0-0.4-0.1-0.6S9.6,2.2,9.6,2.1C9.5,2,9.5,1.9,9.4,1.8S9.4,1.6,9.4,1.6c0.1,0,0.2,0,0.3,0c0.1,0,0.1,0.1,0.2,0.1
		c0.3,0,0.5,0.1,0.8,0.3c0.3,0.2,0.5,0.4,0.7,0.7c0.2,0.3,0.4,0.5,0.6,0.8c0.2,0.3,0.3,0.6,0.3,0.8c0.1,0.2,0.1,0.5,0.1,0.7
		c0,0.2,0,0.5,0,0.7c0,0.3,0,0.6-0.1,0.8s-0.1,0.5-0.2,0.7c-0.1,0.2-0.2,0.4-0.4,0.6c-0.1,0.2-0.3,0.4-0.5,0.7c0,0-0.1,0.1-0.1,0.2
		C11.1,9,11,9.1,11,9.1c-0.1,0.1-0.1,0.1-0.2,0.1c-0.1,0-0.1,0.1-0.2,0.1c-0.2,0.2-0.5,0.4-0.8,0.5C9.6,10,9.3,10.1,9,10.3l-0.1-0.1
		C8.9,10.2,8.9,10.1,8.9,10.1z M9.9,9.1L9.9,9.1L9.9,9.1L9.9,9.1C9.9,9.1,9.9,9.1,9.9,9.1z M10,9.2L10,9.2L10,9.2L10,9.2L10,9.2z
		 M10.2,8.7l-0.2,0v0H10.2z M10,3.3L10,3.3l0.1-0.1L10,3.3z M10.1,4.7L10.1,4.7L10.1,4.7L10.1,4.7z M10.3,7.8l-0.2-0.1l0,0L10.3,7.8
		z M10.1,5.8L10.1,5.8L10.1,5.8L10.1,5.8z M10.1,8.1L10.1,8.1L10.1,8.1L10.1,8.1L10.1,8.1z M10.1,4.3L10.1,4.3L10.1,4.3L10.1,4.3
		L10.1,4.3z M10.1,4.3C10.1,4.4,10.1,4.4,10.1,4.3C10.1,4.4,10.1,4.4,10.1,4.3L10.1,4.3C10.1,4.3,10.1,4.3,10.1,4.3z M10.1,8.9
		C10.1,8.9,10.1,8.9,10.1,8.9C10.1,8.9,10.1,8.9,10.1,8.9L10.1,8.9C10.1,8.8,10.1,8.8,10.1,8.9z M10.3,3.5
		C10.2,3.5,10.2,3.5,10.3,3.5c-0.1,0-0.1,0-0.2,0.1l0.2,0V3.5z M10.2,7.5L10.2,7.5L10.2,7.5L10.2,7.5L10.2,7.5z M10.1,3.4L10.1,3.4
		L10.1,3.4L10.1,3.4z M10.3,3.9l-0.1-0.1l0,0L10.3,3.9z M10.1,3.9L10.1,3.9L10.1,3.9L10.1,3.9z M10.2,5.7L10.2,5.7l-0.1,0L10.2,5.7z
		 M10.2,3.7L10.2,3.7L10.2,3.7L10.2,3.7L10.2,3.7z M10.9,4.7l-0.1-0.1h0.2l-0.1-0.1l0,0l0-0.1l0-0.1c0,0,0,0,0,0l-0.2-0.1l0-0.1
		l-0.2,0l0-0.1h-0.2l0,0.2l0.2,0.1l0.1-0.2l0.1,0.2l0.1,0l0.1,0c0,0.1,0,0.2-0.1,0.2c0,0-0.1,0-0.2,0v0.1l0.1,0c0,0.1,0,0.1-0.1,0.1
		c0,0-0.1,0-0.1,0c0,0-0.1,0-0.1,0c0,0-0.1,0-0.1,0.1L10.3,5l0,0l0.3-0.1c0,0,0-0.1,0-0.1s0-0.1,0.1-0.1l0.1,0.1
		c-0.1,0-0.1,0-0.2,0.1S10.4,5,10.4,5.1l0.1,0.2l0,0l0-0.1L10.6,5c0,0,0.1-0.1,0.1-0.1c0,0,0,0,0,0c0,0,0,0,0,0l0,0L10.9,4.7z
		 M10.2,4.5L10.2,4.5L10.2,4.5L10.2,4.5L10.2,4.5z M10.1,4.8L10.1,4.8L10.1,4.8L10.1,4.8L10.1,4.8z M10.2,8.3L10.2,8.3L10.2,8.3
		L10.2,8.3z M10.2,9.1c0,0,0.1,0,0.1,0C10.4,9.1,10.3,9,10.2,9.1C10.2,9,10.2,9,10.2,9.1C10.2,9,10.2,9,10.2,9.1z M10.2,6.3
		C10.2,6.3,10.2,6.3,10.2,6.3C10.2,6.3,10.2,6.3,10.2,6.3z M10.2,3.3L10.2,3.3L10.2,3.3L10.2,3.3L10.2,3.3z M10.2,4.5L10.2,4.5
		L10.2,4.5L10.2,4.5L10.2,4.5z M10.3,2.8L10.3,2.8C10.2,2.9,10.3,2.8,10.3,2.8z M10.2,7.8C10.2,7.8,10.2,7.8,10.2,7.8
		C10.2,7.8,10.2,7.8,10.2,7.8C10.3,7.8,10.3,7.7,10.2,7.8C10.2,7.7,10.2,7.7,10.2,7.8z M10.3,3.9L10.3,3.9L10.3,3.9L10.3,3.9z
		 M10.2,4.5l0.1,0L10.2,4.5L10.2,4.5z M10.3,7.5L10.3,7.5L10.3,7.5L10.3,7.5z M10.3,5.4L10.3,5.4L10.3,5.4L10.3,5.4L10.3,5.4z
		 M10.3,8.5L10.3,8.5L10.3,8.5L10.3,8.5L10.3,8.5z M10.3,3.6L10.3,3.6L10.3,3.6L10.3,3.6z M10.3,3.8L10.3,3.8L10.3,3.8L10.3,3.8z
		 M10.3,8.9L10.3,8.9L10.3,8.9L10.3,8.9z M10.6,3.8C10.6,3.8,10.6,3.8,10.6,3.8L10.6,3.8l0.3,0l-0.1,0c0.1,0,0.1-0.1,0.1-0.2
		c0-0.1,0-0.2,0-0.2l-0.1,0.1l-0.1-0.1l-0.2,0.1l0.1-0.1l-0.1-0.1l-0.1,0l0,0.1l0,0.1l-0.1,0l0,0c0,0.1,0,0.1,0.1,0.1
		s0.1,0.1,0.1,0.1l0.2,0C10.7,3.7,10.6,3.7,10.6,3.8L10.6,3.8C10.6,3.7,10.6,3.8,10.6,3.8z M10.3,3.9L10.3,3.9L10.3,3.9L10.3,3.9z
		 M10.3,8L10.3,8l0-0.1C10.3,7.9,10.3,7.9,10.3,8z M10.4,8.3C10.3,8.3,10.3,8.3,10.4,8.3C10.3,8.4,10.4,8.4,10.4,8.3
		C10.4,8.3,10.4,8.3,10.4,8.3C10.4,8.3,10.4,8.3,10.4,8.3z M10.3,8.2L10.3,8.2L10.3,8.2L10.3,8.2z M10.4,3.3L10.4,3.3L10.4,3.3
		L10.4,3.3L10.4,3.3z M10.4,8.7L10.4,8.7L10.4,8.7L10.4,8.7L10.4,8.7z M10.4,3.1L10.4,3.1L10.4,3.1L10.4,3.1L10.4,3.1z M10.4,7.8
		c0,0.1,0.1,0.1,0.1,0.1C10.5,7.8,10.5,7.8,10.4,7.8c0.1-0.1,0.1-0.2,0-0.2l0,0C10.4,7.7,10.4,7.7,10.4,7.8z M10.4,3.9L10.4,3.9
		L10.4,3.9L10.4,3.9C10.4,3.9,10.4,3.9,10.4,3.9z M10.4,4.5L10.4,4.5L10.4,4.5C10.4,4.5,10.4,4.5,10.4,4.5z M10.5,2.8L10.5,2.8
		C10.5,2.9,10.5,2.9,10.5,2.8z M10.4,5.8L10.4,5.8L10.4,5.8L10.4,5.8L10.4,5.8z M10.5,3.2L10.5,3.2L10.5,3.2L10.5,3.2L10.5,3.2z
		 M10.5,4.1L10.5,4.1L10.5,4.1L10.5,4.1L10.5,4.1z M10.5,4.4C10.5,4.4,10.5,4.4,10.5,4.4l0,0.1l0,0l0,0L10.5,4.4L10.5,4.4
		C10.5,4.3,10.5,4.4,10.5,4.4z M10.5,5.5L10.5,5.5L10.5,5.5L10.5,5.5z M10.5,8.9L10.5,8.9L10.5,8.9L10.5,8.9L10.5,8.9z M10.6,8.1
		L10.6,8.1L10.6,8.1L10.6,8.1z M10.6,8.3L10.6,8.3L10.6,8.3C10.5,8.3,10.5,8.3,10.6,8.3z M10.6,4.8L10.6,4.8L10.6,4.8L10.6,4.8
		L10.6,4.8z M10.5,8.9l0.2,0c0,0,0,0,0,0s0,0,0,0L10.5,8.9z M10.6,7.8C10.6,7.8,10.5,7.8,10.6,7.8L10.6,7.8L10.6,7.8L10.6,7.8z
		 M10.6,3.1L10.6,3.1L10.6,3.1L10.6,3.1L10.6,3.1z M10.6,7.6L10.6,7.6L10.6,7.6L10.6,7.6L10.6,7.6z M10.6,5.1L10.6,5.1L10.6,5.1
		L10.6,5.1z M10.6,3.8C10.6,3.8,10.6,3.8,10.6,3.8L10.6,3.8C10.6,3.7,10.6,3.7,10.6,3.8z M10.7,5.2L10.7,5.2L10.7,5.2L10.7,5.2z
		 M10.7,8.5L10.7,8.5L10.7,8.5L10.7,8.5z M10.7,3.1L10.7,3.1L10.7,3.1L10.7,3.1L10.7,3.1z M10.7,4L10.7,4L10.7,4L10.7,4L10.7,4z
		 M10.7,8.8L10.7,8.8L10.7,8.8L10.7,8.8z M10.7,4c0,0.1,0,0.1,0,0.1l0-0.3C10.7,3.9,10.7,3.9,10.7,4z M10.8,7.8L10.8,7.8
		C10.7,7.9,10.8,7.8,10.8,7.8c0.1,0,0.1,0,0.1,0C10.9,7.7,10.8,7.7,10.8,7.8z M10.7,8.2C10.7,8.2,10.7,8.1,10.7,8.2
		c0.1-0.1,0.1-0.1,0.1-0.1v0C10.7,8.1,10.7,8.1,10.7,8.2z M10.7,5L10.7,5L10.7,5L10.7,5L10.7,5z M10.8,2.9
		C10.8,2.9,10.8,2.9,10.8,2.9C10.7,2.9,10.8,2.9,10.8,2.9z M10.8,4.9C10.8,4.9,10.8,4.9,10.8,4.9L10.8,4.9L10.8,4.9z M10.8,8.4
		L10.8,8.4v0.1V8.4z M10.8,3L10.8,3L10.8,3L10.8,3L10.8,3z M10.8,5.1L10.8,5.1L10.8,5.1L10.8,5.1z M10.8,8L10.8,8L10.8,8L10.8,8
		L10.8,8z M10.9,6.9L10.9,6.9L10.9,6.9L10.9,6.9z M10.9,7C10.8,7,10.8,7,10.9,7C10.9,7.1,10.9,7.1,10.9,7C11,7,11,7,11,7
		C11,7,10.9,7,10.9,7z M10.9,7.4L10.9,7.4L10.9,7.4L10.9,7.4L10.9,7.4z M11,8.1L11,8.1l-0.1,0.1l0.1,0L11,8.1z M10.9,3.6L10.9,3.6
		L10.9,3.6L10.9,3.6z M10.9,4.5V4.3l0,0L10.9,4.5z M10.8,5.6L10.8,5.6L10.8,5.6L10.8,5.6z M10.9,3.9L10.9,3.9L10.9,3.9L10.9,3.9
		L10.9,3.9z M10.9,4.1C10.9,4.1,10.9,4.1,10.9,4.1L10.9,4.1L10.9,4.1C11,4.1,10.9,4.1,10.9,4.1z M11,3.7L11,3.7L11,3.7L11,3.7z
		 M11,5.1L11,5.1L11,5.1L11,5.1L11,5.1z M11,5.4L11,5.4L11,5.4L11,5.4z M11,2.9C11,2.9,11,3,11,2.9C11,3,11,2.9,11,2.9L11,2.9
		C11,2.9,11,2.9,11,2.9z M11,4L11,4L11,4L11,4L11,4z M11,6.2L11,6.2L11,6.2L11,6.2L11,6.2z M11,7.7L11,7.7L11,7.7L11,7.7z M11,5.3
		L11,5.3L11,5.3L11,5.3z M11,7.2L11,7.2L11,7.2L11,7.2z M11,7.9L11,7.9L11,7.9L11,7.9z M11,4.5L11,4.5L11,4.5L11,4.5z M11,4.4
		L11,4.4L11,4.4L11,4.4z M11,4.2L11,4.2L11,4.2L11,4.2L11,4.2z M11,5L11,5L11,5L11,5L11,5z M11.1,6.7C11.1,6.7,11.1,6.7,11.1,6.7
		L11.1,6.7L11.1,6.7C11.1,6.7,11.1,6.7,11.1,6.7z M11,7.1L11,7.1L11,7.1L11,7.1L11,7.1z M11,7.9L11,7.9L11,7.9L11,7.9L11,7.9z
		 M11,4.7l0.1-0.1L11,4.7C11.1,4.6,11,4.6,11,4.7z M11.1,5.9L11.1,5.9L11.1,5.9L11.1,5.9z M11.2,5.4c0.1,0,0.2,0,0.2-0.1
		c0,0,0-0.1,0.1-0.1c0-0.1,0-0.1,0-0.1s0-0.1,0.1-0.1l0,0l0.2,0l0-0.1l0.1,0l0,0.1l0.1-0.1l0-0.2h0V4.4h-0.1V4.3l0,0l0,0l0.1-0.1
		l-0.1-0.2l-0.1,0l0-0.1c0,0-0.1,0-0.1,0c0,0,0,0.1-0.1,0.1c0,0,0,0.1-0.1,0.1c0,0-0.1,0.1-0.1,0.1V4.3c0,0-0.1,0-0.1,0.1
		c0,0-0.1,0.1-0.1,0.1l0.1,0.1c0,0,0,0,0,0.1c0,0,0,0,0,0.1l0.1-0.1l0.1,0.2l-0.2-0.1l-0.1,0.1l0.1,0.2h0.1L11.2,5.4L11.2,5.4
		L11.2,5.4L11.2,5.4z M11.1,7.5L11.1,7.5L11.1,7.5L11.1,7.5z M11.3,3.9l-0.1-0.1l-0.1,0.1H11.3L11.3,3.9z M11.1,7.8L11.1,7.8
		L11.1,7.8L11.1,7.8z M11.2,6.6L11.2,6.6L11.2,6.6L11.2,6.6z M11.2,3.4C11.2,3.4,11.2,3.3,11.2,3.4L11.2,3.4L11.2,3.4z M11.2,8
		L11.2,8L11.2,8C11.2,7.9,11.2,8,11.2,8z M11.2,6.7L11.2,6.7L11.2,6.7L11.2,6.7z M11.3,7.1L11.3,7.1L11.3,7.1L11.3,7.1L11.3,7.1z
		 M11.3,7L11.3,7L11.3,7L11.3,7z M11.3,7.5C11.3,7.5,11.3,7.5,11.3,7.5L11.3,7.5L11.3,7.5C11.3,7.5,11.3,7.5,11.3,7.5z M11.4,4.1
		c0,0,0-0.1,0-0.1L11.4,4.1L11.4,4.1L11.4,4.1C11.3,4.2,11.4,4.2,11.4,4.1z M11.3,7.8L11.3,7.8L11.3,7.8L11.3,7.8L11.3,7.8z M11.3,7
		L11.3,7L11.3,7L11.3,7z M11.4,4.3L11.4,4.3L11.4,4.3L11.4,4.3L11.4,4.3z M11.4,6.9L11.4,6.9L11.4,6.9L11.4,6.9L11.4,6.9z M11.4,5.5
		L11.4,5.5L11.4,5.5C11.4,5.4,11.4,5.4,11.4,5.5z M11.5,4.2L11.5,4.2L11.5,4.2L11.5,4.2z M11.5,6.7L11.5,6.7L11.5,6.7L11.5,6.7z
		 M11.5,5.2l0.1-0.1L11.5,5.2z M11.5,7.7C11.5,7.7,11.5,7.7,11.5,7.7C11.5,7.7,11.5,7.7,11.5,7.7C11.5,7.6,11.5,7.7,11.5,7.7z
		 M11.5,3.9L11.5,3.9L11.5,3.9L11.5,3.9L11.5,3.9z M11.6,4C11.6,4,11.6,4,11.6,4L11.6,4L11.6,4L11.6,4C11.5,4.1,11.5,4.1,11.6,4z
		 M11.5,7.2L11.5,7.2L11.5,7.2L11.5,7.2z M11.6,5L11.6,5L11.6,5L11.6,5L11.6,5z M11.6,5.3L11.6,5.3L11.6,5.3L11.6,5.3L11.6,5.3z
		 M11.6,7.2L11.6,7.2l0.1,0.1L11.6,7.2z M11.6,5.3L11.6,5.3L11.6,5.3L11.6,5.3z M11.6,7L11.6,7L11.6,7L11.6,7z M11.7,5.8L11.7,5.8
		L11.7,5.8L11.7,5.8z M11.7,5.5C11.7,5.5,11.7,5.5,11.7,5.5L11.7,5.5L11.7,5.5z M11.7,5L11.7,5L11.7,5L11.7,5
		C11.7,4.9,11.7,5,11.7,5z M11.8,4.9L11.8,4.9L11.8,4.9L11.8,4.9z M11.9,4.7C11.9,4.7,11.8,4.7,11.9,4.7L11.9,4.7
		C11.9,4.7,11.9,4.7,11.9,4.7z M11.9,4.9L11.9,4.9v0.3V4.9L11.9,4.9z M11.9,6.6L11.9,6.6L11.9,6.6L11.9,6.6L11.9,6.6z M11.9,7.1
		L11.9,7.1L11.9,7.1L11.9,7.1L11.9,7.1z"/>
</g>
</svg>
